<svg xmlns="http://www.w3.org/2000/svg" xmlns:xlink="http://www.w3.org/1999/xlink" width="154" height="154" viewBox="0 0 154 154">
  <defs>
    <clipPath id="clip-path">
      <rect id="Rectángulo_35299" data-name="Rectángulo 35299" width="154" height="154" transform="translate(-3718 668)" fill="#ffd41c"/>
    </clipPath>
  </defs>
  <g id="Enmascarar_grupo_401" data-name="Enmascarar grupo 401" transform="translate(3718 -668)" clip-path="url(#clip-path)">
    <g id="escuchando" transform="translate(-3718 668)">
      <g id="Grupo_98930" data-name="Grupo 98930">
        <g id="Grupo_98915" data-name="Grupo 98915">
          <g id="Grupo_98914" data-name="Grupo 98914">
            <path id="Trazado_126145" data-name="Trazado 126145" d="M122.748,106.475l-12.614,12.611a3.033,3.033,0,0,1-5.178-2.145v-1.547H67.435A3.035,3.035,0,0,1,64.4,112.36V96.3a3.033,3.033,0,0,1,3.034-3.034h37.521V91.715a3.033,3.033,0,0,1,5.178-2.145l12.614,12.611a3.039,3.039,0,0,1,0,4.293Z" fill="#1c96f9"/>
            <g id="Grupo_98913" data-name="Grupo 98913">
              <path id="Trazado_126146" data-name="Trazado 126146" d="M99.449,93.263a36.886,36.886,0,0,1-19.925,15.778,16.8,16.8,0,0,0-8.573,6.353H67.435A3.035,3.035,0,0,1,64.4,112.36V96.3a3.033,3.033,0,0,1,3.034-3.034Z" fill="#1785f8"/>
              <path id="Trazado_126147" data-name="Trazado 126147" d="M122.748,106.472l-12.614,12.614a3.033,3.033,0,0,1-5.178-2.145v-1.547h-.774l8.922-8.922a3.036,3.036,0,0,0,0-4.29l-8.922-8.922h.774V91.717a3.034,3.034,0,0,1,5.178-2.148l12.614,12.614a3.03,3.03,0,0,1,0,4.29Z" fill="#1785f8"/>
            </g>
          </g>
        </g>
        <g id="Grupo_98927" data-name="Grupo 98927">
          <g id="Grupo_98926" data-name="Grupo 98926">
            <g id="Grupo_98921" data-name="Grupo 98921">
              <g id="Grupo_98918" data-name="Grupo 98918">
                <g id="Grupo_98917" data-name="Grupo 98917">
                  <path id="Trazado_126148" data-name="Trazado 126148" d="M29.719,67.107a36.809,36.809,0,1,1,48.288,34.984,16.475,16.475,0,0,0-11.479,15.6,18.4,18.4,0,0,1-36.809,0Z" fill="#ffcec0"/>
                  <g id="Grupo_98916" data-name="Grupo 98916">
                    <path id="Trazado_126149" data-name="Trazado 126149" d="M97.858,47.851l-4,5.57a3.181,3.181,0,0,1-5.169,0l-7.072-9.86h-9.2A16.692,16.692,0,0,1,56.441,31.7,36.789,36.789,0,0,1,97.858,47.851Z" fill="#fdb0a0"/>
                    <path id="Trazado_126150" data-name="Trazado 126150" d="M55.732,59.16a20.908,20.908,0,0,1-11.546,18.7v4.787a3.033,3.033,0,0,1-5.178,2.145l-4.73-4.73a20.9,20.9,0,0,1-4.56-.619V67.108a36.7,36.7,0,0,1,12.4-27.552,20.925,20.925,0,0,1,13.612,19.6Z" fill="#fdb0a0"/>
                    <path id="Trazado_126151" data-name="Trazado 126151" d="M78.006,102.09a16.474,16.474,0,0,0-11.476,15.6,18.414,18.414,0,0,1-26.372,16.6,18.97,18.97,0,0,0,18.393-18.961A16.979,16.979,0,0,1,70.382,99.247,37.891,37.891,0,0,0,82.912,34.172a36.8,36.8,0,0,1-4.906,67.918Z" fill="#fdb0a0"/>
                  </g>
                </g>
              </g>
              <g id="Grupo_98920" data-name="Grupo 98920">
                <g id="Grupo_98919" data-name="Grupo 98919">
                  <path id="Trazado_126152" data-name="Trazado 126152" d="M55.731,51.656a20.913,20.913,0,1,0-21.454,20.9l4.729,4.729a3.034,3.034,0,0,0,5.179-2.145V70.353a20.909,20.909,0,0,0,11.546-18.7Z" fill="#fddd45"/>
                  <path id="Trazado_126153" data-name="Trazado 126153" d="M55.732,51.656a20.911,20.911,0,0,1-11.546,18.7V75.14a3.033,3.033,0,0,1-5.178,2.145l-2.466-2.466a2.967,2.967,0,0,0,.7-1.954V70.787a4.761,4.761,0,0,1,2.163-3.962A20.915,20.915,0,0,0,37.77,30.948,20.918,20.918,0,0,1,55.732,51.656Z" fill="#f8c52d"/>
                </g>
              </g>
            </g>
            <g id="Grupo_98925" data-name="Grupo 98925">
              <g id="Grupo_98924" data-name="Grupo 98924">
                <g id="Grupo_98923" data-name="Grupo 98923">
                  <g id="Grupo_98922" data-name="Grupo 98922">
                    <path id="Trazado_126154" data-name="Trazado 126154" d="M123.4,2.256H72.422a16.69,16.69,0,0,0,0,33.38h9.2L88.693,45.5a3.181,3.181,0,0,0,5.169,0l7.072-9.861H123.4a16.69,16.69,0,1,0,0-33.38Z" fill="#23f1a8"/>
                    <path id="Trazado_126155" data-name="Trazado 126155" d="M140.095,18.946A16.69,16.69,0,0,0,123.4,2.255h-9.543a16.691,16.691,0,0,1,0,33.383H123.4a16.693,16.693,0,0,0,16.691-16.691Z" fill="#26d192"/>
                  </g>
                </g>
              </g>
            </g>
          </g>
        </g>
        <g id="Grupo_98929" data-name="Grupo 98929">
          <g id="Grupo_98928" data-name="Grupo 98928">
            <path id="Trazado_126156" data-name="Trazado 126156" d="M40.582,133.95,53.2,121.337a3.034,3.034,0,0,1,5.179,2.145v1.546H95.9a3.034,3.034,0,0,1,3.034,3.034v16.065a3.034,3.034,0,0,1-3.034,3.034H58.374v1.546a3.034,3.034,0,0,1-5.179,2.145L40.582,138.241a3.034,3.034,0,0,1,0-4.29Z" fill="#31a7fb"/>
            <path id="Trazado_126157" data-name="Trazado 126157" d="M98.928,128.062v16.066a3.033,3.033,0,0,1-3.034,3.034h-8.2a3.035,3.035,0,0,0,3.034-3.034V128.062a3.035,3.035,0,0,0-3.034-3.034h8.2A3.033,3.033,0,0,1,98.928,128.062Z" fill="#1c96f9"/>
          </g>
        </g>
      </g>
      <g id="Grupo_98931" data-name="Grupo 98931">
        <path id="Trazado_126158" data-name="Trazado 126158" d="M111.73,87.975a5.29,5.29,0,0,0-8.983,3.031H97.4A38.953,38.953,0,0,0,105.245,72.3a2.256,2.256,0,0,0-4.472-.595A34.7,34.7,0,0,1,77.3,99.946a18.726,18.726,0,0,0-13.032,17.745,16.111,16.111,0,0,1-.818,5.082H60.582a5.29,5.29,0,0,0-8.983-3.031L39.807,131.534a16.148,16.148,0,0,1-7.832-13.843v-18a2.256,2.256,0,0,0-4.512,0v18A20.656,20.656,0,0,0,37.487,135.4a5.371,5.371,0,0,0-.05.691,5.255,5.255,0,0,0,1.549,3.741L51.6,152.448a5.29,5.29,0,0,0,8.983-3.031H95.9a5.3,5.3,0,0,0,5.289-5.29V128.063a5.3,5.3,0,0,0-5.289-5.29H85.053a2.256,2.256,0,0,0,0,4.512H95.9a.778.778,0,0,1,.778.778v16.065a.779.779,0,0,1-.778.778H58.374a2.256,2.256,0,0,0-2.256,2.256v1.547a.778.778,0,0,1-1.328.55L42.177,136.645a.778.778,0,0,1,0-1.1L54.79,122.932a.778.778,0,0,1,1.328.55v1.547a2.256,2.256,0,0,0,2.256,2.256H73.916a2.256,2.256,0,1,0,0-4.512H68.149a20.666,20.666,0,0,0,.635-5.082c0-.014,0-.027,0-.041h33.963a5.288,5.288,0,0,0,8.983,3.031l12.613-12.613a5.3,5.3,0,0,0,0-7.481Zm9.422,16.9L108.54,117.491a.778.778,0,0,1-1.328-.55v-1.547a2.256,2.256,0,0,0-2.256-2.256h-35.4a14.38,14.38,0,0,1,9.157-8.9A38.888,38.888,0,0,0,93.3,95.517h11.657a2.256,2.256,0,0,0,2.256-2.256V91.715a.778.778,0,0,1,1.328-.55l12.613,12.613a.779.779,0,0,1,0,1.1Z"/>
        <path id="Trazado_126159" data-name="Trazado 126159" d="M35.311,43.309a2.256,2.256,0,0,0-2.256,2.256v3.964H29.138V45.565a2.256,2.256,0,1,0-4.512,0V58.806a2.256,2.256,0,0,0,4.512,0V54.04h3.917v4.766a2.256,2.256,0,0,0,4.512,0V45.565A2.256,2.256,0,0,0,35.311,43.309Z"/>
        <path id="Trazado_126160" data-name="Trazado 126160" d="M42.223,49.929a2.256,2.256,0,0,0-2.256,2.256v6.621a2.256,2.256,0,0,0,4.512,0V52.185A2.256,2.256,0,0,0,42.223,49.929Z"/>
        <path id="Trazado_126161" data-name="Trazado 126161" d="M42.223,43.309a2.256,2.256,0,0,0-2.256,2.256V45.6a2.256,2.256,0,1,0,4.512,0v-.031A2.256,2.256,0,0,0,42.223,43.309Z"/>
        <path id="Trazado_126162" data-name="Trazado 126162" d="M123.4,0H72.422A18.932,18.932,0,0,0,56.582,29.324a38.7,38.7,0,0,0-8.489,3.343,23.2,23.2,0,0,0-36.439,18.49A23.235,23.235,0,0,0,27.463,73.614V88.552a2.256,2.256,0,1,0,4.512,0V74.64c.439.054.88.1,1.325.128l4.111,4.111a5.275,5.275,0,0,0,3.735,1.552c.066,0,.133-.007.2-.01A14.843,14.843,0,0,0,44,84.022,9.766,9.766,0,0,0,50.949,86.9a1.886,1.886,0,0,1,0,3.773h-3.13a2.256,2.256,0,1,0,0,4.512h3.13a6.4,6.4,0,1,0,0-12.8,5.283,5.283,0,0,1-3.76-1.557,10.347,10.347,0,0,1-1.833-2.48,5.279,5.279,0,0,0,1.086-3.213V71.7a23.178,23.178,0,0,0,6.773-5.93c.337-.022.676-.038,1.015-.04h.13a16.357,16.357,0,0,1,11.593,4.795,16.728,16.728,0,0,1-6.316,27.7,11.366,11.366,0,0,0-7.68,10.745,3.907,3.907,0,0,1-7.814,0v-7.615a2.256,2.256,0,1,0-4.512,0v7.615a8.419,8.419,0,0,0,16.838,0,6.853,6.853,0,0,1,4.633-6.478,21.24,21.24,0,0,0,8.03-35.169,20.828,20.828,0,0,0-13.217-6.041,23.2,23.2,0,0,0,2.074-9.622,23.544,23.544,0,0,0-.214-3.135,21.529,21.529,0,0,1,8.169-1.613c.2,0,.392,0,.591.006a21.718,21.718,0,0,1,14.892,6.426,2.256,2.256,0,1,0,3.19-3.19A26.212,26.212,0,0,0,66.64,42.4c-.238-.006-.473-.006-.711-.008a26.017,26.017,0,0,0-9.206,1.689,23.006,23.006,0,0,0-4.958-8.222,34.207,34.207,0,0,1,8.179-2.676,18.862,18.862,0,0,0,12.476,4.706h8.041l6.4,8.919A5.432,5.432,0,0,0,95,47.6a34.509,34.509,0,0,1,5.582,13.643,2.257,2.257,0,0,0,2.22,1.872,2.29,2.29,0,0,0,.387-.033,2.256,2.256,0,0,0,1.839-2.607,39.071,39.071,0,0,0-7.19-16.654l4.255-5.933H123.4A18.946,18.946,0,1,0,123.4,0ZM43.173,68.336a2.256,2.256,0,0,0-1.244,2.016v4.786a.778.778,0,0,1-1.328.55l-4.729-4.729a2.257,2.257,0,0,0-1.538-.66A18.654,18.654,0,0,1,34.542,33l.278,0a18.657,18.657,0,0,1,8.353,35.338ZM123.4,33.38h-22.47a2.256,2.256,0,0,0-1.833.941l-7.072,9.86a.925.925,0,0,1-1.5,0l-7.072-9.86a2.256,2.256,0,0,0-1.833-.941h-9.2a14.434,14.434,0,1,1,0-28.868H123.4a14.434,14.434,0,1,1,0,28.869Z"/>
        <path id="Trazado_126163" data-name="Trazado 126163" d="M76.183,17.109h5.964a2.256,2.256,0,1,0,0-4.512H76.183a2.256,2.256,0,0,0,0,4.512Z"/>
        <path id="Trazado_126164" data-name="Trazado 126164" d="M118.475,20.784H76.183a2.256,2.256,0,0,0,0,4.512h42.291a2.256,2.256,0,0,0,0-4.512Z"/>
        <path id="Trazado_126165" data-name="Trazado 126165" d="M118.475,12.6H91.419a2.256,2.256,0,1,0,0,4.512h27.056a2.256,2.256,0,1,0,0-4.512Z"/>
        <path id="Trazado_126166" data-name="Trazado 126166" d="M87.508,76.607a2.254,2.254,0,0,0,2.776-1.573,29.18,29.18,0,0,0,.392-13.868,2.256,2.256,0,1,0-4.411.949,24.311,24.311,0,0,1-.329,11.715,2.257,2.257,0,0,0,1.573,2.776Z"/>
      </g>
    </g>
  </g>
</svg>
