<svg xmlns="http://www.w3.org/2000/svg" xmlns:xlink="http://www.w3.org/1999/xlink" width="154" height="154" viewBox="0 0 154 154">
  <defs>
    <clipPath id="clip-path">
      <rect id="Rectángulo_35315" data-name="Rectángulo 35315" width="154" height="154" transform="translate(-3718 2517)" fill="#ffd41c"/>
    </clipPath>
  </defs>
  <g id="Enmascarar_grupo_411" data-name="Enmascarar grupo 411" transform="translate(3718 -2517)" clip-path="url(#clip-path)">
    <g id="poster_1_" data-name="poster (1)" transform="translate(-3720.484 2514.516)">
      <rect id="Rectángulo_35726" data-name="Rectángulo 35726" width="99.355" height="119.226" rx="7.452" transform="translate(29.806 4.968)" fill="#ccc"/>
      <path id="Trazado_126345" data-name="Trazado 126345" d="M39.742,14.9h79.484v99.355H39.742Z" fill="#f2f2f2"/>
      <path id="Trazado_126346" data-name="Trazado 126346" d="M119.226,14.9H39.742V36.016c0,43.219,32.251,78.242,72.032,78.242h7.452Z" fill="#fff"/>
      <path id="Trazado_126347" data-name="Trazado 126347" d="M47.194,144.065h64.581a7.452,7.452,0,0,1,7.452,7.452V154H39.742v-2.484A7.452,7.452,0,0,1,47.194,144.065Z" fill="#ccc"/>
      <path id="Trazado_126348" data-name="Trazado 126348" d="M103.9,141.153a23.984,23.984,0,0,1-7.024-16.96H62.1a23.985,23.985,0,0,1-7.025,16.96l-2.91,2.91h54.645Z" fill="#f2f2f2"/>
      <circle id="Elipse_5924" data-name="Elipse 5924" cx="29.806" cy="29.806" r="29.806" transform="translate(49.677 24.839)" fill="#f3a845"/>
      <path id="Trazado_126349" data-name="Trazado 126349" d="M79.484,24.839A29.667,29.667,0,0,0,60.3,31.846a32.5,32.5,0,0,0-.691,6.654A34.171,34.171,0,0,0,94.387,72.032a35.936,35.936,0,0,0,10.281-1.49,29.769,29.769,0,0,0-25.184-45.7Z" fill="#eecc61"/>
      <g id="Grupo_99018" data-name="Grupo 99018">
        <rect id="Rectángulo_35727" data-name="Rectángulo 35727" width="37.868" height="10.329" rx="5.163" transform="translate(62.43 64.385) rotate(-45)" fill="#fff"/>
        <circle id="Elipse_5925" data-name="Elipse 5925" cx="4.968" cy="4.968" r="4.968" transform="translate(62.097 37.258)" fill="#fff"/>
        <circle id="Elipse_5926" data-name="Elipse 5926" cx="4.968" cy="4.968" r="4.968" transform="translate(86.935 62.097)" fill="#fff"/>
      </g>
      <path id="Trazado_126350" data-name="Trazado 126350" d="M121.71,2.484H37.258a9.935,9.935,0,0,0-9.935,9.935V116.742a9.935,9.935,0,0,0,9.935,9.935h22.2a21.312,21.312,0,0,1-6.143,12.72l-2.181,2.183H47.194a9.935,9.935,0,0,0-9.935,9.935V154a2.484,2.484,0,0,0,2.484,2.484h79.484A2.484,2.484,0,0,0,121.71,154v-2.484a9.935,9.935,0,0,0-9.935-9.935h-3.939l-2.181-2.183a21.312,21.312,0,0,1-6.143-12.72h22.2a9.935,9.935,0,0,0,9.935-9.935V12.419a9.935,9.935,0,0,0-9.935-9.935Zm-4.968,149.032H42.226a4.968,4.968,0,0,1,4.968-4.968h64.581A4.968,4.968,0,0,1,116.742,151.516Zm-15.807-9.935h-42.9a26.2,26.2,0,0,0,6.426-14.9H94.514A26.2,26.2,0,0,0,100.935,141.581Zm25.743-24.839a4.968,4.968,0,0,1-4.968,4.968H37.258a4.968,4.968,0,0,1-4.968-4.968V12.419a4.968,4.968,0,0,1,4.968-4.968H121.71a4.968,4.968,0,0,1,4.968,4.968Z"/>
      <path id="Trazado_126351" data-name="Trazado 126351" d="M119.226,12.419H39.742A2.484,2.484,0,0,0,37.258,14.9v99.355a2.484,2.484,0,0,0,2.484,2.484h79.484a2.484,2.484,0,0,0,2.484-2.484V14.9A2.484,2.484,0,0,0,119.226,12.419Zm-2.484,99.355H42.226V17.387h74.516Z"/>
      <path id="Trazado_126352" data-name="Trazado 126352" d="M79.484,86.935a32.29,32.29,0,1,1,32.29-32.29,32.29,32.29,0,0,1-32.29,32.29Zm0-59.613a27.323,27.323,0,1,0,27.323,27.323A27.323,27.323,0,0,0,79.484,27.323Z"/>
      <path id="Trazado_126353" data-name="Trazado 126353" d="M69.745,72.032a7.65,7.65,0,0,1-5.412-13.058L83.816,39.494a7.829,7.829,0,0,1,10.817,0,7.655,7.655,0,0,1,0,10.817L75.152,69.8A7.588,7.588,0,0,1,69.745,72.032Zm-1.9-9.546a2.683,2.683,0,0,0,0,3.793,2.732,2.732,0,0,0,3.79,0L91.118,46.8a2.683,2.683,0,0,0,0-3.793,2.732,2.732,0,0,0-3.79,0Z"/>
      <path id="Trazado_126354" data-name="Trazado 126354" d="M67.065,49.677a7.452,7.452,0,1,1,7.452-7.452A7.452,7.452,0,0,1,67.065,49.677Zm0-9.935a2.484,2.484,0,1,0,2.484,2.484A2.484,2.484,0,0,0,67.065,39.742Z"/>
      <path id="Trazado_126355" data-name="Trazado 126355" d="M91.9,74.516a7.452,7.452,0,1,1,7.452-7.452A7.452,7.452,0,0,1,91.9,74.516Zm0-9.935a2.484,2.484,0,1,0,2.484,2.484A2.484,2.484,0,0,0,91.9,64.581Z"/>
      <path id="Trazado_126356" data-name="Trazado 126356" d="M47.194,101.839h54.645v4.968H47.194Z"/>
      <path id="Trazado_126357" data-name="Trazado 126357" d="M106.806,101.839h4.968v4.968h-4.968Z"/>
      <path id="Trazado_126358" data-name="Trazado 126358" d="M47.194,91.9h64.581v4.968H47.194Z"/>
    </g>
  </g>
</svg>
