<svg xmlns="http://www.w3.org/2000/svg" xmlns:xlink="http://www.w3.org/1999/xlink" width="154" height="154" viewBox="0 0 154 154">
  <defs>
    <clipPath id="clip-path">
      <rect id="Rectángulo_35309" data-name="Rectángulo 35309" width="154" height="154" transform="translate(-3718 1638)" fill="#ffd41c"/>
    </clipPath>
  </defs>
  <g id="Enmascarar_grupo_408" data-name="Enmascarar grupo 408" transform="translate(3718 -1638)" clip-path="url(#clip-path)">
    <g id="tecnologia" transform="translate(-3718 1638)">
      <path id="Trazado_126291" data-name="Trazado 126291" d="M20.155,141.367V12.633A9.625,9.625,0,0,1,29.78,3.008H124.22a9.625,9.625,0,0,1,9.625,9.625V141.367a9.624,9.624,0,0,1-9.625,9.624H29.78a9.624,9.624,0,0,1-9.625-9.624Zm0,0" fill="#ade5ff"/>
      <path id="Trazado_126292" data-name="Trazado 126292" d="M20.155,19.25H133.845v115.5H20.155Zm0,0" fill="#fff"/>
      <path id="Trazado_126293" data-name="Trazado 126293" d="M48.025,107.043H96.883V121.48H48.025Zm0,0" fill="#4dbaf6"/>
      <path id="Trazado_126294" data-name="Trazado 126294" d="M19.3,108.331l7.794-6.092a5.683,5.683,0,0,1,7.85,8.153l-14.79,17.14v23.46H3.008v-47.57A21.672,21.672,0,0,1,7.614,90.064L19.25,75.2Zm0,0" fill="#feda9b"/>
      <path id="Trazado_126295" data-name="Trazado 126295" d="M71.224,41.881A25.925,25.925,0,1,0,97.15,67.807H71.224Zm0,0" fill="#ff5d5d"/>
      <path id="Trazado_126296" data-name="Trazado 126296" d="M52.892,49.475,71.224,67.806l-.016-25.925a25.841,25.841,0,0,0-18.316,7.594Zm0,0" fill="#ffb954"/>
      <path id="Trazado_126297" data-name="Trazado 126297" d="M83.26,31.281V57.207h25.926A25.925,25.925,0,0,0,83.26,31.281Zm0,0" fill="#72d8ff"/>
      <path id="Trazado_126298" data-name="Trazado 126298" d="M134.259,150.991a153.483,153.483,0,0,1-38.286-15.468l-9.888-5.647a6,6,0,0,1,4.39-11.037l13.15,3.191L73.53,91.936a5.831,5.831,0,0,1,8.247-8.246L108.584,110.5,98.592,100.5a5.831,5.831,0,0,1,8.247-8.246l9.992,9.992-9.992-9.992a5.831,5.831,0,0,1,8.247-8.247L125.077,94l-6.712-6.712a5.831,5.831,0,1,1,8.247-8.247l24.381,24.382v47.565Zm0,0" fill="#feda9b"/>
      <path id="Trazado_126299" data-name="Trazado 126299" d="M133.844,66.656a3.009,3.009,0,1,0,2.127.881A3.032,3.032,0,0,0,133.844,66.656Zm0,0"/>
      <path id="Trazado_126300" data-name="Trazado 126300" d="M80.252,31.281V57.207a3.008,3.008,0,0,0,3.008,3.008h25.926a3.008,3.008,0,0,0,3.008-3.008A28.966,28.966,0,0,0,83.26,28.273,3.008,3.008,0,0,0,80.252,31.281Zm6.016,3.2A22.97,22.97,0,0,1,105.982,54.2H86.268Zm0,0"/>
      <path id="Trazado_126301" data-name="Trazado 126301" d="M153.119,101.3,128.737,76.919a8.844,8.844,0,0,0-14.479,3.016,8.835,8.835,0,0,0-12.116,7.633A8.808,8.808,0,0,0,94.8,92.457l-3.66-3.66a28.8,28.8,0,0,0,9.019-20.991A3.008,3.008,0,0,0,97.149,64.8H74.231V41.881a3.008,3.008,0,0,0-3.008-3.008,28.933,28.933,0,0,0,0,57.866c.909,0,1.823-.043,2.729-.128l7.423,7.423H48.025a3.008,3.008,0,0,0-3.008,3.008V121.48a3.008,3.008,0,0,0,3.008,3.008H80.063a9.056,9.056,0,0,0,3.432,7.253H23.163v-3.092l14.059-16.293a8.691,8.691,0,0,0-12-12.468l-2.055,1.641V22.258h6.016V40.906a3.008,3.008,0,0,0,6.016,0V22.258h95.644V58.2a3.008,3.008,0,1,0,6.016,0V12.633A12.647,12.647,0,0,0,124.22,0H29.78A12.647,12.647,0,0,0,17.147,12.633V73.049a3.01,3.01,0,0,0-.266.293L5.245,88.211A24.787,24.787,0,0,0,0,103.422v47.569a3.008,3.008,0,1,0,6.016,0V103.422a18.749,18.749,0,0,1,3.967-11.5l7.165-9.155v25.018a3.006,3.006,0,0,0,4.884,2.349,0,0,0,0,0,0,0l6.939-5.542a2.675,2.675,0,0,1,3.7,3.838L17.878,125.565s0,0,0,0a3,3,0,0,0-.732,1.963v13.836A12.647,12.647,0,0,0,29.78,154h94.439a12.539,12.539,0,0,0,5.311-1.169c1.324.374,2.653.737,3.988,1.076a3.063,3.063,0,0,0,.744.093,3.008,3.008,0,0,0,.739-5.923,150.519,150.519,0,0,1-37.537-15.166l-9.887-5.647a2.99,2.99,0,0,1,2.187-5.5l13.151,3.191a3.008,3.008,0,0,0,2.836-5.05L75.657,89.809a2.823,2.823,0,0,1,3.992-3.992l16.81,16.81s0,0,.006.006l9.992,9.992a3.008,3.008,0,0,0,4.254-4.254l-10-10a2.823,2.823,0,0,1,4-3.988l9.992,9.992a3.007,3.007,0,0,0,4.253-4.253l-8.515-8.516s0,0,0,0l-1.475-1.475a2.823,2.823,0,0,1,3.994-3.992l5.92,5.92s0,0,0,0l4.07,4.07a3.008,3.008,0,1,0,4.253-4.254l-6.712-6.712a2.823,2.823,0,0,1,3.994-3.992l24.381,24.381a3.007,3.007,0,1,0,4.253-4.253ZM29.779,6.016H124.22a6.625,6.625,0,0,1,6.617,6.617v3.609H23.162V12.633A6.625,6.625,0,0,1,29.779,6.016Zm38.437,54.53L57.3,49.625a22.789,22.789,0,0,1,10.921-4.54ZM115.1,147.984H29.779a6.625,6.625,0,0,1-6.617-6.617v-3.611H93.289a3,3,0,0,0,.462-.039l.731.417a156.482,156.482,0,0,0,20.62,9.849ZM91.182,115.916a9.018,9.018,0,0,0-8.65,2.557h-31.5v-8.422H87.391l6.53,6.53ZM71.4,81.563a8.846,8.846,0,0,0-2.122,9.073A22.893,22.893,0,0,1,53.042,53.88L69.068,69.906l.015.014a3,3,0,0,0,2.14.9H93.946a22.782,22.782,0,0,1-7.068,13.722L83.9,81.564a8.848,8.848,0,0,0-12.5,0Zm0,0"/>
      <path id="Trazado_126302" data-name="Trazado 126302" d="M32.187,48.783a3.013,3.013,0,1,0,2.125.882,3.022,3.022,0,0,0-2.125-.882Zm0,0"/>
    </g>
  </g>
</svg>
