<svg xmlns="http://www.w3.org/2000/svg" xmlns:xlink="http://www.w3.org/1999/xlink" width="60" height="60" viewBox="0 0 60 60">
  <defs>
    <clipPath id="clip-path">
      <rect id="Rectángulo_35229" data-name="Rectángulo 35229" width="60" height="60" transform="translate(643 3930)" fill="#ffd41c"/>
    </clipPath>
  </defs>
  <g id="Enmascarar_grupo_281" data-name="Enmascarar grupo 281" transform="translate(-643 -3930)" clip-path="url(#clip-path)">
    <g id="operador" transform="translate(643 3930)">
      <g id="Grupo_95275" data-name="Grupo 95275">
        <path id="Trazado_122901" data-name="Trazado 122901" d="M28.076,15.7h1.068V12.636A8.141,8.141,0,0,1,37.276,4.5h2.976a8.141,8.141,0,0,1,8.132,8.132V15.7h1.069a2.919,2.919,0,0,1,1.978.769V12.636A11.179,11.179,0,0,0,40.253,1.457H37.276A11.179,11.179,0,0,0,26.1,12.636v3.836a2.919,2.919,0,0,1,1.978-.769Z" fill="#8abbd5"/>
        <g id="Grupo_95259" data-name="Grupo 95259">
          <path id="Trazado_122902" data-name="Trazado 122902" d="M48.385,31.595V12.636A8.141,8.141,0,0,0,40.253,4.5H37.276a8.141,8.141,0,0,0-8.132,8.132V31.595Z" fill="#017297"/>
        </g>
        <g id="Grupo_95260" data-name="Grupo 95260">
          <path id="Trazado_122903" data-name="Trazado 122903" d="M34.08,31.595V12.636a8.142,8.142,0,0,1,7.152-8.071,8.168,8.168,0,0,0-.98-.061H37.276a8.141,8.141,0,0,0-8.132,8.132V31.595Z" fill="#025f80"/>
        </g>
        <path id="Trazado_122904" data-name="Trazado 122904" d="M49.688,31.595H27.842a5.854,5.854,0,0,0-4.947,2.721h6.128a.586.586,0,0,1,.586.586V51.752h7.331a.586.586,0,0,1,.586.586v2.689H55.547V37.454A5.859,5.859,0,0,0,49.688,31.595Z" fill="#fe646f"/>
        <g id="Grupo_95261" data-name="Grupo 95261">
          <path id="Trazado_122905" data-name="Trazado 122905" d="M35.892,31.549a.586.586,0,0,1-.173-.416V28.017q-.185-.076-.366-.16l-2.675,2.494a.349.349,0,0,0-.111.256v7.241a.349.349,0,0,0,.573.269l5.1-4.243Z" fill="#eaf6ff"/>
          <path id="Trazado_122906" data-name="Trazado 122906" d="M42.176,27.857q-.181.084-.366.16v3.116a.586.586,0,0,1-.173.416l-2.346,2.325,5.1,4.243a.349.349,0,0,0,.573-.269V30.606a.349.349,0,0,0-.111-.256Z" fill="#eaf6ff"/>
        </g>
        <path id="Trazado_122907" data-name="Trazado 122907" d="M36.274,28.219a8.045,8.045,0,0,1-.921-.362l-2.675,2.494a.349.349,0,0,0-.111.256v7.241a.349.349,0,0,0,.573.269l2.368-1.971V30.606a.35.35,0,0,1,.111-.256l1.326-1.236a1.584,1.584,0,0,1-.671-.9Z" fill="#d8ecfe"/>
        <path id="Trazado_122908" data-name="Trazado 122908" d="M38.765,28.614a8.038,8.038,0,0,1-3.046-.6v3.116a.586.586,0,0,0,.173.416l2.46,2.438a.586.586,0,0,0,.825,0l2.46-2.438a.586.586,0,0,0,.173-.416V28.017a8.038,8.038,0,0,1-3.046.6Z" fill="#ffaf9d"/>
        <path id="Trazado_122909" data-name="Trazado 122909" d="M38.672,31.133V28.611a8.035,8.035,0,0,1-2.953-.595v3.116a.586.586,0,0,0,.173.416l2.46,2.438a.586.586,0,0,0,.825,0l1.064-1.055-1.4-1.383A.586.586,0,0,1,38.672,31.133Z" fill="#ffa68e"/>
        <g id="Grupo_95262" data-name="Grupo 95262">
          <path id="Trazado_122910" data-name="Trazado 122910" d="M30.7,20.548V16.087a1.764,1.764,0,0,1,.043-.384H28.076a2.93,2.93,0,0,0-2.93,2.93v2.162a2.93,2.93,0,0,0,2.93,2.93H31.35A8.04,8.04,0,0,1,30.7,20.548Z" fill="#6cabca"/>
          <path id="Trazado_122911" data-name="Trazado 122911" d="M49.453,15.7H46.83v4.845a8.038,8.038,0,0,1-.65,3.176h3.274a2.93,2.93,0,0,0,2.93-2.93V18.633a2.93,2.93,0,0,0-2.93-2.93Z" fill="#6cabca"/>
        </g>
        <path id="Trazado_122912" data-name="Trazado 122912" d="M28.125,20.795V18.633a2.93,2.93,0,0,1,2.613-2.912l0-.017H28.076a2.93,2.93,0,0,0-2.93,2.93v2.162a2.93,2.93,0,0,0,2.93,2.93h2.979A2.93,2.93,0,0,1,28.125,20.795Z" fill="#3692bc"/>
        <path id="Trazado_122913" data-name="Trazado 122913" d="M45.256,12.125a1.725,1.725,0,0,0-1.156.023L38.5,14.22a1.759,1.759,0,0,1-.61.109H32.457A1.758,1.758,0,0,0,30.7,16.087v4.461a8.067,8.067,0,0,0,5.575,7.671A1.579,1.579,0,0,1,37.793,26.2h1.875a1.582,1.582,0,0,1,1.513,2.046,8.069,8.069,0,0,0,5.649-7.7V14.329a2.331,2.331,0,0,0-1.574-2.2Z" fill="#ffcdbe"/>
        <path id="Trazado_122914" data-name="Trazado 122914" d="M36.211,27.781a1.581,1.581,0,0,1,.881-1.417,8.037,8.037,0,0,1-2.481-5.816V16.087a1.758,1.758,0,0,1,1.758-1.758H32.457A1.758,1.758,0,0,0,30.7,16.087v4.461a8.067,8.067,0,0,0,5.575,7.671,1.576,1.576,0,0,1-.063-.439Z" fill="#ffaf9d"/>
        <g id="Grupo_95266" data-name="Grupo 95266">
          <g id="Grupo_95265" data-name="Grupo 95265">
            <g id="Grupo_95263" data-name="Grupo 95263">
              <path id="Trazado_122915" data-name="Trazado 122915" d="M51.637,49.621H43.592a.349.349,0,0,1-.349-.349V44.022a.349.349,0,0,1,.349-.349h8.045a.349.349,0,0,1,.349.349v5.249A.35.35,0,0,1,51.637,49.621Z" fill="#fff"/>
            </g>
            <g id="Grupo_95264" data-name="Grupo 95264">
              <path id="Trazado_122916" data-name="Trazado 122916" d="M46.217,49.271V44.022a.349.349,0,0,1,.349-.349H43.592a.349.349,0,0,0-.349.349v5.249a.349.349,0,0,0,.349.349h2.975A.349.349,0,0,1,46.217,49.271Z" fill="#eaf6ff"/>
            </g>
          </g>
        </g>
        <path id="Trazado_122917" data-name="Trazado 122917" d="M29.608,51.87V34.9a.586.586,0,0,0-.586-.586H5.039a.586.586,0,0,0-.586.586V51.87Z" fill="#6cabca"/>
        <path id="Trazado_122918" data-name="Trazado 122918" d="M8.438,34.9a.586.586,0,0,1,.586-.586H5.039a.586.586,0,0,0-.586.586V51.752H8.438Z" fill="#3692bc"/>
        <g id="Grupo_95267" data-name="Grupo 95267">
          <path id="Trazado_122919" data-name="Trazado 122919" d="M20.068,45H13.993a2.235,2.235,0,1,1,0-4.469h6.075a2.235,2.235,0,1,1,0,4.469Z" fill="#00f2a6"/>
        </g>
        <g id="Grupo_95268" data-name="Grupo 95268">
          <path id="Trazado_122920" data-name="Trazado 122920" d="M15.706,42.763a2.235,2.235,0,0,1,2.235-2.235H13.993a2.235,2.235,0,1,0,0,4.469h3.947A2.235,2.235,0,0,1,15.706,42.763Z" fill="#05e39c"/>
        </g>
        <path id="Trazado_122921" data-name="Trazado 122921" d="M37.525,55.027V52.338a.586.586,0,0,0-.586-.586H4.453v3.275Z" fill="#8abbd5"/>
        <path id="Trazado_122922" data-name="Trazado 122922" d="M4.453,51.752H8.438v3.275H4.453Z" fill="#6cabca"/>
        <g id="Grupo_95269" data-name="Grupo 95269">
          <path id="Trazado_122923" data-name="Trazado 122923" d="M39.668,29.363H37.793a1.582,1.582,0,0,1,0-3.164h1.875a1.582,1.582,0,0,1,0,3.164Z" fill="#6cabca"/>
        </g>
        <g id="Grupo_95270" data-name="Grupo 95270">
          <path id="Trazado_122924" data-name="Trazado 122924" d="M38.32,27.781A1.581,1.581,0,0,1,39.785,26.2c-.039,0-.078-.006-.117-.006H37.793a1.582,1.582,0,0,0,0,3.164h1.875c.04,0,.078,0,.117-.006A1.581,1.581,0,0,1,38.32,27.781Z" fill="#3692bc"/>
        </g>
        <g id="Grupo_95274" data-name="Grupo 95274">
          <g id="Grupo_95271" data-name="Grupo 95271">
            <path id="Trazado_122925" data-name="Trazado 122925" d="M7.312,11.691H19.57a1.758,1.758,0,0,1,1.758,1.758V25.707a1.758,1.758,0,0,1-1.758,1.758H14.426a.586.586,0,0,0-.586.586V30.82a.352.352,0,0,1-.63.215l-2.589-3.343a.586.586,0,0,0-.463-.227H7.312a1.758,1.758,0,0,1-1.758-1.758V13.449A1.758,1.758,0,0,1,7.312,11.691Z" fill="#ffe177"/>
          </g>
          <g id="Grupo_95273" data-name="Grupo 95273">
            <g id="Grupo_95272" data-name="Grupo 95272">
              <path id="Trazado_122926" data-name="Trazado 122926" d="M9.375,26.016V13.449a1.758,1.758,0,0,1,1.758-1.758H7.312a1.758,1.758,0,0,0-1.758,1.758V25.707a1.758,1.758,0,0,0,1.758,1.758h2.827A1.755,1.755,0,0,1,9.375,26.016Z" fill="#ffc344"/>
            </g>
          </g>
        </g>
      </g>
      <g id="Grupo_95276" data-name="Grupo 95276">
        <path id="Trazado_122927" data-name="Trazado 122927" d="M58.535,58.543H1.465a.586.586,0,0,1-.586-.586V55.613a.586.586,0,0,1,.586-.586h57.07a.586.586,0,0,1,.586.586v2.344A.586.586,0,0,1,58.535,58.543Z" fill="#00f2a6"/>
      </g>
      <g id="Grupo_95277" data-name="Grupo 95277">
        <path id="Trazado_122928" data-name="Trazado 122928" d="M6.563,57.957V55.613a.586.586,0,0,1,.586-.586H1.465a.586.586,0,0,0-.586.586v2.344a.586.586,0,0,0,.586.586H7.148A.586.586,0,0,1,6.563,57.957Z" fill="#05e39c"/>
      </g>
      <g id="Grupo_95278" data-name="Grupo 95278">
        <path id="Trazado_122929" data-name="Trazado 122929" d="M35.136,16.23a.879.879,0,0,0-.879.879V18.6a.879.879,0,0,0,1.758,0V17.109A.879.879,0,0,0,35.136,16.23Z"/>
        <path id="Trazado_122930" data-name="Trazado 122930" d="M43.273,18.6V17.109a.879.879,0,0,0-1.758,0V18.6a.879.879,0,0,0,1.758,0Z"/>
        <path id="Trazado_122931" data-name="Trazado 122931" d="M39.261,19.982l-.5-.339.719-1.022a.879.879,0,1,0-1.438-1.012l-1.231,1.75a.879.879,0,0,0,.223,1.231l1.231.842a.879.879,0,1,0,.992-1.451Z"/>
        <path id="Trazado_122932" data-name="Trazado 122932" d="M42.363,44.022v5.249A1.23,1.23,0,0,0,43.592,50.5h8.045a1.23,1.23,0,0,0,1.228-1.228V44.022a1.23,1.23,0,0,0-1.228-1.228H43.592A1.23,1.23,0,0,0,42.363,44.022Zm1.758.53h6.986v4.19H44.121Z"/>
        <path id="Trazado_122933" data-name="Trazado 122933" d="M48.488,42a.879.879,0,1,0,0-1.758H46.741a.879.879,0,1,0,0,1.758Z"/>
        <path id="Trazado_122934" data-name="Trazado 122934" d="M20.068,39.65H13.993a3.114,3.114,0,1,0,0,6.227h6.075a3.114,3.114,0,1,0,0-6.227Zm0,4.469H13.993a1.356,1.356,0,1,1,0-2.711h6.075a1.356,1.356,0,1,1,0,2.711Z"/>
        <path id="Trazado_122935" data-name="Trazado 122935" d="M7.312,28.344h2.7l2.5,3.229a1.231,1.231,0,0,0,2.2-.753V28.344H19.57a2.64,2.64,0,0,0,2.637-2.637V21.68a.879.879,0,0,0-1.758,0v4.028a.88.88,0,0,1-.879.879H14.426a1.466,1.466,0,0,0-1.465,1.465v1.226l-1.645-2.123a1.474,1.474,0,0,0-1.158-.568H7.312a.88.88,0,0,1-.879-.879V13.449a.88.88,0,0,1,.879-.879H19.57a.88.88,0,0,1,.879.879v4.13a.879.879,0,0,0,1.758,0v-4.13a2.64,2.64,0,0,0-2.637-2.637H7.312a2.64,2.64,0,0,0-2.637,2.637V25.707a2.64,2.64,0,0,0,2.637,2.637Z"/>
        <path id="Trazado_122936" data-name="Trazado 122936" d="M12.914,23.781h1.055a.352.352,0,0,0,.352-.352v-5.1a.352.352,0,0,0-.352-.352H12.914a.352.352,0,0,0-.352.352v5.1A.352.352,0,0,0,12.914,23.781Z"/>
        <path id="Trazado_122937" data-name="Trazado 122937" d="M13.968,14.865H12.914a.352.352,0,0,0-.352.352v1.055a.352.352,0,0,0,.352.352h1.055a.352.352,0,0,0,.352-.352V15.216A.352.352,0,0,0,13.968,14.865Z"/>
        <path id="Trazado_122938" data-name="Trazado 122938" d="M58.535,54.148H56.426V43.477a.879.879,0,0,0-1.758,0V54.148H38.4v-1.81a1.466,1.466,0,0,0-1.465-1.465H30.487V34.9a1.466,1.466,0,0,0-1.465-1.465H24.9a4.95,4.95,0,0,1,2.937-.963h3.846v5.374a1.217,1.217,0,0,0,.707,1.112,1.235,1.235,0,0,0,.524.118,1.221,1.221,0,0,0,.783-.286l4.6-3.832a1.452,1.452,0,0,0,.915,0l4.6,3.832a1.228,1.228,0,0,0,2.014-.944V32.474h3.847a4.986,4.986,0,0,1,4.98,4.98v1.921a.879.879,0,0,0,1.758,0V37.454a6.746,6.746,0,0,0-6.738-6.738h-.424V28.151a2.88,2.88,0,0,0,1.248-2.372V24.452a3.815,3.815,0,0,0,2.75-3.658V18.633a3.792,3.792,0,0,0-.952-2.514V12.636A12.071,12.071,0,0,0,40.253.578H37.276A12.071,12.071,0,0,0,25.219,12.636v3.482a3.792,3.792,0,0,0-.952,2.514v2.162A3.813,3.813,0,0,0,28.076,24.6h.19v6.112h-.424a6.729,6.729,0,0,0-5.4,2.721H5.039A1.466,1.466,0,0,0,3.574,34.9V54.148H1.465A1.466,1.466,0,0,0,0,55.613v2.344a1.466,1.466,0,0,0,1.465,1.465h57.07A1.466,1.466,0,0,0,60,57.957V55.613a1.467,1.467,0,0,0-1.465-1.465ZM32.078,29.708a1.233,1.233,0,0,0-.39.9v.109H30.023V24.6H30.8a9.008,9.008,0,0,0,3.08,3.428Zm8.275-4.289a5.07,5.07,0,0,0,2.012-1.239.879.879,0,0,0-1.243-1.243,3.335,3.335,0,0,1-4.717,0,.879.879,0,1,0-1.243,1.243,5.071,5.071,0,0,0,1.981,1.228,2.471,2.471,0,0,0-1.661,1.531,7.193,7.193,0,0,1-3.905-6.391V16.087a.88.88,0,0,1,.879-.879h5.431a2.63,2.63,0,0,0,.915-.164l5.6-2.072a.848.848,0,0,1,.566-.016,1.451,1.451,0,0,1,.98,1.373v6.219A7.191,7.191,0,0,1,42.116,26.9h-.152a2.473,2.473,0,0,0-1.61-1.483Zm.017,2.362a.7.7,0,0,1-.7.7H37.793a.7.7,0,0,1,0-1.406h1.875A.7.7,0,0,1,40.371,27.781ZM45.54,11.294a2.609,2.609,0,0,0-1.746.03l-5.6,2.072a.877.877,0,0,1-.305.055H32.457a2.639,2.639,0,0,0-2.314,1.374h-.12V12.636a7.261,7.261,0,0,1,7.253-7.253h2.976a7.261,7.261,0,0,1,7.253,7.253v.577A3.205,3.205,0,0,0,45.54,11.294ZM33.446,36.718V30.836l1.394-1.3v1.6a1.474,1.474,0,0,0,.434,1.04l1.659,1.644Zm5.319-3.56L36.6,31.011V29.93a2.439,2.439,0,0,0,1.2.312h1.875a2.444,2.444,0,0,0,1.263-.35v1.119Zm5.319,3.56-3.486-2.9,1.659-1.644a1.474,1.474,0,0,0,.434-1.04v-1.6l1.394,1.3Zm3.423-6H45.841v-.109a1.233,1.233,0,0,0-.391-.9L44.327,28.66h3.179Zm0-3.814H45.049a9,9,0,0,0,1.684-2.3h.773Zm4-8.269v2.162a2.053,2.053,0,0,1-2.051,2.051H47.408a8.924,8.924,0,0,0,.3-2.3V16.582h1.744A2.053,2.053,0,0,1,51.5,18.633Zm-24.527-6a10.311,10.311,0,0,1,10.3-10.3h2.976a10.311,10.311,0,0,1,10.3,10.3v2.351a3.794,3.794,0,0,0-1.1-.162h-.189V12.636a9.021,9.021,0,0,0-9.011-9.011H37.276a9.021,9.021,0,0,0-9.011,9.011v2.188h-.19a3.794,3.794,0,0,0-1.1.162Zm1.1,10.209a2.053,2.053,0,0,1-2.051-2.051V18.633a2.053,2.053,0,0,1,2.051-2.051H29.82v3.966a8.924,8.924,0,0,0,.3,2.3H28.076ZM5.332,52.631H20.039a.879.879,0,0,0,0-1.758H5.332V35.194h23.4V50.873H24.141a.879.879,0,1,0,0,1.758H36.647v1.517H5.332Zm52.91,5.033H1.758V55.906H58.242Z"/>
      </g>
    </g>
  </g>
</svg>
