<svg xmlns="http://www.w3.org/2000/svg" xmlns:xlink="http://www.w3.org/1999/xlink" width="190" height="145.074" viewBox="0 0 190 145.074">
  <defs>
    <clipPath id="clip-path">
      <rect id="Rectángulo_35687" data-name="Rectángulo 35687" width="101" height="101" transform="translate(225 434)" fill="#764cf0" stroke="#707070" stroke-width="1"/>
    </clipPath>
  </defs>
  <g id="Grupo_95230" data-name="Grupo 95230" transform="translate(-180 -405.926)">
    <rect id="Rectángulo_33975" data-name="Rectángulo 33975" width="190" height="134" transform="translate(180 417)" fill="none"/>
    <rect id="Rectángulo_35692" data-name="Rectángulo 35692" width="98.789" height="100.95" rx="17" transform="matrix(0.799, 0.602, -0.602, 0.799, 285.753, 405.926)" fill="#fff1b3"/>
    <g id="Enmascarar_grupo_372" data-name="Enmascarar grupo 372" clip-path="url(#clip-path)">
      <g id="crecimiento" transform="translate(223.371 432.371)">
        <g id="Grupo_98022" data-name="Grupo 98022">
          <g id="Grupo_98010" data-name="Grupo 98010">
            <circle id="Elipse_5869" data-name="Elipse 5869" cx="42.355" cy="42.355" r="42.355" transform="translate(9.774 3.258)" fill="#e6e9ed"/>
          </g>
          <g id="Grupo_98011" data-name="Grupo 98011">
            <path id="Trazado_125261" data-name="Trazado 125261" d="M67.833,91.226,66.79,101H37.468l-1.043-9.774Z" fill="#d3a06c"/>
          </g>
          <g id="Grupo_98012" data-name="Grupo 98012">
            <path id="Trazado_125262" data-name="Trazado 125262" d="M86.339,35.839v1.629a77.483,77.483,0,0,0-11.4,18.9l-9.448-7.542a41.288,41.288,0,0,0,1.3-10.3q0-1.344-.1-2.688Z" fill="#dfb28b"/>
          </g>
          <g id="Grupo_98013" data-name="Grupo 98013">
            <path id="Trazado_125263" data-name="Trazado 125263" d="M60.274,61.9H43.984L32.6,65.7A75.788,75.788,0,0,1,35.04,78.405l.668,6.272.717,6.549H67.833l.717-6.549.668-6.272A75.788,75.788,0,0,1,71.661,65.7Z" fill="#dfb28b"/>
          </g>
          <g id="Grupo_98014" data-name="Grupo 98014">
            <path id="Trazado_125264" data-name="Trazado 125264" d="M38.771,48.822l-9.448,7.542a77.483,77.483,0,0,0-11.4-18.9V35.839H37.565q-.1,1.344-.1,2.688a41.288,41.288,0,0,0,1.3,10.3Z" fill="#dfb28b"/>
          </g>
          <g id="Grupo_98015" data-name="Grupo 98015">
            <path id="Trazado_125265" data-name="Trazado 125265" d="M60.274,61.9l-1.629,6.516H45.613L43.984,61.9Z" fill="#fcd770"/>
          </g>
          <g id="Grupo_98016" data-name="Grupo 98016">
            <path id="Trazado_125266" data-name="Trazado 125266" d="M65.487,48.822a42.371,42.371,0,0,1-2.232,6.386l-2.981,6.7H43.984L41,55.208a42.371,42.371,0,0,1-2.232-6.386,41.288,41.288,0,0,1-1.3-10.3q0-1.344.1-2.688a40.647,40.647,0,0,1,5.946-18.75l.016.016a16.36,16.36,0,0,0,17.2,0l.016-.016a40.914,40.914,0,0,1,5.946,18.75q.1,1.344.1,2.688A41.288,41.288,0,0,1,65.487,48.822Z" fill="#ffeaa7"/>
          </g>
          <g id="Grupo_98017" data-name="Grupo 98017">
            <path id="Trazado_125267" data-name="Trazado 125267" d="M79.823,60.274v8.145L71.661,65.7,60.274,61.9l2.981-6.7a42.37,42.37,0,0,0,2.232-6.386l9.448,7.542Z" fill="#ff826e"/>
          </g>
          <g id="Grupo_98018" data-name="Grupo 98018">
            <path id="Trazado_125268" data-name="Trazado 125268" d="M41,55.208l2.981,6.7L32.6,65.7l-8.161,2.72V60.274l4.887-3.91,9.448-7.542A42.371,42.371,0,0,0,41,55.208Z" fill="#ff826e"/>
          </g>
          <g id="Grupo_98019" data-name="Grupo 98019">
            <path id="Trazado_125269" data-name="Trazado 125269" d="M57.016,73.306a4.881,4.881,0,0,1-.977,2.932l-3.91,5.213-3.91-5.213a4.886,4.886,0,1,1,8.8-2.932Z" fill="#ff826e"/>
          </g>
          <g id="Grupo_98020" data-name="Grupo 98020">
            <path id="Trazado_125270" data-name="Trazado 125270" d="M58.14,13.309a37.092,37.092,0,0,1,2.606,3.779l-.016.016a16.36,16.36,0,0,1-17.2,0l-.016-.016a37.091,37.091,0,0,1,2.606-3.779l.749-.961a6.665,6.665,0,0,1,10.524,0Z" fill="#ff826e"/>
          </g>
          <g id="Grupo_98021" data-name="Grupo 98021">
            <circle id="Elipse_5870" data-name="Elipse 5870" cx="8.145" cy="8.145" r="8.145" transform="translate(43.984 29.323)" fill="#69d6f4"/>
          </g>
        </g>
        <g id="Grupo_98023" data-name="Grupo 98023">
          <path id="Trazado_125271" data-name="Trazado 125271" d="M52.129,47.242a9.774,9.774,0,1,0-9.774-9.774A9.784,9.784,0,0,0,52.129,47.242Zm0-16.29a6.516,6.516,0,1,1-6.516,6.516A6.523,6.523,0,0,1,52.129,30.952Z"/>
          <path id="Trazado_125272" data-name="Trazado 125272" d="M68.6,99.371l1.46-13.615a43.985,43.985,0,1,0-35.866,0l1.458,13.615H1.629v3.258h101V99.371ZM36.666,78.234a79.444,79.444,0,0,0-2.108-11.473L42.831,64l1.51,6.045h2.178a6.449,6.449,0,0,0-.906,3.258,6.562,6.562,0,0,0,1.3,3.908l5.213,6.953,5.215-6.954a6.562,6.562,0,0,0,1.3-3.906,6.449,6.449,0,0,0-.906-3.258h2.178L61.428,64,69.7,66.763a79.445,79.445,0,0,0-2.108,11.473L66.375,89.6H37.883Zm7.467-58.943a17.887,17.887,0,0,0,15.991,0,39.638,39.638,0,0,1,5.037,19.236,39.19,39.19,0,0,1-3.4,16.018l-2.545,5.729H45.043L42.5,54.543a39.177,39.177,0,0,1-3.4-16.017,39.638,39.638,0,0,1,5.037-19.236Zm1.7-2.774c.5-.748,1.015-1.491,1.569-2.2l.753-.968a5.033,5.033,0,0,1,7.945,0l.753.966c.555.714,1.067,1.456,1.57,2.2a14.826,14.826,0,0,1-12.589,0ZM68.375,37.468H84.249a79.329,79.329,0,0,0-9.922,16.323l-7.02-5.615a42.533,42.533,0,0,0,1.113-9.649C68.419,38.173,68.384,37.821,68.375,37.468ZM62.491,60.926l2.248-5.058A43.224,43.224,0,0,0,66.37,51.6l11.824,9.458v5.1Zm-7.1,12.381a3.3,3.3,0,0,1-.65,1.955l-2.608,3.475-2.606-3.473a3.3,3.3,0,0,1-.652-1.956,3.258,3.258,0,1,1,6.516,0Zm-8.5-6.516-.816-3.258H58.187l-.816,3.258ZM36.951,48.175l-7.02,5.615a79.258,79.258,0,0,0-9.922-16.323H35.883c-.008.353-.044.705-.044,1.059A42.533,42.533,0,0,0,36.951,48.175Zm.937,3.423a43.378,43.378,0,0,0,1.631,4.27l2.248,5.058-15.7,5.232v-5.1ZM11.4,45.613A40.726,40.726,0,1,1,70.467,81.976l.363-3.395A76.149,76.149,0,0,1,72.8,67.794l8.655,2.887V59.492l-4.5-3.6A75.943,75.943,0,0,1,87.6,38.5l.367-.451V34.21h-19.8a42.915,42.915,0,0,0-8.748-21.9l-.753-.966a8.289,8.289,0,0,0-13.086,0l-.753.968a42.929,42.929,0,0,0-8.748,21.9H16.29v3.84l.368.45A76,76,0,0,1,27.312,55.886l-4.506,3.607V70.68L31.46,67.8a76.105,76.105,0,0,1,1.966,10.787l.363,3.395A40.643,40.643,0,0,1,11.4,45.613Zm26.83,47.242H66.025l-.7,6.516h-26.4Z"/>
          <path id="Trazado_125273" data-name="Trazado 125273" d="M79.73,25.4l2.628-1.927A37.386,37.386,0,0,0,70.863,13.158l-1.632,2.82A34.146,34.146,0,0,1,79.73,25.4Z"/>
          <path id="Trazado_125274" data-name="Trazado 125274" d="M83.356,31.62l2.971-1.336a37.642,37.642,0,0,0-1.745-3.406L81.764,28.51c.577,1,1.113,2.046,1.592,3.11Z"/>
        </g>
      </g>
    </g>
  </g>
</svg>
