<svg xmlns="http://www.w3.org/2000/svg" xmlns:xlink="http://www.w3.org/1999/xlink" width="85" height="85" viewBox="0 0 85 85">
  <defs>
    <clipPath id="clip-path">
      <rect id="Rect치ngulo_35233" data-name="Rect치ngulo 35233" width="55" height="55" transform="translate(195 6114)" fill="#26d19e"/>
    </clipPath>
  </defs>
  <g id="Grupo_95340" data-name="Grupo 95340" transform="translate(-180 -6099)">
    <rect id="Rect치ngulo_34178" data-name="Rect치ngulo 34178" width="85" height="85" transform="translate(180 6099)" fill="none"/>
    <g id="Enmascarar_grupo_376" data-name="Enmascarar grupo 376" clip-path="url(#clip-path)">
      <g id="segmento-de-clientes" transform="translate(194.998 6113.984)">
        <g id="Color">
          <path id="Trazado_125331" data-name="Trazado 125331" d="M27.5,27.5V1.969A1.294,1.294,0,0,0,26.145.68,26.856,26.856,0,1,0,45.512,47.426a1.289,1.289,0,0,0,.043-1.869Z" fill="#8bc34a"/>
          <path id="Trazado_125332" data-name="Trazado 125332" d="M45.555,45.555a1.289,1.289,0,0,1-.043,1.869,26.867,26.867,0,0,1-37-.931L27.5,27.5Z" fill="#e91e63"/>
          <path id="Trazado_125333" data-name="Trazado 125333" d="M31.745,26.276l16.2,16.2a1.289,1.289,0,0,0,1.98-.188A26.86,26.86,0,0,0,32.9,1.192,1.286,1.286,0,0,0,31.367,2.46v22.9a1.289,1.289,0,0,0,.378.912Z" fill="#ffb300"/>
          <circle id="Elipse_5874" data-name="Elipse 5874" cx="4.165" cy="4.165" r="4.165" transform="translate(23.335 36.524)" fill="#c2185b"/>
          <circle id="Elipse_5875" data-name="Elipse 5875" cx="4.669" cy="4.669" r="4.669" transform="translate(38.757 16.113)" fill="#ffa000"/>
          <circle id="Elipse_5876" data-name="Elipse 5876" cx="4.669" cy="4.669" r="4.669" transform="translate(7.389 16.113)" fill="#689f38"/>
          <path id="Trazado_125334" data-name="Trazado 125334" d="M21.931,33.069,8.508,46.493A26.971,26.971,0,0,1,2.767,37.98c-.344-.812-.649-1.646-.915-2.492a10.208,10.208,0,0,1,20.079-2.419Z" fill="#689f38"/>
          <path id="Trazado_125335" data-name="Trazado 125335" d="M27.5,54.356A26.794,26.794,0,0,0,36.524,52.8a9.1,9.1,0,0,0-18.05,0A26.794,26.794,0,0,0,27.5,54.356Z" fill="#c2185b"/>
          <path id="Trazado_125336" data-name="Trazado 125336" d="M53.522,34.152a26.335,26.335,0,0,1-1.306,3.876,26.61,26.61,0,0,1-2.295,4.262,1.285,1.285,0,0,1-1.977.185L35.153,29.683a10.209,10.209,0,0,1,18.369,4.469Z" fill="#ffa000"/>
        </g>
        <g id="Outline">
          <path id="Trazado_125337" data-name="Trazado 125337" d="M33.028.561a1.941,1.941,0,0,0-2.3,1.9v22.9a1.924,1.924,0,0,0,.566,1.367l16.2,16.2a1.942,1.942,0,0,0,2.974-.289A27.5,27.5,0,0,0,33.028.561Zm16.357,41.37a.632.632,0,0,1-.988.086L36.008,29.628a9.56,9.56,0,0,1,16.855,4.509,26.063,26.063,0,0,1-3.478,7.794ZM39.4,20.782a4.024,4.024,0,1,1,4.024,4.024A4.025,4.025,0,0,1,39.4,20.782ZM53.416,31.444a10.97,10.97,0,0,0-7.07-6.227,5.314,5.314,0,1,0-5.838,0,10.88,10.88,0,0,0-5.414,3.5L32.2,25.82a.641.641,0,0,1-.189-.456V2.46a.631.631,0,0,1,.758-.636,26.222,26.222,0,0,1,20.644,29.62Z"/>
          <path id="Trazado_125338" data-name="Trazado 125338" d="M26.113.034A27.5,27.5,0,1,0,45.944,47.9a1.946,1.946,0,0,0,.067-2.8L28.145,27.233V1.969A1.949,1.949,0,0,0,26.113.034ZM1.289,27.5A26.179,26.179,0,0,1,26.177,1.322a.652.652,0,0,1,.679.648V27.235l-4.635,4.633a10.848,10.848,0,0,0-7.244-6.651,5.313,5.313,0,1,0-5.838,0,10.957,10.957,0,0,0-7.4,7.106A26.5,26.5,0,0,1,1.289,27.5Zm10.769-2.694a4.024,4.024,0,1,1,4.024-4.024A4.024,4.024,0,0,1,12.058,24.806ZM2.5,35.4a9.558,9.558,0,0,1,18.7-2.512L8.519,45.57A26.1,26.1,0,0,1,2.5,35.4Zm25,18.313a26.243,26.243,0,0,1-8.3-1.342,8.444,8.444,0,0,1,16.591,0A26.218,26.218,0,0,1,27.5,53.711ZM23.98,40.689A3.52,3.52,0,1,1,27.5,44.21,3.52,3.52,0,0,1,23.98,40.689ZM45.1,46.011a.648.648,0,0,1-.02.934,26.208,26.208,0,0,1-8.055,4.976,9.773,9.773,0,0,0-6.76-7.3,4.81,4.81,0,1,0-5.528,0,9.774,9.774,0,0,0-6.761,7.307,26.161,26.161,0,0,1-8.544-5.444L27.5,28.412Z"/>
        </g>
      </g>
    </g>
  </g>
</svg>
