<svg xmlns="http://www.w3.org/2000/svg" xmlns:xlink="http://www.w3.org/1999/xlink" width="85" height="85" viewBox="0 0 85 85">
  <defs>
    <clipPath id="clip-path">
      <rect id="Rect치ngulo_35233" data-name="Rect치ngulo 35233" width="55" height="55" transform="translate(195 6114)" fill="#26d19e"/>
    </clipPath>
  </defs>
  <g id="Grupo_99200" data-name="Grupo 99200" transform="translate(-265 -555)">
    <rect id="Rect치ngulo_34178" data-name="Rect치ngulo 34178" width="85" height="85" transform="translate(265 555)" fill="none"/>
    <g id="Enmascarar_grupo_368" data-name="Enmascarar grupo 368" transform="translate(85 -5544)" clip-path="url(#clip-path)">
      <g id="necesidades" transform="translate(195 6114)">
        <g id="Grupo_97949" data-name="Grupo 97949">
          <path id="Trazado_125179" data-name="Trazado 125179" d="M54.194,23.215a8.97,8.97,0,0,0-5.761-8.376.428.428,0,0,1-.27-.471,8.863,8.863,0,0,0-12.7-9.406.429.429,0,0,1-.551-.148,8.861,8.861,0,0,0-14.827,0,.429.429,0,0,1-.551.148,8.81,8.81,0,0,0-3.389-.915,6.738,6.738,0,0,1-1,.193c-4.538.213-7.465,3.842-7.678,8.379a8.9,8.9,0,0,0,.113,1.9.428.428,0,0,1-.27.471,8.465,8.465,0,0,0-5.648,8.068A8.987,8.987,0,0,0,7.543,31.47a.428.428,0,0,1,.279.427l-.034.578A8.183,8.183,0,0,0,18.11,40.791,8.051,8.051,0,0,0,22.446,37.8a7.118,7.118,0,0,0,10.164.07c4.863,6.305,15.643,2.875,15.352-5.238l-.034-.578a.428.428,0,0,1,.279-.427A9.075,9.075,0,0,0,54.194,23.215Z" fill="#d9f5f9"/>
          <path id="Trazado_125180" data-name="Trazado 125180" d="M18.11,40.791c-5.143,1.475-11.4-1.974-11.181-8.158l.034-.579a.429.429,0,0,0-.278-.428,8.964,8.964,0,0,1-.117-16.789.429.429,0,0,0,.27-.471,8.863,8.863,0,0,1,8.313-10.33,8.541,8.541,0,0,1,1,.008,8.864,8.864,0,0,0-6.3,10,.429.429,0,0,1-.27.471A8.964,8.964,0,0,0,9.693,31.3a.429.429,0,0,1,.278.428l-.034.579c-.18,5.006,3.889,8.22,8.174,8.48Z" fill="#c6ebf4"/>
          <path id="Trazado_125181" data-name="Trazado 125181" d="M11.8,16.945l1.535,3.109a.389.389,0,0,0,.293.213l3.431.5a.389.389,0,0,1,.216.664l-2.483,2.42a.39.39,0,0,0-.112.345l.195,1.137.075,1.842a.389.389,0,0,1-.565.411L11.654,26.25a.39.39,0,0,0-.362,0L8.407,27.721a.389.389,0,0,1-.565-.411l.594-3.227a.389.389,0,0,0-.112-.345l-2.43-2.261a.389.389,0,0,1,.216-.664l1.663-.327,1.5-.218a.39.39,0,0,0,.293-.213L11.1,16.946a.389.389,0,0,1,.7,0Z" fill="#ffe077"/>
          <path id="Trazado_125182" data-name="Trazado 125182" d="M14.7,28.024l-3.07-1.613a.386.386,0,0,0-.362,0L8.2,28.024a.39.39,0,0,1-.565-.411L8.224,24.2a.388.388,0,0,0-.113-.345l-2.482-2.42a.389.389,0,0,1,.216-.664l1.928-.281a5.3,5.3,0,0,0,7.1,4.846l.392,2.28A.39.39,0,0,1,14.7,28.024Z" fill="#ffd05b"/>
          <path id="Trazado_125183" data-name="Trazado 125183" d="M50,21.846a3.33,3.33,0,0,0-3.265-3.4,3.269,3.269,0,0,0-2.424,1.071.215.215,0,0,1-.318,0,3.234,3.234,0,0,0-2.415-1.057q-.125,0-.247.011s-.427.1-.635.163a3.012,3.012,0,0,0-2.067,3.087c-.069,3.538,4.646,6.056,5.419,6.45a.212.212,0,0,0,.2,0c.228-.12,1.573-.705,1.573-.705,1.717-1.158,4.15-3.22,4.183-5.622Z" fill="#ff7892"/>
          <path id="Trazado_125184" data-name="Trazado 125184" d="M45.821,27.468a17.372,17.372,0,0,1-1.568.947.212.212,0,0,1-.2,0c-.772-.393-5.83-3.1-5.76-6.642a3.375,3.375,0,0,1,3.038-3.3,3.4,3.4,0,0,0-1.1,2.44c-.066,3.34,4.436,5.942,5.591,6.553Z" fill="#ff5f7a"/>
          <path id="Trazado_125185" data-name="Trazado 125185" d="M33.676,11.817a6.178,6.178,0,0,0-9.617-5.13S23.836,6.9,23.7,7a5.941,5.941,0,0,0-2.122,4.807,5.509,5.509,0,0,0,5.86,5.682A5.964,5.964,0,0,0,31.6,16.312c.259-.232.739-.654.739-.654a6.151,6.151,0,0,0,1.34-3.841Z" fill="#ccf49f"/>
          <path id="Trazado_125186" data-name="Trazado 125186" d="M32.337,15.658a6.177,6.177,0,1,1-8.278-8.972,6.177,6.177,0,0,0,8.278,8.972Z" fill="#b3e59f"/>
          <g id="Grupo_97948" data-name="Grupo 97948">
            <path id="Trazado_125187" data-name="Trazado 125187" d="M39.362,54.194a.43.43,0,0,0,.43-.43V51.516a3.222,3.222,0,0,0-1.711-2.846l-7.027-3.454-6.8.133-7.021,3.61a3.223,3.223,0,0,0-1.722,2.852l-.1,1.725a.43.43,0,0,0,.43.43l1.2.23h5.351l5.115-.618,5.213.618Z" fill="#ccf49f"/>
            <path id="Trazado_125188" data-name="Trazado 125188" d="M30.821,41.645l-.384,1.783.677.834.084.751a2.416,2.416,0,0,1-.5,1.794,3.794,3.794,0,0,1-3.145,1.306,3.883,3.883,0,0,1-2.994-1.131s.124-.311.078-.369a2.03,2.03,0,0,1-.518-1.622l.219-3.524Z" fill="#d6995c"/>
            <path id="Trazado_125189" data-name="Trazado 125189" d="M24.555,46.982l-6.794,3.324a1.393,1.393,0,0,0-.727,1.226v2.663h-1.4a.43.43,0,0,1-.43-.43V51.531a3.225,3.225,0,0,1,1.722-2.852l6.952-3.4.674.591A7.534,7.534,0,0,0,24.555,46.982Z" fill="#b3e59f"/>
            <path id="Trazado_125190" data-name="Trazado 125190" d="M32.713,53.1v1.1H22.384V53.1a1.289,1.289,0,0,1,1.289-1.289h7.75A1.289,1.289,0,0,1,32.713,53.1Z" fill="#f0fbff"/>
            <path id="Trazado_125191" data-name="Trazado 125191" d="M20.337,32.934c-1.849,0-2.654.394-2.6,1.675a3.084,3.084,0,0,0,3.129,3.018H34.229a3.084,3.084,0,0,0,3.129-3.018c.056-1.282-.75-1.675-2.6-1.675Z" fill="#d6995c"/>
            <path id="Trazado_125192" data-name="Trazado 125192" d="M31.114,44.262l-.294-2.617-6.486-.178L23.9,45.013a2.445,2.445,0,0,0-.017.265,2.4,2.4,0,0,0,.522,1.53q.069.087.151.174l.592-.29a1.074,1.074,0,0,0,.6-.88l.018-.223a.535.535,0,0,1,.618-.487,7.138,7.138,0,0,0,1.137.092,7.527,7.527,0,0,0,3.594-.932Z" fill="#ce8d57"/>
            <path id="Trazado_125193" data-name="Trazado 125193" d="M20.514,32.933l-.157-1.723,3.812-5.8,10.44,1.881v5.644c0,7.6-3.947,10.435-7.089,10.435-3.059,0-7.006-2.833-7.006-10.435Z" fill="#e3a76f"/>
            <path id="Trazado_125194" data-name="Trazado 125194" d="M19.772,25.7a3.851,3.851,0,0,1,1.086-1.266c.283-.173.816-.466.816-.466a3.575,3.575,0,0,1,1.773-.083.428.428,0,0,0,.42-.141c2.16-2.594,5.367-2.448,7.906-1.36a6.622,6.622,0,0,1,3.833,8.692,9.227,9.227,0,0,1-1,1.857c-.012-.092,0-2.8-1.743-3.084-3.781-.627-6.954-1.582-7.965-2.507a.588.588,0,0,0-.944.218,4.2,4.2,0,0,1-1.724,2.219,2.848,2.848,0,0,0-.935,1.1l-.786,1.461s-2.248-4.49-.741-6.637Z" fill="#6fbbc6"/>
            <path id="Trazado_125195" data-name="Trazado 125195" d="M21.3,30.877a9.676,9.676,0,0,0-.785,2.056c-1.746-1.789-2.48-5.216-.973-7.364a3.942,3.942,0,0,1,2.133-1.6,4.112,4.112,0,0,0-.522.634C19.913,26.37,20.189,29,21.3,30.877Z" fill="#61aab8"/>
          </g>
        </g>
        <g id="Grupo_97950" data-name="Grupo 97950">
          <path id="Trazado_125196" data-name="Trazado 125196" d="M49,14.2A9.668,9.668,0,0,0,35.4,4.1a9.665,9.665,0,0,0-15.8,0A9.669,9.669,0,0,0,6,14.2a9.77,9.77,0,0,0,.146,18.083,9.187,9.187,0,0,0,.539,3.806.806.806,0,1,0,1.506-.574,7.237,7.237,0,0,1-.454-2.843l.053-.892a.806.806,0,0,0-.552-.813,8.159,8.159,0,0,1-.074-15.486.806.806,0,0,0,.531-.929,8.057,8.057,0,0,1,11.8-8.7.806.806,0,0,0,1.084-.292,8.056,8.056,0,0,1,13.855,0,.806.806,0,0,0,1.084.292,8.059,8.059,0,0,1,11.8,8.7.806.806,0,0,0,.531.929,8.158,8.158,0,0,1,5.55,7.734,8.32,8.32,0,0,1-5.731,7.752.806.806,0,0,0-.552.813,7.28,7.28,0,0,1-4.289,7.78,7.893,7.893,0,0,1-8.3-.992A4.015,4.015,0,0,0,38.162,34.7a2.231,2.231,0,0,0-.557-1.711,2.764,2.764,0,0,0-1.648-.733,7.014,7.014,0,0,0,.408-.91,7.436,7.436,0,0,0-4.277-9.7c-3.406-1.459-6.616-.926-8.695,1.414a4.662,4.662,0,0,0-4.519,2.056c-1.462,2.091-1.119,5.06.132,7.159a2.665,2.665,0,0,0-1.518.713,2.232,2.232,0,0,0-.556,1.711,3.955,3.955,0,0,0,3.655,3.827A8.217,8.217,0,0,1,10.1,38.255a.806.806,0,0,0-1.07,1.2,10.242,10.242,0,0,0,6.636,2.476,9.283,9.283,0,0,0,5.626-1.847,8.616,8.616,0,0,0,2.075,2.537l-.25,2.142c-.016.008-6.53,3.182-6.562,3.2A4.018,4.018,0,0,0,14.4,51.531v2.663a.806.806,0,0,0,1.611,0V51.531A2.411,2.411,0,0,1,17.295,49.4l6-2.925a3.131,3.131,0,0,0,.481.839,4.579,4.579,0,0,0,3.773,1.606,4.579,4.579,0,0,0,3.773-1.607,3.134,3.134,0,0,0,.479-.835l3.453,1.7a.806.806,0,0,0,.711-1.446L31.98,44.77l-.249-2.14a8.571,8.571,0,0,0,2.062-2.479,9.616,9.616,0,0,0,9.693.874,8.738,8.738,0,0,0,5.263-8.743A9.947,9.947,0,0,0,55,23.215,9.768,9.768,0,0,0,49,14.2ZM36.442,34.1a.738.738,0,0,1,.111.526,2.224,2.224,0,0,1-1.51,2.1,17.608,17.608,0,0,0,.352-2.912C36.064,33.862,36.336,33.989,36.442,34.1Zm-17.9.526a.738.738,0,0,1,.111-.526c.107-.112.385-.241,1.074-.289a17.64,17.64,0,0,0,.354,2.924,2.225,2.225,0,0,1-1.538-2.109ZM30.066,46.3a3.051,3.051,0,0,1-2.517,1.005,3.051,3.051,0,0,1-2.517-1,1.617,1.617,0,0,1-.332-1.2l.179-1.533a6.275,6.275,0,0,0,2.642.6,6.455,6.455,0,0,0,2.7-.606l.179,1.539a1.619,1.619,0,0,1-.332,1.2Zm-2.545-3.74c-2.972,0-6.168-2.986-6.2-9.535a5.226,5.226,0,0,1,1.322-2.555,4.871,4.871,0,0,0,1.95-2.343c1.847,1.383,6.658,2.268,8.142,2.514.911.151,1.047,1.777,1.067,2.271,0,.014,0,.025,0,.037C33.8,40.537,29.852,42.562,27.52,42.562ZM33,29.054c-4.245-.7-6.853-1.666-7.554-2.307a1.394,1.394,0,0,0-2.236.514,3.405,3.405,0,0,1-1.384,1.823A4.477,4.477,0,0,0,20.25,31.19a5.2,5.2,0,0,1-.049-5.158l.01-.014a3.094,3.094,0,0,1,2.523-1.4,2.583,2.583,0,0,1,.738.106.805.805,0,0,0,.868-.281c2.279-2.963,5.735-1.908,7.115-1.317a5.812,5.812,0,0,1,3.462,7.469A2.567,2.567,0,0,0,33,29.054Z"/>
          <path id="Trazado_125197" data-name="Trazado 125197" d="M7.319,28.646a1.188,1.188,0,0,0,1.259.091l2.875-1.512,2.876,1.512a1.2,1.2,0,0,0,1.734-1.26l-.549-3.2,2.326-2.268a1.2,1.2,0,0,0-.662-2.039L13.962,19.5l-1.438-2.913a1.2,1.2,0,0,0-2.143,0L8.944,19.5l-3.215.467a1.2,1.2,0,0,0-.662,2.039l2.326,2.268-.549,3.2a1.188,1.188,0,0,0,.475,1.169Zm-.524-7.2,2.6-.377a1.2,1.2,0,0,0,.9-.654l1.161-2.353,1.161,2.353a1.194,1.194,0,0,0,.9.654l2.6.377-1.879,1.832a1.2,1.2,0,0,0-.344,1.058l.444,2.586L12.009,25.7a1.2,1.2,0,0,0-1.112,0L8.574,26.918l.444-2.586a1.2,1.2,0,0,0-.344-1.058Z"/>
          <path id="Trazado_125198" data-name="Trazado 125198" d="M49.6,23.678a.806.806,0,0,0,1-.54,4.692,4.692,0,0,0,.2-1.281,4.158,4.158,0,0,0-1.2-2.994,4.032,4.032,0,0,0-5.453-.3,4,4,0,0,0-2.579-.907,4.178,4.178,0,0,0-4.085,4.1c-.084,4.3,6.053,7.306,6.315,7.432a.806.806,0,0,0,.71-.005,18.02,18.02,0,0,0,3.731-2.6.806.806,0,1,0-1.1-1.182,16.54,16.54,0,0,1-3.007,2.152c-1.7-.908-5.092-3.242-5.043-5.766a2.48,2.48,0,0,1,4.422-1.584.806.806,0,0,0,.631.306h0a.806.806,0,0,0,.631-.305,2.625,2.625,0,0,1,1.949-.952,2.417,2.417,0,0,1,1.723.738,2.558,2.558,0,0,1,.739,1.842,3.082,3.082,0,0,1-.134.84.806.806,0,0,0,.54,1Z"/>
          <path id="Trazado_125199" data-name="Trazado 125199" d="M22.163,12.428a.806.806,0,0,0-1.6.181,6.981,6.981,0,1,0,.8-4.121.806.806,0,1,0,1.416.769,5.372,5.372,0,1,1-.613,3.171Z"/>
          <path id="Trazado_125200" data-name="Trazado 125200" d="M26.4,13.347a.806.806,0,1,0-.519,1.525,5.013,5.013,0,0,0,.809.205v.215a.806.806,0,1,0,1.611,0v-.336A2.065,2.065,0,0,0,29.548,13.7a1.99,1.99,0,0,0-1.223-2.556,6.84,6.84,0,0,0-.718-.2,1.293,1.293,0,0,1-.492-.172.309.309,0,0,1-.118-.3.4.4,0,0,1,.238-.314.776.776,0,0,1,.776.127.806.806,0,0,0,1.067-1.208,2.533,2.533,0,0,0-.772-.447v-.3a.806.806,0,1,0-1.611,0v.313A2.115,2.115,0,0,0,25.4,10.245a1.923,1.923,0,0,0,.7,1.777,2.6,2.6,0,0,0,1.132.487,5.316,5.316,0,0,1,.556.156.393.393,0,0,1,.238.508c-.112.323-.657.5-1.622.174Z"/>
          <path id="Trazado_125201" data-name="Trazado 125201" d="M38.338,48.7a.806.806,0,0,0-.025,1.139,2.407,2.407,0,0,1,.672,1.672v2.679a.806.806,0,1,0,1.611,0V51.515a4.011,4.011,0,0,0-1.119-2.787.805.805,0,0,0-1.139-.024Z"/>
          <path id="Trazado_125202" data-name="Trazado 125202" d="M31.424,51H23.673A2.1,2.1,0,0,0,21.578,53.1v1.1a.806.806,0,1,0,1.611,0V53.1a.484.484,0,0,1,.483-.483h7.751a.484.484,0,0,1,.483.483v1.1a.806.806,0,0,0,1.611,0V53.1A2.1,2.1,0,0,0,31.424,51Z"/>
        </g>
      </g>
    </g>
  </g>
</svg>
