<svg xmlns="http://www.w3.org/2000/svg" xmlns:xlink="http://www.w3.org/1999/xlink" width="85" height="85" viewBox="0 0 85 85">
  <defs>
    <clipPath id="clip-path">
      <rect id="Rect치ngulo_35703" data-name="Rect치ngulo 35703" width="67" height="67" transform="translate(189 4865)" fill="#ffd41c"/>
    </clipPath>
  </defs>
  <g id="Grupo_99210" data-name="Grupo 99210" transform="translate(-810 -7725)">
    <rect id="Rect치ngulo_34163" data-name="Rect치ngulo 34163" width="85" height="85" transform="translate(810 7725)" fill="#764cf0"/>
    <g id="Enmascarar_grupo_384" data-name="Enmascarar grupo 384" transform="translate(630 2869)" clip-path="url(#clip-path)">
      <g id="malo" transform="translate(189 4865)">
        <g id="Grupo_98268" data-name="Grupo 98268">
          <path id="Trazado_125588" data-name="Trazado 125588" d="M31.892,47.252a1.513,1.513,0,0,1-1.513-1.513V28.146a12.308,12.308,0,1,0-24.615,0V45.739a1.513,1.513,0,0,1-1.513,1.513,3.256,3.256,0,0,0-3.27,3.26,3.2,3.2,0,0,0,3.2,3.136H31.964a3.2,3.2,0,0,0,3.2-3.283,3.288,3.288,0,0,0-3.269-3.114Z" fill="#6c5e69"/>
          <path id="Trazado_125589" data-name="Trazado 125589" d="M31.9,65.539a.48.48,0,0,1-.48.48H4.722a.48.48,0,0,1-.48-.48V58.361A11.081,11.081,0,0,1,14.724,47.3q.3-.016.6-.016h5.5q.227,0,.451.009A11.081,11.081,0,0,1,31.9,58.361v7.177Z" fill="#ffe270"/>
          <path id="Trazado_125590" data-name="Trazado 125590" d="M21.273,47.289q-.225-.009-.451-.009h-2.64q.227,0,.451.009a11.081,11.081,0,0,1,10.63,11.072v7.657h2.16a.48.48,0,0,0,.48-.48V58.361a11.081,11.081,0,0,0-10.63-11.072Z" fill="#ffd250"/>
          <path id="Trazado_125591" data-name="Trazado 125591" d="M18.072,51.143A2.939,2.939,0,0,1,15.133,48.2V40.019h5.878V48.2a2.939,2.939,0,0,1-2.939,2.939Z" fill="#ffb29f"/>
          <path id="Trazado_125592" data-name="Trazado 125592" d="M21.756,27.538,19.74,24.645a.279.279,0,0,0-.458,0l-2.016,2.893a.279.279,0,0,1-.229.12H9.727a.279.279,0,0,0-.279.279v7.97a8.624,8.624,0,1,0,17.249,0v-7.97a.279.279,0,0,0-.279-.279H21.985a.279.279,0,0,1-.229-.12Z" fill="#ffe0cf"/>
          <g id="Grupo_98266" data-name="Grupo 98266">
            <path id="Trazado_125593" data-name="Trazado 125593" d="M26.417,27.657h-2.7a.279.279,0,0,1,.279.279v7.97a8.626,8.626,0,0,1-7.273,8.518A8.626,8.626,0,0,0,26.7,35.907v-7.97A.279.279,0,0,0,26.417,27.657Z" fill="#ffcfc0"/>
          </g>
          <path id="Trazado_125594" data-name="Trazado 125594" d="M44.883,66.018H30.351l-3.3-9.352L37.617,54.23l10.565,2.437Z" fill="#64caff"/>
          <path id="Trazado_125595" data-name="Trazado 125595" d="M50.411,56.666H24.823a.684.684,0,0,1-.684-.684V53.6a.684.684,0,0,1,.684-.684H50.411a.684.684,0,0,1,.684.684v2.381A.684.684,0,0,1,50.411,56.666Z" fill="#00b8ff"/>
          <path id="Trazado_125596" data-name="Trazado 125596" d="M37.154,2.752V20.863a4.58,4.58,0,0,1-.168,1.228L34.8,29.938a.5.5,0,0,0,.756.545l5.577-3.764a4.581,4.581,0,0,1,2.563-.784H64.248a1.771,1.771,0,0,0,1.771-1.771V2.752A1.771,1.771,0,0,0,64.248.981H38.926a1.771,1.771,0,0,0-1.771,1.771Z" fill="#faf7f8"/>
          <g id="Grupo_98267" data-name="Grupo 98267">
            <path id="Trazado_125597" data-name="Trazado 125597" d="M64.248.981H60.935a1.771,1.771,0,0,1,1.771,1.771V24.164a1.771,1.771,0,0,1-1.771,1.771h3.312a1.771,1.771,0,0,0,1.771-1.771V2.752A1.771,1.771,0,0,0,64.248.981Z" fill="#f0eef0"/>
          </g>
          <circle id="Elipse_5890" data-name="Elipse 5890" cx="8.502" cy="8.502" r="8.502" transform="translate(43.412 4.956)" fill="#ffe270"/>
          <path id="Trazado_125598" data-name="Trazado 125598" d="M51.914,4.956a8.572,8.572,0,0,0-1.3.1,8.5,8.5,0,0,1,0,16.808,8.5,8.5,0,1,0,1.3-16.906Z" fill="#ffd250"/>
        </g>
        <g id="Grupo_98269" data-name="Grupo 98269">
          <path id="Trazado_125599" data-name="Trazado 125599" d="M15.726,33.334V32.21a.981.981,0,1,0-1.963,0v1.124a.981.981,0,1,0,1.963,0Z"/>
          <path id="Trazado_125600" data-name="Trazado 125600" d="M21.4,34.316a.981.981,0,0,0,.981-.981V32.21a.981.981,0,1,0-1.963,0v1.124A.981.981,0,0,0,21.4,34.316Z"/>
          <path id="Trazado_125601" data-name="Trazado 125601" d="M20.423,39.044a.982.982,0,0,0,.97-1.707,6.342,6.342,0,0,0-6.641,0,.982.982,0,1,0,.97,1.707,4.437,4.437,0,0,1,4.7,0Z"/>
          <path id="Trazado_125602" data-name="Trazado 125602" d="M50.411,51.935h-6.47l4.6-5.179a.981.981,0,0,0-1.467-1.3l-5.763,6.483H35.871a4.185,4.185,0,0,0,.272-1.595,4.243,4.243,0,0,0-4.25-4.07.532.532,0,0,1-.531-.531V28.146a13.291,13.291,0,0,0-24.994-6.3.981.981,0,1,0,1.728.931,11.328,11.328,0,0,1,21.3,5.365V45.739a2.5,2.5,0,0,0,2.494,2.494,2.3,2.3,0,0,1,2.288,2.158,2.22,2.22,0,0,1-.57,1.544H31.032a12,12,0,0,0-9.039-5.58V44.676a9.62,9.62,0,0,0,5.685-8.769V27.657a.981.981,0,0,0-.981-.981H22.351l-2.035-2.921a.981.981,0,0,0-1.61,0L16.67,26.676H9.448a.981.981,0,0,0-.981.981v8.249a9.62,9.62,0,0,0,5.685,8.769v1.679a12.048,12.048,0,0,0-9.466,6.312H4.18a2.227,2.227,0,0,1-2.216-2.174A2.16,2.16,0,0,1,2.6,48.932a2.334,2.334,0,0,1,1.655-.7,2.5,2.5,0,0,0,2.494-2.494V28.146a11.454,11.454,0,0,1,.165-1.933.981.981,0,0,0-1.934-.332,13.421,13.421,0,0,0-.193,2.266V45.739a.532.532,0,0,1-.531.531A4.309,4.309,0,0,0,1.2,47.558,4.109,4.109,0,0,0,0,50.531a4.2,4.2,0,0,0,3.852,4.086,12.06,12.06,0,0,0-.592,3.744v7.657A.981.981,0,0,0,4.242,67H44.883a.981.981,0,0,0,.926-.655l.874-2.477a.981.981,0,1,0-1.851-.653l-.643,1.822H31.045l-2.606-7.389H46.8L46.1,59.611a.981.981,0,0,0,1.851.653l.923-2.616h1.535a1.668,1.668,0,0,0,1.666-1.666V53.6a1.667,1.667,0,0,0-1.665-1.666ZM10.429,35.907V28.639h6.754a.981.981,0,0,0,.805-.42l1.523-2.185,1.523,2.185a.981.981,0,0,0,.805.42h3.876v7.268a7.643,7.643,0,1,1-15.286,0Zm7.643,9.606a9.612,9.612,0,0,0,1.958-.2V48.2a1.958,1.958,0,0,1-3.915,0V45.312A9.613,9.613,0,0,0,18.072,45.513ZM28.964,65.037H5.223V58.361a10.1,10.1,0,0,1,8.93-10.033,3.92,3.92,0,0,0,7.837,0,10.032,10.032,0,0,1,6.626,3.607H24.823A1.668,1.668,0,0,0,23.157,53.6v2.381a1.668,1.668,0,0,0,1.666,1.666h1.535Zm21.15-9.352H25.12V53.9H39.593a.981.981,0,0,0,1.576,1.156L42.2,53.9h7.918Z"/>
          <path id="Trazado_125603" data-name="Trazado 125603" d="M32.668,58.363a.981.981,0,0,0-.761,1.161l.854,4.1a.981.981,0,1,0,1.922-.4l-.854-4.1a.982.982,0,0,0-1.161-.761Z"/>
          <path id="Trazado_125604" data-name="Trazado 125604" d="M41.4,59.124l-.854,4.1a.981.981,0,0,0,1.922.4l.854-4.1a.981.981,0,0,0-1.922-.4Z"/>
          <path id="Trazado_125605" data-name="Trazado 125605" d="M36.636,59.324V63.31a.981.981,0,1,0,1.963,0V59.324a.981.981,0,1,0-1.963,0Z"/>
          <path id="Trazado_125606" data-name="Trazado 125606" d="M66.018,11.406A.981.981,0,0,0,67,10.425V2.752A2.756,2.756,0,0,0,64.248,0H38.926a2.755,2.755,0,0,0-2.752,2.752V20.863a3.6,3.6,0,0,1-.132.965l-2.184,7.847A1.478,1.478,0,0,0,36.108,31.3l5.577-3.764a3.587,3.587,0,0,1,2.014-.616H64.248A2.756,2.756,0,0,0,67,24.164V14.22a.981.981,0,0,0-1.963,0v9.945a.79.79,0,0,1-.789.789H43.7a5.543,5.543,0,0,0-3.112.952L36.1,28.932l1.831-6.578a5.564,5.564,0,0,0,.2-1.492V2.752a.79.79,0,0,1,.789-.789H64.248a.79.79,0,0,1,.789.789v7.673a.981.981,0,0,0,.981.982Z"/>
          <path id="Trazado_125607" data-name="Trazado 125607" d="M42.431,13.458a9.483,9.483,0,1,0,9.483-9.483A9.494,9.494,0,0,0,42.431,13.458Zm17,0a7.521,7.521,0,1,1-7.521-7.521A7.529,7.529,0,0,1,59.435,13.458Z"/>
          <path id="Trazado_125608" data-name="Trazado 125608" d="M49.321,12.18A.981.981,0,0,0,50.3,11.2V10.075a.981.981,0,1,0-1.963,0V11.2A.981.981,0,0,0,49.321,12.18Z"/>
          <path id="Trazado_125609" data-name="Trazado 125609" d="M54.508,12.18a.981.981,0,0,0,.981-.981V10.075a.981.981,0,0,0-1.963,0V11.2A.981.981,0,0,0,54.508,12.18Z"/>
          <path id="Trazado_125610" data-name="Trazado 125610" d="M55.235,15.388a6.342,6.342,0,0,0-6.641,0,.982.982,0,0,0,.97,1.707,4.436,4.436,0,0,1,4.7,0,.981.981,0,1,0,.97-1.707Z"/>
          <path id="Trazado_125611" data-name="Trazado 125611" d="M22.323,14.179a.981.981,0,0,0,1.387-.054l2.561-2.766a.981.981,0,0,0,.25-.815l-.6-3.885,1.117-1.344L30.11,6.1l.9,2.049-1.172.942-.488-.453.213-.379A.981.981,0,1,0,27.855,7.3l-.592,1.053a.981.981,0,0,0,.188,1.2l1.676,1.556a.982.982,0,0,0,1.283.046l2.42-1.945a.982.982,0,0,0,.283-1.161l-1.4-3.174a.982.982,0,0,0-.654-.554L26.928,3.259a.982.982,0,0,0-1,.323l-1.8,2.161a.982.982,0,0,0-.215.776l.591,3.854-2.239,2.419a.981.981,0,0,0,.053,1.387Z"/>
          <path id="Trazado_125612" data-name="Trazado 125612" d="M5.884,12.729a.981.981,0,0,0,1.444.119l1.337-1.241a.982.982,0,0,0,.3-.868L8.731,9.2a.981.981,0,1,0-1.94.3l.157,1.025-.168.156L5.769,9.37,6.937,7.51l1.912-.2,1.183,2.446L9.6,12.6a.981.981,0,0,0,.25.815L10.9,14.552a.981.981,0,1,0,1.44-1.333l-.733-.791.41-2.674a.981.981,0,0,0-.086-.576L10.317,5.837a.982.982,0,0,0-.985-.549l-3.073.319a.981.981,0,0,0-.73.454L3.743,8.906A.981.981,0,0,0,3.8,10.028Z"/>
        </g>
      </g>
    </g>
  </g>
</svg>
