<svg xmlns="http://www.w3.org/2000/svg" xmlns:xlink="http://www.w3.org/1999/xlink" width="85" height="85" viewBox="0 0 85 85">
  <defs>
    <clipPath id="clip-path">
      <rect id="Rect치ngulo_35704" data-name="Rect치ngulo 35704" width="67" height="67" transform="translate(189 4865)" fill="#ffd41c"/>
    </clipPath>
  </defs>
  <g id="Grupo_99209" data-name="Grupo 99209" transform="translate(-495 -7725)">
    <rect id="Rect치ngulo_34163" data-name="Rect치ngulo 34163" width="85" height="85" transform="translate(495 7725)" fill="#764cf0"/>
    <g id="Enmascarar_grupo_382" data-name="Enmascarar grupo 382" transform="translate(315 2869)" clip-path="url(#clip-path)">
      <g id="preocupacion" transform="translate(189 4865)">
        <g id="Grupo_98253" data-name="Grupo 98253">
          <g id="Grupo_98249" data-name="Grupo 98249">
            <g id="Grupo_98248" data-name="Grupo 98248">
              <g id="Grupo_98246" data-name="Grupo 98246">
                <path id="Trazado_125554" data-name="Trazado 125554" d="M45.142,28.525l-.081-.277a19.152,19.152,0,0,0-18.386-13.79H26.1c-10.577,0-17.859,7.057-20.327,16.212A75.832,75.832,0,0,0,3.728,46.354a1.765,1.765,0,0,0,1.763,1.809H9.083s-.157,6.2,1.582,10.154c.665,1.512,9.115,0,9.115,0v7.7H39.718V55.59s.375-4.809,4.963-16.817a14.378,14.378,0,0,0,.462-10.248Z" fill="#ffcec0"/>
              </g>
              <path id="Trazado_125555" data-name="Trazado 125555" d="M44.681,38.772c-.62,1.623-1.162,3.113-1.637,4.478H26.969a4.685,4.685,0,0,1-4.125-6.905L33.877,15.861A19.151,19.151,0,0,1,45.061,28.249l.081.276a14.371,14.371,0,0,1-.462,10.248Z" fill="#fdb0a0"/>
              <g id="Grupo_98247" data-name="Grupo 98247">
                <path id="Trazado_125556" data-name="Trazado 125556" d="M44.681,38.772C40.093,50.781,39.717,55.59,39.717,55.59V66.019h-5.36V55.59s.376-4.809,4.963-16.818a14.371,14.371,0,0,0,.462-10.248l-.081-.276A19.153,19.153,0,0,0,23.6,14.593a22.639,22.639,0,0,1,2.5-.136h.572A19.152,19.152,0,0,1,45.061,28.249l.081.276a14.371,14.371,0,0,1-.462,10.248Z" fill="#fdb0a0"/>
              </g>
            </g>
          </g>
          <g id="Grupo_98250" data-name="Grupo 98250">
            <path id="Trazado_125557" data-name="Trazado 125557" d="M26.969,39.7a4.684,4.684,0,0,1-4.124-6.906L38.651,3.444a4.684,4.684,0,0,1,8.249,0L62.706,32.79A4.685,4.685,0,0,1,58.582,39.7Z" fill="#eef4f5"/>
            <path id="Trazado_125558" data-name="Trazado 125558" d="M62.6,37.414A4.645,4.645,0,0,1,58.582,39.7h-4.3a4.684,4.684,0,0,0,4.123-6.905L42.6,3.444A4.673,4.673,0,0,0,40.625,1.5,4.686,4.686,0,0,1,46.9,3.444L62.705,32.791A4.644,4.644,0,0,1,62.6,37.414Z" fill="#cbe5e7"/>
            <path id="Trazado_125559" data-name="Trazado 125559" d="M59.045,33.981,43.772,5.624a1.132,1.132,0,0,0-1.993,0L26.505,33.981a1.132,1.132,0,0,0,1,1.668H58.049A1.132,1.132,0,0,0,59.045,33.981Z" fill="#fb4a59"/>
            <path id="Trazado_125560" data-name="Trazado 125560" d="M58.049,35.649h-4.7a1.132,1.132,0,0,0,1-1.668L40.424,8.141l1.356-2.516a1.13,1.13,0,0,1,1.992,0L59.045,33.98a1.132,1.132,0,0,1-1,1.668Z" fill="#f82f40"/>
          </g>
          <g id="Grupo_98252" data-name="Grupo 98252">
            <g id="Grupo_98251" data-name="Grupo 98251">
              <path id="Trazado_125561" data-name="Trazado 125561" d="M44.317,24.345l.544-8.539a1.234,1.234,0,0,0-1.231-1.312h-1.71a1.234,1.234,0,0,0-1.231,1.312l.544,8.539A1.233,1.233,0,0,0,42.465,25.5h.621A1.234,1.234,0,0,0,44.317,24.345Z" fill="#eef4f5"/>
            </g>
            <circle id="Elipse_5888" data-name="Elipse 5888" cx="1.93" cy="1.93" r="1.93" transform="translate(40.846 28.243)" fill="#eef4f5"/>
          </g>
        </g>
        <g id="Grupo_98254" data-name="Grupo 98254">
          <path id="Trazado_125562" data-name="Trazado 125562" d="M39.717,58.318a.981.981,0,0,0-.981.981v6.719a.981.981,0,0,0,1.963,0V59.3A.981.981,0,0,0,39.717,58.318Z"/>
          <path id="Trazado_125563" data-name="Trazado 125563" d="M15.207,35.313v.981a.981.981,0,0,0,1.963,0v-.981a.981.981,0,0,0-1.963,0Z"/>
          <path id="Trazado_125564" data-name="Trazado 125564" d="M63.57,32.325,47.764,2.979a5.666,5.666,0,0,0-9.977,0L31.779,14.134a20.136,20.136,0,0,0-5.1-.658H26.1a21.15,21.15,0,0,0-13.837,4.9A23.586,23.586,0,0,0,4.829,30.414,77.333,77.333,0,0,0,2.746,46.33a2.746,2.746,0,0,0,2.744,2.814H8.1c.032,1.969.269,6.392,1.665,9.567.5,1.128,2.173,1.461,5.789,1.15,1.224-.105,2.411-.266,3.243-.392v6.549a.981.981,0,0,0,1.963,0v-7.7a.981.981,0,0,0-1.154-.966c-3.606.644-7.31.849-8.094.457a16.466,16.466,0,0,1-.976-3.511,15.652,15.652,0,0,0,2.133.15c.323,0,.659-.011,1-.036,3.368-.246,5.867-1.739,7.227-4.317a.981.981,0,0,0-1.736-.916c-1.036,1.964-2.915,3.064-5.584,3.272a13.392,13.392,0,0,1-3.324-.185,35.93,35.93,0,0,1-.193-4.075.981.981,0,0,0-.981-1.006H5.491a.783.783,0,0,1-.782-.8A75.106,75.106,0,0,1,6.724,30.925a21.637,21.637,0,0,1,6.808-11.044A19.212,19.212,0,0,1,26.1,15.439h.572a18.179,18.179,0,0,1,4.142.48L21.981,32.325a5.666,5.666,0,0,0,4.988,8.353h7.647a.981.981,0,0,0,0-1.963H26.969a3.7,3.7,0,0,1-3.26-5.459L39.515,3.91a3.7,3.7,0,0,1,6.52,0L61.842,33.256a3.7,3.7,0,0,1-3.26,5.459h-19.6a.981.981,0,0,0,0,1.963H42.92c-2.977,8.133-3.849,12.55-4.089,14.112a.981.981,0,1,0,1.94.3c.237-1.546,1.123-6.01,4.241-14.409H58.582a5.666,5.666,0,0,0,4.988-8.353Z"/>
          <path id="Trazado_125565" data-name="Trazado 125565" d="M48.631,14.646a.982.982,0,0,0,.4-1.33L44.636,5.158a2.113,2.113,0,0,0-3.721,0L25.641,33.515A2.113,2.113,0,0,0,27.5,36.63H58.049a2.113,2.113,0,0,0,1.86-3.115L51.1,17.164a.982.982,0,0,0-1.728.931l8.807,16.351a.15.15,0,0,1-.132.221H27.5a.15.15,0,0,1-.132-.221L42.643,6.089a.15.15,0,0,1,.264,0L47.3,14.248a.981.981,0,0,0,1.33.4Z"/>
          <path id="Trazado_125566" data-name="Trazado 125566" d="M45.246,14.212a2.223,2.223,0,0,0-1.615-.7H41.92a2.215,2.215,0,0,0-2.21,2.356l.544,8.539a2.219,2.219,0,0,0,2.21,2.074h.621a2.219,2.219,0,0,0,2.21-2.074l.544-8.539a2.223,2.223,0,0,0-.6-1.657ZM43.337,24.283a.253.253,0,0,1-.252.236h-.621a.253.253,0,0,1-.252-.236l-.544-8.539a.252.252,0,0,1,.252-.268h1.71a.252.252,0,0,1,.252.268Z"/>
          <path id="Trazado_125567" data-name="Trazado 125567" d="M42.775,27.261a2.911,2.911,0,1,0,2.911,2.911A2.914,2.914,0,0,0,42.775,27.261Zm0,3.859a.948.948,0,1,1,.948-.948A.949.949,0,0,1,42.775,31.12Z"/>
        </g>
      </g>
    </g>
  </g>
</svg>
