<svg xmlns="http://www.w3.org/2000/svg" xmlns:xlink="http://www.w3.org/1999/xlink" width="60" height="60" viewBox="0 0 60 60">
  <defs>
    <clipPath id="clip-path">
      <rect id="Rectángulo_35231" data-name="Rectángulo 35231" width="60" height="60" transform="translate(1158 3930)" fill="#ffd41c"/>
    </clipPath>
  </defs>
  <g id="Enmascarar_grupo_282" data-name="Enmascarar grupo 282" transform="translate(-1158 -3930)" clip-path="url(#clip-path)">
    <g id="informacion" transform="translate(1158 3930)">
      <path id="Trazado_122939" data-name="Trazado 122939" d="M40.682,41.151l-6.2-6.2a16.758,16.758,0,0,1-2.8,2.8l6.2,6.2Z" fill="#8abbd5"/>
      <path id="Trazado_122940" data-name="Trazado 122940" d="M39.253,42.581l-6.115-6.115a16.761,16.761,0,0,1-1.455,1.29l6.2,6.2Z" fill="#6cabca"/>
      <g id="Grupo_95280" data-name="Grupo 95280">
        <g id="Grupo_95279" data-name="Grupo 95279">
          <path id="Trazado_122941" data-name="Trazado 122941" d="M42.539,41.093a1.272,1.272,0,0,0-1.8,0l-2.918,2.918a1.272,1.272,0,0,0,0,1.8l2.1,2.1L44.643,43.2Z" fill="#d8ecfe"/>
        </g>
        <path id="Trazado_122942" data-name="Trazado 122942" d="M40.8,45.519a1.272,1.272,0,0,1,0-1.8l2.182-2.182-.445-.445a1.272,1.272,0,0,0-1.8,0l-2.918,2.918a1.272,1.272,0,0,0,0,1.8l2.1,2.1,1.635-1.635Z" fill="#c4e2ff"/>
      </g>
      <g id="Grupo_95281" data-name="Grupo 95281">
        <path id="Trazado_122943" data-name="Trazado 122943" d="M55.291,56.544l-2.019,2.019a1.908,1.908,0,0,1-2.7,0L39.926,47.914,44.643,43.2,55.291,53.846A1.908,1.908,0,0,1,55.291,56.544Z" fill="#2ed1e2"/>
      </g>
      <g id="Grupo_95282" data-name="Grupo 95282">
        <path id="Trazado_122944" data-name="Trazado 122944" d="M44.9,47.085l1.813-1.813L44.643,43.2l-4.716,4.716L50.575,58.562a1.908,1.908,0,0,0,2.7,0L54,57.836,44.9,48.743A1.172,1.172,0,0,1,44.9,47.085Z" fill="#03bed7"/>
      </g>
      <path id="Trazado_122945" data-name="Trazado 122945" d="M37.987,23.262H30.273a.586.586,0,0,0-.414.172l-4.206,4.206a.586.586,0,0,1-1-.414V23.848a.586.586,0,0,0-.586-.586h-4.5a.586.586,0,0,1-.586-.586V8.17A16.671,16.671,0,0,0,5.644,30.123h9.143a.351.351,0,0,1,.249.1l3.127,3.127a.352.352,0,0,1,.1.249v7.423a16.668,16.668,0,0,0,19.78-16.367C38.046,24.187,38.026,23.722,37.987,23.262Z" fill="#00f2a6"/>
      <path id="Trazado_122946" data-name="Trazado 122946" d="M34.155,23.262H30.273a.586.586,0,0,0-.414.172l-4.206,4.206a.586.586,0,0,1-1-.414V23.848a.586.586,0,0,0-.586-.586h-4.5a.586.586,0,0,1-.586-.586V12.037A12.851,12.851,0,0,0,9.76,30.123h5.028a.351.351,0,0,1,.249.1l3.127,3.127a.352.352,0,0,1,.1.249V37.12A12.853,12.853,0,0,0,34.231,24.657a13,13,0,0,0-.076-1.4Z" fill="#d8ecfe"/>
      <g id="Grupo_95283" data-name="Grupo 95283">
        <path id="Trazado_122947" data-name="Trazado 122947" d="M14.694,30.123a12.85,12.85,0,0,1,4.29-16.006V12.037A12.851,12.851,0,0,0,9.76,30.123Z" fill="#b3dafe"/>
      </g>
      <g id="Grupo_95288" data-name="Grupo 95288">
        <g id="Grupo_95284" data-name="Grupo 95284">
          <path id="Trazado_122948" data-name="Trazado 122948" d="M40.781.879H19.57a.586.586,0,0,0-.586.586V22.676a.586.586,0,0,0,.586.586h4.5a.586.586,0,0,1,.586.586v3.377a.586.586,0,0,0,1,.414l4.206-4.206a.586.586,0,0,1,.414-.172H40.781a.586.586,0,0,0,.586-.586V1.465A.586.586,0,0,0,40.781.879Z" fill="#2ed1e2"/>
        </g>
        <g id="Grupo_95286" data-name="Grupo 95286">
          <g id="Grupo_95285" data-name="Grupo 95285">
            <path id="Trazado_122949" data-name="Trazado 122949" d="M22.969,22.676V1.465a.586.586,0,0,1,.586-.586H19.57a.586.586,0,0,0-.586.586V22.676a.586.586,0,0,0,.586.586h3.984A.586.586,0,0,1,22.969,22.676Z" fill="#03bed7"/>
          </g>
        </g>
        <g id="Grupo_95287" data-name="Grupo 95287">
          <path id="Trazado_122950" data-name="Trazado 122950" d="M31.851,19.1H28.539V10.439h3.054a.257.257,0,0,1,.257.257Z" fill="#fff"/>
          <path id="Trazado_122951" data-name="Trazado 122951" d="M31.593,7.882H28.8a.257.257,0,0,1-.257-.257v-2.8A.257.257,0,0,1,28.8,4.57h2.8a.257.257,0,0,1,.257.257v2.8A.257.257,0,0,1,31.593,7.882Z" fill="#fff"/>
        </g>
      </g>
      <g id="Grupo_95289" data-name="Grupo 95289">
        <path id="Trazado_122952" data-name="Trazado 122952" d="M50.106,35.353H42.161A.352.352,0,0,1,41.81,35V27.056a.352.352,0,0,1,.352-.352h7.945a.352.352,0,0,1,.352.352V35A.352.352,0,0,1,50.106,35.353Z" fill="#00f2a6"/>
      </g>
      <g id="Grupo_95290" data-name="Grupo 95290">
        <path id="Trazado_122953" data-name="Trazado 122953" d="M44.766,35V27.056a.352.352,0,0,1,.352-.352H42.161a.352.352,0,0,0-.352.352V35a.352.352,0,0,0,.352.352h2.956A.352.352,0,0,1,44.766,35Z" fill="#05e39c"/>
      </g>
      <g id="Grupo_95291" data-name="Grupo 95291">
        <path id="Trazado_122954" data-name="Trazado 122954" d="M28.613,51.377H23.339a.352.352,0,0,1-.352-.352V45.751a.352.352,0,0,1,.352-.352h5.274a.352.352,0,0,1,.352.352v5.274A.352.352,0,0,1,28.613,51.377Z" fill="#fe646f"/>
      </g>
      <g id="Grupo_95292" data-name="Grupo 95292">
        <path id="Trazado_122955" data-name="Trazado 122955" d="M25.547,51.025V45.751A.352.352,0,0,1,25.9,45.4H23.339a.352.352,0,0,0-.352.352v5.274a.352.352,0,0,0,.352.352H25.9A.352.352,0,0,1,25.547,51.025Z" fill="#fd4755"/>
      </g>
      <g id="Grupo_95293" data-name="Grupo 95293">
        <path id="Trazado_122956" data-name="Trazado 122956" d="M11.776,7.909H7.383a.352.352,0,0,1-.352-.352V3.164a.352.352,0,0,1,.352-.352h4.393a.352.352,0,0,1,.352.352V7.557A.352.352,0,0,1,11.776,7.909Z" fill="#ffe177"/>
      </g>
      <g id="Grupo_95294" data-name="Grupo 95294">
        <path id="Trazado_122957" data-name="Trazado 122957" d="M9.352,7.557V3.164A.352.352,0,0,1,9.7,2.812H7.383a.352.352,0,0,0-.352.352V7.557a.352.352,0,0,0,.352.352H9.7A.352.352,0,0,1,9.352,7.557Z" fill="#ffc344"/>
      </g>
      <g id="Grupo_95297" data-name="Grupo 95297">
        <g id="Grupo_95295" data-name="Grupo 95295">
          <path id="Trazado_122958" data-name="Trazado 122958" d="M14.788,30.123H4.5a.352.352,0,0,0-.352.352V47.417a.352.352,0,0,0,.352.352H17.915a.352.352,0,0,0,.352-.352V33.6a.351.351,0,0,0-.1-.249l-3.127-3.127A.351.351,0,0,0,14.788,30.123Z" fill="#ffe177"/>
        </g>
        <g id="Grupo_95296" data-name="Grupo 95296">
          <path id="Trazado_122959" data-name="Trazado 122959" d="M8.086,47.417V30.474a.352.352,0,0,1,.352-.352H4.5a.352.352,0,0,0-.352.352V47.417a.352.352,0,0,0,.352.352H8.437A.352.352,0,0,1,8.086,47.417Z" fill="#ffc344"/>
        </g>
      </g>
      <g id="Grupo_95300" data-name="Grupo 95300">
        <g id="Grupo_95298" data-name="Grupo 95298">
          <path id="Trazado_122960" data-name="Trazado 122960" d="M52.713,8.391H45.468a.352.352,0,0,0-.352.352V20.71a.352.352,0,0,0,.352.352H54.9a.352.352,0,0,0,.352-.352V10.93a.351.351,0,0,0-.1-.249L52.962,8.494a.351.351,0,0,0-.248-.1Z" fill="#d8ecfe"/>
        </g>
        <g id="Grupo_95299" data-name="Grupo 95299">
          <path id="Trazado_122961" data-name="Trazado 122961" d="M48.458,20.71V8.743a.352.352,0,0,1,.352-.352H45.468a.352.352,0,0,0-.352.352V20.71a.352.352,0,0,0,.352.352h3.341A.352.352,0,0,1,48.458,20.71Z" fill="#c4e2ff"/>
        </g>
      </g>
      <g id="Grupo_95301" data-name="Grupo 95301">
        <path id="Trazado_122962" data-name="Trazado 122962" d="M55.913,53.224,51.75,49.061A.879.879,0,0,0,50.507,50.3l4.163,4.163a1.029,1.029,0,0,1,0,1.455l-2.019,2.019a1.029,1.029,0,0,1-1.455,0L41.169,47.914l3.474-3.474L47.606,47.4a.879.879,0,0,0,1.243-1.243l-5.689-5.689a2.153,2.153,0,0,0-2.369-.454l-5.152-5.152a17.443,17.443,0,0,0,3.286-10.209c0-.173,0-.345-.009-.516h1.865a1.466,1.466,0,0,0,1.465-1.465V14.414a.879.879,0,1,0-1.758,0v7.969H30.273a1.456,1.456,0,0,0-1.036.429l-3.706,3.706v-2.67a1.466,1.466,0,0,0-1.465-1.465h-4.2V1.758H40.488v8.555a.879.879,0,1,0,1.758,0V1.465A1.466,1.466,0,0,0,40.781,0H19.57a1.466,1.466,0,0,0-1.465,1.465V7.428A17.539,17.539,0,0,0,4.458,29.246a1.231,1.231,0,0,0-1.187,1.228V47.417a1.232,1.232,0,0,0,1.23,1.23h6.163a.879.879,0,1,0,0-1.758H5.029V31h9.54l2.818,2.818v13.07H14.766a.879.879,0,1,0,0,1.758h3.149a1.232,1.232,0,0,0,1.23-1.23V42.052A17.512,17.512,0,0,0,31.595,38.91l5.151,5.151a2.151,2.151,0,0,0,.455,2.37L49.953,59.184a2.786,2.786,0,0,0,3.941,0l2.019-2.019a2.787,2.787,0,0,0,0-3.941Zm-37.808-44v2.11A13.723,13.723,0,0,0,8.452,29.244H6.286A15.783,15.783,0,0,1,18.105,9.22ZM15.658,29.6a1.223,1.223,0,0,0-.87-.36H10.335a11.962,11.962,0,0,1,7.77-16.093v9.525a1.466,1.466,0,0,0,1.465,1.465h4.2v3.084a1.464,1.464,0,0,0,2.5,1.036l4.12-4.12h2.945c.007.171.013.343.013.516A11.962,11.962,0,0,1,19.145,36.41V33.6a1.222,1.222,0,0,0-.36-.87Zm3.487,10.674V38.2A13.723,13.723,0,0,0,35.11,24.657c0-.173,0-.345-.011-.516h2.059c.006.171.01.343.01.516A15.779,15.779,0,0,1,19.145,40.278Zm13.832-2.471a17.693,17.693,0,0,0,1.559-1.559l4.9,4.9L37.881,42.71Zm5.466,7.381a.393.393,0,0,1,0-.556l2.918-2.918a.393.393,0,0,1,.556,0L43.4,43.2l-3.474,3.474Z"/>
        <path id="Trazado_122963" data-name="Trazado 122963" d="M31.593,8.761a1.137,1.137,0,0,0,1.136-1.136v-2.8a1.137,1.137,0,0,0-1.136-1.136H28.8A1.137,1.137,0,0,0,27.66,4.828v2.8A1.137,1.137,0,0,0,28.8,8.761ZM29.418,5.449h1.554V7H29.418Z"/>
        <path id="Trazado_122964" data-name="Trazado 122964" d="M27.395,18.223a.879.879,0,1,0,0,1.758h5.6a.879.879,0,0,0,0-1.758h-.265V10.7A1.137,1.137,0,0,0,31.593,9.56H27.357a.879.879,0,0,0,0,1.758h.3v6.9Zm2.023-6.9h1.554v6.9H29.418Z"/>
        <path id="Trazado_122965" data-name="Trazado 122965" d="M42.161,25.826a1.232,1.232,0,0,0-1.23,1.23V35a1.232,1.232,0,0,0,1.23,1.23h7.945A1.232,1.232,0,0,0,51.337,35V27.056a1.232,1.232,0,0,0-1.23-1.23Zm7.417,8.648h-6.89v-6.89h6.89Z"/>
        <path id="Trazado_122966" data-name="Trazado 122966" d="M28.613,44.521H23.339a1.232,1.232,0,0,0-1.23,1.23v5.274a1.232,1.232,0,0,0,1.23,1.23h5.274a1.232,1.232,0,0,0,1.23-1.23V45.751A1.232,1.232,0,0,0,28.613,44.521ZM28.086,50.5H23.867V46.279h4.219Z"/>
        <path id="Trazado_122967" data-name="Trazado 122967" d="M7.383,8.788h4.393a1.232,1.232,0,0,0,1.23-1.23V3.164a1.232,1.232,0,0,0-1.23-1.23H7.383a1.232,1.232,0,0,0-1.23,1.23V7.557A1.232,1.232,0,0,0,7.383,8.788Zm.527-5.1h3.338V7.03H7.91Z"/>
        <path id="Trazado_122968" data-name="Trazado 122968" d="M8.385,43.777h5.647a.879.879,0,1,0,0-1.758H8.385a.879.879,0,0,0,0,1.758Z"/>
        <path id="Trazado_122969" data-name="Trazado 122969" d="M8.385,39.824h5.647a.879.879,0,1,0,0-1.758H8.385a.879.879,0,0,0,0,1.758Z"/>
        <path id="Trazado_122970" data-name="Trazado 122970" d="M8.385,35.872h3.2a.879.879,0,1,0,0-1.758h-3.2a.879.879,0,0,0,0,1.758Z"/>
        <path id="Trazado_122971" data-name="Trazado 122971" d="M45.468,21.94H54.9a1.232,1.232,0,0,0,1.23-1.23V10.93a1.222,1.222,0,0,0-.36-.87L53.583,7.873a1.223,1.223,0,0,0-.87-.36H45.468a1.232,1.232,0,0,0-1.23,1.23V20.71A1.232,1.232,0,0,0,45.468,21.94ZM46,9.27h6.5l1.878,1.878v9.034H46Z"/>
        <path id="Trazado_122972" data-name="Trazado 122972" d="M52.211,16.685H48.157a.879.879,0,0,0,0,1.758h4.054a.879.879,0,1,0,0-1.758Z"/>
        <path id="Trazado_122973" data-name="Trazado 122973" d="M52.211,13.847H48.157a.879.879,0,0,0,0,1.758h4.054a.879.879,0,1,0,0-1.758Z"/>
        <path id="Trazado_122974" data-name="Trazado 122974" d="M48.157,12.767h2.3a.879.879,0,0,0,0-1.758h-2.3a.879.879,0,0,0,0,1.758Z"/>
      </g>
    </g>
  </g>
</svg>
