<svg xmlns="http://www.w3.org/2000/svg" width="805.799" height="234.934" viewBox="0 0 805.799 234.934">
  <g id="Grupo_99205" data-name="Grupo 99205" transform="translate(-391.839 -9699.913)">
    <rect id="Rect치ngulo_34099" data-name="Rect치ngulo 34099" width="27.957" height="27.957" rx="8" transform="matrix(0.985, 0.174, -0.174, 0.985, 417.855, 9822.178)" fill="#ffd41c"/>
    <rect id="Rect치ngulo_34100" data-name="Rect치ngulo 34100" width="45.647" height="45.647" rx="8" transform="matrix(0.966, -0.259, 0.259, 0.966, 1141.732, 9733.971)" fill="#26d19e"/>
    <circle id="Elipse_5080" data-name="Elipse 5080" cx="20.512" cy="20.512" r="20.512" transform="translate(1125 9854.821)" fill="#764cf0"/>
    <circle id="Elipse_5081" data-name="Elipse 5081" cx="6.112" cy="6.112" r="6.112" transform="translate(536.567 9869.221)" fill="#764cf0"/>
    <path id="Trazado_114565" data-name="Trazado 114565" d="M99.391,119.35c-4.239-2-8.5-3.934-12.732-5.855-21.189-9.614-43.1-19.558-59.412-36.8A89.4,89.4,0,0,1,4,28.289,85.019,85.019,0,0,1,4.6,0H1.442A88.131,88.131,0,0,0,.936,28.727,92.547,92.547,0,0,0,25,78.82C41.73,96.5,63.921,106.576,85.378,116.314c4.662,2.117,9.355,4.244,14.013,6.469Z" transform="translate(432.533 9828.514) rotate(-30)" fill="#764cf0"/>
    <g id="surface1" transform="translate(391.34 9699.912)">
      <path id="Trazado_115162" data-name="Trazado 115162" d="M28.209,288.482l-6.128-11.669L8.919,277.5a.878.878,0,0,1-.808-1.312l24.782-43.507L54.531,245,29.749,288.508A.878.878,0,0,1,28.209,288.482Zm0,0" transform="translate(-5.944 -184.504)" fill="#fd715c"/>
      <path id="Trazado_115163" data-name="Trazado 115163" d="M82.163,312.085l-6.128-11.669,21.631-37.975,10.819,6.163L83.7,312.111A.878.878,0,0,1,82.163,312.085Zm0,0" transform="translate(-59.898 -208.106)" fill="#ee5646"/>
      <path id="Trazado_115164" data-name="Trazado 115164" d="M196.225,288.482l6.127-11.669,13.162.682a.878.878,0,0,0,.809-1.312l-24.782-43.507L169.9,245l24.782,43.507A.878.878,0,0,0,196.225,288.482Zm0,0" transform="translate(-134.331 -184.504)" fill="#ee5646"/>
      <path id="Trazado_115165" data-name="Trazado 115165" d="M196.228,312.085l6.127-11.669-21.63-37.975L169.906,268.6l24.782,43.508A.878.878,0,0,0,196.228,312.085Zm0,0" transform="translate(-134.335 -208.106)" fill="#fd715c"/>
      <path id="Trazado_115166" data-name="Trazado 115166" d="M57.159,9.46l3.393-1.494a5.562,5.562,0,0,1,6.591,1.625l2.31,2.9a5.56,5.56,0,0,0,3.968,2.082l3.7.255a5.562,5.562,0,0,1,5.081,4.5l.7,3.641a5.562,5.562,0,0,0,2.546,3.689L88.6,28.6a5.561,5.561,0,0,1,2.407,6.348L89.936,38.5a5.56,5.56,0,0,0,.54,4.45l1.892,3.188a5.563,5.563,0,0,1-.819,6.739l-2.6,2.642a5.562,5.562,0,0,0-1.589,4.192l.193,3.7A5.562,5.562,0,0,1,83.7,69l-3.529,1.132A5.559,5.559,0,0,0,76.813,73.1l-1.549,3.368a5.562,5.562,0,0,1-6.011,3.155L65.6,78.984a5.565,5.565,0,0,0-4.352,1.072l-2.937,2.263a5.563,5.563,0,0,1-6.788,0l-2.936-2.263a5.565,5.565,0,0,0-4.353-1.072l-3.651.638a5.562,5.562,0,0,1-6.011-3.155L33.024,73.1a5.559,5.559,0,0,0-3.355-2.972L26.139,69a5.562,5.562,0,0,1-3.857-5.587l.193-3.7a5.562,5.562,0,0,0-1.589-4.192l-2.6-2.642a5.562,5.562,0,0,1-.818-6.739l1.892-3.188a5.563,5.563,0,0,0,.54-4.45l-1.074-3.548A5.563,5.563,0,0,1,21.234,28.6l3.156-1.943a5.562,5.562,0,0,0,2.546-3.689l.7-3.641a5.563,5.563,0,0,1,5.082-4.5l3.7-.255a5.56,5.56,0,0,0,3.968-2.082l2.31-2.9a5.563,5.563,0,0,1,6.592-1.625L52.677,9.46A5.563,5.563,0,0,0,57.159,9.46Zm0,0" transform="translate(-12.839 -5.942)" fill="#fed066"/>
      <path id="Trazado_115167" data-name="Trazado 115167" d="M57.159,9.46l3.393-1.494a5.562,5.562,0,0,1,6.591,1.625l2.31,2.9a5.56,5.56,0,0,0,3.968,2.082l3.7.255a5.562,5.562,0,0,1,5.081,4.5l.7,3.641a5.562,5.562,0,0,0,2.546,3.689L88.6,28.6a5.561,5.561,0,0,1,2.407,6.348L89.936,38.5a5.56,5.56,0,0,0,.54,4.45l1.892,3.188a5.563,5.563,0,0,1-.819,6.739l-2.6,2.642a5.562,5.562,0,0,0-1.589,4.192l.193,3.7A5.562,5.562,0,0,1,83.7,69l-3.529,1.132A5.559,5.559,0,0,0,76.813,73.1l-1.549,3.368a5.562,5.562,0,0,1-6.011,3.155L65.6,78.984a5.565,5.565,0,0,0-4.352,1.072l-2.937,2.263a5.563,5.563,0,0,1-6.788,0l-2.936-2.263a5.565,5.565,0,0,0-4.353-1.072l-3.651.638a5.562,5.562,0,0,1-6.011-3.155L33.024,73.1a5.559,5.559,0,0,0-3.355-2.972L26.139,69a5.562,5.562,0,0,1-3.857-5.587l.193-3.7a5.562,5.562,0,0,0-1.589-4.192l-2.6-2.642a5.562,5.562,0,0,1-.818-6.739l1.892-3.188a5.563,5.563,0,0,0,.54-4.45l-1.074-3.548A5.563,5.563,0,0,1,21.234,28.6l3.156-1.943a5.562,5.562,0,0,0,2.546-3.689l.7-3.641a5.563,5.563,0,0,1,5.082-4.5l3.7-.255a5.56,5.56,0,0,0,3.968-2.082l2.31-2.9a5.563,5.563,0,0,1,6.592-1.625L52.677,9.46A5.563,5.563,0,0,0,57.159,9.46Zm0,0" transform="translate(-12.839 -5.942)" fill="#fed066"/>
      <path id="Trazado_115168" data-name="Trazado 115168" d="M127.312,90.812a26.156,26.156,0,1,1-26.156-26.156A26.156,26.156,0,0,1,127.312,90.812Zm0,0" transform="translate(-59.077 -51.269)" fill="#fd715c"/>
      <path id="Trazado_115169" data-name="Trazado 115169" d="M180.856,64.656a26.239,26.239,0,0,0-5.348.548,26.161,26.161,0,0,1,0,51.215,26.158,26.158,0,1,0,5.348-51.764Zm0,0" transform="translate(-138.777 -51.269)" fill="#ee5646"/>
      <path id="Trazado_115170" data-name="Trazado 115170" d="M251.988,46.135,250.1,42.947a5.56,5.56,0,0,1-.54-4.45l1.073-3.548a5.562,5.562,0,0,0-2.407-6.348l-3.156-1.943a5.562,5.562,0,0,1-2.547-3.689l-.7-3.641a5.562,5.562,0,0,0-5.081-4.5l-3.7-.255a5.562,5.562,0,0,1-3.969-2.082l-2.31-2.9a5.562,5.562,0,0,0-6.591-1.625l-2.188.963a39.65,39.65,0,0,1,5.96,69.983,5.505,5.505,0,0,1,1.276.072l3.651.638a5.562,5.562,0,0,0,6.011-3.155l1.549-3.367a5.563,5.563,0,0,1,3.355-2.973L243.317,69a5.563,5.563,0,0,0,3.856-5.587l-.193-3.7a5.563,5.563,0,0,1,1.589-4.191l2.6-2.643A5.563,5.563,0,0,0,251.988,46.135Zm0,0" transform="translate(-172.459 -5.942)" fill="#f5b556"/>
      <path id="Trazado_115171" data-name="Trazado 115171" d="M133.559,101.865l3.783,11.643a.628.628,0,0,0,.6.434h12.242a.63.63,0,0,1,.37,1.139l-9.9,7.2a.63.63,0,0,0-.229.7l3.783,11.643a.629.629,0,0,1-.969.7l-9.9-7.2a.63.63,0,0,0-.74,0l-9.9,7.2a.629.629,0,0,1-.968-.7L125.5,122.98a.631.631,0,0,0-.228-.7l-9.9-7.2a.629.629,0,0,1,.37-1.139h12.242a.629.629,0,0,0,.6-.434l3.782-11.643A.63.63,0,0,1,133.559,101.865Zm0,0" transform="translate(-90.882 -80.43)" fill="#f2f2f2"/>
      <path id="Trazado_115172" data-name="Trazado 115172" d="M122.918,84.865a27.709,27.709,0,1,0-27.708,27.709A27.74,27.74,0,0,0,122.918,84.865Zm-27.708,24.6a24.6,24.6,0,1,1,24.6-24.6A24.632,24.632,0,0,1,95.209,109.468Zm0,0" transform="translate(-53.13 -45.322)"/>
      <path id="Trazado_115173" data-name="Trazado 115173" d="M146.315,107.953a2.176,2.176,0,0,0-2.075-1.508H132.669l-3.575-11a2.182,2.182,0,0,0-4.15,0l-3.575,11.005H109.8a2.182,2.182,0,0,0-1.283,3.947l9.361,6.8-3.575,11a2.182,2.182,0,0,0,3.358,2.44l9.361-6.8,9.361,6.8a2.182,2.182,0,0,0,3.358-2.44l-3.576-11,9.361-6.8A2.176,2.176,0,0,0,146.315,107.953Zm-12.522,7.123a2.177,2.177,0,0,0-.793,2.44l2.9,8.939-7.6-5.524a2.177,2.177,0,0,0-2.565,0l-7.6,5.524,2.9-8.94a2.177,2.177,0,0,0-.793-2.439l-7.6-5.525h9.4a2.178,2.178,0,0,0,2.075-1.507l2.9-8.94,2.9,8.94A2.178,2.178,0,0,0,132,109.551h9.4Zm0,0" transform="translate(-84.939 -74.485)"/>
      <path id="Trazado_115174" data-name="Trazado 115174" d="M83.341,90.912l-14.56-25.56,2.551-.818a7.121,7.121,0,0,0,4.933-7.147l-.193-3.7a4.017,4.017,0,0,1,1.145-3.021l2.6-2.642A7.122,7.122,0,0,0,80.864,39.4l-1.892-3.187A4.023,4.023,0,0,1,78.582,33l1.074-3.548a7.12,7.12,0,0,0-3.079-8.119l-3.156-1.944a4.017,4.017,0,0,1-1.836-2.659l-.7-3.64a7.12,7.12,0,0,0-6.5-5.759l-3.7-.254a4.017,4.017,0,0,1-2.86-1.5l-2.31-2.9A7.122,7.122,0,0,0,47.088.6L43.7,2.1h0a4.018,4.018,0,0,1-3.231,0L37.071.6a7.122,7.122,0,0,0-8.432,2.078l-2.31,2.9a4.017,4.017,0,0,1-2.861,1.5l-3.7.254a7.121,7.121,0,0,0-6.5,5.759l-.7,3.64a4.022,4.022,0,0,1-1.836,2.659L7.581,21.338A7.121,7.121,0,0,0,4.5,29.457L5.575,33a4.017,4.017,0,0,1-.389,3.207L3.295,39.4a7.12,7.12,0,0,0,1.046,8.62l2.6,2.643a4.018,4.018,0,0,1,1.145,3.021l-.193,3.7a7.122,7.122,0,0,0,4.932,7.147l2.552.818L.818,90.912a2.43,2.43,0,0,0,2.239,3.63l12.169-.63L20.89,104.7A2.43,2.43,0,0,0,23,106h.041a2.43,2.43,0,0,0,2.112-1.228L39.971,78.761a7.034,7.034,0,0,0,4.217,0L59,104.774A2.429,2.429,0,0,0,61.116,106h.042a2.428,2.428,0,0,0,2.111-1.3l5.664-10.789,12.17.63a2.431,2.431,0,0,0,2.239-3.63ZM23.066,102.166l-5.16-9.826,3.046-5.347a1.553,1.553,0,1,0-2.7-1.537L15.209,90.8l-11.083.574L18.119,66.813a4.016,4.016,0,0,1,.655.995l1.55,3.368a7.112,7.112,0,0,0,3.965,3.686l-2.426,4.26a1.553,1.553,0,1,0,2.7,1.537l3.072-5.393c.126-.015.252-.032.378-.055l3.652-.638a4.02,4.02,0,0,1,3.136.773l2.462,1.9ZM44.1,75.431l-.015.008-.024.015a4.011,4.011,0,0,1-3.958,0l-.024-.015-.014-.008a4.007,4.007,0,0,1-.429-.284L36.7,72.885a7.117,7.117,0,0,0-5.566-1.372l-3.652.638a4,4,0,0,1-.7.059l-.057,0a4.011,4.011,0,0,1-3.572-2.331L21.6,66.509a7.132,7.132,0,0,0-3.179-3.335l-.009-.006-.026-.013-.1-.05-.023-.011a7.061,7.061,0,0,0-.955-.387l-3.53-1.131a4.013,4.013,0,0,1-2.78-4.027l.193-3.7a7.131,7.131,0,0,0-2.033-5.36l-2.6-2.643a4.013,4.013,0,0,1-.59-4.858L7.857,37.8a7.133,7.133,0,0,0,.691-5.692L7.474,28.558A4.011,4.011,0,0,1,9.21,23.983l3.156-1.944a7.13,7.13,0,0,0,3.257-4.719l.7-3.64a4.014,4.014,0,0,1,3.663-3.245l3.7-.254a7.133,7.133,0,0,0,5.076-2.665l2.31-2.9A4.013,4.013,0,0,1,35.82,3.446l3.392,1.493a7.131,7.131,0,0,0,5.734,0l3.392-1.493a4.012,4.012,0,0,1,4.751,1.171l2.31,2.9a7.131,7.131,0,0,0,5.076,2.664l3.7.255a4.012,4.012,0,0,1,3.663,3.245l.7,3.641a7.134,7.134,0,0,0,3.257,4.718l3.157,1.944a4.011,4.011,0,0,1,1.735,4.575L75.61,32.106A7.132,7.132,0,0,0,76.3,37.8l1.891,3.187a4.012,4.012,0,0,1-.59,4.858L75,48.486a7.132,7.132,0,0,0-2.033,5.361l.193,3.7a4.013,4.013,0,0,1-2.779,4.027l-3.53,1.131a7.16,7.16,0,0,0-.955.387l-.023.011-.1.051-.025.013-.008,0a7.133,7.133,0,0,0-3.18,3.336l-1.549,3.368a4.01,4.01,0,0,1-3.569,2.331l-.066,0a4.013,4.013,0,0,1-.7-.06l-3.651-.638a7.133,7.133,0,0,0-5.567,1.372l-2.937,2.262A3.963,3.963,0,0,1,44.1,75.431ZM68.95,90.8l-3.072-5.392a1.553,1.553,0,1,0-2.7,1.537l3.071,5.391-5.159,9.826L46.9,77.242l2.462-1.9a4.02,4.02,0,0,1,3.137-.773l3.651.638c.126.023.253.04.379.055L59.6,80.657a1.553,1.553,0,1,0,2.7-1.537L59.87,74.862a7.114,7.114,0,0,0,3.965-3.686l1.549-3.368a4.021,4.021,0,0,1,.655-.995L80.032,91.377Zm0,0" transform="translate(0 0)"/>
    </g>
  </g>
</svg>
