<svg xmlns="http://www.w3.org/2000/svg" xmlns:xlink="http://www.w3.org/1999/xlink" width="154" height="154" viewBox="0 0 154 154">
  <defs>
    <clipPath id="clip-path">
      <rect id="Rectángulo_35319" data-name="Rectángulo 35319" width="154" height="154" transform="translate(-3718 3095)" fill="#ffd41c"/>
    </clipPath>
  </defs>
  <g id="Enmascarar_grupo_413" data-name="Enmascarar grupo 413" transform="translate(3718 -3095)" clip-path="url(#clip-path)">
    <g id="marketing" transform="translate(-3718 3095)">
      <g id="Grupo_99047" data-name="Grupo 99047">
        <g id="Grupo_99045" data-name="Grupo 99045">
          <path id="Trazado_126394" data-name="Trazado 126394" d="M77,132.894a9.35,9.35,0,1,1-9.35,9.35A9.35,9.35,0,0,1,77,132.894ZM132.894,77a9.35,9.35,0,1,1,9.35,9.35A9.35,9.35,0,0,1,132.894,77ZM2.407,77a9.35,9.35,0,1,1,9.35,9.35A9.35,9.35,0,0,1,2.407,77ZM77,2.407a9.35,9.35,0,1,1-9.35,9.35A9.35,9.35,0,0,1,77,2.407Z" fill="#ffe177" fill-rule="evenodd"/>
          <path id="Trazado_126395" data-name="Trazado 126395" d="M77,132.894a9.35,9.35,0,1,1,0,18.7Zm65.244-65.244a9.35,9.35,0,0,1,0,18.7Zm-130.487,0a9.35,9.35,0,1,1,0,18.7ZM77,21.106V2.407a9.35,9.35,0,0,1,0,18.7Z" fill="#ffd064" fill-rule="evenodd"/>
          <path id="Trazado_126396" data-name="Trazado 126396" d="M6.434,20.306A15.583,15.583,0,1,1,22.017,35.889,15.583,15.583,0,0,1,6.434,20.306ZM147.567,132.277a15.583,15.583,0,1,1-15.583-15.583,15.583,15.583,0,0,1,15.583,15.583ZM21.015,146.858A15.583,15.583,0,1,1,36.6,131.275,15.583,15.583,0,0,1,21.015,146.858ZM132.986,5.726A15.583,15.583,0,1,1,117.4,21.309,15.583,15.583,0,0,1,132.986,5.726Z" fill="#6cf5c2" fill-rule="evenodd"/>
          <path id="Trazado_126397" data-name="Trazado 126397" d="M22.017,4.723a15.583,15.583,0,0,1,0,31.166Zm110.969,1a15.583,15.583,0,1,1,0,31.166Zm14.581,126.552a15.583,15.583,0,0,1-15.583,15.583V116.694a15.583,15.583,0,0,1,15.583,15.583ZM21.015,115.692a15.583,15.583,0,1,1,0,31.166Z" fill="#00e499" fill-rule="evenodd"/>
          <circle id="Elipse_5930" data-name="Elipse 5930" cx="41.855" cy="41.855" r="41.855" transform="translate(17.792 76.292) rotate(-45)" fill="#8ac9fe"/>
          <path id="Trazado_126398" data-name="Trazado 126398" d="M77,34.431a41.861,41.861,0,0,1,0,83.722Z" fill="#60b7ff" fill-rule="evenodd"/>
        </g>
        <g id="Grupo_99046" data-name="Grupo 99046">
          <path id="Trazado_126399" data-name="Trazado 126399" d="M97.17,73.415A5.467,5.467,0,0,0,91.7,67.948c-.09,0-.827,0-.916.007V78.876c.088,0,.826.007.916.007A5.467,5.467,0,0,0,97.17,73.415Z" fill="#d1d1d6" fill-rule="evenodd"/>
          <path id="Trazado_126400" data-name="Trazado 126400" d="M97.17,73.415c0-.04,0-.081,0-.121H90.788v5.581c.088,0,.826.007.916.007A5.467,5.467,0,0,0,97.17,73.415Z" fill="#b1b1b5" fill-rule="evenodd"/>
          <path id="Trazado_126401" data-name="Trazado 126401" d="M64.507,99.43V80.4H57.643V94.346a5.094,5.094,0,0,0,5.084,5.084h1.78Z" fill="#b1b1b5" fill-rule="evenodd"/>
          <path id="Trazado_126402" data-name="Trazado 126402" d="M64.507,82.546H54.786a9.252,9.252,0,1,1,0-18.5h9.722c8.26-1.7,16.094-6.78,22.743-10.518a2.809,2.809,0,0,1,4.186,2.449V90.252a2.809,2.809,0,0,1-4.313,2.373C80.306,88.306,73.031,83.98,64.507,82.546Z" fill="#eceff1" fill-rule="evenodd"/>
          <path id="Trazado_126403" data-name="Trazado 126403" d="M64.507,82.546H54.786a9.279,9.279,0,0,1-9.252-9.252h45.9V90.252a2.809,2.809,0,0,1-4.313,2.373c-6.817-4.319-14.093-8.645-22.617-10.079Z" fill="#d1d1d6" fill-rule="evenodd"/>
          <path id="Trazado_126404" data-name="Trazado 126404" d="M91.436,67.955V55.973a2.809,2.809,0,0,0-4.186-2.449c-1.092.614-2.216,1.264-3.368,1.929V90.606c1.094.666,2.173,1.343,3.241,2.019a2.809,2.809,0,0,0,4.313-2.373v-22.3Z" fill="#fe646f" fill-rule="evenodd"/>
          <path id="Trazado_126405" data-name="Trazado 126405" d="M83.882,73.294V90.606c1.094.666,2.173,1.343,3.241,2.019a2.809,2.809,0,0,0,4.313-2.373V73.294Z" fill="#fd4755" fill-rule="evenodd"/>
          <path id="Trazado_126406" data-name="Trazado 126406" d="M64.507,80.4V64.043H54.786a9.252,9.252,0,1,0,0,18.5h9.722Z" fill="#fe646f" fill-rule="evenodd"/>
          <path id="Trazado_126407" data-name="Trazado 126407" d="M64.507,80.4V73.294H45.534a9.279,9.279,0,0,0,9.252,9.252h9.722Z" fill="#fd4755" fill-rule="evenodd"/>
        </g>
      </g>
      <path id="Trazado_126408" data-name="Trazado 126408" d="M99.19,65.786a2.412,2.412,0,0,1,0-3.4l2.724-2.728a2.407,2.407,0,1,1,3.405,3.4L102.6,65.786A2.41,2.41,0,0,1,99.19,65.786Zm5.42,5.223h3.859a2.406,2.406,0,0,1,0,4.812H104.61a2.406,2.406,0,1,1,0-4.812Zm.284,12.586a2.407,2.407,0,0,1-3.405,3.4l-2.724-2.728a2.407,2.407,0,0,1,3.405-3.4ZM60.045,94.345V84.953H62.1v12A2.685,2.685,0,0,1,60.045,94.345Zm-12.1-21.051a6.848,6.848,0,0,1,6.839-6.846H62.1V80.14H54.782A6.849,6.849,0,0,1,47.943,73.294Zm40.89-17.668a.353.353,0,0,1,.2.348V90.252a.349.349,0,0,1-.213.353.353.353,0,0,1-.411-.013c-.7-.444-1.4-.89-2.114-1.331V56.843c.724-.421,1.433-.827,2.142-1.222a.342.342,0,0,1,.4,0ZM66.912,65.941A63.728,63.728,0,0,0,81.47,59.6v26.82a54.052,54.052,0,0,0-14.557-5.85Zm27.851,7.474a3.055,3.055,0,0,1-.922,2.186V71.23A3.053,3.053,0,0,1,94.764,73.415ZM85.839,94.658a5.144,5.144,0,0,0,2.781.821,5.2,5.2,0,0,0,2.526-.658,5.149,5.149,0,0,0,2.7-4.569V80.99a7.871,7.871,0,0,0,0-15.149V55.973a5.217,5.217,0,0,0-7.775-4.546c-1.021.579-2.071,1.178-3.164,1.812-5.675,3.282-12.117,7-18.643,8.4H54.782a11.658,11.658,0,0,0,0,23.317h.454v9.392a7.5,7.5,0,0,0,7.491,7.491H64.5a2.409,2.409,0,0,0,2.412-2.406V85.515c6.811,1.718,12.855,5.3,18.927,9.143Zm59.321,37.62A13.181,13.181,0,1,1,131.979,119.1,13.2,13.2,0,0,1,145.16,132.277Zm-61.222,9.967A6.938,6.938,0,1,1,77,135.3,6.945,6.945,0,0,1,83.938,142.244Zm-46.4-65.954A39.457,39.457,0,1,0,77,36.837,39.505,39.505,0,0,0,37.543,76.291ZM21.014,144.452a13.177,13.177,0,1,1,13.181-13.177A13.2,13.2,0,0,1,21.014,144.452ZM8.841,20.306A13.174,13.174,0,1,1,22.021,33.483,13.2,13.2,0,0,1,8.841,20.306Zm61.222-8.55A6.938,6.938,0,1,1,77,18.7a6.946,6.946,0,0,1-6.938-6.944Zm62.924-3.625a13.177,13.177,0,1,1-13.181,13.178A13.2,13.2,0,0,1,132.987,8.131ZM11.749,83.944A6.944,6.944,0,1,1,18.7,77,6.955,6.955,0,0,1,11.749,83.944Zm130.5-13.887A6.944,6.944,0,1,1,135.3,77a6.954,6.954,0,0,1,6.952-6.944Zm-21.1,9.35h9.577a11.756,11.756,0,1,0,0-4.812h-9.492A44.112,44.112,0,0,0,110.2,47.048L121.948,35.5a17.974,17.974,0,1,0-3.363-3.421L106.838,43.623A44.105,44.105,0,0,0,79.412,32.091V23.264a11.761,11.761,0,1,0-4.824,0v8.826a44.036,44.036,0,0,0-26.83,11L36.209,31.337A17.963,17.963,0,1,0,32.79,34.7L44.339,46.452A44.063,44.063,0,0,0,32.762,74.594H23.27a11.756,11.756,0,1,0,0,4.812h9.577A44.047,44.047,0,0,0,43.8,105.535L32.052,117.078a17.972,17.972,0,1,0,3.363,3.42L47.163,108.96a44.105,44.105,0,0,0,27.426,11.532v10.244a11.748,11.748,0,1,0,4.824,0V120.493a44.071,44.071,0,0,0,26.83-11l11.549,11.755a17.966,17.966,0,1,0,3.419-3.365l-11.549-11.751a44,44,0,0,0,11.492-26.725Z" fill-rule="evenodd"/>
    </g>
  </g>
</svg>
