<svg xmlns="http://www.w3.org/2000/svg" xmlns:xlink="http://www.w3.org/1999/xlink" width="154" height="154" viewBox="0 0 154 154">
  <defs>
    <clipPath id="clip-path">
      <rect id="Rectángulo_35313" data-name="Rectángulo 35313" width="154" height="154" transform="translate(-3718 2224)" fill="#ffd41c"/>
    </clipPath>
  </defs>
  <g id="Enmascarar_grupo_410" data-name="Enmascarar grupo 410" transform="translate(3718 -2224)" clip-path="url(#clip-path)">
    <g id="transparencia" transform="translate(-3720.476 2221.516)">
      <g id="Grupo_99016" data-name="Grupo 99016">
        <g id="Grupo_98998" data-name="Grupo 98998">
          <path id="Trazado_126317" data-name="Trazado 126317" d="M49.673,94.378a43.571,43.571,0,0,0,11.6-1.54v.025L52.156,109.28l-8.494-15.3v-.025A43.618,43.618,0,0,0,49.673,94.378Z" fill="#f0d0b4"/>
        </g>
        <g id="Grupo_98999" data-name="Grupo 98999">
          <path id="Trazado_126318" data-name="Trazado 126318" d="M52.156,109.28l7.972,9.959a127.849,127.849,0,0,1-7.972,14.877,129.281,129.281,0,0,1-7.972-14.852Z" fill="#ef7385"/>
        </g>
        <g id="Grupo_99000" data-name="Grupo 99000">
          <path id="Trazado_126319" data-name="Trazado 126319" d="M62.687,92.466a39.019,39.019,0,0,1,5.861,1.788,130.76,130.76,0,0,1-6.731,21.136c-.546,1.291-1.093,2.583-1.689,3.85l-7.972-9.959,9.115-16.417v-.025c.472-.1.944-.248,1.416-.4Z" fill="#ed5565"/>
        </g>
        <g id="Grupo_99001" data-name="Grupo 99001">
          <path id="Trazado_126320" data-name="Trazado 126320" d="M52.156,109.28l-7.972,9.984c-.6-1.267-1.167-2.558-1.689-3.874a128.437,128.437,0,0,1-7.054-22.626c.4-.1.82-.2,1.217-.3v-.025a40.839,40.839,0,0,0,7,1.515v.025Z" fill="#ed5565"/>
        </g>
        <g id="Grupo_99002" data-name="Grupo 99002">
          <path id="Trazado_126321" data-name="Trazado 126321" d="M79.476,154.01H52.156V134.116c9.935,0,19.869-12.418,19.869-12.418l-6.01-7.5,8.494-2.434L76.2,98.2a40.571,40.571,0,0,1,16.839,23.4,41.024,41.024,0,0,1,1.341,10.382v22.03Z" fill="#b4dd7f"/>
        </g>
        <g id="Grupo_99003" data-name="Grupo 99003">
          <path id="Trazado_126322" data-name="Trazado 126322" d="M32.287,121.7s9.935,12.418,19.869,12.418V154.01H4.967V131.98a40.457,40.457,0,0,1,22.8-36.41L29.8,111.763,38.3,114.2Z" fill="#b4dd7f"/>
        </g>
        <g id="Grupo_99004" data-name="Grupo 99004">
          <path id="Trazado_126323" data-name="Trazado 126323" d="M61.818,115.389a130.761,130.761,0,0,0,6.731-21.136A39.106,39.106,0,0,1,76.2,98.2l-1.689,13.561L66.015,114.2Z" fill="#a0d468"/>
        </g>
        <g id="Grupo_99005" data-name="Grupo 99005">
          <path id="Trazado_126324" data-name="Trazado 126324" d="M66.015,114.2l6.01,7.5s-9.935,12.418-19.869,12.418a127.849,127.849,0,0,0,7.972-14.877c.6-1.267,1.142-2.558,1.689-3.85Z" fill="#a0d468"/>
        </g>
        <g id="Grupo_99006" data-name="Grupo 99006">
          <path id="Trazado_126325" data-name="Trazado 126325" d="M38.3,114.2l4.2,1.192c.522,1.316,1.093,2.608,1.689,3.874a129.282,129.282,0,0,0,7.972,14.852c-9.935,0-19.869-12.418-19.869-12.418Z" fill="#a0d468"/>
        </g>
        <g id="Grupo_99007" data-name="Grupo 99007">
          <path id="Trazado_126326" data-name="Trazado 126326" d="M35.441,92.764a128.437,128.437,0,0,0,7.054,22.626L38.3,114.2,29.8,111.763,27.767,95.57A38.807,38.807,0,0,1,35.441,92.764Z" fill="#a0d468"/>
        </g>
        <g id="Grupo_99008" data-name="Grupo 99008">
          <path id="Trazado_126327" data-name="Trazado 126327" d="M153.985,79.476v39.738a4.982,4.982,0,0,1-4.967,4.967H104.312a5,5,0,0,1-4.868-3.974,4.351,4.351,0,0,1-.1-.993V79.476a4.982,4.982,0,0,1,4.967-4.967h44.705A4.982,4.982,0,0,1,153.985,79.476Z" fill="#e6e9ed"/>
        </g>
        <g id="Grupo_99009" data-name="Grupo 99009">
          <path id="Trazado_126328" data-name="Trazado 126328" d="M149.018,4.967V40.086l-2.012.1a9.8,9.8,0,0,0-2.956-.447h-4.967V4.967Z" fill="#ef7385"/>
        </g>
        <g id="Grupo_99010" data-name="Grupo 99010">
          <path id="Trazado_126329" data-name="Trazado 126329" d="M119.214,14.9h9.935V39.738h-9.935Z" fill="#ef7385"/>
        </g>
        <g id="Grupo_99011" data-name="Grupo 99011">
          <path id="Trazado_126330" data-name="Trazado 126330" d="M99.345,24.836h9.935v14.9H99.345Z" fill="#ef7385"/>
        </g>
        <g id="Grupo_99012" data-name="Grupo 99012">
          <path id="Trazado_126331" data-name="Trazado 126331" d="M99.345,39.738h44.705a9.8,9.8,0,0,1,2.956.447,10.377,10.377,0,0,1,4.073,2.459,9.94,9.94,0,0,1-7.029,16.963H93.235a43.765,43.765,0,0,0,0-19.869Z" fill="#969faa"/>
        </g>
        <g id="Grupo_99013" data-name="Grupo 99013">
          <path id="Trazado_126332" data-name="Trazado 126332" d="M93.235,39.738a43.765,43.765,0,0,1,0,19.869A44.634,44.634,0,0,1,62.687,92.441c-.472.149-.944.3-1.416.4a43.946,43.946,0,0,1-17.609,1.118,40.839,40.839,0,0,1-7-1.515,44.7,44.7,0,1,1,56.577-52.7Z" fill="#ccd1d9"/>
        </g>
        <g id="Grupo_99014" data-name="Grupo 99014">
          <path id="Trazado_126333" data-name="Trazado 126333" d="M49.673,14.9A34.771,34.771,0,1,1,14.9,49.673,34.777,34.777,0,0,1,49.673,14.9Z" fill="#69d6f4"/>
        </g>
        <g id="Grupo_99015" data-name="Grupo 99015">
          <path id="Trazado_126334" data-name="Trazado 126334" d="M69.542,44.705V54.64l-3.676,1.341c-.1.224-.174.472-.273.7L67.232,60.2,60.2,67.232l-3.527-1.639c-.224.1-.472.174-.7.273L54.64,69.542H44.705l-1.341-3.676c-.224-.1-.472-.174-.7-.273l-3.527,1.639L32.113,60.2l1.639-3.527c-.1-.224-.174-.472-.273-.7L29.8,54.64V44.705l3.676-1.341c.1-.224.174-.472.273-.7l-1.639-3.527,7.029-7.029,3.527,1.639c.224-.1.472-.174.7-.273L44.705,29.8H54.64l1.341,3.676c.224.1.472.174.7.273L60.2,32.113l7.029,7.029-1.639,3.527c.1.224.174.472.273.7Zm-9.935,4.967a9.935,9.935,0,1,0-9.935,9.935A9.932,9.932,0,0,0,59.607,49.673Z" fill="#fcd770"/>
        </g>
      </g>
      <g id="Grupo_99017" data-name="Grupo 99017">
        <path id="Trazado_126335" data-name="Trazado 126335" d="M70.222,38.611l-9.487-9.487L57.573,30.6,56.381,27.32H42.967L41.775,30.6l-3.162-1.478-9.487,9.487L30.6,41.772,27.32,42.964V56.378L30.6,57.571l-1.478,3.162,9.487,9.487,3.162-1.478,1.192,3.283H56.378l1.192-3.281,3.162,1.478,9.487-9.487-1.478-3.162,3.283-1.192V42.967l-3.281-1.192ZM67.058,52.9l-2.044.743-1.113.531L62.853,56.7l1.393,2.983-4.562,4.562L56.7,62.856l-2.68,1.11L52.9,67.058H46.444L45.7,65.014,45.17,63.9l-2.531-1.048-2.983,1.393-4.562-4.562L36.487,56.7l-1.11-2.68L32.287,52.9V46.444l2.044-.743,1.113-.531,1.048-2.531L35.1,39.656l4.562-4.562,2.985,1.4,2.675-1.11,1.125-3.092H52.9l.743,2.044.527,1.11L56.7,36.492l2.985-1.4,4.562,4.562-1.393,2.983,1.11,2.68,3.092,1.125Z"/>
        <path id="Trazado_126336" data-name="Trazado 126336" d="M49.673,37.254A12.418,12.418,0,1,0,62.091,49.673,12.432,12.432,0,0,0,49.673,37.254Zm0,19.869a7.451,7.451,0,1,1,7.451-7.451A7.46,7.46,0,0,1,49.673,57.124Z"/>
        <path id="Trazado_126337" data-name="Trazado 126337" d="M49.673,12.418A37.254,37.254,0,1,0,86.927,49.673,37.3,37.3,0,0,0,49.673,12.418Zm0,69.542A32.287,32.287,0,1,1,81.96,49.673,32.324,32.324,0,0,1,49.673,81.96Z"/>
        <path id="Trazado_126338" data-name="Trazado 126338" d="M106.8,81.96h9.935v4.967H106.8Z"/>
        <path id="Trazado_126339" data-name="Trazado 126339" d="M121.7,81.96h24.836v4.967H121.7Z"/>
        <path id="Trazado_126340" data-name="Trazado 126340" d="M106.8,91.894h39.738v4.967H106.8Z"/>
        <path id="Trazado_126341" data-name="Trazado 126341" d="M106.8,101.829h39.738V106.8H106.8Z"/>
        <path id="Trazado_126342" data-name="Trazado 126342" d="M106.8,111.763h4.967v4.967H106.8Z"/>
        <path id="Trazado_126343" data-name="Trazado 126343" d="M116.731,111.763h29.8v4.967h-29.8Z"/>
        <path id="Trazado_126344" data-name="Trazado 126344" d="M149.018,72.025H129.149V62.091h14.9A12.375,12.375,0,0,0,151.5,39.8V2.484H136.6V37.254h-4.967V12.418h-14.9V37.254h-4.967v-14.9h-14.9v14.9H95.148A47.158,47.158,0,1,0,29.3,92.175a43.3,43.3,0,0,0-26.821,39.81v24.5H96.862v-24.5a43.3,43.3,0,0,0-26.821-39.81A47.321,47.321,0,0,0,95.148,62.091h29.034v9.935H104.312a7.46,7.46,0,0,0-7.451,7.451v39.738a7.46,7.46,0,0,0,7.451,7.451h44.705a7.46,7.46,0,0,0,7.451-7.451V79.476A7.46,7.46,0,0,0,149.018,72.025ZM141.567,7.451h4.967V37.505a12.407,12.407,0,0,0-2.484-.251h-2.484ZM121.7,17.385h4.967V37.254H121.7ZM101.829,27.32H106.8v9.935h-4.967Zm-33.04,94.308c-2.136,2.33-6.651,6.793-11.606,8.877a130.755,130.755,0,0,0,6.435-13.047l1.5-.427Zm-16.633-8.372,5.072,6.341q-2.317,4.932-5.072,9.666-2.749-4.735-5.072-9.674Zm-20.093-3.43L30.472,97.08c1.031-.447,2.084-.852,3.162-1.2a130.475,130.475,0,0,0,4.736,15.754Zm7.135,7.205,1.5.427A130.219,130.219,0,0,0,47.114,130.5c-4.947-2.089-9.458-6.542-11.591-8.872Zm26.754-5.4A130.114,130.114,0,0,0,70.24,97.718c1.133.544,2.235,1.135,3.3,1.783l-1.291,10.324ZM59.5,114.483l-4.361-5.454,7.751-13.951c.914.224,1.818.464,2.7.753A125.821,125.821,0,0,1,59.5,114.483Zm-7.342-10.317-4.1-7.386c.541.017,1.073.082,1.619.082a47.2,47.2,0,0,0,6.85-.554ZM42.04,96.186l7.133,12.843-4.356,5.447a125.5,125.5,0,0,1-6.174-18.967C39.763,95.776,40.9,96,42.04,96.186Zm-34.59,35.8A38.282,38.282,0,0,1,25.77,99.522L27.541,113.7l6.48,1.853L29.106,121.7l1.242,1.552c.4.5,9.294,11.459,19.325,13.121v15.148H22.353V121.7H17.385v29.818H7.451Zm84.443,0v19.531H81.96V121.7H76.993v29.818H54.64V136.369c10.031-1.662,18.923-12.617,19.325-13.121l1.242-1.552-4.918-6.147,6.48-1.853L78.13,102.81A38.2,38.2,0,0,1,91.894,131.985ZM49.673,91.894A42.222,42.222,0,1,1,91.894,49.673,42.269,42.269,0,0,1,49.673,91.894ZM96.213,42.222h47.837a7.451,7.451,0,0,1,0,14.9H96.213a46.953,46.953,0,0,0,.648-7.451A46.953,46.953,0,0,0,96.213,42.222ZM151.5,119.214a2.488,2.488,0,0,1-2.484,2.484H104.312a2.488,2.488,0,0,1-2.484-2.484V79.476a2.488,2.488,0,0,1,2.484-2.484h44.705a2.488,2.488,0,0,1,2.484,2.484Z"/>
      </g>
    </g>
  </g>
</svg>
