<svg xmlns="http://www.w3.org/2000/svg" xmlns:xlink="http://www.w3.org/1999/xlink" width="134" height="134" viewBox="0 0 134 134">
  <defs>
    <clipPath id="clip-path">
      <rect id="Rectángulo_35204" data-name="Rectángulo 35204" width="134" height="134" transform="translate(236 16610)" fill="#26d19e"/>
    </clipPath>
  </defs>
  <g id="Enmascarar_grupo_365" data-name="Enmascarar grupo 365" transform="translate(-236 -16610)" clip-path="url(#clip-path)">
    <g id="red-local" transform="translate(233.839 16607.826)">
      <g id="Grupo_97615" data-name="Grupo 97615">
        <g id="Grupo_97603" data-name="Grupo 97603">
          <path id="Trazado_125036" data-name="Trazado 125036" d="M12.968,125.355h17.29V134H12.968Z" fill="#aab2bd"/>
        </g>
        <g id="Grupo_97604" data-name="Grupo 97604">
          <path id="Trazado_125037" data-name="Trazado 125037" d="M60.516,125.355h17.29V134H60.516Z" fill="#aab2bd"/>
        </g>
        <g id="Grupo_97605" data-name="Grupo 97605">
          <path id="Trazado_125038" data-name="Trazado 125038" d="M108.065,125.355h17.29V134h-17.29Z" fill="#aab2bd"/>
        </g>
        <g id="Grupo_97606" data-name="Grupo 97606">
          <path id="Trazado_125039" data-name="Trazado 125039" d="M38.9,116.71v4.323a4.335,4.335,0,0,1-4.323,4.323H8.645a4.335,4.335,0,0,1-4.323-4.323V116.71Z" fill="#ccd1d9"/>
        </g>
        <g id="Grupo_97607" data-name="Grupo 97607">
          <path id="Trazado_125040" data-name="Trazado 125040" d="M86.452,116.71v4.323a4.335,4.335,0,0,1-4.323,4.323H56.194a4.335,4.335,0,0,1-4.323-4.323V116.71Z" fill="#ccd1d9"/>
        </g>
        <g id="Grupo_97608" data-name="Grupo 97608">
          <path id="Trazado_125041" data-name="Trazado 125041" d="M134,116.71v4.323a4.335,4.335,0,0,1-4.323,4.323H103.742a4.335,4.335,0,0,1-4.323-4.323V116.71Z" fill="#ccd1d9"/>
        </g>
        <g id="Grupo_97609" data-name="Grupo 97609">
          <path id="Trazado_125042" data-name="Trazado 125042" d="M38.9,103.742V116.71H4.323V103.742a4.335,4.335,0,0,1,4.323-4.323H34.581A4.335,4.335,0,0,1,38.9,103.742Z" fill="#69d6f4"/>
        </g>
        <g id="Grupo_97610" data-name="Grupo 97610">
          <path id="Trazado_125043" data-name="Trazado 125043" d="M86.452,103.742V116.71H51.871V103.742a4.335,4.335,0,0,1,4.323-4.323H82.129A4.335,4.335,0,0,1,86.452,103.742Z" fill="#69d6f4"/>
        </g>
        <g id="Grupo_97611" data-name="Grupo 97611">
          <path id="Trazado_125044" data-name="Trazado 125044" d="M134,103.742V116.71H99.419V103.742a4.335,4.335,0,0,1,4.323-4.323h25.935A4.335,4.335,0,0,1,134,103.742Z" fill="#69d6f4"/>
        </g>
        <g id="Grupo_97612" data-name="Grupo 97612">
          <path id="Trazado_125045" data-name="Trazado 125045" d="M125.355,34.581v8.645l-12.968-6.981L69.161,12.968,25.935,36.245,12.968,43.226V34.581L65.12,5.382a8.242,8.242,0,0,1,8.083,0Z" fill="#fcd770"/>
        </g>
        <g id="Grupo_97613" data-name="Grupo 97613">
          <path id="Trazado_125046" data-name="Trazado 125046" d="M112.387,36.245V82.129H25.935V36.245L69.161,12.968Z" fill="#e6e9ed"/>
        </g>
        <g id="Grupo_97614" data-name="Grupo 97614">
          <circle id="Elipse_5852" data-name="Elipse 5852" cx="4.323" cy="4.323" r="4.323" transform="translate(64.839 64.839)" fill="#ff826e"/>
        </g>
      </g>
      <g id="Grupo_97616" data-name="Grupo 97616">
        <path id="Trazado_125047" data-name="Trazado 125047" d="M129.677,127.516a6.492,6.492,0,0,0,6.484-6.484v-17.29a6.492,6.492,0,0,0-6.484-6.484H118.871V86.452a6.475,6.475,0,0,0-4.323-6.086v-40.5l12.968,6.983V33.316L74.264,3.493a10.607,10.607,0,0,0-10.206,0L10.806,33.314v13.53l12.968-6.983v40.5a6.475,6.475,0,0,0-4.323,6.086V97.258H8.645a6.492,6.492,0,0,0-6.484,6.484v17.29a6.492,6.492,0,0,0,6.484,6.484h2.161v4.323H2.161v4.323h134v-4.323h-8.645v-4.323Zm0-4.323H103.742a2.163,2.163,0,0,1-2.161-2.161v-2.161h30.258v2.161A2.163,2.163,0,0,1,129.677,123.194Zm2.161-19.452v10.806H101.581V103.742a2.163,2.163,0,0,1,2.161-2.161h25.935A2.163,2.163,0,0,1,131.839,103.742ZM15.129,35.847,66.17,7.264a6.218,6.218,0,0,1,5.982,0l51.041,28.583v3.761l-54.032-29.1-54.032,29.1ZM69.161,15.423l41.065,22.112V79.968H28.1V37.535ZM23.774,86.452a2.163,2.163,0,0,1,2.161-2.161h86.452a2.163,2.163,0,0,1,2.161,2.161V97.258H103.742a6.492,6.492,0,0,0-6.484,6.484v17.29a6.492,6.492,0,0,0,6.484,6.484H105.9v4.323H79.968v-4.323h2.161a6.492,6.492,0,0,0,6.484-6.484v-17.29a6.492,6.492,0,0,0-6.484-6.484H56.194a6.492,6.492,0,0,0-6.484,6.484v17.29a6.492,6.492,0,0,0,6.484,6.484h2.161v4.323H32.419v-4.323h2.161a6.492,6.492,0,0,0,6.484-6.484v-17.29a6.492,6.492,0,0,0-6.484-6.484H23.774Zm60.516,28.1H54.032V103.742a2.163,2.163,0,0,1,2.161-2.161H82.129a2.163,2.163,0,0,1,2.161,2.161Zm-30.258,4.323H84.29v2.161a2.163,2.163,0,0,1-2.161,2.161H56.194a2.163,2.163,0,0,1-2.161-2.161Zm21.613,8.645v4.323H62.677v-4.323Zm-67-25.935H34.581a2.163,2.163,0,0,1,2.161,2.161v10.806H6.484V103.742A2.163,2.163,0,0,1,8.645,101.581ZM6.484,121.032v-2.161H36.742v2.161a2.163,2.163,0,0,1-2.161,2.161H8.645A2.163,2.163,0,0,1,6.484,121.032Zm8.645,6.484H28.1v4.323H15.129Zm108.065,4.323H110.226v-4.323h12.968Z"/>
        <path id="Trazado_125048" data-name="Trazado 125048" d="M69.161,62.677a6.484,6.484,0,1,0,6.484,6.484A6.492,6.492,0,0,0,69.161,62.677Zm0,8.645a2.161,2.161,0,1,1,2.161-2.161A2.165,2.165,0,0,1,69.161,71.323Z"/>
        <path id="Trazado_125049" data-name="Trazado 125049" d="M58.463,58.463l3.056,3.056a10.82,10.82,0,0,1,15.282,0l3.056-3.056a15.146,15.146,0,0,0-21.395,0Z"/>
        <path id="Trazado_125050" data-name="Trazado 125050" d="M52.351,52.351l3.056,3.056a19.477,19.477,0,0,1,27.511,0l3.056-3.056A23.8,23.8,0,0,0,52.351,52.351Z"/>
        <path id="Trazado_125051" data-name="Trazado 125051" d="M49.295,49.295a28.132,28.132,0,0,1,39.735,0l3.056-3.056a32.454,32.454,0,0,0-45.847,0Z"/>
      </g>
    </g>
  </g>
</svg>
