<svg xmlns="http://www.w3.org/2000/svg" xmlns:xlink="http://www.w3.org/1999/xlink" width="400" height="352" viewBox="0 0 400 352">
  <defs>
    <clipPath id="clip-path">
      <rect id="Rectángulo_34769" data-name="Rectángulo 34769" width="400" height="352" transform="translate(-12564 -12189)" fill="#fff" stroke="#707070" stroke-width="1"/>
    </clipPath>
  </defs>
  <g id="Enmascarar_grupo_262" data-name="Enmascarar grupo 262" transform="translate(12564 12189)" clip-path="url(#clip-path)">
    <g id="Grupo_99130" data-name="Grupo 99130" transform="translate(-12355.021 -11741.242)">
      <path id="Trazado_126497" data-name="Trazado 126497" d="M129.69-207.01l-4.85,2.39-.79.39a.01.01,0,0,0-.01.01l-.22.11h-.01l-6.41,3.16-13.29,6.55-3.2,1.58-2.84,1.4h-.01l-.07.04-16.72,8.25-1.36.67L57.76-171.54l-4.67,2.3-16.52,8.15L19.8-152.82l-1.05.52-7.49,3.69-19.37,9.55-1.27.63-7.08,3.49-1.62.81-.9.44-13.64,6.72h-.01l-5.4,2.67-12.44,6.14a22.364,22.364,0,0,1-3.3,1.3h-.01c-.15.05-.3.09-.45.13a14.366,14.366,0,0,1-1.41.33,3.863,3.863,0,0,1-.49.1,21.272,21.272,0,0,1-22.84-11.53l-1.32-2.68L-86.6-143.3l-3.9-7.91-.1-.2-2.67-5.42-4.24-8.59-3.34-6.77-1.22-2.47-4.86-9.87-3.7-7.5-.15-.3-8.57-17.37-7.4-15.01-1.04-2.1v-.01l-1.58-3.2-4.96-10.06-2.67-5.41a.076.076,0,0,1-.02-.04l-2.38-4.83-.84-1.69a.037.037,0,0,1-.01-.03l-10.94-22.18-7.15-14.5-.1-.2-3.77-7.65-2.83-5.73-.76-1.55-.52-1.05-1.51-3.05a20.649,20.649,0,0,1-1.25-3.17c-.04-.1-.07-.2-.1-.29v-.01a21.788,21.788,0,0,1-.6-2.7,20.119,20.119,0,0,1-.22-2.18,21.278,21.278,0,0,1,11.85-20.15l2.95-1.46,6.38-3.14.61-.31,5.47-2.69.15-.07.26-.13h.01l.82-.42h.01l6.9-3.4.11-.05,15.18-7.49,31.88-15.73,3.3-1.63.18-.09,2.46-1.21,10.52-5.19,4.19-2.07,10.95-5.4.27-.13.51-.25,5.72-2.82L22-425.35a21.285,21.285,0,0,1,28.51,9.68l26.92,54.6,6.1,12.36,2.35,4.75,1.26,2.55.3.6v.03l.77,1.55,2.46,4.99v.01l1.67,3.38.65,1.32,2.32,4.7,1.54,3.13.21.43v.01l13.92,28.2.48.97.07.15.76,1.53,5.18,10.51v.01l7.4,15v.01l14.49,29.36A21.29,21.29,0,0,1,129.69-207.01Z" fill="#ffd41c"/>
      <g id="Grupo_99130-2" data-name="Grupo 99130">
        <path id="Trazado_126498" data-name="Trazado 126498" d="M93.43-241.15a133.274,133.274,0,0,1-13.52,58.69L57.76-171.54l-4.67,2.3-16.52,8.15L19.8-152.82l-1.05.52-7.49,3.69-19.37,9.55-1.27.63-7.08,3.49-1.62.81-.9.44-13.64,6.72h-.01l-5.4,2.67-12.44,6.14a22.364,22.364,0,0,1-3.3,1.3h-.01c-.15.05-.3.09-.45.13a14.366,14.366,0,0,1-1.41.33,3.863,3.863,0,0,1-.49.1,21.272,21.272,0,0,1-22.84-11.53l-1.32-2.68L-86.6-143.3l-3.9-7.91-.1-.2-2.67-5.42-4.24-8.59-3.34-6.77-1.22-2.47-4.86-9.87-3.7-7.5-.15-.3-8.57-17.37-7.4-15.01-1.04-2.1v-.01l-1.58-3.2-4.96-10.06-2.67-5.41a.076.076,0,0,1-.02-.04l-2.38-4.83-.84-1.69a.037.037,0,0,1-.01-.03l-10.94-22.18-7.15-14.5-.1-.2-3.77-7.65A133.824,133.824,0,0,1-40.39-374.98,133.824,133.824,0,0,1,93.43-241.15Z" fill="#21155c"/>
      </g>
      <g id="Grupo_99134" data-name="Grupo 99134">
        <g id="Grupo_99132" data-name="Grupo 99132">
          <path id="Trazado_126499" data-name="Trazado 126499" d="M112.2-381.244v91.762H-8.431v-91.762a9.837,9.837,0,0,1,9.844-9.844H102.358A9.837,9.837,0,0,1,112.2-381.244Z" fill="#e8e1fc"/>
          <path id="Trazado_126500" data-name="Trazado 126500" d="M112.2-381.244v8.818H-8.431v-8.818a9.837,9.837,0,0,1,9.844-9.844H102.358A9.837,9.837,0,0,1,112.2-381.244Z" fill="#baa6f7"/>
          <g id="Grupo_99131" data-name="Grupo 99131">
            <circle id="Elipse_5938" data-name="Elipse 5938" cx="2.992" cy="2.992" r="2.992" transform="translate(77.158 -384.152)" fill="#fcf2e9"/>
            <circle id="Elipse_5939" data-name="Elipse 5939" cx="2.992" cy="2.992" r="2.992" transform="translate(86.733 -384.152)" fill="#ffb4dc"/>
            <circle id="Elipse_5940" data-name="Elipse 5940" cx="2.992" cy="2.992" r="2.992" transform="translate(96.65 -384.152)" fill="#b8b9fd"/>
          </g>
        </g>
        <g id="Grupo_99133" data-name="Grupo 99133">
          <rect id="Rectángulo_35729" data-name="Rectángulo 35729" width="14.153" height="38.067" transform="translate(2.935 -342.471)" fill="#ffd41c"/>
          <rect id="Rectángulo_35730" data-name="Rectángulo 35730" width="14.153" height="45.388" transform="translate(31.241 -349.792)" fill="#26d19e"/>
          <rect id="Rectángulo_35731" data-name="Rectángulo 35731" width="14.153" height="52.221" transform="translate(60.524 -356.624)" fill="#8d6af2"/>
          <rect id="Rectángulo_35732" data-name="Rectángulo 35732" width="14.153" height="35.623" transform="translate(90.034 -340.026)" fill="#21155c"/>
        </g>
      </g>
      <g id="Grupo_99144" data-name="Grupo 99144">
        <g id="Grupo_99135" data-name="Grupo 99135">
          <path id="Trazado_126501" data-name="Trazado 126501" d="M35.488-253.465s16.329,13.781,12.383,22.279-22.629-2.282-22.629-2.282Z" fill="#ffd6cc"/>
          <path id="Trazado_126502" data-name="Trazado 126502" d="M23.928-232.933s16.329,13.78,12.383,22.279-22.629-2.283-22.629-2.283Z" fill="#ffd6cc"/>
          <path id="Trazado_126503" data-name="Trazado 126503" d="M12.888-213.634s16.328,13.78,12.382,22.279-22.628-2.283-22.628-2.283Z" fill="#ffd6cc"/>
          <path id="Trazado_126504" data-name="Trazado 126504" d="M.5-198.9s16.329,13.781,12.383,22.279S-9.743-178.9-9.743-178.9Z" fill="#ffd6cc"/>
        </g>
        <g id="Grupo_99143" data-name="Grupo 99143">
          <path id="Trazado_126505" data-name="Trazado 126505" d="M58.07-298.43,38.1-251.06l-8.37,19.85-1.16,2.75-7.93,18.82-1.13,2.68-7.39,17.53-1.09,2.58L5.37-173.42-9.38-138.43l-7.08,3.49-1.62.81-.9.44-13.64,6.72h-.01L-90.6-151.41l-2.67-5.42-4.24-8.59-3.34-6.77-1.22-2.47-4.86-9.87-3.7-7.5-.15-.3,47.17-111.9,16.29-38.63a5.861,5.861,0,0,1,7.67-3.12l94.61,39.89A5.849,5.849,0,0,1,58.07-298.43Z" fill="#040308"/>
          <path id="Trazado_126506" data-name="Trazado 126506" d="M-106.93-184.53l46.88-111.18,17.51-41.53,92.88,39.16L17.96-221.29l-.01.02L14.3-212.6l-.07.17L6.16-193.31l-.52,1.24-7.15,16.95-15.34,36.39-78.19-32.96v-.01l-7.03-2.96Z" fill="#26d19e"/>
          <g id="Grupo_99136" data-name="Grupo 99136">
            <path id="Trazado_126507" data-name="Trazado 126507" d="M-48.64-145.64a3.165,3.165,0,0,0-1.69-1.72l-26.25-11.06a3.149,3.149,0,0,0-4.12,1.67l-.12.31a3.12,3.12,0,0,0-.02,2.4,3.115,3.115,0,0,0,1.69,1.71l26.25,11.07a3.1,3.1,0,0,0,1.22.25,3.136,3.136,0,0,0,2.9-1.92l.13-.31A3.12,3.12,0,0,0-48.64-145.64Zm-.4,2.24-.13.3a2.724,2.724,0,0,1-3.56,1.45l-26.25-11.07a2.707,2.707,0,0,1-1.45-3.56l.12-.3a2.732,2.732,0,0,1,2.51-1.67,2.651,2.651,0,0,1,1.06.22l26.25,11.07A2.724,2.724,0,0,1-49.04-143.4Z" fill="#fcf2e9"/>
          </g>
          <g id="Grupo_99142" data-name="Grupo 99142">
            <g id="Grupo_99141" data-name="Grupo 99141">
              <g id="Grupo_99137" data-name="Grupo 99137">
                <path id="Trazado_126508" data-name="Trazado 126508" d="M-8.186-211.693a1,1,0,0,1-.391-.079L-62.227-234.2a1.018,1.018,0,0,1-.6-.714,1.018,1.018,0,0,1,.235-.9l14.418-16.074,12.749-27.626-12.013-5.022a1.017,1.017,0,0,1-.546-1.33,1.018,1.018,0,0,1,1.33-.546l12.986,5.429a1.012,1.012,0,0,1,.556.569,1.018,1.018,0,0,1-.024.794L-46.392-250.9a1.006,1.006,0,0,1-.166.253l-13.564,15.123,52.329,21.874a1.016,1.016,0,0,1,.546,1.329A1.017,1.017,0,0,1-8.186-211.693Z" fill="#fcf2e9"/>
              </g>
              <g id="Grupo_99138" data-name="Grupo 99138">
                <path id="Trazado_126509" data-name="Trazado 126509" d="M12.43-249.46-37.44-270.3l-.37-.16a1.041,1.041,0,0,0-.83.01,1.036,1.036,0,0,0-.54.62l-3.19,10.21-.01.02-.01.03-4.18,13.41a1.007,1.007,0,0,0,.58,1.24l40.45,16.91a1.088,1.088,0,0,0,.39.08,1.013,1.013,0,0,0,.77-.35L12.8-247.85a1.02,1.02,0,0,0,.23-.9A1.025,1.025,0,0,0,12.43-249.46ZM-5.43-230.17l-38.92-16.27,6.78-21.72,47.91,20.03Z" fill="#fcf2e9"/>
              </g>
              <g id="Grupo_99139" data-name="Grupo 99139">
                <path id="Trazado_126510" data-name="Trazado 126510" d="M-46.81-227.19a5.658,5.658,0,0,0-.34-.7v-.01a6.987,6.987,0,0,0-3.51-3.16,7.035,7.035,0,0,0-4.72-.28h-.01c-.25.08-.48.16-.72.26a7.078,7.078,0,0,0-3.88,3.85,7.156,7.156,0,0,0,3.83,9.33,7.142,7.142,0,0,0,2.75.55,7.083,7.083,0,0,0,2.71-.54,7.075,7.075,0,0,0,3.87-3.84A7.08,7.08,0,0,0-46.81-227.19Zm-1.89,4.67a5.107,5.107,0,0,1-6.67,2.74,5.1,5.1,0,0,1-2.74-6.67,5.049,5.049,0,0,1,2.77-2.75,4.992,4.992,0,0,1,1.93-.38,5.164,5.164,0,0,1,1.97.39,5.081,5.081,0,0,1,2.75,2.77A5.07,5.07,0,0,1-48.7-222.52Z" fill="#fcf2e9"/>
              </g>
              <g id="Grupo_99140" data-name="Grupo 99140">
                <path id="Trazado_126511" data-name="Trazado 126511" d="M-15.65-214.72v-.01a7.076,7.076,0,0,0-3.5-3.16,7.064,7.064,0,0,0-4.73-.28c-.25.08-.49.16-.73.26a7.092,7.092,0,0,0-3.87,3.85,7.148,7.148,0,0,0,3.83,9.33,7.2,7.2,0,0,0,2.74.55,7.145,7.145,0,0,0,6.59-4.38A7.064,7.064,0,0,0-15.65-214.72Zm-1.54,5.37a5.1,5.1,0,0,1-6.67,2.74,5.1,5.1,0,0,1-2.74-6.67,5.049,5.049,0,0,1,2.77-2.75,4.992,4.992,0,0,1,1.93-.38,5.164,5.164,0,0,1,1.97.39,5.113,5.113,0,0,1,2.75,2.77A5.07,5.07,0,0,1-17.19-209.35Z" fill="#fcf2e9"/>
              </g>
            </g>
            <rect id="Rectángulo_35733" data-name="Rectángulo 35733" width="74" height="17.085" rx="4.664" transform="translate(-83.405 -209.155) rotate(21.248)" fill="#ffd41c"/>
          </g>
        </g>
        <path id="Trazado_126512" data-name="Trazado 126512" d="M-90.5-151.21c9.38,4.09,20.7,8.88,20.7,8.88l-10.49,11.82L-86.6-143.3Z" fill="#ffd6cc"/>
        <path id="Trazado_126513" data-name="Trazado 126513" d="M-102.07-174.66l1.22,2.47,3.34,6.77a63.479,63.479,0,0,0,2.47-6.27v-.01a.01.01,0,0,0,.01-.01c8.05-23.61,8.78-60.39,14.97-70.23,5.99-9.56,18.25-39.11,20.01-53.77v-.02c.5-4.24.12-7.24-1.55-8.1a3.775,3.775,0,0,0-1.99-.4h-.02c-7.84.57-21.06,22.22-35.72,35.66-9.59,8.8-20.87,24.72-30.04,38.55l1.58,3.2v.01l1.04,2.1,7.4,15.01,8.57,17.37.15.3,3.7,7.5Z" fill="#ffd6cc"/>
      </g>
      <g id="Grupo_99149" data-name="Grupo 99149">
        <path id="Trazado_126514" data-name="Trazado 126514" d="M90.758-156.783a38.293,38.293,0,0,0-7.751-53.6,38.293,38.293,0,0,0-53.6,7.75,38.3,38.3,0,0,0,4.874,51.218L18.556-140.618,41.9-146.006A38.3,38.3,0,0,0,90.758-156.783Z" fill="#764cf0"/>
        <g id="Grupo_99148" data-name="Grupo 99148">
          <rect id="Rectángulo_35734" data-name="Rectángulo 35734" width="53.821" height="30.529" transform="translate(48.206 -207.706) rotate(36.772)" fill="#fcf2e9"/>
          <g id="Grupo_99145" data-name="Grupo 99145">
            <path id="Trazado_126515" data-name="Trazado 126515" d="M91.318-175.266H91.3l-31.822-2.184a.219.219,0,0,1-.192-.142L48-207.629a.222.222,0,0,1,.129-.285.221.221,0,0,1,.286.129l11.24,29.9,31.68,2.174a.22.22,0,0,1,.205.235A.22.22,0,0,1,91.318-175.266Z" fill="#040308"/>
          </g>
          <g id="Grupo_99146" data-name="Grupo 99146">
            <path id="Trazado_126516" data-name="Trazado 126516" d="M57.5-182.331h-.006l-27.567-.7a.221.221,0,0,1-.216-.227.233.233,0,0,1,.227-.216l27.568.7a.223.223,0,0,1,.216.227A.223.223,0,0,1,57.5-182.331Z" fill="#040308"/>
          </g>
          <g id="Grupo_99147" data-name="Grupo 99147">
            <path id="Trazado_126517" data-name="Trazado 126517" d="M73.043-150.812a.221.221,0,0,1-.214-.164l-6.987-25.971a.222.222,0,0,1,.156-.272.223.223,0,0,1,.271.157l6.987,25.971a.222.222,0,0,1-.156.272A.222.222,0,0,1,73.043-150.812Z" fill="#040308"/>
          </g>
        </g>
      </g>
      <g id="Grupo_99154" data-name="Grupo 99154">
        <g id="Grupo_99150" data-name="Grupo 99150">
          <rect id="Rectángulo_35736" data-name="Rectángulo 35736" width="24.148" height="24.148" rx="1.046" transform="translate(-146.508 -252.938)" fill="#8d6af2"/>
          <path id="Trazado_126518" data-name="Trazado 126518" d="M-138.111-246.28v10.534l10.136-5.764Z" fill="#fff"/>
        </g>
        <g id="Grupo_99153" data-name="Grupo 99153">
          <g id="Grupo_99151" data-name="Grupo 99151">
            <rect id="Rectángulo_35738" data-name="Rectángulo 35738" width="24.148" height="24.148" rx="1.046" transform="translate(-111.528 -280.366)" fill="#ffd41c"/>
          </g>
          <g id="Grupo_99152" data-name="Grupo 99152">
            <path id="Trazado_126519" data-name="Trazado 126519" d="M-100.846-262.392a.407.407,0,0,1-.049,0,.584.584,0,0,1-.484-.344l-3.975-8.944a.585.585,0,0,1,.3-.771.586.586,0,0,1,.771.3l3.544,7.974,8.952-13.427a.582.582,0,0,1,.809-.162.584.584,0,0,1,.162.81l-9.54,14.309A.582.582,0,0,1-100.846-262.392Z" fill="#fff"/>
          </g>
        </g>
      </g>
      <g id="Grupo_99169" data-name="Grupo 99169">
        <g id="Grupo_99155" data-name="Grupo 99155">
          <path id="Trazado_126520" data-name="Trazado 126520" d="M-169.476-363.248H-65.338a8.5,8.5,0,0,1,8.5,8.5v37.7a8.5,8.5,0,0,1-8.5,8.5H-86.832l6.985,16.066-23.207-16.066h-66.422a8.5,8.5,0,0,1-8.5-8.5v-37.7A8.5,8.5,0,0,1-169.476-363.248Z" fill="#e8e1fc"/>
        </g>
        <g id="Grupo_99168" data-name="Grupo 99168">
          <g id="Grupo_99166" data-name="Grupo 99166">
            <g id="Grupo_99156" data-name="Grupo 99156">
              <path id="Trazado_126521" data-name="Trazado 126521" d="M-161.412-312.794a.57.57,0,0,1-.57-.57v-43.747a.57.57,0,0,1,.57-.57.57.57,0,0,1,.57.57v43.747A.57.57,0,0,1-161.412-312.794Z" fill="#b8b9fd"/>
            </g>
            <g id="Grupo_99157" data-name="Grupo 99157">
              <path id="Trazado_126522" data-name="Trazado 126522" d="M-143.551-312.794a.57.57,0,0,1-.571-.57v-43.747a.57.57,0,0,1,.571-.57.57.57,0,0,1,.57.57v43.747A.57.57,0,0,1-143.551-312.794Z" fill="#b8b9fd"/>
            </g>
            <g id="Grupo_99158" data-name="Grupo 99158">
              <path id="Trazado_126523" data-name="Trazado 126523" d="M-143.551-312.794a.57.57,0,0,1-.571-.57v-43.747a.57.57,0,0,1,.571-.57.57.57,0,0,1,.57.57v43.747A.57.57,0,0,1-143.551-312.794Z" fill="#b8b9fd"/>
            </g>
            <g id="Grupo_99159" data-name="Grupo 99159">
              <path id="Trazado_126524" data-name="Trazado 126524" d="M-125.69-312.794a.57.57,0,0,1-.57-.57v-43.747a.57.57,0,0,1,.57-.57.57.57,0,0,1,.57.57v43.747A.57.57,0,0,1-125.69-312.794Z" fill="#b8b9fd"/>
            </g>
            <g id="Grupo_99160" data-name="Grupo 99160">
              <path id="Trazado_126525" data-name="Trazado 126525" d="M-125.69-312.794a.57.57,0,0,1-.57-.57v-43.747a.57.57,0,0,1,.57-.57.57.57,0,0,1,.57.57v43.747A.57.57,0,0,1-125.69-312.794Z" fill="#b8b9fd"/>
            </g>
            <g id="Grupo_99161" data-name="Grupo 99161">
              <path id="Trazado_126526" data-name="Trazado 126526" d="M-107.829-312.794a.57.57,0,0,1-.57-.57v-43.747a.57.57,0,0,1,.57-.57.57.57,0,0,1,.57.57v43.747A.57.57,0,0,1-107.829-312.794Z" fill="#b8b9fd"/>
            </g>
            <g id="Grupo_99162" data-name="Grupo 99162">
              <path id="Trazado_126527" data-name="Trazado 126527" d="M-107.829-312.794a.57.57,0,0,1-.57-.57v-43.747a.57.57,0,0,1,.57-.57.57.57,0,0,1,.57.57v43.747A.57.57,0,0,1-107.829-312.794Z" fill="#b8b9fd"/>
            </g>
            <g id="Grupo_99163" data-name="Grupo 99163">
              <path id="Trazado_126528" data-name="Trazado 126528" d="M-89.968-312.794a.57.57,0,0,1-.57-.57v-43.747a.57.57,0,0,1,.57-.57.57.57,0,0,1,.57.57v43.747A.57.57,0,0,1-89.968-312.794Z" fill="#b8b9fd"/>
            </g>
            <g id="Grupo_99164" data-name="Grupo 99164">
              <path id="Trazado_126529" data-name="Trazado 126529" d="M-89.968-312.794a.57.57,0,0,1-.57-.57v-43.747a.57.57,0,0,1,.57-.57.57.57,0,0,1,.57.57v43.747A.57.57,0,0,1-89.968-312.794Z" fill="#b8b9fd"/>
            </g>
            <g id="Grupo_99165" data-name="Grupo 99165">
              <path id="Trazado_126530" data-name="Trazado 126530" d="M-72.107-312.794a.57.57,0,0,1-.57-.57v-43.747a.57.57,0,0,1,.57-.57.57.57,0,0,1,.571.57v43.747A.57.57,0,0,1-72.107-312.794Z" fill="#b8b9fd"/>
            </g>
          </g>
          <g id="Grupo_99167" data-name="Grupo 99167">
            <path id="Trazado_126531" data-name="Trazado 126531" d="M-141.758-316.161a38.822,38.822,0,0,1-10.059-1.247c-7.192-1.926-13.214-6.257-16.523-11.882a.57.57,0,0,1,.2-.78.567.567,0,0,1,.78.2c3.159,5.369,8.931,9.508,15.836,11.358,5.779,1.548,12.508,1.609,20,.18a55.7,55.7,0,0,0,20.241-7.864,93.36,93.36,0,0,0,9.344-7.344,92.5,92.5,0,0,1,9.647-7.553,46.877,46.877,0,0,1,32.134-6.938.57.57,0,0,1,.478.649.569.569,0,0,1-.649.478,45.764,45.764,0,0,0-31.343,6.768,91.693,91.693,0,0,0-9.524,7.462,94.117,94.117,0,0,1-9.462,7.432,56.817,56.817,0,0,1-20.653,8.03A55.92,55.92,0,0,1-141.758-316.161Z" fill="#ffd484"/>
          </g>
        </g>
      </g>
      <g id="Grupo_99178" data-name="Grupo 99178">
        <g id="Grupo_99170" data-name="Grupo 99170">
          <path id="Trazado_126532" data-name="Trazado 126532" d="M-136.438-279.542l5.438,1.673-5.438,1.673-1.673,5.438-1.673-5.438-5.438-1.673,5.438-1.673,1.673-5.438Z" fill="#764cf0"/>
        </g>
        <g id="Grupo_99171" data-name="Grupo 99171">
          <path id="Trazado_126533" data-name="Trazado 126533" d="M-120.687-298.266l5.438,1.673-5.438,1.673-1.673,5.438-1.673-5.438-5.438-1.673,5.438-1.673,1.673-5.438Z" fill="#764cf0"/>
        </g>
        <g id="Grupo_99172" data-name="Grupo 99172">
          <path id="Trazado_126534" data-name="Trazado 126534" d="M-35.09-362.805l5.438,1.673-5.438,1.673-1.673,5.438-1.673-5.438-5.438-1.673,5.438-1.673,1.673-5.438Z" fill="#764cf0"/>
        </g>
        <g id="Grupo_99173" data-name="Grupo 99173">
          <path id="Trazado_126535" data-name="Trazado 126535" d="M60.926-270.375l5.438,1.673-5.438,1.673-1.673,5.438-1.673-5.438L52.142-268.7l5.438-1.673,1.673-5.438Z" fill="#764cf0"/>
        </g>
        <g id="Grupo_99174" data-name="Grupo 99174">
          <path id="Trazado_126536" data-name="Trazado 126536" d="M60.926-225.334l5.438,1.673-5.438,1.673-1.673,5.438-1.673-5.438-5.438-1.673,5.438-1.673,1.673-5.438Z" fill="#764cf0"/>
        </g>
        <g id="Grupo_99175" data-name="Grupo 99175">
          <path id="Trazado_126537" data-name="Trazado 126537" d="M11.635-159.506l2.719.836-2.719.837-.836,2.719-.836-2.719-2.719-.837,2.719-.836.836-2.719Z" fill="#764cf0"/>
        </g>
        <g id="Grupo_99176" data-name="Grupo 99176">
          <path id="Trazado_126538" data-name="Trazado 126538" d="M-61.7-128.184l3.945,1.214-3.945,1.214-1.214,3.945-1.214-3.945-3.945-1.214,3.945-1.214,1.214-3.945Z" fill="#764cf0"/>
        </g>
        <g id="Grupo_99177" data-name="Grupo 99177">
          <path id="Trazado_126539" data-name="Trazado 126539" d="M84.625-250.378l7.364,2.265-7.364,2.266-2.265,7.364-2.265-7.364-7.364-2.266,7.364-2.265,2.265-7.364Z" fill="#764cf0"/>
        </g>
      </g>
    </g>
    <rect id="Rectángulo_34576" data-name="Rectángulo 34576" width="34.698" height="34.698" rx="8" transform="matrix(0.985, 0.174, -0.174, 0.985, -12242.975, -12013)" fill="#26d19e"/>
    <circle id="Elipse_5424" data-name="Elipse 5424" cx="14.34" cy="14.34" r="14.34" transform="translate(-12410.851 -12150.68)" fill="#764cf0"/>
  </g>
</svg>
