<svg xmlns="http://www.w3.org/2000/svg" xmlns:xlink="http://www.w3.org/1999/xlink" width="85" height="85" viewBox="0 0 85 85">
  <defs>
    <clipPath id="clip-path">
      <rect id="Rect치ngulo_35698" data-name="Rect치ngulo 35698" width="67" height="67" transform="translate(189 4865)" fill="#ffd41c"/>
    </clipPath>
  </defs>
  <g id="Grupo_99204" data-name="Grupo 99204" transform="translate(-180 -7610.338)">
    <rect id="Rect치ngulo_34163" data-name="Rect치ngulo 34163" width="85" height="85" transform="translate(180 7610.338)" fill="#764cf0"/>
    <g id="Enmascarar_grupo_379" data-name="Enmascarar grupo 379" transform="translate(0 2754.338)" clip-path="url(#clip-path)">
      <g id="hombre_1_" data-name="hombre (1)" transform="translate(189 4865)">
        <path id="Trazado_125500" data-name="Trazado 125500" d="M56.038,56.124v9.895H10.962V56.124a15.3,15.3,0,0,1,15.3-15.3H40.741a15.3,15.3,0,0,1,15.3,15.3Z" fill="#80635e"/>
        <g id="Grupo_98216" data-name="Grupo 98216">
          <path id="Trazado_125501" data-name="Trazado 125501" d="M56.038,56.123v9.9H51.675v-9.9A15.252,15.252,0,0,0,50.609,50.5,2.788,2.788,0,0,0,46.33,49.33a19.137,19.137,0,0,0-2.877,2.7l2.195,4.07a1.31,1.31,0,0,1-.233,1.552l-5.568,5.5H27.166l-5.568-5.5a1.31,1.31,0,0,1-.233-1.552l2.195-4.07A23.317,23.317,0,0,0,16.69,46.9a5.117,5.117,0,0,1-1.573-1.252,15.248,15.248,0,0,1,11.141-4.817H40.742A15.3,15.3,0,0,1,56.038,56.123Z" fill="#6c524e"/>
        </g>
        <path id="Trazado_125502" data-name="Trazado 125502" d="M26.483,38l.683,21.611v6.407h12.68V59.611L40.517,38Z" fill="#fcb44d"/>
        <g id="Grupo_98230" data-name="Grupo 98230">
          <g id="Grupo_98229" data-name="Grupo 98229">
            <g id="Grupo_98228" data-name="Grupo 98228">
              <g id="Grupo_98227" data-name="Grupo 98227">
                <g id="Grupo_98226" data-name="Grupo 98226">
                  <g id="Grupo_98225" data-name="Grupo 98225">
                    <g id="Grupo_98224" data-name="Grupo 98224">
                      <g id="Grupo_98223" data-name="Grupo 98223">
                        <g id="Grupo_98222" data-name="Grupo 98222">
                          <g id="Grupo_98221" data-name="Grupo 98221">
                            <path id="Trazado_125503" data-name="Trazado 125503" d="M48.525,21.513V16.006a15.025,15.025,0,0,0-30.05,0v5.507Z" fill="#433f43"/>
                            <path id="Trazado_125504" data-name="Trazado 125504" d="M48.524,16.005v5.508H44.675V16.005a15.03,15.03,0,0,0-13.1-14.9A15.29,15.29,0,0,1,33.5.981,15.023,15.023,0,0,1,48.524,16.005Z" fill="#353435"/>
                            <g id="Grupo_98220" data-name="Grupo 98220">
                              <g id="Grupo_98219" data-name="Grupo 98219">
                                <g id="Grupo_98218" data-name="Grupo 98218">
                                  <g id="Grupo_98217" data-name="Grupo 98217">
                                    <circle id="Elipse_5886" data-name="Elipse 5886" cx="3.984" cy="3.984" r="3.984" transform="translate(42.128 19.415)" fill="#ba5d4f"/>
                                    <circle id="Elipse_5887" data-name="Elipse 5887" cx="3.984" cy="3.984" r="3.984" transform="translate(16.904 19.415)" fill="#ba5d4f"/>
                                  </g>
                                </g>
                              </g>
                            </g>
                            <path id="Trazado_125505" data-name="Trazado 125505" d="M28.906,9.857a6.79,6.79,0,0,0-6.681,5.456,11.535,11.535,0,0,0-.212,2.2v8.44a11.487,11.487,0,1,0,22.973-.144v-8.3a11.527,11.527,0,0,0-.212-2.205,6.79,6.79,0,0,0-6.681-5.456Z" fill="#c86f5c"/>
                            <path id="Trazado_125506" data-name="Trazado 125506" d="M40.517,41.132S39.07,43.755,33.5,43.755s-7.017-2.623-7.017-2.623V37.591a1.35,1.35,0,0,1,1.35-1.35H39.167a1.35,1.35,0,0,1,1.35,1.35v3.541Z" fill="#fb8627"/>
                          </g>
                        </g>
                      </g>
                    </g>
                  </g>
                </g>
              </g>
            </g>
          </g>
        </g>
        <path id="Trazado_125507" data-name="Trazado 125507" d="M50.555,41.058A17.912,17.912,0,0,0,40.517,38l-.671,21.611,5.568-5.5a1.309,1.309,0,0,0,.232-1.552l-2.194-4.071a21.126,21.126,0,0,1,6.871-5.132,1.348,1.348,0,0,0,.232-2.3Z" fill="#96756f"/>
        <path id="Trazado_125508" data-name="Trazado 125508" d="M26.483,38a17.88,17.88,0,0,0-10.026,3.057,1.348,1.348,0,0,0,.232,2.3,21.125,21.125,0,0,1,6.871,5.132L21.366,52.56a1.309,1.309,0,0,0,.232,1.552l5.568,5.5Z" fill="#96756f"/>
        <g id="Grupo_98231" data-name="Grupo 98231">
          <path id="Trazado_125509" data-name="Trazado 125509" d="M48.158,55.386a.981.981,0,0,0-.981.981v9.651a.981.981,0,0,0,1.963,0V56.368A.981.981,0,0,0,48.158,55.386Z"/>
          <path id="Trazado_125510" data-name="Trazado 125510" d="M18.842,55.386a.981.981,0,0,0-.981.981v9.651a.981.981,0,0,0,1.963,0V56.368A.981.981,0,0,0,18.842,55.386Z"/>
          <path id="Trazado_125511" data-name="Trazado 125511" d="M51.377,43.8a2.332,2.332,0,0,0-.236-3.534,18.389,18.389,0,0,0-9.712-3.232,2.328,2.328,0,0,0-.573-1.049,12.676,12.676,0,0,0,4.856-7.643c.133.011.267.018.4.018a4.961,4.961,0,0,0,3.394-8.583V16.006a15.862,15.862,0,0,0-3.037-9.383.982.982,0,0,0-1.588,1.154,13.91,13.91,0,0,1,2.662,8.23v2.639a5.987,5.987,0,0,0-1.576-.207v-.919a12.6,12.6,0,0,0-.229-2.394,7.779,7.779,0,0,0-7.645-6.249H28.907a7.779,7.779,0,0,0-7.645,6.25,12.592,12.592,0,0,0-.229,2.393v.919a5.986,5.986,0,0,0-1.578.207v-2.64A14.06,14.06,0,0,1,33.5,1.963,13.9,13.9,0,0,1,41.831,4.7.981.981,0,0,0,43,3.12,15.85,15.85,0,0,0,33.5,0,16.025,16.025,0,0,0,17.493,16.006v3.775a4.961,4.961,0,0,0,3.4,8.583c.127,0,.253-.007.378-.016a12.5,12.5,0,0,0,4.86,7.661,2.326,2.326,0,0,0-.555,1.031,20.594,20.594,0,0,0-2.157.23.982.982,0,0,0,.309,1.939c.717-.114,1.341-.172,1.811-.2l.575,18.178-3.82-3.773a.329.329,0,0,1-.058-.388l2.195-4.071a.981.981,0,0,0-.12-1.106A22.041,22.041,0,0,0,17.11,42.47a.36.36,0,0,1-.21-.3.35.35,0,0,1,.143-.325,12.834,12.834,0,0,1,2.467-1.423.981.981,0,0,0-.794-1.8,14.792,14.792,0,0,0-2.844,1.643A2.331,2.331,0,0,0,15.63,43.8a16.358,16.358,0,0,0-5.65,12.325v9.9a.981.981,0,0,0,1.963,0v-9.9a14.184,14.184,0,0,1,5.5-11.277,19.818,19.818,0,0,1,4.926,3.784L20.5,52.094a2.3,2.3,0,0,0,.406,2.716l5.277,5.212v6a.981.981,0,0,0,1.963,0V59.873l-.512-16.454A11.726,11.726,0,0,0,33.5,44.736a11.707,11.707,0,0,0,5.867-1.315l-.2,6.372a.981.981,0,0,0,1.962.061l.337-10.844a16.514,16.514,0,0,1,8.5,2.836.35.35,0,0,1,.143.325.361.361,0,0,1-.21.3,22.04,22.04,0,0,0-7.194,5.379.981.981,0,0,0-.12,1.106l2.194,4.071a.329.329,0,0,1-.058.388L40.9,57.188l.085-2.729a.981.981,0,0,0-1.962-.061l-.161,5.475v6.145a.981.981,0,0,0,1.963,0v-6L46.1,54.81a2.3,2.3,0,0,0,.406-2.716L44.644,48.63a19.809,19.809,0,0,1,4.918-3.78,14.185,14.185,0,0,1,5.494,11.273v9.9a.981.981,0,0,0,1.963,0v-9.9A16.36,16.36,0,0,0,51.377,43.8Zm-5.41-17.99V20.4c.048,0,.1,0,.145,0a3,3,0,0,1,0,6c-.054,0-.107,0-.16,0,.009-.193.015-.387.015-.581ZM20.888,26.4a3,3,0,1,1,0-6c.049,0,.1,0,.145,0v5.558q0,.219.008.438c-.051,0-.1,0-.153,0Zm7.781,15.358a4.434,4.434,0,0,1-1.112-.84l-.093-3.328a.369.369,0,0,1,.369-.369h.835Zm3.85.984a11.817,11.817,0,0,1-1.887-.263V37.222h1.887Zm3.85-.267a11.758,11.758,0,0,1-1.887.266V37.222h1.887Zm3.076-1.559a4.479,4.479,0,0,1-1.113.835V37.223h.835a.369.369,0,0,1,.369.369ZM38.41,35.26H28.55A10.919,10.919,0,0,1,23,25.959V17.519a10.616,10.616,0,0,1,.192-2.018,5.813,5.813,0,0,1,5.718-4.662h9.186A5.813,5.813,0,0,1,43.811,15.5,10.622,10.622,0,0,1,44,17.519v8.3A11.093,11.093,0,0,1,38.41,35.26Z"/>
          <path id="Trazado_125512" data-name="Trazado 125512" d="M30.965,30.74a3.842,3.842,0,0,0,4.828,0,.981.981,0,1,0-1.27-1.5,1.885,1.885,0,0,1-2.288,0,.981.981,0,1,0-1.27,1.5Z"/>
          <path id="Trazado_125513" data-name="Trazado 125513" d="M38.561,23.4h.006a.981.981,0,0,0,.006-1.963h-.017a.981.981,0,0,0,.005,1.963Z"/>
          <path id="Trazado_125514" data-name="Trazado 125514" d="M28.444,23.4a.981.981,0,0,0,0-1.963h-.011a.981.981,0,1,0,.011,1.963Z"/>
          <path id="Trazado_125515" data-name="Trazado 125515" d="M33.2,27.673a.982.982,0,0,0,.359-1.93.4.4,0,0,1-.327-.459l.524-3.5a.981.981,0,1,0-1.941-.29l-.524,3.5a2.36,2.36,0,0,0,1.91,2.679Z"/>
        </g>
      </g>
    </g>
  </g>
</svg>
