<svg xmlns="http://www.w3.org/2000/svg" xmlns:xlink="http://www.w3.org/1999/xlink" width="85" height="85" viewBox="0 0 85 85">
  <defs>
    <clipPath id="clip-path">
      <rect id="Rect치ngulo_35233" data-name="Rect치ngulo 35233" width="55" height="55" transform="translate(195 6114)" fill="#26d19e"/>
    </clipPath>
  </defs>
  <g id="Grupo_95340" data-name="Grupo 95340" transform="translate(-180 -6099)">
    <rect id="Rect치ngulo_34178" data-name="Rect치ngulo 34178" width="85" height="85" transform="translate(180 6099)" fill="none"/>
    <g id="Enmascarar_grupo_375" data-name="Enmascarar grupo 375" clip-path="url(#clip-path)">
      <g id="informacion-personal" transform="translate(195 6114)">
        <g id="Grupo_98058" data-name="Grupo 98058">
          <path id="Trazado_125319" data-name="Trazado 125319" d="M39.048,50.972H34.792l-4.875-9.8L46.03,44.526v3.223Z" fill="#a2abb8"/>
          <path id="Trazado_125320" data-name="Trazado 125320" d="M39.048,50.972h5.371A1.616,1.616,0,0,0,46.03,49.36V47.749H39.048Z" fill="#c8d2dc"/>
          <path id="Trazado_125321" data-name="Trazado 125321" d="M42.808,5.822h6.445a1.616,1.616,0,0,1,1.611,1.611V42.915a1.616,1.616,0,0,1-1.611,1.611H21.86a1.616,1.616,0,0,1-1.611-1.611V31.421Z" fill="#e9edf1"/>
          <path id="Trazado_125322" data-name="Trazado 125322" d="M21.86,5.822H42.808V35.628A1.616,1.616,0,0,1,41.2,37.24H36.9v7.287H33.677L20.249,7.434A1.616,1.616,0,0,1,21.86,5.822Z" fill="#c8d2dc"/>
          <path id="Trazado_125323" data-name="Trazado 125323" d="M5.747,10.656a1.616,1.616,0,0,0-1.611,1.611V53.35a.847.847,0,0,0,.844.844H33.907a.847.847,0,0,0,.844-.844v-1.3Z" fill="#ffd064"/>
          <path id="Trazado_125324" data-name="Trazado 125324" d="M11.655,10.656H5.747V51.279a.769.769,0,0,0,.767.767H34.751V35.181Z" fill="#fff0af"/>
          <path id="Trazado_125325" data-name="Trazado 125325" d="M33.14,10.656H11.655V33.569a1.616,1.616,0,0,0,1.611,1.611H34.751V12.268A1.616,1.616,0,0,0,33.14,10.656Z" fill="#ffd064"/>
          <path id="Trazado_125326" data-name="Trazado 125326" d="M39.585,33.032H15.415A1.616,1.616,0,0,1,13.8,31.421v-29A1.616,1.616,0,0,1,15.415.806h24.17A1.616,1.616,0,0,1,41.2,2.417v29A1.616,1.616,0,0,1,39.585,33.032Z" fill="#dce7ef"/>
          <path id="Trazado_125327" data-name="Trazado 125327" d="M30.988,20.415c-.979.713-6,.713-6.976,0-1.709,2.3-6.985,1.049-6.985,6.6v2.8H37.974v-2.8c0-5.547-5.277-4.293-6.986-6.6Z" fill="#81a9c8"/>
          <path id="Trazado_125328" data-name="Trazado 125328" d="M30.988,20.415a2.917,2.917,0,0,1-.528-1.806H24.54a2.916,2.916,0,0,1-.528,1.806,5.929,5.929,0,0,0,6.976,0Z" fill="#4980ac"/>
          <path id="Trazado_125329" data-name="Trazado 125329" d="M33.434,10.145a5.934,5.934,0,1,0-11.868,0v3.322a5.934,5.934,0,1,0,11.868,0Z" fill="#81a9c8"/>
        </g>
        <g id="Grupo_98059" data-name="Grupo 98059">
          <path id="Trazado_125330" data-name="Trazado 125330" d="M33.14,55H5.747A2.42,2.42,0,0,1,3.33,52.583V12.268A2.42,2.42,0,0,1,5.747,9.851h4.631a.806.806,0,0,1,0,1.611H5.747a.807.807,0,0,0-.806.806V52.583a.807.807,0,0,0,.806.806H33.14a.807.807,0,0,0,.806-.806V33.838H15.415A2.42,2.42,0,0,1,13,31.421v-29A2.42,2.42,0,0,1,15.415,0h24.17A2.42,2.42,0,0,1,42,2.417v8.057a.806.806,0,0,1-1.611,0V2.417a.807.807,0,0,0-.806-.806H15.415a.807.807,0,0,0-.806.806v29a.807.807,0,0,0,.806.806h24.17a.807.807,0,0,0,.806-.806V13.7a.806.806,0,0,1,.806-.806H46.03a.806.806,0,0,1,0,1.611H42v3.223H46.03a.806.806,0,0,1,0,1.611H42v3.223H46.03a.806.806,0,0,1,0,1.611H42v3.223H46.03a.806.806,0,0,1,0,1.611H42v2.417a2.407,2.407,0,0,1-.138.806H46.03a.806.806,0,0,1,0,1.611H35.557v3.223H46.03a.806.806,0,0,1,0,1.611H35.557v5.049h13.7a.807.807,0,0,0,.806-.806V7.434a.807.807,0,0,0-.806-.806H44.419a.806.806,0,0,1,0-1.611h4.834A2.42,2.42,0,0,1,51.67,7.434V42.915a2.42,2.42,0,0,1-2.417,2.417h-13.7v4.834h8.862a.807.807,0,0,0,.806-.806V47.749a.806.806,0,0,1,1.611,0V49.36a2.42,2.42,0,0,1-2.417,2.417H35.557v.806A2.42,2.42,0,0,1,33.14,55Zm4.834-24.385H17.026a.806.806,0,0,1-.806-.806v-2.8c0-4.14,2.737-5.087,4.736-5.779,1.649-.571,2.586-.955,2.751-2.2a6.738,6.738,0,0,1-2.947-5.569V10.145a6.74,6.74,0,0,1,13.48,0v3.322a6.738,6.738,0,0,1-2.947,5.569c.165,1.241,1.1,1.625,2.751,2.2,2,.692,4.736,1.639,4.736,5.779v2.8a.806.806,0,0,1-.806.806ZM17.832,29H37.168V27.011c0-2.992-1.692-3.578-3.651-4.256-1.447-.5-3.191-1.1-3.71-2.955a6.746,6.746,0,0,1-4.614,0c-.518,1.85-2.263,2.454-3.71,2.955-1.959.678-3.651,1.264-3.651,4.256ZM27.5,5.017a5.134,5.134,0,0,0-5.128,5.128v3.322a5.128,5.128,0,0,0,10.257,0V10.145A5.134,5.134,0,0,0,27.5,5.017Z"/>
        </g>
      </g>
    </g>
  </g>
</svg>
