<svg xmlns="http://www.w3.org/2000/svg" xmlns:xlink="http://www.w3.org/1999/xlink" width="85" height="85" viewBox="0 0 85 85">
  <defs>
    <clipPath id="clip-path">
      <rect id="Rect치ngulo_34179" data-name="Rect치ngulo 34179" width="67" height="67" transform="translate(189 4865)" fill="#ffd41c"/>
    </clipPath>
  </defs>
  <g id="Grupo_99207" data-name="Grupo 99207" transform="translate(-495 -10319.338)">
    <rect id="Rect치ngulo_34163" data-name="Rect치ngulo 34163" width="85" height="85" transform="translate(495 10319.338)" fill="#764cf0"/>
    <g id="Enmascarar_grupo_99" data-name="Enmascarar grupo 99" transform="translate(315 5463.338)" clip-path="url(#clip-path)">
      <g id="ganador" transform="translate(189 4865)">
        <g id="Grupo_91401" data-name="Grupo 91401">
          <path id="Trazado_115229" data-name="Trazado 115229" d="M39.917,26.942A2.079,2.079,0,0,0,41.692,24.6l-.8-5.7,3.95-4.166a2.082,2.082,0,0,0-1.064-3.572l-5.661-1-2.8-5.151a2.076,2.076,0,0,0-3.654.016l-2.7,5.074-5.7,1.06a2.078,2.078,0,0,0-1.187,3.5L26.067,18.8l-.743,5.668a2.082,2.082,0,0,0,2.951,2.291l5.166-2.515,5.3,2.523A2.074,2.074,0,0,0,39.917,26.942Z" fill="#ffc144" fill-rule="evenodd"/>
          <path id="Trazado_115230" data-name="Trazado 115230" d="M40.043,34.285H26.957A2.625,2.625,0,0,0,24.34,36.9V65.692H42.66V36.9a2.625,2.625,0,0,0-2.617-2.617Z" fill="#b278d3" fill-rule="evenodd"/>
          <g id="Grupo_91400" data-name="Grupo 91400">
            <path id="Trazado_115231" data-name="Trazado 115231" d="M24.34,65.691V39.52H8.637A2.625,2.625,0,0,0,6.02,42.137V65.691H24.34Z" fill="#d1aee5" fill-rule="evenodd"/>
            <path id="Trazado_115232" data-name="Trazado 115232" d="M42.66,44.754V65.691H60.98V47.371a2.625,2.625,0,0,0-2.617-2.617Z" fill="#d1aee5" fill-rule="evenodd"/>
          </g>
        </g>
        <g id="Grupo_91402" data-name="Grupo 91402">
          <path id="Trazado_115233" data-name="Trazado 115233" d="M58.363,43.445H43.969V36.9a3.93,3.93,0,0,0-3.926-3.926H26.957A3.93,3.93,0,0,0,23.031,36.9v1.309H8.637a3.93,3.93,0,0,0-3.926,3.926V65.691A1.309,1.309,0,0,0,6.02,67H60.98a1.309,1.309,0,0,0,1.309-1.309V47.371a3.93,3.93,0,0,0-3.926-3.926ZM41.352,64.383h-15.7V61.111a1.309,1.309,0,0,0-2.617,0v3.272H7.328V42.137a1.31,1.31,0,0,1,1.309-1.309H23.031v8.506a1.309,1.309,0,1,0,2.617,0V36.9a1.31,1.31,0,0,1,1.309-1.309H40.043A1.31,1.31,0,0,1,41.352,36.9Zm18.32,0h-15.7V46.063H58.363a1.31,1.31,0,0,1,1.309,1.309Z"/>
          <path id="Trazado_115234" data-name="Trazado 115234" d="M55.095,52.605a3.911,3.911,0,0,0-6.887-2.553,1.309,1.309,0,0,0,1.99,1.7,1.3,1.3,0,1,1,1.888,1.79,1.309,1.309,0,0,0,.182,2.014,1.966,1.966,0,0,1-1.087,3.592,1.919,1.919,0,0,1-1.18-.4,1.309,1.309,0,1,0-1.6,2.074,4.514,4.514,0,0,0,2.776.944,4.583,4.583,0,0,0,3.537-7.475,3.921,3.921,0,0,0,.376-1.685Z"/>
          <path id="Trazado_115235" data-name="Trazado 115235" d="M17.8,53.914H14.643c.288-.265.649-.549,1.071-.874,1.5-1.155,3.359-2.592,3.391-5.3a4.193,4.193,0,0,0-3.092-4.175,3.807,3.807,0,0,0-4.379,2.044,1.309,1.309,0,0,0,2.312,1.226,1.2,1.2,0,0,1,1.42-.735,1.563,1.563,0,0,1,1.122,1.609c-.016,1.343-.907,2.126-2.372,3.257-1.341,1.035-2.862,2.208-2.862,4.255a1.309,1.309,0,0,0,1.309,1.309H17.8a1.309,1.309,0,0,0,0-2.617Z"/>
          <path id="Trazado_115236" data-name="Trazado 115236" d="M34.951,48.68h-.142V39.52a1.309,1.309,0,0,0-1.963-1.133l-1.451.838a1.309,1.309,0,0,0,.8,2.434V48.68h-.142a1.309,1.309,0,1,0,0,2.617h2.9a1.309,1.309,0,0,0,0-2.617Z"/>
          <path id="Trazado_115237" data-name="Trazado 115237" d="M24.687,19.25l-.656,5a3.359,3.359,0,0,0,.283,2.115,3.391,3.391,0,0,0,4.533,1.564l4.6-2.239,4.726,2.252a3.391,3.391,0,0,0,4.814-3.527l-.709-5.072,3.492-3.683A3.391,3.391,0,0,0,44.01,9.874l-5.041-.893-2.5-4.6h0a3.384,3.384,0,0,0-5.959.026L28.1,8.928l-5.064.941a3.387,3.387,0,0,0-1.909,5.694Zm-1.649-6.591a.763.763,0,0,1,.417-.206l.044-.007,5.7-1.06a1.309,1.309,0,0,0,.916-.671l2.7-5.074a.767.767,0,0,1,1.35-.006l2.8,5.15a1.308,1.308,0,0,0,.922.664l5.665,1a.773.773,0,0,1,.4,1.327q-.029.027-.057.056L39.946,18a1.308,1.308,0,0,0-.346,1.081l.8,5.695a.776.776,0,0,1-1.1.8L34,23.058a1.308,1.308,0,0,0-1.135,0L27.7,25.578a.774.774,0,0,1-1.034-.357.766.766,0,0,1-.062-.493q.01-.047.016-.094l.743-5.668a1.309,1.309,0,0,0-.355-1.078l-3.992-4.14a.769.769,0,0,1,.021-1.088Z"/>
          <path id="Trazado_115238" data-name="Trazado 115238" d="M13.021,2.442l5.166,2.982a1.309,1.309,0,1,0,1.309-2.266L14.329.176a1.309,1.309,0,1,0-1.309,2.266Z"/>
          <path id="Trazado_115239" data-name="Trazado 115239" d="M9.244,18.13a1.341,1.341,0,0,0,.19-.014l5.9-.859a1.309,1.309,0,0,0-.377-2.59l-5.9.859a1.309,1.309,0,0,0,.187,2.6Z"/>
          <path id="Trazado_115240" data-name="Trazado 115240" d="M18.236,26.093,14.018,30.31a1.309,1.309,0,1,0,1.851,1.851l4.218-4.218a1.309,1.309,0,0,0-1.851-1.851Z"/>
          <path id="Trazado_115241" data-name="Trazado 115241" d="M48.161,5.6a1.3,1.3,0,0,0,.653-.176l5.166-2.982A1.309,1.309,0,1,0,52.671.176L47.505,3.158A1.309,1.309,0,0,0,48.161,5.6Z"/>
          <path id="Trazado_115242" data-name="Trazado 115242" d="M50.556,15.774a1.309,1.309,0,0,0,1.107,1.483l5.9.859a1.309,1.309,0,0,0,.377-2.59l-5.9-.859a1.309,1.309,0,0,0-1.483,1.107Z"/>
          <path id="Trazado_115243" data-name="Trazado 115243" d="M46.914,26.093a1.309,1.309,0,0,0,0,1.851l4.218,4.218a1.309,1.309,0,1,0,1.851-1.851l-4.218-4.218a1.309,1.309,0,0,0-1.851,0Z"/>
          <path id="Trazado_115244" data-name="Trazado 115244" d="M24.34,53.914a1.309,1.309,0,1,0,1.309,1.309h0A1.308,1.308,0,0,0,24.34,53.914Z"/>
        </g>
      </g>
    </g>
  </g>
</svg>
