<svg xmlns="http://www.w3.org/2000/svg" xmlns:xlink="http://www.w3.org/1999/xlink" width="190" height="143.104" viewBox="0 0 190 143.104">
  <defs>
    <clipPath id="clip-path">
      <rect id="Rectángulo_35686" data-name="Rectángulo 35686" width="101" height="101" transform="translate(225 434)" fill="#764cf0" stroke="#707070" stroke-width="1"/>
    </clipPath>
  </defs>
  <g id="Grupo_95229" data-name="Grupo 95229" transform="translate(-180 -407.896)">
    <rect id="Rectángulo_33975" data-name="Rectángulo 33975" width="190" height="134" transform="translate(180 417)" fill="none"/>
    <rect id="Rectángulo_35691" data-name="Rectángulo 35691" width="98.789" height="100.95" rx="17" transform="matrix(0.799, 0.602, -0.602, 0.799, 247.104, 407.896)" fill="#fff1b3"/>
    <g id="Enmascarar_grupo_371" data-name="Enmascarar grupo 371" clip-path="url(#clip-path)">
      <g id="segmentacion" transform="translate(223.371 432.371)">
        <g id="Grupo_98008" data-name="Grupo 98008">
          <g id="Grupo_97990" data-name="Grupo 97990">
            <path id="Trazado_125242" data-name="Trazado 125242" d="M50.5,48.871h3.258L55.7,60.242v.016l-1.336,2.427a19.141,19.141,0,0,0-4.871-.766l-.929-1.662v-.016Z" fill="#ff826e"/>
          </g>
          <g id="Grupo_97991" data-name="Grupo 97991">
            <path id="Trazado_125243" data-name="Trazado 125243" d="M63.858,45.287,55.7,60.242,53.758,48.871l4.887-4.887Z" fill="#fcd770"/>
          </g>
          <g id="Grupo_97992" data-name="Grupo 97992">
            <path id="Trazado_125244" data-name="Trazado 125244" d="M50.5,48.871,48.561,60.242,40.4,45.287l5.213-1.3Z" fill="#fcd770"/>
          </g>
          <g id="Grupo_97993" data-name="Grupo 97993">
            <path id="Trazado_125245" data-name="Trazado 125245" d="M74.952,66.79H61.805a19.391,19.391,0,0,0-7.445-4.105L55.7,60.258v-.016l8.161-14.955,3.747.929a12.143,12.143,0,0,1,2.264.831A16.264,16.264,0,0,0,74.952,66.79Z" fill="#4fc1e9"/>
          </g>
          <g id="Grupo_97994" data-name="Grupo 97994">
            <path id="Trazado_125246" data-name="Trazado 125246" d="M48.561,60.258l.929,1.662c-.212-.016-.407-.016-.619-.016A19.455,19.455,0,0,0,35.936,66.79H29.323a16.281,16.281,0,0,0,5.066-19.744,12.143,12.143,0,0,1,2.264-.831l3.747-.929,8.161,14.955Z" fill="#4fc1e9"/>
          </g>
          <g id="Grupo_97995" data-name="Grupo 97995">
            <path id="Trazado_125247" data-name="Trazado 125247" d="M84.71,53.758H101a16.3,16.3,0,0,1-16.29,16.29Z" fill="#5cd6b3"/>
          </g>
          <g id="Grupo_97996" data-name="Grupo 97996">
            <path id="Trazado_125248" data-name="Trazado 125248" d="M101,53.758H84.71L76.793,39.52a16.272,16.272,0,0,1,7.917-2.053,15.8,15.8,0,0,1,4.415.619A16.277,16.277,0,0,1,101,53.758Z" fill="#ff826e"/>
          </g>
          <g id="Grupo_97997" data-name="Grupo 97997">
            <path id="Trazado_125249" data-name="Trazado 125249" d="M84.71,53.758v16.29a16.285,16.285,0,0,1-14.84-23,16.416,16.416,0,0,1,6.923-7.526Z" fill="#fcd770"/>
          </g>
          <g id="Grupo_97998" data-name="Grupo 97998">
            <path id="Trazado_125250" data-name="Trazado 125250" d="M61.805,66.79A19.56,19.56,0,1,1,48.871,61.9c.212,0,.407,0,.619.016a19.14,19.14,0,0,1,4.871.766A19.391,19.391,0,0,1,61.805,66.79Z" fill="#ccd1d9"/>
          </g>
          <g id="Grupo_97999" data-name="Grupo 97999">
            <path id="Trazado_125251" data-name="Trazado 125251" d="M61.9,81.452A13.032,13.032,0,1,1,48.871,68.419,13.029,13.029,0,0,1,61.9,81.452Z" fill="#e6e9ed"/>
          </g>
          <g id="Grupo_98000" data-name="Grupo 98000">
            <path id="Trazado_125252" data-name="Trazado 125252" d="M84.71,81.452,89.6,74.935h9.774l-3.258,6.516,3.258,6.516H89.6Z" fill="#cf9e76"/>
          </g>
          <g id="Grupo_98001" data-name="Grupo 98001">
            <circle id="Elipse_5868" data-name="Elipse 5868" cx="6.516" cy="6.516" r="6.516" transform="translate(42.355 74.935)" fill="#ff826e"/>
          </g>
          <g id="Grupo_98002" data-name="Grupo 98002">
            <path id="Trazado_125253" data-name="Trazado 125253" d="M34.389,47.046A16.29,16.29,0,1,1,18.6,37.5c.31-.016.619-.033.945-.033a16.284,16.284,0,0,1,14.84,9.579Z" fill="#fcd770"/>
          </g>
          <g id="Grupo_98003" data-name="Grupo 98003">
            <path id="Trazado_125254" data-name="Trazado 125254" d="M63.532,19.548h-5.75a30.747,30.747,0,0,1-13.8-3.258,5.886,5.886,0,0,0-3.258,5.278v1.238H39.1a4.883,4.883,0,0,0-3.763,1.759l-.684-2.085a8.349,8.349,0,0,1-.44-2.672,7.451,7.451,0,0,1,.114-1.352,8.428,8.428,0,0,1,2.362-4.643l.782-.782a9.789,9.789,0,0,1,9.774-9.774H57.847a5.68,5.68,0,0,1,5.685,5.685,6.366,6.366,0,0,1-.049.8l1.287.652a9.535,9.535,0,0,1,5,6.223,9.881,9.881,0,0,1,.277,2.313,9.507,9.507,0,0,1-1.01,4.268l-.489.977a4.861,4.861,0,0,0-3.388-1.368H63.532Z" fill="#656d78"/>
          </g>
          <g id="Grupo_98004" data-name="Grupo 98004">
            <path id="Trazado_125255" data-name="Trazado 125255" d="M68.55,24.175a4.888,4.888,0,0,1-3.388,8.406h-2.1a11.254,11.254,0,0,0,.472-3.258V22.806h1.629a4.861,4.861,0,0,1,3.388,1.368Z" fill="#f0d0b4"/>
          </g>
          <g id="Grupo_98005" data-name="Grupo 98005">
            <path id="Trazado_125256" data-name="Trazado 125256" d="M47.1,39.553a11.388,11.388,0,0,0,10.067,0l1.482,4.431-4.887,4.887H50.5l-4.887-4.887Z" fill="#f0d0b4"/>
          </g>
          <g id="Grupo_98006" data-name="Grupo 98006">
            <path id="Trazado_125257" data-name="Trazado 125257" d="M63.532,22.806v6.516a11.37,11.37,0,0,1-3.34,8.064A11.409,11.409,0,0,1,41.2,32.581a11.254,11.254,0,0,1-.472-3.258V21.568a5.886,5.886,0,0,1,3.258-5.278,30.747,30.747,0,0,0,13.8,3.258h5.75Z" fill="#f0d0b4"/>
          </g>
          <g id="Grupo_98007" data-name="Grupo 98007">
            <path id="Trazado_125258" data-name="Trazado 125258" d="M41.2,32.581H39.1a4.887,4.887,0,1,1,0-9.774h1.629v6.516a11.254,11.254,0,0,0,.472,3.258Z" fill="#f0d0b4"/>
          </g>
        </g>
        <g id="Grupo_98009" data-name="Grupo 98009">
          <path id="Trazado_125259" data-name="Trazado 125259" d="M21.594,45.613h-.417V42.355H17.919v3.258H17.5a4.47,4.47,0,0,0-1.414,8.71l5.891,1.963a1.211,1.211,0,0,1-.384,2.359H17.5a1.211,1.211,0,0,1-1.21-1.212V55.387H13.032v2.046A4.475,4.475,0,0,0,17.5,61.9h.417v3.258h3.258V61.9h.417a4.47,4.47,0,0,0,1.414-8.71L17.118,51.23a1.211,1.211,0,0,1,.384-2.359H21.6a1.211,1.211,0,0,1,1.21,1.212V50.5h3.258v-.417a4.475,4.475,0,0,0-4.47-4.47Z"/>
          <path id="Trazado_125260" data-name="Trazado 125260" d="M88.782,73.306,83.9,79.823H69.965a21.049,21.049,0,0,0-4.437-11.4h8.911a17.907,17.907,0,1,0,15.9-31.663A39.358,39.358,0,0,0,71.127,15.5a11.086,11.086,0,0,0-5.62-6.558l-.362-.181a7.31,7.31,0,0,0-7.293-7.129H47.242A11.418,11.418,0,0,0,35.86,12.337l-.318.319a10.029,10.029,0,0,0-2.683,4.827A39.287,39.287,0,0,0,17.486,35.969a17.912,17.912,0,1,0,12.333,32.45h2.395A21.159,21.159,0,1,0,69.965,83.081H83.9L88.782,89.6h13.224l-4.073-8.145,4.073-8.145ZM35.358,65.161h-2a17.8,17.8,0,0,0,3.131-17.186c.186-.059.37-.124.56-.171l2.522-.63L46.779,60.38a21.074,21.074,0,0,0-11.421,4.781ZM56.514,55.35l-1.008-5.923,3.639-3.639,2.274.569ZM52.129,39.1a9.784,9.784,0,0,1-9.774-9.774V21.562a4.24,4.24,0,0,1,1.717-3.421,32.656,32.656,0,0,0,13.713,3.037H61.9v8.145A9.784,9.784,0,0,1,52.129,39.1Zm0,3.258a13,13,0,0,0,4.04-.648l.613,1.838-3.7,3.7H51.174l-3.7-3.7.613-1.838a13,13,0,0,0,4.04.648Zm-7.016,3.432,3.639,3.639-1.008,5.922-4.905-8.992Zm5.363,14.568-.212-.389L51.875,50.5h.508L54,59.968l-.459.841A21.064,21.064,0,0,0,50.476,60.356Zm14.21-13.182,2.522.63c.189.047.373.112.559.171A17.8,17.8,0,0,0,70.9,65.161H62.384A21.182,21.182,0,0,0,56.71,61.8Zm11.534-5.345L83.081,54.18V68.323a14.641,14.641,0,0,1-6.861-26.495Zm10.12,26.495V55.387H99.275A14.683,14.683,0,0,1,86.339,68.323ZM99.275,52.129H85.668l-6.609-11.9a14.651,14.651,0,0,1,20.216,11.9Zm-12.8-16.2c-.582-.057-1.171-.09-1.769-.09A17.922,17.922,0,0,0,69.1,44.981c-.365-.125-.733-.244-1.108-.337l-8.09-2.022L59.131,40.3a13.1,13.1,0,0,0,5.07-6.084h.961a6.5,6.5,0,0,0,5.32-10.256l.016-.034a11.2,11.2,0,0,0,1.148-4.451A36.152,36.152,0,0,1,86.479,35.928ZM65.161,29.323V24.435a3.258,3.258,0,0,1,0,6.516h-.112A13.109,13.109,0,0,0,65.161,29.323ZM37.844,14.959,39.1,13.707v-.674a8.154,8.154,0,0,1,8.145-8.145h10.61a4.051,4.051,0,0,1,1.282,7.894l-1,.334,1.03,3.09,1-.334a7.29,7.29,0,0,0,4.275-3.789,7.852,7.852,0,0,1,3.981,6.844,7.932,7.932,0,0,1-.546,2.861,6.461,6.461,0,0,0-2.712-.609V17.919H57.785a29.36,29.36,0,0,1-13.073-3.087l-.728-.363-.728.365a7.463,7.463,0,0,0-4.133,6.343H39.1a6.432,6.432,0,0,0-2.922.725,6.819,6.819,0,0,1,1.67-6.943ZM39.1,24.435v4.887a13.108,13.108,0,0,0,.112,1.629H39.1a3.258,3.258,0,0,1,0-6.516Zm-6.371-2.952A10.032,10.032,0,0,0,33.1,23l.445,1.333a6.457,6.457,0,0,0-.963,3.362A6.523,6.523,0,0,0,39.1,34.21h.959a13.1,13.1,0,0,0,5.07,6.084L44.35,42.62l-8.09,2.022c-.375.094-.743.212-1.108.337a17.926,17.926,0,0,0-14.117-9.066,36.106,36.106,0,0,1,11.69-14.43ZM4.887,53.758A14.661,14.661,0,1,1,19.548,68.419,14.679,14.679,0,0,1,4.887,53.758ZM48.871,99.371A17.919,17.919,0,1,1,66.707,79.823H63.436a14.661,14.661,0,1,0,0,3.258h3.271A17.936,17.936,0,0,1,48.871,99.371Zm7.981-19.548a8.145,8.145,0,1,0,0,3.258h3.292a11.4,11.4,0,1,1,0-3.258Zm-3.393,3.258a4.887,4.887,0,1,1,0-3.258H47.242v3.258Zm43.277,3.258H90.411l-2.444-3.258h3.258V79.823H87.968l2.444-3.258h6.324l-2.444,4.887Z"/>
        </g>
      </g>
    </g>
  </g>
</svg>
