<svg xmlns="http://www.w3.org/2000/svg" xmlns:xlink="http://www.w3.org/1999/xlink" width="85" height="85" viewBox="0 0 85 85">
  <defs>
    <clipPath id="clip-path">
      <rect id="Rect치ngulo_35233" data-name="Rect치ngulo 35233" width="55" height="55" transform="translate(195 6114)" fill="#26d19e"/>
    </clipPath>
  </defs>
  <g id="Grupo_95340" data-name="Grupo 95340" transform="translate(-180 -6099)">
    <rect id="Rect치ngulo_34178" data-name="Rect치ngulo 34178" width="85" height="85" transform="translate(180 6099)" fill="none"/>
    <g id="Enmascarar_grupo_377" data-name="Enmascarar grupo 377" clip-path="url(#clip-path)">
      <g id="estrategia" transform="translate(192.722 6112.166)">
        <path id="Trazado_125339" data-name="Trazado 125339" d="M36.645,26.583,38.367,30.6a6.5,6.5,0,0,1,.112,4.846l-2.865,6.567L31.287,28.981Z" fill="#005dbb"/>
        <path id="Trazado_125340" data-name="Trazado 125340" d="M38.344,30.549l-2.6,4.825a.917.917,0,1,1-1.615-.869l3.289-6.111Z" fill="#005dbb"/>
        <path id="Trazado_125341" data-name="Trazado 125341" d="M13.6,12.528,8,17.649a2.26,2.26,0,0,0,2.6,3.625l1-.571Z" fill="#f6bb92"/>
        <path id="Trazado_125342" data-name="Trazado 125342" d="M13.6,12.529l-2,8.174-.706.4-.294.167c-.041.021-.083.04-.125.057a4.363,4.363,0,0,1-.069-1.262l.385-4.229a4.511,4.511,0,0,1,.175-.9l.7-.644Z" fill="#e6af89"/>
        <g id="Grupo_98060" data-name="Grupo 98060">
          <path id="Trazado_125343" data-name="Trazado 125343" d="M23.243,5.622,13.6,12.528a4.583,4.583,0,0,0-1.9,3.311l-.385,4.23a4.43,4.43,0,0,0,3.346,4.681H16.5Z" fill="#f6bb92"/>
          <path id="Trazado_125344" data-name="Trazado 125344" d="M23.243,5.623l-1.572,4.461L16.5,24.75H14.667c-.1-.024-.195-.053-.29-.084L13.764,16.7a4.583,4.583,0,0,1,1.248-3.51L19.99,7.952l2.118-1.516Z" fill="#f6bb92"/>
          <path id="Trazado_125345" data-name="Trazado 125345" d="M23.243,5.622,16.05,13.189A4.583,4.583,0,0,0,14.8,16.7l.631,8.2a1.819,1.819,0,0,0,1.814,1.68,4.022,4.022,0,0,0,3.816-2.75Z" fill="#f6bb92"/>
        </g>
        <path id="Trazado_125346" data-name="Trazado 125346" d="M23.4,5.509l-.739.747L16.05,13.19A4.583,4.583,0,0,0,14.8,16.7l.62,8.051h-.755c-.1-.024-.195-.053-.29-.084L13.764,16.7a4.583,4.583,0,0,1,1.248-3.51L19.99,7.952Z" fill="#e6af89"/>
        <path id="Trazado_125347" data-name="Trazado 125347" d="M23.243,5.623,21.062,23.833A3.984,3.984,0,0,1,20.441,25l-1.932-3.091A4.584,4.584,0,0,1,18,18.191L21,7.982Z" fill="#f6bb92"/>
        <path id="Trazado_125348" data-name="Trazado 125348" d="M30.229,24.75l-2.292-3.438L26.031,24.46A5.553,5.553,0,0,0,22.414,26.5L16.708,34.49l-.229,4.01h3.667l.917-1.833,3.982-.532-3.064,3.73a7.929,7.929,0,0,0-.2,9.815l2.03,2.684H33.9a25.8,25.8,0,0,0,2.3-15.637,15.01,15.01,0,0,0-1.935-5.255Z" fill="#0177c3"/>
        <path id="Trazado_125349" data-name="Trazado 125349" d="M20.031,50.417H36.645v5.5H20.031Z" fill="#005dbb"/>
        <path id="Trazado_125350" data-name="Trazado 125350" d="M23.243,5.623,21.062,23.833A3.984,3.984,0,0,1,20.441,25l-1.932-3.091A4.584,4.584,0,0,1,18,18.191L21,7.982Z" fill="#e6af89"/>
        <path id="Trazado_125351" data-name="Trazado 125351" d="M25.043,36.135,26.59,34.26l-3.347,2.115Z" fill="#005dbb"/>
        <path id="Trazado_125352" data-name="Trazado 125352" d="M52.229,2.75,26.1,4.383a4.583,4.583,0,0,0-4.111,3.281l-3.1,10.527a4.583,4.583,0,0,0,.51,3.722l2.649,4.238a2.189,2.189,0,0,0,3.979-1.691l-1.3-5.21,4.583-5.5,3.667,3.667V22l-2.3,3.446a2.609,2.609,0,0,0,3.889,3.411l3.792-3.318a11.4,11.4,0,0,0,2.97-4.087l1.729-4.035,9.167-1.833Z" fill="#f6bb92"/>
        <path id="Trazado_125353" data-name="Trazado 125353" d="M42.175,21.813l1.54-3.592,8.694-1.739a.917.917,0,0,0,.737-.9V2.75a.917.917,0,0,0-.974-.915L26.043,3.468a5.5,5.5,0,0,0-3.355,1.424l-9.621,6.891-.007.005-.011.009a5.5,5.5,0,0,0-.9.816l-4.77,4.358L7.348,17a3.175,3.175,0,0,0,3.333,5.234,5.3,5.3,0,0,0,3.742,3.405.918.918,0,0,0,.223.028h.021A2.75,2.75,0,0,0,17.247,27.5a4.961,4.961,0,0,0,3.595-1.557l.393.629-5.273,7.385a.915.915,0,0,0-.169.48l-.229,4.01a.917.917,0,0,0,.915.969h3.667a.917.917,0,0,0,.82-.507l.7-1.4,1.193-.159-1.587,1.932A8.843,8.843,0,0,0,20.554,49.5h-.523a.917.917,0,0,0-.917.917v5.5a.917.917,0,0,0,.917.917H36.645a.917.917,0,0,0,.917-.917v-5.5a.917.917,0,0,0-.917-.917h-.579a26.762,26.762,0,0,0,1.4-8.756.936.936,0,0,0,.041-.089l1.833-4.888a7.388,7.388,0,0,0-.128-5.529l-1.317-3.071,1.073-.939a12.385,12.385,0,0,0,3.21-4.416ZM10.408,19.986c-.011.123-.017.245-.02.367l-.2.1a1.336,1.336,0,0,1-1.543-.25,1.35,1.35,0,0,1-.013-1.894l2.1-1.921Zm3.48-3.217.535,6.949a3.476,3.476,0,0,1-2.189-3.565l.385-4.23a3.663,3.663,0,0,1,.848-2.029l.713-.652,1.742-1.248-.536.564a5.508,5.508,0,0,0-1.5,4.211Zm3.359,8.9a.906.906,0,0,1-.9-.833l-.631-8.2a3.672,3.672,0,0,1,1-2.807L20.347,10l-2.333,7.933a5.5,5.5,0,0,0,.613,4.467l1.19,1.9a3.12,3.12,0,0,1-2.57,1.363Zm5.441,14.78,3.063-3.729L27.3,34.844a.917.917,0,0,0-1.414-1.167l-1.318,1.6-3.625.484a.917.917,0,0,0-.7.5l-.663,1.327h-2.13l.159-2.777,5-7a3.105,3.105,0,0,0,4.375-3.274l.977-1.541,1.5,2.246.158.264a3.517,3.517,0,0,0,2.938,4.9l.926,1.543a14.036,14.036,0,0,1,1.817,4.935A24.921,24.921,0,0,1,34.123,49.5H22.68a.912.912,0,0,0-.167-.373,7.013,7.013,0,0,1,.174-8.681Zm3.043-20.968,3.643-4.371L32.062,17.8v3.926l-1.375,2.063L28.7,20.8a.917.917,0,0,0-.763-.408h-.011a.917.917,0,0,0-.764.426l-.786,1.24ZM35.729,55H20.947V51.333H35.729Zm-.187-23.113c-.155-.3-1.078-1.86-1.078-1.86a3.481,3.481,0,0,0,.71-.48l1.269-1.11.424.989Zm2.078,3.236-.527,1.406a15.941,15.941,0,0,0-.63-2.485l1.3-2.412a5.558,5.558,0,0,1-.141,3.492Zm.139-10.274-3.792,3.318a1.693,1.693,0,0,1-2.523-2.213l2.3-3.446A.917.917,0,0,0,33.9,22V17.417a.917.917,0,0,0-.268-.648L29.96,13.1a.917.917,0,0,0-.648-.268H29.27a.917.917,0,0,0-.663.329l-4.583,5.5a.917.917,0,0,0-.185.809l1.3,5.21a1.272,1.272,0,0,1-2.312.982l-2.649-4.238a3.67,3.67,0,0,1-.408-2.978l3.1-10.527a3.649,3.649,0,0,1,.763-1.379l.2-.214A3.669,3.669,0,0,1,26.158,5.3L51.312,3.726V14.832l-8.43,1.686a.917.917,0,0,0-.663.538L40.49,21.091A10.542,10.542,0,0,1,37.759,24.849Z"/>
        <path id="Trazado_125354" data-name="Trazado 125354" d="M25.788,28.971a1.089,1.089,0,1,0,1.088,1.088,1.089,1.089,0,0,0-1.088-1.088Z"/>
        <path id="Trazado_125355" data-name="Trazado 125355" d="M31.416,47.6a.916.916,0,0,0,1.192-.51l.1-.244c.094-.234.183-.474.266-.712a.917.917,0,1,0-1.731-.6c-.074.212-.154.425-.237.634l-.1.243A.917.917,0,0,0,31.416,47.6Z"/>
        <path id="Trazado_125356" data-name="Trazado 125356" d="M31.995,42.079a.917.917,0,0,0,.825,1c.03,0,.059,0,.088,0a.917.917,0,0,0,.911-.829,16.627,16.627,0,0,0-.247-4.851.917.917,0,1,0-1.8.359,14.8,14.8,0,0,1,.22,4.316Z"/>
      </g>
    </g>
  </g>
</svg>
