<svg xmlns="http://www.w3.org/2000/svg" xmlns:xlink="http://www.w3.org/1999/xlink" width="157.014" height="140.075" viewBox="0 0 157.014 140.075">
  <defs>
    <clipPath id="clip-path">
      <rect id="Rect치ngulo_35684" data-name="Rect치ngulo 35684" width="101" height="101" transform="translate(224 433)" fill="#764cf0" stroke="#707070" stroke-width="1"/>
    </clipPath>
  </defs>
  <g id="Grupo_93555" data-name="Grupo 93555" transform="translate(-167.986 -408.896)">
    <rect id="Rect치ngulo_33975" data-name="Rect치ngulo 33975" width="98.789" height="100.95" rx="17" transform="matrix(0.799, 0.602, -0.602, 0.799, 228.739, 408.896)" fill="#fff1b3"/>
    <g id="Enmascarar_grupo_369" data-name="Enmascarar grupo 369" clip-path="url(#clip-path)">
      <g id="objetivo" transform="translate(222.371 431.371)">
        <g id="Grupo_97978" data-name="Grupo 97978">
          <g id="Grupo_97951" data-name="Grupo 97951">
            <path id="Trazado_125203" data-name="Trazado 125203" d="M97.742,37.908V52.129H73.306A21.094,21.094,0,0,0,63.158,34.063l.016-.016a6.507,6.507,0,0,1,3.959-2.525l5.881-1.189a4.828,4.828,0,0,0,1.922-1.059v.049a4.887,4.887,0,0,0,9.774,0v-.049a4.828,4.828,0,0,0,1.922,1.059l5.881,1.189A6.52,6.52,0,0,1,97.742,37.908Z" fill="#fcd770"/>
          </g>
          <g id="Grupo_97952" data-name="Grupo 97952">
            <path id="Trazado_125204" data-name="Trazado 125204" d="M42.355,93.295V101H6.516V93.295a6.52,6.52,0,0,1,5.229-6.386l5.881-1.189a4.828,4.828,0,0,0,1.922-1.059v.049a4.887,4.887,0,0,0,9.774,0v-.049a4.828,4.828,0,0,0,1.922,1.059l5.881,1.189a6.52,6.52,0,0,1,5.229,6.386Z" fill="#4fc1e9"/>
          </g>
          <g id="Grupo_97953" data-name="Grupo 97953">
            <path id="Trazado_125205" data-name="Trazado 125205" d="M66.693,87.023a4.368,4.368,0,0,1,.44-.114l5.881-1.189a4.828,4.828,0,0,0,1.922-1.059v.049a4.887,4.887,0,0,0,9.774,0v-.049a4.828,4.828,0,0,0,1.922,1.059l5.881,1.189a4.368,4.368,0,0,1,.44.114,6.492,6.492,0,0,1,4.789,6.272V101H61.9V93.295A6.492,6.492,0,0,1,66.693,87.023Z" fill="#ff826e"/>
          </g>
          <g id="Grupo_97954" data-name="Grupo 97954">
            <path id="Trazado_125206" data-name="Trazado 125206" d="M76.434,82.136a4.887,4.887,0,0,1-3.421,3.584l-5.881,1.189a4.368,4.368,0,0,0-.44.114,3.012,3.012,0,0,0,.1-.684c0-3.258-3.258-3.258-3.258-6.516s3.258-3.258,3.258-6.516V71.677a13.067,13.067,0,0,1,1.254-5.588,21.075,21.075,0,0,0,2.574-3.649l.016-.016a13.392,13.392,0,0,1,4.121-2.769,13.062,13.062,0,0,1,18.1,12.022v1.629c0,3.258,3.258,3.258,3.258,6.516s-3.258,3.258-3.258,6.516a3.012,3.012,0,0,0,.1.684,4.368,4.368,0,0,0-.44-.114L86.632,85.72a4.887,4.887,0,0,1-3.421-3.584V82.12a6.487,6.487,0,0,0,3.128-5.555V71.677H83.472a15.433,15.433,0,0,1-6.907-1.629,3.268,3.268,0,0,0-3.258,3.258v3.258a6.557,6.557,0,0,0,1.906,4.61,6.808,6.808,0,0,0,1.222.945Z" fill="#b27946"/>
          </g>
          <g id="Grupo_97955" data-name="Grupo 97955">
            <path id="Trazado_125207" data-name="Trazado 125207" d="M41.084,34.047l.016.016A21.094,21.094,0,0,0,30.952,52.129H6.516V37.908a6.52,6.52,0,0,1,5.229-6.386l1.287-.261,4.594-.929a4.828,4.828,0,0,0,1.922-1.059v.049a4.887,4.887,0,0,0,9.774,0v-.049a4.828,4.828,0,0,0,1.922,1.059l4.594.929,1.287.261a6.507,6.507,0,0,1,3.959,2.525Z" fill="#5cd6b3"/>
          </g>
          <g id="Grupo_97956" data-name="Grupo 97956">
            <path id="Trazado_125208" data-name="Trazado 125208" d="M35.839,19.548V31.261l-4.594-.929a4.887,4.887,0,0,1-3.421-3.584v-.016a6.436,6.436,0,0,0,2.916-3.926h1.841a3.268,3.268,0,0,0,3.258-3.258Z" fill="#fcd770"/>
          </g>
          <g id="Grupo_97957" data-name="Grupo 97957">
            <path id="Trazado_125209" data-name="Trazado 125209" d="M16.29,16.29a3.268,3.268,0,0,0-3.258,3.258V14.661a11.4,11.4,0,1,1,22.806,0v4.887a3.282,3.282,0,0,0-3.258-3.258h-4.5a15.433,15.433,0,0,1-6.907-1.629,3.252,3.252,0,0,0-2.818,1.629Z" fill="#fcd770"/>
          </g>
          <g id="Grupo_97958" data-name="Grupo 97958">
            <path id="Trazado_125210" data-name="Trazado 125210" d="M19.825,25.788a6.808,6.808,0,0,0,1.222.945v.016a4.887,4.887,0,0,1-3.421,3.584l-4.594.929V19.548a3.282,3.282,0,0,0,3.258,3.258h1.841a6.644,6.644,0,0,0,1.694,2.981Z" fill="#fcd770"/>
          </g>
          <g id="Grupo_97959" data-name="Grupo 97959">
            <path id="Trazado_125211" data-name="Trazado 125211" d="M92.855,11.24a5.6,5.6,0,0,1-.049.749,5.742,5.742,0,0,1-1.971,3.535l-1.3,1.173a3.15,3.15,0,0,0-1.564-.407h-4.5a15.433,15.433,0,0,1-6.907-1.629,3.252,3.252,0,0,0-2.818,1.629H71.677a3.15,3.15,0,0,0-1.564.407l-1.3-1.173a5.742,5.742,0,0,1-1.971-3.535,5.6,5.6,0,0,1-.049-.749,6.2,6.2,0,0,1,2.476-4.952L71.791,4.4a5.6,5.6,0,0,1,3.4-1.14h.652a5.677,5.677,0,0,1,3.975,1.629A5.677,5.677,0,0,1,83.8,3.258h.652a5.6,5.6,0,0,1,3.4,1.14l2.525,1.89a6.2,6.2,0,0,1,2.476,4.952Z" fill="#656d78"/>
          </g>
          <g id="Grupo_97960" data-name="Grupo 97960">
            <path id="Trazado_125212" data-name="Trazado 125212" d="M37.419,67.393a6.014,6.014,0,0,1-.961,2.623l-2.313,2.069a3.15,3.15,0,0,0-1.564-.407h-4.5a15.433,15.433,0,0,1-6.907-1.629,3.252,3.252,0,0,0-2.818,1.629H16.29a3.15,3.15,0,0,0-1.564.407l-2.313-2.069a6.212,6.212,0,0,1-1.01-3.388,8,8,0,0,1,7.982-7.982h10.1a7.809,7.809,0,0,1,2.639.456,21.156,21.156,0,0,0,5.311,8.275Z" fill="#b27946"/>
          </g>
          <g id="Grupo_97961" data-name="Grupo 97961">
            <path id="Trazado_125213" data-name="Trazado 125213" d="M73.306,52.129a21.149,21.149,0,0,1-2.672,10.3l-.016.016a21.144,21.144,0,1,1,2.688-10.312Z" fill="#ccd1d9"/>
          </g>
          <g id="Grupo_97962" data-name="Grupo 97962">
            <path id="Trazado_125214" data-name="Trazado 125214" d="M52.129,40.726a11.4,11.4,0,1,1-11.4,11.4A11.395,11.395,0,0,1,52.129,40.726Z" fill="#e6e9ed"/>
          </g>
          <g id="Grupo_97963" data-name="Grupo 97963">
            <circle id="Elipse_5866" data-name="Elipse 5866" cx="4.887" cy="4.887" r="4.887" transform="translate(47.242 47.242)" fill="#ff826e"/>
          </g>
          <g id="Grupo_97964" data-name="Grupo 97964">
            <path id="Trazado_125215" data-name="Trazado 125215" d="M83.211,82.136a4.791,4.791,0,0,0,1.5,2.525v.049a4.887,4.887,0,1,1-9.774,0v-.049a4.792,4.792,0,0,0,1.5-2.525V82.12a6.453,6.453,0,0,0,6.777,0Z" fill="#f0d0b4"/>
          </g>
          <g id="Grupo_97965" data-name="Grupo 97965">
            <path id="Trazado_125216" data-name="Trazado 125216" d="M86.339,71.677v4.887a6.487,6.487,0,0,1-3.128,5.555,6.453,6.453,0,0,1-6.777,0,6.808,6.808,0,0,1-1.222-.945,6.557,6.557,0,0,1-1.906-4.61V73.306a3.268,3.268,0,0,1,3.258-3.258,15.433,15.433,0,0,0,6.907,1.629Z" fill="#f0d0b4"/>
          </g>
          <g id="Grupo_97966" data-name="Grupo 97966">
            <path id="Trazado_125217" data-name="Trazado 125217" d="M35.839,74.935a3.268,3.268,0,0,1-3.258,3.258H30.74a5.957,5.957,0,0,0,.212-1.629V71.677h1.629a3.15,3.15,0,0,1,1.564.407,2.718,2.718,0,0,1,.733.554A3.185,3.185,0,0,1,35.839,74.935Z" fill="#f0d0b4"/>
          </g>
          <g id="Grupo_97967" data-name="Grupo 97967">
            <path id="Trazado_125218" data-name="Trazado 125218" d="M27.824,82.136a4.791,4.791,0,0,0,1.5,2.525v.049a4.887,4.887,0,1,1-9.774,0v-.049a4.792,4.792,0,0,0,1.5-2.525V82.12a6.453,6.453,0,0,0,6.777,0Z" fill="#f0d0b4"/>
          </g>
          <g id="Grupo_97968" data-name="Grupo 97968">
            <path id="Trazado_125219" data-name="Trazado 125219" d="M18.131,78.194a5.957,5.957,0,0,1-.212-1.629V73.306a3.266,3.266,0,0,1,3.258-3.258,15.433,15.433,0,0,0,6.907,1.629h2.867v4.887a5.958,5.958,0,0,1-.212,1.629,6.436,6.436,0,0,1-2.916,3.926,6.453,6.453,0,0,1-6.777,0,6.808,6.808,0,0,1-1.222-.945,6.644,6.644,0,0,1-1.694-2.981Z" fill="#f0d0b4"/>
          </g>
          <g id="Grupo_97969" data-name="Grupo 97969">
            <path id="Trazado_125220" data-name="Trazado 125220" d="M17.919,76.565a5.957,5.957,0,0,0,.212,1.629H16.29a3.282,3.282,0,0,1-3.258-3.258,3.257,3.257,0,0,1,1.694-2.851,3.15,3.15,0,0,1,1.564-.407h2.069a3.249,3.249,0,0,0-.44,1.629Z" fill="#f0d0b4"/>
          </g>
          <g id="Grupo_97970" data-name="Grupo 97970">
            <path id="Trazado_125221" data-name="Trazado 125221" d="M91.226,19.548a3.268,3.268,0,0,1-3.258,3.258H86.127a5.957,5.957,0,0,0,.212-1.629V16.29h1.629a3.15,3.15,0,0,1,1.564.407,2.718,2.718,0,0,1,.733.554A3.185,3.185,0,0,1,91.226,19.548Z" fill="#f0d0b4"/>
          </g>
          <g id="Grupo_97971" data-name="Grupo 97971">
            <path id="Trazado_125222" data-name="Trazado 125222" d="M83.211,26.749a4.791,4.791,0,0,0,1.5,2.525v.049a4.887,4.887,0,1,1-9.774,0v-.049a4.791,4.791,0,0,0,1.5-2.525v-.016a6.453,6.453,0,0,0,6.777,0Z" fill="#f0d0b4"/>
          </g>
          <g id="Grupo_97972" data-name="Grupo 97972">
            <path id="Trazado_125223" data-name="Trazado 125223" d="M73.746,16.29a3.252,3.252,0,0,1,2.818-1.629,15.433,15.433,0,0,0,6.907,1.629h2.867v4.887a5.957,5.957,0,0,1-.212,1.629,6.436,6.436,0,0,1-2.916,3.926,6.453,6.453,0,0,1-6.777,0,6.807,6.807,0,0,1-1.222-.945,6.644,6.644,0,0,1-1.694-2.981,5.957,5.957,0,0,1-.212-1.629V17.919a3.249,3.249,0,0,1,.44-1.629Z" fill="#f0d0b4"/>
          </g>
          <g id="Grupo_97973" data-name="Grupo 97973">
            <path id="Trazado_125224" data-name="Trazado 125224" d="M73.306,21.177a5.957,5.957,0,0,0,.212,1.629H71.677a3.282,3.282,0,0,1-3.258-3.258A3.257,3.257,0,0,1,70.114,16.7a3.15,3.15,0,0,1,1.564-.407h2.069a3.249,3.249,0,0,0-.44,1.629Z" fill="#f0d0b4"/>
          </g>
          <g id="Grupo_97974" data-name="Grupo 97974">
            <path id="Trazado_125225" data-name="Trazado 125225" d="M34.878,17.251a3.185,3.185,0,0,1,.961,2.3,3.268,3.268,0,0,1-3.258,3.258H30.74a5.957,5.957,0,0,0,.212-1.629V16.29h1.629A3.185,3.185,0,0,1,34.878,17.251Z" fill="#f0d0b4"/>
          </g>
          <g id="Grupo_97975" data-name="Grupo 97975">
            <path id="Trazado_125226" data-name="Trazado 125226" d="M27.824,26.749a4.791,4.791,0,0,0,1.5,2.525v.049a4.887,4.887,0,1,1-9.774,0v-.049a4.791,4.791,0,0,0,1.5-2.525v-.016a6.453,6.453,0,0,0,6.777,0Z" fill="#f0d0b4"/>
          </g>
          <g id="Grupo_97976" data-name="Grupo 97976">
            <path id="Trazado_125227" data-name="Trazado 125227" d="M18.131,22.806a5.957,5.957,0,0,1-.212-1.629V17.919a3.266,3.266,0,0,1,3.258-3.258,15.433,15.433,0,0,0,6.907,1.629h2.867v4.887a5.958,5.958,0,0,1-.212,1.629,6.436,6.436,0,0,1-2.916,3.926,6.453,6.453,0,0,1-6.777,0,6.808,6.808,0,0,1-1.222-.945,6.644,6.644,0,0,1-1.694-2.981Z" fill="#f0d0b4"/>
          </g>
          <g id="Grupo_97977" data-name="Grupo 97977">
            <path id="Trazado_125228" data-name="Trazado 125228" d="M17.919,21.177a5.957,5.957,0,0,0,.212,1.629H16.29a3.282,3.282,0,0,1-3.258-3.258A3.268,3.268,0,0,1,16.29,16.29h2.069a3.249,3.249,0,0,0-.44,1.629Z" fill="#f0d0b4"/>
          </g>
        </g>
        <path id="Trazado_125229" data-name="Trazado 125229" d="M102.629,53.758V50.5H99.371V37.912a8.17,8.17,0,0,0-6.532-7.984l-5.767-1.16a3.243,3.243,0,0,1-1.906-1.494,8.159,8.159,0,0,0,2.111-2.839h.691a4.873,4.873,0,0,0,3.973-7.713,7.4,7.4,0,0,0,2.488-4.543,8.031,8.031,0,0,0,.055-.93A7.867,7.867,0,0,0,91.35,4.982l-2.518-1.89a7.355,7.355,0,0,0-4.385-1.463H83.8a7.252,7.252,0,0,0-3.981,1.178,7.252,7.252,0,0,0-3.981-1.178H75.2A7.364,7.364,0,0,0,70.814,3.09L68.3,4.98a7.87,7.87,0,0,0-3.134,6.269,7.687,7.687,0,0,0,.057.93,7.382,7.382,0,0,0,2.488,4.543,4.84,4.84,0,0,0-.916,2.826,4.893,4.893,0,0,0,4.887,4.887h.691a8.154,8.154,0,0,0,2.113,2.841A3.122,3.122,0,0,1,72.7,28.738L66.8,29.927A8.116,8.116,0,0,0,62.822,32,22.613,22.613,0,0,0,53.756,29.4V1.629H50.5V29.406A22.613,22.613,0,0,0,41.433,32a8.124,8.124,0,0,0-3.967-2.066V14.661a13.031,13.031,0,1,0-26.063,0V29.933a8.169,8.169,0,0,0-6.516,7.979V50.5H1.629v3.258H29.406a22.768,22.768,0,0,0,.466,3.291c-.132,0-.261-.033-.394-.033H19.394a9.629,9.629,0,0,0-9.619,9.618,7.741,7.741,0,0,0,1.285,4.281l1.274,1.175a4.87,4.87,0,0,0,3.957,7.733h.691a8.154,8.154,0,0,0,2.113,2.841,3.129,3.129,0,0,1-1.782,1.461l-5.892,1.189A8.172,8.172,0,0,0,4.887,93.3v9.331h39.1V93.3a8.171,8.171,0,0,0-6.532-7.984l-5.765-1.157a3.26,3.26,0,0,1-1.908-1.5,8.159,8.159,0,0,0,2.111-2.839h.691a4.871,4.871,0,0,0,3.973-7.712l.984-.88.272-.314a7.906,7.906,0,0,0,.428-.738A22.657,22.657,0,0,0,50.5,74.854v27.775h3.258V74.852a22.643,22.643,0,0,0,11.452-4.071c-.016.3-.047.595-.047.9v1.629c0,.914-.354,1.3-1.152,2.1a5.669,5.669,0,0,0,0,8.818,3.1,3.1,0,0,1,1.1,1.655A8.161,8.161,0,0,0,60.274,93.3v9.331h39.1V93.3a8.156,8.156,0,0,0-4.837-7.415,3.121,3.121,0,0,1,1.1-1.655,5.668,5.668,0,0,0,0-8.818c-.8-.8-1.152-1.189-1.152-2.1V71.677a14.665,14.665,0,0,0-20.389-13.5,22.621,22.621,0,0,0,.757-4.421ZM74.935,21.177V17.919a1.633,1.633,0,0,1,1.318-1.6,17.158,17.158,0,0,0,7.212,1.6H84.71v3.258a4.887,4.887,0,1,1-9.774,0Zm13.032,0V17.919a1.629,1.629,0,1,1,0,3.258ZM70.048,19.548a1.632,1.632,0,0,1,1.629-1.629v3.258A1.632,1.632,0,0,1,70.048,19.548Zm2.9-4.887H71.677a4.827,4.827,0,0,0-1.205.168l-.577-.516a4.156,4.156,0,0,1-1.443-2.525,4.567,4.567,0,0,1,1.8-4.2L72.769,5.7a4.083,4.083,0,0,1,2.431-.81h.642a4.027,4.027,0,0,1,2.839,1.161l1.142,1.124,1.142-1.124A4.024,4.024,0,0,1,83.8,4.887h.642a4.083,4.083,0,0,1,2.431.81L89.4,7.588a4.569,4.569,0,0,1,1.8,4.2,4.16,4.16,0,0,1-1.443,2.525l-.577.515a4.827,4.827,0,0,0-1.205-.168h-4.5A13.861,13.861,0,0,1,77.293,13.2l-.344-.171h-.384A4.862,4.862,0,0,0,72.948,14.661Zm6.875,14.661a8.027,8.027,0,0,0,2.51-.437,6.426,6.426,0,0,0,.7.966,3.247,3.247,0,0,1-6.409.011,6.349,6.349,0,0,0,.7-.976,8.052,8.052,0,0,0,2.507.435Zm-12.371,3.8,6.014-1.22c.114-.033.218-.08.329-.119a6.5,6.5,0,0,0,12.052-.011c.151.054.3.117.456.161L92.2,33.121a4.9,4.9,0,0,1,3.918,4.791V50.5H74.852a22.761,22.761,0,0,0-9.14-16.647A4.87,4.87,0,0,1,67.452,33.121ZM71.594,50.5H65.047A13.044,13.044,0,0,0,53.756,39.209V32.662A19.561,19.561,0,0,1,71.594,50.5ZM52.129,55.387a3.258,3.258,0,1,1,3.258-3.258A3.261,3.261,0,0,1,52.129,55.387ZM50.5,45.844A6.508,6.508,0,0,0,45.844,50.5H42.5a9.786,9.786,0,0,1,8-8Zm-4.656,7.914A6.508,6.508,0,0,0,50.5,58.414v3.343a9.786,9.786,0,0,1-8-8Zm7.914,4.656a6.508,6.508,0,0,0,4.656-4.656h3.343a9.786,9.786,0,0,1-8,8ZM58.414,50.5a6.508,6.508,0,0,0-4.656-4.656V42.5a9.786,9.786,0,0,1,8,8ZM50.5,39.209A13.044,13.044,0,0,0,39.209,50.5H32.662A19.558,19.558,0,0,1,50.5,32.664v6.545ZM16.29,21.177a1.629,1.629,0,0,1,0-3.258Zm0,3.258h.691a8.154,8.154,0,0,0,2.113,2.841,3.127,3.127,0,0,1-1.784,1.461l-2.649.536V24.136a4.832,4.832,0,0,0,1.629.3Zm13.032-3.258a4.887,4.887,0,1,1-9.774,0V17.919a1.633,1.633,0,0,1,1.318-1.6,17.158,17.158,0,0,0,7.212,1.6h1.245Zm-7.394,7.709a7.421,7.421,0,0,0,5.016,0,6.426,6.426,0,0,0,.7.966,3.246,3.246,0,0,1-6.407.01,6.58,6.58,0,0,0,.7-.976Zm7.85-1.611a8.159,8.159,0,0,0,2.111-2.839h.691a4.832,4.832,0,0,0,1.629-.3v5.141l-2.525-.508A3.243,3.243,0,0,1,29.779,27.275Zm2.8-9.356a1.629,1.629,0,0,1,0,3.258ZM24.435,4.887a9.784,9.784,0,0,1,9.774,9.774v.3a4.832,4.832,0,0,0-1.629-.3h-4.5A13.861,13.861,0,0,1,21.906,13.2l-.344-.171h-.384a4.862,4.862,0,0,0-3.616,1.629H16.29a4.832,4.832,0,0,0-1.629.3v-.3A9.784,9.784,0,0,1,24.435,4.887ZM8.145,37.912a4.9,4.9,0,0,1,3.919-4.791l6.014-1.22c.114-.033.218-.08.329-.119a6.5,6.5,0,0,0,12.052-.011c.152.054.3.117.456.161l5.891,1.189a4.87,4.87,0,0,1,1.74.731A22.767,22.767,0,0,0,29.406,50.5H8.145Zm6.516,37.023a1.631,1.631,0,0,1,1.629-1.629v3.258A1.631,1.631,0,0,1,14.661,74.935Zm14.661,1.629a4.887,4.887,0,0,1-9.774,0V73.306a1.629,1.629,0,0,1,1.32-1.6,17.174,17.174,0,0,0,7.21,1.6h1.245Zm7.484,11.944A4.9,4.9,0,0,1,40.726,93.3v6.073H8.145V93.3a4.9,4.9,0,0,1,3.919-4.789l6.018-1.22c.112-.033.218-.08.327-.119a6.5,6.5,0,0,0,12.05-.011c.152.055.3.117.456.163ZM27.64,85.239a3.246,3.246,0,0,1-6.407.01,6.462,6.462,0,0,0,.7-.976,7.426,7.426,0,0,0,5.017,0,6.532,6.532,0,0,0,.694.966Zm.438-15.191a13.883,13.883,0,0,1-6.172-1.458l-.344-.171h-.384a4.862,4.862,0,0,0-3.616,1.629H16.29a4.827,4.827,0,0,0-1.205.168l-1.412-1.263a4.5,4.5,0,0,1-.64-2.32,6.367,6.367,0,0,1,6.361-6.36H29.477a6.315,6.315,0,0,1,1.443.186,22.848,22.848,0,0,0,4.731,7.394,4.521,4.521,0,0,1-.453,1.1l-1.412,1.263a4.754,4.754,0,0,0-1.205-.169h-4.5Zm4.5,6.516V73.306a1.629,1.629,0,1,1,0,3.258Zm.083-22.806h6.547A13.044,13.044,0,0,0,50.5,65.049V71.6A19.561,19.561,0,0,1,32.664,53.758ZM96.113,99.371H63.532V93.3a4.9,4.9,0,0,1,3.919-4.789l6.018-1.22c.112-.033.218-.08.327-.119a6.5,6.5,0,0,0,12.05-.011c.151.055.3.117.456.163l5.891,1.188A4.9,4.9,0,0,1,96.113,93.3ZM84.71,76.565a4.887,4.887,0,0,1-9.774,0V73.306a1.629,1.629,0,0,1,1.32-1.6,17.174,17.174,0,0,0,7.21,1.6H84.71ZM79.823,84.71a8.026,8.026,0,0,0,2.51-.437,6.532,6.532,0,0,0,.694.966,3.246,3.246,0,0,1-6.407.01,6.462,6.462,0,0,0,.7-.976A7.99,7.99,0,0,0,79.823,84.71Zm0-24.435a11.417,11.417,0,0,1,11.4,11.4v1.629a5.8,5.8,0,0,0,2.106,4.407c.8.8,1.152,1.189,1.152,2.1s-.354,1.31-1.153,2.108a6.361,6.361,0,0,0-1.948,3.1l-4.31-.865a3.26,3.26,0,0,1-1.908-1.5,8.087,8.087,0,0,0,2.8-6.1V70.048h-4.5a13.883,13.883,0,0,1-6.172-1.458l-.344-.171h-.384a4.893,4.893,0,0,0-4.887,4.887v3.258a8.093,8.093,0,0,0,2.8,6.1A3.129,3.129,0,0,1,72.7,84.125l-4.436.894a6.355,6.355,0,0,0-1.948-3.1c-.8-.8-1.153-1.189-1.153-2.106s.354-1.3,1.152-2.1a5.8,5.8,0,0,0,2.106-4.407V71.677a11.293,11.293,0,0,1,1.049-4.771,22.936,22.936,0,0,0,2.383-3.377,11.329,11.329,0,0,1,7.971-3.255ZM53.758,71.594V65.047A13.044,13.044,0,0,0,65.049,53.756H71.6A19.561,19.561,0,0,1,53.758,71.594Z"/>
      </g>
    </g>
  </g>
</svg>
