<svg xmlns="http://www.w3.org/2000/svg" xmlns:xlink="http://www.w3.org/1999/xlink" width="154" height="154" viewBox="0 0 154 154">
  <defs>
    <clipPath id="clip-path">
      <rect id="Rectángulo_35301" data-name="Rectángulo 35301" width="154" height="154" transform="translate(-3718 962)" fill="#ffd41c"/>
    </clipPath>
  </defs>
  <g id="Enmascarar_grupo_402" data-name="Enmascarar grupo 402" transform="translate(3718 -962)" clip-path="url(#clip-path)">
    <g id="opinion-del-cliente" transform="translate(-3717.993 962.01)">
      <g id="Grupo_98935" data-name="Grupo 98935">
        <g id="Grupo_98932" data-name="Grupo 98932">
          <ellipse id="Elipse_5918" data-name="Elipse 5918" cx="34.749" cy="34.748" rx="34.749" ry="34.748" transform="translate(40.726 13.746) rotate(-3.151)" fill="#00ddc1"/>
          <path id="Trazado_126167" data-name="Trazado 126167" d="M77.3,11.753a34.731,34.731,0,1,1,0,69.461Z" fill="#00baa0" fill-rule="evenodd"/>
          <path id="Trazado_126168" data-name="Trazado 126168" d="M78.675,24.885l5.3,11.7L96.734,38a1.5,1.5,0,0,1,.847,2.606l-9.487,8.652,2.59,12.577a1.5,1.5,0,0,1-2.216,1.61L77.306,57.1,66.145,63.45a1.5,1.5,0,0,1-2.216-1.61l2.59-12.577L57.031,40.61A1.5,1.5,0,0,1,57.877,38l12.761-1.424,5.3-11.7a1.5,1.5,0,0,1,2.739,0Z" fill="#ffd944" fill-rule="evenodd"/>
          <path id="Trazado_126169" data-name="Trazado 126169" d="M78.675,24.885l5.3,11.7L96.734,38a1.5,1.5,0,0,1,.847,2.606l-9.487,8.652,2.59,12.577a1.5,1.5,0,0,1-2.216,1.61L77.306,57.1V24a1.475,1.475,0,0,1,1.369.884Z" fill="#ffc107" fill-rule="evenodd"/>
        </g>
        <g id="Grupo_98934" data-name="Grupo 98934">
          <path id="Trazado_126170" data-name="Trazado 126170" d="M6.915,112.444H24.339l10.12-10.15c4.937-4.951,10.236-8.943,17.217-8.582,7.783.4,20.814,2.257,33.316,1.212a8.955,8.955,0,0,1,8.759,8.759,8.785,8.785,0,0,1-8.759,8.76c6.186,0,12.612-1.858,17.071-6.351l25.265-25.458c19.639-19.789,28.645.146,22.184,6.983l-45.365,48.01a20.628,20.628,0,0,1-15.523,6.6H6.915A4.52,4.52,0,0,1,2.4,137.716v-20.76a4.52,4.52,0,0,1,4.511-4.511Z" fill="#f6dccd" fill-rule="evenodd"/>
          <g id="Grupo_98933" data-name="Grupo 98933">
            <path id="Trazado_126171" data-name="Trazado 126171" d="M92.8,107.651a8.784,8.784,0,0,1-7.8,4.794H52.426a2.4,2.4,0,1,1,0-4.794Z" fill="#f1cbbc" fill-rule="evenodd"/>
            <path id="Trazado_126172" data-name="Trazado 126172" d="M111.983,127.336l-7.836,8.294a20.628,20.628,0,0,1-15.523,6.6H6.915A4.52,4.52,0,0,1,2.4,137.716v-10.38H111.983Z" fill="#f1cbbc" fill-rule="evenodd"/>
          </g>
        </g>
      </g>
      <path id="Trazado_126173" data-name="Trazado 126173" d="M59.815,40.176l10.784-1.2a2.386,2.386,0,0,0,1.916-1.4L77,27.692l4.47,9.882a2.409,2.409,0,0,0,1.93,1.4l10.784,1.2-8.017,7.309a2.415,2.415,0,0,0-.738,2.263l2.185,10.625L78.19,55.009a2.413,2.413,0,0,0-2.384,0l-9.422,5.363L68.57,49.748a2.416,2.416,0,0,0-.738-2.263Zm.78,24.431a2.382,2.382,0,0,0,.937,2.431,2.416,2.416,0,0,0,2.611.145L77,59.869l12.855,7.313a2.394,2.394,0,0,0,1.192.315,2.36,2.36,0,0,0,1.4-.46,2.417,2.417,0,0,0,.951-2.431l-2.98-14.489,10.926-9.968a2.406,2.406,0,0,0-1.362-4.169l-14.7-1.64-6.1-13.474a2.407,2.407,0,0,0-4.385,0L68.7,34.341,54,35.981A2.407,2.407,0,0,0,52.65,40.15l10.926,9.968Zm87.165,21.359L102.4,133.976A18.248,18.248,0,0,1,88.62,139.82H4.817V114.85H24.342a2.409,2.409,0,0,0,1.7-.706l10.117-10.15c4.271-4.284,9.1-8.2,15.4-7.878,1.972.1,4.285.3,6.953.526,7.62.651,17.112,1.46,26.506.7a6.5,6.5,0,0,1,6.328,6.347,6.685,6.685,0,0,1-2.015,4.675,6.793,6.793,0,0,1-4.455,1.679H52.423a2.406,2.406,0,0,0,0,4.811H85a45.137,45.137,0,0,0,4.583-.463,22.414,22.414,0,0,0,14.189-6.6l25.271-25.457c7.407-7.479,14.09-9.771,17.85-6.126,2.667,2.574,3.093,7.408.865,9.761Zm2.483-13.217c4.555,4.4,5.037,12.275,1.022,16.522L105.9,137.282a22.919,22.919,0,0,1-17.283,7.35H2.405a2.415,2.415,0,0,1-2.412-2.407V112.443a2.408,2.408,0,0,1,2.412-2.405H23.334l9.422-9.443c4.824-4.83,10.855-9.708,19.042-9.285,2.072.108,4.512.316,7.109.538,7.506.64,16.843,1.436,25.881.68a2.867,2.867,0,0,1,.326-.006,11.4,11.4,0,0,1,11.039,11.163,11.016,11.016,0,0,1-.851,4.277,17.243,17.243,0,0,0,5.051-3.563l25.271-25.457c14.1-14.215,22.42-8.333,24.619-6.192ZM77,14.16a32.324,32.324,0,1,0,32.323,32.323A32.361,32.361,0,0,0,77,14.16Zm0,69.461A37.137,37.137,0,1,0,39.865,46.483,37.178,37.178,0,0,0,77,83.621Z" fill-rule="evenodd"/>
    </g>
  </g>
</svg>
