<svg xmlns="http://www.w3.org/2000/svg" xmlns:xlink="http://www.w3.org/1999/xlink" width="190" height="145.104" viewBox="0 0 190 145.104">
  <defs>
    <clipPath id="clip-path">
      <rect id="Rectángulo_35688" data-name="Rectángulo 35688" width="101" height="101" transform="translate(225 434)" fill="#764cf0" stroke="#707070" stroke-width="1"/>
    </clipPath>
  </defs>
  <g id="Grupo_95231" data-name="Grupo 95231" transform="translate(-180 -405.896)">
    <rect id="Rectángulo_33975" data-name="Rectángulo 33975" width="190" height="134" transform="translate(180 417)" fill="none"/>
    <rect id="Rectángulo_35693" data-name="Rectángulo 35693" width="98.789" height="100.95" rx="17" transform="matrix(0.799, 0.602, -0.602, 0.799, 240.753, 405.896)" fill="#fff1b3"/>
    <g id="Enmascarar_grupo_374" data-name="Enmascarar grupo 374" clip-path="url(#clip-path)">
      <g id="talla" transform="translate(223.373 432.372)">
        <g id="Grupo_98056" data-name="Grupo 98056">
          <g id="Grupo_98041" data-name="Grupo 98041">
            <path id="Trazado_125299" data-name="Trazado 125299" d="M87.966,42.354v16.29H68.874a32.464,32.464,0,0,0,8.666-16.29H87.966Z" fill="#dfb28b"/>
          </g>
          <g id="Grupo_98042" data-name="Grupo 98042">
            <path id="Trazado_125300" data-name="Trazado 125300" d="M22.35,58.644H3.258V42.354H13.684A32.464,32.464,0,0,0,22.35,58.644Z" fill="#dfb28b"/>
          </g>
          <g id="Grupo_98043" data-name="Grupo 98043">
            <path id="Trazado_125301" data-name="Trazado 125301" d="M87.966,68.418l-4.2,14.009L59.736,68.418Z" fill="#e6e9ed"/>
          </g>
          <g id="Grupo_98044" data-name="Grupo 98044">
            <path id="Trazado_125302" data-name="Trazado 125302" d="M36.392,68.418a9.78,9.78,0,0,0,9.22,6.516,9.68,9.68,0,0,0,4.235-.961L80.864,92.055v.016l-1.287,4.284A6.5,6.5,0,0,1,73.338,101H17.87a6.53,6.53,0,0,1-6.239-4.643L3.258,68.418Z" fill="#e6e9ed"/>
          </g>
          <g id="Grupo_98045" data-name="Grupo 98045">
            <path id="Trazado_125303" data-name="Trazado 125303" d="M68.874,58.644H87.966v9.774H59.736l-4.382-2.558c.016-.228.033-.456.033-.7a9.726,9.726,0,0,0-2.492-6.516H68.874Z" fill="#d3a06c"/>
          </g>
          <g id="Grupo_98046" data-name="Grupo 98046">
            <path id="Trazado_125304" data-name="Trazado 125304" d="M35.838,65.16a9.844,9.844,0,0,0,.554,3.258H3.258V58.644H38.331A9.726,9.726,0,0,0,35.838,65.16Z" fill="#d3a06c"/>
          </g>
          <g id="Grupo_98047" data-name="Grupo 98047">
            <path id="Trazado_125305" data-name="Trazado 125305" d="M22.35,58.644a32.464,32.464,0,0,1-8.666-16.29h-.016a34.388,34.388,0,0,1-.635-6.516h32.58L68.418,58.644H52.894a9.766,9.766,0,0,0-14.563,0Z" fill="#e6e9ed"/>
          </g>
          <g id="Grupo_98048" data-name="Grupo 98048">
            <path id="Trazado_125306" data-name="Trazado 125306" d="M13.032,35.838a32.571,32.571,0,0,1,32.58-32.58v32.58Z" fill="#fcd770"/>
          </g>
          <g id="Grupo_98049" data-name="Grupo 98049">
            <path id="Trazado_125307" data-name="Trazado 125307" d="M65.975,19.744a6.493,6.493,0,0,0,8.015.1,32.4,32.4,0,0,1,4.2,16,34.388,34.388,0,0,1-.635,6.516h-.016a32.464,32.464,0,0,1-8.666,16.29h-.456L45.612,35.838V3.258a32.488,32.488,0,0,1,19.874,6.76,6.5,6.5,0,0,0,.489,9.725Z" fill="#5cd6b3"/>
          </g>
          <g id="Grupo_98050" data-name="Grupo 98050">
            <path id="Trazado_125308" data-name="Trazado 125308" d="M94.482,19.548a6.541,6.541,0,1,1-5.9,3.763A6.514,6.514,0,0,1,94.482,19.548Z" fill="#fcd770"/>
          </g>
          <g id="Grupo_98051" data-name="Grupo 98051">
            <path id="Trazado_125309" data-name="Trazado 125309" d="M76.563,14.661a6.508,6.508,0,1,1-6.516-6.516A6.493,6.493,0,0,1,76.563,14.661Z" fill="#fcd770"/>
          </g>
          <g id="Grupo_98052" data-name="Grupo 98052">
            <path id="Trazado_125310" data-name="Trazado 125310" d="M60.061,27.139A4.828,4.828,0,0,1,61.9,30.951a4.906,4.906,0,1,1-1.841-3.812Z" fill="#fcd770"/>
          </g>
          <g id="Grupo_98053" data-name="Grupo 98053">
            <path id="Trazado_125311" data-name="Trazado 125311" d="M59.736,68.418,83.763,82.428,88.8,85.376a4.814,4.814,0,0,1,2.264,2.981,4.881,4.881,0,0,1-7.184,5.457l-3.014-1.759L49.848,73.973a9.749,9.749,0,0,0,5.506-8.112Z" fill="#ff826e"/>
          </g>
          <g id="Grupo_98054" data-name="Grupo 98054">
            <path id="Trazado_125312" data-name="Trazado 125312" d="M55.386,65.16c0,.244-.016.472-.033.7a9.524,9.524,0,1,1,.033-.7Z" fill="#fcd770"/>
          </g>
          <g id="Grupo_98055" data-name="Grupo 98055">
            <circle id="Elipse_5873" data-name="Elipse 5873" cx="3.258" cy="3.258" r="3.258" transform="translate(42.354 61.902)" fill="#ffc729"/>
          </g>
        </g>
        <g id="Grupo_98057" data-name="Grupo 98057">
          <path id="Trazado_125313" data-name="Trazado 125313" d="M45.611,60.273A4.887,4.887,0,1,0,50.5,65.16,4.893,4.893,0,0,0,45.611,60.273Zm0,6.516A1.629,1.629,0,1,1,47.24,65.16,1.632,1.632,0,0,1,45.611,66.789Z"/>
          <path id="Trazado_125314" data-name="Trazado 125314" d="M94.482,17.919a8.111,8.111,0,0,0-6.514,3.307L77.95,16.551A8.12,8.12,0,0,0,65.414,7.976a33.856,33.856,0,0,0-19.8-6.347,33.984,33.984,0,0,0-33.823,39.1H1.627V68.418l8.45,28.4a8.094,8.094,0,0,0,7.8,5.8H73.341a8.1,8.1,0,0,0,7.8-5.8l.692-2.308,1.22.712a6.516,6.516,0,0,0,6.562-11.26l-3.929-2.292,3.836-12.788.068-28.162H79.434A33.384,33.384,0,0,0,76.009,20.17a8.074,8.074,0,0,0,.554-.671l10.018,4.675a8.04,8.04,0,0,0-.244,1.89,8.145,8.145,0,1,0,8.145-8.145ZM70.047,9.774a4.887,4.887,0,1,1-4.887,4.887A4.893,4.893,0,0,1,70.047,9.774ZM60.172,66.789,57,64.94a11.323,11.323,0,0,0-1.1-4.667H86.336v6.516Zm5.584,3.258h5.654l-.454,3.033Zm-60.311,0H16.515L18.47,83.079H9.355Zm29.878-9.774a11.3,11.3,0,0,0-1.116,4.887,11.445,11.445,0,0,0,.13,1.629H4.885V60.273Zm8.658,22.806H34.8L32.841,70.047h2.483a11.417,11.417,0,0,0,8.658,6.386ZM19.809,70.047h9.738L31.5,83.079H21.764ZM31.99,86.337l1.955,13.032H24.207L22.252,86.337Zm3.294,0h8.7V99.369H37.239Zm11.955,0h8.7L53.982,99.369H47.24Zm11.991,0h8.59l1.057.616L67.014,99.369H57.276ZM47.24,83.079V76.433a11.318,11.318,0,0,0,2.486-.65l12.509,7.3Zm-1.629-9.774a8.145,8.145,0,1,1,8.145-8.145A8.154,8.154,0,0,1,45.611,73.305Zm7.964-16.29a11.367,11.367,0,0,0-15.932,0H23.07a30.7,30.7,0,0,1-8.334-19.548h30.2L64.483,57.015ZM43.982,4.97V34.209H14.741A30.942,30.942,0,0,1,43.982,4.97ZM12.415,43.983a33.884,33.884,0,0,0,6.343,13.032H4.885V43.983Zm.784,51.9-2.865-9.549h8.626l1.955,13.032H17.88A4.855,4.855,0,0,1,13.2,95.887Zm64.825,0a4.858,4.858,0,0,1-4.682,3.483H70.308l1.6-10.649,7.037,4.105Zm11.463-7.122a3.238,3.238,0,0,1-.336,2.471A3.351,3.351,0,0,1,84.7,92.412L52.938,73.885a11.432,11.432,0,0,0,3.59-5.449L87.976,86.78a3.235,3.235,0,0,1,1.51,1.984Zm-15.5-13.917.72-4.8H85.775l-2.981,9.937Zm12.35-30.865V57.015H72.463a33.873,33.873,0,0,0,6.343-13.032ZM68.593,56.517,47.24,35.164V4.952a30.547,30.547,0,0,1,15.917,5.413,7.976,7.976,0,0,0,.66,9.478l-4.139,5.174a6.613,6.613,0,1,0,2.535,2.046l4.146-5.182a7.9,7.9,0,0,0,6.984.215,30.858,30.858,0,0,1-4.749,34.421ZM60.273,30.951a3.258,3.258,0,1,1-3.258-3.258A3.261,3.261,0,0,1,60.273,30.951Zm34.209,0a4.887,4.887,0,1,1,4.887-4.887A4.893,4.893,0,0,1,94.482,30.951Z"/>
          <path id="Trazado_125315" data-name="Trazado 125315" d="M34.209,27.457v3.494h3.258V27.457a4.632,4.632,0,0,0,.687-8.572L34.978,17.3a1.392,1.392,0,0,1,.622-2.637h.476a1.393,1.393,0,0,1,1.391,1.391v.238h3.258v-.238a4.641,4.641,0,0,0-3.258-4.413V8.145H34.209v3.494a4.632,4.632,0,0,0-.687,8.572L36.7,21.8a1.392,1.392,0,0,1-.622,2.637H35.6a1.393,1.393,0,0,1-1.391-1.391V21.177H30.951v1.867A4.641,4.641,0,0,0,34.209,27.457Z"/>
          <path id="Trazado_125316" data-name="Trazado 125316" d="M30.951,40.725h3.258v3.258H30.951Z"/>
          <path id="Trazado_125317" data-name="Trazado 125317" d="M24.435,40.725h3.258v3.258H24.435Z"/>
          <path id="Trazado_125318" data-name="Trazado 125318" d="M17.919,40.725h3.258v3.258H17.919Z"/>
        </g>
      </g>
    </g>
  </g>
</svg>
