<svg xmlns="http://www.w3.org/2000/svg" xmlns:xlink="http://www.w3.org/1999/xlink" width="154" height="154" viewBox="0 0 154 154">
  <defs>
    <clipPath id="clip-path">
      <rect id="Rectángulo_35303" data-name="Rectángulo 35303" width="154" height="154" transform="translate(-3718 1256)" fill="#ffd41c"/>
    </clipPath>
  </defs>
  <g id="Enmascarar_grupo_403" data-name="Enmascarar grupo 403" transform="translate(3718 -1256)" clip-path="url(#clip-path)">
    <g id="unido" transform="translate(-3718 1257.767)">
      <path id="Trazado_126174" data-name="Trazado 126174" d="M91.748,122.29,57.783,88.325a5.438,5.438,0,1,1,7.691-7.691l-8.746-8.745a5.426,5.426,0,0,1-1.6-3.848,5.586,5.586,0,0,1,.069-.871,5.431,5.431,0,0,1,8.7-3.421l-3.329-3.329a5.44,5.44,0,0,1-1.6-3.853,5.2,5.2,0,0,1,.073-.885,5.441,5.441,0,0,1,9.218-2.956l3.811,3.811a5.438,5.438,0,1,1,7.691-7.691l22.072,22.073.062-.088a9.945,9.945,0,0,1,14.078.011l10.292,10.292a10.562,10.562,0,0,1,3.092,7.453l.006,6.439a11.365,11.365,0,0,0,3.331,8.027l2.3,2.295L108.748,131.6l-2.933-2.933a11.368,11.368,0,0,0-7.3-3.305,10.549,10.549,0,0,1-6.772-3.071Zm0,0" fill="#fecbaa"/>
      <path id="Trazado_126175" data-name="Trazado 126175" d="M107.042,133.3l29.795-29.795a2.513,2.513,0,0,1,3.555,0L151,114.119a2.515,2.515,0,0,1,0,3.555l-29.8,29.8a2.515,2.515,0,0,1-3.555,0l-10.611-10.612a2.513,2.513,0,0,1,0-3.555Zm0,0" fill="#fdd559"/>
      <path id="Trazado_126176" data-name="Trazado 126176" d="M62.248,122.294,96.212,88.329a5.439,5.439,0,1,0-7.692-7.691l8.746-8.746a5.435,5.435,0,0,0-7.174-8.14l3.329-3.329a5.438,5.438,0,0,0,1.6-3.851,5.187,5.187,0,0,0-.073-.885,5.418,5.418,0,0,0-4.5-4.484,5.438,5.438,0,0,0-4.719,1.526l-3.811,3.811a5.437,5.437,0,0,0,1.527-4.717,5.383,5.383,0,0,0-1.52-2.98,5.444,5.444,0,0,0-7.7.006L52.153,70.923l-.062-.087a9.945,9.945,0,0,0-14.078.011L27.721,81.139a10.557,10.557,0,0,0-3.092,7.453l-.007,6.439a11.357,11.357,0,0,1-3.33,8.027L19,105.352l26.25,26.25,2.934-2.933a11.368,11.368,0,0,1,7.3-3.305,10.56,10.56,0,0,0,6.772-3.071Zm0,0" fill="#fecbaa"/>
      <path id="Trazado_126177" data-name="Trazado 126177" d="M46.953,133.307l-29.8-29.8a2.513,2.513,0,0,0-3.555,0L2.99,114.123a2.515,2.515,0,0,0,0,3.555l29.8,29.795a2.513,2.513,0,0,0,3.555,0l10.612-10.611a2.515,2.515,0,0,0,0-3.555Zm0,0" fill="#ff84a7"/>
      <path id="Trazado_126178" data-name="Trazado 126178" d="M98.721,40.893V88.927a5.439,5.439,0,1,1-10.877,0V101.3a5.435,5.435,0,0,1-10.828.683v4.708a5.437,5.437,0,0,1-1.594,3.853,5.1,5.1,0,0,1-.677.575,5.44,5.44,0,0,1-8.609-4.427V101.3a5.438,5.438,0,1,1-10.876,0V70.078l-.106.019a9.947,9.947,0,0,1-9.947-9.962V45.58a10.565,10.565,0,0,1,3.083-7.457l4.548-4.556a11.365,11.365,0,0,0,3.32-8.032V22.29H93.282v4.148a11.376,11.376,0,0,0,2.821,7.5,10.551,10.551,0,0,1,2.618,6.96Zm0,0" fill="#fedfc5"/>
      <path id="Trazado_126179" data-name="Trazado 126179" d="M96.218,80.632a5.443,5.443,0,0,0-7.7.006l8.746-8.746a5.435,5.435,0,0,0-7.174-8.14l3.329-3.329a5.437,5.437,0,0,0,1.6-3.851,5.07,5.07,0,0,0-.073-.885,5.441,5.441,0,0,0-9.217-2.957l-3.811,3.811a5.438,5.438,0,1,0-7.691-7.691L52.153,70.923l-.062-.087a9.908,9.908,0,0,0-9.007-2.707,14.595,14.595,0,0,0,7.663,5.8V101.3a9.962,9.962,0,0,0,11.894,9.77,9.969,9.969,0,0,0,5.77,5.065l27.8-27.8a5.437,5.437,0,0,0,.007-7.7Zm0,0" fill="#ffae85"/>
      <path id="Trazado_126180" data-name="Trazado 126180" d="M103.229,88.927V69.718a9.956,9.956,0,0,0-1.329,1.116l-.061.087L79.766,48.848a5.444,5.444,0,0,0-7.7-.006,5.443,5.443,0,0,0,.006,7.7l-3.811-3.811a5.436,5.436,0,0,0-9.218,2.957,5.186,5.186,0,0,0-.072.885,5.433,5.433,0,0,0,1.6,3.851L63.9,63.749a5.436,5.436,0,0,0-7.175,8.14l8.746,8.746a5.438,5.438,0,1,0-7.69,7.691L80.534,111.08a9.988,9.988,0,0,0,1.869.175,9.862,9.862,0,0,0,5.821-1.883,9.948,9.948,0,0,0,4.129-8.075V98.844q.46.042.927.042a9.967,9.967,0,0,0,9.949-9.96Zm0,0" fill="#ffae85"/>
      <path id="Trazado_126181" data-name="Trazado 126181" d="M98.721,40.893V88.927a5.44,5.44,0,0,1-5.439,5.447c-.081,0-.168,0-.256-.006a5.38,5.38,0,0,1-2.92-1.022s0,0-.007,0a5.436,5.436,0,0,1-2.256-4.415V101.3a5.435,5.435,0,0,1-10.828.683v4.708a5.437,5.437,0,0,1-1.594,3.853,5.1,5.1,0,0,1-.677.575,5.44,5.44,0,0,1-8.609-4.427V101.3a5.438,5.438,0,1,1-10.876,0V70.078l-.106.019a9.947,9.947,0,0,1-9.947-9.962V45.58a10.565,10.565,0,0,1,3.083-7.457l4.548-4.556a11.387,11.387,0,0,0,3.32-8.032V22.289H93.282v4.148a10.247,10.247,0,0,0,.358,2.807A11.3,11.3,0,0,0,96.1,33.933a10.637,10.637,0,0,1,2.618,6.96Zm0,0" fill="#fedfc5"/>
      <path id="Trazado_126182" data-name="Trazado 126182" d="M98.721,40.893V88.927a5.44,5.44,0,0,1-5.439,5.447c-.081,0-.168,0-.256-.006a5.38,5.38,0,0,1-2.92-1.022L90.2,47.059a7.1,7.1,0,0,0-.181-1.284A20.922,20.922,0,0,0,69.089,28.891H55.651a11.326,11.326,0,0,0,.508-3.357V22.289H93.282v4.148a10.247,10.247,0,0,0,.358,2.807A11.3,11.3,0,0,0,96.1,33.933a10.637,10.637,0,0,1,2.618,6.96Zm0,0" fill="#fecbaa"/>
      <path id="Trazado_126183" data-name="Trazado 126183" d="M95.694,22.291H53.555a2.514,2.514,0,0,1-2.513-2.514V4.77a2.514,2.514,0,0,1,2.513-2.514H95.694A2.514,2.514,0,0,1,98.207,4.77V19.776A2.514,2.514,0,0,1,95.694,22.291Zm0,0" fill="#83d9ff"/>
      <path id="Trazado_126184" data-name="Trazado 126184" d="M63.272,134.716l-.452,2.21.436-2.212a2.256,2.256,0,1,0-.872,4.426l.041.008a2.3,2.3,0,0,0,.426.041,2.257,2.257,0,0,0,.421-4.473Zm0,0"/>
      <path id="Trazado_126185" data-name="Trazado 126185" d="M80.52,135.441l.224,2.244-.231-2.243a2.256,2.256,0,0,0,.228,4.5c.078,0,.156,0,.234-.012l.062-.007a2.256,2.256,0,0,0-.517-4.482Zm0,0"/>
      <path id="Trazado_126186" data-name="Trazado 126186" d="M71.884,135.725h-.033a2.243,2.243,0,0,0-2.338,2.154,2.268,2.268,0,0,0,2.167,2.355c.035,0,.069,0,.1,0a2.256,2.256,0,0,0,.1-4.509Zm0,0"/>
      <path id="Trazado_126187" data-name="Trazado 126187" d="M54.94,132.424l-.028-.011a2.243,2.243,0,0,0-2.872,1.365,2.263,2.263,0,1,0,2.9-1.355Zm0,0"/>
      <path id="Trazado_126188" data-name="Trazado 126188" d="M89.034,133.862l.556,2.187-.563-2.184a2.256,2.256,0,1,0,1.126,4.368l.06-.015a2.256,2.256,0,0,0-1.178-4.355Zm0,0"/>
      <path id="Trazado_126189" data-name="Trazado 126189" d="M97.189,131.017l.894,2.07-.9-2.068a2.256,2.256,0,1,0,1.8,4.137l.055-.025a2.256,2.256,0,0,0-1.849-4.115Zm0,0"/>
      <path id="Trazado_126190" data-name="Trazado 126190" d="M46.323,28.183a2.257,2.257,0,1,0-1.054-4.249l-.027.014a2.253,2.253,0,0,0,1.081,4.234Zm0,0"/>
      <path id="Trazado_126191" data-name="Trazado 126191" d="M20.229,53.379a2.256,2.256,0,0,0,3.047-.951l.04-.079a2.256,2.256,0,1,0-3.087,1.029Zm0,0"/>
      <path id="Trazado_126192" data-name="Trazado 126192" d="M17.053,61.866a2.253,2.253,0,0,0,2.86-1.413l.029-.089a2.257,2.257,0,1,0-2.889,1.5Zm0,0"/>
      <path id="Trazado_126193" data-name="Trazado 126193" d="M24.679,45.487a2.254,2.254,0,0,0,3.151-.5l.029-.04a2.256,2.256,0,0,0-3.67-2.624l1.818,1.337-1.825-1.328a2.256,2.256,0,0,0,.5,3.151Zm0,0"/>
      <path id="Trazado_126194" data-name="Trazado 126194" d="M38.665,33.055a2.266,2.266,0,1,0-1.307-4.1L37.3,29a2.258,2.258,0,0,0,1.363,4.058Zm0,0"/>
      <path id="Trazado_126195" data-name="Trazado 126195" d="M15.039,96.077a2.256,2.256,0,1,0-.029-.1l.029.1Zm0,0"/>
      <path id="Trazado_126196" data-name="Trazado 126196" d="M31.85,39a2.263,2.263,0,1,0-1.576-3.868l-.038.038A2.254,2.254,0,0,0,31.85,39Zm0,0"/>
      <path id="Trazado_126197" data-name="Trazado 126197" d="M17.532,86.242a2.256,2.256,0,0,0-4.478.558l.013.09a2.256,2.256,0,0,0,4.465-.649Zm0,0"/>
      <path id="Trazado_126198" data-name="Trazado 126198" d="M14.7,79.781h.068a2.256,2.256,0,0,0,2.254-2.19l0-.1A2.256,2.256,0,1,0,14.7,79.781Zm0,0"/>
      <path id="Trazado_126199" data-name="Trazado 126199" d="M15.193,70.734a2.328,2.328,0,0,0,.4.035,2.258,2.258,0,0,0,2.218-1.859c.006-.033.011-.066.015-.1a2.256,2.256,0,1,0-2.634,1.922Zm0,0"/>
      <path id="Trazado_126200" data-name="Trazado 126200" d="M121.606,46.2a2.256,2.256,0,0,0,3.714-2.561l-1.875,1.255,1.868-1.265a2.256,2.256,0,1,0-3.735,2.532Zm0,0"/>
      <path id="Trazado_126201" data-name="Trazado 126201" d="M133.126,68.9a2.255,2.255,0,0,0-1.989,2.494l.012.1a2.257,2.257,0,0,0,2.231,1.936,2.305,2.305,0,0,0,.322-.022,2.272,2.272,0,0,0-.576-4.506Zm0,0"/>
      <path id="Trazado_126202" data-name="Trazado 126202" d="M129.32,62.534l.009.029a2.256,2.256,0,0,0,2.163,1.62,2.222,2.222,0,0,0,.637-.093,2.256,2.256,0,0,0,1.529-2.8l-.009-.029a2.256,2.256,0,1,0-4.328,1.274Zm0,0"/>
      <path id="Trazado_126203" data-name="Trazado 126203" d="M126.133,54.1a2.268,2.268,0,0,0,2.035,1.267,2.254,2.254,0,0,0,2.02-3.244l-2.044.953,2.042-.958a2.256,2.256,0,0,0-4.085,1.915Zm0,0"/>
      <path id="Trazado_126204" data-name="Trazado 126204" d="M115.924,39.155a2.272,2.272,0,1,0-.068-.072Zm0,0"/>
      <path id="Trazado_126205" data-name="Trazado 126205" d="M133.859,78.32a2.27,2.27,0,0,0-.193,4.535c.043,0,.085,0,.128,0a2.256,2.256,0,0,0,2.25-2.131l0-.093A2.253,2.253,0,0,0,133.859,78.32Zm0,0"/>
      <path id="Trazado_126206" data-name="Trazado 126206" d="M101.5,28.077l.054.029a2.247,2.247,0,0,0,3.038-.927,2.263,2.263,0,0,0-.916-3.054L102.583,26.1l1.084-1.979a2.256,2.256,0,1,0-2.169,3.956Zm0,0"/>
      <path id="Trazado_126207" data-name="Trazado 126207" d="M109.128,33.025l.035.027a2.256,2.256,0,0,0,2.727-3.6l-.015-.011a2.256,2.256,0,1,0-2.747,3.579Zm0,0"/>
      <path id="Trazado_126208" data-name="Trazado 126208" d="M152.608,112.471l-10.59-10.608a4.764,4.764,0,0,0-6.745,0l-.246.246-.7-.7a9.105,9.105,0,0,1-1.975-2.955,2.2,2.2,0,0,0-.161-.418,9.122,9.122,0,0,1-.525-3.064v-3a2.272,2.272,0,1,0-.014-4.01,12.718,12.718,0,0,0-3.728-8.483L117.655,69.19a12.19,12.19,0,0,0-15.587-1.4l-1.09-1.1v-25.8A12.81,12.81,0,0,0,97.8,32.446a9.1,9.1,0,0,1-2.261-6.009v-1.89h.155a4.775,4.775,0,0,0,4.769-4.77V4.77A4.775,4.775,0,0,0,95.694,0H53.555a4.775,4.775,0,0,0-4.769,4.77V19.776a4.775,4.775,0,0,0,4.769,4.77H53.9v.989a9.051,9.051,0,0,1-2.662,6.437L46.693,36.53a12.727,12.727,0,0,0-3.742,9.05V60.134a12.164,12.164,0,0,0,1.31,5.5,12.113,12.113,0,0,0-7.915,3.558L26.072,79.482a12.729,12.729,0,0,0-3.742,9.05v6.443a9.05,9.05,0,0,1-2.661,6.437l-.687.689-.008.007-.244-.246a4.764,4.764,0,0,0-6.745,0L1.392,112.471a4.782,4.782,0,0,0,0,6.746l3.627,3.632a2.256,2.256,0,1,0,3.192-3.188l-3.626-3.633a.262.262,0,0,1,0-.37L15.176,105.05a.253.253,0,0,1,.358,0l1.841,1.845h0l25.14,25.183,2.816,2.822a.262.262,0,0,1,0,.37l-10.59,10.608a.253.253,0,0,1-.36,0L14.6,126.059a2.256,2.256,0,1,0-3.193,3.188l19.787,19.82a4.764,4.764,0,0,0,6.745,0l10.59-10.608a4.781,4.781,0,0,0,0-6.745l-.115-.115,1.336-1.338a9.065,9.065,0,0,1,5.836-2.646,12.765,12.765,0,0,0,8.214-3.725l9.728-9.75a7.724,7.724,0,0,0,5.583-5.884A7.692,7.692,0,0,0,90.1,101.3V95.939a7.688,7.688,0,0,0,10.876-7.012V73.091l6.939,6.973a2.256,2.256,0,0,0,3.2-3.183l-5.785-5.814a7.683,7.683,0,0,1,9.133,1.311l10.274,10.29a8.247,8.247,0,0,1,2.424,5.863v6.443a13.535,13.535,0,0,0,3.979,9.625l.7.7-3.272,3.278L108.776,128.4l-1.1-1.106-.034-.033-.194-.2a13.583,13.583,0,0,0-8.736-3.96,8.272,8.272,0,0,1-5.32-2.414l-7.413-7.373a2.256,2.256,0,1,0-3.182,3.2l7.408,7.367a12.765,12.765,0,0,0,8.215,3.725,9.069,9.069,0,0,1,5.835,2.645l.109.109a2.17,2.17,0,0,0,.187.188l1.04,1.041-.115.116a4.781,4.781,0,0,0,0,6.745l10.59,10.608a4.765,4.765,0,0,0,6.746,0l29.8-29.85a4.781,4.781,0,0,0,0-6.745ZM133.183,90.04l-.042-.007-.411-.083ZM60.6,120.7a8.257,8.257,0,0,1-5.312,2.41,13.583,13.583,0,0,0-8.737,3.96L45.224,128.4l-1.2-1.2c-.015-.015-.031-.032-.046-.046L22.161,105.3l.7-.7a13.535,13.535,0,0,0,3.979-9.625V88.532a8.242,8.242,0,0,1,2.424-5.863l10.274-10.29a7.682,7.682,0,0,1,9.144-1.3l-5.795,5.8a2.256,2.256,0,0,0,3.193,3.188L53,73.132V101.3a7.692,7.692,0,0,0,11.034,6.94,7.731,7.731,0,0,0,3.823,5.194ZM96.466,88.928a3.183,3.183,0,1,1-6.366,0V63.764a2.256,2.256,0,0,0-4.512,0V101.3a3.181,3.181,0,0,1-6.319.528V63.738a2.28,2.28,0,0,0-4.559.026v37.531a7.735,7.735,0,0,0,.047.846v4.546a3.182,3.182,0,1,1-6.365,0V63.711a2.256,2.256,0,0,0-4.513,0v37.584a3.182,3.182,0,1,1-6.365,0V59.332a2.256,2.256,0,1,0-4.512,0v7.762a2.215,2.215,0,0,0-.543.26,7.72,7.72,0,0,1-5-7.22V45.58a8.247,8.247,0,0,1,2.424-5.863l4.548-4.556a13.531,13.531,0,0,0,3.981-9.625v-.989H62.95a2.256,2.256,0,0,0,0-4.512H53.555a.258.258,0,0,1-.257-.258V4.77a.258.258,0,0,1,.257-.258H95.693a.258.258,0,0,1,.258.258V19.776a.258.258,0,0,1-.258.258H73.541a2.256,2.256,0,1,0,0,4.512H91.027v1.89a13.622,13.622,0,0,0,3.379,8.985,8.294,8.294,0,0,1,2.06,5.472Zm52.948,27.1-29.8,29.85a.241.241,0,0,1-.18.075.245.245,0,0,1-.18-.075l-10.59-10.608a.262.262,0,0,1,0-.37l1.7-1.708h0l17.3-17.328,10.794-10.813a.252.252,0,0,1,.358,0l10.591,10.608A.262.262,0,0,1,149.414,116.029Zm0,0"/>
      <path id="Trazado_126209" data-name="Trazado 126209" d="M60.7,9.867a2.406,2.406,0,1,0,2.4,2.406A2.407,2.407,0,0,0,60.7,9.867Zm0,0"/>
      <path id="Trazado_126210" data-name="Trazado 126210" d="M139.383,112.7a2.406,2.406,0,1,0,2.4,2.406A2.407,2.407,0,0,0,139.383,112.7Zm0,0"/>
      <path id="Trazado_126211" data-name="Trazado 126211" d="M37.593,135.714a2.4,2.4,0,1,0-2.4,2.406A2.407,2.407,0,0,0,37.593,135.714Zm0,0"/>
    </g>
  </g>
</svg>
