<svg xmlns="http://www.w3.org/2000/svg" xmlns:xlink="http://www.w3.org/1999/xlink" width="85" height="85" viewBox="0 0 85 85">
  <defs>
    <clipPath id="clip-path">
      <rect id="Rect치ngulo_34179" data-name="Rect치ngulo 34179" width="67" height="67" transform="translate(189 4865)" fill="#ffd41c"/>
    </clipPath>
  </defs>
  <g id="Grupo_99206" data-name="Grupo 99206" transform="translate(-180 -10319.338)">
    <rect id="Rect치ngulo_34163" data-name="Rect치ngulo 34163" width="85" height="85" transform="translate(180 10319.338)" fill="#764cf0"/>
    <g id="Enmascarar_grupo_103" data-name="Enmascarar grupo 103" transform="translate(0 5463.338)" clip-path="url(#clip-path)">
      <g id="ganancias" transform="translate(189 4865)">
        <g id="Grupo_91434" data-name="Grupo 91434">
          <path id="Trazado_115295" data-name="Trazado 115295" d="M34.892,46.977H3.851a2.87,2.87,0,0,1-2.87-2.87V40.5a2.87,2.87,0,0,1,2.87-2.87H34.892a2.87,2.87,0,0,1,2.87,2.87v3.612A2.87,2.87,0,0,1,34.892,46.977Z" fill="#f1e64c"/>
          <path id="Trazado_115296" data-name="Trazado 115296" d="M9.823,46.978H3.852A2.87,2.87,0,0,1,.981,44.108V40.5a2.87,2.87,0,0,1,2.871-2.869H9.823A2.87,2.87,0,0,0,6.954,40.5v3.613A2.87,2.87,0,0,0,9.823,46.978Z" fill="#ffc250"/>
          <path id="Trazado_115297" data-name="Trazado 115297" d="M37.762,41.827v2.282a2.869,2.869,0,0,1-2.87,2.868H3.851a2.869,2.869,0,0,1-2.87-2.868V41.827a2.87,2.87,0,0,0,2.87,2.87H34.892A2.87,2.87,0,0,0,37.762,41.827Z" fill="#ffc250"/>
          <path id="Trazado_115298" data-name="Trazado 115298" d="M40.21,37.627H9.169a2.87,2.87,0,0,1-2.87-2.87V31.145a2.87,2.87,0,0,1,2.87-2.87H40.21a2.87,2.87,0,0,1,2.87,2.87v3.612a2.87,2.87,0,0,1-2.87,2.87Z" fill="#f1e64c"/>
          <path id="Trazado_115299" data-name="Trazado 115299" d="M15.141,37.627H9.17A2.87,2.87,0,0,1,6.3,34.758V31.145A2.87,2.87,0,0,1,9.17,28.276h5.971a2.87,2.87,0,0,0-2.869,2.869v3.613a2.87,2.87,0,0,0,2.869,2.869Z" fill="#ffc250"/>
          <path id="Trazado_115300" data-name="Trazado 115300" d="M43.08,32.476v2.282a2.869,2.869,0,0,1-2.87,2.868H9.169A2.869,2.869,0,0,1,6.3,34.758V32.476a2.87,2.87,0,0,0,2.87,2.87H40.21a2.87,2.87,0,0,0,2.87-2.87Z" fill="#ffc250"/>
          <path id="Trazado_115301" data-name="Trazado 115301" d="M36.471,28.276H5.429a2.87,2.87,0,0,1-2.87-2.87V21.794a2.87,2.87,0,0,1,2.87-2.87H36.471a2.87,2.87,0,0,1,2.87,2.87v3.612A2.87,2.87,0,0,1,36.471,28.276Z" fill="#f1e64c"/>
          <path id="Trazado_115302" data-name="Trazado 115302" d="M11.4,28.276H5.431A2.87,2.87,0,0,1,2.56,25.407V21.794a2.87,2.87,0,0,1,2.871-2.869H11.4a2.87,2.87,0,0,0-2.869,2.869v3.613A2.87,2.87,0,0,0,11.4,28.276Z" fill="#ffc250"/>
          <path id="Trazado_115303" data-name="Trazado 115303" d="M39.341,23.125v2.282a2.869,2.869,0,0,1-2.87,2.868H5.43a2.869,2.869,0,0,1-2.87-2.868V23.125a2.87,2.87,0,0,0,2.87,2.87H36.471A2.87,2.87,0,0,0,39.341,23.125Z" fill="#ffc250"/>
          <path id="Trazado_115304" data-name="Trazado 115304" d="M37.51,56.328H6.468a2.87,2.87,0,0,1-2.87-2.87V49.847a2.87,2.87,0,0,1,2.87-2.87H37.51a2.87,2.87,0,0,1,2.87,2.87v3.612A2.87,2.87,0,0,1,37.51,56.328Z" fill="#f1e64c"/>
          <path id="Trazado_115305" data-name="Trazado 115305" d="M40.379,51.178V53.46a2.869,2.869,0,0,1-2.87,2.868H6.469A2.869,2.869,0,0,1,3.6,53.46V51.178a2.87,2.87,0,0,0,2.87,2.87H37.51A2.87,2.87,0,0,0,40.379,51.178Z" fill="#ffc250"/>
          <path id="Trazado_115306" data-name="Trazado 115306" d="M12.44,56.329H6.469A2.87,2.87,0,0,1,3.6,53.459V49.847a2.87,2.87,0,0,1,2.871-2.869H12.44a2.87,2.87,0,0,0-2.869,2.869v3.612A2.87,2.87,0,0,0,12.44,56.329Z" fill="#ffc250"/>
          <path id="Trazado_115307" data-name="Trazado 115307" d="M35.547,65.679H4.505a2.87,2.87,0,0,1-2.87-2.87V59.2a2.87,2.87,0,0,1,2.87-2.87H35.547a2.87,2.87,0,0,1,2.87,2.87v3.612A2.87,2.87,0,0,1,35.547,65.679Z" fill="#f1e64c"/>
          <path id="Trazado_115308" data-name="Trazado 115308" d="M38.417,60.528v2.282a2.869,2.869,0,0,1-2.87,2.868H4.506a2.869,2.869,0,0,1-2.87-2.868V60.528a2.87,2.87,0,0,0,2.87,2.87H35.547A2.87,2.87,0,0,0,38.417,60.528Z" fill="#ffc250"/>
          <path id="Trazado_115309" data-name="Trazado 115309" d="M10.478,65.679H4.506A2.87,2.87,0,0,1,1.636,62.81V59.2a2.87,2.87,0,0,1,2.871-2.869h5.971A2.87,2.87,0,0,0,7.608,59.2V62.81A2.87,2.87,0,0,0,10.478,65.679Z" fill="#ffc250"/>
          <g id="Grupo_91431" data-name="Grupo 91431">
            <circle id="Elipse_5172" data-name="Elipse 5172" cx="18.39" cy="18.39" r="18.39" transform="translate(29.238 28.899)" fill="#f1e64c"/>
            <g id="Grupo_91430" data-name="Grupo 91430">
              <path id="Trazado_115310" data-name="Trazado 115310" d="M49.183,65.614q-.768.066-1.556.066a18.39,18.39,0,1,1,0-36.78q.787,0,1.556.066a18.39,18.39,0,0,0,0,36.649Z" fill="#ffc250"/>
              <circle id="Elipse_5173" data-name="Elipse 5173" cx="12.418" cy="12.418" r="12.418" transform="translate(35.21 34.871)" fill="#ffc250"/>
            </g>
          </g>
          <g id="Grupo_91432" data-name="Grupo 91432">
            <path id="Trazado_115311" data-name="Trazado 115311" d="M25.827,40.568V25.429h2.588a4.081,4.081,0,0,0,3.535-6.122L23.655,4.941a4.081,4.081,0,0,0-7.069,0l-8.3,14.365a4.081,4.081,0,0,0,3.534,6.123h2.589v15.14a2.568,2.568,0,0,0,2.568,2.568h6.276a2.568,2.568,0,0,0,2.568-2.568Z" fill="#95d6a4"/>
            <path id="Trazado_115312" data-name="Trazado 115312" d="M19.346,43.137H16.982a2.567,2.567,0,0,1-2.567-2.567V25.428h-2.59a4.08,4.08,0,0,1-3.533-6.122L16.586,4.941A4.043,4.043,0,0,1,20.12,2.9a2.726,2.726,0,0,0-2.367,2.039L12.2,19.306c-1.054,2.721.263,6.122,2.367,6.122h1.064a2,2,0,0,1,2,2V40.568c0,1.419.771,2.569,1.721,2.569Z" fill="#78c2a4"/>
          </g>
          <g id="Grupo_91433" data-name="Grupo 91433">
            <path id="Trazado_115313" data-name="Trazado 115313" d="M48.853,21.576l-.075-.28a1.946,1.946,0,0,1,1.248-2.344L53,17.932a1.946,1.946,0,0,1,2.51,1.337l.186.7a1.946,1.946,0,0,1-1.506,2.413l-3.088.6a1.945,1.945,0,0,1-2.253-1.406Z" fill="#f7f493"/>
            <path id="Trazado_115314" data-name="Trazado 115314" d="M44.1,13.191l-.205-.205a1.946,1.946,0,0,1-.091-2.654L45.87,7.96a1.946,1.946,0,0,1,2.842-.1l.51.51a1.946,1.946,0,0,1-.1,2.842l-2.372,2.067a1.946,1.946,0,0,1-2.654-.091Z" fill="#f7f493"/>
            <path id="Trazado_115315" data-name="Trazado 115315" d="M35.788,8.307l-.28-.075A1.946,1.946,0,0,1,34.1,5.979l.6-3.088A1.946,1.946,0,0,1,37.12,1.386l.7.186a1.946,1.946,0,0,1,1.337,2.51l-1.02,2.976a1.945,1.945,0,0,1-2.344,1.248Z" fill="#f7f493"/>
          </g>
        </g>
        <g id="Grupo_91435" data-name="Grupo 91435">
          <path id="Trazado_115316" data-name="Trazado 115316" d="M61.731,34.009A.981.981,0,1,0,60.3,35.355a17.407,17.407,0,1,1-2.816-2.414A.981.981,0,0,0,58.6,31.325,19.382,19.382,0,0,0,42.991,28.48a3.835,3.835,0,0,0-2.781-1.186h-.386a3.827,3.827,0,0,0,.5-1.888V21.794a3.856,3.856,0,0,0-3.851-3.851H32.3L24.505,4.451A5.013,5.013,0,0,0,20.12,1.919h0a5.009,5.009,0,0,0-4.382,2.53L7.945,17.943H5.429a3.856,3.856,0,0,0-3.851,3.851v3.612a3.856,3.856,0,0,0,3.851,3.851h.385a3.827,3.827,0,0,0-.5,1.888v3.612a3.827,3.827,0,0,0,.5,1.888H3.851A3.855,3.855,0,0,0,0,40.5v3.612a3.857,3.857,0,0,0,3.151,3.786,3.827,3.827,0,0,0-.534,1.953v3.612a3.827,3.827,0,0,0,.627,2.1A3.857,3.857,0,0,0,.654,59.2v3.612a3.856,3.856,0,0,0,3.851,3.851H35.547a3.865,3.865,0,0,0,3.4-2.054,19.37,19.37,0,0,0,22.78-30.6ZM4.58,53.458V49.846a1.89,1.89,0,0,1,1.888-1.888h21.8a19.24,19.24,0,0,0,1.744,7.388H6.468A1.89,1.89,0,0,1,4.58,53.458ZM40.494,29.279a19.482,19.482,0,0,0-9.043,7.366H26.809V29.257h13.4a1.89,1.89,0,0,1,.284.022Zm-2.135-7.485v3.612a1.89,1.89,0,0,1-1.888,1.888H26.809V26.41h1.606a5.065,5.065,0,0,0,4.855-6.5h3.2a1.891,1.891,0,0,1,1.888,1.888ZM3.541,25.406V21.794a1.89,1.89,0,0,1,1.888-1.888H6.97a5,5,0,0,0-.09,2.539.981.981,0,0,0,1.915-.431A3.032,3.032,0,0,1,9.141,19.8l8.3-14.366a3.066,3.066,0,0,1,2.682-1.549h0a3.07,3.07,0,0,1,2.686,1.55L31.1,19.8a3.1,3.1,0,0,1-2.685,4.65H25.828a.981.981,0,0,0-.981.981V40.568a1.589,1.589,0,0,1-1.587,1.587H16.983A1.589,1.589,0,0,1,15.4,40.568V25.429a.981.981,0,0,0-.981-.981H11.826a3.119,3.119,0,0,1-1.069-.184.981.981,0,1,0-.671,1.845,5.073,5.073,0,0,0,1.74.3h1.607v.884h-8a1.89,1.89,0,0,1-1.888-1.888Zm3.74,9.351V31.145a1.89,1.89,0,0,1,1.888-1.888h4.263v7.388H9.169A1.89,1.89,0,0,1,7.281,34.757Zm-5.318,9.35V40.5a1.89,1.89,0,0,1,1.888-1.887h9.582v1.96a3.554,3.554,0,0,0,3.55,3.55h6.276a3.554,3.554,0,0,0,3.55-3.55v-1.96h3.5A19.229,19.229,0,0,0,28.3,46H3.851a1.89,1.89,0,0,1-1.888-1.888ZM35.547,64.7H4.505a1.89,1.89,0,0,1-1.888-1.888V59.2a1.89,1.89,0,0,1,1.888-1.888H31.055a19.524,19.524,0,0,0,6.188,6.326A1.893,1.893,0,0,1,35.547,64.7Z"/>
          <path id="Trazado_115317" data-name="Trazado 115317" d="M49.565,46.271c-.347-.1-.7-.207-1.058-.318V41.6a4.148,4.148,0,0,1,1.731.634.981.981,0,0,0,1.181-1.568,6.207,6.207,0,0,0-2.912-1.041V38.78a.981.981,0,0,0-1.963,0v.911c-.189.032-.383.072-.58.121a4.1,4.1,0,0,0-3.147,3.216A3.162,3.162,0,0,0,44.2,46.261a11.62,11.62,0,0,0,2.342,1.1V52.87a5.66,5.66,0,0,1-2.8-.812.981.981,0,0,0-.931,1.728,7.51,7.51,0,0,0,3.732,1.048V55.8a.981.981,0,0,0,1.963,0V54.771a5,5,0,0,0,4.414-4.032c.285-2.038-1.033-3.792-3.357-4.468Zm-4.3-1.658a1.215,1.215,0,0,1-.515-1.261,2.107,2.107,0,0,1,1.684-1.634l.108-.025v3.563A8.213,8.213,0,0,1,45.268,44.612Zm5.71,5.855a2.979,2.979,0,0,1-2.47,2.307V48l.509.151C50.412,48.561,51.126,49.4,50.978,50.467Z"/>
          <path id="Trazado_115318" data-name="Trazado 115318" d="M47.628,33.89a13.4,13.4,0,1,0,13.4,13.4A13.415,13.415,0,0,0,47.628,33.89Zm0,24.836A11.437,11.437,0,1,1,59.065,47.289,11.45,11.45,0,0,1,47.628,58.726Z"/>
          <path id="Trazado_115319" data-name="Trazado 115319" d="M47.83,21.55l.075.28h0A2.938,2.938,0,0,0,50.735,24a2.9,2.9,0,0,0,.559-.054l3.088-.6a2.927,2.927,0,0,0,2.265-3.63l-.186-.7A2.927,2.927,0,0,0,52.684,17l-2.976,1.02A2.936,2.936,0,0,0,47.83,21.55Zm2.515-1.67,2.976-1.02a.964.964,0,0,1,1.244.662l.186.7a.964.964,0,0,1-.746,1.2l-3.088.6a.966.966,0,0,1-1.116-.7l-.075-.28a.967.967,0,0,1,.619-1.162Z"/>
          <path id="Trazado_115320" data-name="Trazado 115320" d="M43.4,13.885a2.936,2.936,0,0,0,3.993.137l2.372-2.067a2.927,2.927,0,0,0,.147-4.276l-.51-.51a2.927,2.927,0,0,0-4.276.147L43.062,9.687A2.936,2.936,0,0,0,43.2,13.68Zm1.138-2.908L46.61,8.605a.954.954,0,0,1,.694-.33h.034a.954.954,0,0,1,.68.282l.51.51a.964.964,0,0,1-.048,1.409l-2.372,2.067a.967.967,0,0,1-1.315-.045l-.2-.2a.967.967,0,0,1-.045-1.315Z"/>
          <path id="Trazado_115321" data-name="Trazado 115321" d="M35.535,9.255h0Z"/>
          <path id="Trazado_115322" data-name="Trazado 115322" d="M35.254,9.18l.28.075a2.907,2.907,0,0,0,.753.1,2.939,2.939,0,0,0,2.774-1.977L40.081,4.4A2.927,2.927,0,0,0,38.07.624l-.7-.186A2.927,2.927,0,0,0,33.744,2.7l-.6,3.088a2.936,2.936,0,0,0,2.115,3.39Zm-.189-3.013.6-3.088a.966.966,0,0,1,.944-.78.976.976,0,0,1,.252.033l.7.186a.964.964,0,0,1,.663,1.244L37.2,6.74a.967.967,0,0,1-1.162.619h0l-.28-.075a.967.967,0,0,1-.7-1.117Z"/>
        </g>
      </g>
    </g>
  </g>
</svg>
