<svg xmlns="http://www.w3.org/2000/svg" xmlns:xlink="http://www.w3.org/1999/xlink" width="134" height="134" viewBox="0 0 134 134">
  <defs>
    <clipPath id="clip-path">
      <rect id="Rectángulo_35206" data-name="Rectángulo 35206" width="134" height="134" transform="translate(866 16610)" fill="#26d19e"/>
    </clipPath>
  </defs>
  <g id="Enmascarar_grupo_366" data-name="Enmascarar grupo 366" transform="translate(-866 -16610)" clip-path="url(#clip-path)">
    <g id="servidor-en-la-nube" transform="translate(866 16610)">
      <path id="Trazado_125052" data-name="Trazado 125052" d="M107.563,33.656c0-.048,0-.1,0-.143A31.555,31.555,0,0,0,46.417,22.564,12.635,12.635,0,0,0,27.471,33.513c0,.02,0,.039,0,.059A27.284,27.284,0,0,0,1.963,60.8h0A27.283,27.283,0,0,0,29.246,88.079h75.509A27.283,27.283,0,0,0,132.037,60.8h0A27.287,27.287,0,0,0,107.563,33.656Z" fill="#d1e7f8"/>
      <path id="Trazado_125053" data-name="Trazado 125053" d="M1.963,103.855H132.037V126.93l-5.107,5.107H7.07L1.963,126.93Z" fill="#787680"/>
      <g id="Grupo_97617" data-name="Grupo 97617">
        <circle id="Elipse_5853" data-name="Elipse 5853" cx="5.854" cy="5.854" r="5.854" transform="translate(35.147 112.093)" fill="#57565c"/>
        <circle id="Elipse_5854" data-name="Elipse 5854" cx="5.854" cy="5.854" r="5.854" transform="translate(53.138 112.093)" fill="#57565c"/>
        <circle id="Elipse_5855" data-name="Elipse 5855" cx="5.854" cy="5.854" r="5.854" transform="translate(17.159 112.093)" fill="#57565c"/>
      </g>
      <circle id="Elipse_5856" data-name="Elipse 5856" cx="5.854" cy="5.854" r="5.854" transform="translate(29.913 112.093)" fill="#ffe477"/>
      <circle id="Elipse_5857" data-name="Elipse 5857" cx="5.854" cy="5.854" r="5.854" transform="translate(47.903 112.093)" fill="#91dc5a"/>
      <circle id="Elipse_5858" data-name="Elipse 5858" cx="5.854" cy="5.854" r="5.854" transform="translate(11.925 112.093)" fill="#ff7956"/>
      <rect id="Rectángulo_35611" data-name="Rectángulo 35611" width="11.257" height="15.776" transform="translate(61.373 88.079)" fill="#57a4ff"/>
      <g id="Grupo_97618" data-name="Grupo 97618">
        <path id="Trazado_125054" data-name="Trazado 125054" d="M47.96,20.875a12.574,12.574,0,0,1,6.309,1.689A31.585,31.585,0,0,1,79.94,2.2a31.594,31.594,0,0,0-32.854,18.7C47.374,20.886,47.666,20.875,47.96,20.875Z" fill="#b3d8f4"/>
        <path id="Trazado_125055" data-name="Trazado 125055" d="M9.814,60.8h0A27.283,27.283,0,0,1,35.324,33.572c0-.02,0-.039,0-.059A12.643,12.643,0,0,1,44.031,21.5a12.641,12.641,0,0,0-16.56,12.015c0,.02,0,.039,0,.059A27.283,27.283,0,0,0,1.963,60.8h0A27.283,27.283,0,0,0,29.246,88.079H37.1A27.283,27.283,0,0,1,9.814,60.8Z" fill="#b3d8f4"/>
      </g>
      <path id="Trazado_125056" data-name="Trazado 125056" d="M9.814,126.93V103.855H1.963V126.93l5.107,5.107h7.852Z" fill="#57565c"/>
      <path id="Trazado_125057" data-name="Trazado 125057" d="M35.148,117.946a5.853,5.853,0,0,1,3.236-5.237,5.854,5.854,0,1,0,0,10.475A5.853,5.853,0,0,1,35.148,117.946Z" fill="#ffb655"/>
      <path id="Trazado_125058" data-name="Trazado 125058" d="M53.136,117.946a5.853,5.853,0,0,1,3.236-5.237,5.854,5.854,0,1,0,0,10.475A5.853,5.853,0,0,1,53.136,117.946Z" fill="#64c37d"/>
      <path id="Trazado_125059" data-name="Trazado 125059" d="M17.159,117.946a5.853,5.853,0,0,1,3.236-5.237,5.854,5.854,0,1,0,0,10.475A5.853,5.853,0,0,1,17.159,117.946Z" fill="#ff3f62"/>
      <rect id="Rectángulo_35612" data-name="Rectángulo 35612" width="5.234" height="15.776" transform="translate(61.373 88.079)" fill="#006df0"/>
      <rect id="Rectángulo_35613" data-name="Rectángulo 35613" width="3.926" height="3.926" transform="translate(61.721 79.573)"/>
      <rect id="Rectángulo_35614" data-name="Rectángulo 35614" width="3.926" height="3.926" transform="translate(68.264 79.573)"/>
      <rect id="Rectángulo_35615" data-name="Rectángulo 35615" width="3.926" height="3.926" transform="translate(55.178 79.573)"/>
      <rect id="Rectángulo_35616" data-name="Rectángulo 35616" width="3.926" height="3.926" transform="translate(74.807 79.573)"/>
      <rect id="Rectángulo_35617" data-name="Rectángulo 35617" width="14.444" height="3.926" transform="translate(109.312 123.531)"/>
      <path id="Trazado_125060" data-name="Trazado 125060" d="M29.246,90.042h75.509a29.248,29.248,0,0,0,4.736-58.109A33.52,33.52,0,0,0,45.383,19.9,14.6,14.6,0,0,0,25.61,31.776a29.246,29.246,0,0,0,3.636,58.265Zm-1.7-54.507H38.822V31.609H29.607a10.67,10.67,0,0,1,15.828-7.345l2.015,1.164.807-2.182A29.592,29.592,0,0,1,105.6,33.513l-.007,1.915,1.768.181a25.321,25.321,0,0,1-2.609,50.507H29.246a25.319,25.319,0,0,1-1.7-50.581Z"/>
      <g id="Grupo_97619" data-name="Grupo 97619">
        <path id="Trazado_125061" data-name="Trazado 125061" d="M127.457,60.8h-3.926a18.871,18.871,0,0,1-.333,3.533l3.856.737A22.8,22.8,0,0,0,127.457,60.8Z" fill="#fff"/>
        <path id="Trazado_125062" data-name="Trazado 125062" d="M126.338,67.841l-3.731-1.221a18.724,18.724,0,0,1-1.418,3.251l3.433,1.9A22.682,22.682,0,0,0,126.338,67.841Z" fill="#fff"/>
        <path id="Trazado_125063" data-name="Trazado 125063" d="M123.079,74.186l-3.167-2.32a18.864,18.864,0,0,1-15.157,7.707V83.5A22.8,22.8,0,0,0,123.079,74.186Z" fill="#fff"/>
      </g>
      <path id="Trazado_125064" data-name="Trazado 125064" d="M0,127.743,6.257,134H127.743L134,127.743V101.893H0Zm3.926-21.925H130.074v20.3l-3.957,3.957H7.883l-3.957-3.957Z"/>
      <g id="Grupo_97620" data-name="Grupo 97620">
        <rect id="Rectángulo_35618" data-name="Rectángulo 35618" width="19.891" height="3.926" transform="translate(92.518 108.435)" fill="#fff"/>
        <rect id="Rectángulo_35619" data-name="Rectángulo 35619" width="3.926" height="3.926" transform="translate(115.025 108.435)" fill="#fff"/>
        <rect id="Rectángulo_35620" data-name="Rectángulo 35620" width="3.926" height="3.926" transform="translate(121.568 108.435)" fill="#fff"/>
      </g>
      <path id="Trazado_125065" data-name="Trazado 125065" d="M35.767,125.763a7.816,7.816,0,1,0-7.816-7.816A7.825,7.825,0,0,0,35.767,125.763Zm0-11.707a3.891,3.891,0,1,1-3.891,3.891A3.9,3.9,0,0,1,35.767,114.055Z"/>
      <path id="Trazado_125066" data-name="Trazado 125066" d="M53.756,125.763a7.816,7.816,0,1,0-7.816-7.816A7.825,7.825,0,0,0,53.756,125.763Zm0-11.707a3.891,3.891,0,1,1-3.891,3.891A3.9,3.9,0,0,1,53.756,114.055Z"/>
      <path id="Trazado_125067" data-name="Trazado 125067" d="M17.778,125.763a7.816,7.816,0,1,0-7.816-7.816A7.825,7.825,0,0,0,17.778,125.763Zm0-11.707a3.891,3.891,0,1,1-3.891,3.891A3.9,3.9,0,0,1,17.778,114.055Z"/>
      <rect id="Rectángulo_35621" data-name="Rectángulo 35621" width="3.926" height="3.926" transform="translate(67.819 115.983)"/>
      <rect id="Rectángulo_35622" data-name="Rectángulo 35622" width="3.926" height="3.926" transform="translate(80.905 115.983)"/>
      <rect id="Rectángulo_35623" data-name="Rectángulo 35623" width="3.926" height="3.926" transform="translate(74.362 115.983)"/>
      <rect id="Rectángulo_35624" data-name="Rectángulo 35624" width="3.926" height="7.925" transform="translate(59.41 92.005)"/>
      <rect id="Rectángulo_35625" data-name="Rectángulo 35625" width="3.926" height="7.925" transform="translate(70.664 92.005)"/>
      <g id="Grupo_97621" data-name="Grupo 97621">
        <path id="Trazado_125068" data-name="Trazado 125068" d="M99.059,33.489l3.926,0A27.09,27.09,0,0,0,89.491,10.157l-1.968,3.4A23.152,23.152,0,0,1,99.059,33.489Z" fill="#fff"/>
        <path id="Trazado_125069" data-name="Trazado 125069" d="M80.228,6.872a27.182,27.182,0,0,0-4.214-.329v3.926a23.208,23.208,0,0,1,3.6.281Z" fill="#fff"/>
        <path id="Trazado_125070" data-name="Trazado 125070" d="M86.979,8.873a26.833,26.833,0,0,0-3.99-1.416L81.973,11.25a22.914,22.914,0,0,1,3.4,1.208Z" fill="#fff"/>
      </g>
      <path id="Trazado_125071" data-name="Trazado 125071" d="M29.246,83.5V79.573A18.8,18.8,0,0,1,10.469,60.8H6.543A22.729,22.729,0,0,0,29.246,83.5Z"/>
      <rect id="Rectángulo_35626" data-name="Rectángulo 35626" width="3.926" height="3.926" transform="translate(3.926 83.282)"/>
      <rect id="Rectángulo_35627" data-name="Rectángulo 35627" width="3.926" height="3.926" transform="translate(3.926 96.367)"/>
      <rect id="Rectángulo_35628" data-name="Rectángulo 35628" width="3.926" height="3.926" transform="translate(3.926 89.824)"/>
      <rect id="Rectángulo_35629" data-name="Rectángulo 35629" width="3.926" height="3.926" transform="translate(126.146 83.282)"/>
      <rect id="Rectángulo_35630" data-name="Rectángulo 35630" width="3.926" height="3.926" transform="translate(126.146 89.824)"/>
      <rect id="Rectángulo_35631" data-name="Rectángulo 35631" width="3.926" height="3.926" transform="translate(126.146 96.367)"/>
      <rect id="Rectángulo_35632" data-name="Rectángulo 35632" width="3.926" height="6.718" transform="translate(65.037 92.648)"/>
    </g>
  </g>
</svg>
