<svg xmlns="http://www.w3.org/2000/svg" xmlns:xlink="http://www.w3.org/1999/xlink" width="85" height="85" viewBox="0 0 85 85">
  <defs>
    <clipPath id="clip-path">
      <rect id="Rect치ngulo_35436" data-name="Rect치ngulo 35436" width="67" height="67" transform="translate(609 4865)" fill="#ffd41c"/>
    </clipPath>
  </defs>
  <g id="Grupo_99197" data-name="Grupo 99197" transform="translate(-600 -6033.271)">
    <rect id="Rect치ngulo_34160" data-name="Rect치ngulo 34160" width="85" height="85" transform="translate(600 6033.271)" fill="#26d19e"/>
    <g id="Enmascarar_grupo_338" data-name="Enmascarar grupo 338" transform="translate(0 1177.271)" clip-path="url(#clip-path)">
      <g id="Online_Shopping-Shopping-Smartphone-Shopping_Bag-Commerce" data-name="Online Shopping-Shopping-Smartphone-Shopping Bag-Commerce" transform="translate(606.767 4862.77)">
        <path id="Trazado_124347" data-name="Trazado 124347" d="M46.9,10.049v40.2a6.7,6.7,0,0,1-6.7,6.7H17.865a6.714,6.714,0,0,1-5.806-3.35v-.011a6.631,6.631,0,0,1-.893-3.339v-40.2a6.7,6.7,0,0,1,6.7-6.7H40.2a6.7,6.7,0,0,1,6.677,6.2C46.884,9.714,46.9,9.882,46.9,10.049Z" fill="#5aaae7"/>
        <path id="Trazado_124348" data-name="Trazado 124348" d="M46.9,12.561V43.256a16.658,16.658,0,0,1-4.857-3.216L34.189,41.5l4.064-6.878A16.748,16.748,0,0,1,46.9,12.561Z" fill="#3d9ae2"/>
        <path id="Trazado_124349" data-name="Trazado 124349" d="M67.853,28.584A16.748,16.748,0,0,1,48.459,42.173a14.44,14.44,0,0,1-1.563-.357,16.667,16.667,0,0,1-7.09-4.008l-7.849,1.463,4.064-6.878a16.745,16.745,0,1,1,31.833-3.807Z" fill="#ffd422"/>
        <path id="Trazado_124350" data-name="Trazado 124350" d="M45.779,22.331v13.4a2.24,2.24,0,0,0,2.233,2.233H59.178a2.24,2.24,0,0,0,2.233-2.233v-13.4Z" fill="#ebbf00"/>
        <path id="Trazado_124351" data-name="Trazado 124351" d="M59.178,31.264V33.5a2.24,2.24,0,0,1-2.233,2.233H45.779A2.24,2.24,0,0,1,43.546,33.5V31.264Z" fill="#d1d3d4"/>
        <path id="Trazado_124352" data-name="Trazado 124352" d="M43.546,20.1H59.178V31.264H43.546Z" fill="#3d9ae2"/>
        <path id="Trazado_124353" data-name="Trazado 124353" d="M31.264,48.012a2.233,2.233,0,0,1,0,4.466H26.8a2.233,2.233,0,1,1,0-4.466Z" fill="#e6e7e8"/>
        <path id="Trazado_124354" data-name="Trazado 124354" d="M25.569,48.8a3.363,3.363,0,0,1-.447,1.675l-.368.647a2.121,2.121,0,0,1-.19-.882,2.183,2.183,0,0,1,.659-1.574,2.521,2.521,0,0,1,.324-.279c.011.134.022.279.022.413Z" fill="#e6e7e8"/>
        <path id="Trazado_124355" data-name="Trazado 124355" d="M25.491,22.521a4.475,4.475,0,1,1-3.16-1.306,4.475,4.475,0,0,1,3.16,1.306Z" fill="#3d9ae2"/>
        <path id="Trazado_124356" data-name="Trazado 124356" d="M23.258,20.288a4.475,4.475,0,1,1-3.16-1.306,4.475,4.475,0,0,1,3.16,1.306Z" fill="#ffd422"/>
        <path id="Trazado_124357" data-name="Trazado 124357" d="M23.336,46.572A3.35,3.35,0,0,0,17.083,44.9l-5.025,8.687a6.631,6.631,0,0,1-.893-3.339V32.4a2.233,2.233,0,0,0-1.72,1.273l-5.069,11A11.063,11.063,0,0,0,3.35,49.341V69.227l17.865-.011V64.37a6.726,6.726,0,0,0-.96-3.45l-2.389-3.975,5.025-8.7a3.363,3.363,0,0,0,.447-1.675Z" fill="#ffc477"/>
        <path id="Trazado_124358" data-name="Trazado 124358" d="M20.1,6.7h2.233V8.932H20.1Z"/>
        <path id="Trazado_124359" data-name="Trazado 124359" d="M24.564,6.7H33.5V8.932H24.564Z"/>
        <path id="Trazado_124360" data-name="Trazado 124360" d="M45.779,50.245A5.59,5.59,0,0,1,40.2,55.828H19.8l3.839-6.648a3.3,3.3,0,0,0-.19,1.065,3.35,3.35,0,0,0,3.35,3.35h4.466a3.35,3.35,0,0,0,0-6.7H26.8a3.341,3.341,0,0,0-2.715,1.4,4.455,4.455,0,0,0-7.961-3.965l-3.8,6.579a5.553,5.553,0,0,1-.042-.668v-40.2a5.59,5.59,0,0,1,5.583-5.583H40.2a5.605,5.605,0,0,1,4.835,2.791l1.933-1.117A7.847,7.847,0,0,0,40.2,2.233H17.865a7.825,7.825,0,0,0-7.816,7.816V31.6a3.35,3.35,0,0,0-1.617,1.609L3.364,44.2a12.123,12.123,0,0,0-1.131,5.15V69.227H4.466V49.352a9.9,9.9,0,0,1,.925-4.211l4.658-10.107V50.245a7.786,7.786,0,0,0,.993,3.809,1.117,1.117,0,0,0,1.989.1l5.025-8.7a2.233,2.233,0,1,1,3.868,2.233l-5.025,8.7a1.117,1.117,0,0,0,.01,1.134L19.3,61.5a5.6,5.6,0,0,1,.8,2.878v4.841h2.233V64.374a7.828,7.828,0,0,0-1.116-4.028L19.84,58.061H40.2a7.825,7.825,0,0,0,7.816-7.816V44.662H45.779ZM26.8,49.129h4.466a1.117,1.117,0,1,1,0,2.233H26.8a1.117,1.117,0,1,1,0-2.233Z"/>
        <path id="Trazado_124361" data-name="Trazado 124361" d="M66,15.431A17.865,17.865,0,0,0,34.77,32.3L31,38.7a1.117,1.117,0,0,0,.045,1.206,1.138,1.138,0,0,0,1.128.458L39.459,39a17.8,17.8,0,0,0,8.8,4.276,18.535,18.535,0,0,0,3.115.268A17.865,17.865,0,0,0,66,15.431Zm.759,12.963a15.632,15.632,0,0,1-26.183,8.6,1.129,1.129,0,0,0-.77-.3,1.214,1.214,0,0,0-.2.011l-5.438,1.016,2.814-4.757a1.163,1.163,0,0,0,.067-1.016,15.631,15.631,0,1,1,29.712-3.551Z"/>
        <path id="Trazado_124362" data-name="Trazado 124362" d="M59.178,18.982h-3.35V17.865a4.466,4.466,0,1,0-8.932,0v1.117h-3.35A1.117,1.117,0,0,0,42.429,20.1V33.5a3.36,3.36,0,0,0,3.35,3.35H56.945a3.36,3.36,0,0,0,3.35-3.35V20.1A1.117,1.117,0,0,0,59.178,18.982ZM49.129,17.865a2.233,2.233,0,1,1,4.466,0v1.117H49.129ZM58.061,33.5a1.117,1.117,0,0,1-1.117,1.117H45.779A1.117,1.117,0,0,1,44.662,33.5V32.38h13.4Zm0-3.35h-13.4V21.215H46.9v2.233h2.233V21.215h4.466v2.233h2.233V21.215h2.233Z"/>
        <path id="Trazado_124363" data-name="Trazado 124363" d="M24.892,17.076l-1.72,1.72a5.6,5.6,0,1,0,1.579,1.579l1.72-1.72Zm-1.444,6.372A3.35,3.35,0,1,1,20.1,20.1a3.3,3.3,0,0,1,1.435.335l-3.341,3.341,1.579,1.579,3.342-3.34a3.3,3.3,0,0,1,.335,1.435Z"/>
        <path id="Trazado_124364" data-name="Trazado 124364" d="M27.914,20.1H32.38v2.233H27.914Z"/>
        <path id="Trazado_124365" data-name="Trazado 124365" d="M27.914,24.564H32.38V26.8H27.914Z"/>
      </g>
    </g>
  </g>
</svg>
