<svg xmlns="http://www.w3.org/2000/svg" width="912.638" height="292.439" viewBox="0 0 912.638 292.439">
  <g id="Grupo_99195" data-name="Grupo 99195" transform="translate(-285 -6316)">
    <rect id="Rect치ngulo_34099" data-name="Rect치ngulo 34099" width="36.647" height="36.647" rx="8" transform="matrix(0.985, 0.174, -0.174, 0.985, 323.364, 6460.75)" fill="#ffd41c"/>
    <rect id="Rect치ngulo_34100" data-name="Rect치ngulo 34100" width="45.647" height="45.647" rx="8" transform="matrix(0.966, -0.259, 0.259, 0.966, 1141.732, 6336.821)" fill="#26d19e"/>
    <circle id="Elipse_5080" data-name="Elipse 5080" cx="20.512" cy="20.512" r="20.512" transform="translate(1063.975 6510.927)" fill="#764cf0"/>
    <circle id="Elipse_5081" data-name="Elipse 5081" cx="8.012" cy="8.012" r="8.012" transform="translate(478.975 6522.414)" fill="#764cf0"/>
    <path id="Trazado_114565" data-name="Trazado 114565" d="M662.568-58.417c-5.557-2.619-11.14-5.157-16.69-7.675C618.1-78.694,589.386-91.729,568-114.334a117.188,117.188,0,0,1-30.469-63.449,111.446,111.446,0,0,1,.778-37.081h-4.135a115.525,115.525,0,0,0-.663,37.657,121.313,121.313,0,0,0,31.538,65.662C586.984-88.365,616.072-75.161,644.2-62.4c6.112,2.775,12.263,5.563,18.368,8.48Z" transform="translate(-10.934 6921.273) rotate(-30)" fill="#764cf0"/>
    <g id="publico-objetivo" transform="translate(282.999 6313)">
      <path id="Trazado_124425" data-name="Trazado 124425" d="M14.334,50.178,8.667,54.185,3,50.178l5.667-4.006Z" transform="translate(0.416 17.989)" fill="#ffc119"/>
      <path id="Trazado_124426" data-name="Trazado 124426" d="M52.167,55V33.92a5.68,5.68,0,0,0-4.293-5.5l-7.041-1.757V23.834a5.118,5.118,0,0,0,2.833-4.59v-8.16a7.083,7.083,0,1,0-14.167,0v8.16a5.119,5.119,0,0,0,2.833,4.59v2.833l-7.041,1.757A5.68,5.68,0,0,0,21,33.921V55Z" transform="translate(7.917 0.417)" fill="#ffc119"/>
      <path id="Trazado_124427" data-name="Trazado 124427" d="M7,55.084V43.92a5.68,5.68,0,0,1,4.293-5.5l7.041-1.757V33.834a5.118,5.118,0,0,1-2.833-4.59v-8.16a7.083,7.083,0,1,1,14.167,0v8.16a5.118,5.118,0,0,1-2.833,4.59v2.833l7.041,1.757a5.68,5.68,0,0,1,4.293,5.5V55.084Z" transform="translate(2.083 4.584)" fill="#3890ce"/>
      <path id="Trazado_124428" data-name="Trazado 124428" d="M66.167,55.084V43.92a5.68,5.68,0,0,0-4.293-5.5l-7.041-1.757V33.834a5.118,5.118,0,0,0,2.833-4.59v-8.16a7.083,7.083,0,1,0-14.167,0v8.16a5.119,5.119,0,0,0,2.833,4.59v2.833l-7.041,1.757A5.679,5.679,0,0,0,35,43.92V55.084Z" transform="translate(13.75 4.584)" fill="#3890ce"/>
      <circle id="Elipse_5775" data-name="Elipse 5775" cx="17" cy="17" r="17" transform="translate(27.001 51)" fill="#ef5249"/>
      <circle id="Elipse_5776" data-name="Elipse 5776" cx="11.5" cy="11.5" r="11.5" transform="translate(33.001 57)" fill="#d7e6eb"/>
      <circle id="Elipse_5777" data-name="Elipse 5777" cx="5.5" cy="5.5" r="5.5" transform="translate(39.001 63)" fill="#ef5249"/>
      <path id="Trazado_124429" data-name="Trazado 124429" d="M65.584,54.5H54.25L50,50.25,54.25,46H65.584Z" transform="translate(20.001 17.918)" fill="#ffc119"/>
      <path id="Trazado_124430" data-name="Trazado 124430" d="M34.084,46.833a4.25,4.25,0,0,1,2.81,1.062l1.875-2.125a7.083,7.083,0,1,0,0,10.625l-1.874-2.125a4.25,4.25,0,1,1-2.811-7.438Z" transform="translate(10.417 17.084)"/>
      <path id="Trazado_124431" data-name="Trazado 124431" d="M44.945,49.032l2.627-1.063a12.75,12.75,0,1,0,0,9.563l-2.627-1.063a9.917,9.917,0,1,1,0-7.438Z" transform="translate(8.751 15.417)"/>
      <path id="Trazado_124432" data-name="Trazado 124432" d="M73.084,45H61.75a1.416,1.416,0,0,0-1,.415L56.914,49.25H32v2.833H56.914l3.835,3.835a1.417,1.417,0,0,0,1,.415H73.084A1.417,1.417,0,0,0,74.5,54.917v-8.5A1.417,1.417,0,0,0,73.084,45Zm-1.417,8.5h-9.33L59.5,50.667l2.833-2.833h9.33Z" transform="translate(12.5 17.501)"/>
      <path id="Trazado_124433" data-name="Trazado 124433" d="M10,37h2.833v8.5H10Z" transform="translate(3.333 14.167)"/>
      <path id="Trazado_124434" data-name="Trazado 124434" d="M79.668,59.668V48.5A7.083,7.083,0,0,0,74.3,41.633l-5.968-1.489v-.918a6.5,6.5,0,0,0,2.833-5.4v-8.16a8.5,8.5,0,0,0-17,0v1.727L48.5,25.977v-.921a6.5,6.5,0,0,0,2.833-5.383V11.5a8.5,8.5,0,0,0-17,0v8.166a6.5,6.5,0,0,0,2.833,5.391v.921L31.5,27.394V25.667a8.5,8.5,0,1,0-17,0v8.16a6.5,6.5,0,0,0,2.833,5.4v.918l-5.971,1.49A7.083,7.083,0,0,0,6,48.5V59.668H8.833V48.5a4.25,4.25,0,0,1,3.219-4.121l7.041-1.757a1.417,1.417,0,0,0,1.074-1.376V38.417a1.417,1.417,0,0,0-.788-1.275,3.683,3.683,0,0,1-2.046-3.315v-8.16a5.667,5.667,0,1,1,11.334,0v8.16a3.683,3.683,0,0,1-2.046,3.315,1.417,1.417,0,0,0-.788,1.275v2.833a1.417,1.417,0,0,0,1.074,1.376l7.037,1.755a4.271,4.271,0,0,1,3.223,3.994L40,48.293a7.12,7.12,0,0,0-5.364-6.658l-5.97-1.49v-.918a6.5,6.5,0,0,0,2.833-5.4V30.372c.132-.047.249-.12.385-.154l7.041-1.76A1.417,1.417,0,0,0,40,27.084V24.25a1.417,1.417,0,0,0-.783-1.268,3.683,3.683,0,0,1-2.05-3.316V11.5a5.667,5.667,0,0,1,11.334,0v8.166a3.683,3.683,0,0,1-2.05,3.316,1.417,1.417,0,0,0-.783,1.268v2.833a1.417,1.417,0,0,0,1.074,1.374l7.04,1.76c.132.033.259.081.387.126v3.484A6.5,6.5,0,0,0,57,39.226v.918l-5.971,1.49a7.119,7.119,0,0,0-5.362,6.658l2.833.082a4.27,4.27,0,0,1,3.216-3.992l7.041-1.757a1.417,1.417,0,0,0,1.077-1.376V38.417a1.417,1.417,0,0,0-.788-1.275A3.683,3.683,0,0,1,57,33.827v-8.16a5.667,5.667,0,1,1,11.334,0v8.16a3.683,3.683,0,0,1-2.046,3.315,1.417,1.417,0,0,0-.788,1.275v2.833a1.417,1.417,0,0,0,1.074,1.376l7.037,1.755A4.25,4.25,0,0,1,76.835,48.5V59.668Z" transform="translate(1.666)"/>
      <path id="Trazado_124435" data-name="Trazado 124435" d="M52,37h2.833v8.5H52Z" transform="translate(20.834 14.167)"/>
      <path id="Trazado_124436" data-name="Trazado 124436" d="M2.6,55.573l5.667,4.008a1.417,1.417,0,0,0,1.635,0l5.3-3.747H26.156A18.41,18.41,0,0,0,62.338,59.02l-2.746-.708a15.584,15.584,0,1,1,0-7.792l2.746-.708A18.41,18.41,0,0,0,26.156,53H15.2L9.9,49.253a1.417,1.417,0,0,0-1.635,0L2.6,53.261a1.417,1.417,0,0,0,0,2.312Zm6.484-3.423L12.3,54.417,9.083,56.684,5.87,54.417Z" transform="translate(0 13.75)"/>
    </g>
  </g>
</svg>
