<svg xmlns="http://www.w3.org/2000/svg" xmlns:xlink="http://www.w3.org/1999/xlink" width="85" height="85" viewBox="0 0 85 85">
  <defs>
    <clipPath id="clip-path">
      <rect id="Rectángulo_35437" data-name="Rectángulo 35437" width="67" height="67" transform="translate(1029 4865)" fill="#ffd41c"/>
    </clipPath>
  </defs>
  <g id="Grupo_99198" data-name="Grupo 99198" transform="translate(-1020 -6033.271)">
    <rect id="Rectángulo_34162" data-name="Rectángulo 34162" width="85" height="85" transform="translate(1020 6033.271)" fill="#26d19e"/>
    <g id="Enmascarar_grupo_339" data-name="Enmascarar grupo 339" transform="translate(0 1177.271)" clip-path="url(#clip-path)">
      <g id="_19-Online-shop" data-name="19-Online-shop" transform="translate(1026.767 4862.767)">
        <rect id="Rectángulo_35443" data-name="Rectángulo 35443" width="42.433" height="64.767" rx="2.233" transform="translate(14.517 3.35)" fill="#68b1fc"/>
        <path id="Trazado_124366" data-name="Trazado 124366" d="M56.95,7.817H14.517V24.477a7.571,7.571,0,0,0,3.35-1.329,7.738,7.738,0,0,0,8.933,0,7.738,7.738,0,0,0,8.933,0,7.739,7.739,0,0,0,8.933,0,7.738,7.738,0,0,0,8.933,0,7.571,7.571,0,0,0,3.35,1.329Z" fill="#539ffb"/>
        <path id="Trazado_124367" data-name="Trazado 124367" d="M54.717,3.35H52.729A3.35,3.35,0,0,1,53.6,5.583v60.3a3.35,3.35,0,0,1-.871,2.233h1.988a2.233,2.233,0,0,0,2.233-2.233V5.583A2.233,2.233,0,0,0,54.717,3.35Z" fill="#539ffb"/>
        <path id="Trazado_124368" data-name="Trazado 124368" d="M56.95,7.817H53.6V23.148a7.571,7.571,0,0,0,3.35,1.329Z" fill="#418ffb"/>
        <path id="Trazado_124369" data-name="Trazado 124369" d="M18.983,7.817h33.5v46.9h-33.5Z" fill="#e7eaef"/>
        <path id="Trazado_124370" data-name="Trazado 124370" d="M22.333,24.567A7.694,7.694,0,0,0,26.8,23.148a7.739,7.739,0,0,0,8.933,0,7.739,7.739,0,0,0,8.933,0,7.694,7.694,0,0,0,4.467,1.418,7.6,7.6,0,0,0,3.35-.771V7.817h-33.5V23.8A7.6,7.6,0,0,0,22.333,24.567Z" fill="#d8dbe0"/>
        <path id="Trazado_124371" data-name="Trazado 124371" d="M18.983,7.817h3.35v46.9h-3.35Z" fill="#d8dbe0"/>
        <path id="Trazado_124372" data-name="Trazado 124372" d="M22.333,24.567V7.817h-3.35V23.8a7.6,7.6,0,0,0,3.35.771Z" fill="#cccfd4"/>
        <path id="Trazado_124373" data-name="Trazado 124373" d="M26.8,14.517h8.933V16.75a4.467,4.467,0,1,1-8.933,0Z" fill="#fb4b5b"/>
        <path id="Trazado_124374" data-name="Trazado 124374" d="M35.733,14.517h8.933V16.75a4.467,4.467,0,0,1-8.933,0Z" fill="#fcaa52"/>
        <path id="Trazado_124375" data-name="Trazado 124375" d="M44.667,14.517H53.6V16.75a4.467,4.467,0,1,1-8.933,0Z" fill="#fb4b5b"/>
        <path id="Trazado_124376" data-name="Trazado 124376" d="M53.6,14.517h8.933V16.75a4.467,4.467,0,1,1-8.933,0Z" fill="#fcaa52"/>
        <path id="Trazado_124377" data-name="Trazado 124377" d="M17.867,14.517H26.8V16.75a4.467,4.467,0,1,1-8.933,0Z" fill="#fcaa52"/>
        <path id="Trazado_124378" data-name="Trazado 124378" d="M8.933,14.517h8.933V16.75a4.467,4.467,0,1,1-8.933,0Z" fill="#fb4b5b"/>
        <path id="Trazado_124379" data-name="Trazado 124379" d="M21.585,7.817l-3.719,6.7H8.933l5.583-6.7Z" fill="#fc6067"/>
        <path id="Trazado_124380" data-name="Trazado 124380" d="M28.654,7.817l-1.854,6.7H17.867l3.719-6.7Z" fill="#fcb860"/>
        <path id="Trazado_124381" data-name="Trazado 124381" d="M35.733,7.817v6.7H26.8l1.854-6.7Z" fill="#fc6067"/>
        <path id="Trazado_124382" data-name="Trazado 124382" d="M44.667,14.517H35.733v-6.7H42.8Z" fill="#fcb860"/>
        <path id="Trazado_124383" data-name="Trazado 124383" d="M53.6,14.517H44.667L42.8,7.817h7.08Z" fill="#fc6067"/>
        <path id="Trazado_124384" data-name="Trazado 124384" d="M62.533,14.517H53.6l-3.719-6.7H56.95Z" fill="#fcb860"/>
        <path id="Trazado_124385" data-name="Trazado 124385" d="M56.95,7.817H53.935L58.926,13.8a1.117,1.117,0,0,1,.257.715h3.35Z" fill="#fcaa52"/>
        <path id="Trazado_124386" data-name="Trazado 124386" d="M57.073,21.094a4.176,4.176,0,0,0,.994.123,4.467,4.467,0,0,0,4.467-4.467V14.517h-3.35V16.75A5.583,5.583,0,0,1,57.073,21.094Z" fill="#fc9e3a"/>
        <g id="Grupo_97012" data-name="Grupo 97012">
          <circle id="Elipse_5764" data-name="Elipse 5764" cx="2.233" cy="2.233" r="2.233" transform="translate(30.15 43.55)" fill="#fc6067"/>
          <circle id="Elipse_5765" data-name="Elipse 5765" cx="2.233" cy="2.233" r="2.233" transform="translate(39.083 43.55)" fill="#fc6067"/>
          <path id="Trazado_124387" data-name="Trazado 124387" d="M46.9,31.267l-2.8,7.482A2.233,2.233,0,0,1,42,40.2H30.15l-1.619-8.933Z" fill="#fc6067"/>
        </g>
        <circle id="Elipse_5766" data-name="Elipse 5766" cx="2.233" cy="2.233" r="2.233" transform="translate(33.5 59.183)" fill="#e7eaef"/>
        <path id="Trazado_124388" data-name="Trazado 124388" d="M29.033,45.783a3.35,3.35,0,1,0,3.35-3.35A3.35,3.35,0,0,0,29.033,45.783Zm4.467,0a1.117,1.117,0,1,1-1.117-1.117A1.117,1.117,0,0,1,33.5,45.783Z"/>
        <path id="Trazado_124389" data-name="Trazado 124389" d="M41.317,42.433a3.35,3.35,0,1,0,3.35,3.35A3.35,3.35,0,0,0,41.317,42.433Zm0,4.467a1.117,1.117,0,1,1,1.117-1.117A1.117,1.117,0,0,1,41.317,46.9Z"/>
        <path id="Trazado_124390" data-name="Trazado 124390" d="M47.95,31.657A1.117,1.117,0,0,0,46.9,30.15H29.458l-.112-.6A3.35,3.35,0,0,0,26,26.8H24.567a1.117,1.117,0,0,0,0,2.233h1.485a1.117,1.117,0,0,1,1.117.916L29.033,40.4a1.117,1.117,0,0,0,1.117.916H42a3.35,3.35,0,0,0,3.138-2.233Zm-4.9,6.7a1.117,1.117,0,0,1-1.05.726H31.077l-1.217-6.7H45.292Z"/>
        <path id="Trazado_124391" data-name="Trazado 124391" d="M39.083,61.417a3.35,3.35,0,1,0-3.35,3.35A3.35,3.35,0,0,0,39.083,61.417Zm-4.467,0a1.117,1.117,0,1,1,1.117,1.117A1.117,1.117,0,0,1,34.617,61.417Z"/>
        <path id="Trazado_124392" data-name="Trazado 124392" d="M63.393,13.8,58.067,7.415V5.583a3.35,3.35,0,0,0-3.35-3.35H16.75a3.35,3.35,0,0,0-3.35,3.35V7.415L8.073,13.8a1.117,1.117,0,0,0-.257.715V16.75A5.583,5.583,0,0,0,13.4,22.333V26.8a1.117,1.117,0,1,0,2.233,0V21.864A5.762,5.762,0,0,0,17.867,20.1V54.717a1.117,1.117,0,0,0,1.117,1.117h33.5A1.117,1.117,0,0,0,53.6,54.717v-6.7a1.117,1.117,0,1,0-2.233,0V53.6H20.1V21.864a5.516,5.516,0,0,0,2.233.469A5.583,5.583,0,0,0,26.8,20.1a5.583,5.583,0,0,0,8.933,0,5.583,5.583,0,0,0,8.933,0,5.583,5.583,0,0,0,4.467,2.233,5.516,5.516,0,0,0,2.233-.469V43.55a1.117,1.117,0,1,0,2.233,0V20.1a5.762,5.762,0,0,0,2.233,1.8V65.883A1.117,1.117,0,0,1,54.717,67H16.75a1.117,1.117,0,0,1-1.117-1.117V31.267a1.117,1.117,0,0,0-2.233,0V65.883a3.35,3.35,0,0,0,3.35,3.35H54.717a3.35,3.35,0,0,0,3.35-3.35V22.333A5.583,5.583,0,0,0,63.65,16.75V14.517a1.117,1.117,0,0,0-.257-.715Zm-3.238-.4h-5.9L51.78,8.933h4.645ZM27.191,8.933,25.951,13.4H19.765l2.479-4.467Zm2.323,0h5.1V13.4H28.274Zm7.337,0h5.1L43.193,13.4H36.85ZM45.515,13.4l-1.24-4.467h4.947L51.7,13.4ZM16.75,4.467H54.717a1.117,1.117,0,0,1,1.117,1.117V6.7h-40.2V5.583A1.117,1.117,0,0,1,16.75,4.467ZM15.042,8.933h4.645L17.208,13.4h-5.9ZM13.4,20.1a3.35,3.35,0,0,1-3.35-3.35V15.633h6.7V16.75A3.35,3.35,0,0,1,13.4,20.1Zm8.933,0a3.35,3.35,0,0,1-3.35-3.35V15.633h6.7V16.75A3.35,3.35,0,0,1,22.333,20.1Zm8.933,0a3.35,3.35,0,0,1-3.35-3.35V15.633h6.7V16.75A3.35,3.35,0,0,1,31.267,20.1Zm8.933,0a3.35,3.35,0,0,1-3.35-3.35V15.633h6.7V16.75A3.35,3.35,0,0,1,40.2,20.1Zm5.583-3.35V15.633h6.7V16.75a3.35,3.35,0,1,1-6.7,0ZM58.067,20.1a3.35,3.35,0,0,1-3.35-3.35V15.633h6.7V16.75A3.35,3.35,0,0,1,58.067,20.1Z"/>
      </g>
    </g>
  </g>
</svg>
