<svg xmlns="http://www.w3.org/2000/svg" xmlns:xlink="http://www.w3.org/1999/xlink" width="85" height="85" viewBox="0 0 85 85">
  <defs>
    <clipPath id="clip-path">
      <rect id="Rectángulo_35435" data-name="Rectángulo 35435" width="67" height="67" transform="translate(189 4865)" fill="#ffd41c"/>
    </clipPath>
  </defs>
  <g id="Grupo_99196" data-name="Grupo 99196" transform="translate(-180 -6033.271)">
    <rect id="Rectángulo_34163" data-name="Rectángulo 34163" width="85" height="85" transform="translate(180 6033.271)" fill="#26d19e"/>
    <g id="Enmascarar_grupo_337" data-name="Enmascarar grupo 337" transform="translate(0 1177.271)" clip-path="url(#clip-path)">
      <g id="compras" transform="translate(189 4865)">
        <path id="Trazado_124332" data-name="Trazado 124332" d="M59.238,24.6l-3.447,3.447a1.047,1.047,0,1,0,1.48,1.48l4.187-4.188a1.047,1.047,0,0,0,0-1.48l-4.187-4.187a1.047,1.047,0,1,0-1.48,1.48Z"/>
        <g id="Grupo_97011" data-name="Grupo 97011">
          <g id="Grupo_97009" data-name="Grupo 97009">
            <rect id="Rectángulo_35440" data-name="Rectángulo 35440" width="64.906" height="41.875" rx="2.094" transform="translate(1.047 5.234)" fill="#edebf2"/>
            <path id="Trazado_124333" data-name="Trazado 124333" d="M65.953,41.875v3.141a2.1,2.1,0,0,1-2.094,2.094H3.141a2.1,2.1,0,0,1-2.094-2.094V41.875Z" fill="#919191"/>
            <path id="Trazado_124334" data-name="Trazado 124334" d="M25.648,47.109h15.7V57.578h-15.7Z" fill="#dad7e5"/>
            <path id="Trazado_124335" data-name="Trazado 124335" d="M30.883,47.109h5.234v2.617a2.617,2.617,0,0,1-5.234,0Z" fill="#edebf2"/>
            <rect id="Rectángulo_35441" data-name="Rectángulo 35441" width="20.938" height="4.188" rx="1.047" transform="translate(23.031 57.578)" fill="#919191"/>
            <rect id="Rectángulo_35442" data-name="Rectángulo 35442" width="20.938" height="18.844" rx="2.094" transform="translate(23.031 14.133)" fill="#f29b75"/>
            <path id="Trazado_124336" data-name="Trazado 124336" d="M43.969,27.742v3.141a2.1,2.1,0,0,1-2.094,2.094H25.125a2.1,2.1,0,0,1-2.094-2.094V27.742Z" fill="#df8761"/>
            <path id="Trazado_124337" data-name="Trazado 124337" d="M29.313,14.133h8.375v2.094a4.188,4.188,0,0,1-8.375,0Z" fill="#df8761"/>
            <g id="Grupo_97008" data-name="Grupo 97008">
              <path id="Trazado_124338" data-name="Trazado 124338" d="M17.493,21.157,14.039,24.6l3.455,3.444a1.051,1.051,0,0,1-1.487,1.487l-4.187-4.187a1.055,1.055,0,0,1,0-1.487l4.188-4.187a1.051,1.051,0,0,1,1.487,1.487Z" fill="#82bcf4"/>
              <path id="Trazado_124339" data-name="Trazado 124339" d="M55.181,25.345l-4.187,4.188a1.051,1.051,0,1,1-1.487-1.487L52.961,24.6l-3.455-3.444a1.051,1.051,0,0,1,1.487-1.487l4.188,4.187a1.055,1.055,0,0,1,0,1.487Z" fill="#82bcf4"/>
              <path id="Trazado_124340" data-name="Trazado 124340" d="M61.462,25.345l-4.187,4.188a1.051,1.051,0,1,1-1.487-1.487L59.243,24.6l-3.455-3.444a1.051,1.051,0,0,1,1.487-1.487l4.188,4.187a1.055,1.055,0,0,1,0,1.487Z" fill="#82bcf4"/>
              <path id="Trazado_124341" data-name="Trazado 124341" d="M11.212,28.046a1.051,1.051,0,0,1-1.487,1.487L5.538,25.345a1.055,1.055,0,0,1,0-1.487l4.188-4.187a1.051,1.051,0,0,1,1.487,1.487L7.757,24.6Z" fill="#82bcf4"/>
            </g>
          </g>
          <g id="Grupo_97010" data-name="Grupo 97010">
            <path id="Trazado_124342" data-name="Trazado 124342" d="M63.859,4.188H3.141A3.15,3.15,0,0,0,0,7.328V45.016a3.15,3.15,0,0,0,3.141,3.141H24.6v8.375h-.523a2.1,2.1,0,0,0-2.094,2.094v2.094a2.1,2.1,0,0,0,2.094,2.094H42.922a2.1,2.1,0,0,0,2.094-2.094V58.625a2.1,2.1,0,0,0-2.094-2.094H42.4V48.156H63.859A3.15,3.15,0,0,0,67,45.016V7.328a3.15,3.15,0,0,0-3.141-3.141ZM42.922,58.625v2.094H24.078V58.625ZM33.5,53.391a3.664,3.664,0,0,0,3.664-3.664v-1.57H40.3v8.375H26.7V48.156h3.141v1.57A3.664,3.664,0,0,0,33.5,53.391Zm-1.57-3.664v-1.57H35.07v1.57a1.57,1.57,0,0,1-3.141,0Zm32.977-4.711a1.047,1.047,0,0,1-1.047,1.047H3.141a1.047,1.047,0,0,1-1.047-1.047V42.922H64.906Zm0-4.187H2.094V7.328A1.047,1.047,0,0,1,3.141,6.281H63.859a1.047,1.047,0,0,1,1.047,1.047Z"/>
            <path id="Trazado_124343" data-name="Trazado 124343" d="M25.125,34.023h16.75a3.141,3.141,0,0,0,3.141-3.141V16.227a3.141,3.141,0,0,0-3.141-3.141H25.125a3.141,3.141,0,0,0-3.141,3.141V30.883A3.141,3.141,0,0,0,25.125,34.023Zm16.75-2.094H25.125a1.047,1.047,0,0,1-1.047-1.047V28.789H42.922v2.094A1.047,1.047,0,0,1,41.875,31.93ZM36.641,15.18v1.047a3.141,3.141,0,0,1-6.281,0V15.18Zm-11.516,0h3.141v1.047a5.234,5.234,0,0,0,10.469,0V15.18h3.141a1.047,1.047,0,0,1,1.047,1.047V26.7H24.078V16.227A1.047,1.047,0,0,1,25.125,15.18Z"/>
            <path id="Trazado_124344" data-name="Trazado 124344" d="M49.51,29.529a1.047,1.047,0,0,0,1.48,0l4.188-4.187a1.047,1.047,0,0,0,0-1.48L50.99,19.674a1.047,1.047,0,1,0-1.48,1.48L52.957,24.6,49.51,28.049a1.047,1.047,0,0,0,0,1.48Z"/>
            <path id="Trazado_124345" data-name="Trazado 124345" d="M9.729,29.529a1.047,1.047,0,1,0,1.48-1.48L7.762,24.6l3.447-3.447a1.047,1.047,0,1,0-1.48-1.48L5.541,23.861a1.047,1.047,0,0,0,0,1.48Z"/>
            <path id="Trazado_124346" data-name="Trazado 124346" d="M11.822,25.342l4.187,4.188a1.047,1.047,0,1,0,1.48-1.48L14.043,24.6l3.447-3.447a1.047,1.047,0,1,0-1.48-1.48l-4.187,4.188a1.047,1.047,0,0,0,0,1.48Z"/>
          </g>
        </g>
      </g>
    </g>
  </g>
</svg>
