<svg xmlns="http://www.w3.org/2000/svg" xmlns:xlink="http://www.w3.org/1999/xlink" width="190" height="134" viewBox="0 0 190 134">
  <defs>
    <clipPath id="clip-path">
      <rect id="Rect치ngulo_35444" data-name="Rect치ngulo 35444" width="101" height="101" transform="translate(224 433)" fill="#26d19e" stroke="#707070" stroke-width="1"/>
    </clipPath>
  </defs>
  <g id="Grupo_95083" data-name="Grupo 95083" transform="translate(-180 -417)">
    <rect id="Rect치ngulo_33975" data-name="Rect치ngulo 33975" width="190" height="134" transform="translate(180 417)" fill="#fff"/>
    <g id="Enmascarar_grupo_342" data-name="Enmascarar grupo 342" clip-path="url(#clip-path)">
      <g id="clasificacion" transform="translate(224 433)">
        <g id="Grupo_97042" data-name="Grupo 97042">
          <path id="Trazado_124437" data-name="Trazado 124437" d="M49.819,77.653H47.107a13.82,13.82,0,0,0-13.82,13.82v8.048H63.639V91.472A13.82,13.82,0,0,0,49.819,77.653Z" fill="#faf7f7"/>
          <path id="Trazado_124438" data-name="Trazado 124438" d="M52.138,77.844a13.824,13.824,0,0,0-11.5,13.627v8.049H33.287V91.471a13.821,13.821,0,0,1,13.82-13.82H49.82A14.028,14.028,0,0,1,52.138,77.844Z" fill="#dedbee"/>
          <path id="Trazado_124439" data-name="Trazado 124439" d="M80.171,77.653H77.458a13.82,13.82,0,0,0-13.82,13.82v8.048H93.991V91.472A13.82,13.82,0,0,0,80.171,77.653Z" fill="#7bacdf"/>
          <path id="Trazado_124440" data-name="Trazado 124440" d="M82.49,77.844a13.824,13.824,0,0,0-11.5,13.627v8.049H63.639V91.471a13.821,13.821,0,0,1,13.82-13.82h2.712A14.028,14.028,0,0,1,82.49,77.844Z" fill="#5f99d7"/>
          <path id="Trazado_124441" data-name="Trazado 124441" d="M19.467,77.653H16.755a13.82,13.82,0,0,0-13.82,13.82v8.048H33.287V91.472A13.82,13.82,0,0,0,19.467,77.653Z" fill="#bbec6c"/>
          <path id="Trazado_124442" data-name="Trazado 124442" d="M21.786,77.844a13.824,13.824,0,0,0-11.5,13.627v8.049H2.935V91.471a13.821,13.821,0,0,1,13.82-13.82h2.712a14.028,14.028,0,0,1,2.318.193Z" fill="#a2e62e"/>
          <g id="Grupo_97035" data-name="Grupo 97035">
            <path id="Trazado_124443" data-name="Trazado 124443" d="M99.522,50.477a4.182,4.182,0,0,1-2.71,3.912,22.655,22.655,0,0,1-3.889,1.083c-.023.006-.045.009-.068.013-1.345.244-3.025,5.121-4.4,5.121l-5.444-.926-1.824-.31c-.971,0,1.918,7.542-9.645,6.125V55.53A7.731,7.731,0,0,1,79.274,47.8h4.889a38.1,38.1,0,0,0,10.07-1.357,4.185,4.185,0,0,1,5.289,4.035Z" fill="#7a6d79"/>
            <path id="Trazado_124444" data-name="Trazado 124444" d="M83.011,59.68l-1.824-.31c-.971,0,1.918,7.542-9.645,6.125V55.53A7.731,7.731,0,0,1,79.274,47.8h2.491c-2.513,3.409-.578,8.054-.578,8.054Z" fill="#685e68"/>
            <path id="Trazado_124445" data-name="Trazado 124445" d="M92.921,55.471V66.609a8.834,8.834,0,0,1-8.84,8.838c-.119,0-.236-.006-.355-.009a4.24,4.24,0,0,1-8.481-.025V68.97h-.393a3.316,3.316,0,0,1-3.311-3.475,3.378,3.378,0,0,1,3.405-3.156h2.723V59.374a3.519,3.519,0,0,1,3.517-3.52h7.58a22.924,22.924,0,0,0,4.087-.368c.023,0,.046-.007.068-.013Z" fill="#ffdfcf"/>
            <path id="Trazado_124446" data-name="Trazado 124446" d="M86.226,75.185a8.8,8.8,0,0,1-2.145.263c-.119,0-.236-.006-.355-.009a4.24,4.24,0,0,1-8.481-.025V68.97h-.393a3.316,3.316,0,0,1-3.311-3.475,3.378,3.378,0,0,1,3.405-3.156h2.723V59.374a3.519,3.519,0,0,1,3.517-3.52s-4.677,15.5,5.04,19.332Z" fill="#ffcebf"/>
          </g>
          <g id="Grupo_97036" data-name="Grupo 97036">
            <path id="Trazado_124447" data-name="Trazado 124447" d="M56.851,45.525H47.976a6.253,6.253,0,0,0-6.253,6.253V65.5L63.1,55.472V51.779a6.253,6.253,0,0,0-6.253-6.254Z" fill="#7a6d79"/>
            <path id="Trazado_124448" data-name="Trazado 124448" d="M54.637,45.524a6.253,6.253,0,0,0-6.253,6.255V62.372l-6.661,3.122V51.779a6.253,6.253,0,0,1,6.253-6.255h6.661Z" fill="#685e68"/>
            <path id="Trazado_124449" data-name="Trazado 124449" d="M63.1,55.472V66.61a8.834,8.834,0,0,1-8.84,8.838c-.119,0-.236-.006-.355-.009a4.24,4.24,0,0,1-8.481-.025V68.97h-.393a3.316,3.316,0,0,1-3.311-3.475,3.378,3.378,0,0,1,3.405-3.156h2.723V59.374a3.519,3.519,0,0,1,3.517-3.52h7.58a22.924,22.924,0,0,0,4.087-.368c.023,0,.046-.007.068-.013Z" fill="#d78878"/>
            <path id="Trazado_124450" data-name="Trazado 124450" d="M56.408,75.185a8.8,8.8,0,0,1-2.145.263c-.119,0-.236-.006-.355-.009a4.24,4.24,0,0,1-8.481-.025V68.97h-.393a3.316,3.316,0,0,1-3.311-3.475,3.378,3.378,0,0,1,3.405-3.156h2.723V59.374a3.519,3.519,0,0,1,3.517-3.52S46.691,71.353,56.408,75.185Z" fill="#ca6e59"/>
          </g>
          <g id="Grupo_97037" data-name="Grupo 97037">
            <circle id="Elipse_5778" data-name="Elipse 5778" cx="4.956" cy="4.956" r="4.956" transform="translate(1.48 56.002)" fill="#ae6c6c"/>
            <path id="Trazado_124451" data-name="Trazado 124451" d="M20.546,44.85A11.826,11.826,0,0,1,32.373,56.676v9.592L17.766,73.526H15.428A6.708,6.708,0,0,1,8.72,66.818V56.676A11.826,11.826,0,0,1,20.546,44.85Z" fill="#b98080"/>
            <path id="Trazado_124452" data-name="Trazado 124452" d="M17.216,56.676V66.819a6.7,6.7,0,0,0,2.913,5.533l-2.363,1.175H15.427A6.706,6.706,0,0,1,8.72,66.819V56.676A11.835,11.835,0,0,1,24.8,45.637a11.83,11.83,0,0,0-7.58,11.04Z" fill="#ae6c6c"/>
            <path id="Trazado_124453" data-name="Trazado 124453" d="M32.371,56.948V67.406a8.294,8.294,0,0,1-8.3,8.3c-.112,0-.222-.005-.334-.009a3.982,3.982,0,0,1-7.963-.023V69.622H15.4A3.113,3.113,0,0,1,12.3,66.359a3.171,3.171,0,0,1,3.2-2.963H18.05V60.612a3.3,3.3,0,0,1,3.3-3.306h7.117a21.539,21.539,0,0,0,3.838-.346C32.328,56.957,32.349,56.953,32.371,56.948Z" fill="#ffdfcf"/>
            <path id="Trazado_124454" data-name="Trazado 124454" d="M26.084,75.458a8.266,8.266,0,0,1-2.014.247c-.112,0-.222-.005-.334-.009a3.982,3.982,0,0,1-7.963-.023V69.622H15.4A3.113,3.113,0,0,1,12.3,66.359a3.171,3.171,0,0,1,3.2-2.963H18.05V60.612a3.3,3.3,0,0,1,3.3-3.306S16.96,71.859,26.084,75.458Z" fill="#ffcebf"/>
          </g>
          <g id="Grupo_97038" data-name="Grupo 97038">
            <path id="Trazado_124455" data-name="Trazado 124455" d="M55.852,3.433l2.173,4.4a3.505,3.505,0,0,0,2.639,1.917l4.859.706a3.505,3.505,0,0,1,1.943,5.979l-3.516,3.427a3.5,3.5,0,0,0-1.008,3.1l.83,4.84A3.505,3.505,0,0,1,58.686,31.5L54.34,29.218a3.506,3.506,0,0,0-3.262,0L46.731,31.5a3.505,3.505,0,0,1-5.086-3.695l.83-4.84a3.5,3.5,0,0,0-1.008-3.1l-3.516-3.427a3.505,3.505,0,0,1,1.943-5.979l4.859-.706a3.506,3.506,0,0,0,2.639-1.917l2.173-4.4a3.5,3.5,0,0,1,6.286,0Z" fill="#ffd15b"/>
            <path id="Trazado_124456" data-name="Trazado 124456" d="M55.221,2.534A3.456,3.456,0,0,0,53.939,3.96l-2.174,4.4a3.511,3.511,0,0,1-2.639,1.917l-4.859.706a3.5,3.5,0,0,0-1.943,5.977l3.517,3.428a3.5,3.5,0,0,1,1.008,3.1l-.83,4.841a3.44,3.44,0,0,0,.951,3.044l-.239.126a3.505,3.505,0,0,1-5.086-3.695l.83-4.841a3.5,3.5,0,0,0-1.008-3.1l-3.517-3.428a3.506,3.506,0,0,1,1.943-5.979l4.859-.7a3.511,3.511,0,0,0,2.639-1.917l2.174-4.4a3.511,3.511,0,0,1,5.656-.9Z" fill="#ffc344"/>
          </g>
          <g id="Grupo_97041" data-name="Grupo 97041">
            <g id="Grupo_97039" data-name="Grupo 97039">
              <path id="Trazado_124457" data-name="Trazado 124457" d="M26.439,17.5l1.612,3.266a2.6,2.6,0,0,0,1.958,1.422l3.6.524a2.6,2.6,0,0,1,1.441,4.435L32.445,29.69a2.6,2.6,0,0,0-.748,2.3l.616,3.59a2.6,2.6,0,0,1-3.772,2.741l-3.224-1.695a2.6,2.6,0,0,0-2.42,0l-3.224,1.695A2.6,2.6,0,0,1,15.9,35.581l.616-3.59a2.6,2.6,0,0,0-.748-2.3l-2.608-2.542A2.6,2.6,0,0,1,14.6,22.713l3.6-.524a2.6,2.6,0,0,0,1.958-1.422L21.776,17.5A2.6,2.6,0,0,1,26.439,17.5Z" fill="#ffd15b"/>
              <path id="Trazado_124458" data-name="Trazado 124458" d="M25.971,16.834a2.562,2.562,0,0,0-.951,1.058l-1.612,3.266A2.6,2.6,0,0,1,21.45,22.58l-3.6.524A2.6,2.6,0,0,0,16.4,27.537l2.609,2.543a2.6,2.6,0,0,1,.748,2.3l-.616,3.591a2.552,2.552,0,0,0,.705,2.258l-.177.094A2.6,2.6,0,0,1,15.9,35.582l.616-3.591a2.6,2.6,0,0,0-.748-2.3l-2.609-2.543A2.6,2.6,0,0,1,14.6,22.713l3.6-.522a2.605,2.605,0,0,0,1.958-1.422L21.776,17.5a2.6,2.6,0,0,1,4.195-.667Z" fill="#ffc344"/>
            </g>
            <g id="Grupo_97040" data-name="Grupo 97040">
              <path id="Trazado_124459" data-name="Trazado 124459" d="M83.641,17.5l1.612,3.266a2.6,2.6,0,0,0,1.958,1.422l3.6.524a2.6,2.6,0,0,1,1.441,4.435L89.648,29.69a2.6,2.6,0,0,0-.748,2.3l.616,3.59a2.6,2.6,0,0,1-3.772,2.741L82.52,36.627a2.6,2.6,0,0,0-2.42,0l-3.224,1.695A2.6,2.6,0,0,1,73.1,35.581l.616-3.59a2.6,2.6,0,0,0-.748-2.3l-2.608-2.542A2.6,2.6,0,0,1,71.8,22.713l3.6-.524a2.6,2.6,0,0,0,1.958-1.422L78.978,17.5a2.6,2.6,0,0,1,4.663,0Z" fill="#ffd15b"/>
              <path id="Trazado_124460" data-name="Trazado 124460" d="M83.173,16.834a2.562,2.562,0,0,0-.951,1.058L80.61,21.158a2.6,2.6,0,0,1-1.958,1.422l-3.6.524a2.6,2.6,0,0,0-1.441,4.434l2.609,2.543a2.6,2.6,0,0,1,.748,2.3l-.616,3.591a2.552,2.552,0,0,0,.705,2.258l-.177.094A2.6,2.6,0,0,1,73.1,35.582l.616-3.591a2.6,2.6,0,0,0-.748-2.3l-2.609-2.543A2.6,2.6,0,0,1,71.8,22.713l3.6-.522a2.605,2.605,0,0,0,1.958-1.422L78.979,17.5a2.6,2.6,0,0,1,4.195-.667Z" fill="#ffc344"/>
            </g>
          </g>
        </g>
        <g id="Grupo_97043" data-name="Grupo 97043">
          <path id="Trazado_124461" data-name="Trazado 124461" d="M100.85,49.193a5.656,5.656,0,0,0-7.01-4.178,36.632,36.632,0,0,1-9.679,1.3H79.272a9.221,9.221,0,0,0-9.21,9.21v9.964h0a4.8,4.8,0,0,0,3.7,4.832v5.086a5.723,5.723,0,0,0,.123,1.181,15.256,15.256,0,0,0-10.246,8.3,15.2,15.2,0,0,0-8.515-7.77c.024-.077.049-.154.07-.232A10.328,10.328,0,0,0,64.584,66.61V51.778a7.742,7.742,0,0,0-7.733-7.733H47.976a7.742,7.742,0,0,0-7.733,7.733V65.494h0a4.756,4.756,0,0,0,1.323,3.471,4.816,4.816,0,0,0,2.381,1.358v5.09a5.721,5.721,0,0,0,.1,1.07A15.371,15.371,0,0,0,33.3,84.923,15.277,15.277,0,0,0,25,77.2c.006-.022.014-.043.021-.065a9.788,9.788,0,0,0,8.834-9.733V56.676A13.305,13.305,0,0,0,7.4,54.6,6.435,6.435,0,1,0,7.259,67.34a8.2,8.2,0,0,0,7.035,7.586v.747a5.463,5.463,0,0,0,.046.693,15.247,15.247,0,0,0-5.965,2.306A1.479,1.479,0,1,0,10,81.146a12.292,12.292,0,0,1,5.585-1.958,5.456,5.456,0,0,0,7.789.575,12.331,12.331,0,0,1,8.437,11.709v6.569H13.278V93.488a1.479,1.479,0,0,0-2.959,0v4.553H4.414V91.472a12.363,12.363,0,0,1,1.475-5.856,1.48,1.48,0,1,0-2.6-1.406,15.332,15.332,0,0,0-1.831,7.262v8.048A1.479,1.479,0,0,0,2.934,101H93.99a1.479,1.479,0,0,0,1.479-1.479V91.472A15.343,15.343,0,0,0,85,76.952c.006-.023.014-.045.02-.067A10.321,10.321,0,0,0,94.4,66.609v-9.94a24.481,24.481,0,0,0,2.93-.9A5.685,5.685,0,0,0,101,50.478a5.757,5.757,0,0,0-.149-1.285ZM2.96,60.959a3.48,3.48,0,0,1,4.281-3.384v6.767A3.48,3.48,0,0,1,2.96,60.959Zm7.24,5.859V56.677a10.346,10.346,0,0,1,20.644-1,19.967,19.967,0,0,1-2.373.147H21.352a4.788,4.788,0,0,0-4.782,4.784v1.306H15.493a4.633,4.633,0,0,0-4.675,4.374,4.558,4.558,0,0,0,1.265,3.39,4.611,4.611,0,0,0,2.211,1.284v.958a5.238,5.238,0,0,1-4.094-5.1Zm9.557,11.355a2.5,2.5,0,0,1-2.5-2.5V69.622a1.479,1.479,0,0,0-1.479-1.479H15.4a1.634,1.634,0,0,1-1.631-1.713,1.7,1.7,0,0,1,1.72-1.554H18.05A1.479,1.479,0,0,0,19.53,63.4V60.61a1.826,1.826,0,0,1,1.824-1.825h7.117a22.932,22.932,0,0,0,2.422-.129v8.749a6.826,6.826,0,0,1-6.821,6.819c-.067,0-.133,0-.2,0l-.089,0h-.008a6.359,6.359,0,0,1-2.257-.56,1.479,1.479,0,1,0-1.3,2.658,8.377,8.377,0,0,0,1.7.6,2.533,2.533,0,0,1-.4.528,2.483,2.483,0,0,1-1.762.726ZM47.976,47h8.875a4.779,4.779,0,0,1,4.774,4.774V54.2a21.4,21.4,0,0,1-2.675.17H51.368a5,5,0,0,0-5,5V60.86H45.128a4.971,4.971,0,0,0-1.926.386V51.778A4.78,4.78,0,0,1,47.976,47ZM43.707,66.923a1.825,1.825,0,0,1-.506-1.357,1.907,1.907,0,0,1,1.927-1.747h2.723a1.479,1.479,0,0,0,1.479-1.479V59.373a2.041,2.041,0,0,1,2.039-2.039h7.58a24.335,24.335,0,0,0,2.675-.148V66.61a7.366,7.366,0,0,1-7.36,7.359c-.072,0-.143,0-.213-.005l-.1,0h-.007a6.87,6.87,0,0,1-2.443-.606,1.48,1.48,0,0,0-1.3,2.658,8.9,8.9,0,0,0,1.917.665,2.775,2.775,0,0,1-.508.695,2.762,2.762,0,0,1-4.707-1.958V68.97a1.479,1.479,0,0,0-1.479-1.479h-.393a1.819,1.819,0,0,1-1.328-.568Zm-8.94,24.55A12.381,12.381,0,0,1,45.428,79.248a5.716,5.716,0,0,0,8.045.435A12.285,12.285,0,0,1,62.16,91.472v6.569H43.839V93.488a1.479,1.479,0,1,0-2.959,0v4.553H34.767V91.472Zm57.744,0v6.569h-18.2V93.488a1.479,1.479,0,1,0-2.959,0v4.553H65.119V91.472a12.314,12.314,0,0,1,10.2-12.153,5.71,5.71,0,0,0,8.1.246,12.369,12.369,0,0,1,9.1,11.907ZM96.29,53a21.438,21.438,0,0,1-3.636,1.013l-.018,0-.022,0-.016,0-.009,0a21.423,21.423,0,0,1-3.823.345H87.311a1.479,1.479,0,0,0,0,2.959h1.456a24.32,24.32,0,0,0,2.677-.149v9.424a7.36,7.36,0,0,1-7.362,7.358c-.1,0-.2,0-.306-.007h-.013a6.841,6.841,0,0,1-2.441-.606,1.48,1.48,0,1,0-1.3,2.658,8.911,8.911,0,0,0,1.917.665,2.78,2.78,0,0,1-.509.694,2.737,2.737,0,0,1-1.943.8,2.765,2.765,0,0,1-2.764-2.76V68.97a1.479,1.479,0,0,0-1.479-1.479h-.392a1.835,1.835,0,0,1-1.832-1.927h0a1.906,1.906,0,0,1,1.927-1.743h2.722a1.479,1.479,0,0,0,1.479-1.479V59.373a2.048,2.048,0,0,1,1.616-2,1.48,1.48,0,0,0-.609-2.9,5.02,5.02,0,0,0-3.966,4.892v1.487H74.946a4.978,4.978,0,0,0-1.925.384V55.53a6.258,6.258,0,0,1,6.251-6.251H84.16a39.6,39.6,0,0,0,10.465-1.411,2.7,2.7,0,0,1,3.342,1.991,2.769,2.769,0,0,1,.073.619A2.711,2.711,0,0,1,96.29,53Z"/>
          <path id="Trazado_124462" data-name="Trazado 124462" d="M83.038,63.511a1.479,1.479,0,0,0,1.479-1.479V60.605a1.479,1.479,0,1,0-2.959,0v1.426A1.48,1.48,0,0,0,83.038,63.511Z"/>
          <path id="Trazado_124463" data-name="Trazado 124463" d="M88.455,63.511a1.479,1.479,0,0,0,1.479-1.479V60.605a1.479,1.479,0,1,0-2.959,0v1.426A1.48,1.48,0,0,0,88.455,63.511Z"/>
          <path id="Trazado_124464" data-name="Trazado 124464" d="M83.19,66.851a1.479,1.479,0,0,0-1.637,2.465,7.746,7.746,0,0,0,3.837,1.254,1.479,1.479,0,0,0,0-2.959,4.821,4.821,0,0,1-2.2-.76Z"/>
          <path id="Trazado_124465" data-name="Trazado 124465" d="M53.22,63.511A1.479,1.479,0,0,0,54.7,62.031V60.606a1.479,1.479,0,1,0-2.959,0v1.426A1.48,1.48,0,0,0,53.22,63.511Z"/>
          <path id="Trazado_124466" data-name="Trazado 124466" d="M58.637,63.511a1.479,1.479,0,0,0,1.479-1.479V60.606a1.479,1.479,0,0,0-2.959,0v1.426A1.479,1.479,0,0,0,58.637,63.511Z"/>
          <path id="Trazado_124467" data-name="Trazado 124467" d="M51.734,69.316a7.744,7.744,0,0,0,3.837,1.254,1.479,1.479,0,1,0,0-2.959,4.817,4.817,0,0,1-2.2-.759,1.479,1.479,0,0,0-1.638,2.464Z"/>
          <path id="Trazado_124468" data-name="Trazado 124468" d="M23.091,64.586a1.479,1.479,0,0,0,1.479-1.479V61.768a1.479,1.479,0,1,0-2.959,0v1.339A1.479,1.479,0,0,0,23.091,64.586Z"/>
          <path id="Trazado_124469" data-name="Trazado 124469" d="M28.177,64.586a1.479,1.479,0,0,0,1.479-1.479V61.768a1.479,1.479,0,1,0-2.959,0v1.339A1.479,1.479,0,0,0,28.177,64.586Z"/>
          <path id="Trazado_124470" data-name="Trazado 124470" d="M21.646,70.022A7.369,7.369,0,0,0,25.3,71.214a1.479,1.479,0,1,0,0-2.959,4.431,4.431,0,0,1-2.016-.7,1.48,1.48,0,0,0-1.637,2.465Z"/>
          <path id="Trazado_124471" data-name="Trazado 124471" d="M40.435,20.925a2.031,2.031,0,0,1,.584,1.792l-.83,4.841a4.984,4.984,0,0,0,7.232,5.255l4.347-2.285a2.019,2.019,0,0,1,1.885,0L58,32.813a4.985,4.985,0,0,0,7.232-5.254l-.83-4.841a2.025,2.025,0,0,1,.583-1.791L68.5,17.5A4.986,4.986,0,0,0,65.735,9l-1.442-.209a1.48,1.48,0,1,0-.425,2.928l1.441.209a2.027,2.027,0,0,1,1.123,3.456l-3.518,3.429a4.984,4.984,0,0,0-1.433,4.41l.83,4.841a2.026,2.026,0,0,1-2.939,2.135L55.03,27.911a4.976,4.976,0,0,0-4.641,0l-4.345,2.284A2.026,2.026,0,0,1,43.1,28.059l.831-4.843A4.99,4.99,0,0,0,42.5,18.808l-3.517-3.428a2.026,2.026,0,0,1,1.122-3.456l4.861-.7a4.993,4.993,0,0,0,3.751-2.727l2.174-4.405a2.025,2.025,0,0,1,3.631,0L56.6,8.3a1.479,1.479,0,0,0,2.653-1.309L57.178,2.779a4.984,4.984,0,0,0-8.939,0l-2.173,4.4a2.033,2.033,0,0,1-1.525,1.109l-4.859.7a4.985,4.985,0,0,0-2.763,8.5Z"/>
          <path id="Trazado_124472" data-name="Trazado 124472" d="M14.736,30.749a1.121,1.121,0,0,1,.322.992l-.616,3.59a4.074,4.074,0,0,0,5.919,4.3l3.224-1.695a1.12,1.12,0,0,1,1.043,0l3.224,1.695a4.079,4.079,0,0,0,5.919-4.3l-.616-3.59a1.121,1.121,0,0,1,.322-.992l2.608-2.542a4.079,4.079,0,0,0-2.261-6.958l-3.6-.524a1.12,1.12,0,0,1-.843-.613l-1.612-3.266a4.079,4.079,0,0,0-7.316,0l-1.612,3.266a1.119,1.119,0,0,1-.843.613l-3.6.524a4.079,4.079,0,0,0-2.261,6.958Zm-.826-5.81a1.092,1.092,0,0,1,.9-.763l3.6-.524a4.078,4.078,0,0,0,3.071-2.231L23.1,18.156a1.12,1.12,0,0,1,2.01,0l1.612,3.266A4.078,4.078,0,0,0,29.8,23.653l3.6.524a1.12,1.12,0,0,1,.621,1.911L31.412,28.63a4.078,4.078,0,0,0-1.173,3.611l.616,3.59a1.12,1.12,0,0,1-1.626,1.181l-3.224-1.695a4.078,4.078,0,0,0-3.8,0l-3.224,1.695a1.12,1.12,0,0,1-1.626-1.181l.616-3.59A4.078,4.078,0,0,0,16.8,28.631l-2.608-2.542a1.092,1.092,0,0,1-.283-1.149Z"/>
          <path id="Trazado_124473" data-name="Trazado 124473" d="M68.3,24.025a4.055,4.055,0,0,0,1.032,4.182l2.608,2.542a1.121,1.121,0,0,1,.322.992l-.616,3.59a4.08,4.08,0,0,0,5.919,4.3l3.224-1.695a1.121,1.121,0,0,1,1.043,0l3.224,1.695a4.08,4.08,0,0,0,5.919-4.3l-.616-3.59a1.121,1.121,0,0,1,.323-.992l2.608-2.542a4.079,4.079,0,0,0-2.261-6.958l-3.6-.524a1.12,1.12,0,0,1-.844-.613l-1.612-3.266a4.079,4.079,0,0,0-7.316,0L76.04,20.112a1.12,1.12,0,0,1-.844.613l-3.6.524A4.054,4.054,0,0,0,68.3,24.025Zm2.814.914a1.092,1.092,0,0,1,.9-.763l3.6-.524a4.079,4.079,0,0,0,3.072-2.232L80.3,18.155a1.12,1.12,0,0,1,2.01,0l1.612,3.266A4.078,4.078,0,0,0,87,23.653l3.6.524a1.12,1.12,0,0,1,.621,1.911L88.614,28.63a4.078,4.078,0,0,0-1.173,3.611l.616,3.59a1.12,1.12,0,0,1-1.626,1.181l-3.224-1.695a4.079,4.079,0,0,0-3.8,0l-3.224,1.695a1.12,1.12,0,0,1-1.626-1.181l.616-3.59A4.078,4.078,0,0,0,74,28.63L71.4,26.088a1.092,1.092,0,0,1-.283-1.148Z"/>
        </g>
      </g>
    </g>
  </g>
</svg>
