<svg xmlns="http://www.w3.org/2000/svg" xmlns:xlink="http://www.w3.org/1999/xlink" width="190" height="134" viewBox="0 0 190 134">
  <defs>
    <clipPath id="clip-path">
      <rect id="Rect치ngulo_35326" data-name="Rect치ngulo 35326" width="101" height="101" transform="translate(224 433)" fill="#26d19e" stroke="#707070" stroke-width="1"/>
    </clipPath>
  </defs>
  <g id="Grupo_90792" data-name="Grupo 90792" transform="translate(-180 -417)">
    <rect id="Rect치ngulo_33975" data-name="Rect치ngulo 33975" width="190" height="134" transform="translate(180 417)" fill="#fff"/>
    <g id="Enmascarar_grupo_332" data-name="Enmascarar grupo 332" clip-path="url(#clip-path)">
      <g id="la-satisfaccion-del-cliente" transform="translate(222.371 431.371)">
        <g id="Grupo_95528" data-name="Grupo 95528">
          <g id="Grupo_95508" data-name="Grupo 95508">
            <path id="Trazado_123286" data-name="Trazado 123286" d="M81.68,81.68l6.907,6.907A42.162,42.162,0,0,1,58.645,101V91.226A32.479,32.479,0,0,0,81.68,81.68Z" fill="#e6e9ed"/>
          </g>
          <g id="Grupo_95509" data-name="Grupo 95509">
            <path id="Trazado_123287" data-name="Trazado 123287" d="M58.645,91.226V101A42.169,42.169,0,0,1,39.6,96.488l-.5-2A19.2,19.2,0,0,0,42.11,86.73h.016a32.458,32.458,0,0,0,16.518,4.5Z" fill="#ff826e"/>
          </g>
          <g id="Grupo_95510" data-name="Grupo 95510">
            <path id="Trazado_123288" data-name="Trazado 123288" d="M91.226,58.645H101A42.162,42.162,0,0,1,88.587,88.587L81.68,81.68A32.479,32.479,0,0,0,91.226,58.645Z" fill="#69d6f4"/>
          </g>
          <g id="Grupo_95511" data-name="Grupo 95511">
            <path id="Trazado_123289" data-name="Trazado 123289" d="M101,58.645H91.226A32.479,32.479,0,0,0,81.68,35.611L88.587,28.7A42.162,42.162,0,0,1,101,58.645Z" fill="#fcd770"/>
          </g>
          <g id="Grupo_95512" data-name="Grupo 95512">
            <path id="Trazado_123290" data-name="Trazado 123290" d="M58.645,26.065a32.59,32.59,0,0,0-13.456,2.9,5.453,5.453,0,0,0-.733-1.173,31.951,31.951,0,0,0,1.157-8.5v-.961A42.428,42.428,0,0,1,88.587,28.7L81.68,35.611a32.479,32.479,0,0,0-23.035-9.546Z" fill="#b4dd7f"/>
          </g>
          <g id="Grupo_95513" data-name="Grupo 95513">
            <path id="Trazado_123291" data-name="Trazado 123291" d="M27.694,16.29H19.548a6.514,6.514,0,0,0-6.516,6.516v3.258H11.4a4.866,4.866,0,0,0-3.73,1.727,31.951,31.951,0,0,1-1.157-8.5,16.018,16.018,0,0,1,16.03-16.03H42.355a3.268,3.268,0,0,1,3.258,3.258V19.288a31.951,31.951,0,0,1-1.157,8.5,4.866,4.866,0,0,0-3.73-1.727H39.1V22.806a3.268,3.268,0,0,0-3.258-3.258H34.21A8.161,8.161,0,0,1,27.694,16.29Z" fill="#656d78"/>
          </g>
          <g id="Grupo_95514" data-name="Grupo 95514">
            <path id="Trazado_123292" data-name="Trazado 123292" d="M29.225,54.035l-1.531,4.61H24.435L22.9,54.035l3.16-1.906Z" fill="#ff826e"/>
          </g>
          <g id="Grupo_95515" data-name="Grupo 95515">
            <path id="Trazado_123293" data-name="Trazado 123293" d="M39.1,61.9a3.268,3.268,0,0,0-3.258,3.258V61.9a3.282,3.282,0,0,0-3.258-3.258A3.268,3.268,0,0,0,29.323,61.9a3.282,3.282,0,0,0-3.258-3.258h1.629l1.531-4.61,4.985,2.981,1.4-6.989a22.82,22.82,0,0,1,13.26,20.738v.912H42.355V65.161A3.282,3.282,0,0,0,39.1,61.9Z" fill="#fcd770"/>
          </g>
          <g id="Grupo_95516" data-name="Grupo 95516">
            <path id="Trazado_123294" data-name="Trazado 123294" d="M16.29,52.129V73.176a1.764,1.764,0,0,1-3.5.293L12.315,70.6A6.492,6.492,0,0,0,10.1,66.709a6.421,6.421,0,0,0-4.2-1.548A2.6,2.6,0,0,0,3.7,66.35H3.682a22.9,22.9,0,0,1,13.83-16.763,3.246,3.246,0,0,0-1.222,2.541Z" fill="#fcd770"/>
          </g>
          <g id="Grupo_95517" data-name="Grupo 95517">
            <path id="Trazado_123295" data-name="Trazado 123295" d="M26.065,52.129,22.9,54.035l-.1.049V52.129a3.277,3.277,0,0,0-.652-1.955Z" fill="#ffc729"/>
          </g>
          <g id="Grupo_95518" data-name="Grupo 95518">
            <path id="Trazado_123296" data-name="Trazado 123296" d="M35.611,50.011v.016l-1.4,6.989-4.985-2.981-3.16-1.906,6.516-3.258a24.135,24.135,0,0,1,3.03,1.14Z" fill="#ffc729"/>
          </g>
          <g id="Grupo_95519" data-name="Grupo 95519">
            <path id="Trazado_123297" data-name="Trazado 123297" d="M55.387,52.129V39.1a3.268,3.268,0,0,1,3.258-3.258H71.677A3.2,3.2,0,0,1,74.1,36.946a3.161,3.161,0,0,1,.831,2.15V52.129a3.268,3.268,0,0,1-3.258,3.258H58.645A3.268,3.268,0,0,1,55.387,52.129Z" fill="#ff826e"/>
          </g>
          <g id="Grupo_95520" data-name="Grupo 95520">
            <path id="Trazado_123298" data-name="Trazado 123298" d="M55.387,78.194V65.161A3.268,3.268,0,0,1,58.645,61.9H71.677A3.2,3.2,0,0,1,74.1,63.011a3.161,3.161,0,0,1,.831,2.15V78.194a3.268,3.268,0,0,1-3.258,3.258H58.645A3.268,3.268,0,0,1,55.387,78.194Z" fill="#ff826e"/>
          </g>
          <g id="Grupo_95521" data-name="Grupo 95521">
            <path id="Trazado_123299" data-name="Trazado 123299" d="M39.6,96.488,40.726,101H11.4l1.629-6.516H39.1Z" fill="#b4dd7f"/>
          </g>
          <g id="Grupo_95522" data-name="Grupo 95522">
            <path id="Trazado_123300" data-name="Trazado 123300" d="M35.839,65.161A3.268,3.268,0,0,1,39.1,61.9a3.282,3.282,0,0,1,3.258,3.258V83.716a18.648,18.648,0,0,1-.244,3.014A19.2,19.2,0,0,1,39.1,94.484H13.032L9.9,90.3a11.179,11.179,0,0,1-2.167-5.229l-.424-2.916a47.112,47.112,0,0,0-2.9-10.833l-.961-2.411a2.717,2.717,0,0,1-.2-1.01v-.1a2.622,2.622,0,0,1,.44-1.45,2.6,2.6,0,0,1,2.2-1.189,6.421,6.421,0,0,1,4.2,1.548A6.492,6.492,0,0,1,12.315,70.6l.472,2.867a1.764,1.764,0,0,0,3.5-.293V52.129a3.246,3.246,0,0,1,1.222-2.541,3.292,3.292,0,0,1,2.036-.717,3.185,3.185,0,0,1,2.3.961c.114.114.212.228.31.342a3.277,3.277,0,0,1,.652,1.955V61.9a3.268,3.268,0,0,1,3.258-3.258A3.282,3.282,0,0,1,29.323,61.9a3.268,3.268,0,0,1,3.258-3.258A3.282,3.282,0,0,1,35.839,61.9Z" fill="#f0d0b4"/>
          </g>
          <g id="Grupo_95523" data-name="Grupo 95523">
            <path id="Trazado_123301" data-name="Trazado 123301" d="M45.189,28.964a4.78,4.78,0,0,1,.424,1.987,4.894,4.894,0,0,1-4.887,4.887H39.1V26.065h1.629a4.866,4.866,0,0,1,3.73,1.727,5.453,5.453,0,0,1,.733,1.173Z" fill="#f0d0b4"/>
          </g>
          <g id="Grupo_95524" data-name="Grupo 95524">
            <path id="Trazado_123302" data-name="Trazado 123302" d="M29.323,45.613a9.385,9.385,0,0,0,1.922-.2l1.336,3.454-6.516,3.258-3.91-1.955c-.1-.114-.2-.228-.31-.342a3.185,3.185,0,0,0-2.3-.961l1.336-3.454a9.384,9.384,0,0,0,1.922.2Z" fill="#f0d0b4"/>
          </g>
          <g id="Grupo_95525" data-name="Grupo 95525">
            <path id="Trazado_123303" data-name="Trazado 123303" d="M39.1,26.065v9.774a9.757,9.757,0,0,1-7.852,9.579,9.384,9.384,0,0,1-1.922.2H22.806a9.384,9.384,0,0,1-1.922-.2,9.757,9.757,0,0,1-7.852-9.579V22.806a6.514,6.514,0,0,1,6.516-6.516h8.145a8.161,8.161,0,0,0,6.516,3.258h1.629A3.268,3.268,0,0,1,39.1,22.806Z" fill="#f0d0b4"/>
          </g>
          <g id="Grupo_95526" data-name="Grupo 95526">
            <path id="Trazado_123304" data-name="Trazado 123304" d="M13.032,26.065v9.774H11.4a4.887,4.887,0,1,1,0-9.774Z" fill="#f0d0b4"/>
          </g>
          <g id="Grupo_95527" data-name="Grupo 95527">
            <path id="Trazado_123305" data-name="Trazado 123305" d="M19.548,32.581H32.581a6.516,6.516,0,1,1-13.032,0Z" fill="#ff826e"/>
          </g>
        </g>
        <g id="Grupo_95529" data-name="Grupo 95529">
          <circle id="Elipse_5642" data-name="Elipse 5642" cx="1.629" cy="1.629" r="1.629" transform="translate(17.919 24.435)"/>
          <circle id="Elipse_5643" data-name="Elipse 5643" cx="1.629" cy="1.629" r="1.629" transform="translate(30.952 24.435)"/>
          <path id="Trazado_123306" data-name="Trazado 123306" d="M34.21,32.581V30.952H17.919v1.629a8.145,8.145,0,0,0,16.29,0ZM21.456,34.21h9.215a4.887,4.887,0,0,1-9.215,0Z"/>
          <path id="Trazado_123307" data-name="Trazado 123307" d="M58.645,14.661a44.045,44.045,0,0,0-11.4,1.525V6.516a4.893,4.893,0,0,0-4.887-4.887H22.543A17.676,17.676,0,0,0,4.887,19.284a33.32,33.32,0,0,0,1.034,8.173A6.494,6.494,0,0,0,11.4,37.468h.13a11.42,11.42,0,0,0,7.2,9.009l-.36.925a4.845,4.845,0,0,0-1.67.772A24.389,24.389,0,0,0,2.134,65.86a4.418,4.418,0,0,0-.5,2.033,4.325,4.325,0,0,0,.311,1.619l.966,2.414A45.541,45.541,0,0,1,5.7,82.383L6.119,85.3a13.057,13.057,0,0,0,2.476,5.977l2.668,3.559-1.947,7.788h33.5l-.819-3.278a43.545,43.545,0,0,0,16.652,3.278,43.984,43.984,0,0,0,0-87.968ZM37.279,60.633a4.881,4.881,0,0,0-1.631-2.5l1.135-5.672a21.065,21.065,0,0,1,10.447,17.59H43.984V65.16a4.868,4.868,0,0,0-6.705-4.527Zm-4.579-10c.353.117.71.23,1.054.363l-.687,3.432-3.618-2.17Zm-7.09,6.383-.754-2.261,1.209-.727,1.209.725-.754,2.263Zm4.525-.544,1.205.723a4.857,4.857,0,0,0-1.732.855ZM43.984,83.724V73.306H50.5V70.765A24.315,24.315,0,0,0,33.825,47.578l-.428-1.1a11.42,11.42,0,0,0,7.2-9.009h.13a6.523,6.523,0,0,0,6.516-6.516,6.608,6.608,0,0,0-.1-1.005,30.939,30.939,0,1,1-3.274,55.881,21.022,21.022,0,0,0,.117-2.1ZM40.726,27.694a3.258,3.258,0,0,1,0,6.516ZM60.274,92.772A34.017,34.017,0,0,0,81.616,83.92l4.633,4.633A40.564,40.564,0,0,1,60.274,99.329ZM83.92,81.618a34.025,34.025,0,0,0,8.852-21.344h6.557A40.565,40.565,0,0,1,88.553,86.251Zm8.852-24.6A34.025,34.025,0,0,0,83.92,35.673l4.633-4.633A40.565,40.565,0,0,1,99.329,57.016Zm-6.521-28.28-4.633,4.633A34.09,34.09,0,0,0,46.39,26.7a33.355,33.355,0,0,0,.842-7.13,40.532,40.532,0,0,1,39.019,9.165ZM8.145,30.952A3.261,3.261,0,0,1,11.4,27.694V34.21A3.261,3.261,0,0,1,8.145,30.952Zm6.516,4.887V22.806a4.884,4.884,0,0,1,4.719-4.871,12.593,12.593,0,0,0,4.151,4.6l1.807-2.711a9.328,9.328,0,0,1-4.161-7.775V11.4H17.919v.643a12.649,12.649,0,0,0,.318,2.748A8.137,8.137,0,0,0,11.4,22.806v1.629a6.464,6.464,0,0,0-2.694.6,30.129,30.129,0,0,1-.564-5.75,14.414,14.414,0,0,1,14.4-14.4H42.355a1.632,1.632,0,0,1,1.629,1.629V19.284a30.129,30.129,0,0,1-.564,5.75,6.464,6.464,0,0,0-2.694-.6V22.806a4.893,4.893,0,0,0-4.887-4.887H34.21A6.523,6.523,0,0,1,27.694,11.4H24.435a9.784,9.784,0,0,0,9.774,9.774h1.629a1.632,1.632,0,0,1,1.629,1.629V35.839a8.154,8.154,0,0,1-8.145,8.145H22.806A8.154,8.154,0,0,1,14.661,35.839Zm8.145,11.4h6.516c.29,0,.575-.023.859-.044l.342.88-4.459,2.23-2.919-1.46a4.874,4.874,0,0,0-1.422-1.074l.225-.577C22.231,47.219,22.516,47.242,22.806,47.242Zm-8.145,5.692V73.171c0,.14-.248.16-.269.024l-.477-2.867a8.092,8.092,0,0,0-7.743-6.772A21.072,21.072,0,0,1,14.661,52.934ZM9.344,84.845l-.417-2.922a48.809,48.809,0,0,0-2.994-11.2L4.967,68.3a1.221,1.221,0,0,1-.08-.5A1.007,1.007,0,0,1,5.894,66.79,4.861,4.861,0,0,1,10.7,70.863l.477,2.867a3.393,3.393,0,0,0,6.739-.559V52.129a1.629,1.629,0,0,1,3.258,0V73.306h3.258V61.9a1.629,1.629,0,1,1,3.258,0v11.4h3.258V61.9a1.629,1.629,0,0,1,3.258,0v11.4h3.258V65.161a1.629,1.629,0,0,1,3.258,0V83.724a17.692,17.692,0,0,1-2.538,9.131H13.847L11.2,89.328a9.805,9.805,0,0,1-1.857-4.483ZM13.49,99.371l.815-3.258h23.52l.815,3.258Zm27.353-4.618a21,21,0,0,0,2.4-5.553,34.179,34.179,0,0,0,13.769,3.6v6.524A40.189,40.189,0,0,1,40.99,95.341Z"/>
          <path id="Trazado_123308" data-name="Trazado 123308" d="M61.426,42.832l-2.3,2.3,6.215,6.215,10.9-14.534-2.606-1.955-8.647,11.53Z"/>
          <path id="Trazado_123309" data-name="Trazado 123309" d="M58.645,57.016H71.677a4.893,4.893,0,0,0,4.887-4.887V45.613H73.306v6.516a1.632,1.632,0,0,1-1.629,1.629H58.645a1.632,1.632,0,0,1-1.629-1.629V39.1a1.632,1.632,0,0,1,1.629-1.629H66.79V34.21H58.645A4.893,4.893,0,0,0,53.758,39.1V52.129A4.893,4.893,0,0,0,58.645,57.016Z"/>
          <path id="Trazado_123310" data-name="Trazado 123310" d="M64.985,72.456,61.426,68.9l-2.3,2.3,6.215,6.215,10.9-14.534-2.606-1.955Z"/>
          <path id="Trazado_123311" data-name="Trazado 123311" d="M71.677,83.081a4.893,4.893,0,0,0,4.887-4.887V71.677H73.306v6.516a1.631,1.631,0,0,1-1.629,1.629H58.645a1.631,1.631,0,0,1-1.629-1.629V65.161a1.631,1.631,0,0,1,1.629-1.629H66.79V60.274H58.645a4.893,4.893,0,0,0-4.887,4.887V78.194a4.893,4.893,0,0,0,4.887,4.887Z"/>
        </g>
      </g>
    </g>
  </g>
</svg>
