<svg xmlns="http://www.w3.org/2000/svg" xmlns:xlink="http://www.w3.org/1999/xlink" width="86" height="86" viewBox="0 0 86 86">
  <defs>
    <clipPath id="clip-path">
      <rect id="Rectángulo_35159" data-name="Rectángulo 35159" width="86" height="86" transform="translate(1061 10729)" fill="#ffd41c"/>
    </clipPath>
  </defs>
  <g id="Enmascarar_grupo_348" data-name="Enmascarar grupo 348" transform="translate(-1061 -10729)" clip-path="url(#clip-path)">
    <g id="rompecabezas" transform="translate(1061 10729)">
      <path id="Trazado_124587" data-name="Trazado 124587" d="M58.117,31.494H27.883a8.4,8.4,0,0,1-8.4-8.4V9.658a8.4,8.4,0,0,1,8.4-8.4H58.117a8.4,8.4,0,0,1,8.4,8.4V23.1A8.4,8.4,0,0,1,58.117,31.494Z" fill="#b5fcff"/>
      <path id="Trazado_124588" data-name="Trazado 124588" d="M58.117,1.26H53.078a8.4,8.4,0,0,1,8.4,8.4V23.1a8.4,8.4,0,0,1-8.4,8.4h5.039a8.4,8.4,0,0,0,8.4-8.4V9.658A8.4,8.4,0,0,0,58.117,1.26Z" fill="#71f6fc"/>
      <g id="Grupo_97080" data-name="Grupo 97080">
        <g id="Grupo_97077" data-name="Grupo 97077">
          <g id="Grupo_97076" data-name="Grupo 97076">
            <path id="Trazado_124589" data-name="Trazado 124589" d="M60.969,53.956c0,2.172-1.3,3.933-2.913,3.933s-2.543-2.022-2.543-4.194.934-3.671,2.543-3.671S60.969,51.784,60.969,53.956Z" fill="#e8916f"/>
            <path id="Trazado_124590" data-name="Trazado 124590" d="M79.285,53.956c0,2.172,1.3,3.933,2.913,3.933s2.543-2.022,2.543-4.194-.934-3.671-2.543-3.671S79.285,51.784,79.285,53.956Z" fill="#d98868"/>
          </g>
        </g>
        <rect id="Rectángulo_35450" data-name="Rectángulo 35450" width="5.94" height="9.534" transform="translate(67.157 66.148)" fill="#d98868"/>
        <path id="Trazado_124591" data-name="Trazado 124591" d="M59.434,57.6V49.544A10.091,10.091,0,0,1,69.525,39.453h1.2A10.091,10.091,0,0,1,80.819,49.544V57.6A10.693,10.693,0,0,1,70.127,68.294h0A10.692,10.692,0,0,1,59.434,57.6Z" fill="#ebad88"/>
        <path id="Trazado_124592" data-name="Trazado 124592" d="M70.729,39.453h-1.2a10.144,10.144,0,0,0-1.18.071,10.111,10.111,0,0,1,8.911,10.051v7.993a10.718,10.718,0,0,1-8.911,10.577,10.726,10.726,0,0,0,1.782.149h0A10.709,10.709,0,0,0,80.82,57.568V49.575A10.107,10.107,0,0,0,70.729,39.453Z" fill="#e8916f"/>
        <path id="Trazado_124593" data-name="Trazado 124593" d="M84.027,82.726V84.74h-27.8V82.726c0-5.856,4.112-10.6,9.184-10.6h9.432C79.916,72.122,84.027,76.87,84.027,82.726Z" fill="#47d5e6"/>
        <path id="Trazado_124594" data-name="Trazado 124594" d="M74.843,72.122H69.8c5.072,0,9.184,4.747,9.184,10.6V84.74h5.039V82.726C84.027,76.87,79.916,72.122,74.843,72.122Z" fill="#22c0d4"/>
        <path id="Trazado_124595" data-name="Trazado 124595" d="M65.675,72.122h8.9L70.127,84.74Z" fill="#dcdfe8"/>
        <g id="Grupo_97078" data-name="Grupo 97078">
          <path id="Trazado_124596" data-name="Trazado 124596" d="M70.127,84.74,66.852,70.916l-3.583,1.207v5.329Z" fill="#20b5c7"/>
          <path id="Trazado_124597" data-name="Trazado 124597" d="M70.127,84.74,73.4,70.916l3.583,1.207v5.329Z" fill="#20b5c7"/>
        </g>
        <path id="Trazado_124598" data-name="Trazado 124598" d="M59.388,51.716s.89.36,1.8-1.359c1.044-1.966,3.8-3.063,7.1-2.944,4.093.148,5.774-1.3,6.587-2.749,1.125,3.727,2.706,2.749,3.735,5.927a1.528,1.528,0,0,0,2.136,1.124s4.254-2.475,2.062-6.4c.377-7.9-5.8-8.363-5.8-8.363s-2.821-3.594-10.554-1.725c-11.159,2.7-9.178,10.563-9.178,10.563A4.363,4.363,0,0,0,59.388,51.716Z" fill="#8c4a37"/>
        <g id="Grupo_97079" data-name="Grupo 97079">
          <path id="Trazado_124599" data-name="Trazado 124599" d="M82.805,45.312c.377-7.9-5.8-8.363-5.8-8.363s-2.448-3.113-9.026-2.034a8.338,8.338,0,0,1,3.05,1.228,9.3,9.3,0,0,0,2.2,1.1c1.784.613,4.8,2.479,4.536,8.071A4.084,4.084,0,0,1,78,49.227a6.37,6.37,0,0,1,.6,1.365,1.528,1.528,0,0,0,2.136,1.124S85,49.241,82.805,45.312Z" fill="#804231"/>
        </g>
      </g>
      <g id="Grupo_97083" data-name="Grupo 97083">
        <rect id="Rectángulo_35451" data-name="Rectángulo 35451" width="5.94" height="9.534" transform="translate(12.739 66.148)" fill="#d98868"/>
        <path id="Trazado_124600" data-name="Trazado 124600" d="M5.017,57.6V49.544A10.091,10.091,0,0,1,15.108,39.453h1.2A10.091,10.091,0,0,1,26.4,49.544V57.6A10.693,10.693,0,0,1,15.709,68.294h0A10.692,10.692,0,0,1,5.017,57.6Z" fill="#ebad88"/>
        <path id="Trazado_124601" data-name="Trazado 124601" d="M16.311,39.453h-1.2a10.144,10.144,0,0,0-1.18.071,10.111,10.111,0,0,1,8.911,10.051v7.993a10.718,10.718,0,0,1-8.911,10.577,10.726,10.726,0,0,0,1.782.149h0A10.709,10.709,0,0,0,26.4,57.568V49.575A10.107,10.107,0,0,0,16.311,39.453Z" fill="#e8916f"/>
        <path id="Trazado_124602" data-name="Trazado 124602" d="M29.567,82.726V84.74H1.852V82.726c0-5.856,4.1-10.6,9.156-10.6h9.4C25.468,72.122,29.567,76.87,29.567,82.726Z" fill="#ffd659"/>
        <path id="Trazado_124603" data-name="Trazado 124603" d="M20.411,72.122H15.387c5.057,0,9.156,4.747,9.156,10.6V84.74h5.023V82.726C29.567,76.87,25.468,72.122,20.411,72.122Z" fill="#ffbd54"/>
        <path id="Trazado_124604" data-name="Trazado 124604" d="M11.271,72.122h8.877L15.709,84.74Z" fill="#dcdfe8"/>
        <g id="Grupo_97081" data-name="Grupo 97081">
          <path id="Trazado_124605" data-name="Trazado 124605" d="M15.709,84.74,12.444,70.916,8.872,72.122v5.329Z" fill="#ffa954"/>
          <path id="Trazado_124606" data-name="Trazado 124606" d="M15.709,84.74l3.265-13.825,3.572,1.207v5.329Z" fill="#ffa954"/>
        </g>
        <path id="Trazado_124607" data-name="Trazado 124607" d="M17.941,44.671s-6.241,2.811-8.4,6.441C6.579,56.106,6.635,61.262,5.03,66.15c0,0-3.771-5.231-3.771-10.721,0-23.557,17.2-20.705,17.964-18.916,3.468-1.454,10.423,1.552,10.423,15.352,0,7.1-.855,11.837-3.2,14.735,0,0-1.441-6.162-2.049-11.467C23.283,45.418,17.941,44.671,17.941,44.671Z" fill="#8c4a37"/>
        <g id="Grupo_97082" data-name="Grupo 97082">
          <path id="Trazado_124608" data-name="Trazado 124608" d="M19.223,36.513c-.309-.721-3.283-1.613-6.725-.884.609.148,1.07.529,1.633,1.535A7.285,7.285,0,0,0,17.4,40.249c3.746,1.732,6.109,5.348,7.233,11.616a16.679,16.679,0,0,1-.121,4.2c.656,5.07,1.935,10.539,1.935,10.539,2.348-2.9,3.2-7.633,3.2-14.735C29.646,38.065,22.692,35.059,19.223,36.513Z" fill="#804231"/>
        </g>
      </g>
      <path id="Trazado_124609" data-name="Trazado 124609" d="M56.8,5.7V25.854a.336.336,0,0,1-.336.336h-7.54a.335.335,0,0,1-.225-.584,3.778,3.778,0,0,0,.268-5.263.376.376,0,0,0-.074-.074c-2.943-2.2-6.17-.147-6.17,2.661a3.579,3.579,0,0,0,1.2,2.677.335.335,0,0,1-.226.583h-7.39a.336.336,0,0,1-.336-.336V18.476a.335.335,0,0,0-.575-.235,3.786,3.786,0,0,1-5.2.187.375.375,0,0,1-.074-.074c-2.189-2.948-.137-6.165,2.668-6.165A3.576,3.576,0,0,1,35.4,13.311a.335.335,0,0,0,.575-.235V5.7a.336.336,0,0,1,.336-.336h7.365a.335.335,0,0,1,.228.581A3.577,3.577,0,0,0,42.721,8.6c0,2.813,3.238,4.868,6.184,2.651a.374.374,0,0,0,.074-.075,3.785,3.785,0,0,0-.26-5.233.335.335,0,0,1,.228-.582h7.515A.336.336,0,0,1,56.8,5.7Z" fill="#ff2c5c"/>
      <circle id="Elipse_5783" data-name="Elipse 5783" cx="2.52" cy="2.52" r="2.52" transform="translate(6.131 26.455)" fill="#b5fcff"/>
      <circle id="Elipse_5784" data-name="Elipse 5784" cx="3.191" cy="3.191" r="3.191" transform="translate(9.108 16.15)" fill="#b5fcff"/>
      <circle id="Elipse_5785" data-name="Elipse 5785" cx="2.52" cy="2.52" r="2.52" transform="translate(74.83 26.455)" fill="#b5fcff"/>
      <circle id="Elipse_5786" data-name="Elipse 5786" cx="3.191" cy="3.191" r="3.191" transform="translate(70.509 16.15)" fill="#b5fcff"/>
      <g id="Grupo_97084" data-name="Grupo 97084">
        <path id="Trazado_124610" data-name="Trazado 124610" d="M78.034,71.428a1.254,1.254,0,0,0-.646-.5l-3.031-1.021V68.783a11.9,11.9,0,0,0,2.434-1.258,1.26,1.26,0,0,0-1.406-2.091,9.369,9.369,0,0,1-2.637,1.231,9.536,9.536,0,0,1-5.241,0A9.433,9.433,0,0,1,60.694,57.6V52.729a4.06,4.06,0,0,0,1.61-1.781c.789-1.485,3.122-2.379,5.937-2.276A9.187,9.187,0,0,0,74.5,47.033a7.175,7.175,0,0,0,1.51,1.811,4.163,4.163,0,0,1,1.4,2.135,2.939,2.939,0,0,0,1.583,1.9,2.608,2.608,0,0,0,.567.177V57.6a9.329,9.329,0,0,1-1.048,4.326,1.26,1.26,0,1,0,2.238,1.157,11.954,11.954,0,0,0,1.229-3.945c.073,0,.145.009.219.009,2.2,0,3.8-2.294,3.8-5.454a5.168,5.168,0,0,0-1.68-4.22,5.259,5.259,0,0,0-.244-4.451c.191-7.289-4.8-8.912-6.451-9.248C76.551,34.766,73.1,32.322,66.159,34c-4.306,1.041-7.321,2.946-8.962,5.662a9.167,9.167,0,0,0-1.229,5.965,5.76,5.76,0,0,0-.136,3.943,5.291,5.291,0,0,0-1.579,4.125c0,3.16,1.6,5.454,3.8,5.454.073,0,.146,0,.219-.009A11.942,11.942,0,0,0,65.9,68.781v1.126l-3.031,1.021a1.256,1.256,0,0,0-.646.5c-4.306,1.557-7.254,6.088-7.254,11.3V84.74A1.26,1.26,0,0,0,56.226,86h27.8a1.26,1.26,0,0,0,1.26-1.26V82.726C85.288,77.516,82.34,72.985,78.034,71.428ZM83.48,53.695c0,1.07-.411,3.052-1.4,2.924V52.331A7.682,7.682,0,0,0,82.9,51.6,3.352,3.352,0,0,1,83.48,53.695ZM58.5,45.488c-.064-.272-1.468-6.691,8.25-9.039,6.625-1.6,9.1,1.08,9.273,1.285a1.179,1.179,0,0,0,.891.471c.2.015,4.948.451,4.633,7.047a1.26,1.26,0,0,0,.158.674,2.954,2.954,0,0,1-.084,3.274A4.95,4.95,0,0,1,80.2,50.574c-.161.03-.249.065-.39-.37A6.58,6.58,0,0,0,77.727,47a4.941,4.941,0,0,1-1.647-2.7,1.26,1.26,0,0,0-2.305-.252c-.313.558-1.262,2.256-5.442,2.105-3.834-.14-7,1.245-8.253,3.611a2.607,2.607,0,0,1-.441.634A3.013,3.013,0,0,1,58.4,46.365,1.187,1.187,0,0,0,58.5,45.488Zm-1.727,8.206a3.507,3.507,0,0,1,.475-1.972,6.915,6.915,0,0,0,.926.73v4.166C57.186,56.747,56.773,54.778,56.773,53.695Zm7.755,19.333,1.416-.477,1.87,7.894-3.286-3.493V73.027Zm4.2.355h2.792l-1.4,5.894Zm5.579-.832,1.416.477v3.924l-3.286,3.493Zm-2.472-3.119v1.431h-3.42V69.432A12.019,12.019,0,0,0,71.837,69.432ZM57.486,82.726a9.545,9.545,0,0,1,4.523-8.444v3.169a1.26,1.26,0,0,0,.342.863l4.861,5.166H57.486Zm25.283.754H73.042L77.9,78.314a1.259,1.259,0,0,0,.342-.863V74.282a9.545,9.545,0,0,1,4.523,8.444Z"/>
        <path id="Trazado_124611" data-name="Trazado 124611" d="M24.862,65.291c.2.929.337,1.52.355,1.6a1.26,1.26,0,0,0,2.205.506c2.442-3.013,3.484-7.657,3.484-15.528,0-10.206-3.69-14.184-5.889-15.647a6.974,6.974,0,0,0-5.493-1.128c-1.469-.948-4.388-1.29-7.205-.711a13.468,13.468,0,0,0-8.347,5.5C1.337,43.56,0,48.792,0,55.429c0,5.83,3.845,11.23,4.008,11.457a1.26,1.26,0,0,0,2.219-.344c.132-.4.252-.808.365-1.214a11.965,11.965,0,0,0,4.886,3.452v1.132l-3.01,1.016a1.255,1.255,0,0,0-.646.5C3.532,72.987.593,77.517.593,82.726V84.74A1.26,1.26,0,0,0,1.853,86H29.568a1.26,1.26,0,0,0,1.26-1.26,28,28,0,0,0-.129-3.888,1.26,1.26,0,0,0-2.5.348,15.221,15.221,0,0,1,.105,2.281h-9.69l4.847-5.168a1.26,1.26,0,0,0,.341-.862V74.3a8.334,8.334,0,0,1,2.682,2.471,1.26,1.26,0,1,0,2.062-1.448A10.557,10.557,0,0,0,23.6,71.43a1.254,1.254,0,0,0-.646-.5l-3.01-1.017V68.778A11.9,11.9,0,0,0,24.862,65.291Zm-14.73,7.736,1.4-.474L13.4,80.435l-3.267-3.483Zm4.189.355H17.1L15.71,79.259Zm3.1-2.52H14V69.431a12,12,0,0,0,3.422,0ZM2.52,55.429c0-11.651,4.28-16.1,7.871-17.777s7.067-.942,7.774-.456a1.26,1.26,0,0,0,1.546.479,4.257,4.257,0,0,1,3.912.64c1.78,1.184,4.765,4.518,4.765,13.549,0,5.023-.445,8.639-1.41,11.211-.45-2.235-1.01-5.3-1.33-8.086-1.209-10.563-7.274-11.53-7.532-11.565a1.259,1.259,0,0,0-.692.1c-.27.121-6.631,3.02-8.963,6.947-2.008,3.382-2.7,6.784-3.361,10.074-.165.819-.327,1.616-.5,2.4A17.32,17.32,0,0,1,2.52,55.429Zm4.852,6.584c.758-3.678,1.3-6.965,3.255-10.257C12.261,49,16.724,46.664,18.07,46c1.042.357,4.245,2.035,5.073,9.271.252,2.2.641,4.531,1.015,6.519a9.431,9.431,0,0,1-16.786.218ZM3.112,83.48v-.754a9.556,9.556,0,0,1,4.5-8.442V77.45a1.26,1.26,0,0,0,.341.862L12.8,83.48Zm18.174-6.528-3.266,3.482,1.862-7.883,1.4.474Z"/>
        <path id="Trazado_124612" data-name="Trazado 124612" d="M67.775,23.1V9.658A9.669,9.669,0,0,0,58.117,0H27.883a9.669,9.669,0,0,0-9.658,9.658V23.1a9.669,9.669,0,0,0,9.658,9.658H32.25a1.26,1.26,0,0,0,0-2.52H27.883A7.147,7.147,0,0,1,20.744,23.1V9.658A7.147,7.147,0,0,1,27.883,2.52H58.117a7.147,7.147,0,0,1,7.139,7.139V23.1a7.147,7.147,0,0,1-7.139,7.139H37.625a1.26,1.26,0,0,0,0,2.52H58.117A9.669,9.669,0,0,0,67.775,23.1Z"/>
        <path id="Trazado_124613" data-name="Trazado 124613" d="M45.188,26.421a1.58,1.58,0,0,0-.427-1.755,2.327,2.327,0,0,1,.508-3.82,2.659,2.659,0,0,1,2.764.356,2.51,2.51,0,0,1-.174,3.464,1.595,1.595,0,0,0,1.063,2.784h7.54a1.6,1.6,0,0,0,1.6-1.6V5.7a1.6,1.6,0,0,0-1.6-1.6H48.947a1.595,1.595,0,0,0-1.074,2.775,2.491,2.491,0,0,1,.17,3.444,2.664,2.664,0,0,1-2.771.365,2.328,2.328,0,0,1-.526-3.81A1.595,1.595,0,0,0,43.672,4.1H36.306a1.6,1.6,0,0,0-1.6,1.6v5.63A4.843,4.843,0,0,0,28.457,13.6a5.2,5.2,0,0,0,.652,5.5,1.621,1.621,0,0,0,.328.331,5.151,5.151,0,0,0,5.274.787v5.633a1.6,1.6,0,0,0,1.6,1.6H43.7A1.585,1.585,0,0,0,45.188,26.421ZM41.895,24.93H37.23V18.476a1.595,1.595,0,0,0-2.75-1.1,2.5,2.5,0,0,1-3.423.122,2.665,2.665,0,0,1-.35-2.766,2.328,2.328,0,0,1,3.772-.555,1.595,1.595,0,0,0,2.75-1.1V6.621h4.655a4.845,4.845,0,0,0,2.262,6.318,5.2,5.2,0,0,0,5.516-.682,1.632,1.632,0,0,0,.329-.332,5.139,5.139,0,0,0,.74-5.3h4.807V24.93H50.726a5.115,5.115,0,0,0-.754-5.346,1.628,1.628,0,0,0-.326-.325,5.193,5.193,0,0,0-5.505-.666,4.846,4.846,0,0,0-2.246,6.337Z"/>
        <path id="Trazado_124614" data-name="Trazado 124614" d="M8.65,32.754a3.779,3.779,0,1,0-3.779-3.779A3.784,3.784,0,0,0,8.65,32.754Zm0-5.039a1.26,1.26,0,1,1-1.26,1.26A1.261,1.261,0,0,1,8.65,27.715Z"/>
        <path id="Trazado_124615" data-name="Trazado 124615" d="M12.3,23.793a4.451,4.451,0,1,0-4.451-4.451A4.456,4.456,0,0,0,12.3,23.793Zm0-6.383a1.932,1.932,0,1,1-1.932,1.932A1.934,1.934,0,0,1,12.3,17.41Z"/>
        <path id="Trazado_124616" data-name="Trazado 124616" d="M73.57,28.975A3.779,3.779,0,1,0,77.35,25.2,3.784,3.784,0,0,0,73.57,28.975Zm5.039,0a1.26,1.26,0,1,1-1.26-1.26A1.261,1.261,0,0,1,78.61,28.975Z"/>
        <path id="Trazado_124617" data-name="Trazado 124617" d="M73.7,23.793a4.451,4.451,0,1,0-4.451-4.451A4.456,4.456,0,0,0,73.7,23.793Zm0-6.383a1.932,1.932,0,1,1-1.932,1.932A1.934,1.934,0,0,1,73.7,17.41Z"/>
      </g>
    </g>
  </g>
</svg>
