<svg xmlns="http://www.w3.org/2000/svg" xmlns:xlink="http://www.w3.org/1999/xlink" width="86" height="86" viewBox="0 0 86 86">
  <defs>
    <clipPath id="clip-path">
      <rect id="Rect치ngulo_35158" data-name="Rect치ngulo 35158" width="86" height="86" transform="translate(641 10729)" fill="#ffd41c"/>
    </clipPath>
  </defs>
  <g id="Enmascarar_grupo_347" data-name="Enmascarar grupo 347" transform="translate(-641 -10729)" clip-path="url(#clip-path)">
    <g id="satisfaccion" transform="translate(641 10729)">
      <path id="Trazado_124567" data-name="Trazado 124567" d="M37.248,1.26H73.107a11.617,11.617,0,0,1,11.633,11.6V40.8A11.617,11.617,0,0,1,73.107,52.4H58.537c0,6.27-4.2,8.173-9.329,8.173-.33,0-.306-.5.012-.589,4.7-1.314,3.145-7.584,3.145-7.584H37.248A11.617,11.617,0,0,1,25.615,40.8V12.861A11.617,11.617,0,0,1,37.248,1.26Z" fill="#b5fcff"/>
      <g id="Grupo_97069" data-name="Grupo 97069">
        <path id="Trazado_124568" data-name="Trazado 124568" d="M73.107,1.26H68.068A11.617,11.617,0,0,1,79.7,12.861V40.8A11.617,11.617,0,0,1,68.068,52.4h5.039A11.617,11.617,0,0,0,84.74,40.8V12.861A11.617,11.617,0,0,0,73.107,1.26Z" fill="#71f6fc"/>
      </g>
      <g id="Grupo_97071" data-name="Grupo 97071">
        <g id="Grupo_97070" data-name="Grupo 97070">
          <path id="Trazado_124569" data-name="Trazado 124569" d="M8.973,41.353c0,3.061-1.844,5.543-4.118,5.543s-3.6-2.85-3.6-5.911,1.321-5.175,3.6-5.175S8.973,38.292,8.973,41.353Z" fill="#e8916f"/>
          <path id="Trazado_124570" data-name="Trazado 124570" d="M34.867,41.353c0,3.061,1.844,5.543,4.118,5.543s3.6-2.85,3.6-5.911-1.321-5.175-3.6-5.175S34.867,38.292,34.867,41.353Z" fill="#d98868"/>
        </g>
      </g>
      <rect id="Rect치ngulo_35449" data-name="Rect치ngulo 35449" width="8.398" height="13.437" transform="translate(17.721 58.537)" fill="#d98868"/>
      <path id="Trazado_124571" data-name="Trazado 124571" d="M6.8,46.443V35.178A14.266,14.266,0,0,1,21.069,20.912h1.7A14.266,14.266,0,0,1,37.037,35.178V46.443A15.117,15.117,0,0,1,21.92,61.56h0A15.117,15.117,0,0,1,6.8,46.443Z" fill="#ebad88"/>
      <path id="Trazado_124572" data-name="Trazado 124572" d="M22.771,20.912h-1.7a14.364,14.364,0,0,0-1.669.1A14.266,14.266,0,0,1,32,35.179V46.443A15.121,15.121,0,0,1,19.4,61.35a15.208,15.208,0,0,0,2.52.21h0A15.117,15.117,0,0,0,37.037,46.443V35.178A14.267,14.267,0,0,0,22.771,20.912Z" fill="#e8916f"/>
      <path id="Trazado_124573" data-name="Trazado 124573" d="M41.572,81.9V84.74H2.268V81.9c0-8.254,5.813-14.945,12.985-14.945H28.588C35.759,66.956,41.572,73.647,41.572,81.9Z" fill="#685c79"/>
      <path id="Trazado_124574" data-name="Trazado 124574" d="M28.588,66.956H23.549c7.171,0,12.985,6.691,12.985,14.945V84.74h5.039V81.9C41.572,73.647,35.759,66.956,28.588,66.956Z" fill="#594f69"/>
      <path id="Trazado_124575" data-name="Trazado 124575" d="M15.625,66.956H28.214L21.92,84.74Z" fill="#ff2c5c"/>
      <g id="Grupo_97072" data-name="Grupo 97072">
        <path id="Trazado_124576" data-name="Trazado 124576" d="M21.92,84.74l-4.63-19.484-5.066,1.7v7.51l2.457,1.782v3.23Z" fill="#50475e"/>
        <path id="Trazado_124577" data-name="Trazado 124577" d="M21.92,84.74l4.63-19.484,5.066,1.7v7.51l-2.457,1.782v3.23Z" fill="#50475e"/>
      </g>
      <path id="Trazado_124578" data-name="Trazado 124578" d="M6.738,38.2S8,38.7,9.287,36.281c1.477-2.77,5.368-4.317,10.031-4.149,5.787.209,8.163-1.828,9.313-3.874,1.59,5.253,3.826,3.874,5.28,8.354A2.161,2.161,0,0,0,36.93,38.2s6.015-3.488,2.915-9.025c.533-11.128-8.194-11.787-8.194-11.787s-3.989-5.065-14.922-2.431C.952,18.755,3.753,29.841,3.753,29.841A6.14,6.14,0,0,0,6.738,38.2Z" fill="#ffd659"/>
      <g id="Grupo_97073" data-name="Grupo 97073">
        <path id="Trazado_124579" data-name="Trazado 124579" d="M39.845,29.171c.533-11.128-8.194-11.787-8.194-11.787s-3.175-4.031-11.624-3.03c4.708.647,6.585,3.03,6.585,3.03s8.727.659,8.194,11.787a5.927,5.927,0,0,1-.921,7.362l.026.079A2.161,2.161,0,0,0,36.93,38.2S42.945,34.708,39.845,29.171Z" fill="#ffbd54"/>
      </g>
      <path id="Trazado_124580" data-name="Trazado 124580" d="M68.3,17.583a12.273,12.273,0,0,1-3.9-5.154L62.3,7.165c-.215-.569-1.075-.565-2.422-.216h0c-1.347.349-2.277,1.923-1.26,5.183l.782,3.019a.953.953,0,0,1-.63,1.145,23.088,23.088,0,0,1-5.966.826h-4.7a2.566,2.566,0,0,0-2.588,2.4,2.52,2.52,0,0,0,2.069,2.6.04.04,0,0,1,0,.079,2.52,2.52,0,0,0-2.069,2.6,2.566,2.566,0,0,0,2.588,2.4h.935a.09.09,0,0,1,.032.176,2.555,2.555,0,0,0-1.847,2.476,2.455,2.455,0,0,0,2.455,2.387H51.2a.084.084,0,0,1,.03.162,2.671,2.671,0,0,0-1.948,2.416,2.459,2.459,0,0,0,2.472,2.461H69.6a4.209,4.209,0,0,0,4.209-4.209V24.475C73.813,22.2,71.157,19.793,68.3,17.583Z" fill="#ebad88"/>
      <g id="Grupo_97074" data-name="Grupo 97074">
        <path id="Trazado_124581" data-name="Trazado 124581" d="M68.3,17.583a12.272,12.272,0,0,1-3.9-5.154L62.3,7.165c-.215-.569-1.075-.565-2.422-.216a2.42,2.42,0,0,0-1.687,2.542l1.175,2.938a12.273,12.273,0,0,0,3.9,5.154c2.861,2.211,5.517,4.614,5.517,6.893V33.07a4.209,4.209,0,0,1-4.209,4.209H69.6a4.209,4.209,0,0,0,4.209-4.209V24.476C73.813,22.2,71.157,19.793,68.3,17.583Z" fill="#e8916f"/>
      </g>
      <g id="Grupo_97075" data-name="Grupo 97075">
        <path id="Trazado_124582" data-name="Trazado 124582" d="M29.2,48.615a1.254,1.254,0,0,0-1.639.687c-.051.118-1.3,2.9-5.493,2.9-4.242,0-5.755-2.832-5.829-2.976a1.26,1.26,0,0,0-2.26,1.114,8.807,8.807,0,0,0,8.089,4.382c5.943,0,7.749-4.279,7.823-4.461A1.265,1.265,0,0,0,29.2,48.615Z"/>
        <path id="Trazado_124583" data-name="Trazado 124583" d="M17.438,42.934a1.26,1.26,0,0,0,1.2-2.216,7.724,7.724,0,0,0-5.865-.285,1.26,1.26,0,0,0,.8,2.388A5.2,5.2,0,0,1,17.438,42.934Z"/>
        <path id="Trazado_124584" data-name="Trazado 124584" d="M31.067,40.434a7.725,7.725,0,0,0-5.865.285,1.261,1.261,0,0,0,.6,2.37,1.247,1.247,0,0,0,.6-.154,5.2,5.2,0,0,1,3.863-.113,1.26,1.26,0,1,0,.8-2.388Z"/>
        <path id="Trazado_124585" data-name="Trazado 124585" d="M48.094,15.863a3.777,3.777,0,0,0-2.884,6.3,3.759,3.759,0,0,0,1.162,5.9,3.809,3.809,0,0,0-.418,1.792,3.667,3.667,0,0,0,2.427,3.416,3.666,3.666,0,0,0-.354,1.517A3.6,3.6,0,0,0,49.07,37.4a3.783,3.783,0,0,0,2.688,1.134H69.6a5.474,5.474,0,0,0,5.468-5.469V24.475c0-2.855-2.887-5.479-6.007-7.89a11.023,11.023,0,0,1-3.5-4.624l-2.1-5.255c-.7-1.808-3.115-1.182-3.911-.976a3.341,3.341,0,0,0-2.1,1.631c-.7,1.26-.721,2.982-.06,5.117l.7,2.705a22.918,22.918,0,0,1-5.321.68H48.094Zm4.74,2.519a24.286,24.286,0,0,0,6.32-.887,2.216,2.216,0,0,0,1.461-2.659l-.782-3.019c-.005-.02-.011-.04-.017-.059-.353-1.131-.754-3.3.374-3.588a5.831,5.831,0,0,1,1.071-.2L63.23,12.9a13.544,13.544,0,0,0,4.3,5.683c1.375,1.062,5.028,3.885,5.028,5.9V33.07A2.952,2.952,0,0,1,69.6,36.019H51.758a1.2,1.2,0,0,1-1.213-1.174c0-.212.019-.855,1.124-1.261a1.343,1.343,0,0,0-.465-2.6H49.668a1.2,1.2,0,0,1-1.195-1.132,1.29,1.29,0,0,1,1.234-1.389H51.53a1.26,1.26,0,0,0,0-2.52H48.094a1.311,1.311,0,0,1-1.329-1.2,1.264,1.264,0,0,1,1.033-1.3c.22-.039.548-.009,3.3-.02a1.26,1.26,0,0,0,0-2.52H48.022a1.262,1.262,0,0,1-1.258-1.323,1.311,1.311,0,0,1,1.329-1.2h4.74Z"/>
        <path id="Trazado_124586" data-name="Trazado 124586" d="M73.107,0H53.75a1.26,1.26,0,1,0,0,2.52H73.107A10.37,10.37,0,0,1,83.48,12.861V40.8A10.37,10.37,0,0,1,73.107,51.141H58.537a1.26,1.26,0,0,0-1.26,1.26c0,2.385-.54,5.4-4.5,6.494a9.232,9.232,0,0,0,.815-6.8,1.26,1.26,0,0,0-1.223-.957H37.609a16.272,16.272,0,0,0,.606-3.056c3.634.656,5.625-3.211,5.625-7.1,0-2.714-.929-4.778-2.51-5.774a6.874,6.874,0,0,0-.212-6.332c.193-6.075-2.286-9.217-4.423-10.789A10.743,10.743,0,0,0,32.265,16.2a11.567,11.567,0,0,0-5.39-2.782v-.554A10.369,10.369,0,0,1,37.249,2.52H48.375a1.26,1.26,0,1,0,0-2.52H37.249A12.892,12.892,0,0,0,24.355,12.861v.146a24.646,24.646,0,0,0-7.922.721,28.41,28.41,0,0,0-5.376,1.838,1.26,1.26,0,0,0,1.069,2.282,25.9,25.9,0,0,1,4.9-1.67,20.975,20.975,0,0,1,8.215-.536,1.259,1.259,0,0,0,.317.054,8.735,8.735,0,0,1,5.1,2.467,1.259,1.259,0,0,0,.895.477A8.026,8.026,0,0,1,35.2,20.119c2.446,1.8,3.585,4.824,3.386,8.992a1.26,1.26,0,0,0,.159.676,4.514,4.514,0,0,1-.181,5.185,8.281,8.281,0,0,1-2.19,2.087,1.053,1.053,0,0,1-.7,0,1.4,1.4,0,0,1-.565-.838,8.826,8.826,0,0,0-2.8-4.3,7.465,7.465,0,0,1-2.472-4.028,1.26,1.26,0,0,0-2.3-.252c-.48.855-1.943,3.455-8.169,3.232-5.218-.191-9.5,1.656-11.188,4.815A2.741,2.741,0,0,1,7.11,36.959c-4.147-2.423-2.446-6.125-2.238-6.54a1.259,1.259,0,0,0,.1-.887,9.818,9.818,0,0,1,3.033-8.941,1.26,1.26,0,0,0-1.745-1.817A12.358,12.358,0,0,0,2.44,29.693a8.263,8.263,0,0,0-.591,3.187,6.917,6.917,0,0,0,.489,2.443C.851,36.355,0,38.362,0,40.984c0,3.954,2.045,7.746,5.624,7.1A16.414,16.414,0,0,0,16.461,61.892v2.313l-4.639,1.557a1.259,1.259,0,0,0-.728.638C5.116,68.461,1.008,74.7,1.008,81.9V84.74A1.26,1.26,0,0,0,2.268,86h39.3a1.26,1.26,0,0,0,1.26-1.26V81.9a18.17,18.17,0,0,0-.875-5.608,1.26,1.26,0,0,0-2.4.777,15.656,15.656,0,0,1,.753,4.832V83.48H25.8L29.9,80.5a1.26,1.26,0,0,0,.519-1.019V76.891l1.937-1.4a1.26,1.26,0,0,0,.52-1.02v-5.3a11.851,11.851,0,0,1,4.4,3.552,1.26,1.26,0,1,0,1.989-1.546A14.109,14.109,0,0,0,32.745,66.4a1.259,1.259,0,0,0-.728-.638l-4.638-1.557V61.884a16.466,16.466,0,0,0,9.247-8.239c.208.01.416.016.623.016H51.294a8.731,8.731,0,0,1,.008,1.9,3.329,3.329,0,0,1-2.423,3.215,1.613,1.613,0,0,0-1.154,1.769,1.485,1.485,0,0,0,1.482,1.294,12.107,12.107,0,0,0,7.341-1.985,8.251,8.251,0,0,0,3.193-6.189H73.107A12.892,12.892,0,0,0,86,40.8V12.861A12.892,12.892,0,0,0,73.107,0ZM38.3,45.5V38.787a11.162,11.162,0,0,0,1.621-1.479c1.022.59,1.4,2.2,1.4,3.676C41.32,43.224,40.353,46.306,38.3,45.5ZM2.52,40.984c0-1.346.324-2.845,1.185-3.529a8.969,8.969,0,0,0,1.839,1.5V45.5C3.482,46.308,2.52,43.224,2.52,40.984ZM13.483,67.862l2.9-.973L19.907,81.72,15.94,78.836V76.248a1.259,1.259,0,0,0-.52-1.02l-1.937-1.4V67.862Zm5.8.353h5.264L21.92,79.291ZM3.527,81.9c0-5.722,2.986-10.715,7.436-12.74v5.305a1.259,1.259,0,0,0,.52,1.02l1.937,1.4v2.587A1.26,1.26,0,0,0,13.94,80.5l4.1,2.984H3.527ZM30.357,67.862v5.962l-1.937,1.4a1.26,1.26,0,0,0-.52,1.02v2.588L23.932,81.72l3.524-14.831Zm-5.5-2.167H18.98V62.558a16.525,16.525,0,0,0,5.879,0ZM12.121,56.242a13.76,13.76,0,0,1-4.058-9.8V39.3A4.9,4.9,0,0,0,10.4,36.873c1.208-2.267,4.693-3.633,8.874-3.482,3.988.144,7-.735,8.983-2.616a9.344,9.344,0,0,0,2.343,3A6.355,6.355,0,0,1,32.712,37a3.648,3.648,0,0,0,1.95,2.368,3.188,3.188,0,0,0,1.115.265v6.81C35.777,58.708,20.824,64.95,12.121,56.242Z"/>
      </g>
    </g>
  </g>
</svg>
