<svg xmlns="http://www.w3.org/2000/svg" xmlns:xlink="http://www.w3.org/1999/xlink" width="86" height="86" viewBox="0 0 86 86">
  <defs>
    <clipPath id="clip-path">
      <rect id="Rectángulo_35157" data-name="Rectángulo 35157" width="86" height="86" transform="translate(221 10729)" fill="#ffd41c"/>
    </clipPath>
  </defs>
  <g id="Enmascarar_grupo_346" data-name="Enmascarar grupo 346" transform="translate(-221 -10729)" clip-path="url(#clip-path)">
    <g id="clasificacion_1_" data-name="clasificacion (1)" transform="translate(221 10729)">
      <g id="Grupo_97059" data-name="Grupo 97059">
        <path id="Trazado_124522" data-name="Trazado 124522" d="M34.13,26.59H12.288a5.456,5.456,0,0,1-5.456-5.456V15.25a5.456,5.456,0,0,1,5.456-5.456H34.13a5.456,5.456,0,0,1,5.456,5.456v5.884A5.456,5.456,0,0,1,34.13,26.59Z" fill="#8ac9fe"/>
        <path id="Trazado_124523" data-name="Trazado 124523" d="M34.13,9.793H29.091a5.456,5.456,0,0,1,5.456,5.456v5.884a5.456,5.456,0,0,1-5.456,5.456H34.13a5.456,5.456,0,0,0,5.456-5.456V15.25A5.456,5.456,0,0,0,34.13,9.793Z" fill="#60b7ff"/>
      </g>
      <path id="Trazado_124524" data-name="Trazado 124524" d="M13.068,4.846,14.1,6.933A2.492,2.492,0,0,0,15.972,8.3l2.3.335a2.5,2.5,0,0,1,1.381,4.254l-1.664,1.624a2.5,2.5,0,0,0-.717,2.208l.393,2.293a2.492,2.492,0,0,1-3.615,2.629l-2.057-1.083a2.489,2.489,0,0,0-2.319,0L7.617,21.641A2.492,2.492,0,0,1,4,19.012L4.4,16.718a2.5,2.5,0,0,0-.717-2.208L2.014,12.886A2.5,2.5,0,0,1,3.4,8.632L5.7,8.3A2.491,2.491,0,0,0,7.571,6.933L8.6,4.846a2.49,2.49,0,0,1,4.468,0Z" fill="#fedba6"/>
      <g id="Grupo_97060" data-name="Grupo 97060">
        <path id="Trazado_124525" data-name="Trazado 124525" d="M18.273,8.632l-2.3-.335A2.491,2.491,0,0,1,14.1,6.933L13.068,4.846a2.49,2.49,0,0,0-4.468,0L8.13,5.8l.928,1.882a2.493,2.493,0,0,0,1.877,1.365l.92.134a3.182,3.182,0,0,1,1.764,5.426l-.669.653a2.5,2.5,0,0,0-.717,2.207l.393,2.294a2.5,2.5,0,0,1-.053,1.1l1.478.778a2.492,2.492,0,0,0,3.615-2.629l-.393-2.293a2.5,2.5,0,0,1,.717-2.208l1.664-1.624A2.5,2.5,0,0,0,18.273,8.632Z" fill="#fece85"/>
      </g>
      <path id="Trazado_124526" data-name="Trazado 124526" d="M37.818,4.846l1.029,2.087A2.492,2.492,0,0,0,40.722,8.3l2.3.335A2.5,2.5,0,0,1,44.4,12.886l-1.664,1.624a2.5,2.5,0,0,0-.717,2.208l.393,2.293A2.492,2.492,0,0,1,38.8,21.641l-2.057-1.083a2.489,2.489,0,0,0-2.319,0l-2.057,1.083a2.492,2.492,0,0,1-3.615-2.629l.393-2.293a2.5,2.5,0,0,0-.717-2.208l-1.664-1.624a2.5,2.5,0,0,1,1.381-4.254l2.3-.335a2.491,2.491,0,0,0,1.876-1.364l1.029-2.087a2.491,2.491,0,0,1,4.469,0Z" fill="#fedba6"/>
      <g id="Grupo_97061" data-name="Grupo 97061">
        <path id="Trazado_124527" data-name="Trazado 124527" d="M43.022,8.632l-2.3-.335a2.491,2.491,0,0,1-1.876-1.364L37.818,4.846a2.49,2.49,0,0,0-4.468,0l-.47.954.928,1.882a2.493,2.493,0,0,0,1.877,1.365l.92.134a3.182,3.182,0,0,1,1.764,5.426l-.669.653a2.5,2.5,0,0,0-.717,2.207l.393,2.294a2.5,2.5,0,0,1-.053,1.1l1.478.778a2.492,2.492,0,0,0,3.615-2.629l-.393-2.293a2.5,2.5,0,0,1,.717-2.208L44.4,12.886a2.5,2.5,0,0,0-1.381-4.254Z" fill="#fece85"/>
      </g>
      <path id="Trazado_124528" data-name="Trazado 124528" d="M84.74,34.641v16.7a2.566,2.566,0,0,1-2.566,2.566H59.759a2.566,2.566,0,0,1-2.566-2.566V46.156a.448.448,0,0,0-.25-.4L52.135,43.4a.448.448,0,0,1,0-.8l4.808-2.359a.448.448,0,0,0,.25-.4V34.641a2.566,2.566,0,0,1,2.566-2.566H82.175a2.565,2.565,0,0,1,2.566,2.566Z" fill="#f9f3f1"/>
      <path id="Trazado_124529" data-name="Trazado 124529" d="M82.175,32.075H77.135A2.566,2.566,0,0,1,79.7,34.641v16.7a2.566,2.566,0,0,1-2.566,2.566h5.039a2.566,2.566,0,0,0,2.566-2.566v-16.7a2.566,2.566,0,0,0-2.566-2.566Z" fill="#f3eae6"/>
      <path id="Trazado_124530" data-name="Trazado 124530" d="M79.39,49.712H74.439a.884.884,0,0,1-.884-.884V37.158a.884.884,0,0,1,.884-.884H79.39a.884.884,0,0,1,.884.884v11.67A.884.884,0,0,1,79.39,49.712Z" fill="#ade194"/>
      <path id="Trazado_124531" data-name="Trazado 124531" d="M84.74,7.107v16.7a2.566,2.566,0,0,1-2.566,2.566H59.759a2.566,2.566,0,0,1-2.566-2.566V18.622a.448.448,0,0,0-.25-.4l-4.808-2.359a.448.448,0,0,1,0-.8L56.943,12.7a.448.448,0,0,0,.25-.4V7.107a2.566,2.566,0,0,1,2.566-2.566H82.175A2.566,2.566,0,0,1,84.74,7.107Z" fill="#f9f3f1"/>
      <path id="Trazado_124532" data-name="Trazado 124532" d="M82.175,4.541H77.135A2.566,2.566,0,0,1,79.7,7.107v16.7a2.566,2.566,0,0,1-2.566,2.566h5.039a2.566,2.566,0,0,0,2.566-2.566V7.107a2.566,2.566,0,0,0-2.566-2.566Z" fill="#f3eae6"/>
      <path id="Trazado_124533" data-name="Trazado 124533" d="M79.39,22.178H74.439a.884.884,0,0,1-.884-.884V9.624a.884.884,0,0,1,.884-.884H79.39a.884.884,0,0,1,.884.884v11.67a.884.884,0,0,1-.884.884Z" fill="#8ac9fe"/>
      <path id="Trazado_124534" data-name="Trazado 124534" d="M84.74,62.175v16.7a2.566,2.566,0,0,1-2.566,2.566H59.759a2.566,2.566,0,0,1-2.566-2.566V73.691a.448.448,0,0,0-.25-.4L52.135,70.93a.448.448,0,0,1,0-.8l4.808-2.359a.448.448,0,0,0,.25-.4V62.175a2.566,2.566,0,0,1,2.566-2.566H82.175a2.566,2.566,0,0,1,2.566,2.566Z" fill="#f9f3f1"/>
      <path id="Trazado_124535" data-name="Trazado 124535" d="M82.175,59.61H77.135A2.566,2.566,0,0,1,79.7,62.175v16.7a2.566,2.566,0,0,1-2.566,2.566h5.039A2.566,2.566,0,0,0,84.74,78.88v-16.7A2.566,2.566,0,0,0,82.175,59.61Z" fill="#f3eae6"/>
      <path id="Trazado_124536" data-name="Trazado 124536" d="M79.39,77.246H74.439a.884.884,0,0,1-.884-.884V64.693a.884.884,0,0,1,.884-.884H79.39a.884.884,0,0,1,.884.884v11.67A.884.884,0,0,1,79.39,77.246Z" fill="#fe646f"/>
      <path id="Trazado_124537" data-name="Trazado 124537" d="M25.443,2.643,26.472,4.73a2.491,2.491,0,0,0,1.876,1.364l2.3.335a2.5,2.5,0,0,1,1.381,4.254l-1.664,1.624a2.5,2.5,0,0,0-.717,2.208l.393,2.293a2.492,2.492,0,0,1-3.615,2.629l-2.057-1.083a2.489,2.489,0,0,0-2.319,0l-2.057,1.083a2.492,2.492,0,0,1-3.615-2.629l.393-2.293a2.5,2.5,0,0,0-.717-2.208l-1.664-1.624A2.5,2.5,0,0,1,15.77,6.429l2.3-.335A2.491,2.491,0,0,0,19.946,4.73l1.029-2.087a2.49,2.49,0,0,1,4.469,0Z" fill="#fedba6"/>
      <g id="Grupo_97062" data-name="Grupo 97062">
        <path id="Trazado_124538" data-name="Trazado 124538" d="M30.647,6.429l-2.3-.335A2.491,2.491,0,0,1,26.472,4.73L25.443,2.643a2.49,2.49,0,0,0-4.468,0L20.5,3.6l.928,1.882A2.493,2.493,0,0,0,23.31,6.844l.92.134A3.182,3.182,0,0,1,25.994,12.4l-.669.653a2.5,2.5,0,0,0-.717,2.207L25,17.558a2.5,2.5,0,0,1-.053,1.1l1.478.778a2.492,2.492,0,0,0,3.615-2.629l-.393-2.293a2.5,2.5,0,0,1,.717-2.208l1.664-1.624a2.5,2.5,0,0,0-1.381-4.254Z" fill="#fece85"/>
      </g>
      <g id="Grupo_97063" data-name="Grupo 97063">
        <path id="Trazado_124539" data-name="Trazado 124539" d="M34.13,55.662H12.288a5.456,5.456,0,0,1-5.456-5.456V44.322a5.456,5.456,0,0,1,5.456-5.456H34.13a5.456,5.456,0,0,1,5.456,5.456v5.884A5.456,5.456,0,0,1,34.13,55.662Z" fill="#ade194"/>
        <path id="Trazado_124540" data-name="Trazado 124540" d="M34.13,38.865H29.091a5.456,5.456,0,0,1,5.456,5.456v5.884a5.456,5.456,0,0,1-5.456,5.456H34.13a5.456,5.456,0,0,0,5.456-5.456V44.321A5.456,5.456,0,0,0,34.13,38.865Z" fill="#97da7b"/>
      </g>
      <path id="Trazado_124541" data-name="Trazado 124541" d="M13.068,33.918,14.1,36a2.492,2.492,0,0,0,1.876,1.364l2.3.335a2.5,2.5,0,0,1,1.381,4.254l-1.664,1.624a2.5,2.5,0,0,0-.717,2.208l.393,2.293a2.492,2.492,0,0,1-3.615,2.629L11.993,49.63a2.489,2.489,0,0,0-2.319,0L7.617,50.712A2.492,2.492,0,0,1,4,48.083L4.4,45.79a2.5,2.5,0,0,0-.717-2.208L2.014,41.958A2.5,2.5,0,0,1,3.395,37.7l2.3-.335A2.491,2.491,0,0,0,7.571,36L8.6,33.918a2.49,2.49,0,0,1,4.468,0Z" fill="#fedba6"/>
      <g id="Grupo_97064" data-name="Grupo 97064">
        <path id="Trazado_124542" data-name="Trazado 124542" d="M18.273,37.7l-2.3-.335A2.491,2.491,0,0,1,14.1,36l-1.029-2.087a2.49,2.49,0,0,0-4.468,0l-.47.954.928,1.882a2.493,2.493,0,0,0,1.877,1.365l.92.134a3.182,3.182,0,0,1,1.764,5.426l-.669.653a2.5,2.5,0,0,0-.717,2.207l.393,2.294a2.5,2.5,0,0,1-.053,1.1l1.478.778a2.492,2.492,0,0,0,3.615-2.629l-.393-2.293a2.5,2.5,0,0,1,.717-2.208l1.664-1.624A2.5,2.5,0,0,0,18.273,37.7Z" fill="#fece85"/>
      </g>
      <path id="Trazado_124543" data-name="Trazado 124543" d="M37.818,33.918,38.847,36a2.492,2.492,0,0,0,1.876,1.364l2.3.335A2.5,2.5,0,0,1,44.4,41.958l-1.664,1.624a2.5,2.5,0,0,0-.717,2.208l.393,2.293A2.492,2.492,0,0,1,38.8,50.712L36.743,49.63a2.489,2.489,0,0,0-2.319,0l-2.057,1.083a2.492,2.492,0,0,1-3.615-2.629l.393-2.293a2.5,2.5,0,0,0-.717-2.208l-1.664-1.624A2.5,2.5,0,0,1,28.145,37.7l2.3-.335A2.491,2.491,0,0,0,32.321,36l1.029-2.087a2.491,2.491,0,0,1,4.469,0Z" fill="#fedba6"/>
      <g id="Grupo_97065" data-name="Grupo 97065">
        <path id="Trazado_124544" data-name="Trazado 124544" d="M43.022,37.7l-2.3-.335A2.491,2.491,0,0,1,38.847,36l-1.029-2.087a2.49,2.49,0,0,0-4.468,0l-.47.954.928,1.882a2.493,2.493,0,0,0,1.877,1.365l.92.134a3.182,3.182,0,0,1,1.764,5.426l-.669.653a2.5,2.5,0,0,0-.717,2.207l.393,2.294a2.5,2.5,0,0,1-.053,1.1l1.478.778a2.492,2.492,0,0,0,3.615-2.629l-.393-2.293a2.5,2.5,0,0,1,.717-2.208L44.4,41.958A2.5,2.5,0,0,0,43.022,37.7Z" fill="#fece85"/>
      </g>
      <g id="Grupo_97066" data-name="Grupo 97066">
        <path id="Trazado_124545" data-name="Trazado 124545" d="M34.13,84.734H12.288a5.456,5.456,0,0,1-5.456-5.456V73.393a5.456,5.456,0,0,1,5.456-5.456H34.13a5.456,5.456,0,0,1,5.456,5.456v5.884A5.456,5.456,0,0,1,34.13,84.734Z" fill="#fe646f"/>
        <path id="Trazado_124546" data-name="Trazado 124546" d="M34.13,67.937H29.091a5.456,5.456,0,0,1,5.456,5.456v5.884a5.456,5.456,0,0,1-5.456,5.456H34.13a5.456,5.456,0,0,0,5.456-5.456V73.393A5.456,5.456,0,0,0,34.13,67.937Z" fill="#fd4755"/>
      </g>
      <path id="Trazado_124547" data-name="Trazado 124547" d="M25.443,60.787l1.029,2.087a2.492,2.492,0,0,0,1.876,1.364l2.3.335a2.5,2.5,0,0,1,1.381,4.254l-1.664,1.624a2.5,2.5,0,0,0-.717,2.208l.393,2.293a2.492,2.492,0,0,1-3.615,2.629L24.368,76.5a2.489,2.489,0,0,0-2.319,0l-2.057,1.083a2.492,2.492,0,0,1-3.615-2.629l.393-2.293a2.5,2.5,0,0,0-.717-2.208l-1.664-1.624a2.5,2.5,0,0,1,1.381-4.254l2.3-.335a2.491,2.491,0,0,0,1.876-1.364l1.029-2.087a2.491,2.491,0,0,1,4.469,0Z" fill="#fedba6"/>
      <g id="Grupo_97067" data-name="Grupo 97067">
        <path id="Trazado_124548" data-name="Trazado 124548" d="M30.647,64.572l-2.3-.335a2.491,2.491,0,0,1-1.876-1.364l-1.029-2.087a2.49,2.49,0,0,0-4.468,0l-.47.954.928,1.882a2.493,2.493,0,0,0,1.877,1.365l.92.134a3.182,3.182,0,0,1,1.764,5.426l-.669.653a2.5,2.5,0,0,0-.717,2.207L25,75.7a2.5,2.5,0,0,1-.053,1.1l1.478.778a2.492,2.492,0,0,0,3.615-2.629l-.393-2.293a2.5,2.5,0,0,1,.717-2.208l1.664-1.624a2.5,2.5,0,0,0-1.381-4.254Z" fill="#fece85"/>
      </g>
      <g id="Grupo_97068" data-name="Grupo 97068">
        <path id="Trazado_124549" data-name="Trazado 124549" d="M43.2,7.385l-2.3-.335a1.232,1.232,0,0,1-.927-.675L38.948,4.289a3.761,3.761,0,0,0-6.728,0L31.67,5.406a3.8,3.8,0,0,0-.841-.224l-2.3-.335a1.232,1.232,0,0,1-.927-.675L26.573,2.086a3.761,3.761,0,0,0-6.728,0L18.817,4.173a1.231,1.231,0,0,1-.927.675l-2.3.335a3.789,3.789,0,0,0-.841.224L14.2,4.289a3.761,3.761,0,0,0-6.728,0L6.441,6.376a1.231,1.231,0,0,1-.927.675l-2.3.335a3.755,3.755,0,0,0-2.079,6.4L2.8,15.412a1.236,1.236,0,0,1,.354,1.093L2.761,18.8a3.759,3.759,0,0,0,3.116,4.345,6.694,6.694,0,0,0,6.411,4.706H34.13a6.741,6.741,0,0,0,6.408-4.7,3.776,3.776,0,0,0,3.12-4.347l-.393-2.293a1.236,1.236,0,0,1,.355-1.093l1.664-1.624a3.755,3.755,0,0,0-2.079-6.4Zm-27.252.29,2.3-.335a3.75,3.75,0,0,0,2.824-2.054L22.1,3.2a1.234,1.234,0,0,1,2.208,0h0l1.028,2.087a3.751,3.751,0,0,0,2.824,2.054l2.3.335a1.235,1.235,0,0,1,.682,2.106l-1.664,1.624a3.754,3.754,0,0,0-1.079,3.322l.393,2.293a1.232,1.232,0,0,1-1.786,1.3L24.955,17.24a3.749,3.749,0,0,0-3.492,0l-2.057,1.083a1.232,1.232,0,0,1-1.786-1.3l.393-2.293a3.755,3.755,0,0,0-1.078-3.322L15.27,9.781a1.235,1.235,0,0,1,.682-2.106ZM5.245,19.224l.393-2.293a3.755,3.755,0,0,0-1.078-3.322L2.895,11.985a1.235,1.235,0,0,1,.682-2.106l2.3-.335A3.751,3.751,0,0,0,8.7,7.49L9.73,5.4a1.235,1.235,0,0,1,2.208,0L12.8,7.161a3.816,3.816,0,0,0-.243.575,3.733,3.733,0,0,0,.948,3.849l1.664,1.624a1.235,1.235,0,0,1,.354,1.093L15.136,16.6A3.728,3.728,0,0,0,16.307,20a1.266,1.266,0,0,1-.53.527,1.192,1.192,0,0,1-1.14,0L12.58,19.443a3.747,3.747,0,0,0-3.492,0L7.031,20.526a1.232,1.232,0,0,1-1.786-1.3ZM34.13,25.331H12.288A4.181,4.181,0,0,1,8.38,22.663l1.881-.99a1.229,1.229,0,0,1,1.145,0l2.057,1.083a3.69,3.69,0,0,0,3.492,0,3.777,3.777,0,0,0,1.677-1.776c.066,0,.131.008.2.008a3.75,3.75,0,0,0,1.75-.436l2.057-1.083a1.229,1.229,0,0,1,1.145,0l2.057,1.083a3.743,3.743,0,0,0,1.945.428,3.764,3.764,0,0,0,1.565,1.713,3.725,3.725,0,0,0,3.605.062l2.057-1.083a1.229,1.229,0,0,1,1.145,0l1.882.991a4.213,4.213,0,0,1-3.909,2.668Zm9.394-13.346-1.664,1.624a3.755,3.755,0,0,0-1.078,3.322l.393,2.293a1.232,1.232,0,0,1-1.786,1.3L37.33,19.443a3.748,3.748,0,0,0-3.492,0l-2.057,1.083a1.189,1.189,0,0,1-1.178-.018,1.257,1.257,0,0,1-.49-.507,3.728,3.728,0,0,0,1.17-3.406L30.889,14.3a1.236,1.236,0,0,1,.355-1.093l1.664-1.624a3.733,3.733,0,0,0,.948-3.849,3.818,3.818,0,0,0-.243-.575L34.48,5.4a1.235,1.235,0,0,1,2.208,0L37.716,7.49a3.751,3.751,0,0,0,2.825,2.054l2.3.335a1.235,1.235,0,0,1,.683,2.106Z"/>
        <path id="Trazado_124550" data-name="Trazado 124550" d="M82.175,30.815H59.76a3.83,3.83,0,0,0-3.826,3.826v4.683L51.58,41.461a1.714,1.714,0,0,0,0,3.065l4.353,2.137v4.683a3.83,3.83,0,0,0,3.826,3.826H82.174A3.83,3.83,0,0,0,86,51.345v-16.7a3.83,3.83,0,0,0-3.826-3.826Zm1.306,20.53a1.308,1.308,0,0,1-1.306,1.306H59.76a1.308,1.308,0,0,1-1.306-1.306V46.156a1.718,1.718,0,0,0-.955-1.533l-3.322-1.63,3.322-1.63a1.718,1.718,0,0,0,.956-1.533V34.641a1.308,1.308,0,0,1,1.306-1.306H82.175a1.308,1.308,0,0,1,1.306,1.306Z"/>
        <path id="Trazado_124551" data-name="Trazado 124551" d="M79.39,35.015H74.439A2.146,2.146,0,0,0,72.3,37.158v11.67a2.146,2.146,0,0,0,2.143,2.143H79.39a2.146,2.146,0,0,0,2.143-2.143V37.158A2.146,2.146,0,0,0,79.39,35.015Zm-.376,13.438h-4.2V37.534h4.2Z"/>
        <path id="Trazado_124552" data-name="Trazado 124552" d="M63.212,40.236H65.5a1.26,1.26,0,0,0,0-2.52H63.212A1.26,1.26,0,0,0,63.212,40.236Z"/>
        <path id="Trazado_124553" data-name="Trazado 124553" d="M67.786,41.733H63.212a1.26,1.26,0,0,0,0,2.52h4.575a1.26,1.26,0,0,0,0-2.52Z"/>
        <path id="Trazado_124554" data-name="Trazado 124554" d="M67.786,45.751H63.212a1.26,1.26,0,0,0,0,2.52h4.575a1.26,1.26,0,0,0,0-2.52Z"/>
        <path id="Trazado_124555" data-name="Trazado 124555" d="M82.175,3.281H71.163a1.26,1.26,0,0,0,0,2.52H82.175a1.308,1.308,0,0,1,1.306,1.306v16.7a1.308,1.308,0,0,1-1.306,1.306H59.76a1.308,1.308,0,0,1-1.306-1.306V18.622a1.718,1.718,0,0,0-.955-1.533l-3.322-1.63,3.322-1.63a1.718,1.718,0,0,0,.956-1.533V7.107A1.308,1.308,0,0,1,59.76,5.8h5.412a1.26,1.26,0,0,0,0-2.52H59.759a3.83,3.83,0,0,0-3.826,3.826V11.79L51.58,13.926a1.707,1.707,0,0,0,0,3.066l4.354,2.136v4.683a3.83,3.83,0,0,0,3.826,3.826H82.174A3.83,3.83,0,0,0,86,23.811V7.107a3.83,3.83,0,0,0-3.826-3.826Z"/>
        <path id="Trazado_124556" data-name="Trazado 124556" d="M79.39,23.438a2.146,2.146,0,0,0,2.143-2.143V9.624A2.146,2.146,0,0,0,79.39,7.481H74.439A2.146,2.146,0,0,0,72.3,9.624v11.67a2.146,2.146,0,0,0,2.143,2.143H79.39ZM74.815,10h4.2V20.918h-4.2Z"/>
        <path id="Trazado_124557" data-name="Trazado 124557" d="M65.5,10.182H63.212a1.26,1.26,0,0,0,0,2.52H65.5A1.26,1.26,0,0,0,65.5,10.182Z"/>
        <path id="Trazado_124558" data-name="Trazado 124558" d="M61.952,15.459a1.26,1.26,0,0,0,1.26,1.26h4.575a1.26,1.26,0,0,0,0-2.52H63.212A1.26,1.26,0,0,0,61.952,15.459Z"/>
        <path id="Trazado_124559" data-name="Trazado 124559" d="M67.786,18.217H63.212a1.26,1.26,0,0,0,0,2.52h4.575a1.26,1.26,0,0,0,0-2.52Z"/>
        <path id="Trazado_124560" data-name="Trazado 124560" d="M82.175,58.35H59.76a3.83,3.83,0,0,0-3.826,3.826v4.683L51.58,68.995a1.707,1.707,0,0,0,0,3.065L55.934,74.2V78.88a3.83,3.83,0,0,0,3.826,3.826H82.174A3.83,3.83,0,0,0,86,78.88v-16.7a3.83,3.83,0,0,0-3.826-3.826Zm1.306,20.53a1.308,1.308,0,0,1-1.306,1.306H59.76a1.308,1.308,0,0,1-1.306-1.306V73.69a1.718,1.718,0,0,0-.955-1.533l-3.322-1.63L57.5,68.9a1.718,1.718,0,0,0,.956-1.533V62.175a1.308,1.308,0,0,1,1.306-1.306H82.175a1.308,1.308,0,0,1,1.306,1.306Z"/>
        <path id="Trazado_124561" data-name="Trazado 124561" d="M79.39,62.549H74.439A2.146,2.146,0,0,0,72.3,64.692v11.67a2.146,2.146,0,0,0,2.143,2.143H79.39a2.146,2.146,0,0,0,2.143-2.143V64.692A2.146,2.146,0,0,0,79.39,62.549Zm-.376,13.438h-4.2V65.069h4.2Z"/>
        <path id="Trazado_124562" data-name="Trazado 124562" d="M63.212,67.77H65.5a1.26,1.26,0,0,0,0-2.52H63.212A1.26,1.26,0,0,0,63.212,67.77Z"/>
        <path id="Trazado_124563" data-name="Trazado 124563" d="M67.786,69.268H63.212a1.26,1.26,0,0,0,0,2.52h4.575a1.26,1.26,0,0,0,0-2.52Z"/>
        <path id="Trazado_124564" data-name="Trazado 124564" d="M67.786,73.285H63.212a1.26,1.26,0,0,0,0,2.52h4.575a1.26,1.26,0,0,0,0-2.52Z"/>
        <path id="Trazado_124565" data-name="Trazado 124565" d="M43.2,36.457l-2.3-.335a1.232,1.232,0,0,1-.927-.675l-1.029-2.087a3.761,3.761,0,0,0-6.728,0l-1.029,2.087a1.233,1.233,0,0,1-.927.675l-2.3.335a3.731,3.731,0,0,0-2.2,1.148H20.655a3.732,3.732,0,0,0-2.2-1.148l-2.3-.335a1.232,1.232,0,0,1-.927-.675L14.2,33.361a3.761,3.761,0,0,0-6.728,0L6.442,35.448a1.232,1.232,0,0,1-.927.675l-2.3.335a3.755,3.755,0,0,0-2.079,6.4L2.8,44.484a1.236,1.236,0,0,1,.354,1.093L2.761,47.87A3.776,3.776,0,0,0,5.88,52.218a6.713,6.713,0,0,0,6.408,4.7H34.13a6.674,6.674,0,0,0,6.409-4.7,3.776,3.776,0,0,0,3.118-4.347l-.393-2.293a1.236,1.236,0,0,1,.355-1.093l1.664-1.624a3.755,3.755,0,0,0-2.079-6.4ZM5.245,48.3,5.637,46A3.755,3.755,0,0,0,4.559,42.68L2.895,41.056a1.235,1.235,0,0,1,.682-2.106l2.3-.335A3.75,3.75,0,0,0,8.7,36.562L9.73,34.475a1.235,1.235,0,0,1,2.208,0l1.028,2.086a3.75,3.75,0,0,0,2.825,2.054l2.3.335a1.235,1.235,0,0,1,.682,2.106L17.109,42.68A3.755,3.755,0,0,0,16.031,46l.393,2.293a1.232,1.232,0,0,1-1.786,1.3L12.58,48.515a3.747,3.747,0,0,0-3.492,0L7.031,49.6a1.232,1.232,0,0,1-1.786-1.3ZM34.13,54.4H12.288A4.194,4.194,0,0,1,8.38,51.735l1.882-.99a1.229,1.229,0,0,1,1.145,0l2.057,1.083a3.763,3.763,0,0,0,5.443-3.957l-.393-2.293a1.236,1.236,0,0,1,.354-1.093l1.664-1.624a3.73,3.73,0,0,0,1.133-2.735h3.086a3.729,3.729,0,0,0,1.133,2.735l1.664,1.624a1.235,1.235,0,0,1,.354,1.093l-.393,2.293a3.752,3.752,0,0,0,5.443,3.957l2.057-1.083a1.229,1.229,0,0,1,1.145,0l1.879.989A4.229,4.229,0,0,1,34.13,54.4Zm9.394-13.346L41.859,42.68A3.755,3.755,0,0,0,40.781,46l.393,2.293a1.232,1.232,0,0,1-1.786,1.3L37.33,48.515a3.748,3.748,0,0,0-3.492,0L31.781,49.6a1.232,1.232,0,0,1-1.786-1.3L30.387,46a3.755,3.755,0,0,0-1.078-3.322l-1.664-1.624a1.235,1.235,0,0,1,.682-2.106l2.3-.335a3.751,3.751,0,0,0,2.824-2.054l1.029-2.087a1.235,1.235,0,0,1,2.208,0l1.028,2.086a3.75,3.75,0,0,0,2.825,2.054l2.3.335a1.235,1.235,0,0,1,.682,2.106Z"/>
        <path id="Trazado_124566" data-name="Trazado 124566" d="M34.13,66.677h-.106a3.8,3.8,0,0,0-.167-.8,3.729,3.729,0,0,0-3.027-2.553l-2.3-.335a1.232,1.232,0,0,1-.927-.675l-1.029-2.087a3.761,3.761,0,0,0-6.728,0l-1.029,2.087a1.231,1.231,0,0,1-.927.675l-2.3.335a3.729,3.729,0,0,0-3.027,2.553,3.8,3.8,0,0,0-.167.8h-.106a6.724,6.724,0,0,0-6.716,6.716v5.884a6.724,6.724,0,0,0,6.716,6.716h6.039a1.26,1.26,0,0,0,0-2.52H12.288a4.2,4.2,0,0,1-4.2-4.2V73.393a4.2,4.2,0,0,1,4.2-4.2h.771a3.8,3.8,0,0,0,.451.531l1.664,1.624a1.235,1.235,0,0,1,.355,1.093l-.393,2.293A3.752,3.752,0,0,0,20.579,78.7l2.057-1.083a1.229,1.229,0,0,1,1.145,0L25.839,78.7a3.751,3.751,0,0,0,5.443-3.957l-.393-2.293a1.236,1.236,0,0,1,.355-1.093l1.664-1.624a3.79,3.79,0,0,0,.451-.532h.771a4.2,4.2,0,0,1,4.2,4.2v5.884a4.2,4.2,0,0,1-4.2,4.2H24.188a1.26,1.26,0,0,0,0,2.52H34.13a6.724,6.724,0,0,0,6.716-6.716V73.393a6.723,6.723,0,0,0-6.716-6.716Zm-2.981,1.248-1.664,1.624a3.755,3.755,0,0,0-1.078,3.322l.393,2.293a1.232,1.232,0,0,1-1.786,1.3l-2.057-1.083a3.748,3.748,0,0,0-3.492,0l-2.057,1.083a1.232,1.232,0,0,1-1.786-1.3l.393-2.293a3.755,3.755,0,0,0-1.078-3.322L15.27,67.925a1.235,1.235,0,0,1,.682-2.106l2.3-.335a3.75,3.75,0,0,0,2.824-2.054L22.1,61.344a1.235,1.235,0,0,1,2.208,0l1.028,2.086a3.75,3.75,0,0,0,2.824,2.054l2.3.335a1.235,1.235,0,0,1,.682,2.106Z"/>
      </g>
    </g>
  </g>
</svg>
