<svg xmlns="http://www.w3.org/2000/svg" width="911.325" height="283.432" viewBox="0 0 911.325 283.432">
  <g id="Grupo_99195" data-name="Grupo 99195" transform="translate(-286.313 -1189.007)">
    <rect id="Rect치ngulo_34099" data-name="Rect치ngulo 34099" width="36.647" height="36.647" rx="8" transform="matrix(0.985, 0.174, -0.174, 0.985, 323.364, 1324.75)" fill="#ffd41c"/>
    <rect id="Rect치ngulo_34100" data-name="Rect치ngulo 34100" width="45.647" height="45.647" rx="8" transform="matrix(0.966, -0.259, 0.259, 0.966, 1141.732, 1200.821)" fill="#26d19e"/>
    <circle id="Elipse_5080" data-name="Elipse 5080" cx="20.512" cy="20.512" r="20.512" transform="translate(1063.975 1374.927)" fill="#764cf0"/>
    <circle id="Elipse_5081" data-name="Elipse 5081" cx="8.012" cy="8.012" r="8.012" transform="translate(478.975 1386.414)" fill="#764cf0"/>
    <path id="Trazado_114565" data-name="Trazado 114565" d="M662.568-58.417c-5.557-2.619-11.14-5.157-16.69-7.675C618.1-78.694,589.386-91.729,568-114.334a117.188,117.188,0,0,1-30.469-63.449,111.446,111.446,0,0,1,.778-37.081h-4.135a115.525,115.525,0,0,0-.663,37.657,121.313,121.313,0,0,0,31.538,65.662C586.984-88.365,616.072-75.161,644.2-62.4c6.112,2.775,12.263,5.563,18.368,8.48Z" transform="translate(-10.934 1785.273) rotate(-30)" fill="#764cf0"/>
    <g id="Layer_14" transform="translate(267.813 1189.007)">
      <g id="Grupo_95531" data-name="Grupo 95531" transform="translate(18.5)">
        <circle id="Elipse_5644" data-name="Elipse 5644" cx="10.617" cy="10.617" r="10.617" transform="translate(59.138 13.105)" fill="#fc657e"/>
        <circle id="Elipse_5645" data-name="Elipse 5645" cx="1.968" cy="1.968" r="1.968" transform="translate(72.429 19.379)" fill="#edf4fc"/>
        <circle id="Elipse_5646" data-name="Elipse 5646" cx="1.968" cy="1.968" r="1.968" transform="translate(63.148 19.564)" fill="#edf4fc"/>
        <circle id="Elipse_5647" data-name="Elipse 5647" cx="10.617" cy="10.617" r="10.617" transform="translate(30.033 0.928)" fill="#70d6f9"/>
        <circle id="Elipse_5648" data-name="Elipse 5648" cx="1.968" cy="1.968" r="1.968" transform="translate(43.324 7.202)" fill="#edf4fc"/>
        <circle id="Elipse_5649" data-name="Elipse 5649" cx="1.968" cy="1.968" r="1.968" transform="translate(34.043 7.388)" fill="#edf4fc"/>
        <circle id="Elipse_5650" data-name="Elipse 5650" cx="10.617" cy="10.617" r="10.617" transform="translate(0.928 13.105)" fill="#f5c84c"/>
        <circle id="Elipse_5651" data-name="Elipse 5651" cx="1.968" cy="1.968" r="1.968" transform="translate(14.218 19.379)" fill="#edf4fc"/>
        <circle id="Elipse_5652" data-name="Elipse 5652" cx="1.968" cy="1.968" r="1.968" transform="translate(4.937 19.564)" fill="#edf4fc"/>
        <path id="Trazado_123312" data-name="Trazado 123312" d="M33.2,71.5a6.857,6.857,0,0,0,12.177,0Z" transform="translate(-27.743 -44.956)" fill="#fc657e"/>
        <path id="Trazado_123313" data-name="Trazado 123313" d="M204.462,183.807a3.681,3.681,0,0,1-2.97-2.9c0-.037-.037-.074-.074-.037a.036.036,0,0,0-.037.037,3.681,3.681,0,0,1-2.97,2.9c-.037,0-.074.037-.037.074a.036.036,0,0,0,.037.037,3.681,3.681,0,0,1,2.97,2.9c0,.037.037.074.074.037a.036.036,0,0,0,.037-.037,3.681,3.681,0,0,1,2.97-2.9c.037,0,.074-.037.037-.074C204.537,183.844,204.5,183.807,204.462,183.807Z" transform="translate(-131.588 -113.717)" fill="#f5c84c"/>
        <path id="Trazado_123314" data-name="Trazado 123314" d="M56.775,119.73h-.817v-.817a1.114,1.114,0,0,0-2.227,0v.817h-.817a1.114,1.114,0,0,0,0,2.227h.817v.817a1.114,1.114,0,1,0,2.227,0v-.817h.817a1.114,1.114,0,0,0,0-2.227Z" transform="translate(-39.438 -74.068)" fill="#b2e26d"/>
        <circle id="Elipse_5653" data-name="Elipse 5653" cx="1.188" cy="1.188" r="1.188" transform="translate(6.348 38.72)" fill="#f5c84c"/>
        <circle id="Elipse_5654" data-name="Elipse 5654" cx="1.188" cy="1.188" r="1.188" transform="translate(59.064 63.222)" fill="#70d6f9"/>
        <circle id="Elipse_5655" data-name="Elipse 5655" cx="1.188" cy="1.188" r="1.188" transform="translate(61.626 37.569)" fill="#fc657e"/>
        <path id="Trazado_123315" data-name="Trazado 123315" d="M111.635,186.441a4.159,4.159,0,0,0-3.118-3.787l-8.167-2.042-4.9-2.413-1.671,4.752a.733.733,0,0,1-.668.445H88.025a.733.733,0,0,1-.668-.445L85.686,178.2l-4.9,2.413-8.167,2.042a4.114,4.114,0,0,0-3.118,3.787l-1,18.005a1.681,1.681,0,0,0,1.559,1.745H111a1.648,1.648,0,0,0,1.633-1.633v-.074Z" transform="translate(-49.936 -112.045)" fill="#edf4fc"/>
        <g id="Grupo_95530" data-name="Grupo 95530" transform="translate(24.894 39.927)">
          <path id="Trazado_123316" data-name="Trazado 123316" d="M156.505,120.8a4.036,4.036,0,0,0-.668.037v7.945a4.5,4.5,0,0,1-.037.705,4.4,4.4,0,0,0,1.411-8.687h-.705Z" transform="translate(-129.723 -115.881)" fill="#f9d0b4"/>
          <path id="Trazado_123317" data-name="Trazado 123317" d="M90.658,128.754v-7.945a4.4,4.4,0,0,0-1.411,8.687,4.734,4.734,0,0,0,1.448,0,4.974,4.974,0,0,1-.037-.742Z" transform="translate(-85.556 -115.853)" fill="#f9d0b4"/>
          <path id="Trazado_123318" data-name="Trazado 123318" d="M111.365,107.717c-3.824,4.826-9.5,4.158-11.4,3.75a.55.55,0,0,0-.668.445v8.576a10.506,10.506,0,0,0,21.012,0v-9.5a.571.571,0,0,0-.557-.557c-4.381-.111-6.682-1.856-7.536-2.71a.583.583,0,0,0-.817,0C111.4,107.68,111.4,107.717,111.365,107.717Z" transform="translate(-94.198 -107.55)" fill="#f9d0b4"/>
          <path id="Trazado_123319" data-name="Trazado 123319" d="M119.678,168.562A10.214,10.214,0,0,1,115,167.448v3.9l1.671,4.752a.733.733,0,0,0,.668.445h5.086a.733.733,0,0,0,.668-.445l1.671-4.752V167.3A11.322,11.322,0,0,1,119.678,168.562Z" transform="translate(-104.069 -145.118)" fill="#f9d0b4"/>
        </g>
        <path id="Trazado_123320" data-name="Trazado 123320" d="M92.721,95.65a4.037,4.037,0,0,1,.668.037v-.52a.571.571,0,0,1,.557-.557h.111c1.893.408,7.573,1.077,11.4-3.749a.547.547,0,0,1,.78-.111l.037.037c.891.854,3.193,2.6,7.536,2.71a.6.6,0,0,1,.557.557v1.559a4.268,4.268,0,0,1,3.712,1.188V88.893a6.008,6.008,0,0,0-9.1-5.16,6,6,0,0,0-5.16-2.933H100.74A10.853,10.853,0,0,0,89.9,91.64V96.5A5.461,5.461,0,0,1,92.721,95.65Z" transform="translate(-63.394 -50.804)" fill="#5b5d60"/>
        <path id="Trazado_123321" data-name="Trazado 123321" d="M112.053,141.622l-1-18.005a5.027,5.027,0,0,0-3.824-4.641l-8.056-2.042-4.306-2.116v-2.933a11.427,11.427,0,0,0,5.383-8.093,5.333,5.333,0,0,0,5.2-5.42,5.448,5.448,0,0,0-1.336-3.415V87.421a6.955,6.955,0,0,0-6.942-6.942,6.59,6.59,0,0,0-2.784.594A6.913,6.913,0,0,0,88.925,78.4H85.844A11.772,11.772,0,0,0,74.075,90.168v4.455a5.323,5.323,0,0,0-.186,7.5,5.061,5.061,0,0,0,3.712,1.633,11.524,11.524,0,0,0,5.68,8.279v2.747L78.976,116.9l-8.056,2.042a5.027,5.027,0,0,0-3.824,4.64l-1,18.005a2.572,2.572,0,0,0,2.413,2.71h40.985a2.567,2.567,0,0,0,2.562-2.562Zm-11.694-39.648V95.069a3.462,3.462,0,0,1,0,6.905ZM75.932,93.509V90.243a9.934,9.934,0,0,1,9.912-9.912h3.081a5.066,5.066,0,0,1,4.343,2.487.916.916,0,0,0,1.262.334,5.068,5.068,0,0,1,6.942,1.708,4.693,4.693,0,0,1,.705,2.636v6.163a5.434,5.434,0,0,0-1.856-.445v-.594a1.45,1.45,0,0,0-1.448-1.448c-4.121-.111-6.2-1.745-6.942-2.45a1.48,1.48,0,0,0-2.116.037l-.111.111c-3.453,4.343-8.5,3.824-10.469,3.415a1.471,1.471,0,0,0-1.708.965A4.006,4.006,0,0,0,75.932,93.509ZM74.3,98.521a3.476,3.476,0,0,1,3.193-3.453v6.905A3.448,3.448,0,0,1,74.3,98.521Zm5.049,3.6V94.1c2.19.371,7.722.742,11.62-3.861a11.925,11.925,0,0,0,7.536,2.71v9.17a9.608,9.608,0,0,1-4.975,8.39h-.037a9.531,9.531,0,0,1-8.835.148h-.037A9.5,9.5,0,0,1,79.347,102.122Zm13.624,10.692v2.45l-1.559,4.455H86.7l-1.559-4.455v-2.339a11.364,11.364,0,0,0,7.833-.111ZM67.95,141.733l1-18.005a3.21,3.21,0,0,1,2.413-2.933l8.167-2.042c.074,0,.111-.037.186-.074l3.972-1.968,1.3,3.75a1.594,1.594,0,0,0,1.522,1.077H91.6a1.608,1.608,0,0,0,1.522-1.077l1.3-3.75,3.972,1.968c.074.037.111.037.186.074l8.167,2.042a3.166,3.166,0,0,1,2.413,2.933l1,18.005a.664.664,0,0,1-.668.742h-7.239v-9.1a.928.928,0,0,0-1.856,0v9.1H77.38v-9.1a.928.928,0,0,0-1.856,0v9.1H68.655a.7.7,0,0,1-.705-.705Z" transform="translate(-48.423 -49.295)"/>
        <path id="Trazado_123322" data-name="Trazado 123322" d="M126.428,207.056a.928.928,0,1,0-.928-.928A.919.919,0,0,0,126.428,207.056Z" transform="translate(-85.777 -129.022)"/>
        <path id="Trazado_123323" data-name="Trazado 123323" d="M126.428,222.256a.928.928,0,1,0-.928-.928A.943.943,0,0,0,126.428,222.256Z" transform="translate(-85.777 -138.579)"/>
        <path id="Trazado_123324" data-name="Trazado 123324" d="M126.428,237.356a.928.928,0,1,0-.928-.928A.919.919,0,0,0,126.428,237.356Z" transform="translate(-85.777 -148.073)"/>
        <path id="Trazado_123325" data-name="Trazado 123325" d="M108.446,0a11.546,11.546,0,1,0,11.546,11.546A11.534,11.534,0,0,0,108.446,0Zm0,21.235a9.689,9.689,0,1,1,9.689-9.689A9.7,9.7,0,0,1,108.446,21.235Z" transform="translate(-67.795)"/>
        <path id="Trazado_123326" data-name="Trazado 123326" d="M198.391,44.346a11.546,11.546,0,1,0-11.546,11.546A11.534,11.534,0,0,0,198.391,44.346Zm-21.235,0a9.689,9.689,0,1,1,9.689,9.689A9.7,9.7,0,0,1,177.156,44.346Z" transform="translate(-117.09 -20.623)"/>
        <path id="Trazado_123327" data-name="Trazado 123327" d="M18.5,44.346A11.546,11.546,0,1,0,30.046,32.8,11.558,11.558,0,0,0,18.5,44.346Zm11.546-9.689a9.689,9.689,0,1,1-9.689,9.689A9.7,9.7,0,0,1,30.046,34.656Z" transform="translate(-18.5 -20.623)"/>
        <path id="Trazado_123328" data-name="Trazado 123328" d="M135.6,16.8a2.9,2.9,0,1,0,2.9,2.9A2.9,2.9,0,0,0,135.6,16.8Zm0,3.972a1.038,1.038,0,0,1-1.039-1.039,1.062,1.062,0,0,1,1.039-1.039,1.039,1.039,0,0,1,0,2.079Z" transform="translate(-90.305 -10.563)"/>
        <path id="Trazado_123329" data-name="Trazado 123329" d="M110.6,23.191a2.9,2.9,0,1,0-2.9-2.9A2.9,2.9,0,0,0,110.6,23.191Zm0-3.935a1.038,1.038,0,0,1,1.039,1.039,1.062,1.062,0,0,1-1.039,1.039,1.038,1.038,0,0,1-1.039-1.039A1.015,1.015,0,0,1,110.6,19.256Z" transform="translate(-74.586 -10.94)"/>
        <path id="Trazado_123330" data-name="Trazado 123330" d="M122.2,36.2H110.028a.928.928,0,1,0,0,1.856H122.2a.928.928,0,1,0,0-1.856Z" transform="translate(-75.466 -22.761)"/>
        <path id="Trazado_123331" data-name="Trazado 123331" d="M214,55.491a2.9,2.9,0,1,0-2.9-2.9A2.9,2.9,0,0,0,214,55.491Zm0-3.935a1.038,1.038,0,0,1,1.039,1.039,1.039,1.039,0,1,1-2.079,0A1.015,1.015,0,0,1,214,51.556Z" transform="translate(-139.599 -31.249)"/>
        <path id="Trazado_123332" data-name="Trazado 123332" d="M191.891,53.1a2.9,2.9,0,1,0-2.9,2.9A2.9,2.9,0,0,0,191.891,53.1Zm-3.972,0a1.038,1.038,0,0,1,1.039-1.039,1.039,1.039,0,1,1,0,2.079A1.038,1.038,0,0,1,187.919,53.1Z" transform="translate(-123.88 -31.564)"/>
        <path id="Trazado_123333" data-name="Trazado 123333" d="M200.481,73.035a.922.922,0,1,0,1.411-1.188,7.805,7.805,0,0,0-10.952-.928,10.948,10.948,0,0,0-.928.928.92.92,0,1,0,1.374,1.225l.037-.037a5.938,5.938,0,0,1,8.353-.705A4.226,4.226,0,0,1,200.481,73.035Z" transform="translate(-126.196 -43.447)"/>
        <path id="Trazado_123334" data-name="Trazado 123334" d="M57.2,55.491a2.9,2.9,0,1,0-2.9-2.9A2.9,2.9,0,0,0,57.2,55.491Zm0-3.935A1.038,1.038,0,0,1,58.235,52.6,1.062,1.062,0,0,1,57.2,53.635a1.039,1.039,0,0,1,0-2.079Z" transform="translate(-41.01 -31.249)"/>
        <path id="Trazado_123335" data-name="Trazado 123335" d="M32.2,55.991a2.9,2.9,0,1,0-2.9-2.9A2.9,2.9,0,0,0,32.2,55.991Zm0-3.935A1.038,1.038,0,0,1,33.235,53.1,1.039,1.039,0,1,1,32.2,52.056Z" transform="translate(-25.291 -31.564)"/>
        <path id="Trazado_123336" data-name="Trazado 123336" d="M30.811,70.374a7.8,7.8,0,0,0,10.506,3.341,7.648,7.648,0,0,0,3.341-3.341.942.942,0,0,0-.408-1.262A.846.846,0,0,0,43.842,69H31.628a.919.919,0,0,0-.928.928A.989.989,0,0,0,30.811,70.374Zm11.211.483a5.929,5.929,0,0,1-8.39.223l-.223-.223Z" transform="translate(-26.171 -43.385)"/>
      </g>
    </g>
  </g>
</svg>
