<svg xmlns="http://www.w3.org/2000/svg" xmlns:xlink="http://www.w3.org/1999/xlink" width="190" height="134" viewBox="0 0 190 134">
  <defs>
    <clipPath id="clip-path">
      <rect id="Rect치ngulo_35499" data-name="Rect치ngulo 35499" width="101" height="101" transform="translate(224 433)" fill="#ffd41c" stroke="#707070" stroke-width="1"/>
    </clipPath>
  </defs>
  <g id="Grupo_95190" data-name="Grupo 95190" transform="translate(-180 -417)">
    <rect id="Rect치ngulo_33975" data-name="Rect치ngulo 33975" width="190" height="134" transform="translate(180 417)" fill="#fff"/>
    <g id="Enmascarar_grupo_364" data-name="Enmascarar grupo 364" clip-path="url(#clip-path)">
      <g id="Layer_54" transform="translate(224 433)">
        <g id="Grupo_97293" data-name="Grupo 97293">
          <g id="Grupo_97190" data-name="Grupo 97190">
            <g id="Grupo_97189" data-name="Grupo 97189">
              <path id="Trazado_124839" data-name="Trazado 124839" d="M42.884,92.094V91.4H29.478a2.186,2.186,0,0,0,0,4.372H46.563A3.691,3.691,0,0,1,42.884,92.094Z" fill="#edf4fc"/>
            </g>
          </g>
          <g id="Grupo_97192" data-name="Grupo 97192">
            <g id="Grupo_97191" data-name="Grupo 97191">
              <path id="Trazado_124840" data-name="Trazado 124840" d="M36.645,81.383h6.238V91.4H36.645Z" fill="#c7d7e5"/>
            </g>
          </g>
          <g id="Grupo_97194" data-name="Grupo 97194">
            <g id="Grupo_97193" data-name="Grupo 97193">
              <path id="Trazado_124841" data-name="Trazado 124841" d="M72.119,91.541V53.885a4.244,4.244,0,0,1,4.232-4.232H89.979V35.532A3.69,3.69,0,0,0,86.3,31.853H46.563a3.69,3.69,0,0,0-3.679,3.679V92.094a3.69,3.69,0,0,0,3.679,3.679H76.35A4.244,4.244,0,0,1,72.119,91.541Z" fill="#5290db"/>
            </g>
          </g>
          <g id="Grupo_97196" data-name="Grupo 97196">
            <g id="Grupo_97195" data-name="Grupo 97195">
              <path id="Trazado_124842" data-name="Trazado 124842" d="M42.884,35.532a3.69,3.69,0,0,1,3.679-3.679H86.3a3.69,3.69,0,0,1,3.679,3.679V18.374a4.681,4.681,0,0,0-4.667-4.667H5.654A4.681,4.681,0,0,0,.986,18.374V76.715a4.681,4.681,0,0,0,4.667,4.667h37.23Z" fill="#5290db"/>
            </g>
          </g>
          <g id="Grupo_97198" data-name="Grupo 97198">
            <g id="Grupo_97197" data-name="Grupo 97197">
              <path id="Trazado_124843" data-name="Trazado 124843" d="M95.782,49.654H76.35a4.244,4.244,0,0,0-4.232,4.232V91.541a4.244,4.244,0,0,0,4.232,4.232H95.782a4.244,4.244,0,0,0,4.232-4.232V53.885a4.244,4.244,0,0,0-4.232-4.232Z" fill="#5290db"/>
            </g>
          </g>
          <g id="Grupo_97200" data-name="Grupo 97200">
            <g id="Grupo_97199" data-name="Grupo 97199">
              <path id="Trazado_124844" data-name="Trazado 124844" d="M95.053,53.373H90.7a1.472,1.472,0,0,0-1.373.916,3.509,3.509,0,0,1-6.522,0,1.472,1.472,0,0,0-1.373-.916H77.078a1.241,1.241,0,0,0-1.241,1.241v36.2a1.241,1.241,0,0,0,1.241,1.241H95.053a1.241,1.241,0,0,0,1.241-1.241v-36.2A1.24,1.24,0,0,0,95.053,53.373Z" fill="#edf4fc"/>
            </g>
          </g>
          <g id="Grupo_97202" data-name="Grupo 97202">
            <g id="Grupo_97201" data-name="Grupo 97201">
              <path id="Trazado_124845" data-name="Trazado 124845" d="M72.119,91.541V53.885a4.244,4.244,0,0,1,4.232-4.232h9.612V36.232a.363.363,0,0,0-.363-.363H47.263a.363.363,0,0,0-.363.363V91.394a.363.363,0,0,0,.363.363H72.13C72.126,91.685,72.119,91.614,72.119,91.541Z" fill="#edf4fc"/>
            </g>
          </g>
          <g id="Grupo_97204" data-name="Grupo 97204">
            <g id="Grupo_97203" data-name="Grupo 97203">
              <path id="Trazado_124846" data-name="Trazado 124846" d="M42.884,68.936H.986v7.779a4.681,4.681,0,0,0,4.667,4.667h37.23Z" fill="#edf4fc"/>
            </g>
          </g>
          <g id="Grupo_97206" data-name="Grupo 97206">
            <g id="Grupo_97205" data-name="Grupo 97205">
              <path id="Trazado_124847" data-name="Trazado 124847" d="M42.884,35.532a3.69,3.69,0,0,1,3.679-3.679H86.089V18.374a.78.78,0,0,0-.778-.778H5.654a.78.78,0,0,0-.778.778V68.936H42.884Z" fill="#edf4fc"/>
            </g>
          </g>
          <g id="Grupo_97208" data-name="Grupo 97208">
            <g id="Grupo_97207" data-name="Grupo 97207">
              <path id="Trazado_124848" data-name="Trazado 124848" d="M85.311,17.6H5.654a.78.78,0,0,0-.778.778v3.917H86.089V18.374a.781.781,0,0,0-.778-.778Z" fill="#5290db"/>
            </g>
          </g>
          <g id="Grupo_97210" data-name="Grupo 97210">
            <g id="Grupo_97209" data-name="Grupo 97209">
              <path id="Trazado_124849" data-name="Trazado 124849" d="M11.244,17.6H5.654a.78.78,0,0,0-.778.778v3.917h6.369Z" fill="#fc657e"/>
            </g>
          </g>
          <g id="Grupo_97212" data-name="Grupo 97212">
            <g id="Grupo_97211" data-name="Grupo 97211">
              <path id="Trazado_124850" data-name="Trazado 124850" d="M23.568,64.506H11.151a1.485,1.485,0,0,1-1.485-1.485V47.054a1.485,1.485,0,0,1,1.485-1.485H23.567a1.485,1.485,0,0,1,1.485,1.485V63.021A1.484,1.484,0,0,1,23.568,64.506Z" fill="#70d6f9"/>
            </g>
          </g>
          <g id="Grupo_97214" data-name="Grupo 97214">
            <g id="Grupo_97213" data-name="Grupo 97213">
              <path id="Trazado_124851" data-name="Trazado 124851" d="M42.884,64.506V45.568H30.878a1.485,1.485,0,0,0-1.485,1.485V63.02a1.485,1.485,0,0,0,1.485,1.485H42.884Z" fill="#f5c84c"/>
            </g>
          </g>
          <g id="Grupo_97216" data-name="Grupo 97216">
            <g id="Grupo_97215" data-name="Grupo 97215">
              <path id="Trazado_124852" data-name="Trazado 124852" d="M91.827,74.042H80.306a1.144,1.144,0,0,0-1.144,1.144v2.85a1.144,1.144,0,0,0,1.144,1.144H91.827a1.144,1.144,0,0,0,1.144-1.144v-2.85A1.144,1.144,0,0,0,91.827,74.042Z" fill="#f5c84c"/>
            </g>
          </g>
          <g id="Grupo_97218" data-name="Grupo 97218">
            <g id="Grupo_97217" data-name="Grupo 97217">
              <path id="Trazado_124853" data-name="Trazado 124853" d="M91.827,82.973H80.306a1.144,1.144,0,0,0-1.144,1.144v2.85a1.144,1.144,0,0,0,1.144,1.144H91.827a1.144,1.144,0,0,0,1.144-1.144v-2.85A1.144,1.144,0,0,0,91.827,82.973Z" fill="#fc657e"/>
            </g>
          </g>
          <g id="Grupo_97221" data-name="Grupo 97221">
            <g id="Grupo_97220" data-name="Grupo 97220">
              <g id="Grupo_97219" data-name="Grupo 97219">
                <path id="Trazado_124854" data-name="Trazado 124854" d="M91.827,65.111H80.306a1.144,1.144,0,0,0-1.144,1.144V69.1a1.144,1.144,0,0,0,1.144,1.144H91.827A1.144,1.144,0,0,0,92.97,69.1v-2.85A1.144,1.144,0,0,0,91.827,65.111Z" fill="#70d6f9"/>
              </g>
            </g>
          </g>
          <g id="Grupo_97223" data-name="Grupo 97223">
            <g id="Grupo_97222" data-name="Grupo 97222">
              <path id="Trazado_124855" data-name="Trazado 124855" d="M53.012,51.015A1.508,1.508,0,0,0,51.5,52.523v5.853a1.508,1.508,0,0,0,1.508,1.508H72.119v-6a4.21,4.21,0,0,1,1.136-2.871H53.012Z" fill="#70d6f9"/>
            </g>
          </g>
          <g id="Grupo_97225" data-name="Grupo 97225">
            <g id="Grupo_97224" data-name="Grupo 97224">
              <path id="Trazado_124856" data-name="Trazado 124856" d="M53.012,64.626A1.508,1.508,0,0,0,51.5,66.134v5.853A1.508,1.508,0,0,0,53.012,73.5H72.119V64.627H53.012Z" fill="#f5c84c"/>
            </g>
          </g>
          <g id="Grupo_97227" data-name="Grupo 97227">
            <g id="Grupo_97226" data-name="Grupo 97226">
              <path id="Trazado_124857" data-name="Trazado 124857" d="M53.012,78.237A1.508,1.508,0,0,0,51.5,79.746V85.6a1.508,1.508,0,0,0,1.508,1.508H72.119V78.238H53.012Z" fill="#fc657e"/>
            </g>
          </g>
          <g id="Grupo_97229" data-name="Grupo 97229">
            <g id="Grupo_97228" data-name="Grupo 97228">
              <path id="Trazado_124858" data-name="Trazado 124858" d="M100.946,30.946A3.545,3.545,0,0,1,98.1,28.162a.064.064,0,0,0-.126,0,3.545,3.545,0,0,1-2.842,2.784.062.062,0,0,0,0,.123,3.545,3.545,0,0,1,2.842,2.784.064.064,0,0,0,.126,0,3.545,3.545,0,0,1,2.842-2.784A.062.062,0,0,0,100.946,30.946Z" fill="#f5c84c"/>
            </g>
          </g>
          <g id="Grupo_97231" data-name="Grupo 97231">
            <g id="Grupo_97230" data-name="Grupo 97230">
              <path id="Trazado_124859" data-name="Trazado 124859" d="M55.286,6.8a3.194,3.194,0,0,1-2.56-2.507.058.058,0,0,0-.114,0A3.192,3.192,0,0,1,50.053,6.8a.056.056,0,0,0,0,.111,3.194,3.194,0,0,1,2.56,2.508.058.058,0,0,0,.114,0,3.193,3.193,0,0,1,2.56-2.508A.056.056,0,0,0,55.286,6.8Z" fill="#fc657e"/>
            </g>
          </g>
          <g id="Grupo_97233" data-name="Grupo 97233">
            <g id="Grupo_97232" data-name="Grupo 97232">
              <path id="Trazado_124860" data-name="Trazado 124860" d="M17.928,88.073h.919v-.919a1.246,1.246,0,0,1,2.491,0v.919h.919a1.246,1.246,0,1,1,0,2.491h-.919v.919a1.246,1.246,0,1,1-2.491,0v-.919h-.919a1.246,1.246,0,1,1,0-2.491Z" fill="#70d6f9"/>
            </g>
          </g>
          <g id="Grupo_97235" data-name="Grupo 97235">
            <g id="Grupo_97234" data-name="Grupo 97234">
              <circle id="Elipse_5843" data-name="Elipse 5843" cx="1.332" cy="1.332" r="1.332" transform="translate(94.034 37.083)" fill="#87d147"/>
            </g>
          </g>
          <g id="Grupo_97237" data-name="Grupo 97237">
            <g id="Grupo_97236" data-name="Grupo 97236">
              <circle id="Elipse_5844" data-name="Elipse 5844" cx="1.332" cy="1.332" r="1.332" transform="translate(41.561 7.099)" fill="#70d6f9"/>
            </g>
          </g>
          <g id="Grupo_97239" data-name="Grupo 97239">
            <g id="Grupo_97238" data-name="Grupo 97238">
              <circle id="Elipse_5845" data-name="Elipse 5845" cx="1.332" cy="1.332" r="1.332" transform="translate(8.421 85.216)" fill="#f5c84c"/>
            </g>
          </g>
          <g id="Grupo_97241" data-name="Grupo 97241">
            <g id="Grupo_97240" data-name="Grupo 97240">
              <path id="Trazado_124861" data-name="Trazado 124861" d="M46.563,96.759H29.479a3.172,3.172,0,1,1,0-6.344H42.622a.986.986,0,0,1,0,1.973H29.479a1.2,1.2,0,1,0,0,2.4H46.563a.986.986,0,1,1,0,1.973Z"/>
            </g>
          </g>
          <g id="Grupo_97243" data-name="Grupo 97243">
            <g id="Grupo_97242" data-name="Grupo 97242">
              <path id="Trazado_124862" data-name="Trazado 124862" d="M36.645,92.086a.986.986,0,0,1-.986-.986V81.684a.986.986,0,1,1,1.973,0V91.1A.986.986,0,0,1,36.645,92.086Z"/>
            </g>
          </g>
          <g id="Grupo_97245" data-name="Grupo 97245">
            <g id="Grupo_97244" data-name="Grupo 97244">
              <path id="Trazado_124863" data-name="Trazado 124863" d="M76.35,96.759H46.563A4.671,4.671,0,0,1,41.9,92.094V35.532a4.671,4.671,0,0,1,4.665-4.665H86.3a4.671,4.671,0,0,1,4.665,4.665V49.4a.986.986,0,0,1-1.973,0V35.532A2.7,2.7,0,0,0,86.3,32.84H46.563a2.7,2.7,0,0,0-2.693,2.693V92.094a2.7,2.7,0,0,0,2.693,2.693H76.35a.986.986,0,1,1,0,1.973Z"/>
            </g>
          </g>
          <g id="Grupo_97247" data-name="Grupo 97247">
            <g id="Grupo_97246" data-name="Grupo 97246">
              <path id="Trazado_124864" data-name="Trazado 124864" d="M42.659,82.369H5.654A5.66,5.66,0,0,1,0,76.715V18.374a5.66,5.66,0,0,1,5.654-5.653H85.311a5.66,5.66,0,0,1,5.653,5.653V35.531a.986.986,0,0,1-1.973,0V18.374a3.685,3.685,0,0,0-3.681-3.681H5.654a3.685,3.685,0,0,0-3.681,3.681V76.715A3.685,3.685,0,0,0,5.654,80.4H42.659a.986.986,0,1,1,0,1.973Z"/>
            </g>
          </g>
          <g id="Grupo_97249" data-name="Grupo 97249">
            <g id="Grupo_97248" data-name="Grupo 97248">
              <path id="Trazado_124865" data-name="Trazado 124865" d="M95.782,96.759H76.35a5.224,5.224,0,0,1-5.218-5.218V53.885a5.224,5.224,0,0,1,5.218-5.218H95.782A5.224,5.224,0,0,1,101,53.885V91.541a5.224,5.224,0,0,1-5.218,5.218ZM76.35,50.64A3.249,3.249,0,0,0,73.1,53.885V91.541a3.249,3.249,0,0,0,3.245,3.245H95.782a3.249,3.249,0,0,0,3.245-3.245V53.885a3.249,3.249,0,0,0-3.245-3.245Z"/>
            </g>
          </g>
          <g id="Grupo_97251" data-name="Grupo 97251">
            <g id="Grupo_97250" data-name="Grupo 97250">
              <path id="Trazado_124866" data-name="Trazado 124866" d="M14.4,28.012H12.033a.986.986,0,1,1,0-1.973H14.4a.986.986,0,1,1,0,1.973Z"/>
            </g>
          </g>
          <g id="Grupo_97253" data-name="Grupo 97253">
            <g id="Grupo_97252" data-name="Grupo 97252">
              <path id="Trazado_124867" data-name="Trazado 124867" d="M21.3,28.012H18.937a.986.986,0,1,1,0-1.973H21.3a.986.986,0,1,1,0,1.973Z"/>
            </g>
          </g>
          <g id="Grupo_97255" data-name="Grupo 97255">
            <g id="Grupo_97254" data-name="Grupo 97254">
              <path id="Trazado_124868" data-name="Trazado 124868" d="M28.209,28.012H25.842a.986.986,0,1,1,0-1.973h2.367a.986.986,0,1,1,0,1.973Z"/>
            </g>
          </g>
          <g id="Grupo_97257" data-name="Grupo 97257">
            <g id="Grupo_97256" data-name="Grupo 97256">
              <path id="Trazado_124869" data-name="Trazado 124869" d="M54.248,41.426H51.881a.986.986,0,0,1,0-1.973h2.367a.986.986,0,0,1,0,1.973Z"/>
            </g>
          </g>
          <g id="Grupo_97259" data-name="Grupo 97259">
            <g id="Grupo_97258" data-name="Grupo 97258">
              <path id="Trazado_124870" data-name="Trazado 124870" d="M61.152,41.426H58.785a.986.986,0,0,1,0-1.973h2.367a.986.986,0,1,1,0,1.973Z"/>
            </g>
          </g>
          <g id="Grupo_97261" data-name="Grupo 97261">
            <g id="Grupo_97260" data-name="Grupo 97260">
              <path id="Trazado_124871" data-name="Trazado 124871" d="M68.057,41.426H65.689a.986.986,0,0,1,0-1.973h2.367a.986.986,0,0,1,0,1.973Z"/>
            </g>
          </g>
          <g id="Grupo_97263" data-name="Grupo 97263">
            <g id="Grupo_97262" data-name="Grupo 97262">
              <path id="Trazado_124872" data-name="Trazado 124872" d="M92.123,60.758H89.756a.986.986,0,1,1,0-1.973h2.367a.986.986,0,1,1,0,1.973Z"/>
            </g>
          </g>
          <g id="Grupo_97265" data-name="Grupo 97265">
            <g id="Grupo_97264" data-name="Grupo 97264">
              <path id="Trazado_124873" data-name="Trazado 124873" d="M95.054,93.04H77.079a2.23,2.23,0,0,1-2.227-2.228v-36.2a2.23,2.23,0,0,1,2.227-2.228h4.354a2.444,2.444,0,0,1,2.29,1.538,2.522,2.522,0,0,0,4.688,0A2.443,2.443,0,0,1,90.7,52.386h4.354a2.23,2.23,0,0,1,2.227,2.228v36.2A2.229,2.229,0,0,1,95.054,93.04ZM77.079,54.359a.255.255,0,0,0-.254.255v36.2a.255.255,0,0,0,.254.255H95.054a.255.255,0,0,0,.254-.255v-36.2a.255.255,0,0,0-.254-.255H90.7a.487.487,0,0,0-.456.294,4.495,4.495,0,0,1-8.355,0,.489.489,0,0,0-.456-.294Z"/>
            </g>
          </g>
          <g id="Grupo_97267" data-name="Grupo 97267">
            <g id="Grupo_97266" data-name="Grupo 97266">
              <path id="Trazado_124874" data-name="Trazado 124874" d="M71.977,92.744H47.263a1.351,1.351,0,0,1-1.35-1.349V36.232a1.351,1.351,0,0,1,1.35-1.35H85.6a1.351,1.351,0,0,1,1.349,1.35V49.464a.986.986,0,0,1-1.973,0V36.855H47.886V90.771H71.977a.986.986,0,0,1,0,1.973Z"/>
            </g>
          </g>
          <g id="Grupo_97269" data-name="Grupo 97269">
            <g id="Grupo_97268" data-name="Grupo 97268">
              <path id="Trazado_124875" data-name="Trazado 124875" d="M42.733,69.923H1.257a.986.986,0,0,1,0-1.973H42.733a.986.986,0,1,1,0,1.973Z"/>
            </g>
          </g>
          <g id="Grupo_97271" data-name="Grupo 97271">
            <g id="Grupo_97270" data-name="Grupo 97270">
              <path id="Trazado_124876" data-name="Trazado 124876" d="M4.876,69.733a.986.986,0,0,1-.986-.986V18.374A1.766,1.766,0,0,1,5.654,16.61H85.311a1.766,1.766,0,0,1,1.764,1.764V31.612a.986.986,0,1,1-1.973,0V18.583H5.862V68.747a.986.986,0,0,1-.986.986Z"/>
            </g>
          </g>
          <g id="Grupo_97273" data-name="Grupo 97273">
            <g id="Grupo_97272" data-name="Grupo 97272">
              <path id="Trazado_124877" data-name="Trazado 124877" d="M85.823,23.277H5.145a.986.986,0,1,1,0-1.973H85.823a.986.986,0,1,1,0,1.973Z"/>
            </g>
          </g>
          <g id="Grupo_97275" data-name="Grupo 97275">
            <g id="Grupo_97274" data-name="Grupo 97274">
              <path id="Trazado_124878" data-name="Trazado 124878" d="M11.244,22.981A.986.986,0,0,1,10.258,22v-4.18a.986.986,0,0,1,1.973,0V22A.986.986,0,0,1,11.244,22.981Z"/>
            </g>
          </g>
          <g id="Grupo_97277" data-name="Grupo 97277">
            <g id="Grupo_97276" data-name="Grupo 97276">
              <path id="Trazado_124879" data-name="Trazado 124879" d="M23.567,65.492H11.151A2.475,2.475,0,0,1,8.68,63.02V47.053a2.475,2.475,0,0,1,2.472-2.472H23.568a2.475,2.475,0,0,1,2.472,2.472V63.02A2.475,2.475,0,0,1,23.567,65.492ZM11.151,46.555a.5.5,0,0,0-.5.5V63.021a.5.5,0,0,0,.5.5H23.568a.5.5,0,0,0,.5-.5V47.054a.5.5,0,0,0-.5-.5Z"/>
            </g>
          </g>
          <g id="Grupo_97279" data-name="Grupo 97279">
            <g id="Grupo_97278" data-name="Grupo 97278">
              <path id="Trazado_124880" data-name="Trazado 124880" d="M42.577,65.492h-11.7a2.475,2.475,0,0,1-2.472-2.472V47.053a2.475,2.475,0,0,1,2.472-2.472H42.622a.986.986,0,0,1,0,1.973H30.878a.5.5,0,0,0-.5.5V63.02a.5.5,0,0,0,.5.5h11.7a.986.986,0,0,1,0,1.973Z"/>
            </g>
          </g>
          <g id="Grupo_97281" data-name="Grupo 97281">
            <g id="Grupo_97280" data-name="Grupo 97280">
              <path id="Trazado_124881" data-name="Trazado 124881" d="M91.827,80.166H80.306a2.132,2.132,0,0,1-2.13-2.13v-2.85a2.133,2.133,0,0,1,2.13-2.13H91.827a2.133,2.133,0,0,1,2.13,2.13v2.85A2.132,2.132,0,0,1,91.827,80.166ZM80.306,75.028a.158.158,0,0,0-.157.158v2.85a.157.157,0,0,0,.157.157H91.827a.157.157,0,0,0,.157-.157v-2.85a.158.158,0,0,0-.157-.158Z"/>
            </g>
          </g>
          <g id="Grupo_97283" data-name="Grupo 97283">
            <g id="Grupo_97282" data-name="Grupo 97282">
              <path id="Trazado_124882" data-name="Trazado 124882" d="M91.827,89.1H80.306a2.133,2.133,0,0,1-2.13-2.13v-2.85a2.132,2.132,0,0,1,2.13-2.13H91.827a2.132,2.132,0,0,1,2.13,2.13v2.85A2.133,2.133,0,0,1,91.827,89.1ZM80.306,83.959a.157.157,0,0,0-.157.157v2.85a.158.158,0,0,0,.157.158H91.827a.158.158,0,0,0,.157-.158v-2.85a.157.157,0,0,0-.157-.157Z"/>
            </g>
          </g>
          <g id="Grupo_97286" data-name="Grupo 97286">
            <g id="Grupo_97285" data-name="Grupo 97285">
              <g id="Grupo_97284" data-name="Grupo 97284">
                <path id="Trazado_124883" data-name="Trazado 124883" d="M91.827,71.235H80.306a2.132,2.132,0,0,1-2.13-2.13v-2.85a2.132,2.132,0,0,1,2.13-2.13H91.827a2.132,2.132,0,0,1,2.13,2.13v2.85A2.132,2.132,0,0,1,91.827,71.235ZM80.306,66.1a.157.157,0,0,0-.157.157V69.1a.157.157,0,0,0,.157.157H91.827a.157.157,0,0,0,.157-.157v-2.85a.157.157,0,0,0-.157-.157Z"/>
              </g>
            </g>
          </g>
          <g id="Grupo_97288" data-name="Grupo 97288">
            <g id="Grupo_97287" data-name="Grupo 97287">
              <path id="Trazado_124884" data-name="Trazado 124884" d="M71.9,60.87H53.012a2.5,2.5,0,0,1-2.495-2.494V52.523a2.5,2.5,0,0,1,2.495-2.495H73.025a.986.986,0,0,1,0,1.973H53.012a.523.523,0,0,0-.522.522v5.853a.522.522,0,0,0,.522.522H71.9a.986.986,0,1,1,0,1.973Z"/>
            </g>
          </g>
          <g id="Grupo_97290" data-name="Grupo 97290">
            <g id="Grupo_97289" data-name="Grupo 97289">
              <path id="Trazado_124885" data-name="Trazado 124885" d="M71.9,74.482H53.012a2.5,2.5,0,0,1-2.495-2.494V66.134a2.5,2.5,0,0,1,2.495-2.495H71.94a.986.986,0,0,1,0,1.973H53.012a.523.523,0,0,0-.522.522v5.853a.522.522,0,0,0,.522.522H71.9a.986.986,0,0,1,0,1.973Z"/>
            </g>
          </g>
          <g id="Grupo_97292" data-name="Grupo 97292">
            <g id="Grupo_97291" data-name="Grupo 97291">
              <path id="Trazado_124886" data-name="Trazado 124886" d="M71.842,88.093H53.012A2.5,2.5,0,0,1,50.518,85.6V79.746a2.5,2.5,0,0,1,2.495-2.495H71.879a.986.986,0,0,1,0,1.973H53.012a.523.523,0,0,0-.522.522V85.6a.522.522,0,0,0,.522.522H71.842a.986.986,0,0,1,0,1.973Z"/>
            </g>
          </g>
        </g>
      </g>
    </g>
  </g>
</svg>
