<svg xmlns="http://www.w3.org/2000/svg" xmlns:xlink="http://www.w3.org/1999/xlink" width="32" height="32" viewBox="0 0 32 32">
  <defs>
    <clipPath id="clip-path">
      <rect id="Rectángulo_35304" data-name="Rectángulo 35304" width="32" height="32" transform="translate(-4571 1337)" fill="#26d19e"/>
    </clipPath>
  </defs>
  <g id="Enmascarar_grupo_404" data-name="Enmascarar grupo 404" transform="translate(4571 -1337)" clip-path="url(#clip-path)">
    <g id="robot" transform="translate(-4571 1337)">
      <g id="Grupo_98936" data-name="Grupo 98936">
        <path id="Trazado_126212" data-name="Trazado 126212" d="M20.155,29.106l1.225-.866-.333-2.779-1.287-.7-1.414.906.31,2.583C18.7,28.244,20.155,29.106,20.155,29.106Z" fill="#9d9696" fill-rule="evenodd"/>
      </g>
      <g id="Grupo_98937" data-name="Grupo 98937">
        <path id="Trazado_126213" data-name="Trazado 126213" d="M13.189,28.248l.3-2.5-1.3-1.01-1.382.628-.345,2.879,1.647.562Z" fill="#9d9696" fill-rule="evenodd"/>
      </g>
      <g id="Grupo_98938" data-name="Grupo 98938">
        <path id="Trazado_126214" data-name="Trazado 126214" d="M13.489,25.743a2.16,2.16,0,0,0,1.051-2,2.185,2.185,0,0,0-.192-.759l-1.962-1.244L10.425,22.98a2.161,2.161,0,0,0,3.065,2.762Z" fill="#fdb440" fill-rule="evenodd"/>
      </g>
      <g id="Grupo_98939" data-name="Grupo 98939">
        <path id="Trazado_126215" data-name="Trazado 126215" d="M19.715,26.04a2.161,2.161,0,0,0,1.817-3.06l-1.969-1.207L17.608,22.98a2.16,2.16,0,0,0,.737,2.684,2.13,2.13,0,0,0,1.369.376Z" fill="#fdb440" fill-rule="evenodd"/>
      </g>
      <g id="Grupo_98940" data-name="Grupo 98940">
        <path id="Trazado_126216" data-name="Trazado 126216" d="M13.489,25.743a2.16,2.16,0,0,0,1.051-2,2.185,2.185,0,0,0-.192-.759H10.425a2.141,2.141,0,0,0-.192.723h2.22c.569,0,.831.088.877.759a2.173,2.173,0,0,1-.179,1.017,2.143,2.143,0,0,1-.326.521,2.14,2.14,0,0,0,.664-.258Z" fill="#fe9737" fill-rule="evenodd"/>
      </g>
      <g id="Grupo_98941" data-name="Grupo 98941">
        <path id="Trazado_126217" data-name="Trazado 126217" d="M20.673,25.743a2.162,2.162,0,0,0,.859-2.762H17.608a2.1,2.1,0,0,0-.19.723h2.218c.571,0,.832.088.877.759A2.17,2.17,0,0,1,20.01,26,2.113,2.113,0,0,0,20.673,25.743Z" fill="#fe9737" fill-rule="evenodd"/>
      </g>
      <g id="Grupo_98942" data-name="Grupo 98942">
        <path id="Trazado_126218" data-name="Trazado 126218" d="M9.514,12.027l6.512,1.6,6.462-1.6A6.353,6.353,0,0,0,16,5.278a6.353,6.353,0,0,0-6.487,6.75Z" fill="#eee1dc" fill-rule="evenodd"/>
      </g>
      <g id="Grupo_98943" data-name="Grupo 98943">
        <path id="Trazado_126219" data-name="Trazado 126219" d="M13.817,10.292a1.075,1.075,0,1,0-1.074-1.074A1.075,1.075,0,0,0,13.817,10.292Z" fill="#60b7ff" fill-rule="evenodd"/>
      </g>
      <g id="Grupo_98944" data-name="Grupo 98944">
        <path id="Trazado_126220" data-name="Trazado 126220" d="M18.188,10.292a1.075,1.075,0,1,0-1.076-1.074A1.075,1.075,0,0,0,18.188,10.292Z" fill="#60b7ff" fill-rule="evenodd"/>
      </g>
      <g id="Grupo_98945" data-name="Grupo 98945">
        <path id="Trazado_126221" data-name="Trazado 126221" d="M6.653,15.724,3.368,12.439,3.5,10.987l1.462-.145L7.953,13.83,7.6,15.092Z" fill="#9d9696" fill-rule="evenodd"/>
      </g>
      <g id="Grupo_98946" data-name="Grupo 98946">
        <path id="Trazado_126222" data-name="Trazado 126222" d="M8.463,17.611a2.161,2.161,0,0,1-2.014-2.089,2.073,2.073,0,0,1,.005-.211,2.16,2.16,0,0,1,3.059-1.817l1.355,2.028-1.355,1.9a2.158,2.158,0,0,1-1.051.193Z" fill="#fdb440" fill-rule="evenodd"/>
      </g>
      <g id="Grupo_98947" data-name="Grupo 98947">
        <path id="Trazado_126223" data-name="Trazado 126223" d="M3.069,12.462a1.919,1.919,0,1,1,1.919-1.919,1.827,1.827,0,0,1-.023.3,1.921,1.921,0,0,1-1.6,1.6,1.823,1.823,0,0,1-.3.023Z" fill="#fdb440" fill-rule="evenodd"/>
      </g>
      <g id="Grupo_98948" data-name="Grupo 98948">
        <path id="Trazado_126224" data-name="Trazado 126224" d="M18.881,14.918H17.145a.472.472,0,1,1,0-.945h1.736a.472.472,0,0,1,0,.945Z"/>
      </g>
      <g id="Grupo_98949" data-name="Grupo 98949">
        <path id="Trazado_126225" data-name="Trazado 126225" d="M14.907,14.918H13.171a.472.472,0,0,1,0-.945h1.736a.472.472,0,1,1,0,.945Z"/>
      </g>
      <g id="Grupo_98950" data-name="Grupo 98950">
        <path id="Trazado_126226" data-name="Trazado 126226" d="M13.958,31.528a.626.626,0,0,0,.623-.625V29.782a1.546,1.546,0,0,0-1.393-1.534c-.048,0-.1-.007-.147-.007H9.786a1.546,1.546,0,0,0-1.539,1.541V30.9a.626.626,0,0,0,.623.625Z" fill="#fdb440" fill-rule="evenodd"/>
      </g>
      <g id="Grupo_98951" data-name="Grupo 98951">
        <path id="Trazado_126227" data-name="Trazado 126227" d="M17.886,31.528h5.089A.626.626,0,0,0,23.6,30.9V29.782a1.546,1.546,0,0,0-1.539-1.541H18.8c-.05,0-.1,0-.147.007a1.546,1.546,0,0,0-1.393,1.534V30.9A.625.625,0,0,0,17.886,31.528Z" fill="#fdb440" fill-rule="evenodd"/>
      </g>
      <g id="Grupo_98952" data-name="Grupo 98952">
        <path id="Trazado_126228" data-name="Trazado 126228" d="M25.348,15.724l3.285-3.285L28.5,10.987l-1.462-.145L24.049,13.83l.353,1.262Z" fill="#9d9696" fill-rule="evenodd"/>
      </g>
      <g id="Grupo_98953" data-name="Grupo 98953">
        <path id="Trazado_126229" data-name="Trazado 126229" d="M23.537,17.611a2.16,2.16,0,0,0,2.014-2.089c0-.07,0-.141,0-.211a2.161,2.161,0,0,0-2.3-2.011,2.136,2.136,0,0,0-.757.193l-1.357,2.028,1.357,1.9a2.147,2.147,0,0,0,1.049.193Z" fill="#fdb440" fill-rule="evenodd"/>
      </g>
      <g id="Grupo_98954" data-name="Grupo 98954">
        <path id="Trazado_126230" data-name="Trazado 126230" d="M28.932,12.462a1.919,1.919,0,1,0-1.919-1.919,2.046,2.046,0,0,0,.021.3,1.921,1.921,0,0,0,1.6,1.6,1.82,1.82,0,0,0,.3.023Z" fill="#fdb440" fill-rule="evenodd"/>
      </g>
      <g id="Grupo_98955" data-name="Grupo 98955">
        <path id="Trazado_126231" data-name="Trazado 126231" d="M14.349,22.98h7.183a.958.958,0,0,0,.956-.954v-10H9.514V22.071a.913.913,0,0,0,.911.909Z" fill="#cdbeb9" fill-rule="evenodd"/>
      </g>
      <g id="Grupo_98956" data-name="Grupo 98956">
        <path id="Trazado_126232" data-name="Trazado 126232" d="M23.537,17.611a2.16,2.16,0,0,0,2.014-2.089c0-.07,0-.141,0-.211a2.161,2.161,0,0,0-2.3-2.011,2.2,2.2,0,0,0-.655.149,2.267,2.267,0,0,1,.447.165,2.2,2.2,0,0,1,.687.541,2.153,2.153,0,0,1,.5,1.248,1.655,1.655,0,0,1,0,.211.531.531,0,0,1,0,.054,2.16,2.16,0,0,1-1.355,1.887,2.142,2.142,0,0,0,.662.057Z" fill="#fe9737" fill-rule="evenodd"/>
      </g>
      <g id="Grupo_98957" data-name="Grupo 98957">
        <path id="Trazado_126233" data-name="Trazado 126233" d="M4.965,10.842a1.821,1.821,0,0,0,.023-.3A1.919,1.919,0,0,0,3.069,8.624a1.94,1.94,0,0,0-.639.109,1.915,1.915,0,0,1,1.28,1.81,1.983,1.983,0,0,1-.047.428,1.913,1.913,0,0,1-.684,1.08,1.889,1.889,0,0,1-.55.3,1.894,1.894,0,0,0,.639.109,1.827,1.827,0,0,0,.3-.023,1.92,1.92,0,0,0,1.6-1.6Z" fill="#fe9737" fill-rule="evenodd"/>
      </g>
      <g id="Grupo_98958" data-name="Grupo 98958">
        <path id="Trazado_126234" data-name="Trazado 126234" d="M30.828,10.851a2.063,2.063,0,0,0,.021-.3A1.915,1.915,0,0,0,28.93,8.633a1.877,1.877,0,0,0-.637.109,1.916,1.916,0,0,1,1.28,1.81,1.921,1.921,0,0,1-.256.958,1.931,1.931,0,0,1-1.024.852,1.921,1.921,0,0,0,.637.109,2.043,2.043,0,0,0,.3-.023,1.922,1.922,0,0,0,1.6-1.6Z" fill="#fe9737" fill-rule="evenodd"/>
      </g>
      <g id="Grupo_98959" data-name="Grupo 98959">
        <path id="Trazado_126235" data-name="Trazado 126235" d="M19,20.2a.5.5,0,0,0,.5-.5v-2.3a.5.5,0,0,0-.5-.5H13.049a.5.5,0,0,0-.5.5v2.3a.5.5,0,0,0,.5.5Z" fill="#60b7ff" fill-rule="evenodd"/>
      </g>
      <g id="Grupo_98960" data-name="Grupo 98960">
        <path id="Trazado_126236" data-name="Trazado 126236" d="M9.514,15.5V13.493a2.156,2.156,0,0,0-1.249-.17v4.265c.064.011.132.018.2.023a2.158,2.158,0,0,0,1.051-.193V15.5Z" fill="#fe9737" fill-rule="evenodd"/>
      </g>
      <g id="Grupo_98961" data-name="Grupo 98961">
        <path id="Trazado_126237" data-name="Trazado 126237" d="M23.6,30.9V29.782a1.546,1.546,0,0,0-1.539-1.541H20.429a1.546,1.546,0,0,1,1.541,1.541V30.9a.627.627,0,0,1-.625.625h1.629A.626.626,0,0,0,23.6,30.9Z" fill="#fe9737" fill-rule="evenodd"/>
      </g>
      <g id="Grupo_98962" data-name="Grupo 98962">
        <path id="Trazado_126238" data-name="Trazado 126238" d="M14.581,30.9V29.782a1.546,1.546,0,0,0-1.539-1.541H11.413a1.546,1.546,0,0,1,1.541,1.541V30.9a.627.627,0,0,1-.625.625h1.629a.626.626,0,0,0,.623-.625Z" fill="#fe9737" fill-rule="evenodd"/>
      </g>
      <g id="Grupo_98963" data-name="Grupo 98963">
        <path id="Trazado_126239" data-name="Trazado 126239" d="M22.488,12.027A6.353,6.353,0,0,0,16,5.278a6.9,6.9,0,0,0-.961.066,6.326,6.326,0,0,1,5.528,6.683Z" fill="#cdbeb9" fill-rule="evenodd"/>
      </g>
      <g id="Grupo_98964" data-name="Grupo 98964">
        <path id="Trazado_126240" data-name="Trazado 126240" d="M22.488,22.026v-10H20.567V22.98h.965a.958.958,0,0,0,.956-.954Z" fill="#9d9696" fill-rule="evenodd"/>
      </g>
      <g id="Grupo_98965" data-name="Grupo 98965">
        <path id="Trazado_126241" data-name="Trazado 126241" d="M16,3.292A1.41,1.41,0,1,0,14.59,1.881,1.41,1.41,0,0,0,16,3.292Z" fill="#fd8087" fill-rule="evenodd"/>
      </g>
      <g id="Grupo_98966" data-name="Grupo 98966">
        <path id="Trazado_126242" data-name="Trazado 126242" d="M16,3.292a1.41,1.41,0,0,0,0-2.82,1.394,1.394,0,0,0-.5.089A1.41,1.41,0,0,1,15.288,3.1,1.409,1.409,0,0,0,16,3.292Z" fill="#fd4755" fill-rule="evenodd"/>
      </g>
      <g id="Grupo_98967" data-name="Grupo 98967">
        <path id="Trazado_126243" data-name="Trazado 126243" d="M13.189,28.248l.3-2.5a2.137,2.137,0,0,1-.664.258,1.965,1.965,0,0,1-.294.039,1.99,1.99,0,0,1-.474-.02l-.3,2.22h1.289c.048,0,.1,0,.147.007Z" fill="#746e6e" fill-rule="evenodd"/>
      </g>
      <g id="Grupo_98968" data-name="Grupo 98968">
        <path id="Trazado_126244" data-name="Trazado 126244" d="M21.38,28.24l-.333-2.779a2.125,2.125,0,0,1-1.249.571l.3,2.207H21.38Z" fill="#746e6e" fill-rule="evenodd"/>
      </g>
      <g id="Grupo_98969" data-name="Grupo 98969">
        <path id="Trazado_126245" data-name="Trazado 126245" d="M19,16.909H13.049a.5.5,0,0,0-.5.5v1.151a.5.5,0,0,1,.5-.5H19a.5.5,0,0,1,.5.5V17.405A.5.5,0,0,0,19,16.909Z" fill="#22a6fe" fill-rule="evenodd"/>
      </g>
      <g id="Grupo_98970" data-name="Grupo 98970">
        <path id="Trazado_126246" data-name="Trazado 126246" d="M15.365,9.218a1.547,1.547,0,1,0-1.548,1.546A1.55,1.55,0,0,0,15.365,9.218Zm-2.15,0a.6.6,0,1,1,.6.6A.6.6,0,0,1,13.215,9.218Z"/>
        <path id="Trazado_126247" data-name="Trazado 126247" d="M31.967,6.493c0-.038,0-.078,0-.121V5.188a.859.859,0,0,0-.211-.645.886.886,0,0,0-.689-.2h-.425a.472.472,0,1,0,0,.945h.38V6.371c0,.048,0,.094,0,.137,0,.226,0,.26-.062.351L29.927,8.369a2.381,2.381,0,0,0-1.991,0L26.9,6.859c-.062-.09-.065-.125-.062-.351,0-.043,0-.089,0-.137V5.288h.38a.472.472,0,1,0,0-.945H26.8a.887.887,0,0,0-.689.2.859.859,0,0,0-.211.645V6.372c0,.043,0,.083,0,.121a1.374,1.374,0,0,0,.227.9l1.05,1.532a2.382,2.382,0,0,0-.631,1.617q0,.062,0,.123l-2.3,2.3a2.617,2.617,0,0,0-1.03-.136c-.085.006-.17.016-.254.03v-.831a6.9,6.9,0,0,0-3.687-6.455,7.191,7.191,0,0,0-2.8-.749V3.7a1.883,1.883,0,1,0-.945,0V4.825a7.1,7.1,0,0,0-3.746,1.327.472.472,0,0,0,.56.761,6.363,6.363,0,0,1,6.5-.5A5.782,5.782,0,0,1,22,11.555H10a6.48,6.48,0,0,1,.944-3.14.472.472,0,0,0-.8-.5,7.6,7.6,0,0,0-1.1,4.115v.831c-.084-.014-.169-.024-.255-.03a2.617,2.617,0,0,0-1.031.136l-2.3-2.3q0-.061,0-.123a2.382,2.382,0,0,0-.631-1.617L5.88,7.393a1.374,1.374,0,0,0,.226-.9c0-.037,0-.076,0-.118V5.188a.859.859,0,0,0-.211-.645.886.886,0,0,0-.689-.2H4.779a.472.472,0,1,0,0,.945H5.16V6.371c0,.047,0,.091,0,.132,0,.227,0,.265-.062.356L4.066,8.37a2.382,2.382,0,0,0-1.991,0L1.04,6.861C.977,6.769.973,6.731.977,6.5c0-.042,0-.086,0-.132V5.288H1.36a.472.472,0,1,0,0-.945H.933a.886.886,0,0,0-.689.2.859.859,0,0,0-.211.645V6.372c0,.042,0,.081,0,.118a1.375,1.375,0,0,0,.227.9L1.31,8.925a2.39,2.39,0,0,0,1.759,4.009q.062,0,.123,0l2.8,2.8a2.632,2.632,0,0,0,2.44,2.352q.088.006.175.006a2.652,2.652,0,0,0,.434-.036v4.019a1.383,1.383,0,0,0,.777,1.242,2.648,2.648,0,0,0-.058.75,2.613,2.613,0,0,0,.556,1.448l-.271,2.257H9.786a2.015,2.015,0,0,0-2.012,2.014V30.9a1.1,1.1,0,0,0,1.1,1.1h5.089a1.1,1.1,0,0,0,1.1-1.1V29.782a2.017,2.017,0,0,0-1.345-1.9l.224-1.869a2.631,2.631,0,0,0,1.079-2.3c-.006-.086-.016-.171-.03-.256h1.993a2.649,2.649,0,0,0-.031.61,2.615,2.615,0,0,0,.9,1.805l.062.052.235,1.962a2.017,2.017,0,0,0-1.345,1.9V30.9a1.1,1.1,0,0,0,1.1,1.1h5.089a1.1,1.1,0,0,0,1.1-1.1V29.782a2.015,2.015,0,0,0-2.012-2.014H21.8l-.257-2.142a2.626,2.626,0,0,0,.6-2.31,1.428,1.428,0,0,0,.82-1.29V18.053a2.646,2.646,0,0,0,.432.036c.059,0,.117,0,.176-.006a2.634,2.634,0,0,0,2.441-2.352l2.8-2.8q.061,0,.123,0a2.391,2.391,0,0,0,1.759-4.009L31.74,7.395a1.375,1.375,0,0,0,.228-.9Zm-16.9-4.611A.937.937,0,1,1,16,2.82.939.939,0,0,1,15.063,1.881ZM22.016,12.5v9.527a.489.489,0,0,1-.484.482H10.425a.438.438,0,0,1-.439-.437V12.5h12.03ZM1.623,10.543A1.446,1.446,0,0,1,2.2,9.387l.006,0a1.446,1.446,0,1,1-.584,1.161ZM5.159,11.7l1.747,1.747a2.636,2.636,0,0,0-.765,1.093L4.23,12.633a2.408,2.408,0,0,0,.929-.929ZM8.495,17.14a1.687,1.687,0,0,1-1.572-1.617c0-.005,0-.01,0-.016q0-.082,0-.164a1.69,1.69,0,0,1,1.683-1.575c.038,0,.076,0,.115,0a1.671,1.671,0,0,1,.318.052v3.265A1.68,1.68,0,0,1,8.495,17.14Zm5.614,12.642V30.9a.154.154,0,0,1-.151.153H8.869a.154.154,0,0,1-.151-.153V29.782a1.069,1.069,0,0,1,1.067-1.069h3.256a1.069,1.069,0,0,1,1.067,1.069ZM12.77,27.768H11l.185-1.542a2.608,2.608,0,0,0,1.2.291q.091,0,.182-.006a2.64,2.64,0,0,0,.364-.051Zm1.3-4a1.687,1.687,0,0,1-2.793,1.385q-.062-.055-.119-.114l-.009-.01a1.689,1.689,0,0,1-.393-1.58h3.261A1.69,1.69,0,0,1,14.069,23.771Zm7.133-.319a1.671,1.671,0,0,1,.053.319,1.688,1.688,0,0,1-2.645,1.5l-.011-.007a1.731,1.731,0,0,1-.138-.108,1.687,1.687,0,0,1-.521-1.7H21.2Zm1.924,6.329V30.9a.154.154,0,0,1-.151.153H17.886a.154.154,0,0,1-.151-.153V29.782A1.069,1.069,0,0,1,18.8,28.713h3.256A1.069,1.069,0,0,1,23.125,29.782Zm-4.052-2.014-.16-1.333a2.623,2.623,0,0,0,.651.082q.09,0,.182-.006a2.621,2.621,0,0,0,.922-.235l.179,1.492H19.074ZM23.505,17.14a1.692,1.692,0,0,1-.545-.052V13.823a1.661,1.661,0,0,1,.317-.052,1.691,1.691,0,0,1,1.8,1.571q.006.083,0,.165c0,.005,0,.01,0,.015a1.689,1.689,0,0,1-1.573,1.618Zm2.355-2.6a2.636,2.636,0,0,0-.766-1.093L26.842,11.7a2.409,2.409,0,0,0,.929.929Zm3.071-2.554a1.447,1.447,0,1,1,1.445-1.447A1.448,1.448,0,0,1,28.932,11.99Z"/>
        <path id="Trazado_126248" data-name="Trazado 126248" d="M19.736,9.218a1.548,1.548,0,1,0-1.548,1.546A1.55,1.55,0,0,0,19.736,9.218Zm-2.152,0a.6.6,0,1,1,.6.6A.6.6,0,0,1,17.585,9.218Z"/>
        <path id="Trazado_126249" data-name="Trazado 126249" d="M13.049,20.676h1.878a.472.472,0,1,0,0-.945H13.049a.026.026,0,0,1-.024-.024v-2.3a.026.026,0,0,1,.024-.024H19a.026.026,0,0,1,.024.024v2.3a.026.026,0,0,1-.024.024H17.177a.472.472,0,0,0,0,.945H19a.969.969,0,0,0,.968-.968v-2.3A.969.969,0,0,0,19,16.437H13.049a.969.969,0,0,0-.968.968v2.3a.969.969,0,0,0,.968.968Z"/>
        <path id="Trazado_126250" data-name="Trazado 126250" d="M12.553,14.825H13.8a.472.472,0,1,0,0-.945H12.553a.472.472,0,0,0,0,.945Z"/>
        <path id="Trazado_126251" data-name="Trazado 126251" d="M18.253,14.825H19.5a.472.472,0,0,0,0-.945H18.253a.472.472,0,0,0,0,.945Z"/>
      </g>
    </g>
  </g>
</svg>
