<svg xmlns="http://www.w3.org/2000/svg" xmlns:xlink="http://www.w3.org/1999/xlink" width="32" height="32" viewBox="0 0 32 32">
  <defs>
    <clipPath id="clip-path">
      <rect id="Rectángulo_35305" data-name="Rectángulo 35305" width="32" height="32" transform="translate(-4571 1380)" fill="#26d19e"/>
    </clipPath>
  </defs>
  <g id="Enmascarar_grupo_405" data-name="Enmascarar grupo 405" transform="translate(4571 -1380)" clip-path="url(#clip-path)">
    <g id="instrucciones" transform="translate(-4571 1380)">
      <g id="Grupo_98976" data-name="Grupo 98976">
        <g id="Grupo_98975" data-name="Grupo 98975">
          <path id="Trazado_126252" data-name="Trazado 126252" d="M22.167,26.275a3.694,3.694,0,1,1,3.283-5.386V1.639A1.171,1.171,0,0,0,24.279.469H3.519A1.171,1.171,0,0,0,2.348,1.639V30.361a1.171,1.171,0,0,0,1.171,1.171h20.76a1.171,1.171,0,0,0,1.171-1.171V24.274a3.693,3.693,0,0,1-3.283,2Z" fill="#a2c7f8"/>
          <path id="Trazado_126253" data-name="Trazado 126253" d="M5.625,30.361V29.58H4.612a.313.313,0,0,1-.313-.312V2.732a.313.313,0,0,1,.313-.313H5.625V1.639A1.171,1.171,0,0,1,6.8.469H3.519A1.171,1.171,0,0,0,2.348,1.639V30.361a1.171,1.171,0,0,0,1.171,1.171H6.8a1.171,1.171,0,0,1-1.171-1.171Z" fill="#8db3df"/>
          <path id="Trazado_126254" data-name="Trazado 126254" d="M22.167,26.275A3.694,3.694,0,1,1,23.5,19.136V2.732a.313.313,0,0,0-.312-.313h-4.9a.312.312,0,0,0-.29.2l-.324.8a.625.625,0,0,1-.58.392H10.708a.625.625,0,0,1-.579-.39L9.8,2.615a.313.313,0,0,0-.29-.195h-4.9a.313.313,0,0,0-.313.313V29.268a.313.313,0,0,0,.313.313H23.186a.313.313,0,0,0,.313-.312V26.027a3.684,3.684,0,0,1-1.332.248Z" fill="#fff"/>
          <g id="Grupo_98972" data-name="Grupo 98972">
            <g id="Grupo_98971" data-name="Grupo 98971">
              <path id="Trazado_126255" data-name="Trazado 126255" d="M6.875,29.268V2.732a.313.313,0,0,1,.313-.313H4.612a.313.313,0,0,0-.313.313V29.268a.313.313,0,0,0,.313.313H7.188a.313.313,0,0,1-.313-.313Z" fill="#eaf6ff"/>
            </g>
          </g>
          <g id="Grupo_98973" data-name="Grupo 98973">
            <path id="Trazado_126256" data-name="Trazado 126256" d="M20.229,27.563H7.563a.334.334,0,0,0-.334.334V29.58H20.563V27.9a.334.334,0,0,0-.334-.334Z" fill="#0593fc"/>
          </g>
          <g id="Grupo_98974" data-name="Grupo 98974">
            <path id="Trazado_126257" data-name="Trazado 126257" d="M10.188,27.563H7.563a.334.334,0,0,0-.334.334V29.58H9.854V27.9a.334.334,0,0,1,.334-.334Z" fill="#0182fc"/>
          </g>
        </g>
      </g>
      <g id="Grupo_98977" data-name="Grupo 98977">
        <path id="Trazado_126258" data-name="Trazado 126258" d="M29.652,20.2l-1.214,2.759L27.224,20.2V3.225a1.214,1.214,0,1,1,2.428,0Z" fill="#a2c7f8"/>
      </g>
      <g id="Grupo_98978" data-name="Grupo 98978">
        <path id="Trazado_126259" data-name="Trazado 126259" d="M28.509,20.2V3.225A1.212,1.212,0,0,1,29.081,2.2a1.212,1.212,0,0,0-1.857,1.029V20.2l1.214,2.759.643-1.461Z" fill="#8db3df"/>
      </g>
      <g id="Grupo_98982" data-name="Grupo 98982">
        <g id="Grupo_98979" data-name="Grupo 98979">
          <path id="Trazado_126260" data-name="Trazado 126260" d="M9.623,10.111H8.2a.187.187,0,0,1-.187-.188V8.5A.187.187,0,0,1,8.2,8.31H9.623A.187.187,0,0,1,9.81,8.5V9.924A.187.187,0,0,1,9.623,10.111Z" fill="#fed402"/>
        </g>
        <g id="Grupo_98980" data-name="Grupo 98980">
          <path id="Trazado_126261" data-name="Trazado 126261" d="M9.623,14.078H8.2a.187.187,0,0,1-.187-.187V12.464a.187.187,0,0,1,.188-.187H9.623a.187.187,0,0,1,.188.188V13.89A.187.187,0,0,1,9.623,14.078Z" fill="#fed402"/>
        </g>
        <g id="Grupo_98981" data-name="Grupo 98981">
          <path id="Trazado_126262" data-name="Trazado 126262" d="M9.623,18.044H8.2a.187.187,0,0,1-.187-.187V16.43a.187.187,0,0,1,.188-.187H9.623a.187.187,0,0,1,.188.188v1.426A.187.187,0,0,1,9.623,18.044Z" fill="#fed402"/>
        </g>
      </g>
      <g id="Grupo_98985" data-name="Grupo 98985">
        <g id="Grupo_98983" data-name="Grupo 98983">
          <circle id="Elipse_5919" data-name="Elipse 5919" cx="3.694" cy="3.694" r="3.694" transform="translate(18.473 18.888)" fill="#46cc8d"/>
        </g>
        <g id="Grupo_98984" data-name="Grupo 98984">
          <path id="Trazado_126263" data-name="Trazado 126263" d="M21.063,22.582a3.7,3.7,0,0,1,2.4-3.46,3.694,3.694,0,1,0,0,6.92A3.7,3.7,0,0,1,21.063,22.582Z" fill="#08b865"/>
        </g>
      </g>
      <g id="Grupo_98986" data-name="Grupo 98986">
        <circle id="Elipse_5920" data-name="Elipse 5920" cx="0.469" cy="0.469" r="0.469" transform="translate(15.875 2)"/>
        <circle id="Elipse_5921" data-name="Elipse 5921" cx="0.469" cy="0.469" r="0.469" transform="translate(14.625 2)"/>
        <circle id="Elipse_5922" data-name="Elipse 5922" cx="0.469" cy="0.469" r="0.469" transform="translate(10.875 2)"/>
        <path id="Trazado_126264" data-name="Trazado 126264" d="M29.652,5.531a.469.469,0,0,0,.469-.469V3.225a1.683,1.683,0,0,0-3.366,0V20.2a.47.47,0,0,0,.04.189l1.214,2.759a.469.469,0,0,0,.858,0l1.214-2.759a.469.469,0,0,0,.04-.189V7.25a.469.469,0,1,0-.938,0V20.1L28.438,21.8,27.693,20.1V3.225a.745.745,0,0,1,1.491,0V5.063a.469.469,0,0,0,.469.469Z"/>
        <path id="Trazado_126265" data-name="Trazado 126265" d="M18.942,5.875a.469.469,0,0,0-.469-.469H9.325a.469.469,0,0,0,0,.938h9.148A.469.469,0,0,0,18.942,5.875Z"/>
        <path id="Trazado_126266" data-name="Trazado 126266" d="M19.789,7.841H12.008a.469.469,0,1,0,0,.938h7.781a.469.469,0,1,0,0-.938Z"/>
        <path id="Trazado_126267" data-name="Trazado 126267" d="M12.008,10.58h5.62a.469.469,0,0,0,0-.938h-5.62a.469.469,0,0,0,0,.938Z"/>
        <path id="Trazado_126268" data-name="Trazado 126268" d="M19.789,11.807H12.008a.469.469,0,1,0,0,.938h7.781a.469.469,0,1,0,0-.938Z"/>
        <path id="Trazado_126269" data-name="Trazado 126269" d="M12.008,14.546h5.62a.469.469,0,0,0,0-.938h-5.62a.469.469,0,0,0,0,.938Z"/>
        <path id="Trazado_126270" data-name="Trazado 126270" d="M10.279,8.5a.657.657,0,0,0-.656-.656H8.2A.657.657,0,0,0,7.54,8.5V9.924a.657.657,0,0,0,.656.656H9.623a.657.657,0,0,0,.656-.656ZM9.341,9.643H8.477V8.779h.864Z"/>
        <path id="Trazado_126271" data-name="Trazado 126271" d="M10.279,12.464a.657.657,0,0,0-.656-.656H8.2a.657.657,0,0,0-.656.656V13.89a.657.657,0,0,0,.656.656H9.623a.657.657,0,0,0,.656-.656Zm-.938,1.145H8.477v-.864h.864Z"/>
        <path id="Trazado_126272" data-name="Trazado 126272" d="M9.623,15.774H8.2a.657.657,0,0,0-.656.656v1.426a.657.657,0,0,0,.656.656H9.623a.657.657,0,0,0,.656-.656V16.43A.657.657,0,0,0,9.623,15.774Zm-.281,1.8H8.477v-.864h.864Z"/>
        <path id="Trazado_126273" data-name="Trazado 126273" d="M20.258,16.242a.469.469,0,0,0-.469-.469H12.008a.469.469,0,1,0,0,.938h7.781A.469.469,0,0,0,20.258,16.242Z"/>
        <path id="Trazado_126274" data-name="Trazado 126274" d="M12.008,17.575a.469.469,0,1,0,0,.938h5.62a.469.469,0,0,0,0-.938Z"/>
        <path id="Trazado_126275" data-name="Trazado 126275" d="M25.918,20.779V1.639A1.641,1.641,0,0,0,24.279,0H3.519a1.641,1.641,0,0,0-1.64,1.639V30.361A1.641,1.641,0,0,0,3.519,32H7.625a.469.469,0,1,0,0-.938H3.519a.7.7,0,0,1-.7-.7V1.639a.7.7,0,0,1,.7-.7h20.76a.7.7,0,0,1,.7.7V19.518a4.177,4.177,0,0,0-1.014-.689v-2.7a.469.469,0,1,0-.938,0V18.51A4.16,4.16,0,0,0,18.6,20.437H8.009a.469.469,0,1,0,0,.938H18.184a4.137,4.137,0,0,0-.165.884H8.009a.469.469,0,1,0,0,.938H18.05a4.122,4.122,0,0,0,.235.884H8.009a.469.469,0,1,0,0,.938H18.795a4.157,4.157,0,0,0,4.235,1.636v2.458h-2V27.9a.8.8,0,0,0-.8-.8H7.563a.8.8,0,0,0-.8.8v1.215H4.768V2.889H9.406L9.7,3.6a1.089,1.089,0,0,0,1.013.682H17.1A1.089,1.089,0,0,0,18.112,3.6l.284-.707H23.03V13.938a.469.469,0,1,0,.938,0V2.732a.782.782,0,0,0-.781-.781h-4.9a.778.778,0,0,0-.725.49l-.324.8a.156.156,0,0,1-.145.1H10.708a.155.155,0,0,1-.145-.1l-.329-.808a.778.778,0,0,0-.724-.487h-4.9a.782.782,0,0,0-.781.781V29.268a.782.782,0,0,0,.781.781H23.186a.782.782,0,0,0,.781-.781V26.334a4.178,4.178,0,0,0,1.014-.689v4.715a.7.7,0,0,1-.7.7H9.813a.469.469,0,1,0,0,.938H24.279a1.641,1.641,0,0,0,1.639-1.639V24.384a4.159,4.159,0,0,0,0-3.606Zm-5.825,8.333H7.7v-1.08h12.4Zm2.073-3.3a3.225,3.225,0,1,1,3.225-3.225A3.229,3.229,0,0,1,22.167,25.807Z"/>
        <path id="Trazado_126276" data-name="Trazado 126276" d="M23.391,21.57,21.962,23l-1.018-1.018a.469.469,0,1,0-.663.663l1.35,1.35a.469.469,0,0,0,.663,0l1.761-1.761a.469.469,0,0,0-.663-.663Z"/>
      </g>
    </g>
  </g>
</svg>
