<svg xmlns="http://www.w3.org/2000/svg" xmlns:xlink="http://www.w3.org/1999/xlink" width="190" height="134" viewBox="0 0 190 134">
  <defs>
    <clipPath id="clip-path">
      <rect id="Rectángulo_35682" data-name="Rectángulo 35682" width="101" height="101" transform="translate(224 433)" fill="#ffd41c" stroke="#707070" stroke-width="1"/>
    </clipPath>
  </defs>
  <g id="Grupo_95215" data-name="Grupo 95215" transform="translate(-180 -417)">
    <rect id="Rectángulo_33975" data-name="Rectángulo 33975" width="190" height="134" transform="translate(180 417)" fill="#fff"/>
    <g id="Enmascarar_grupo_367" data-name="Enmascarar grupo 367" clip-path="url(#clip-path)">
      <g id="Filled_outline" data-name="Filled outline" transform="translate(220.633 429.633)">
        <rect id="Rectángulo_35683" data-name="Rectángulo 35683" width="50.5" height="90.9" rx="6.733" transform="translate(28.617 11.783)" fill="#e0e0de"/>
        <path id="Trazado_125151" data-name="Trazado 125151" d="M28.617,21.883h50.5V89.217h-50.5Z" fill="#348fd9"/>
        <path id="Trazado_125152" data-name="Trazado 125152" d="M33.715,102.46a6.674,6.674,0,0,0,1.635.223H72.383a6.733,6.733,0,0,0,6.733-6.733V89.217H39.339Z" fill="#d6d6d4"/>
        <path id="Trazado_125153" data-name="Trazado 125153" d="M72.383,11.783h-.161l-4.289,10.1H79.117V18.517A6.733,6.733,0,0,0,72.383,11.783Z" fill="#d6d6d4"/>
        <path id="Trazado_125154" data-name="Trazado 125154" d="M39.339,89.217H79.117V21.883H67.933Z" fill="#3086cd"/>
        <path id="Trazado_125155" data-name="Trazado 125155" d="M48.817,79.117v-10.1a6.733,6.733,0,0,0-6.733-6.733H38.717L40.4,55.55,28.617,62.283V85.85H42.083A6.733,6.733,0,0,0,48.817,79.117Z" fill="#3086cd"/>
        <path id="Trazado_125156" data-name="Trazado 125156" d="M90.1,59.691,79.117,45.45V72.383l-7.575-7.575a5.951,5.951,0,0,0-8.417,8.417L74.067,84.167,73.312,85.3a14.74,14.74,0,0,0,.754,17.385h20.2V70.775A16.833,16.833,0,0,0,90.1,59.692Z" fill="#fec9a3"/>
        <path id="Trazado_125157" data-name="Trazado 125157" d="M42.083,38.717H28.617L30.3,47.133,18.517,38.717H11.783A6.733,6.733,0,0,1,5.05,31.983v-20.2A6.733,6.733,0,0,1,11.783,5.05h30.3a6.733,6.733,0,0,1,6.733,6.733v20.2A6.733,6.733,0,0,1,42.083,38.717Z" fill="#ffb531"/>
        <path id="Trazado_125158" data-name="Trazado 125158" d="M31.983,42.083H45.45a6.733,6.733,0,0,0,6.733-6.733V21.883H28.617V46.893l5.05,3.607Z" fill="#3086cd"/>
        <path id="Trazado_125159" data-name="Trazado 125159" d="M38.717,58.917H35.35l1.683-6.733L25.25,58.917H11.783A6.733,6.733,0,0,0,5.05,65.65v10.1a6.733,6.733,0,0,0,6.733,6.733H38.717A6.733,6.733,0,0,0,45.45,75.75V65.65A6.733,6.733,0,0,0,38.717,58.917Z" fill="#60d1e0"/>
        <path id="Trazado_125160" data-name="Trazado 125160" d="M38.717,58.917h-.324C31.506,69.281,21.815,77.3,14.363,82.483H38.717A6.733,6.733,0,0,0,45.45,75.75V65.65A6.733,6.733,0,0,0,38.717,58.917Z" fill="#5ac6d4"/>
        <path id="Trazado_125161" data-name="Trazado 125161" d="M85.85,80.8a1.677,1.677,0,0,1-1.19-.493l-6.733-6.733a1.683,1.683,0,1,1,2.38-2.38l6.733,6.734A1.683,1.683,0,0,1,85.85,80.8Z" fill="#f7a468"/>
        <path id="Trazado_125162" data-name="Trazado 125162" d="M46.467,6.711C34.81,21.261,18.517,30.3,6.778,36.449a6.69,6.69,0,0,0,5.005,2.268h6.733L30.3,47.133l-1.683-8.417H42.083a6.733,6.733,0,0,0,6.733-6.733v-20.2A6.687,6.687,0,0,0,46.467,6.711Z" fill="#ffa912"/>
        <path id="Trazado_125163" data-name="Trazado 125163" d="M16.833,20.2H30.3V30.3H16.833Z" fill="#f35244"/>
        <g id="Grupo_97946" data-name="Grupo 97946">
          <circle id="Elipse_5863" data-name="Elipse 5863" cx="4.208" cy="4.208" r="4.208" transform="translate(15.15 11.783)" fill="#de4132"/>
          <circle id="Elipse_5864" data-name="Elipse 5864" cx="4.208" cy="4.208" r="4.208" transform="translate(23.567 11.783)" fill="#de4132"/>
          <path id="Trazado_125164" data-name="Trazado 125164" d="M30.3,23.567,37.033,20.2V30.3L30.3,26.933Z" fill="#de4132"/>
        </g>
        <path id="Trazado_125165" data-name="Trazado 125165" d="M79.117,45.45V63.06L87.643,56.5Z" fill="#fec093"/>
        <path id="Trazado_125166" data-name="Trazado 125166" d="M102.683,25.25v20.2a6.733,6.733,0,0,1-6.733,6.733H87.533L75.75,60.6l1.683-8.417H62.283A6.729,6.729,0,0,1,55.55,45.45V25.25a6.733,6.733,0,0,1,6.733-6.733H95.95a6.728,6.728,0,0,1,6.733,6.733Z" fill="#4db7e5"/>
        <path id="Trazado_125167" data-name="Trazado 125167" d="M102.683,25.25v20.2a6.733,6.733,0,0,1-6.733,6.733H87.533L75.75,60.6l1.683-8.417H62.283a6.712,6.712,0,0,1-3.327-.877c15.722-7.445,29.854-17.831,40.343-31.9A6.733,6.733,0,0,1,102.683,25.25Z" fill="#48add9"/>
        <circle id="Elipse_5865" data-name="Elipse 5865" cx="5.05" cy="5.05" r="5.05" transform="translate(77.433 25.25)" fill="#f35244"/>
        <path id="Trazado_125168" data-name="Trazado 125168" d="M102.683,45.45a6.733,6.733,0,0,1-6.733,6.733H87.533L75.75,60.6l1.683-8.417H62.283A6.729,6.729,0,0,1,55.55,45.45l13.467-10.1,7.655,5.74,5.812,4.36,10.1-6.733Z" fill="#7eb457"/>
        <path id="Trazado_125169" data-name="Trazado 125169" d="M102.683,45.45a6.733,6.733,0,0,1-6.733,6.733H87.533L75.75,60.6l1.683-8.417H62.283a6.712,6.712,0,0,1-3.327-.877A122.353,122.353,0,0,0,76.672,41.09l5.812,4.36,10.1-6.733Z" fill="#77ad50"/>
        <path id="Trazado_125170" data-name="Trazado 125170" d="M52.183,94.267H55.55v3.367H52.183Z"/>
        <path id="Trazado_125171" data-name="Trazado 125171" d="M11.783,40.4h6.194l11.344,8.1a1.683,1.683,0,0,0,2.629-1.7L30.67,40.4H42.083A8.427,8.427,0,0,0,50.5,31.983v-20.2a8.427,8.427,0,0,0-8.417-8.417h-30.3a8.427,8.427,0,0,0-8.417,8.417v20.2A8.427,8.427,0,0,0,11.783,40.4ZM6.733,11.783a5.056,5.056,0,0,1,5.05-5.05h30.3a5.056,5.056,0,0,1,5.05,5.05v20.2a5.056,5.056,0,0,1-5.05,5.05H28.617a1.683,1.683,0,0,0-1.651,2.014l.848,4.242-8.32-5.943a1.683,1.683,0,0,0-.978-.313H11.783a5.056,5.056,0,0,1-5.05-5.05Z"/>
        <path id="Trazado_125172" data-name="Trazado 125172" d="M15.15,20.2V30.3a1.683,1.683,0,0,0,1.683,1.683H30.3A1.683,1.683,0,0,0,31.983,30.3v-.643l4.3,2.149A1.683,1.683,0,0,0,38.717,30.3V20.2a1.683,1.683,0,0,0-2.436-1.506l-4.3,2.149V20.2c0-.028-.015-.051-.016-.079a5.884,5.884,0,1,0-8.4-8.24,5.884,5.884,0,1,0-8.4,8.24c0,.027-.016.051-.016.079Zm13.467,8.417h-10.1V21.883h10.1Zm6.733-5.693v4.652l-3.367-1.683V24.607Zm-7.575-9.457a2.525,2.525,0,1,1-2.525,2.525,2.525,2.525,0,0,1,2.525-2.525Zm-8.417,0a2.525,2.525,0,1,1-2.525,2.525,2.525,2.525,0,0,1,2.525-2.525Z"/>
        <path id="Trazado_125173" data-name="Trazado 125173" d="M95.95,16.833H80.63A8.431,8.431,0,0,0,72.383,10.1H53.867v3.367H72.383a5.042,5.042,0,0,1,4.74,3.367H62.283a8.427,8.427,0,0,0-8.417,8.417v20.2a8.427,8.427,0,0,0,8.417,8.417h13.1L74.1,60.27a1.683,1.683,0,0,0,2.629,1.7l.705-.5V68.32l-4.7-4.7a7.635,7.635,0,0,0-10.8,10.8L71.9,84.377a15.816,15.816,0,0,0-1.581,3.156H26.933V95.95a8.427,8.427,0,0,0,8.417,8.417H94.267a1.683,1.683,0,0,0,1.683-1.683V70.767a18.432,18.432,0,0,0-4.508-12.1l-3.582-4.645.212-.151H95.95a8.427,8.427,0,0,0,8.417-8.417V25.25A8.427,8.427,0,0,0,95.95,16.833ZM62.283,20.2H95.95A5.056,5.056,0,0,1,101,25.25V42.3l-7.483-4.989a1.685,1.685,0,0,0-1.868,0l-9.109,6.072L70.027,34a1.682,1.682,0,0,0-2.019,0l-10.775,8.08V25.25A5.056,5.056,0,0,1,62.283,20.2ZM30.3,95.95V90.9H69.378A16.4,16.4,0,0,0,71.02,101H35.35A5.056,5.056,0,0,1,30.3,95.95ZM88.842,60.8a15.15,15.15,0,0,1,3.741,9.969V101H74.917a13.042,13.042,0,0,1-1.828-11.305,12.629,12.629,0,0,1,1.617-3.462l.757-1.128a1.683,1.683,0,0,0-.207-2.129L64.315,72.035A4.268,4.268,0,0,1,70.351,66L84.659,80.308l2.38-2.38L80.8,71.686V59.061l4.319-3.085ZM95.95,50.5H87.533a1.684,1.684,0,0,0-.978.313l-8.32,5.942.848-4.242A1.683,1.683,0,0,0,77.433,50.5H62.283a5.044,5.044,0,0,1-4.971-4.268l11.7-8.778L81.473,46.8a1.681,1.681,0,0,0,1.943.054l9.167-6.112,8.333,5.555A5.047,5.047,0,0,1,95.95,50.5Z"/>
        <path id="Trazado_125174" data-name="Trazado 125174" d="M82.483,37.033A6.733,6.733,0,1,0,75.75,30.3a6.733,6.733,0,0,0,6.733,6.733Zm0-10.1A3.367,3.367,0,1,1,79.117,30.3a3.367,3.367,0,0,1,3.367-3.367Z"/>
        <path id="Trazado_125175" data-name="Trazado 125175" d="M11.783,84.167H38.717a8.427,8.427,0,0,0,8.417-8.417V65.65a8.427,8.427,0,0,0-8.417-8.417h-1.21l1.159-4.642a1.683,1.683,0,0,0-2.468-1.87L24.8,57.233H11.783A8.427,8.427,0,0,0,3.367,65.65v10.1a8.427,8.427,0,0,0,8.417,8.417ZM6.733,65.65a5.056,5.056,0,0,1,5.05-5.05H25.25a1.683,1.683,0,0,0,.835-.222L34.444,55.6l-.727,2.906A1.683,1.683,0,0,0,35.35,60.6h3.367a5.056,5.056,0,0,1,5.05,5.05v10.1a5.056,5.056,0,0,1-5.05,5.05H11.783a5.056,5.056,0,0,1-5.05-5.05Z"/>
        <path id="Trazado_125176" data-name="Trazado 125176" d="M10.1,65.65H28.617v3.367H10.1Z"/>
        <path id="Trazado_125177" data-name="Trazado 125177" d="M31.983,65.65H40.4v3.367H31.983Z"/>
        <path id="Trazado_125178" data-name="Trazado 125178" d="M10.1,72.383H40.4V75.75H10.1Z"/>
      </g>
    </g>
  </g>
</svg>
