<svg xmlns="http://www.w3.org/2000/svg" xmlns:xlink="http://www.w3.org/1999/xlink" width="85" height="85" viewBox="0 0 85 85">
  <defs>
    <clipPath id="clip-path">
      <rect id="Rect치ngulo_35265" data-name="Rect치ngulo 35265" width="67" height="67" transform="translate(189 4865)" fill="#26d19e"/>
    </clipPath>
  </defs>
  <g id="Grupo_99209" data-name="Grupo 99209" transform="translate(-1125 -10319.338)">
    <rect id="Rect치ngulo_34163" data-name="Rect치ngulo 34163" width="85" height="85" transform="translate(1125 10319.338)" fill="#764cf0"/>
    <g id="Enmascarar_grupo_398" data-name="Enmascarar grupo 398" transform="translate(945 5463.338)" clip-path="url(#clip-path)">
      <g id="comunicacion" transform="translate(187.919 4863.92)">
        <g id="Grupo_98896" data-name="Grupo 98896">
          <g id="Grupo_98880" data-name="Grupo 98880">
            <path id="Trazado_126091" data-name="Trazado 126091" d="M12.968,62.677H4.323V55.113a5.34,5.34,0,0,0,3.242,1.081,5.405,5.405,0,0,0,5.4-5.4V49.71h6.484a22.141,22.141,0,0,1,6.484,15.659V67H12.968Z" fill="#b4dd7f"/>
          </g>
          <g id="Grupo_98881" data-name="Grupo 98881">
            <path id="Trazado_126092" data-name="Trazado 126092" d="M25.935,28.1H17.442A2.656,2.656,0,0,0,14.8,30.388l-.756,5.274h-.573a2.668,2.668,0,0,0-1.189,5.057l.681.346V50.79a5.405,5.405,0,0,1-5.4,5.4,5.34,5.34,0,0,1-3.242-1.081,5.069,5.069,0,0,1-.584-.5A5.427,5.427,0,0,1,2.161,50.79v-.573a20.4,20.4,0,0,1,2.161-9.153,20.4,20.4,0,0,0,2.161-9.153V28.1a8.643,8.643,0,0,1,8.645-8.645H17.29A8.643,8.643,0,0,1,25.935,28.1Z" fill="#fcd770"/>
          </g>
          <g id="Grupo_98882" data-name="Grupo 98882">
            <path id="Trazado_126093" data-name="Trazado 126093" d="M61.1,26.519a5.409,5.409,0,0,1-2.745,1.47,5.092,5.092,0,0,1-1.081.108H45.387a2.168,2.168,0,0,1-2.161-2.161v3.242H42.145a3.215,3.215,0,0,0-2.215.875l-.875-3.534A4.887,4.887,0,0,1,41.1,21.235l1.048-.7a7.313,7.313,0,0,1,6.062-3.242h1.459a7.279,7.279,0,0,1,4.042,1.221l.713.475a3.274,3.274,0,0,1,2.853-1.7A5.41,5.41,0,0,1,61.1,26.519Z" fill="#b27946"/>
          </g>
          <g id="Grupo_98883" data-name="Grupo 98883">
            <path id="Trazado_126094" data-name="Trazado 126094" d="M51.871,56.194,54.032,67H47.548L49.71,56.194Z" fill="#fcd770"/>
          </g>
          <g id="Grupo_98884" data-name="Grupo 98884">
            <path id="Trazado_126095" data-name="Trazado 126095" d="M53.243,52.768l-1.372,3.426H49.71l-1.372-3.426L50.79,49.71Z" fill="#ffc729"/>
          </g>
          <g id="Grupo_98885" data-name="Grupo 98885">
            <path id="Trazado_126096" data-name="Trazado 126096" d="M49.71,56.194,47.548,67H34.581V53.038a6.5,6.5,0,0,1,5.414-6.4l5.533-.919.94,9.391,1.87-2.345Z" fill="#75b1f2"/>
          </g>
          <g id="Grupo_98886" data-name="Grupo 98886">
            <path id="Trazado_126097" data-name="Trazado 126097" d="M60.516,67H54.032L51.871,56.194l1.372-3.426,1.87,2.345.94-9.391,5.533.919A6.5,6.5,0,0,1,67,53.038V67Z" fill="#75b1f2"/>
          </g>
          <g id="Grupo_98887" data-name="Grupo 98887">
            <path id="Trazado_126098" data-name="Trazado 126098" d="M56.053,45.722l-.94,9.391-1.87-2.345L50.79,49.71l3.242-4.323Z" fill="#5d9cec"/>
          </g>
          <g id="Grupo_98888" data-name="Grupo 98888">
            <path id="Trazado_126099" data-name="Trazado 126099" d="M47.548,45.387,50.79,49.71l-2.453,3.058-1.87,2.345-.94-9.391Z" fill="#5d9cec"/>
          </g>
          <g id="Grupo_98889" data-name="Grupo 98889">
            <path id="Trazado_126100" data-name="Trazado 126100" d="M41.065,5.4v6.668a3.062,3.062,0,0,1-3.058,3.058H36.742v2.8a1.528,1.528,0,0,1-2.6,1.081l-3.88-3.88H22.51a3.062,3.062,0,0,1-3.058-3.058V5.4a3.238,3.238,0,0,1,3.242-3.242H37.823A3.238,3.238,0,0,1,41.065,5.4Z" fill="#e6e9ed"/>
          </g>
          <g id="Grupo_98890" data-name="Grupo 98890">
            <path id="Trazado_126101" data-name="Trazado 126101" d="M4.323,62.677h8.645V67H4.323Z" fill="#f0d0b4"/>
          </g>
          <g id="Grupo_98891" data-name="Grupo 98891">
            <path id="Trazado_126102" data-name="Trazado 126102" d="M58.355,34.581v-5.4h1.081a3.242,3.242,0,0,1,0,6.484H58.268a5.993,5.993,0,0,0,.086-1.081Z" fill="#f0d0b4"/>
          </g>
          <g id="Grupo_98892" data-name="Grupo 98892">
            <path id="Trazado_126103" data-name="Trazado 126103" d="M54.032,41.421v3.966L50.79,49.71l-3.242-4.323V41.41a7.519,7.519,0,0,0,6.484,0Z" fill="#f0d0b4"/>
          </g>
          <g id="Grupo_98893" data-name="Grupo 98893">
            <path id="Trazado_126104" data-name="Trazado 126104" d="M43.226,34.581a5.993,5.993,0,0,0,.086,1.081H42.145a3.242,3.242,0,0,1,0-6.484h1.081Z" fill="#f0d0b4"/>
          </g>
          <g id="Grupo_98894" data-name="Grupo 98894">
            <path id="Trazado_126105" data-name="Trazado 126105" d="M58.355,29.177v5.4a5.993,5.993,0,0,1-.086,1.081,7.513,7.513,0,0,1-4.236,5.749,7.545,7.545,0,0,1-10.72-5.749,5.994,5.994,0,0,1-.086-1.081V25.935A2.168,2.168,0,0,0,45.387,28.1H57.274a5.092,5.092,0,0,0,1.081-.108Z" fill="#f0d0b4"/>
          </g>
          <g id="Grupo_98895" data-name="Grupo 98895">
            <path id="Trazado_126106" data-name="Trazado 126106" d="M19.452,45.387V49.71H12.968V41.065l-.681-.346a2.668,2.668,0,0,1,1.189-5.057h.573l.756-5.274A2.656,2.656,0,0,1,17.442,28.1h8.494S28.1,34.581,28.1,37.823L24.855,38.9v3.653a2.821,2.821,0,0,1-1.567,2.529,2.694,2.694,0,0,1-1.264.3Z" fill="#f0d0b4"/>
          </g>
        </g>
        <g id="Grupo_98897" data-name="Grupo 98897">
          <path id="Trazado_126107" data-name="Trazado 126107" d="M61.759,45.579l-6.646-1.108V42.055a8.665,8.665,0,0,0,4.038-5.315h.284a4.312,4.312,0,0,0,1.135-8.474,6.477,6.477,0,0,0-3.3-12.057,4.3,4.3,0,0,0-3.1,1.328,8.324,8.324,0,0,0-4.5-1.328H48.2a8.34,8.34,0,0,0-6.83,3.539l-.876.584A6,6,0,0,0,38,26.786l.748,2.99a4.3,4.3,0,0,0,3.4,6.966h.284a8.668,8.668,0,0,0,4.038,5.315v2.416l-6.646,1.107A7.54,7.54,0,0,0,33.5,53.041V68.081H68.081V53.041A7.54,7.54,0,0,0,61.759,45.579Zm-14.681.982,2.345,3.127-2.144,2.68L46.7,46.623ZM50.6,57.274h.39l1.729,8.645H48.867Zm.544-2.161h-.7l-.863-2.158,1.212-1.516L52,52.954Zm1.018-5.425L54.5,46.561l.374.063L54.3,52.369ZM61.6,32.419a2.163,2.163,0,0,1-2.161,2.161V30.258A2.163,2.163,0,0,1,61.6,32.419ZM41.7,22.131l1.229-.819.12-.18A6.186,6.186,0,0,1,48.2,18.37h1.463a6.185,6.185,0,0,1,3.44,1.041l.01.006a4.268,4.268,0,0,0,4.159,5.438h2.161V22.694H57.274a2.161,2.161,0,1,1,0-4.323,4.323,4.323,0,0,1,0,8.645H45.387a1.081,1.081,0,1,1,0-2.161h1.081V22.694H45.387a3.246,3.246,0,0,0-3.242,3.242V28.1a4.287,4.287,0,0,0-1.516.289L40.1,26.263a3.9,3.9,0,0,1-.115-.934,3.836,3.836,0,0,1,1.712-3.2ZM39.984,32.419a2.163,2.163,0,0,1,2.161-2.161v4.323A2.163,2.163,0,0,1,39.984,32.419Zm4.323,2.161v-5.6a3.205,3.205,0,0,0,1.081.2H57.274v5.4a6.484,6.484,0,0,1-12.968,0Zm6.484,8.645a8.594,8.594,0,0,0,2.161-.284v2.087L50.79,47.909l-2.161-2.881V42.942A8.594,8.594,0,0,0,50.79,43.226ZM35.661,53.041a5.388,5.388,0,0,1,4.515-5.331l4.392-.732,1.088,10.878,2.37-2.962.561,1.4-1.925,9.622H42.145V54.032H39.984V65.919H35.661ZM65.919,65.919H61.6V54.032H59.435V65.919H54.918L52.994,56.3l.561-1.4,2.37,2.962,1.088-10.878,4.392.732a5.39,5.39,0,0,1,4.515,5.332Z"/>
          <path id="Trazado_126108" data-name="Trazado 126108" d="M54.032,35.661H51.871a1.081,1.081,0,0,1-2.161,0H47.548a3.242,3.242,0,1,0,6.484,0Z"/>
          <path id="Trazado_126109" data-name="Trazado 126109" d="M17.29,18.371H15.129A9.737,9.737,0,0,0,5.4,28.1v3.813a19.484,19.484,0,0,1-2.048,8.672A21.682,21.682,0,0,0,1.081,50.22v.571a6.465,6.465,0,0,0,2.161,4.82V68.081H27.016V65.363a23.043,23.043,0,0,0-6.484-16.068V46.468h1.493a3.931,3.931,0,0,0,1.748-.413,3.89,3.89,0,0,0,2.161-3.5V39.682L29.177,38.6v-.779c0-3.152-1.85-8.947-2.172-9.929A9.731,9.731,0,0,0,17.29,18.371ZM3.242,50.22A19.476,19.476,0,0,1,5.29,41.549a21.69,21.69,0,0,0,2.275-9.639V28.1a7.574,7.574,0,0,1,7.565-7.565H17.29a7.57,7.57,0,0,1,7.478,6.484H17.446a3.773,3.773,0,0,0-3.715,3.221L13.108,34.6a3.752,3.752,0,0,0-1.308,7.09l.086.043V50.79a4.323,4.323,0,0,1-8.645,0ZM5.4,63.758h6.484v2.161H5.4Zm19.452,2.161H14.048V57.274H11.887V61.6H5.4V56.9a6.466,6.466,0,0,0,8.645-6.106H19a20.915,20.915,0,0,1,5.857,14.572Zm-1.081-27.8v4.434a1.75,1.75,0,0,1-1.748,1.748H16.21v2.161h2.161v2.161H14.048V40.4l-1.283-.641a1.591,1.591,0,0,1,.712-3.014h1.509l.886-6.2a1.6,1.6,0,0,1,1.575-1.366h7.7a45.371,45.371,0,0,1,1.833,7.878Z"/>
          <circle id="Elipse_5913" data-name="Elipse 5913" cx="1.081" cy="1.081" r="1.081" transform="translate(20.532 32.419)"/>
          <path id="Trazado_126110" data-name="Trazado 126110" d="M22.694,5.4H37.823V7.565H22.694Z"/>
          <path id="Trazado_126111" data-name="Trazado 126111" d="M22.694,9.726H33.5v2.161H22.694Z"/>
          <path id="Trazado_126112" data-name="Trazado 126112" d="M35.661,9.726h2.161v2.161H35.661Z"/>
          <path id="Trazado_126113" data-name="Trazado 126113" d="M37.823,17.924V16.21H38a4.148,4.148,0,0,0,4.143-4.143V5.4a4.327,4.327,0,0,0-4.323-4.323H22.694A4.327,4.327,0,0,0,18.371,5.4v6.663a4.148,4.148,0,0,0,4.143,4.143h7.3l3.557,3.557a2.609,2.609,0,0,0,4.454-1.844ZM34.9,18.24l-4.192-4.192H22.514a1.984,1.984,0,0,1-1.982-1.982V5.4a2.163,2.163,0,0,1,2.161-2.161H37.823A2.163,2.163,0,0,1,39.984,5.4v6.663A1.984,1.984,0,0,1,38,14.048H35.661v3.875A.465.465,0,0,1,34.9,18.24Z"/>
        </g>
      </g>
    </g>
  </g>
</svg>
