<svg xmlns="http://www.w3.org/2000/svg" xmlns:xlink="http://www.w3.org/1999/xlink" width="85" height="85" viewBox="0 0 85 85">
  <defs>
    <clipPath id="clip-path">
      <rect id="Rect치ngulo_35699" data-name="Rect치ngulo 35699" width="67" height="67" transform="translate(189 4865)" fill="#ffd41c"/>
    </clipPath>
  </defs>
  <g id="Grupo_99205" data-name="Grupo 99205" transform="translate(-495 -7610.338)">
    <rect id="Rect치ngulo_34163" data-name="Rect치ngulo 34163" width="85" height="85" transform="translate(495 7610.338)" fill="#764cf0"/>
    <g id="Enmascarar_grupo_380" data-name="Enmascarar grupo 380" transform="translate(315 2754.338)" clip-path="url(#clip-path)">
      <g id="mapa" transform="translate(189 4865)">
        <path id="Trazado_125516" data-name="Trazado 125516" d="M17.242,55.148l16.259,7.3v-29.1l-14-7.3Z" fill="#44c868"/>
        <path id="Trazado_125517" data-name="Trazado 125517" d="M18.449,39.57,33.5,62.448l-16.259-7.3Z" fill="#7ee5f2"/>
        <path id="Trazado_125518" data-name="Trazado 125518" d="M17.242,55.148.983,62.448,6.247,33.423,19.5,26.048Z" fill="#4ce166"/>
        <path id="Trazado_125519" data-name="Trazado 125519" d="M3.721,47.356,18.449,39.57,17.242,55.148.983,62.448Z" fill="#a8eefc"/>
        <path id="Trazado_125520" data-name="Trazado 125520" d="M49.759,55.148l16.259,7.3L60.754,33.423,47.505,26.048Z" fill="#44c868"/>
        <path id="Trazado_125521" data-name="Trazado 125521" d="M48.173,34.665,64.4,53.511,60.754,33.423l-2.008-1.118Z" fill="#7ee5f2"/>
        <path id="Trazado_125522" data-name="Trazado 125522" d="M49.759,55.148,33.5,62.448v-29.1l14-7.3Z" fill="#4ce166"/>
        <path id="Trazado_125523" data-name="Trazado 125523" d="M3.721,47.356,18.449,39.57l.429-5.533L4.79,41.461Z" fill="#ffdb56"/>
        <g id="Grupo_98232" data-name="Grupo 98232">
          <path id="Trazado_125524" data-name="Trazado 125524" d="M33.5,36.13,18.877,34.037l-.429,5.533L33.5,62.448V54.129L24.519,39.974,33.5,41.049Z" fill="#ffbb24"/>
          <path id="Trazado_125525" data-name="Trazado 125525" d="M48.173,34.665l10.573-2.36L52.4,28.774,47.8,29.85Z" fill="#ffbb24"/>
        </g>
        <path id="Trazado_125526" data-name="Trazado 125526" d="M48.707,41.565,48.137,34.2h0L47.8,29.85,33.5,36.13v4.92l9.338-4.064Z" fill="#ffdb56"/>
        <path id="Trazado_125527" data-name="Trazado 125527" d="M48.707,41.565,66.018,62.448,64.4,53.511,48.173,34.665Z" fill="#ffbb24"/>
        <path id="Trazado_125528" data-name="Trazado 125528" d="M33.564,4.552A12.773,12.773,0,0,0,20.791,17.325c0,10.742,12.773,20.626,12.773,20.626s12.773-9.884,12.773-20.626A12.773,12.773,0,0,0,33.564,4.552Zm0,17.867a5.094,5.094,0,1,1,5.094-5.094A5.094,5.094,0,0,1,33.564,22.419Z" fill="#ff4a4a"/>
        <path id="Trazado_125529" data-name="Trazado 125529" d="M33.564,4.552a12.885,12.885,0,0,0-1.77.123,12.775,12.775,0,0,1,11,12.65c0,8.229-7.5,15.955-11,19.119,1.071.966,1.77,1.507,1.77,1.507s12.773-9.884,12.773-20.626A12.773,12.773,0,0,0,33.564,4.552Z" fill="#e7343f"/>
        <path id="Trazado_125530" data-name="Trazado 125530" d="M33.5,54.129l5.6,5.8-5.6,2.516Z" fill="#ffdb56"/>
        <path id="Trazado_125531" data-name="Trazado 125531" d="M66.793,63.05l.015-.018a.982.982,0,0,0,.078-.125c.006-.012.011-.025.017-.038a1.007,1.007,0,0,0,.041-.1c.006-.017.011-.034.016-.051s.016-.062.022-.093.007-.036.009-.055a1,1,0,0,0,.007-.1c0-.016,0-.032,0-.048a.974.974,0,0,0-.015-.151L63.06,40.628a.983.983,0,1,0-1.935.351l1.66,9.151-12.8-14.863,8.606-1.921,1.274.709.553,3.051a.983.983,0,1,0,1.935-.351l-.636-3.509a.983.983,0,0,0-.489-.684h0l-13.25-7.376h0a.976.976,0,0,0-.116-.055l-.038-.012c-.028-.01-.055-.019-.083-.026l-.048-.01c-.025,0-.051-.01-.076-.013l-.052,0c-.025,0-.049,0-.074,0l-.053,0c-.024,0-.049,0-.073.007l-.053.009-.071.017-.053.016-.068.026-.052.023-.023.01L44.8,26.347a19.123,19.123,0,0,0,2.516-9.022,13.756,13.756,0,1,0-27.512,0,19.182,19.182,0,0,0,2.564,9.113L19.95,25.176l-.023-.01-.05-.022c-.023-.01-.046-.018-.069-.026l-.052-.016-.071-.017-.053-.009c-.024,0-.048-.005-.072-.007l-.054,0c-.024,0-.048,0-.072,0l-.054,0c-.024,0-.049.008-.073.012l-.051.01c-.027.007-.053.016-.079.025l-.041.014a.991.991,0,0,0-.116.054h0L5.769,32.564a.982.982,0,0,0-.489.684h0L1.548,53.823h0a.983.983,0,0,0,1.935.351L4.6,48,17.33,41.273,16.307,54.489l-14.022,6.3.493-2.722a.983.983,0,1,0-1.935-.351L.016,62.272a.983.983,0,0,0,1.37,1.073l15.856-7.119,15.849,7.116h0l.005,0,.027.011.044.017.043.015.028.008.037.01.062.012.029.005.02,0a.969.969,0,0,0,.1.006h.019a.981.981,0,0,0,.119-.009h.015l.022,0a.935.935,0,0,0,.092-.02l.025-.006h0l.008,0a.975.975,0,0,0,.113-.042l15.856-7.119h0l15.856,7.119.047.018.046.018c.021.007.042.012.063.017l.039.01c.025.005.051.009.076.013l.027,0a.97.97,0,0,0,.1.006h0a.994.994,0,0,0,.143-.012l.033-.005a.96.96,0,0,0,.14-.035l.009,0a.913.913,0,0,0,.09-.036l.025-.014c.025-.012.049-.027.072-.041s.048-.029.07-.046l.024-.016c.017-.013.032-.029.049-.044s.026-.023.039-.035A.955.955,0,0,0,66.793,63.05Zm-27.462-4.3-4.847-5.02V41.7L42.7,38.121l5.062,3.952.965,12.461Zm-4.847,2.176V56.563l2.94,3.045ZM30.627,36.711c.818.759,1.482,1.323,1.891,1.66v1.57L24.636,39a.983.983,0,0,0-.947,1.5l8.829,13.914v4.75L19.455,39.311l.16-2.067.161-2.085Zm7.428-1.506,8.872-3.9.628,8.11L43.448,36.21a.984.984,0,0,0-1-.127l-7.962,3.465V38.472A46.22,46.22,0,0,0,38.055,35.205ZM49.4,37.727l-.011-.146L63.477,53.95l.9,4.982L49.663,41.178ZM48.627,27.8l1.073.6-1.008.236ZM26.459,41.2l6.058.725v8.822Zm-7.252,1.316L30.823,60.168,18.276,54.534Zm30.72,2.065L62.56,59.817,50.694,54.49Zm6.084-12.668-6.945,1.55-.22-2.844,3.41-.8,3.756,2.091Zm-9.371-4.3.126,1.622-5.542,2.435q.825-1.023,1.54-2.036ZM33.564,5.536a11.8,11.8,0,0,1,11.79,11.79c0,8.822-9.306,17.261-11.79,19.355C31.08,34.586,21.774,26.147,21.774,17.325A11.8,11.8,0,0,1,33.564,5.536ZM26.423,32.3c.63.752,1.258,1.452,1.862,2.092l-8.357-1.2.433-5.585,4.076,2.125Q25.343,31.007,26.423,32.3Zm-8.049-4.5-.283,3.648-.153,1.973L6.118,39.65l1.014-5.593ZM5.049,45.541l.607-3.347.016-.086,12.087-6.37-.249,3.216Z"/>
        <path id="Trazado_125532" data-name="Trazado 125532" d="M39.642,17.325a6.085,6.085,0,0,0-6.078-6.078.983.983,0,1,0,0,1.967,4.111,4.111,0,1,1-2.933,1.23.983.983,0,1,0-1.4-1.378,6.078,6.078,0,1,0,10.413,4.259Z"/>
      </g>
    </g>
  </g>
</svg>
