<svg xmlns="http://www.w3.org/2000/svg" xmlns:xlink="http://www.w3.org/1999/xlink" width="85" height="85" viewBox="0 0 85 85">
  <defs>
    <clipPath id="clip-path">
      <rect id="Rect치ngulo_34179" data-name="Rect치ngulo 34179" width="67" height="67" transform="translate(189 4865)" fill="#ffd41c"/>
    </clipPath>
  </defs>
  <g id="Grupo_99211" data-name="Grupo 99211" transform="translate(-495 -10434.338)">
    <rect id="Rect치ngulo_34163" data-name="Rect치ngulo 34163" width="85" height="85" transform="translate(495 10434.338)" fill="#764cf0"/>
    <g id="Enmascarar_grupo_98" data-name="Enmascarar grupo 98" transform="translate(315 5578.338)" clip-path="url(#clip-path)">
      <g id="brand" transform="translate(189 4865)">
        <g id="Grupo_91398" data-name="Grupo 91398">
          <path id="Trazado_115212" data-name="Trazado 115212" d="M58.107,46.815c-.889,2.735,0,6.4-1.658,8.679-1.674,2.3-5.446,2.581-7.746,4.254C46.426,61.4,45,64.914,42.267,65.8c-2.639.857-5.843-1.118-8.768-1.118a11.737,11.737,0,0,0-2.872.451c-8-14.369-8-38.011-.161-52.676a12.216,12.216,0,0,0,3.033.493c2.925,0,6.128-1.975,8.768-1.118a4.716,4.716,0,0,1,.479.187l-.82,1.506c-3.514.593-5.916,3.494-7.79,5.4a4.136,4.136,0,0,0-2.721,3.157,4.428,4.428,0,0,0,1.2,4.209,12.443,12.443,0,0,0,8.847,3.749c4.125.031,8.214-2.253,9.394-6.361l4.374-2.694a4.981,4.981,0,0,1,1.218,1.158c1.657,2.277.769,5.944,1.658,8.679C58.964,33.464,58.964,44.176,58.107,46.815Z" fill="#8ce09f"/>
          <path id="Trazado_115213" data-name="Trazado 115213" d="M55.23,20.987l-4.051,2.866c-1.18,4.108-5.56,6.574-9.685,6.543a13.244,13.244,0,0,1-9.142-3.864,4.769,4.769,0,0,1,1.616-7.79c1.874-1.9,4.143-4.843,7.657-5.436l1.121-1.282c2.43,1.115,3.816,4.31,5.957,5.868,1.842,1.341,4.631,1.789,6.527,3.1Z" fill="#55d47b"/>
          <path id="Trazado_115214" data-name="Trazado 115214" d="M30.628,65.137c-2.049.523-4.1,1.248-5.9.666C22,64.914,20.574,61.4,18.3,59.748c-2.3-1.674-6.072-1.955-7.746-4.254-1.657-2.277-.769-5.944-1.658-8.679-.857-2.639-.857-13.352,0-15.991.889-2.735,0-6.4,1.658-8.679,1.674-2.3,5.446-2.581,7.746-4.254,2.277-1.657,3.7-5.168,6.436-6.055,1.746-.567,3.739.1,5.734.624C24.034,27.414,24.433,50.5,30.628,65.137Z" fill="#55d47b"/>
          <path id="Trazado_115215" data-name="Trazado 115215" d="M53.392,38.82A19.9,19.9,0,0,1,28.226,58c-4.554-10.761-4.512-26.292-.2-38.313a19.893,19.893,0,0,1,5.53-.763,5,5,0,0,0-2.142,3.157,4.561,4.561,0,0,0,1.158,4.293,12.459,12.459,0,0,0,8.889,3.665,11.42,11.42,0,0,0,8-3.091A19.808,19.808,0,0,1,53.392,38.82Z" fill="#fff4e5"/>
          <path id="Trazado_115216" data-name="Trazado 115216" d="M28.226,58a19.9,19.9,0,0,1-.2-38.313A80.385,80.385,0,0,0,28.226,58Z" fill="#ffe0b7"/>
          <path id="Trazado_115217" data-name="Trazado 115217" d="M49.465,26.952A10.719,10.719,0,0,1,41.494,30.4a13.244,13.244,0,0,1-9.142-3.864,4.77,4.77,0,0,1,1.205-7.6A19.862,19.862,0,0,1,49.465,26.952Z" fill="#ffe0b7"/>
          <path id="Trazado_115218" data-name="Trazado 115218" d="M65.711,44.988a1.387,1.387,0,0,1-1.081,2.255H26.284a34.9,34.9,0,0,1-.1-16.847H64.63a1.387,1.387,0,0,1,1.081,2.255L60.759,38.82Z" fill="#83deff"/>
          <path id="Trazado_115219" data-name="Trazado 115219" d="M26.284,47.243H2.37a1.387,1.387,0,0,1-1.081-2.255L6.241,38.82,1.289,32.651A1.387,1.387,0,0,1,2.37,30.4H26.182a84.172,84.172,0,0,0,.1,16.847Z" fill="#2ecefb"/>
          <path id="Trazado_115220" data-name="Trazado 115220" d="M46.458,18.593a4.707,4.707,0,0,0-3.239-1.554,4.879,4.879,0,0,0-2.132.375c-3.089,1.28-4.175,4.347-6.293,5.159a1.033,1.033,0,0,0-.357,1.692c2.627,2.646,7.645,4.237,11.428,1.229a4.783,4.783,0,0,0,1.8-3.536A4.657,4.657,0,0,0,46.458,18.593Z" fill="#7a8fa5"/>
          <path id="Trazado_115221" data-name="Trazado 115221" d="M59.746,13.492a23.494,23.494,0,0,1-5.229,3.62,9.693,9.693,0,0,1-5.777-6.389,23.5,23.5,0,0,1,4.127-4.838c4.783-4.324,10.2-6.127,12.1-4.027S64.529,9.168,59.746,13.492Z" fill="#c7aee4"/>
          <path id="Trazado_115222" data-name="Trazado 115222" d="M47.666,21.958,43.219,17.04l5.522-6.316,5.777,6.389Z" fill="#ffca8b"/>
        </g>
        <g id="Grupo_91399" data-name="Grupo 91399">
          <path id="Trazado_115223" data-name="Trazado 115223" d="M62.017,38.819l4.458-5.555a2.368,2.368,0,0,0-1.847-3.85H58.787a22.972,22.972,0,0,1-.195-2.322c-.1-1.941-.2-3.947-1.35-5.525a8.153,8.153,0,0,0-3.714-2.554l1.454-1.028A24.586,24.586,0,0,0,60.4,14.22a22.136,22.136,0,0,0,5.354-6.977c1.155-2.574,1.133-4.72-.062-6.043S62.367-.361,59.689.53a22.135,22.135,0,0,0-7.48,4.626,24.589,24.589,0,0,0-4.29,5.015l-2.4,2.75A7.131,7.131,0,0,0,42.57,10.9c-1.821-.591-3.743-.074-5.6.427a13.906,13.906,0,0,1-3.468.643,13.9,13.9,0,0,1-3.468-.643c-1.858-.5-3.78-1.019-5.6-.427-1.9.618-3.172,2.2-4.4,3.736A13.3,13.3,0,0,1,17.719,17.1a13.476,13.476,0,0,1-3.091,1.465c-1.824.693-3.71,1.41-4.87,3-1.148,1.578-1.251,3.584-1.35,5.525a23.012,23.012,0,0,1-.195,2.322H2.371a2.368,2.368,0,0,0-1.847,3.85l4.458,5.555L.524,44.373a2.368,2.368,0,0,0,1.847,3.85H8.213a22.973,22.973,0,0,1,.195,2.322c.1,1.941.2,3.947,1.35,5.525,1.16,1.594,3.046,2.311,4.87,3a13.476,13.476,0,0,1,3.091,1.465A13.3,13.3,0,0,1,20.03,63c1.227,1.533,2.5,3.118,4.4,3.736,1.822.592,3.743.074,5.6-.427a13.9,13.9,0,0,1,3.468-.643,13.9,13.9,0,0,1,3.468.643c1.849.494,3.744,1.023,5.6.427,1.9-.618,3.172-2.2,4.4-3.736a13.3,13.3,0,0,1,2.311-2.459,13.479,13.479,0,0,1,3.091-1.465c1.824-.693,3.71-1.41,4.87-3,1.148-1.578,1.251-3.584,1.35-5.525a23.051,23.051,0,0,1,.195-2.322h5.842a2.368,2.368,0,0,0,1.847-3.85ZM51.608,20.371c1.627.619,3.23,1.229,4.047,2.351.8,1.106.888,2.74.977,4.47.038.735.077,1.485.173,2.222H52.136A20.8,20.8,0,0,0,48.193,24a5.781,5.781,0,0,0,.408-1.5Zm-13.527.706c1.168-1.33,2.707-2.96,4.711-3.048L46.649,22.3a3.8,3.8,0,0,1-1.394,2.429c-3.461,2.751-8,.982-10.121-1.153-.022-.007-.02-.082.011-.084a7.971,7.971,0,0,0,2.935-2.411ZM48.753,12.2l4.294,4.75-5.237,3.7-3.277-3.625Zm4.773-5.587a20.157,20.157,0,0,1,6.783-4.22c1.838-.612,3.308-.566,3.93.123,1.313,1.452-.612,6.143-5.152,10.248A23.252,23.252,0,0,1,54.741,15.9l-4.768-5.274a23.253,23.253,0,0,1,3.553-4.01ZM10.368,27.192c.088-1.73.172-3.364.977-4.47.817-1.122,2.353-1.706,3.981-2.325a15.072,15.072,0,0,0,3.549-1.713,14.889,14.889,0,0,0,2.688-2.819c1.1-1.368,2.129-2.66,3.473-3.1,1.267-.412,2.83.01,4.485.456a15.534,15.534,0,0,0,3.979.71,15.536,15.536,0,0,0,3.979-.71c1.655-.446,3.218-.867,4.485-.456a5.541,5.541,0,0,1,2.253,1.638l-1.452,1.66a7.568,7.568,0,0,0-4.873,2.346,20.867,20.867,0,0,0-15.443,2.7.981.981,0,0,0,1.041,1.664,18.908,18.908,0,0,1,12.816-2.659,5.453,5.453,0,0,1-1.863,1.539,2.014,2.014,0,0,0-.7,3.3,10.979,10.979,0,0,0,5.811,3.011A8.435,8.435,0,0,0,47.1,25.683a18.833,18.833,0,0,1,2.807,3.731H17.092a18.94,18.94,0,0,1,2.992-3.919.981.981,0,1,0-1.393-1.383,20.869,20.869,0,0,0-3.828,5.3H10.2c.1-.736.136-1.487.173-2.222ZM56.631,50.445c-.088,1.73-.172,3.364-.977,4.47-.817,1.122-2.353,1.706-3.981,2.325a15.073,15.073,0,0,0-3.549,1.713,14.889,14.889,0,0,0-2.688,2.819c-1.1,1.368-2.129,2.66-3.473,3.1-1.267.411-2.83-.01-4.485-.456A15.535,15.535,0,0,0,33.5,63.7a15.535,15.535,0,0,0-3.979.71c-1.655.446-3.218.867-4.485.456-1.344-.436-2.378-1.728-3.473-3.1a14.893,14.893,0,0,0-2.688-2.819,15.073,15.073,0,0,0-3.549-1.713c-1.627-.619-3.164-1.2-3.981-2.325-.8-1.106-.888-2.74-.977-4.47-.038-.735-.077-1.485-.173-2.222h4.669a20.874,20.874,0,0,0,37.272,0H56.8c-.1.736-.136,1.487-.173,2.222Zm8.363-4.414a.388.388,0,0,1-.365.23H43.194a.981.981,0,0,0,0,1.963H49.9a18.908,18.908,0,0,1-32.809,0H38.614a.981.981,0,0,0,0-1.963H2.371a.4.4,0,0,1-.316-.658l4.951-6.169a.982.982,0,0,0,0-1.229L2.055,32.035a.4.4,0,0,1,.316-.658H64.629a.4.4,0,0,1,.316.658L59.993,38.2a.982.982,0,0,0,0,1.229L64.945,45.6A.388.388,0,0,1,64.994,46.031Z"/>
          <path id="Trazado_115224" data-name="Trazado 115224" d="M33.567,34.312a1.175,1.175,0,0,0-2.194,0l-3.214,8.439a.981.981,0,1,0,1.834.7l.56-1.47h3.81l.554,1.467a.981.981,0,0,0,1.836-.693Zm-2.267,5.7,1.166-3.061,1.155,3.061Z"/>
          <path id="Trazado_115225" data-name="Trazado 115225" d="M45.874,33.557h-.01a.981.981,0,0,0-.972.991l.053,5.506L40.763,34a.981.981,0,0,0-1.789.558V43.1a.981.981,0,0,0,1.963,0V37.7l3.988,5.775a1.1,1.1,0,0,0,1.237.458,1.139,1.139,0,0,0,.773-1.135l-.08-8.272a.981.981,0,0,0-.981-.972Z"/>
          <path id="Trazado_115226" data-name="Trazado 115226" d="M52.791,33.81H50.439a.981.981,0,0,0-.981.983l.017,8.307a.981.981,0,0,0,.981.979h.007l2.414-.018c2.463-.043,4.25-2.195,4.25-5.116,0-3.071-1.742-5.135-4.336-5.135Zm.061,8.289-1.418.011-.013-6.336h1.369c1.75,0,2.373,1.638,2.373,3.172C55.164,40.495,54.446,42.071,52.852,42.1Z"/>
          <path id="Trazado_115227" data-name="Trazado 115227" d="M15.771,38.178a2.948,2.948,0,0,0-2.431-4.62H10.854a.981.981,0,0,0-.981.981V43.1a.981.981,0,0,0,.981.981s2.291-.01,2.921-.01a3.284,3.284,0,0,0,2-5.892ZM13.341,35.52a.988.988,0,0,1,0,1.976l-1.505,0V35.52Zm.434,6.587c-.355,0-1.236,0-1.939.006V39.462h1.939a1.323,1.323,0,1,1,0,2.645Z"/>
          <path id="Trazado_115228" data-name="Trazado 115228" d="M25.921,36.763a3.274,3.274,0,0,0-3.332-3.206H20.314a.982.982,0,0,0-.984.981V43.1a.981.981,0,0,0,1.963,0V40.441l2.91,3.306a.981.981,0,0,0,1.473-1.3l-2.27-2.579a3.237,3.237,0,0,0,2.514-3.108Zm-3.332,1.243-1.283,0L21.3,35.52h1.29a1.249,1.249,0,1,1,0,2.487Z"/>
        </g>
      </g>
    </g>
  </g>
</svg>
