<svg xmlns="http://www.w3.org/2000/svg" xmlns:xlink="http://www.w3.org/1999/xlink" width="154" height="154" viewBox="0 0 154 154">
  <defs>
    <clipPath id="clip-path">
      <rect id="Rectángulo_35294" data-name="Rectángulo 35294" width="154" height="154" transform="translate(1144 12368)" fill="#ffd41c"/>
    </clipPath>
  </defs>
  <g id="Enmascarar_grupo_400" data-name="Enmascarar grupo 400" transform="translate(-1144 -12368)" clip-path="url(#clip-path)">
    <g id="objetivo_1_" data-name="objetivo (1)" transform="translate(1144 12368)">
      <path id="Trazado_126127" data-name="Trazado 126127" d="M118.8,94.705H117.46l2.019-27.411h7.252a9.233,9.233,0,0,1,9.233,9.233v1.01A17.168,17.168,0,0,1,118.8,94.705Z" fill="#f9a58e"/>
      <path id="Trazado_126128" data-name="Trazado 126128" d="M35.206,94.705h1.336L34.523,67.294H27.271a9.233,9.233,0,0,0-9.233,9.233v1.01A17.168,17.168,0,0,0,35.206,94.705Z" fill="#eaac9d"/>
      <path id="Trazado_126129" data-name="Trazado 126129" d="M98.977,134.681v-7.857c-7.7,5.27-16.212,8.288-21.976,8.288s-14.272-3.018-21.976-8.288v7.857a11.384,11.384,0,0,1-6.46,10.264L39.276,149.4a1.232,1.232,0,0,0,.533,2.343h74.382a1.232,1.232,0,0,0,.533-2.343l-9.288-4.457A11.384,11.384,0,0,1,98.977,134.681Z" fill="#ffcbbe"/>
      <path id="Trazado_126130" data-name="Trazado 126130" d="M120.037,59.709a43.153,43.153,0,1,0-86.073,0L36.9,99.55c1.547,21,27.443,35.562,40.1,35.562s38.555-14.557,40.1-35.562l2.934-39.841Z" fill="#ffcbbe"/>
      <path id="Trazado_126131" data-name="Trazado 126131" d="M90.026,15.384a43.1,43.1,0,0,1,17.979,38.309l-2.934,39.841c-1.547,21-27.442,35.562-40.1,35.562a29.493,29.493,0,0,1-9.257-1.809c7.519,4.983,15.7,7.824,21.288,7.824,12.66,0,38.555-14.557,40.1-35.562l2.934-39.841A43.176,43.176,0,0,0,90.026,15.384Z" fill="#eaac9d"/>
      <path id="Trazado_126132" data-name="Trazado 126132" d="M107.073,32.328A30.072,30.072,0,1,0,63.186,59.046H90.815a30.07,30.07,0,0,0,16.257-26.718Z" fill="#f1f4f6"/>
      <path id="Trazado_126133" data-name="Trazado 126133" d="M84.082,3.095A30.082,30.082,0,0,1,57.887,55.546a30.124,30.124,0,0,0,5.3,3.5H90.815A30.082,30.082,0,0,0,84.082,3.095Z" fill="#dfeaef"/>
      <path id="Trazado_126134" data-name="Trazado 126134" d="M47.68,39.036a33.547,33.547,0,0,0-4.736,15.122,4.586,4.586,0,0,0,4.576,4.888H63.186A30.127,30.127,0,0,1,47.68,39.036Z" fill="#86f1a7"/>
      <path id="Trazado_126135" data-name="Trazado 126135" d="M111.057,54.159a33.546,33.546,0,0,0-4.736-15.122,30.127,30.127,0,0,1-15.506,20.01h15.666A4.586,4.586,0,0,0,111.057,54.159Z" fill="#80e29d"/>
      <path id="Trazado_126136" data-name="Trazado 126136" d="M55.189,53.03H43.038q-.056.562-.094,1.128a4.586,4.586,0,0,0,4.576,4.888H63.186a30.181,30.181,0,0,1-8-6.016Z" fill="#80e29d"/>
      <path id="Trazado_126137" data-name="Trazado 126137" d="M77,9.775A22.552,22.552,0,1,0,99.553,32.328,22.553,22.553,0,0,0,77,9.775Zm0,37.586A15.033,15.033,0,1,1,92.033,32.328,15.05,15.05,0,0,1,77,47.361Z" fill="#dd5790"/>
      <path id="Trazado_126138" data-name="Trazado 126138" d="M99.553,32.328a22.472,22.472,0,0,0-5.967-15.282A30.112,30.112,0,0,1,74.724,54.767,22.782,22.782,0,0,0,77,54.881,22.553,22.553,0,0,0,99.553,32.328Z" fill="#da387d"/>
      <circle id="Elipse_5917" data-name="Elipse 5917" cx="7.513" cy="7.513" r="7.513" transform="translate(69.487 24.815)" fill="#dd5790"/>
      <path id="Trazado_126139" data-name="Trazado 126139" d="M37.337,12.664,25.278,9.432l2.027,9.58,12.059,3.231Z" fill="#f6e781"/>
      <path id="Trazado_126140" data-name="Trazado 126140" d="M32.819,29.526,20.76,26.3l6.545-7.283,12.059,3.231Z" fill="#f4dd45"/>
      <g id="Grupo_98912" data-name="Grupo 98912">
        <path id="Trazado_126141" data-name="Trazado 126141" d="M126.73,65.038h-4.824l.38-5.164a45.163,45.163,0,0,0-14.2-36.437A32.332,32.332,0,0,0,46.432,21.8l-5.147-1.379L39.544,12.2a2.255,2.255,0,0,0-1.623-1.712L25.862,7.253A2.257,2.257,0,0,0,23.072,9.9l1.266,5.985a2.256,2.256,0,0,0-1.166,4.353l-4.089,4.55a2.257,2.257,0,0,0,1.094,3.687l12.059,3.231a2.256,2.256,0,0,0,2.262-.671l5.621-6.254,3.532.946a45.808,45.808,0,0,0-8.78,13.838,2.256,2.256,0,0,0,4.184,1.689,41.1,41.1,0,0,1,5.631-9.772,32.626,32.626,0,0,0,.607,7.171,35.561,35.561,0,0,0-4.6,15.355A6.846,6.846,0,0,0,47.519,61.3h58.962a6.846,6.846,0,0,0,6.827-7.293,35.561,35.561,0,0,0-4.6-15.355,32.617,32.617,0,0,0,.606-7.191,40.639,40.639,0,0,1,8.47,28.081c-.543,7.369-2.006,27.239-2.934,39.841C113.47,118.161,89.75,132.856,77,132.856c-13.083,0-36.492-15-37.852-33.471-2.5-33.972-1.23-16.7-2.934-39.841a41.28,41.28,0,0,1,.271-8.659,2.256,2.256,0,0,0-4.469-.618c-.771,5.58-.332,9.19.079,14.771H27.271A11.5,11.5,0,0,0,15.782,76.527v1.01A19.448,19.448,0,0,0,34.445,96.946l.2,2.769c.863,11.715,8.789,21.581,18.12,28.27v6.695a9.175,9.175,0,0,1-5.18,8.23L38.3,147.368A3.488,3.488,0,0,0,39.809,154h74.382a3.488,3.488,0,0,0,1.509-6.632l-9.288-4.457a9.176,9.176,0,0,1-5.18-8.23v-6.695c9.331-6.69,17.257-16.555,18.12-28.27l.2-2.769a19.448,19.448,0,0,0,18.663-19.409v-1.01A11.5,11.5,0,0,0,126.73,65.038ZM77,4.512A27.816,27.816,0,0,1,90.254,56.79H81.145A24.846,24.846,0,0,0,97.136,17.833a2.256,2.256,0,0,0-3.66,2.638,20.3,20.3,0,1,1-36.545,8.814l2.927.784a17.273,17.273,0,0,0,5.979,15.451,2.256,2.256,0,0,0,2.916-3.442,12.761,12.761,0,0,1-4.485-10.827l2.967.795A9.772,9.772,0,1,0,68.4,27.689l-2.967-.795A12.777,12.777,0,1,1,77,45.105a2.256,2.256,0,0,0,0,4.512,17.289,17.289,0,1,0-15.973-23.9L58.1,24.928A20.327,20.327,0,0,1,86.33,14.3a2.256,2.256,0,1,0,2.077-4A24.82,24.82,0,0,0,53.719,23.754L50.8,22.973A27.865,27.865,0,0,1,77,4.512ZM63.747,56.79a27.785,27.785,0,0,1-14.113-29.46l2.916.781A24.842,24.842,0,0,0,72.856,56.79ZM77.585,30.149,73,28.921a5.255,5.255,0,1,1-1.171,4.357l4.588,1.229a2.256,2.256,0,0,0,1.168-4.358ZM35.417,14.484l.979,4.628-7.17-1.921-.979-4.628Zm-3.351,12.5L24.9,25.068l3.162-3.519,7.17,1.921ZM45.195,54.308a31.246,31.246,0,0,1,2.052-9.3,32.175,32.175,0,0,0,8.6,11.779H47.52a2.328,2.328,0,0,1-2.325-2.482Zm63.611,0a2.327,2.327,0,0,1-2.325,2.482H98.152a32.178,32.178,0,0,0,8.6-11.779A31.232,31.232,0,0,1,108.806,54.308ZM20.294,77.537v-1.01a6.985,6.985,0,0,1,6.977-6.977h5.156l1.683,22.86A14.932,14.932,0,0,1,20.294,77.537Zm84.167,69.442,5.231,2.51H44.31l5.231-2.51a13.711,13.711,0,0,0,7.739-12.3v-3.763c7.036,4.128,14.344,6.45,19.72,6.45s12.684-2.322,19.72-6.45v3.763a13.711,13.711,0,0,0,7.74,12.3Zm29.247-69.442A14.932,14.932,0,0,1,119.89,92.41l1.683-22.86h5.156a6.985,6.985,0,0,1,6.977,6.977v1.01Z" fill="#222221"/>
        <path id="Trazado_126142" data-name="Trazado 126142" d="M70.994,71.673H53.017a2.256,2.256,0,1,0,0,4.512H70.994a2.256,2.256,0,1,0,0-4.512Z" fill="#222221"/>
        <path id="Trazado_126143" data-name="Trazado 126143" d="M85.264,91.772V79.936a3.756,3.756,0,0,1,3.751-3.751h11.969a2.256,2.256,0,1,0,0-4.512H89.015a8.273,8.273,0,0,0-8.263,8.263V91.772A3.756,3.756,0,0,1,77,95.523a2.256,2.256,0,0,0,0,4.512A8.273,8.273,0,0,0,85.264,91.772Z" fill="#222221"/>
        <path id="Trazado_126144" data-name="Trazado 126144" d="M63.3,111.117a2.256,2.256,0,0,0-2.022,4.033l1.888.947a30.989,30.989,0,0,0,27.667,0l1.888-.947a2.256,2.256,0,1,0-2.022-4.033l-1.888.947a26.458,26.458,0,0,1-23.621,0Z" fill="#222221"/>
      </g>
    </g>
  </g>
</svg>
