<svg xmlns="http://www.w3.org/2000/svg" width="932.638" height="283.432" viewBox="0 0 932.638 283.432">
  <g id="Grupo_99204" data-name="Grupo 99204" transform="translate(-265 -5817.902)">
    <rect id="Rect치ngulo_34099" data-name="Rect치ngulo 34099" width="36.647" height="36.647" rx="8" transform="matrix(0.985, 0.174, -0.174, 0.985, 323.364, 5953.645)" fill="#ffd41c"/>
    <rect id="Rect치ngulo_34100" data-name="Rect치ngulo 34100" width="45.647" height="45.647" rx="8" transform="matrix(0.966, -0.259, 0.259, 0.966, 1141.732, 5829.717)" fill="#26d19e"/>
    <circle id="Elipse_5080" data-name="Elipse 5080" cx="20.512" cy="20.512" r="20.512" transform="translate(1063.975 6003.822)" fill="#764cf0"/>
    <circle id="Elipse_5081" data-name="Elipse 5081" cx="8.012" cy="8.012" r="8.012" transform="translate(478.975 6015.31)" fill="#764cf0"/>
    <path id="Trazado_114565" data-name="Trazado 114565" d="M662.568-58.417c-5.557-2.619-11.14-5.157-16.69-7.675C618.1-78.694,589.386-91.729,568-114.334a117.188,117.188,0,0,1-30.469-63.449,111.446,111.446,0,0,1,.778-37.081h-4.135a115.525,115.525,0,0,0-.663,37.657,121.313,121.313,0,0,0,31.538,65.662C586.984-88.365,616.072-75.161,644.2-62.4c6.112,2.775,12.263,5.563,18.368,8.48Z" transform="translate(-10.934 6414.169) rotate(-30)" fill="#764cf0"/>
    <g id="personas" transform="translate(265 5795.352)">
      <g id="Grupo_98213" data-name="Grupo 98213" transform="translate(1.709 24.259)">
        <path id="Trazado_125482" data-name="Trazado 125482" d="M111.251,66.874a3.306,3.306,0,0,1-1.323-.282,32.173,32.173,0,0,1-1.313,5.279,10.7,10.7,0,0,1-3.574,4.575l.479,4.187a3.37,3.37,0,0,0,.376,1.14h0a3.622,3.622,0,0,0,1.344,1.318,5.138,5.138,0,0,0,2.165.626c.449.055.9.091,1.355.135a45.912,45.912,0,0,1,6.937.812c.034.01.067.022.1.032a9.1,9.1,0,0,0-1.215-9.37h0a9.1,9.1,0,0,1-2-5.689V63.547h0a3.327,3.327,0,0,1-3.331,3.327Z" transform="translate(-4.171 -25.22)" fill="#596c76"/>
        <path id="Trazado_125483" data-name="Trazado 125483" d="M71.8,24.3H55.226A12.445,12.445,0,0,0,43.189,36.735V51.86a4.24,4.24,0,0,1,4.24-4.24c.2,0,2.881.018,3.069.043V43.343h8.6a28.669,28.669,0,0,0,14.191-3.758c.231,2.138,3.388,3.758,3.388,3.758v4.313c.14-.015,2.771-.031,2.915-.031a4.24,4.24,0,0,1,4.24,4.24V36.735A12.445,12.445,0,0,0,71.8,24.3Z" transform="translate(-2.721 -24.3)" fill="#596c76"/>
        <path id="Trazado_125484" data-name="Trazado 125484" d="M104.6,41.407h-13a9.748,9.748,0,0,0-6.85,3.142v7.715a4.223,4.223,0,0,0-2.231-3.711h0a4.225,4.225,0,0,1-.363,7.622v6.858a3.327,3.327,0,0,1,3.327-3.327c.154,0,2.26.014,2.408.034v-3.4h6.748a22.5,22.5,0,0,0,11.131-2.947c.184,1.675,2.66,2.947,2.66,2.947v3.384c.109-.013,2.174-.025,2.287-.025a3.327,3.327,0,0,1,3.327,3.327V51.166a9.765,9.765,0,0,0-9.442-9.759Z" transform="translate(-3.634 -24.701)" fill="#596c76"/>
        <path id="Trazado_125485" data-name="Trazado 125485" d="M82.067,63.547h0v6.089a9.1,9.1,0,0,1-2,5.69h0a9.042,9.042,0,0,0-1.64,3.2c.453.049.905.092,1.367.135,2.957.293,5.945.293,8.83,1.035a13.937,13.937,0,0,1,2.494.958l0-.02.488-4.27a10.7,10.7,0,0,1-3.461-4.492,32.812,32.812,0,0,1-1.323-5.326h0a3.32,3.32,0,0,1-4.762-3Z" transform="translate(-3.547 -25.22)" fill="#596c76"/>
        <path id="Trazado_125486" data-name="Trazado 125486" d="M16.424,66.874a3.306,3.306,0,0,0,1.323-.282,32.173,32.173,0,0,0,1.313,5.279,10.7,10.7,0,0,0,3.574,4.575l-.479,4.187a3.37,3.37,0,0,1-.376,1.14h0a3.613,3.613,0,0,1-1.352,1.318,5.13,5.13,0,0,1-2.164.626c-.449.055-.9.091-1.356.135a45.915,45.915,0,0,0-6.928.812c-.034.01-.067.022-.1.032a9.1,9.1,0,0,1,1.215-9.37h0a9.1,9.1,0,0,0,2-5.689V63.547h0a3.327,3.327,0,0,0,3.33,3.327Z" transform="translate(-1.922 -25.22)" fill="#596c76"/>
        <path id="Trazado_125487" data-name="Trazado 125487" d="M22.634,41.407h13a9.748,9.748,0,0,1,6.85,3.142v7.715a4.223,4.223,0,0,1,2.231-3.711h0a4.225,4.225,0,0,0,.363,7.622v6.858a3.327,3.327,0,0,0-3.327-3.327c-.154,0-2.26.014-2.408.034v-3.4H32.6a22.5,22.5,0,0,1-11.131-2.947c-.187,1.677-2.662,2.947-2.662,2.947v3.384c-.109-.013-2.174-.025-2.287-.025a3.327,3.327,0,0,0-3.327,3.327V51.166a9.765,9.765,0,0,1,9.443-9.759Z" transform="translate(-2.018 -24.701)" fill="#596c76"/>
        <path id="Trazado_125488" data-name="Trazado 125488" d="M45.617,63.547h0v6.089a9.1,9.1,0,0,0,2,5.69h0a9.042,9.042,0,0,1,1.64,3.2c-.453.049-.905.092-1.367.135-2.957.293-5.945.293-8.83,1.035a13.907,13.907,0,0,0-2.494.958l0-.02-.488-4.27a10.7,10.7,0,0,0,3.461-4.492,32.812,32.812,0,0,0,1.323-5.326h0a3.32,3.32,0,0,0,4.762-3Z" transform="translate(-2.554 -25.22)" fill="#596c76"/>
        <path id="Trazado_125489" data-name="Trazado 125489" d="M110.714,59.989c-.113,0-2.178.013-2.287.025V56.629s-2.477-1.27-2.658-2.949a22.493,22.493,0,0,1-11.133,2.949H87.888v3.393c-.148-.021-2.254-.034-2.408-.034a3.327,3.327,0,1,0,1.435,6.326h0a32.813,32.813,0,0,0,1.323,5.326,10.716,10.716,0,0,0,19.841,0,32.173,32.173,0,0,0,1.313-5.279,3.32,3.32,0,1,0,1.322-6.372Z" transform="translate(-3.634 -24.989)" fill="#ffcebf"/>
        <path id="Trazado_125490" data-name="Trazado 125490" d="M79.595,47.986c-.144,0-2.775.017-2.915.031V43.71s-3.156-1.62-3.389-3.758A28.668,28.668,0,0,1,59.1,43.71H50.5v4.324c-.188-.025-2.873-.043-3.069-.043a4.241,4.241,0,1,0,1.824,8.058h0a41.717,41.717,0,0,0,1.688,6.789,13.656,13.656,0,0,0,25.293,0,40.919,40.919,0,0,0,1.674-6.726,4.19,4.19,0,0,0,1.687.36,4.241,4.241,0,1,0,0-8.482Z" transform="translate(-2.721 -24.667)" fill="#ffcebf"/>
        <path id="Trazado_125491" data-name="Trazado 125491" d="M63.736,83.654a12.929,12.929,0,0,0,10.971-5.83,4.61,4.61,0,0,1-1.714-1.681h0a4.267,4.267,0,0,1-.479-1.453L71.9,69.354a13.613,13.613,0,0,1-16.322-.105l-.623,5.441a3.973,3.973,0,0,1-2.21,3.1A12.926,12.926,0,0,0,63.736,83.654Z" transform="translate(-2.945 -25.353)" fill="#ffa78f"/>
        <path id="Trazado_125492" data-name="Trazado 125492" d="M87.459,80.033c-2.885-.742-5.873-.738-8.83-1.035-.586-.055-1.156-.1-1.729-.171a6.543,6.543,0,0,1-2.759-.8A13.232,13.232,0,0,1,52.182,78a9.723,9.723,0,0,1-4.59.983,46.3,46.3,0,0,0-8.705,1.048A13.965,13.965,0,0,0,28.607,93.5v9.6H97.734V93.5A13.965,13.965,0,0,0,87.459,80.033Z" transform="translate(-2.379 -25.559)" fill="#ade6ea"/>
        <path id="Trazado_125493" data-name="Trazado 125493" d="M105.579,82.08h0a3.349,3.349,0,0,1-.376-1.14l-.479-4.187a10.685,10.685,0,0,1-12.806-.083l-.488,4.27,0,.02a13.991,13.991,0,0,1,6.646,7c.083,0,.162.016.245.016a10.141,10.141,0,0,0,8.611-4.577,3.622,3.622,0,0,1-1.349-1.318Z" transform="translate(-3.852 -25.527)" fill="#ffa78f"/>
        <path id="Trazado_125494" data-name="Trazado 125494" d="M117.537,85.132a45.912,45.912,0,0,0-6.929-.812c-.457-.044-.906-.08-1.355-.135a5.138,5.138,0,0,1-2.165-.626,10.141,10.141,0,0,1-8.606,4.577c-.083,0-.162-.014-.245-.016a13.894,13.894,0,0,1,1.135,5.5v9.6h26.223V95.694a10.955,10.955,0,0,0-8.057-10.562Z" transform="translate(-4.011 -25.689)" fill="#ffe274"/>
        <path id="Trazado_125495" data-name="Trazado 125495" d="M16.521,59.989c.113,0,2.178.013,2.287.025V56.629s2.477-1.27,2.658-2.949A22.493,22.493,0,0,0,32.6,56.629h6.748v3.393c.148-.021,2.254-.034,2.408-.034a3.327,3.327,0,1,1-1.435,6.326h0A32.812,32.812,0,0,1,39,71.64a10.716,10.716,0,0,1-19.841,0,32.174,32.174,0,0,1-1.313-5.279,3.32,3.32,0,1,1-1.322-6.372Z" transform="translate(-2.019 -24.989)" fill="#ffcebf"/>
        <path id="Trazado_125496" data-name="Trazado 125496" d="M22.049,82.08h0a3.37,3.37,0,0,0,.376-1.14l.479-4.187a10.685,10.685,0,0,0,12.806-.083l.488,4.27,0,.02a14,14,0,0,0-6.647,7c-.082,0-.161.016-.244.016A10.144,10.144,0,0,1,20.7,83.4,3.613,3.613,0,0,0,22.049,82.08Z" transform="translate(-2.194 -25.527)" fill="#ffa78f"/>
        <path id="Trazado_125497" data-name="Trazado 125497" d="M9.812,85.132a45.914,45.914,0,0,1,6.928-.812c.458-.044.907-.08,1.356-.135a5.13,5.13,0,0,0,2.16-.626,10.144,10.144,0,0,0,8.607,4.577c.083,0,.162-.014.244-.016a13.9,13.9,0,0,0-1.134,5.5v9.6H1.75V95.694A10.955,10.955,0,0,1,9.812,85.132Z" transform="translate(-1.75 -25.689)" fill="#ffe274"/>
      </g>
      <g id="Grupo_98214" data-name="Grupo 98214" transform="translate(0 22.551)">
        <path id="Trazado_125498" data-name="Trazado 125498" d="M53.095,101.949H48.334a1.709,1.709,0,0,0,0,3.418h4.761a1.709,1.709,0,1,0,0-3.418Z" transform="translate(-1.093 -24.412)"/>
        <path id="Trazado_125499" data-name="Trazado 125499" d="M117.473,82.7A10.753,10.753,0,0,0,115.45,73.3a7.422,7.422,0,0,1-1.622-4.621V50.724a11.512,11.512,0,0,0-1.27-5.251,1.71,1.71,0,0,0-3.039,1.562,7.949,7.949,0,0,1,.892,3.685v7.121a4.98,4.98,0,0,0-1.619-.293h-.578V55.9a1.721,1.721,0,0,0-.923-1.519c-.839-.438-1.7-1.238-1.744-1.614a1.709,1.709,0,0,0-2.545-1.3,20.822,20.822,0,0,1-10.288,2.725H85.966A1.709,1.709,0,0,0,84.257,55.9v1.654h-.7a4.981,4.981,0,0,0-1.618.293V56.71a5.949,5.949,0,0,0,2.595-4.892v-7a7.944,7.944,0,0,1,5.141-2.148h13a1.709,1.709,0,1,0,0-3.418H89.616a11.394,11.394,0,0,0-5.084,1.39v-3.95A14.109,14.109,0,0,0,70.785,22.551H54.157a14.1,14.1,0,0,0-13.69,14.144v3.954a11.5,11.5,0,0,0-5.14-1.394H22.266A11.426,11.426,0,0,0,11.172,50.724V68.675A7.422,7.422,0,0,1,9.55,73.3a10.754,10.754,0,0,0-2.023,9.4A12.7,12.7,0,0,0,0,94.264V101.8a1.708,1.708,0,0,0,1.709,1.709H36.743a1.709,1.709,0,1,0,0-3.418h-7.1V92.2a12.275,12.275,0,0,1,6.824-10.97,13.178,13.178,0,0,1,2.183-.84,33.484,33.484,0,0,1,5.964-.781c2.246-.242,3.869-.076,6.3-.807a15,15,0,0,0,23.136.031,17.454,17.454,0,0,0,3.732.565c2.839.293,5.843.28,8.579.991a12.319,12.319,0,0,1,2.158.833h.007a12.277,12.277,0,0,1,6.824,10.97v7.893H62.5a1.709,1.709,0,0,0,0,3.418h60.791A1.708,1.708,0,0,0,125,101.8V94.264A12.688,12.688,0,0,0,117.473,82.7Zm-3.283-.961c-1.27-.214-2.539-.308-3.769-.4-1.136-.078-2.187-.169-3.345-.293a3.429,3.429,0,0,1-1.443-.4,1.628,1.628,0,0,1-.879-1.172l-.37-3.237a12.426,12.426,0,0,0,3.352-4.688,21.572,21.572,0,0,0,1.074-3.93,4.98,4.98,0,0,0,1.6-.293v1.344a10.855,10.855,0,0,0,2.371,6.758A7.343,7.343,0,0,1,114.189,81.742ZM83.556,60.968c.244,0,2.019.014,2.175.019a1.708,1.708,0,0,0,1.942-1.692V57.61h5.04a24.262,24.262,0,0,0,10.358-2.329,7.715,7.715,0,0,0,1.724,1.581v2.423a1.675,1.675,0,0,0,.526,1.275,1.617,1.617,0,0,0,1.283.43c.266-.011,2.078-.021,2.187-.021a1.615,1.615,0,1,1-.639,3.1A1.71,1.71,0,0,0,105.8,65.27c-.092.425-.177.855-.263,1.289a20.439,20.439,0,0,1-.963,3.711,9.007,9.007,0,0,1-16.674,0,20.6,20.6,0,0,1-.963-3.7c-.089-.454-.178-.906-.275-1.351a1.709,1.709,0,0,0-2.408-1.172,1.6,1.6,0,0,1-.7.16,1.618,1.618,0,0,1,0-3.236Zm-5.04,7.707A7.422,7.422,0,0,1,76.894,73.3a10.665,10.665,0,0,0-1.424,2.375,4.3,4.3,0,0,1-1.152-.423,2.886,2.886,0,0,1-1.048-.989,2.637,2.637,0,0,1-.293-.853l-.5-4.376a15.339,15.339,0,0,0,4.331-5.957,28.907,28.907,0,0,0,1.416-5.318c.1.006.2,0,.293,0Zm-8.993-1.683a11.972,11.972,0,0,1-14.038-.1,1.748,1.748,0,0,0-.307-.226,11.907,11.907,0,0,1-3.664-4.876,26.97,26.97,0,0,1-1.252-4.8c-.115-.575-.228-1.147-.351-1.711A1.71,1.71,0,0,0,47.5,54.1a2.5,2.5,0,0,1-1.089.251,2.532,2.532,0,1,1,0-5.064c.32,0,2.619.018,2.832.028a1.71,1.71,0,0,0,1.943-1.692v-2.62H58.08a30.424,30.424,0,0,0,13.363-3.093,9.427,9.427,0,0,0,2.516,2.353V47.61a1.679,1.679,0,0,0,.529,1.276,1.623,1.623,0,0,0,1.288.43c.317-.015,2.673-.028,2.807-.028a2.532,2.532,0,1,1,0,5.064,2.5,2.5,0,0,1-1-.218,1.71,1.71,0,0,0-2.354,1.206c-.115.536-.223,1.081-.332,1.629a26.941,26.941,0,0,1-1.255,4.816,11.908,11.908,0,0,1-3.8,4.98,1.72,1.72,0,0,0-.31.228ZM52.023,73.4a2.239,2.239,0,0,1-1.331,1.8,5.65,5.65,0,0,1-1.172.447A10.645,10.645,0,0,0,48.106,73.3a7.422,7.422,0,0,1-1.622-4.621V57.766c.151,0,.3-.007.451-.02a28.96,28.96,0,0,0,1.419,5.327,15.322,15.322,0,0,0,4.185,5.833ZM20.429,70.275a20.488,20.488,0,0,1-.964-3.711c-.086-.434-.171-.864-.263-1.289a1.71,1.71,0,0,0-2.354-1.205,1.615,1.615,0,1,1-.637-3.1c.108,0,1.921.011,2.1.015a1.708,1.708,0,0,0,1.894-1.7V56.862a7.7,7.7,0,0,0,1.725-1.581A24.261,24.261,0,0,0,32.288,57.61h5.041v1.685a1.68,1.68,0,0,0,.537,1.293A1.614,1.614,0,0,0,39.175,61c.253-.015,2.026-.028,2.271-.028a1.618,1.618,0,0,1,0,3.236,1.591,1.591,0,0,1-.693-.16,1.708,1.708,0,0,0-2.41,1.172c-.1.444-.187.9-.276,1.351a20.508,20.508,0,0,1-.961,3.7,9.007,9.007,0,0,1-16.674,0ZM40.27,71.557a21.6,21.6,0,0,0,1.074-3.931,5.1,5.1,0,0,0,1.723-.3V68.68a10.856,10.856,0,0,0,2.371,6.758,7.265,7.265,0,0,1,.437.612l-.768.053a36.579,36.579,0,0,0-7.343.987c-.205.056-.4.128-.6.2l-.13-1.132a12.41,12.41,0,0,0,3.236-4.6ZM54.215,25.974H70.729A10.693,10.693,0,0,1,81.114,36.695v9.748a5.9,5.9,0,0,0-2.531-.573c-.013,0-.566,0-1.206.007V43.3a1.71,1.71,0,0,0-.929-1.521c-.955-.488-2.385-1.635-2.471-2.423a1.709,1.709,0,0,0-2.545-1.3,27,27,0,0,1-13.344,3.534h-8.6A1.708,1.708,0,0,0,47.779,43.3v2.582c-.713-.008-1.348-.009-1.361-.009a5.9,5.9,0,0,0-2.532.573V36.695A10.683,10.683,0,0,1,54.215,25.969Zm-31.89,16.7H35.27a7.984,7.984,0,0,1,5.2,2.148v7a5.947,5.947,0,0,0,2.6,4.909v1.113a4.98,4.98,0,0,0-1.619-.293h-.7V55.9a1.709,1.709,0,0,0-1.709-1.708H32.286A20.821,20.821,0,0,1,22,51.467a1.709,1.709,0,0,0-2.545,1.3c-.04.376-.905,1.172-1.738,1.612a1.708,1.708,0,0,0-.93,1.521v1.652h-.577a4.981,4.981,0,0,0-1.619.293V50.724a8.008,8.008,0,0,1,7.735-8.051ZM12.219,75.431a10.855,10.855,0,0,0,2.371-6.758V67.331a4.98,4.98,0,0,0,1.6.293,21.589,21.589,0,0,0,1.074,3.933,12.4,12.4,0,0,0,3.351,4.688l-.369,3.217c-.3,1.645-2.335,1.587-3.711,1.733-.648.064-1.3.11-1.953.156-1.229.088-2.49.182-3.769.4a7.343,7.343,0,0,1,1.405-6.317Zm-8.8,18.833A9.255,9.255,0,0,1,10.2,85.358a26.1,26.1,0,0,1,4.625-.6,33.075,33.075,0,0,0,4.807-.55,11.932,11.932,0,0,0,7.12,4.01,15.569,15.569,0,0,0-.521,3.979v7.893H3.418Zm24.6-9.308a8.594,8.594,0,0,1-5.456-2.592,5.8,5.8,0,0,0,.522-.755,5.041,5.041,0,0,0,.56-1.739l.185-1.607a12.44,12.44,0,0,0,10-.05l.062.536a15.743,15.743,0,0,0-5.877,6.207Zm34.485-4.1a11.451,11.451,0,0,1-8.612-3.813,5.453,5.453,0,0,0,1.531-3.25l.316-2.758a15.45,15.45,0,0,0,13.538.077l.31,2.705a6.023,6.023,0,0,0,.7,2.1,6.308,6.308,0,0,0,.834,1.116A11.451,11.451,0,0,1,62.5,80.854ZM80.626,76.2c-.5-.035-1.013-.081-1.52-.122a6.771,6.771,0,0,1,.46-.645,10.855,10.855,0,0,0,2.371-6.758V67.319a5.041,5.041,0,0,0,1.723.3,21.541,21.541,0,0,0,1.074,3.934,12.4,12.4,0,0,0,3.239,4.59l-.13,1.132c-.209-.066-.414-.142-.627-.2a36.576,36.576,0,0,0-6.591-.882Zm10.487,2.552.062-.54a12.44,12.44,0,0,0,10,.05l.187,1.628a4.989,4.989,0,0,0,1.074,2.477,8.581,8.581,0,0,1-5.457,2.594,15.759,15.759,0,0,0-5.87-6.208Zm30.469,21.339H98.773V92.2a15.569,15.569,0,0,0-.521-3.979,11.929,11.929,0,0,0,7.119-4,16.185,16.185,0,0,0,2.76.383c.684.068,1.367.117,2.051.165a26.121,26.121,0,0,1,4.6.595,9.262,9.262,0,0,1,6.8,8.913Z" transform="translate(0 -22.551)"/>
      </g>
    </g>
  </g>
</svg>
