<svg xmlns="http://www.w3.org/2000/svg" xmlns:xlink="http://www.w3.org/1999/xlink" width="85" height="85" viewBox="0 0 85 85">
  <defs>
    <clipPath id="clip-path">
      <rect id="Rect치ngulo_35700" data-name="Rect치ngulo 35700" width="67" height="67" transform="translate(189 4865)" fill="#ffd41c"/>
    </clipPath>
  </defs>
  <g id="Grupo_99206" data-name="Grupo 99206" transform="translate(-810 -7610.338)">
    <rect id="Rect치ngulo_34163" data-name="Rect치ngulo 34163" width="85" height="85" transform="translate(810 7610.338)" fill="#764cf0"/>
    <g id="Enmascarar_grupo_383" data-name="Enmascarar grupo 383" transform="translate(630 2754.338)" clip-path="url(#clip-path)">
      <g id="boca-a-boca" transform="translate(189 4865)">
        <g id="Grupo_98255" data-name="Grupo 98255">
          <path id="Trazado_125568" data-name="Trazado 125568" d="M63.934,31.589a.7.7,0,0,1,.336,1.161c-2.582,2.772-11.4,11.335-21.892,11.335S23.067,35.522,20.485,32.75a.7.7,0,0,1,.336-1.161,88.523,88.523,0,0,1,21.556-2.776,88.522,88.522,0,0,1,21.556,2.776Z" fill="#335995"/>
        </g>
        <g id="Grupo_98256" data-name="Grupo 98256">
          <path id="Trazado_125569" data-name="Trazado 125569" d="M63.934,31.589c-1.245-.329-3.489-.876-6.424-1.4-4.363,4.186-12.977,11.126-23.131,12.319a22.288,22.288,0,0,0,8,1.575c10.487,0,19.31-8.563,21.892-11.335a.7.7,0,0,0-.336-1.161Z" fill="#21386b"/>
        </g>
        <g id="Grupo_98257" data-name="Grupo 98257">
          <path id="Trazado_125570" data-name="Trazado 125570" d="M42.378,34.192c8.084,0,21.816-4.034,21.581-4.1a88.622,88.622,0,0,0-21.581-2.779A88.629,88.629,0,0,0,20.8,30.1C20.562,30.158,34.293,34.192,42.378,34.192Z" fill="#f4fbff"/>
        </g>
        <g id="Grupo_98258" data-name="Grupo 98258">
          <path id="Trazado_125571" data-name="Trazado 125571" d="M63.959,30.1c-1.2-.317-3.324-.836-6.1-1.34C54,30.186,44.623,33.322,38.406,33.806q-.374.029-.765.048a39.143,39.143,0,0,0,4.738.338c8.084,0,21.815-4.034,21.581-4.1Z" fill="#e4f6ff"/>
        </g>
        <g id="Grupo_98259" data-name="Grupo 98259">
          <path id="Trazado_125572" data-name="Trazado 125572" d="M55.133,45.216a7.067,7.067,0,0,0-11.877-5.143,1.289,1.289,0,0,1-1.756,0,7.067,7.067,0,0,0-11.877,5.143Z" fill="#da387d"/>
        </g>
        <g id="Grupo_98261" data-name="Grupo 98261">
          <g id="Grupo_98260" data-name="Grupo 98260">
            <path id="Trazado_125573" data-name="Trazado 125573" d="M48.066,38.183a7.05,7.05,0,0,0-2.369.408,7.07,7.07,0,0,1,4.7,6.625h4.737a7.068,7.068,0,0,0-7.067-7.033Z" fill="#b94029"/>
          </g>
        </g>
        <g id="Grupo_98262" data-name="Grupo 98262">
          <path id="Trazado_125574" data-name="Trazado 125574" d="M65.463,30.145a28.565,28.565,0,0,0-10.017-6.06,12.536,12.536,0,0,0-11.529,1.539l-.484.341a1.832,1.832,0,0,1-2.111,0l-.484-.341a12.535,12.535,0,0,0-11.529-1.539,28.562,28.562,0,0,0-10.017,6.06,1.831,1.831,0,0,0-.466,1.879C20.191,36.239,26.272,51.6,42.377,51.6S64.563,36.239,65.928,32.024A1.83,1.83,0,0,0,65.463,30.145ZM62.674,33.02C60.28,35.59,52.1,43.529,42.377,43.529s-17.9-7.939-20.3-10.509a.653.653,0,0,1,.311-1.076A82.068,82.068,0,0,1,42.378,29.37a82.067,82.067,0,0,1,19.985,2.574.653.653,0,0,1,.311,1.076Z" fill="#dd5790"/>
        </g>
        <g id="Grupo_98264" data-name="Grupo 98264">
          <g id="Grupo_98263" data-name="Grupo 98263">
            <path id="Trazado_125575" data-name="Trazado 125575" d="M65.463,30.145a28.563,28.563,0,0,0-10.017-6.06,12.485,12.485,0,0,0-7.205-.414,12.457,12.457,0,0,1,1.372.414,28.564,28.564,0,0,1,10.017,6.06,1.829,1.829,0,0,1,.554,1.265c.906.206,1.643.391,2.179.533a.653.653,0,0,1,.311,1.076,41.225,41.225,0,0,1-4.864,4.419c-2.881,5.529-8.479,12.776-18.348,13.987a23.908,23.908,0,0,0,2.916.175c16.1,0,22.186-15.363,23.551-19.577a1.831,1.831,0,0,0-.466-1.879Z" fill="#da387d"/>
          </g>
        </g>
        <g id="Grupo_98265" data-name="Grupo 98265">
          <path id="Trazado_125576" data-name="Trazado 125576" d="M8.9,41.969a.981.981,0,0,0,.9-1.377,21.9,21.9,0,0,1,0-17.662.98.98,0,0,0-1.792-.793,23.856,23.856,0,0,0,0,19.249A.981.981,0,0,0,8.9,41.969Z"/>
          <path id="Trazado_125577" data-name="Trazado 125577" d="M3.306,43.783a.981.981,0,0,0,.9-1.377A26.137,26.137,0,0,1,1.96,31.761a26.607,26.607,0,0,1,.313-4.069.98.98,0,0,0-1.937-.3A28.568,28.568,0,0,0,0,31.761,28.086,28.086,0,0,0,2.41,43.2a.98.98,0,0,0,.9.584Z"/>
          <path id="Trazado_125578" data-name="Trazado 125578" d="M2.027,24.188a.979.979,0,0,0,1.236-.626c.271-.827.587-1.649.939-2.445a.98.98,0,1,0-1.792-.793c-.378.855-.718,1.739-1.009,2.628a.98.98,0,0,0,.626,1.236Z"/>
          <path id="Trazado_125579" data-name="Trazado 125579" d="M14.872,24.819a.981.981,0,0,0-1.278.537,17,17,0,0,0,0,12.809.98.98,0,1,0,1.815-.741,15.041,15.041,0,0,1,0-11.328.98.98,0,0,0-.537-1.278Z"/>
          <path id="Trazado_125580" data-name="Trazado 125580" d="M22.142,31a1.633,1.633,0,0,0-.778,2.692c2.364,2.539,10.866,10.821,21.013,10.821s18.649-8.282,21.013-10.821h0A1.633,1.633,0,0,0,62.613,31,82.747,82.747,0,0,0,42.377,28.39,82.733,82.733,0,0,0,22.142,31Zm32.99.426a65.93,65.93,0,0,1-12.755,1.79,66.123,66.123,0,0,1-12.753-1.79A79.508,79.508,0,0,1,42.377,30.35a79.492,79.492,0,0,1,12.755,1.072Zm-21.9,8.819a6.086,6.086,0,0,1,7.6.55,2.279,2.279,0,0,0,3.091,0,6.079,6.079,0,0,1,7.6-.549,20.922,20.922,0,0,1-9.144,2.307,20.92,20.92,0,0,1-9.146-2.308Zm20.175-1.008a8.043,8.043,0,0,0-10.818.123.311.311,0,0,1-.422,0,8.044,8.044,0,0,0-10.818-.123,39.155,39.155,0,0,1-8.17-6.48c.484-.123,1.062-.263,1.722-.412,4.225,1.062,12.221,2.832,17.478,2.832,5.294,0,13.119-1.764,17.4-2.849.691.156,1.294.3,1.8.429a39.162,39.162,0,0,1-8.171,6.48Z"/>
          <path id="Trazado_125581" data-name="Trazado 125581" d="M66.146,29.442a27.885,27.885,0,0,0-6.631-4.648.98.98,0,0,0-.894,1.744,25.874,25.874,0,0,1,6.16,4.31.847.847,0,0,1,.216.874c-1.436,4.434-7.312,18.9-22.619,18.9A21.478,21.478,0,0,1,35.4,49.5a.98.98,0,0,0-.635,1.854,23.439,23.439,0,0,0,7.611,1.228,22.824,22.824,0,0,0,18.05-8.554,36.116,36.116,0,0,0,6.433-11.7,2.794,2.794,0,0,0-.715-2.884Z"/>
          <path id="Trazado_125582" data-name="Trazado 125582" d="M31.478,47.66c-7.573-4.6-10.885-13.361-11.72-15.938a.847.847,0,0,1,.217-.874A27.474,27.474,0,0,1,29.646,25a11.553,11.553,0,0,1,10.627,1.42l.484.341a2.818,2.818,0,0,0,3.24,0l.484-.341a11.63,11.63,0,0,1,10.07-1.608.98.98,0,1,0,.579-1.872,13.6,13.6,0,0,0-11.779,1.878l-.484.341a.853.853,0,0,1-.982,0l-.484-.341a13.513,13.513,0,0,0-12.43-1.658,29.471,29.471,0,0,0-10.363,6.278,2.8,2.8,0,0,0-.715,2.884c1.137,3.511,4.638,12.2,12.567,17.009a.98.98,0,1,0,1.017-1.675Z"/>
          <path id="Trazado_125583" data-name="Trazado 125583" d="M24.812,13.11l.952,2.523a.98.98,0,0,0,1.834-.692L22.814,2.265,22.8,2.238a1.267,1.267,0,0,0-1.176-.788h0a1.267,1.267,0,0,0-1.176.79l-.009.022L15.614,14.939a.98.98,0,1,0,1.832.7l.962-2.526ZM21.625,4.664l2.448,6.486H19.155Z"/>
          <path id="Trazado_125584" data-name="Trazado 125584" d="M13.651,51.981H11.794l.918-4.414a.98.98,0,0,0-1.919-.4l-1,4.813H7.765l.918-4.414a.98.98,0,0,0-1.919-.4l-1,4.813H3.5a.98.98,0,0,0,0,1.96H5.356L4.533,57.9H2.28a.98.98,0,0,0,0,1.96H4.125L3.188,64.37a.98.98,0,0,0,1.919.4l1.02-4.908H8.154L7.217,64.37a.98.98,0,0,0,1.919.4l1.02-4.908h2.27a.98.98,0,0,0,0-1.96H10.564l.823-3.959h2.264a.98.98,0,0,0,0-1.96ZM8.562,57.9H6.534l.823-3.959H9.385Z"/>
          <circle id="Elipse_5889" data-name="Elipse 5889" cx="0.855" cy="0.855" r="0.855" transform="matrix(0.099, -0.995, 0.995, 0.099, 18.232, 58.823)"/>
          <path id="Trazado_125585" data-name="Trazado 125585" d="M44.473,20.182a.855.855,0,1,0,.855.855A.855.855,0,0,0,44.473,20.182Z"/>
          <path id="Trazado_125586" data-name="Trazado 125586" d="M19.179,42.625a.98.98,0,0,0-.98.98v10.95a.98.98,0,1,0,1.96,0V43.6a.98.98,0,0,0-.98-.98Z"/>
          <path id="Trazado_125587" data-name="Trazado 125587" d="M40.877,11.255a.98.98,0,0,0,.98-.98,2.656,2.656,0,0,1,.025-.366,2.616,2.616,0,0,1,2.592-2.25h.054a2.616,2.616,0,0,1,1.843,4.416,2.593,2.593,0,0,1-1.9.816.98.98,0,0,0-.98.98v3.761a.98.98,0,0,0,1.96,0V14.744a4.6,4.6,0,0,0,2.339-1.319,4.54,4.54,0,0,0,1.251-3.392,4.577,4.577,0,0,0-9.1-.395,4.65,4.65,0,0,0-.044.637.98.98,0,0,0,.98.98Z"/>
        </g>
      </g>
    </g>
  </g>
</svg>
