<svg xmlns="http://www.w3.org/2000/svg" xmlns:xlink="http://www.w3.org/1999/xlink" width="85" height="85" viewBox="0 0 85 85">
  <defs>
    <clipPath id="clip-path">
      <rect id="Rect치ngulo_35233" data-name="Rect치ngulo 35233" width="55" height="55" transform="translate(195 6114)" fill="#26d19e"/>
    </clipPath>
  </defs>
  <g id="Grupo_95340" data-name="Grupo 95340" transform="translate(-180 -6099)">
    <rect id="Rect치ngulo_34178" data-name="Rect치ngulo 34178" width="85" height="85" transform="translate(180 6099)" fill="none"/>
    <g id="Enmascarar_grupo_378" data-name="Enmascarar grupo 378" clip-path="url(#clip-path)">
      <g id="review" transform="translate(195 6114)">
        <g id="Grupo_98064" data-name="Grupo 98064">
          <g id="Grupo_98061" data-name="Grupo 98061">
            <circle id="Elipse_5877" data-name="Elipse 5877" cx="14.831" cy="14.831" r="14.831" transform="translate(0.806 0.844)" fill="#ee596b"/>
            <path id="Trazado_125357" data-name="Trazado 125357" d="M17.983,30.322A14.832,14.832,0,1,1,15.637.845a14.947,14.947,0,0,1,2.346.185,14.833,14.833,0,0,0,0,29.292Z" fill="#ed3a4f"/>
          </g>
          <g id="Grupo_98062" data-name="Grupo 98062">
            <circle id="Elipse_5878" data-name="Elipse 5878" cx="14.831" cy="14.831" r="14.831" transform="translate(4.375 24.493)" fill="#f9da41"/>
            <path id="Trazado_125358" data-name="Trazado 125358" d="M21.552,53.971a14.831,14.831,0,1,1,0-29.292,14.833,14.833,0,0,0,0,29.292Z" fill="#edc932"/>
          </g>
          <g id="Grupo_98063" data-name="Grupo 98063">
            <circle id="Elipse_5879" data-name="Elipse 5879" cx="14.831" cy="14.831" r="14.831" transform="translate(24.533 9.939)" fill="#78d0b1"/>
            <path id="Trazado_125359" data-name="Trazado 125359" d="M41.71,39.416a14.831,14.831,0,1,1,0-29.292,14.833,14.833,0,0,0,0,29.292Z" fill="#66b49d"/>
          </g>
        </g>
        <g id="Grupo_98065" data-name="Grupo 98065">
          <ellipse id="Elipse_5880" data-name="Elipse 5880" cx="1.83" cy="3.041" rx="1.83" ry="3.041" transform="translate(19.573 11.207)"/>
          <ellipse id="Elipse_5881" data-name="Elipse 5881" cx="1.83" cy="3.041" rx="1.83" ry="3.041" transform="translate(8.04 11.207)"/>
          <path id="Trazado_125360" data-name="Trazado 125360" d="M10.191,21.266a.806.806,0,0,0,1.2,1.073,5.683,5.683,0,0,1,8.486,0,.806.806,0,0,0,1.2-1.073,7.294,7.294,0,0,0-10.891,0Z"/>
          <path id="Trazado_125361" data-name="Trazado 125361" d="M23.157,37.622c0,1.683.824,3.053,1.837,3.053s1.837-1.369,1.837-3.053-.824-3.052-1.837-3.052S23.157,35.939,23.157,37.622Z"/>
          <path id="Trazado_125362" data-name="Trazado 125362" d="M13.417,40.674c1.013,0,1.837-1.369,1.837-3.052s-.824-3.052-1.837-3.052-1.837,1.369-1.837,3.052.824,3.053,1.837,3.053Z"/>
          <path id="Trazado_125363" data-name="Trazado 125363" d="M25.8,42.844H12.61a.806.806,0,0,0,0,1.611H25.8a.806.806,0,0,0,0-1.611Z"/>
          <path id="Trazado_125364" data-name="Trazado 125364" d="M39.364,9.133a15.545,15.545,0,0,0-8.6,2.583,15.638,15.638,0,1,0-27.9,12.989.806.806,0,0,0,1.315-.931A14.027,14.027,0,1,1,29.358,12.763a15.611,15.611,0,0,0-5.625,11.591A15.637,15.637,0,0,0,8.624,27.822a14.107,14.107,0,0,1-2.419-1.767.806.806,0,1,0-1.084,1.192,15.738,15.738,0,0,0,2.344,1.76,15.634,15.634,0,1,0,27.371,10.73A15.658,15.658,0,0,0,45.843,39a.806.806,0,0,0-.669-1.466,13.888,13.888,0,0,1-5.81,1.257,14.025,14.025,0,1,1,8.425-2.813.806.806,0,0,0,.969,1.288,15.774,15.774,0,0,0,4.543-5.4,15.472,15.472,0,0,0,1.7-7.1A15.654,15.654,0,0,0,39.364,9.133ZM33.229,39.152c0,.057,0,.114,0,.172a14.014,14.014,0,1,1-9.45-13.261A15.672,15.672,0,0,0,33.229,39.152Z"/>
          <path id="Trazado_125365" data-name="Trazado 125365" d="M45.013,20.209c-.989,0-1.793,1.337-1.793,2.979s.8,2.979,1.793,2.979,1.793-1.337,1.793-2.979S46,20.209,45.013,20.209Z"/>
          <path id="Trazado_125366" data-name="Trazado 125366" d="M35.507,23.188c0-1.643-.8-2.979-1.793-2.979s-1.793,1.337-1.793,2.979.8,2.979,1.793,2.979S35.507,24.831,35.507,23.188Z"/>
          <path id="Trazado_125367" data-name="Trazado 125367" d="M39.363,33.8a7.154,7.154,0,0,0,6.6-4.385.806.806,0,1,0-1.485-.626,5.556,5.556,0,0,1-10.24,0,.806.806,0,0,0-1.485.626A7.155,7.155,0,0,0,39.363,33.8Z"/>
        </g>
      </g>
    </g>
  </g>
</svg>
