<svg xmlns="http://www.w3.org/2000/svg" xmlns:xlink="http://www.w3.org/1999/xlink" width="190" height="134" viewBox="0 0 190 134">
  <defs>
    <clipPath id="clip-path">
      <rect id="Rect치ngulo_35320" data-name="Rect치ngulo 35320" width="101" height="101" transform="translate(224 433)" fill="#26d19e"/>
    </clipPath>
  </defs>
  <g id="Grupo_90792" data-name="Grupo 90792" transform="translate(-180 -417)">
    <rect id="Rect치ngulo_33975" data-name="Rect치ngulo 33975" width="190" height="134" transform="translate(180 417)" fill="#fff"/>
    <g id="Enmascarar_grupo_331" data-name="Enmascarar grupo 331" clip-path="url(#clip-path)">
      <g id="segmento" transform="translate(224 433)">
        <path id="Trazado_123199" data-name="Trazado 123199" d="M50.5,1.479A49.025,49.025,0,0,0,25.987,92.959L50.5,50.5Zm0,0" fill="#aaefb8"/>
        <path id="Trazado_123200" data-name="Trazado 123200" d="M42.057,55.624H9.923L5.879,59.667V70.822A49.228,49.228,0,0,0,25.987,92.959L45.535,59.1Zm0,0" fill="#fff"/>
        <path id="Trazado_123201" data-name="Trazado 123201" d="M50.5,1.479V50.5H99.52A49.021,49.021,0,0,0,50.5,1.479Zm0,0" fill="#62d2f5"/>
        <path id="Trazado_123202" data-name="Trazado 123202" d="M25.987,92.959A49.031,49.031,0,0,0,99.52,50.5H50.5Zm0,0" fill="#feef81"/>
        <path id="Trazado_123203" data-name="Trazado 123203" d="M83.561,81.445H50.548l-3.6,3.6V99.392q1.762.127,3.555.129A48.88,48.88,0,0,0,86.2,84.087Zm0,0" fill="#f072ae"/>
        <path id="Trazado_123204" data-name="Trazado 123204" d="M81.79,75.36A6.086,6.086,0,0,1,75.7,69.275v2.244l-5.432,5.433H63.836L58.4,71.519V69.275a6.086,6.086,0,0,1-6.085,6.085A6.085,6.085,0,0,0,58.4,81.445H75.7A6.086,6.086,0,0,0,81.79,75.36Zm0,0" fill="#f072ae"/>
        <path id="Trazado_123205" data-name="Trazado 123205" d="M75.7,64.274v7.245l-5.433,5.433H63.836L58.4,71.519V64.274a8.65,8.65,0,0,1,17.3,0Zm0,0" fill="#d69660"/>
        <path id="Trazado_123206" data-name="Trazado 123206" d="M68,92.467h-1.9L59.633,81.445H74.476Zm0,0" fill="#fff"/>
        <path id="Trazado_123207" data-name="Trazado 123207" d="M34.64,38.453V45.7L29.208,51.13H22.772L17.339,45.7V38.453a8.65,8.65,0,1,1,17.3,0Zm0,0" fill="#f7e5c6"/>
        <path id="Trazado_123208" data-name="Trazado 123208" d="M27.037,67.794H24.943L17.8,55.624H34.184Zm0,0" fill="#fff"/>
        <path id="Trazado_123209" data-name="Trazado 123209" d="M70.273,76.951H63.836L61,74.116v7.329H73.107V74.116Zm0,0" fill="#9e5e28"/>
        <path id="Trazado_123210" data-name="Trazado 123210" d="M29.208,51.129H22.772l-2.835-2.835v7.33H32.043v-7.33l-2.835,2.835Zm0,0" fill="#f0b582"/>
        <path id="Trazado_123211" data-name="Trazado 123211" d="M62.633,65.586a7.833,7.833,0,0,0,7.691-9.321A8.652,8.652,0,0,0,58.4,64.274v.072a7.8,7.8,0,0,0,4.229,1.241Zm0,0" fill="#f072ae"/>
        <path id="Trazado_123212" data-name="Trazado 123212" d="M76.162,19.4v6.464l-4.847,4.847H65.572l-4.847-4.847V19.4a7.718,7.718,0,1,1,15.437,0Zm0,0" fill="#f7e5c6"/>
        <path id="Trazado_123213" data-name="Trazado 123213" d="M71.315,30.714H65.572l-2.53-2.53v7.494h10.8V28.184Zm0,0" fill="#f0b582"/>
        <path id="Trazado_123214" data-name="Trazado 123214" d="M86.388,50.5V39.286l-3.607-3.608H54.107L50.5,39.286V50.5Zm0,0" fill="#f072ae"/>
        <path id="Trazado_123215" data-name="Trazado 123215" d="M5.425,50.5A49.024,49.024,0,0,1,50.5,1.636V1.479A49.025,49.025,0,0,0,25.987,92.959l1.047-1.815A48.97,48.97,0,0,1,5.425,50.5Zm0,0" fill="#00dba8"/>
        <path id="Trazado_123216" data-name="Trazado 123216" d="M9.825,70.822V59.667l4.043-4.042H9.923L5.879,59.667V70.822A49.228,49.228,0,0,0,25.987,92.959l1.047-1.815A49.219,49.219,0,0,1,9.825,70.822Zm0,0" fill="#cbf0fc"/>
        <path id="Trazado_123217" data-name="Trazado 123217" d="M50.5,1.479V50.5h3.945V1.636q-1.952-.155-3.945-.156Zm0,0" fill="#00a7e8"/>
        <path id="Trazado_123218" data-name="Trazado 123218" d="M29.932,92.959,54.445,50.5H50.5L25.987,92.959A48.8,48.8,0,0,0,50.5,99.52q.992,0,1.973-.039a48.745,48.745,0,0,1-22.542-6.522Zm0,0" fill="#f5bd74"/>
        <path id="Trazado_123219" data-name="Trazado 123219" d="M50.89,99.392V85.048l3.6-3.6H50.548l-3.6,3.6V99.392q1.762.127,3.555.129,1,0,1.983-.039-.8-.032-1.594-.089Zm0,0" fill="#df3f96"/>
        <path id="Trazado_123220" data-name="Trazado 123220" d="M56.265,75.36a6.069,6.069,0,0,0,4.25-1.731L58.4,71.519V69.274a6.085,6.085,0,0,1-6.085,6.085A6.085,6.085,0,0,0,58.4,81.444H62.35a6.084,6.084,0,0,1-6.085-6.084Zm0,0" fill="#df3f96"/>
        <path id="Trazado_123221" data-name="Trazado 123221" d="M62.35,71.519V64.274a8.653,8.653,0,0,1,6.677-8.424A8.655,8.655,0,0,0,58.4,64.274v7.245l5.432,5.432h3.945L62.35,71.519Zm0,0" fill="#9e5e28"/>
        <path id="Trazado_123222" data-name="Trazado 123222" d="M63.578,81.445H59.633l6.473,11.022H68l1.024-1.744Zm0,0" fill="#cbf0fc"/>
        <path id="Trazado_123223" data-name="Trazado 123223" d="M21.285,45.7V38.453a8.653,8.653,0,0,1,6.678-8.424,8.656,8.656,0,0,0-10.623,8.424V45.7l5.433,5.432h3.945L21.285,45.7Zm0,0" fill="#f0b582"/>
        <path id="Trazado_123224" data-name="Trazado 123224" d="M21.741,55.624H17.8l7.147,12.17h2.094l.925-1.576Zm0,0" fill="#cbf0fc"/>
        <path id="Trazado_123225" data-name="Trazado 123225" d="M62.35,64.346v-.072a8.652,8.652,0,0,1,6.675-8.423A8.653,8.653,0,0,0,58.4,64.274v.072a7.845,7.845,0,0,0,6.2.989,7.784,7.784,0,0,1-2.258-.989Zm0,0" fill="#df3f96"/>
        <path id="Trazado_123226" data-name="Trazado 123226" d="M64.671,25.867V19.4a7.722,7.722,0,0,1,5.745-7.464A7.725,7.725,0,0,0,60.725,19.4v6.464l4.847,4.847h3.945l-4.847-4.847Zm0,0" fill="#f0b582"/>
        <path id="Trazado_123227" data-name="Trazado 123227" d="M58.052,35.678H54.107L50.5,39.286V50.5h3.945V39.286Zm0,0" fill="#df3f96"/>
        <path id="Trazado_123228" data-name="Trazado 123228" d="M45.465,84.436v11h2.959V85.661l2.736-2.736h7.626l6.473,11.022H68.85l6.474-11.022h7.949V79.966H81.707a7.508,7.508,0,0,0,1.562-4.606V73.88H81.79a4.611,4.611,0,0,1-4.606-4.606v-5a10.13,10.13,0,0,0-20.26,0v5a4.611,4.611,0,0,1-4.606,4.606H50.839v1.479a7.525,7.525,0,0,0,1.567,4.606H49.934Zm21.691,6.552h-.2l-4.735-8.063h9.674Zm-4.675-13.3.743.743h7.662l.743-.743v2.278H62.481Zm17.644-1.033A4.615,4.615,0,0,1,75.7,79.966H74.587V74.729l1.053-1.053a7.582,7.582,0,0,0,4.485,2.979Zm-5.9-12.381v6.632l-4.566,4.566H64.449l-4.565-4.566V66.651a9.325,9.325,0,0,0,11.984-7.687,7.153,7.153,0,0,1,2.357,5.31Zm-5.249-6.909a6.361,6.361,0,0,1-9.05,6.135A7.18,7.18,0,0,1,68.976,57.365ZM58.468,73.675l1.053,1.053v5.237H58.4a4.615,4.615,0,0,1-4.421-3.311,7.582,7.582,0,0,0,4.485-2.979Zm0,0"/>
        <path id="Trazado_123229" data-name="Trazado 123229" d="M9.309,54.145,5.237,58.217l2.092,2.092L10.535,57.1h6.413L24.1,69.273h3.788L35.031,57.1h7.026V54.144H33.522V48.907l2.6-2.6V38.453a10.13,10.13,0,0,0-20.26,0V46.31l2.6,2.6v5.237ZM26.19,66.314h-.4L20.38,57.1H31.6Zm-.2-35.032a7.179,7.179,0,0,1,7.171,7.171v6.632L28.6,49.65H23.384l-4.566-4.566V38.453a7.179,7.179,0,0,1,7.171-7.171ZM21.416,51.867l.742.742h7.663l.742-.742v2.278H21.416Zm0,0"/>
        <path id="Trazado_123230" data-name="Trazado 123230" d="M87.867,46.555V38.673L83.393,34.2H75.324V28.8l2.318-2.317V19.4a9.2,9.2,0,1,0-18.4,0V26.48L61.563,28.8v5.4H54.445v2.959H82.167L84.908,39.9v6.656ZM62.2,19.4a6.239,6.239,0,1,1,12.478,0v5.851L70.7,29.235H66.185L62.2,25.254Zm2.317,14.8V31.756l.438.438h6.968l.433-.433,0,0V34.2Zm0,0"/>
        <path id="Trazado_123231" data-name="Trazado 123231" d="M81.571,49.02V40.846H78.612V49.02H58.275V40.846H55.316V49.02H51.979V2.982a47.768,47.768,0,0,1,45.908,43.69l2.95-.235A50.5,50.5,0,0,0,50.5,0H49.02V50.1L25.457,90.916a47.546,47.546,0,0,1,21.215-87.8L46.438.162A50.506,50.506,0,0,0,25.246,94.239l1.281.741,24.828-43H98.019A47.6,47.6,0,0,1,50.5,98.041,47.1,47.1,0,0,1,30.116,93.46l-1.27,2.672A50.518,50.518,0,0,0,101,50.5V49.02Zm0,0"/>
        <path id="Trazado_123232" data-name="Trazado 123232" d="M76.127,47.047H70.21V44.088h5.918Zm-7.891,0H65.278V44.088h2.959Zm-4.932,0H60.346V44.088h2.959Zm0,0" fill="#fff"/>
      </g>
    </g>
  </g>
</svg>
