<svg xmlns="http://www.w3.org/2000/svg" xmlns:xlink="http://www.w3.org/1999/xlink" width="400" height="145.333" viewBox="0 0 400 145.333">
  <defs>
    <clipPath id="clip-path">
      <rect id="Rectángulo_35244" data-name="Rectángulo 35244" width="109" height="109" transform="translate(1269 7209)" fill="#26d19e" stroke="#707070" stroke-width="1"/>
    </clipPath>
  </defs>
  <g id="Grupo_99205" data-name="Grupo 99205" transform="translate(-1020 -7189)">
    <path id="Trazado_123084" data-name="Trazado 123084" d="M0,0H400V145.333H25.333Z" transform="translate(1020 7189)" fill="#ccfff0"/>
    <g id="Enmascarar_grupo_395" data-name="Enmascarar grupo 395" transform="translate(-3)" clip-path="url(#clip-path)">
      <g id="analisis-de-mercado" transform="translate(1269 7209)">
        <path id="Trazado_125999" data-name="Trazado 125999" d="M9.083,16.35H99.917a7.267,7.267,0,0,1,7.267,7.267V85.383a7.267,7.267,0,0,1-7.267,7.267H9.083a7.267,7.267,0,0,1-7.267-7.267V23.617A7.267,7.267,0,0,1,9.083,16.35Zm0,0" fill="#e0e0de"/>
        <path id="Trazado_126000" data-name="Trazado 126000" d="M10.9,16.35H98.1v76.3H10.9Zm0,0" fill="#60d1e0"/>
        <path id="Trazado_126001" data-name="Trazado 126001" d="M98.1,29.975,35.425,92.65H98.1Zm0,0" fill="#5ac6d4"/>
        <path id="Trazado_126002" data-name="Trazado 126002" d="M74.483,21.8h3.633v3.633H74.483Zm0,0" fill="#3fb7c7"/>
        <path id="Trazado_126003" data-name="Trazado 126003" d="M81.75,21.8h3.633v3.633H81.75Zm0,0" fill="#3fb7c7"/>
        <path id="Trazado_126004" data-name="Trazado 126004" d="M89.017,21.8H92.65v3.633H89.017Zm0,0" fill="#3fb7c7"/>
        <path id="Trazado_126005" data-name="Trazado 126005" d="M72.485,36.515,54.5,54.5,72.485,72.485a25.432,25.432,0,0,0,0-35.97Zm0,0" fill="#7eb457"/>
        <path id="Trazado_126006" data-name="Trazado 126006" d="M54.5,54.5,36.515,72.485a25.432,25.432,0,0,0,35.97,0Zm0,0" fill="#f35244"/>
        <path id="Trazado_126007" data-name="Trazado 126007" d="M54.5,29.067A25.433,25.433,0,0,0,29.067,54.5H54.5L72.485,36.515A25.357,25.357,0,0,0,54.5,29.067Zm0,0" fill="#ffb531"/>
        <path id="Trazado_126008" data-name="Trazado 126008" d="M29.067,54.5a25.357,25.357,0,0,0,7.449,17.985L54.5,54.5Zm0,0" fill="#348fd9"/>
        <g id="Grupo_98874" data-name="Grupo 98874">
          <path id="Trazado_126009" data-name="Trazado 126009" d="M83.567,39.967H92.65V43.6H83.567Zm0,0" fill="#3fb7c7"/>
          <path id="Trazado_126010" data-name="Trazado 126010" d="M16.35,32.7h10.9v3.633H16.35Zm0,0" fill="#3fb7c7"/>
          <path id="Trazado_126011" data-name="Trazado 126011" d="M16.35,39.967h9.083V43.6H16.35Zm0,0" fill="#3fb7c7"/>
          <path id="Trazado_126012" data-name="Trazado 126012" d="M16.35,70.85h9.083v3.633H16.35Zm0,0" fill="#3fb7c7"/>
          <path id="Trazado_126013" data-name="Trazado 126013" d="M16.35,78.117H29.067V81.75H16.35Zm0,0" fill="#3fb7c7"/>
          <path id="Trazado_126014" data-name="Trazado 126014" d="M79.933,32.7H92.65v3.633H79.933Zm0,0" fill="#3fb7c7"/>
          <path id="Trazado_126015" data-name="Trazado 126015" d="M83.567,67.217H92.65V70.85H83.567Zm0,0" fill="#3fb7c7"/>
          <path id="Trazado_126016" data-name="Trazado 126016" d="M79.933,74.483H92.65v3.633H79.933Zm0,0" fill="#3fb7c7"/>
        </g>
        <path id="Trazado_126017" data-name="Trazado 126017" d="M52.683,23.617h-10.9L45.417,38.15,32.7,23.617H23.617a5.45,5.45,0,0,1-5.45-5.45V7.267a5.45,5.45,0,0,1,5.45-5.45H52.683a5.45,5.45,0,0,1,5.45,5.45v10.9A5.45,5.45,0,0,1,52.683,23.617Zm0,0" fill="#348fd9"/>
        <path id="Trazado_126018" data-name="Trazado 126018" d="M23.617,7.267H27.25V10.9H23.617Zm0,0" fill="#2a71ad"/>
        <path id="Trazado_126019" data-name="Trazado 126019" d="M30.883,7.267h21.8V10.9h-21.8Zm0,0" fill="#2a71ad"/>
        <path id="Trazado_126020" data-name="Trazado 126020" d="M23.617,14.533H52.683v3.633H23.617Zm0,0" fill="#2a71ad"/>
        <path id="Trazado_126021" data-name="Trazado 126021" d="M87.81,83.615A3.634,3.634,0,0,0,83.567,87.2a3.633,3.633,0,0,0-7.267,0,3.633,3.633,0,0,0-7.267,0V72.861a3.77,3.77,0,0,0-3.023-3.779,3.634,3.634,0,0,0-4.244,3.585V98.1l-7.574-4.542a3.2,3.2,0,0,0-3.089-.12l-.285.144a3.208,3.208,0,0,0-.428,5.477l11.375,8.124H90.833V87.394a3.77,3.77,0,0,0-3.023-3.779Zm0,0" fill="#fec9a3"/>
        <path id="Trazado_126022" data-name="Trazado 126022" d="M87.81,83.615a3.815,3.815,0,0,0-.792-.04c-6.133,10.983-16.35,18.851-24.045,23.608h27.86V87.394a3.77,3.77,0,0,0-3.023-3.779Zm0,0" fill="#fec093"/>
        <path id="Trazado_126023" data-name="Trazado 126023" d="M99.917,14.533H63.583v3.633h32.7v76.3h3.633A9.094,9.094,0,0,0,109,85.383V23.617A9.094,9.094,0,0,0,99.917,14.533Zm5.45,70.85a5.45,5.45,0,0,1-5.45,5.45V18.167a5.45,5.45,0,0,1,5.45,5.45Zm0,0"/>
        <path id="Trazado_126024" data-name="Trazado 126024" d="M12.717,18.167V14.533H9.083A9.094,9.094,0,0,0,0,23.617V85.383a9.094,9.094,0,0,0,9.083,9.083H43.6V90.833H12.717ZM3.633,85.383V23.617a5.45,5.45,0,0,1,5.45-5.45V90.833A5.45,5.45,0,0,1,3.633,85.383Zm0,0"/>
        <path id="Trazado_126025" data-name="Trazado 126025" d="M23.617,7.267H27.25V10.9H23.617Zm0,0"/>
        <path id="Trazado_126026" data-name="Trazado 126026" d="M30.883,7.267h21.8V10.9h-21.8Zm0,0"/>
        <path id="Trazado_126027" data-name="Trazado 126027" d="M23.617,14.533H52.683v3.633H23.617Zm0,0"/>
        <path id="Trazado_126028" data-name="Trazado 126028" d="M74.483,21.8h3.633v3.633H74.483Zm0,0"/>
        <path id="Trazado_126029" data-name="Trazado 126029" d="M81.75,21.8h3.633v3.633H81.75Zm0,0"/>
        <path id="Trazado_126030" data-name="Trazado 126030" d="M89.017,21.8H92.65v3.633H89.017Zm0,0"/>
        <path id="Trazado_126031" data-name="Trazado 126031" d="M16.35,32.7h10.9v3.633H16.35Zm0,0"/>
        <path id="Trazado_126032" data-name="Trazado 126032" d="M16.35,39.967h9.083V43.6H16.35Zm0,0"/>
        <path id="Trazado_126033" data-name="Trazado 126033" d="M16.35,70.85h9.083v3.633H16.35Zm0,0"/>
        <path id="Trazado_126034" data-name="Trazado 126034" d="M16.35,78.117H29.067V81.75H16.35Zm0,0"/>
        <path id="Trazado_126035" data-name="Trazado 126035" d="M79.933,32.7H92.65v3.633H79.933Zm0,0"/>
        <path id="Trazado_126036" data-name="Trazado 126036" d="M83.567,39.967H92.65V43.6H83.567Zm0,0"/>
        <path id="Trazado_126037" data-name="Trazado 126037" d="M83.567,67.217H92.65V70.85H83.567Zm0,0"/>
        <path id="Trazado_126038" data-name="Trazado 126038" d="M79.933,74.483H92.65v3.633H79.933Zm0,0"/>
        <path id="Trazado_126039" data-name="Trazado 126039" d="M88.108,81.823a5.467,5.467,0,0,0-4.431,1.224c-.036.029-.071.06-.107.093a5.438,5.438,0,0,0-7.267,0,5.66,5.66,0,0,0-5.45-1.081V76.267a27.664,27.664,0,0,0,2.919-2.5l.009-.012a27.25,27.25,0,0,0,0-38.514l-.011-.012A27.148,27.148,0,0,0,45,28.983l-.889-3.55h8.573a7.267,7.267,0,0,0,7.267-7.267V7.267A7.267,7.267,0,0,0,52.683,0H23.617A7.267,7.267,0,0,0,16.35,7.267v10.9a7.267,7.267,0,0,0,7.267,7.267h8.258l6.358,7.256A27.2,27.2,0,0,0,35.22,73.757l.011.012A27.2,27.2,0,0,0,59.95,81.194v13.7L55.129,92a4.989,4.989,0,0,0-4.833-.182l-.287.142a5.027,5.027,0,0,0-.671,8.584l11.374,8.122a1.815,1.815,0,0,0,1.056.334H90.833a1.817,1.817,0,0,0,1.817-1.817V87.394a5.6,5.6,0,0,0-4.542-5.572ZM72.441,69.867,57.069,54.5,72.436,39.133a23.617,23.617,0,0,1,0,30.734ZM32.7,21.8H23.617a3.634,3.634,0,0,1-3.633-3.633V7.267a3.634,3.634,0,0,1,3.633-3.633H52.683a3.634,3.634,0,0,1,3.633,3.633v10.9A3.634,3.634,0,0,1,52.683,21.8h-10.9a1.816,1.816,0,0,0-1.763,2.257l1.808,7.236-7.761-8.871A1.816,1.816,0,0,0,32.7,21.8Zm5.1,16a23.132,23.132,0,0,1,2.826-2.362l3.423,3.912a1.817,1.817,0,0,0,3.13-1.635l-1.294-5.172a23.5,23.5,0,0,1,23.98,4.024L53.748,52.683h-22.8A23.422,23.422,0,0,1,37.8,37.8ZM50.114,56.317l-13.55,13.55a23.394,23.394,0,0,1-5.611-13.55Zm4.386,21.8a23.46,23.46,0,0,1-15.367-5.679L54.5,57.069,64.717,67.286a5.439,5.439,0,0,0-4.767,5.381v4.81A23.543,23.543,0,0,1,54.5,78.117Zm34.517,27.25H62.348l-10.9-7.785A1.392,1.392,0,0,1,51.63,95.2l.286-.141a1.373,1.373,0,0,1,1.335.051l7.574,4.542a1.817,1.817,0,0,0,2.76-1.555V72.667a1.817,1.817,0,0,1,3.633,0V87.2a1.817,1.817,0,0,0,3.633,0,1.817,1.817,0,0,1,3.633,0,1.817,1.817,0,0,0,3.633,0,1.817,1.817,0,0,1,3.633,0,1.817,1.817,0,0,0,3.633,0,1.816,1.816,0,0,1,2.134-1.789,1.967,1.967,0,0,1,1.5,1.983Zm0,0"/>
      </g>
    </g>
  </g>
</svg>
