<svg xmlns="http://www.w3.org/2000/svg" xmlns:xlink="http://www.w3.org/1999/xlink" width="85" height="85" viewBox="0 0 85 85">
  <defs>
    <clipPath id="clip-path">
      <rect id="Rect치ngulo_35263" data-name="Rect치ngulo 35263" width="67" height="67" transform="translate(189 4865)" fill="#26d19e"/>
    </clipPath>
  </defs>
  <g id="Grupo_99210" data-name="Grupo 99210" transform="translate(-180 -10434.338)">
    <rect id="Rect치ngulo_34163" data-name="Rect치ngulo 34163" width="85" height="85" transform="translate(180 10434.338)" fill="#764cf0"/>
    <g id="Enmascarar_grupo_396" data-name="Enmascarar grupo 396" transform="translate(0 5578.338)" clip-path="url(#clip-path)">
      <g id="reduccion" transform="translate(188.991 4864.996)">
        <g id="Grupo_98878" data-name="Grupo 98878">
          <g id="Grupo_98875" data-name="Grupo 98875">
            <path id="Trazado_126040" data-name="Trazado 126040" d="M28.078,28.28H33.3a1.145,1.145,0,0,1,1.143,1.143V56.981A1.145,1.145,0,0,1,33.3,58.123H28.078a1.145,1.145,0,0,1-1.143-1.143V29.423A1.145,1.145,0,0,1,28.078,28.28Z" fill="#6cf5c2" fill-rule="evenodd"/>
            <path id="Trazado_126041" data-name="Trazado 126041" d="M28.078,28.28h2.286a1.145,1.145,0,0,0-1.143,1.143V56.98a1.145,1.145,0,0,0,1.143,1.143H28.078a1.145,1.145,0,0,1-1.143-1.143V29.423A1.145,1.145,0,0,1,28.078,28.28Z" fill="#00e499" fill-rule="evenodd"/>
            <path id="Trazado_126042" data-name="Trazado 126042" d="M42.026,36.163h5.225a1.145,1.145,0,0,1,1.143,1.143V56.98a1.145,1.145,0,0,1-1.143,1.143H42.026a1.145,1.145,0,0,1-1.143-1.143V37.306A1.145,1.145,0,0,1,42.026,36.163Z" fill="#ffe177" fill-rule="evenodd"/>
            <path id="Trazado_126043" data-name="Trazado 126043" d="M42.026,36.163h2.286a1.145,1.145,0,0,0-1.143,1.143V56.98a1.145,1.145,0,0,0,1.143,1.143H42.026a1.145,1.145,0,0,1-1.143-1.143V37.306A1.145,1.145,0,0,1,42.026,36.163Z" fill="#ffd064" fill-rule="evenodd"/>
            <path id="Trazado_126044" data-name="Trazado 126044" d="M61.2,43.713H55.973a1.145,1.145,0,0,0-1.143,1.143V56.98a1.145,1.145,0,0,0,1.143,1.143H61.2a1.145,1.145,0,0,0,1.143-1.143V44.856A1.145,1.145,0,0,0,61.2,43.713Z" fill="#fe646f" fill-rule="evenodd"/>
            <path id="Trazado_126045" data-name="Trazado 126045" d="M58.259,43.713H55.973a1.145,1.145,0,0,0-1.143,1.143V56.98a1.145,1.145,0,0,0,1.143,1.143h2.286a1.145,1.145,0,0,1-1.143-1.143V44.856A1.145,1.145,0,0,1,58.259,43.713Z" fill="#fd4755" fill-rule="evenodd"/>
            <path id="Trazado_126046" data-name="Trazado 126046" d="M64.824,57.308H10.506a1.143,1.143,0,0,0-1.141,1.141V59a1.143,1.143,0,0,0,1.141,1.141H64.824A1.143,1.143,0,0,0,65.965,59v-.549A1.143,1.143,0,0,0,64.824,57.308Z" fill="#a79ba7" fill-rule="evenodd"/>
            <path id="Trazado_126047" data-name="Trazado 126047" d="M9.365,58.724V59a1.143,1.143,0,0,0,1.141,1.141H64.824A1.143,1.143,0,0,0,65.965,59v-.275Z" fill="#837683" fill-rule="evenodd"/>
          </g>
          <g id="Grupo_98876" data-name="Grupo 98876">
            <path id="Trazado_126048" data-name="Trazado 126048" d="M53.9,28.977a34.1,34.1,0,0,1-16.31-4.943c-7.872-4.7-13.143-11.773-14.918-18.921A32.809,32.809,0,0,0,34.9,17.365a45.255,45.255,0,0,0,19.4,5.726l.222-3.3a.345.345,0,0,1,.576-.233l7.381,6.663a.345.345,0,0,1-.034.54L54.23,32.47a.345.345,0,0,1-.541-.307Z" fill="#ffe177" fill-rule="evenodd"/>
            <path id="Trazado_126049" data-name="Trazado 126049" d="M53.9,28.977a34.1,34.1,0,0,1-16.31-4.943c-7.872-4.7-13.143-11.773-14.918-18.921l.12.21,0,0,0,0h0l0,0,0,0,.048.083c2.218,6.4,8.09,13.083,14.281,16.781A32.834,32.834,0,0,0,53.9,27.177ZM61.457,25.3l-7.665,5.33-.1,1.535a.345.345,0,0,0,.541.307l8.213-5.711a.345.345,0,0,0,.034-.54Z" fill="#ffd064" fill-rule="evenodd"/>
          </g>
          <g id="Grupo_98877" data-name="Grupo 98877">
            <path id="Trazado_126050" data-name="Trazado 126050" d="M19.734,26.01l1.52,4.541a62.9,62.9,0,0,1,8.662,11.031C35.707,51.75,27.47,62.077,16.438,61.891,5.406,62.077-2.832,51.75,2.959,41.583a62.9,62.9,0,0,1,8.662-11.031l1.526-4.536L9.433,22.3a2.331,2.331,0,0,1,2.909-3.609,1.2,1.2,0,0,0,1.818-.753,2.331,2.331,0,0,1,4.555,0,1.2,1.2,0,0,0,1.818.753,2.34,2.34,0,0,1,2.909.312h0a2.338,2.338,0,0,1,0,3.3Z" fill="#ffc338" fill-rule="evenodd"/>
            <path id="Trazado_126051" data-name="Trazado 126051" d="M19.734,26.01l1.52,4.541a62.894,62.894,0,0,1,8.662,11.031C35.707,51.75,27.47,62.077,16.438,61.891c-.216,0-.431,0-.644,0,10.7-.217,18.512-10.337,12.835-20.306a62.9,62.9,0,0,0-8.662-11.031l-1.52-4.541L22.154,22.3a2.338,2.338,0,0,0,0-3.3h0a2.31,2.31,0,0,0-1-.59,2.337,2.337,0,0,1,2.293.59h0a2.338,2.338,0,0,1,0,3.3Zm-9.295-7.594a2.34,2.34,0,0,1,1.9.277l0,0a1.269,1.269,0,0,1-.187.1,1.166,1.166,0,0,1-1.106-.1,2.318,2.318,0,0,0-.614-.277Zm5.354-2.22a2.343,2.343,0,0,1,1.634,1.745,1.2,1.2,0,0,0,1.814.756,1.161,1.161,0,0,1-.525-.756A2.34,2.34,0,0,0,16.438,16.1a2.313,2.313,0,0,0-.645.091Z" fill="#f5b829" fill-rule="evenodd"/>
            <path id="Trazado_126052" data-name="Trazado 126052" d="M11.378,30.551H21.5a2.268,2.268,0,1,0,0-4.536H11.378a2.268,2.268,0,1,0,0,4.536Z" fill="#837683" fill-rule="evenodd"/>
            <path id="Trazado_126053" data-name="Trazado 126053" d="M20.209,30.551H21.5a2.268,2.268,0,1,0,0-4.536H20.209a2.268,2.268,0,1,1,0,4.536Z" fill="#685e68" fill-rule="evenodd"/>
          </g>
        </g>
        <path id="Trazado_126054" data-name="Trazado 126054" d="M21.346,49a3.389,3.389,0,0,1-.794,2.7,5.119,5.119,0,0,1-3.114,1.558v.764a1.047,1.047,0,0,1-2.094,0v-.781a4.707,4.707,0,0,1-3.906-3.432,1.047,1.047,0,1,1,2.033-.506,2.83,2.83,0,0,0,2.913,1.936h.143a3.47,3.47,0,0,0,2.442-.909,1.3,1.3,0,0,0,.3-1.076c-.086-.717-.51-1.6-3.033-2.009-3.524-.58-4.346-2.4-4.415-3.826a4.06,4.06,0,0,1,3.411-4.109l.115-.024v-.8a1.047,1.047,0,1,1,2.094,0v.787a4.679,4.679,0,0,1,3.531,2.846,1.047,1.047,0,1,1-1.93.81,2.7,2.7,0,0,0-2.586-1.663,4.186,4.186,0,0,0-.76.083,2.009,2.009,0,0,0-1.784,1.965c.019.393.07,1.434,2.663,1.861,1.088.178,4.4.721,4.774,3.824ZM64.915,59.123H27.681c.283-.235.556-.483.822-.738H64.915v.738Zm-48.5,1.751.31,0A14.308,14.308,0,0,0,29.17,54.209,11.606,11.606,0,0,0,29,42.131a59.981,59.981,0,0,0-8.208-10.5H12.074a59.924,59.924,0,0,0-8.208,10.5A11.61,11.61,0,0,0,3.7,54.209,14.356,14.356,0,0,0,16.417,60.874ZM11.375,27.092H21.494a1.222,1.222,0,0,1,0,2.444H11.375a1.222,1.222,0,0,1,0-2.444ZM9.8,20.684a1.274,1.274,0,0,1,.373-.908,1.292,1.292,0,0,1,1.6-.171,2.247,2.247,0,0,0,3.407-1.411,1.284,1.284,0,0,1,2.51,0A2.246,2.246,0,0,0,21.1,19.6a1.283,1.283,0,0,1,1.6,1.986L19.292,25H13.576L10.17,21.591a1.272,1.272,0,0,1-.373-.907ZM28,29.376h5.4V56.29H30.31c.233-.328.455-.664.662-1.014a13.8,13.8,0,0,0-.149-14.182A39.661,39.661,0,0,0,28,36.865V29.376Zm13.923,7.87h5.4V56.29h-5.4Zm13.925,7.538h5.4V56.29h-5.4ZM65.962,56.29H63.345V43.738A1.047,1.047,0,0,0,62.3,42.69H54.8a1.047,1.047,0,0,0-1.047,1.047V56.29H49.42V36.2a1.047,1.047,0,0,0-1.047-1.047h-7.5A1.048,1.048,0,0,0,39.827,36.2V56.29H35.5V28.328a1.047,1.047,0,0,0-1.047-1.047h-7.5A1.047,1.047,0,0,0,25.9,28.328v5.913q-1.229-1.466-2.7-3.087a3.314,3.314,0,0,0-1.019-6.083l2-2a3.378,3.378,0,0,0-4.215-5.231.124.124,0,0,1-.139.013.126.126,0,0,1-.09-.107,3.377,3.377,0,0,0-6.6,0,.151.151,0,0,1-.23.094A3.4,3.4,0,0,0,8.69,18.3a3.384,3.384,0,0,0,0,4.777l2,2a3.314,3.314,0,0,0-1.021,6.083,58.366,58.366,0,0,0-7.622,9.941A13.8,13.8,0,0,0,1.9,55.277,16.4,16.4,0,0,0,16.143,62.97h.583a17.589,17.589,0,0,0,7.707-1.753H65.962a1.047,1.047,0,0,0,1.047-1.047V57.338a1.048,1.048,0,0,0-1.047-1.047Zm-31.7-38.156a36.66,36.66,0,0,1-7.117-5.469A33.161,33.161,0,0,0,38,22.951a32.724,32.724,0,0,0,15.672,4.754,1.046,1.046,0,0,1,1.013,1.118l-.109,1.634,6.314-4.6-5.684-4.787-.128,1.917a1.053,1.053,0,0,1-1.073.976A45.945,45.945,0,0,1,34.257,18.135Zm2.673,6.613c-7.8-4.658-13.37-11.734-15.275-19.412a1.046,1.046,0,0,1,1.926-.768,31.74,31.74,0,0,0,11.75,11.769A44.143,44.143,0,0,0,53.061,21.82l.2-2.955a1.047,1.047,0,0,1,1.718-.73l8.285,6.979a1.048,1.048,0,0,1-.059,1.648L54,33.469a1.047,1.047,0,0,1-1.661-.916l.189-2.806a35.068,35.068,0,0,1-15.6-5Z" fill-rule="evenodd"/>
      </g>
    </g>
  </g>
</svg>
