<svg xmlns="http://www.w3.org/2000/svg" xmlns:xlink="http://www.w3.org/1999/xlink" width="85" height="85" viewBox="0 0 85 85">
  <defs>
    <clipPath id="clip-path">
      <rect id="Rect치ngulo_35705" data-name="Rect치ngulo 35705" width="67" height="67" transform="translate(189 4865)" fill="#ffd41c"/>
    </clipPath>
  </defs>
  <g id="Grupo_99208" data-name="Grupo 99208" transform="translate(-180 -7725)">
    <rect id="Rect치ngulo_34163" data-name="Rect치ngulo 34163" width="85" height="85" transform="translate(180 7725)" fill="#764cf0"/>
    <g id="Enmascarar_grupo_381" data-name="Enmascarar grupo 381" transform="translate(0 2869)" clip-path="url(#clip-path)">
      <g id="_x34_._Deslike" transform="translate(188.926 4865)">
        <g id="Grupo_98234" data-name="Grupo 98234">
          <path id="Trazado_125533" data-name="Trazado 125533" d="M35.467,48.952V58.7a7.088,7.088,0,0,0,6.826,7.324A2.729,2.729,0,0,0,44.92,63.2V48.952H54.991V9.627L46.4,7.523H13.66V48.952Z" fill="#fed2a4"/>
          <g id="Grupo_98233" data-name="Grupo 98233">
            <path id="Trazado_125534" data-name="Trazado 125534" d="M49.1,8.185V43.063a3.926,3.926,0,0,1-3.926,3.926H42.957a3.926,3.926,0,0,0-3.926,3.926V61.236a2.832,2.832,0,0,1-1.6,2.6,6.582,6.582,0,0,0,4.863,2.185,2.729,2.729,0,0,0,2.628-2.82V48.952H54.99V9.627Z" fill="#ffbd86"/>
          </g>
          <path id="Trazado_125535" data-name="Trazado 125535" d="M7.767,38.55H22.753a5.182,5.182,0,0,1,0,10.364H7.767a5.182,5.182,0,0,1,0-10.364Z" fill="#fed2a4"/>
          <path id="Trazado_125536" data-name="Trazado 125536" d="M22.753,38.55H20.923a5.181,5.181,0,0,1-4.059,8.4H3.707a5.169,5.169,0,0,0,4.059,1.963H22.753a5.182,5.182,0,0,0,0-10.364Z" fill="#ffbd86"/>
          <path id="Trazado_125537" data-name="Trazado 125537" d="M9.729,28.195H24.715a5.182,5.182,0,1,1,0,10.364H9.729a5.182,5.182,0,0,1,0-10.364Z" fill="#fed2a4"/>
          <path id="Trazado_125538" data-name="Trazado 125538" d="M24.715,28.195H22.886a5.181,5.181,0,0,1-4.059,8.4H5.67a5.169,5.169,0,0,0,4.059,1.963H24.715a5.182,5.182,0,1,0,0-10.364Z" fill="#ffbd86"/>
          <path id="Trazado_125539" data-name="Trazado 125539" d="M11.544,17.851H26.53a5.182,5.182,0,0,1,0,10.364H11.544a5.182,5.182,0,0,1,0-10.364Z" fill="#fed2a4"/>
          <path id="Trazado_125540" data-name="Trazado 125540" d="M26.53,17.851H24.7a5.181,5.181,0,0,1-4.059,8.4H7.485a5.169,5.169,0,0,0,4.059,1.963H26.53a5.182,5.182,0,0,0,0-10.364Z" fill="#ffbd86"/>
          <path id="Trazado_125541" data-name="Trazado 125541" d="M13.655,7.485H28.641a5.182,5.182,0,1,1,0,10.364H13.655a5.182,5.182,0,0,1,0-10.364Z" fill="#fed2a4"/>
          <path id="Trazado_125542" data-name="Trazado 125542" d="M28.641,7.485H26.812a5.181,5.181,0,0,1-4.059,8.4H9.6a5.169,5.169,0,0,0,4.059,1.963H28.641a5.182,5.182,0,1,0,0-10.364Z" fill="#ffbd86"/>
          <path id="Trazado_125543" data-name="Trazado 125543" d="M53.34.981h9.783a1.442,1.442,0,0,1,1.442,1.442V58.206a1.442,1.442,0,0,1-1.442,1.442H53.34A1.442,1.442,0,0,1,51.9,58.206V2.424A1.441,1.441,0,0,1,53.34.981Z" fill="#00bdfd"/>
        </g>
        <g id="Grupo_98245" data-name="Grupo 98245">
          <g id="Grupo_98235" data-name="Grupo 98235">
            <path id="Trazado_125544" data-name="Trazado 125544" d="M51.9,9.851a.964.964,0,0,1-.234-.029L46.284,8.5H29.268a.981.981,0,0,1,0-1.963H46.4a.931.931,0,0,1,.233.029l5.5,1.347A.981.981,0,0,1,51.9,9.851Z"/>
          </g>
          <g id="Grupo_98236" data-name="Grupo 98236">
            <path id="Trazado_125545" data-name="Trazado 125545" d="M13.66,29.2a.982.982,0,0,1-.981-.981v-.02a.981.981,0,0,1,1.963,0v.02A.982.982,0,0,1,13.66,29.2Z"/>
          </g>
          <g id="Grupo_98237" data-name="Grupo 98237">
            <path id="Trazado_125546" data-name="Trazado 125546" d="M42.292,67a8.077,8.077,0,0,1-7.807-8.306V49.933H13.66a.982.982,0,0,1-.981-.981v-.038a.982.982,0,0,1,1.252-.943H35.467a.982.982,0,0,1,.981.981v9.742a6.115,6.115,0,0,0,5.844,6.343,1.55,1.55,0,0,0,1.14-.513A1.926,1.926,0,0,0,43.94,63.2V48.952a.982.982,0,0,1,.981-.981H51.9a.981.981,0,0,1,0,1.963H45.9V63.2a3.885,3.885,0,0,1-1.035,2.664A3.491,3.491,0,0,1,42.292,67Z"/>
          </g>
          <g id="Grupo_98238" data-name="Grupo 98238">
            <path id="Trazado_125547" data-name="Trazado 125547" d="M13.66,39.535a.977.977,0,0,1-.981-.976V38.55a.981.981,0,1,1,.981.985Z"/>
          </g>
          <g id="Grupo_98239" data-name="Grupo 98239">
            <path id="Trazado_125548" data-name="Trazado 125548" d="M13.66,18.832a.981.981,0,0,1-.981-.981h0a.981.981,0,1,1,.981.983Z"/>
          </g>
          <g id="Grupo_98240" data-name="Grupo 98240">
            <path id="Trazado_125549" data-name="Trazado 125549" d="M22.753,49.9H7.767a6.163,6.163,0,0,1,0-12.327H22.753a6.2,6.2,0,0,1,5.563,3.506.981.981,0,0,1-1.771.847,4.225,4.225,0,0,0-3.792-2.391H7.767a4.2,4.2,0,0,0,0,8.4H22.753a4.175,4.175,0,0,0,3.774-2.354.982.982,0,1,1,1.763.865A6.127,6.127,0,0,1,22.753,49.9Z"/>
          </g>
          <g id="Grupo_98241" data-name="Grupo 98241">
            <path id="Trazado_125550" data-name="Trazado 125550" d="M24.715,39.54H9.729a6.163,6.163,0,0,1,0-12.327H24.715a6.163,6.163,0,1,1,0,12.327ZM9.729,29.176a4.2,4.2,0,1,0,0,8.4H24.715a4.2,4.2,0,1,0,0-8.4Z"/>
          </g>
          <g id="Grupo_98242" data-name="Grupo 98242">
            <path id="Trazado_125551" data-name="Trazado 125551" d="M26.53,29.2H11.544a6.163,6.163,0,0,1,0-12.327H26.53a6.163,6.163,0,0,1,0,12.327ZM11.544,18.832a4.2,4.2,0,0,0,0,8.4H26.53a4.2,4.2,0,0,0,0-8.4Z"/>
          </g>
          <g id="Grupo_98243" data-name="Grupo 98243">
            <path id="Trazado_125552" data-name="Trazado 125552" d="M28.641,18.831H13.655a6.163,6.163,0,0,1,0-12.327H28.641a6.163,6.163,0,1,1,0,12.327ZM13.655,8.467a4.2,4.2,0,1,0,0,8.4H28.641a4.2,4.2,0,1,0,0-8.4Z"/>
          </g>
          <g id="Grupo_98244" data-name="Grupo 98244">
            <path id="Trazado_125553" data-name="Trazado 125553" d="M63.121,60.628H53.34A2.427,2.427,0,0,1,50.916,58.2V2.424A2.426,2.426,0,0,1,53.34,0h9.782a2.427,2.427,0,0,1,2.424,2.424v1.86a.981.981,0,1,1-1.963,0V2.424a.461.461,0,0,0-.461-.461H53.34a.461.461,0,0,0-.461.461V58.206a.461.461,0,0,0,.461.461h9.782a.461.461,0,0,0,.461-.461V8.862a.981.981,0,1,1,1.963,0V58.2a2.427,2.427,0,0,1-2.424,2.424Z"/>
          </g>
        </g>
      </g>
    </g>
  </g>
</svg>
