<svg xmlns="http://www.w3.org/2000/svg" xmlns:xlink="http://www.w3.org/1999/xlink" width="85" height="85" viewBox="0 0 85 85">
  <defs>
    <clipPath id="clip-path">
      <rect id="Rect치ngulo_34179" data-name="Rect치ngulo 34179" width="67" height="67" transform="translate(189 4865)" fill="#ffd41c"/>
    </clipPath>
  </defs>
  <g id="Grupo_99212" data-name="Grupo 99212" transform="translate(-810 -10434.338)">
    <rect id="Rect치ngulo_34163" data-name="Rect치ngulo 34163" width="85" height="85" transform="translate(810 10434.338)" fill="#764cf0"/>
    <g id="Enmascarar_grupo_100" data-name="Enmascarar grupo 100" transform="translate(630 5578.338)" clip-path="url(#clip-path)">
      <g id="telemarketing" transform="translate(189 4865)">
        <g id="Grupo_91424" data-name="Grupo 91424">
          <g id="Grupo_91423" data-name="Grupo 91423">
            <g id="Grupo_91422" data-name="Grupo 91422">
              <g id="Grupo_91407" data-name="Grupo 91407">
                <g id="Grupo_91406" data-name="Grupo 91406">
                  <g id="Grupo_91405" data-name="Grupo 91405">
                    <g id="Grupo_91404" data-name="Grupo 91404">
                      <g id="Grupo_91403" data-name="Grupo 91403">
                        <path id="Trazado_115245" data-name="Trazado 115245" d="M61.02.981h-13.1a4.671,4.671,0,0,0-4.671,4.671v5.612a4.673,4.673,0,0,0,3.6,4.547,1.4,1.4,0,0,1,1.07,1.372v4.1a.425.425,0,0,0,.769.25l3.65-5.019a1.416,1.416,0,0,1,1.145-.583H61.02a4.671,4.671,0,0,0,4.671-4.671V5.652A4.671,4.671,0,0,0,61.02.981Z" fill="#d5b0ec"/>
                      </g>
                    </g>
                  </g>
                </g>
              </g>
              <g id="Grupo_91408" data-name="Grupo 91408">
                <path id="Trazado_115246" data-name="Trazado 115246" d="M47.36,16.052a1.421,1.421,0,0,1,.56,1.132v4.1a.425.425,0,0,0,.769.25l3.65-5.019a1.416,1.416,0,0,1,1.145-.583h-6.04Z" fill="#c995e4"/>
                <path id="Trazado_115247" data-name="Trazado 115247" d="M61.02.981H57.729a2.643,2.643,0,0,1,2.643,2.643v9.667a2.643,2.643,0,0,1-2.643,2.643H61.02a4.671,4.671,0,0,0,4.671-4.671V5.652A4.671,4.671,0,0,0,61.02.981Z" fill="#c995e4"/>
              </g>
              <g id="Grupo_91421" data-name="Grupo 91421">
                <g id="Grupo_91420" data-name="Grupo 91420">
                  <g id="Grupo_91419" data-name="Grupo 91419">
                    <g id="Grupo_91409" data-name="Grupo 91409">
                      <path id="Trazado_115248" data-name="Trazado 115248" d="M40.733,43.206c-2.644-1.21-7.642-1.99-10.1-2.318A1.685,1.685,0,0,1,29.189,39.2V31.426H17.628V39.2a1.685,1.685,0,0,1-1.442,1.686c-2.46.328-7.458,1.108-10.1,2.318a8.285,8.285,0,0,0-4.775,7.557V64A1.99,1.99,0,0,0,3.27,66.019H43.546A1.989,1.989,0,0,0,45.508,64V50.763A8.285,8.285,0,0,0,40.733,43.206Z" fill="#ffece3"/>
                    </g>
                    <g id="Grupo_91410" data-name="Grupo 91410">
                      <path id="Trazado_115249" data-name="Trazado 115249" d="M40.733,43.206c-2.644-1.21-7.642-1.99-10.1-2.318A1.685,1.685,0,0,1,29.189,39.2V31.426H23.87V42.278a1.685,1.685,0,0,0,1.442,1.686c2.46.328,7.458,1.108,10.1,2.318a8.285,8.285,0,0,1,4.775,7.557V66.018h3.357A1.99,1.99,0,0,0,45.508,64V50.763A8.285,8.285,0,0,0,40.733,43.206Z" fill="#ffddce"/>
                    </g>
                    <g id="Grupo_91411" data-name="Grupo 91411">
                      <path id="Trazado_115250" data-name="Trazado 115250" d="M40.733,43.206c-2.644-1.21-7.642-1.99-10.1-2.318h0l-7.218,6.967,0,.008,0-.008-7.218-6.967c-2.46.328-7.458,1.108-10.1,2.318a8.285,8.285,0,0,0-4.775,7.557V64A1.99,1.99,0,0,0,3.27,66.019H43.546A1.99,1.99,0,0,0,45.508,64V50.763A8.285,8.285,0,0,0,40.733,43.206Z" fill="#fc8086"/>
                    </g>
                    <path id="Trazado_115251" data-name="Trazado 115251" d="M43.546,66.019A1.99,1.99,0,0,0,45.508,64V50.763a8.285,8.285,0,0,0-4.775-7.557c-2.644-1.21-7.642-1.99-10.1-2.318h0l-3.464,3.343a36.741,36.741,0,0,1,8.251,2.05,8.285,8.285,0,0,1,4.775,7.557v12.18Z" fill="#fb636f"/>
                    <g id="Grupo_91413" data-name="Grupo 91413">
                      <path id="Trazado_115252" data-name="Trazado 115252" d="M9.748,20.889l0,3.594H37.07v-3.6A13.662,13.662,0,0,0,23.407,7.228h0A13.658,13.658,0,0,0,9.748,20.889Z" fill="#fbbe66"/>
                      <path id="Trazado_115253" data-name="Trazado 115253" d="M27.7,19.491H37.07v7.548H27.7Z" fill="#8db9c2"/>
                      <path id="Trazado_115254" data-name="Trazado 115254" d="M9.748,19.491h8.531v7.548H9.748Z" fill="#8db9c2"/>
                      <g id="Grupo_91412" data-name="Grupo 91412">
                        <path id="Trazado_115255" data-name="Trazado 115255" d="M30.022,13.731a2.782,2.782,0,0,0-3.829.14,7.524,7.524,0,0,1-5.332,2.205h-4.2A3.414,3.414,0,0,0,13.5,19.491l.015,8.427c0,6.13,6.9,9.1,9.886,9.16,2.983-.055,9.886-3.03,9.886-9.16l.015-8.427C33.31,16.56,32.042,15.548,30.022,13.731Z" fill="#ffece3"/>
                      </g>
                      <path id="Trazado_115256" data-name="Trazado 115256" d="M30.022,13.731a2.711,2.711,0,0,0-2.059-.683l-.012,14.87c0,4.662-3.992,7.5-7.217,8.614a9.09,9.09,0,0,0,2.669.546c2.983-.055,9.886-3.03,9.886-9.16l.015-8.427c.006-2.931-1.262-3.943-3.281-5.76Z" fill="#ffddce"/>
                    </g>
                    <g id="Grupo_91417" data-name="Grupo 91417">
                      <g id="Grupo_91416" data-name="Grupo 91416">
                        <g id="Grupo_91415" data-name="Grupo 91415">
                          <g id="Grupo_91414" data-name="Grupo 91414">
                            <path id="Trazado_115257" data-name="Trazado 115257" d="M9.748,27.039v-6.15a13.661,13.661,0,1,1,27.321,0v6.152a3.285,3.285,0,0,0,3.285-3.286V20.819a16.946,16.946,0,1,0-33.893,0v2.932a3.286,3.286,0,0,0,3.286,3.286Z" fill="#a8d0d5"/>
                            <path id="Trazado_115258" data-name="Trazado 115258" d="M20.471,33.477H16.633a1.8,1.8,0,0,1,0-3.6h3.838a1.8,1.8,0,0,1,0,3.6Z" fill="#7ba0b0"/>
                          </g>
                        </g>
                      </g>
                    </g>
                    <g id="Grupo_91418" data-name="Grupo 91418">
                      <path id="Trazado_115259" data-name="Trazado 115259" d="M18.044,48.646l5.36-.791-7.218-6.967c-1.025.137-2.491.352-4.043.644l3.141,5.739a2.7,2.7,0,0,0,2.761,1.374Z" fill="#fb636f"/>
                      <path id="Trazado_115260" data-name="Trazado 115260" d="M34.67,41.532c-1.551-.292-3.015-.507-4.039-.643h0l-7.218,6.967,5.36.791a2.7,2.7,0,0,0,2.761-1.374Z" fill="#fb636f"/>
                    </g>
                  </g>
                </g>
                <path id="Trazado_115261" data-name="Trazado 115261" d="M34.888,57.891H29.233a.615.615,0,0,1-.615-.615V54.971a.615.615,0,0,1,.615-.615h5.654a.615.615,0,0,1,.615.615v2.305A.615.615,0,0,1,34.888,57.891Z" fill="#fcdd2e"/>
              </g>
            </g>
          </g>
        </g>
        <g id="Grupo_91426" data-name="Grupo 91426">
          <g id="Grupo_91425" data-name="Grupo 91425">
            <path id="Trazado_115262" data-name="Trazado 115262" d="M60.5,5.284H48.8a.981.981,0,0,0,0,1.963H60.5a.981.981,0,1,0,0-1.963Z"/>
            <path id="Trazado_115263" data-name="Trazado 115263" d="M60.5,9.654H48.8a.981.981,0,0,0,0,1.963H60.5a.981.981,0,1,0,0-1.963Z"/>
            <path id="Trazado_115264" data-name="Trazado 115264" d="M61.02,0H54.275a.981.981,0,1,0,0,1.963H61.02a3.694,3.694,0,0,1,3.69,3.69v5.612a3.694,3.694,0,0,1-3.69,3.69H53.484a2.4,2.4,0,0,0-1.939.987L48.9,19.577V17.184a2.373,2.373,0,0,0-1.827-2.328,3.674,3.674,0,0,1-2.841-3.592V5.652a3.694,3.694,0,0,1,3.69-3.69h1.764a.981.981,0,0,0,0-1.963H47.923a5.659,5.659,0,0,0-5.652,5.652v5.612a5.629,5.629,0,0,0,4.354,5.5.424.424,0,0,1,.313.417v4.1a1.408,1.408,0,0,0,2.544.827l3.65-5.019a.436.436,0,0,1,.351-.179H61.02a5.659,5.659,0,0,0,5.652-5.653V5.652A5.659,5.659,0,0,0,61.02,0Z"/>
            <path id="Trazado_115265" data-name="Trazado 115265" d="M34.888,53.374H29.233a1.6,1.6,0,0,0-1.6,1.6v2.305a1.6,1.6,0,0,0,1.6,1.6h5.654a1.6,1.6,0,0,0,1.6-1.6V54.971A1.6,1.6,0,0,0,34.888,53.374Zm-.366,3.535H29.6V55.337h4.922Z"/>
          </g>
          <path id="Trazado_115266" data-name="Trazado 115266" d="M41.141,42.314c-2.717-1.243-7.657-2.035-10.369-2.4h-.012a.706.706,0,0,1-.591-.713V35.476a9.357,9.357,0,0,0,4.1-7.455h2.8a4.264,4.264,0,0,0,4.267-4.267V20.819a17.928,17.928,0,1,0-35.855,0v2.932A4.273,4.273,0,0,0,8.766,27.9v1.878a2.814,2.814,0,0,0,2.811,2.811H13.9a11,11,0,0,0,2.751,2.889V39.2a.706.706,0,0,1-.591.713c-2.709.361-7.66,1.153-10.38,2.4A9.277,9.277,0,0,0,.327,50.763v3.15a.981.981,0,0,0,1.963,0v-3.15a7.31,7.31,0,0,1,4.2-6.664,25.707,25.707,0,0,1,5.134-1.465l2.8,5.109a3.7,3.7,0,0,0,3.233,1.913c.468,0,.384-.03,4.771-.664V65.037H9.069V60.6a.981.981,0,0,0-1.963,0v4.433H3.27A1.01,1.01,0,0,1,2.29,64V58.526a.981.981,0,1,0-1.963,0V64A2.974,2.974,0,0,0,3.27,67H43.546a2.974,2.974,0,0,0,2.943-3V50.763a9.277,9.277,0,0,0-5.348-8.449Zm-10.175-.389c.6.084,1.354.2,2.187.336L30.668,46.8a1.723,1.723,0,0,1-1.757.874l-3.385-.5ZM34.238,18.51C33.972,15.884,32.6,14.726,30.679,13a3.767,3.767,0,0,0-5.178.175A6.525,6.525,0,0,1,20.862,15.1h-4.2a4.4,4.4,0,0,0-4.033,3.414H10.95a12.683,12.683,0,0,1,24.915,0H34.238Zm-23.5,1.963h1.787l.01,5.585h-1.8c0-5.414-.007-5.147.007-5.585Zm25.351,5.585H34.274l.01-5.585h1.8c.014.436,0,.167.008,5.585Zm-28.644-2.3V20.822a15.965,15.965,0,1,1,31.93,0v2.934a2.3,2.3,0,0,1-1.323,2.086V20.887a14.642,14.642,0,1,0-29.284,0v4.948a2.308,2.308,0,0,1-1.323-2.085Zm4.133,6.877a.849.849,0,0,1-.848-.848V28.02h1.81a8.632,8.632,0,0,0,.426,2.61Zm3.149-.969a6.721,6.721,0,0,1-.227-1.745l-.015-8.425a2.443,2.443,0,0,1,2.175-2.433h4.2a8.475,8.475,0,0,0,6.025-2.492,1.8,1.8,0,0,1,2.479-.106c1.948,1.748,2.961,2.54,2.957,5.029l-.015,8.429a7.532,7.532,0,0,1-3.623,6.21.971.971,0,0,0-.1.067A11.007,11.007,0,0,1,23.4,36.1a10.774,10.774,0,0,1-4.773-1.639h1.84a2.779,2.779,0,0,0,0-5.559H16.633a2.768,2.768,0,0,0-1.907.763ZM16.633,32.5a.817.817,0,1,1,0-1.633h3.838a.817.817,0,0,1,0,1.633ZM17.9,47.675a1.723,1.723,0,0,1-1.757-.874l-2.485-4.54c.832-.14,1.587-.252,2.187-.336l5.44,5.25Zm-.077-6.569a2.7,2.7,0,0,0,.785-1.9V36.692a11.863,11.863,0,0,0,4.776,1.368h.037a11.87,11.87,0,0,0,4.786-1.372V39.2a2.7,2.7,0,0,0,.783,1.9l-5.585,5.39ZM44.527,64a1.01,1.01,0,0,1-.98,1.035H39.711V60.6a.981.981,0,1,0-1.963,0v4.433H24.39V48.992c4.381.633,4.3.664,4.767.664a3.7,3.7,0,0,0,3.233-1.913l2.8-5.11A25.715,25.715,0,0,1,40.325,44.1a7.31,7.31,0,0,1,4.2,6.664V64Z"/>
        </g>
      </g>
    </g>
  </g>
</svg>
