<svg xmlns="http://www.w3.org/2000/svg" xmlns:xlink="http://www.w3.org/1999/xlink" width="190" height="146.104" viewBox="0 0 190 146.104">
  <defs>
    <clipPath id="clip-path">
      <rect id="Rectángulo_35689" data-name="Rectángulo 35689" width="101" height="101" transform="translate(225 434)" fill="#764cf0" stroke="#707070" stroke-width="1"/>
    </clipPath>
  </defs>
  <g id="Grupo_95232" data-name="Grupo 95232" transform="translate(-180 -404.896)">
    <rect id="Rectángulo_33975" data-name="Rectángulo 33975" width="190" height="134" transform="translate(180 417)" fill="none"/>
    <rect id="Rectángulo_35694" data-name="Rectángulo 35694" width="98.789" height="100.95" rx="17" transform="matrix(0.799, 0.602, -0.602, 0.799, 265.928, 404.896)" fill="#fff1b3"/>
    <g id="Enmascarar_grupo_373" data-name="Enmascarar grupo 373" clip-path="url(#clip-path)">
      <g id="cliente" transform="translate(223.371 432.371)">
        <g id="Grupo_98039" data-name="Grupo 98039">
          <g id="Grupo_98024" data-name="Grupo 98024">
            <path id="Trazado_125275" data-name="Trazado 125275" d="M55.387,101H9.774a6.516,6.516,0,0,1-6.516-6.516V9.774A6.516,6.516,0,0,1,9.774,3.258H55.387A6.516,6.516,0,0,1,61.9,9.774v84.71A6.516,6.516,0,0,1,55.387,101Z" fill="#969faa"/>
          </g>
          <g id="Grupo_98025" data-name="Grupo 98025">
            <path id="Trazado_125276" data-name="Trazado 125276" d="M53.758,81.452H11.4a1.63,1.63,0,0,1-1.629-1.629v-61.9A1.63,1.63,0,0,1,11.4,16.29H53.758a1.63,1.63,0,0,1,1.629,1.629v61.9A1.63,1.63,0,0,1,53.758,81.452Z" fill="#69d6f4"/>
          </g>
          <g id="Grupo_98026" data-name="Grupo 98026">
            <path id="Trazado_125277" data-name="Trazado 125277" d="M29.323,55.387h16.29V74.935H29.323Z" fill="#ff826e"/>
          </g>
          <g id="Grupo_98027" data-name="Grupo 98027">
            <circle id="Elipse_5871" data-name="Elipse 5871" cx="13.032" cy="13.032" r="13.032" transform="translate(19.548 22.806)" fill="#3bafda"/>
          </g>
          <g id="Grupo_98028" data-name="Grupo 98028">
            <path id="Trazado_125278" data-name="Trazado 125278" d="M39.1,3.258V9.774a6.516,6.516,0,1,1-13.032,0V3.258Z" fill="#e6e9ed"/>
          </g>
          <g id="Grupo_98029" data-name="Grupo 98029">
            <path id="Trazado_125279" data-name="Trazado 125279" d="M52.129,92.855A1.634,1.634,0,0,1,50.5,94.484h-.961a1.643,1.643,0,0,1-1.14-.472l-2.786-2.786L48.4,88.44a1.643,1.643,0,0,1,1.14-.472H50.5A1.634,1.634,0,0,1,52.129,89.6Z" fill="#e6e9ed"/>
          </g>
          <g id="Grupo_98030" data-name="Grupo 98030">
            <path id="Trazado_125280" data-name="Trazado 125280" d="M35.839,89.6v3.258a1.634,1.634,0,0,1-1.629,1.629H30.952a1.634,1.634,0,0,1-1.629-1.629V89.6a1.634,1.634,0,0,1,1.629-1.629H34.21A1.634,1.634,0,0,1,35.839,89.6Z" fill="#e6e9ed"/>
          </g>
          <g id="Grupo_98031" data-name="Grupo 98031">
            <path id="Trazado_125281" data-name="Trazado 125281" d="M19.548,91.226l-2.786,2.786a1.643,1.643,0,0,1-1.14.472h-.961a1.634,1.634,0,0,1-1.629-1.629V89.6a1.634,1.634,0,0,1,1.629-1.629h.961a1.643,1.643,0,0,1,1.14.472Z" fill="#e6e9ed"/>
          </g>
          <g id="Grupo_98032" data-name="Grupo 98032">
            <path id="Trazado_125282" data-name="Trazado 125282" d="M97.742,39.1H55.387a3.268,3.268,0,0,0-3.258,3.258V68.419a3.268,3.268,0,0,0,3.258,3.258H68.419v4.007a2.5,2.5,0,0,0,3.893,2.085l9.139-6.093h16.29A3.268,3.268,0,0,0,101,68.419V42.355A3.268,3.268,0,0,0,97.742,39.1Z" fill="#e6e9ed"/>
          </g>
          <g id="Grupo_98033" data-name="Grupo 98033">
            <path id="Trazado_125283" data-name="Trazado 125283" d="M94.484,57.456v7.705H58.645V57.456a6.52,6.52,0,0,1,5.229-6.386l5.881-1.189a4.828,4.828,0,0,0,1.922-1.059l4.887,6.565,4.887-6.565a4.828,4.828,0,0,0,1.922,1.059l5.881,1.189a6.52,6.52,0,0,1,5.229,6.386Z" fill="#fcd770"/>
          </g>
          <g id="Grupo_98034" data-name="Grupo 98034">
            <path id="Trazado_125284" data-name="Trazado 125284" d="M87.968,34.21V39.1a3.282,3.282,0,0,0-3.258-3.258h-4.5a15.433,15.433,0,0,1-6.907-1.629,3.252,3.252,0,0,0-2.818,1.629H68.419A3.268,3.268,0,0,0,65.161,39.1V34.21a11.4,11.4,0,1,1,22.806,0Z" fill="#b27946"/>
          </g>
          <g id="Grupo_98035" data-name="Grupo 98035">
            <path id="Trazado_125285" data-name="Trazado 125285" d="M87.007,36.8a3.185,3.185,0,0,1,.961,2.3,3.268,3.268,0,0,1-3.258,3.258H82.869a5.957,5.957,0,0,0,.212-1.629V35.839H84.71A3.185,3.185,0,0,1,87.007,36.8Z" fill="#f0d0b4"/>
          </g>
          <g id="Grupo_98036" data-name="Grupo 98036">
            <path id="Trazado_125286" data-name="Trazado 125286" d="M79.953,46.3a4.792,4.792,0,0,0,1.5,2.525l-4.887,6.565-4.887-6.565a4.792,4.792,0,0,0,1.5-2.525v-.016a21.416,21.416,0,0,0,3.388.961,6.326,6.326,0,0,0,3.388-.961Z" fill="#f0d0b4"/>
          </g>
          <g id="Grupo_98037" data-name="Grupo 98037">
            <path id="Trazado_125287" data-name="Trazado 125287" d="M83.081,35.839v4.887a5.957,5.957,0,0,1-.212,1.629,6.436,6.436,0,0,1-2.916,3.926,6.326,6.326,0,0,1-3.388.961,21.416,21.416,0,0,1-3.388-.961,6.808,6.808,0,0,1-1.222-.945,6.644,6.644,0,0,1-1.694-2.981,5.957,5.957,0,0,1-.212-1.629V37.468a3.266,3.266,0,0,1,3.258-3.258,15.433,15.433,0,0,0,6.907,1.629Z" fill="#f0d0b4"/>
          </g>
          <g id="Grupo_98038" data-name="Grupo 98038">
            <path id="Trazado_125288" data-name="Trazado 125288" d="M70.048,37.468v3.258a5.957,5.957,0,0,0,.212,1.629H68.419A3.282,3.282,0,0,1,65.161,39.1a3.268,3.268,0,0,1,3.258-3.258h2.069A3.249,3.249,0,0,0,70.048,37.468Z" fill="#f0d0b4"/>
          </g>
        </g>
        <g id="Grupo_98040" data-name="Grupo 98040">
          <path id="Trazado_125289" data-name="Trazado 125289" d="M15.616,86.339h-.955A3.261,3.261,0,0,0,11.4,89.6v3.258a3.261,3.261,0,0,0,3.258,3.258h.955a3.236,3.236,0,0,0,2.3-.955l3.932-3.932-3.932-3.932A3.236,3.236,0,0,0,15.616,86.339Zm0,6.516h-.955V89.6h.955l1.629,1.629Z"/>
          <path id="Trazado_125290" data-name="Trazado 125290" d="M34.21,86.339H30.952A3.261,3.261,0,0,0,27.694,89.6v3.258a3.261,3.261,0,0,0,3.258,3.258H34.21a3.261,3.261,0,0,0,3.258-3.258V89.6A3.261,3.261,0,0,0,34.21,86.339Zm-3.258,6.516V89.6H34.21l0,3.258Z"/>
          <path id="Trazado_125291" data-name="Trazado 125291" d="M50.5,86.339h-.955a3.236,3.236,0,0,0-2.3.955l-3.932,3.932,3.932,3.932a3.236,3.236,0,0,0,2.3.955H50.5a3.261,3.261,0,0,0,3.258-3.258V89.6A3.261,3.261,0,0,0,50.5,86.339Zm-.955,6.516-1.629-1.629L49.545,89.6H50.5l0,3.258Z"/>
          <circle id="Elipse_5872" data-name="Elipse 5872" cx="1.629" cy="1.629" r="1.629" transform="translate(30.952 8.145)"/>
          <path id="Trazado_125292" data-name="Trazado 125292" d="M32.581,21.177A14.661,14.661,0,1,0,47.242,35.839,14.678,14.678,0,0,0,32.581,21.177Zm7.964,6.516H37.5a21.579,21.579,0,0,0-1.3-2.66A11.385,11.385,0,0,1,40.545,27.694Zm-7.964-2.273a18.408,18.408,0,0,1,1.333,2.273H31.246A18.6,18.6,0,0,1,32.581,25.421ZM22.293,30.952H26.63a21.3,21.3,0,0,0-.5,3.258H21.308A11.3,11.3,0,0,1,22.293,30.952Zm-.986,6.516h4.819a21.3,21.3,0,0,0,.5,3.258H22.293A11.3,11.3,0,0,1,21.308,37.468Zm3.309,6.516h3.045a21.578,21.578,0,0,0,1.3,2.66A11.385,11.385,0,0,1,24.616,43.984Zm3.043-16.29H24.615a11.4,11.4,0,0,1,4.35-2.66A21.813,21.813,0,0,0,27.659,27.694Zm4.921,18.563a18.2,18.2,0,0,1-1.333-2.272h2.667a18.4,18.4,0,0,1-1.334,2.272Zm2.589-5.531H29.994a18.268,18.268,0,0,1-.59-3.258h6.355A18.268,18.268,0,0,1,35.169,40.726ZM29.4,34.21a18.268,18.268,0,0,1,.59-3.258h5.175a18.268,18.268,0,0,1,.59,3.258ZM36.2,46.644a21.349,21.349,0,0,0,1.3-2.66h3.045A11.385,11.385,0,0,1,36.2,46.644Zm6.673-5.918H38.531a21.3,21.3,0,0,0,.5-3.258h4.819A11.3,11.3,0,0,1,42.868,40.726ZM39.035,34.21a21.294,21.294,0,0,0-.5-3.258h4.336a11.3,11.3,0,0,1,.986,3.258Z"/>
          <path id="Trazado_125293" data-name="Trazado 125293" d="M97.742,37.468H89.6V34.21a13.032,13.032,0,1,0-26.065,0V9.774a8.154,8.154,0,0,0-8.145-8.145H9.774A8.154,8.154,0,0,0,1.629,9.774v84.71a8.154,8.154,0,0,0,8.145,8.145H55.387a8.154,8.154,0,0,0,8.145-8.145V73.306H66.79v2.387a4.129,4.129,0,0,0,6.42,3.436l8.735-5.822h15.8a4.893,4.893,0,0,0,4.887-4.887V42.355a4.893,4.893,0,0,0-4.887-4.887ZM66.79,34.21a9.774,9.774,0,1,1,19.548,0v.3a4.832,4.832,0,0,0-1.629-.3h-4.5a13.882,13.882,0,0,1-6.172-1.458l-.344-.171h-.384A4.862,4.862,0,0,0,69.69,34.21H68.419a4.832,4.832,0,0,0-1.629.3ZM86.339,39.1a1.631,1.631,0,0,1-1.629,1.629V37.468A1.631,1.631,0,0,1,86.339,39.1Zm-9.774,6.516a4.893,4.893,0,0,1-4.887-4.887V37.468A1.629,1.629,0,0,1,73,35.87a17.174,17.174,0,0,0,7.21,1.6h1.245v3.258A4.893,4.893,0,0,1,76.565,45.613ZM79.37,48.9,76.565,52.66l-2.8-3.76c.1-.15.2-.306.293-.466a7.431,7.431,0,0,0,5.019,0C79.166,48.592,79.264,48.747,79.37,48.9Zm-2.805,9.217,5.293-7.1a6.961,6.961,0,0,0,1.188.471l5.891,1.188a4.905,4.905,0,0,1,3.919,4.791v6.073H60.274V57.459a4.9,4.9,0,0,1,3.919-4.789l6.018-1.22a6.586,6.586,0,0,0,1.072-.425ZM68.419,37.468v3.258a1.629,1.629,0,1,1,0-3.258ZM40.726,9.774V4.887H55.387a4.893,4.893,0,0,1,4.887,4.887V37.468H57.016V17.919a3.261,3.261,0,0,0-3.258-3.258h-14.7A8.061,8.061,0,0,0,40.726,9.774ZM53.758,73.007v6.816H11.4v-61.9H53.758V37.767A4.88,4.88,0,0,0,50.5,42.355V68.419A4.88,4.88,0,0,0,53.758,73.007ZM27.694,4.887h9.774V9.774a4.887,4.887,0,0,1-9.774,0Zm32.581,89.6a4.893,4.893,0,0,1-4.887,4.887H9.774a4.893,4.893,0,0,1-4.887-4.887V9.774A4.893,4.893,0,0,1,9.774,4.887H24.435V9.774a8.061,8.061,0,0,0,1.671,4.887H11.4a3.261,3.261,0,0,0-3.258,3.258v61.9A3.261,3.261,0,0,0,11.4,83.081H53.758a3.261,3.261,0,0,0,3.258-3.258V73.306h3.258Zm39.1-26.065a1.631,1.631,0,0,1-1.629,1.629H80.958L71.4,76.418a.9.9,0,0,1-1.355-.725V70.048H55.387a1.631,1.631,0,0,1-1.629-1.629V42.355a1.631,1.631,0,0,1,1.629-1.629h8.445a4.88,4.88,0,0,0,4.587,3.258h.691a8.154,8.154,0,0,0,2.113,2.841,3.129,3.129,0,0,1-1.782,1.461L63.55,49.474a8.171,8.171,0,0,0-6.532,7.984V66.79h39.1V57.459a8.171,8.171,0,0,0-6.532-7.984l-5.765-1.157a3.26,3.26,0,0,1-1.908-1.5,8.159,8.159,0,0,0,2.111-2.839h.689A4.88,4.88,0,0,0,89.3,40.726h8.445a1.631,1.631,0,0,1,1.629,1.629Z"/>
          <path id="Trazado_125294" data-name="Trazado 125294" d="M27.694,76.565H47.242V53.758H27.694Zm3.258-19.548H43.984v16.29H30.952Z"/>
          <path id="Trazado_125295" data-name="Trazado 125295" d="M14.661,53.758h9.774v3.258H14.661Z"/>
          <path id="Trazado_125296" data-name="Trazado 125296" d="M14.661,60.274h9.774v3.258H14.661Z"/>
          <path id="Trazado_125297" data-name="Trazado 125297" d="M14.661,66.79h9.774v3.258H14.661Z"/>
          <path id="Trazado_125298" data-name="Trazado 125298" d="M14.661,73.306h9.774v3.258H14.661Z"/>
        </g>
      </g>
    </g>
  </g>
</svg>
