<svg xmlns="http://www.w3.org/2000/svg" xmlns:xlink="http://www.w3.org/1999/xlink" width="60" height="60" viewBox="0 0 60 60">
  <defs>
    <clipPath id="clip-path">
      <rect id="Rectángulo_35232" data-name="Rectángulo 35232" width="60" height="60" transform="translate(385 3930)" fill="#ffd41c"/>
    </clipPath>
  </defs>
  <g id="Enmascarar_grupo_283" data-name="Enmascarar grupo 283" transform="translate(-385 -3930)" clip-path="url(#clip-path)">
    <g id="autoservicio" transform="translate(385 3930)">
      <path id="Trazado_122975" data-name="Trazado 122975" d="M37.335,57.243V53a1.928,1.928,0,0,0-1.014-1.713,5.4,5.4,0,0,1-2.895-4.782v-.734h-15.1V57.291a.586.586,0,0,0,.586.586H37.969A.634.634,0,0,1,37.335,57.243Z" fill="#00f2a6"/>
      <path id="Trazado_122976" data-name="Trazado 122976" d="M23.6,57.291V45.773H18.326V57.291a.586.586,0,0,0,.586.586h5.273A.586.586,0,0,1,23.6,57.291Z" fill="#05e39c"/>
      <path id="Trazado_122977" data-name="Trazado 122977" d="M55.949,2.123H4.051A3.172,3.172,0,0,0,.879,5.3V42.6a3.172,3.172,0,0,0,3.172,3.172H33.426V31.014a2.117,2.117,0,0,1,2.19-2.116,2.154,2.154,0,0,1,2.045,2.172v7.143a2.117,2.117,0,0,1,4.235,0,2.117,2.117,0,1,1,4.235,0A2.117,2.117,0,0,1,48.32,36.1a2.154,2.154,0,0,1,2.045,2.172v7.5h5.584A3.172,3.172,0,0,0,59.121,42.6V5.3a3.173,3.173,0,0,0-3.173-3.172Z" fill="#6cabca"/>
      <g id="Grupo_95302" data-name="Grupo 95302">
        <path id="Trazado_122978" data-name="Trazado 122978" d="M9.375,42.6V5.3a3.172,3.172,0,0,1,3.172-3.172h-8.5A3.172,3.172,0,0,0,.879,5.3V42.6a3.172,3.172,0,0,0,3.172,3.172h8.5A3.172,3.172,0,0,1,9.375,42.6Z" fill="#3692bc"/>
      </g>
      <path id="Trazado_122979" data-name="Trazado 122979" d="M55.605,5.053H4.395a.586.586,0,0,0-.586.586V42.257a.586.586,0,0,0,.586.586H33.426V31.014a2.117,2.117,0,0,1,2.19-2.116,2.154,2.154,0,0,1,2.045,2.172v7.143a2.117,2.117,0,0,1,4.235,0,2.117,2.117,0,1,1,4.235,0A2.117,2.117,0,0,1,48.32,36.1a2.154,2.154,0,0,1,2.045,2.172v4.575h5.241a.586.586,0,0,0,.586-.586V5.639A.586.586,0,0,0,55.605,5.053Z" fill="#eaf6ff"/>
      <path id="Trazado_122980" data-name="Trazado 122980" d="M9.385,5.053H4.395a.586.586,0,0,0-.586.586V42.257a.586.586,0,0,0,.586.586H9.385c-.006-.08-.01-.161-.01-.243V5.3c0-.082,0-.162.01-.243Z" fill="#d8ecfe"/>
      <g id="Grupo_95305" data-name="Grupo 95305">
        <path id="Trazado_122981" data-name="Trazado 122981" d="M37.734,19.723a.586.586,0,0,1-.586-.586V13.113a11.989,11.989,0,1,0-3.722,21.113V31.014a2.117,2.117,0,0,1,2.19-2.116,2.154,2.154,0,0,1,2.045,2.172v.884A12.009,12.009,0,0,0,41.6,19.723H37.734Z" fill="#2ed1e2"/>
        <g id="Grupo_95303" data-name="Grupo 95303">
          <path id="Trazado_122982" data-name="Trazado 122982" d="M23.948,22.736a12,12,0,0,1,9.018-11.619,11.991,11.991,0,1,0,0,23.239,12,12,0,0,1-9.018-11.619Z" fill="#03bed7"/>
        </g>
        <g id="Grupo_95304" data-name="Grupo 95304">
          <path id="Trazado_122983" data-name="Trazado 122983" d="M31.654,29.945H28.369v-8.6H31.3a.352.352,0,0,1,.352.352Z" fill="#fff"/>
          <path id="Trazado_122984" data-name="Trazado 122984" d="M31.3,18.812H28.72a.352.352,0,0,1-.352-.352V15.878a.352.352,0,0,1,.352-.352H31.3a.352.352,0,0,1,.352.352V18.46A.352.352,0,0,1,31.3,18.812Z" fill="#fff"/>
        </g>
      </g>
      <g id="Grupo_95306" data-name="Grupo 95306">
        <path id="Trazado_122985" data-name="Trazado 122985" d="M48.32,36.1a2.117,2.117,0,0,0-2.19,2.116,2.117,2.117,0,1,0-4.235,0,2.117,2.117,0,0,0-4.235,0V31.069A2.154,2.154,0,0,0,35.616,28.9a2.117,2.117,0,0,0-2.19,2.116V46.507a5.4,5.4,0,0,0,2.895,4.782A1.928,1.928,0,0,1,37.335,53v4.24a.634.634,0,0,0,.634.634h7.852a.634.634,0,0,0,.634-.634V53a1.928,1.928,0,0,1,1.014-1.713,5.4,5.4,0,0,0,2.895-4.782V38.268A2.153,2.153,0,0,0,48.32,36.1Z" fill="#ffcdbe"/>
      </g>
      <g id="Grupo_95308" data-name="Grupo 95308">
        <g id="Grupo_95307" data-name="Grupo 95307">
          <path id="Trazado_122986" data-name="Trazado 122986" d="M39.47,52.032a1.928,1.928,0,0,0-1.014-1.713,5.4,5.4,0,0,1-2.895-4.782V30.044a2.1,2.1,0,0,1,.322-1.117,2.059,2.059,0,0,0-.267-.028,2.117,2.117,0,0,0-2.19,2.116V46.507a5.4,5.4,0,0,0,2.895,4.782A1.928,1.928,0,0,1,37.335,53v4.24a.634.634,0,0,0,.634.634h1.5Z" fill="#ffaf9d"/>
        </g>
      </g>
      <g id="Grupo_95309" data-name="Grupo 95309">
        <path id="Trazado_122987" data-name="Trazado 122987" d="M52.031,19.723h-14.3a.586.586,0,0,1-.586-.586V9.059a.586.586,0,0,1,.586-.586h14.3a.586.586,0,0,1,.586.586V19.137A.586.586,0,0,1,52.031,19.723Z" fill="#00f2a6"/>
      </g>
      <g id="Grupo_95310" data-name="Grupo 95310">
        <path id="Trazado_122988" data-name="Trazado 122988" d="M40.9,19.137V9.059a.586.586,0,0,1,.586-.586h-3.75a.586.586,0,0,0-.586.586V19.137a.586.586,0,0,0,.586.586h3.75A.586.586,0,0,1,40.9,19.137Z" fill="#05e39c"/>
      </g>
      <g id="Grupo_95311" data-name="Grupo 95311">
        <path id="Trazado_122989" data-name="Trazado 122989" d="M12.773,39.294H7.852a.586.586,0,0,1-.586-.586V33.786a.586.586,0,0,1,.586-.586h4.922a.586.586,0,0,1,.586.586v4.922A.586.586,0,0,1,12.773,39.294Z" fill="#00f2a6"/>
      </g>
      <g id="Grupo_95312" data-name="Grupo 95312">
        <path id="Trazado_122990" data-name="Trazado 122990" d="M10.078,38.708V33.786a.586.586,0,0,1,.586-.586H7.852a.586.586,0,0,0-.586.586v4.922a.586.586,0,0,0,.586.586h2.813A.586.586,0,0,1,10.078,38.708Z" fill="#05e39c"/>
      </g>
      <g id="Grupo_95313" data-name="Grupo 95313">
        <path id="Trazado_122991" data-name="Trazado 122991" d="M12.773,30.27H7.852a.586.586,0,0,1-.586-.586V24.762a.586.586,0,0,1,.586-.586h4.922a.586.586,0,0,1,.586.586v4.922A.586.586,0,0,1,12.773,30.27Z" fill="#2ed1e2"/>
      </g>
      <g id="Grupo_95314" data-name="Grupo 95314">
        <path id="Trazado_122992" data-name="Trazado 122992" d="M10.078,29.684V24.762a.586.586,0,0,1,.586-.586H7.852a.586.586,0,0,0-.586.586v4.922a.586.586,0,0,0,.586.586h2.813A.586.586,0,0,1,10.078,29.684Z" fill="#03bed7"/>
      </g>
      <g id="Grupo_95315" data-name="Grupo 95315">
        <path id="Trazado_122993" data-name="Trazado 122993" d="M12.773,21.247H7.852a.586.586,0,0,1-.586-.586V15.739a.586.586,0,0,1,.586-.586h4.922a.586.586,0,0,1,.586.586v4.922A.586.586,0,0,1,12.773,21.247Z" fill="#fe646f"/>
      </g>
      <g id="Grupo_95316" data-name="Grupo 95316">
        <path id="Trazado_122994" data-name="Trazado 122994" d="M10.078,20.661V15.739a.586.586,0,0,1,.586-.586H7.852a.586.586,0,0,0-.586.586v4.922a.586.586,0,0,0,.586.586h2.813A.586.586,0,0,1,10.078,20.661Z" fill="#fd4755"/>
      </g>
      <g id="Grupo_95317" data-name="Grupo 95317">
        <path id="Trazado_122995" data-name="Trazado 122995" d="M55.949,1.244H4.051A4.056,4.056,0,0,0,0,5.3V42.6a4.056,4.056,0,0,0,4.051,4.051h13.4V57.291a1.466,1.466,0,0,0,1.465,1.465h7.221a.879.879,0,1,0,0-1.758H19.205V46.652H32.55a6.261,6.261,0,0,0,3.363,5.416,1.056,1.056,0,0,1,.543.935v4H30.234a.879.879,0,0,0,0,1.758H45.821a1.515,1.515,0,0,0,1.513-1.513V53a1.056,1.056,0,0,1,.543-.935,6.261,6.261,0,0,0,3.363-5.416h4.708A4.056,4.056,0,0,0,60,42.6V5.3a4.056,4.056,0,0,0-4.051-4.051ZM33.188,29.162a.875.875,0,0,0-.4-.1h-.256V21.7a1.232,1.232,0,0,0-1.23-1.23H27.2a.879.879,0,0,0,0,1.758h.294v6.837h-.256a.879.879,0,0,0,0,1.758h5.32c0,.063-.007.126-.007.19V33.55a11.113,11.113,0,1,1,3.722-19.975v5.563A1.466,1.466,0,0,0,37.734,20.6H40.9a11.087,11.087,0,0,1-2.537,9.437,3.027,3.027,0,0,0-2.715-2.019,2.97,2.97,0,0,0-2.185.841,3.058,3.058,0,0,0-.272.3Zm-2.413-6.934v6.837H29.247V22.229ZM49.486,46.507a4.509,4.509,0,0,1-2.424,4A2.8,2.8,0,0,0,45.577,53v4H38.214V53a2.8,2.8,0,0,0-1.485-2.492,4.509,4.509,0,0,1-2.424-4V31.014a1.239,1.239,0,0,1,1.282-1.238,1.278,1.278,0,0,1,1.2,1.293v7.144a.879.879,0,0,0,1.758,0,1.238,1.238,0,1,1,2.477,0,.879.879,0,0,0,1.758,0,1.238,1.238,0,1,1,2.477,0,.879.879,0,0,0,1.758,0,1.238,1.238,0,0,1,1.282-1.238,1.277,1.277,0,0,1,1.2,1.293v8.239ZM58.242,42.6a2.3,2.3,0,0,1-2.293,2.293H51.244V43.722h4.362a1.466,1.466,0,0,0,1.465-1.465V5.639a1.466,1.466,0,0,0-1.465-1.465H16.875a.879.879,0,0,0,0,1.758H55.313V41.964H51.244v-3.7a3.049,3.049,0,0,0-2.894-3.05,2.975,2.975,0,0,0-2.185.841l-.036.035a2.992,2.992,0,0,0-4.234,0,2.993,2.993,0,0,0-3.356-.61V32.349A12.845,12.845,0,0,0,42.683,20.6h9.348A1.466,1.466,0,0,0,53.5,19.137V16.055a.879.879,0,0,0-1.758,0v2.79H38.027V9.352H51.738v2.6a.879.879,0,1,0,1.758,0V9.059a1.466,1.466,0,0,0-1.465-1.465h-14.3A1.466,1.466,0,0,0,36.27,9.059v2.446a12.868,12.868,0,1,0-3.722,23.844v6.615H4.688V5.932h8.086a.879.879,0,0,0,0-1.758H4.395A1.466,1.466,0,0,0,2.93,5.639V42.257a1.466,1.466,0,0,0,1.465,1.465H32.547v1.172H4.051A2.3,2.3,0,0,1,1.758,42.6V5.3A2.3,2.3,0,0,1,4.051,3h51.9A2.3,2.3,0,0,1,58.242,5.3Z"/>
        <path id="Trazado_122996" data-name="Trazado 122996" d="M31.3,14.648H28.72a1.232,1.232,0,0,0-1.23,1.23V18.46a1.232,1.232,0,0,0,1.23,1.23H31.3a1.232,1.232,0,0,0,1.23-1.23V15.878a1.232,1.232,0,0,0-1.23-1.23Zm-.527,3.286H29.247V16.405h1.528Z"/>
        <path id="Trazado_122997" data-name="Trazado 122997" d="M48.633,10.524h-7.5a.879.879,0,0,0,0,1.758h7.5a.879.879,0,0,0,0-1.758Z"/>
        <path id="Trazado_122998" data-name="Trazado 122998" d="M48.633,13.219h-7.5a.879.879,0,0,0,0,1.758h7.5a.879.879,0,0,0,0-1.758Z"/>
        <path id="Trazado_122999" data-name="Trazado 122999" d="M45.469,15.915H41.133a.879.879,0,0,0,0,1.758h4.336a.879.879,0,0,0,0-1.758Z"/>
        <path id="Trazado_123000" data-name="Trazado 123000" d="M12.773,32.321H7.852a1.466,1.466,0,0,0-1.465,1.465v4.922a1.466,1.466,0,0,0,1.465,1.465h4.922a1.466,1.466,0,0,0,1.465-1.465V33.786A1.466,1.466,0,0,0,12.773,32.321Zm-.293,6.094H8.145V34.079H12.48Z"/>
        <path id="Trazado_123001" data-name="Trazado 123001" d="M12.773,23.3H7.852a1.466,1.466,0,0,0-1.465,1.465v4.922a1.466,1.466,0,0,0,1.465,1.465h4.922a1.466,1.466,0,0,0,1.465-1.465V24.762A1.466,1.466,0,0,0,12.773,23.3Zm-.293,6.094H8.145V25.055H12.48Z"/>
        <path id="Trazado_123002" data-name="Trazado 123002" d="M12.773,14.274H7.852a1.466,1.466,0,0,0-1.465,1.465v4.922a1.466,1.466,0,0,0,1.465,1.465h4.922a1.466,1.466,0,0,0,1.465-1.465V15.739A1.466,1.466,0,0,0,12.773,14.274Zm-.293,6.094H8.145V16.032H12.48Z"/>
      </g>
    </g>
  </g>
</svg>
