<svg xmlns="http://www.w3.org/2000/svg" xmlns:xlink="http://www.w3.org/1999/xlink" width="60" height="60" viewBox="0 0 60 60">
  <defs>
    <clipPath id="clip-path">
      <rect id="Rectángulo_35230" data-name="Rectángulo 35230" width="60" height="60" transform="translate(901 3930)" fill="#ffd41c"/>
    </clipPath>
  </defs>
  <g id="Enmascarar_grupo_284" data-name="Enmascarar grupo 284" transform="translate(-901 -3930)" clip-path="url(#clip-path)">
    <g id="estadisticas" transform="translate(901 3930)">
      <path id="Trazado_123003" data-name="Trazado 123003" d="M22.735,19.316V23.15a1.172,1.172,0,0,1-1.172,1.172h-1.05a.586.586,0,0,0-.586.586v1.783a.351.351,0,0,1-.591.258l-2.659-2.469a.586.586,0,0,0-.4-.157H5.4V50.257a1.172,1.172,0,0,0,1.172,1.172H53.554a1.172,1.172,0,0,0,1.172-1.172V19.316Z" fill="#eaf6ff"/>
      <path id="Trazado_123004" data-name="Trazado 123004" d="M11.25,50.257V24.322H5.4V50.257a1.172,1.172,0,0,0,1.172,1.172h5.853A1.172,1.172,0,0,1,11.25,50.257Z" fill="#d8ecfe"/>
      <path id="Trazado_123005" data-name="Trazado 123005" d="M52.968,13.822H22.735v5.495h31.99V15.579A1.758,1.758,0,0,0,52.968,13.822Z" fill="#fe646f"/>
      <path id="Trazado_123006" data-name="Trazado 123006" d="M22.735,13.822v5.495H27.3V15.579a1.758,1.758,0,0,1,1.758-1.758Z" fill="#fd4755"/>
      <g id="Grupo_95318" data-name="Grupo 95318">
        <path id="Trazado_123007" data-name="Trazado 123007" d="M21.563,8.571H2.051A1.172,1.172,0,0,0,.879,9.743V23.15a1.172,1.172,0,0,0,1.172,1.172H16.278a.586.586,0,0,1,.4.157l2.66,2.469a.352.352,0,0,0,.591-.258V24.908a.586.586,0,0,1,.586-.586h1.05a1.172,1.172,0,0,0,1.172-1.172V9.743a1.172,1.172,0,0,0-1.172-1.172Z" fill="#00f2a6"/>
      </g>
      <g id="Grupo_95320" data-name="Grupo 95320">
        <g id="Grupo_95319" data-name="Grupo 95319">
          <path id="Trazado_123008" data-name="Trazado 123008" d="M5.859,23.15V9.743A1.172,1.172,0,0,1,7.031,8.571H2.051A1.172,1.172,0,0,0,.879,9.743V23.15a1.172,1.172,0,0,0,1.172,1.172h4.98A1.172,1.172,0,0,1,5.859,23.15Z" fill="#05e39c"/>
        </g>
      </g>
      <g id="Grupo_95324" data-name="Grupo 95324">
        <path id="Trazado_123009" data-name="Trazado 123009" d="M58.535,24.4H37.867a5.3,5.3,0,0,1,0,7.081H58.535a.586.586,0,0,0,.586-.586V24.983A.586.586,0,0,0,58.535,24.4Z" fill="#c4e2ff"/>
        <path id="Trazado_123010" data-name="Trazado 123010" d="M43.035,30.892V24.983a.586.586,0,0,1,.586-.586H37.867a5.3,5.3,0,0,1,0,7.081h5.754A.586.586,0,0,1,43.035,30.892Z" fill="#b3dafe"/>
        <g id="Grupo_95323" data-name="Grupo 95323">
          <g id="Grupo_95321" data-name="Grupo 95321">
            <circle id="Elipse_5631" data-name="Elipse 5631" cx="5.298" cy="5.298" r="5.298" transform="translate(28.628 22.64)" fill="#ffe177"/>
          </g>
          <g id="Grupo_95322" data-name="Grupo 95322">
            <path id="Trazado_123011" data-name="Trazado 123011" d="M32.578,27.938A5.3,5.3,0,0,1,35.9,23.021a5.3,5.3,0,1,0,0,9.832,5.3,5.3,0,0,1-3.323-4.916Z" fill="#ffc344"/>
          </g>
        </g>
      </g>
      <g id="Grupo_95335" data-name="Grupo 95335">
        <g id="Grupo_95325" data-name="Grupo 95325">
          <path id="Trazado_123012" data-name="Trazado 123012" d="M16.432,46.545H11.747V27.971a.352.352,0,0,1,.352-.352H16.08a.352.352,0,0,1,.352.352Z" fill="#00f2a6"/>
        </g>
        <g id="Grupo_95326" data-name="Grupo 95326">
          <path id="Trazado_123013" data-name="Trazado 123013" d="M14.065,27.619H12.1a.352.352,0,0,0-.352.352V46.545h1.966V27.971A.352.352,0,0,1,14.065,27.619Z" fill="#05e39c"/>
        </g>
        <g id="Grupo_95327" data-name="Grupo 95327">
          <path id="Trazado_123014" data-name="Trazado 123014" d="M24.418,46.545H19.733V32.075a.352.352,0,0,1,.352-.352h3.982a.352.352,0,0,1,.352.352Z" fill="#ffe177"/>
        </g>
        <g id="Grupo_95328" data-name="Grupo 95328">
          <path id="Trazado_123015" data-name="Trazado 123015" d="M22.034,31.723H20.084a.352.352,0,0,0-.352.352v14.47h1.949V32.075A.352.352,0,0,1,22.034,31.723Z" fill="#ffc344"/>
        </g>
        <g id="Grupo_95329" data-name="Grupo 95329">
          <path id="Trazado_123016" data-name="Trazado 123016" d="M32.4,46.545H27.718V39.714a.352.352,0,0,1,.352-.352h3.982a.352.352,0,0,1,.352.352Z" fill="#fe646f"/>
        </g>
        <g id="Grupo_95330" data-name="Grupo 95330">
          <path id="Trazado_123017" data-name="Trazado 123017" d="M30,39.362H28.07a.352.352,0,0,0-.352.352v6.831h1.932V39.714A.352.352,0,0,1,30,39.362Z" fill="#fd4755"/>
        </g>
        <g id="Grupo_95331" data-name="Grupo 95331">
          <path id="Trazado_123018" data-name="Trazado 123018" d="M40.389,46.545H35.7V38a.352.352,0,0,1,.352-.352h3.982a.352.352,0,0,1,.352.352Z" fill="#ffe177"/>
        </g>
        <g id="Grupo_95332" data-name="Grupo 95332">
          <path id="Trazado_123019" data-name="Trazado 123019" d="M37.971,37.652H36.056A.352.352,0,0,0,35.7,38v8.541H37.62V38A.352.352,0,0,1,37.971,37.652Z" fill="#ffc344"/>
        </g>
        <g id="Grupo_95333" data-name="Grupo 95333">
          <path id="Trazado_123020" data-name="Trazado 123020" d="M48.375,46.545H43.69V35.837a.352.352,0,0,1,.352-.352h3.982a.352.352,0,0,1,.352.352Z" fill="#2ed1e2"/>
        </g>
        <g id="Grupo_95334" data-name="Grupo 95334">
          <path id="Trazado_123021" data-name="Trazado 123021" d="M45.94,35.486h-1.9a.352.352,0,0,0-.352.352V46.545h1.9V35.837A.352.352,0,0,1,45.94,35.486Z" fill="#03bed7"/>
        </g>
      </g>
      <g id="Grupo_95336" data-name="Grupo 95336">
        <path id="Trazado_123022" data-name="Trazado 123022" d="M58.535,23.518H55.6V15.579a2.64,2.64,0,0,0-2.637-2.637H47.109a.879.879,0,0,0,0,1.758h5.858a.88.88,0,0,1,.879.879v2.858H23.614V14.7H43.008a.879.879,0,0,0,0-1.758H23.614v-3.2a2.053,2.053,0,0,0-2.051-2.051H11.719a.879.879,0,0,0,0,1.758h9.844a.293.293,0,0,1,.293.293V23.15a.293.293,0,0,1-.293.293h-1.05a1.466,1.466,0,0,0-1.465,1.465v.573l-1.773-1.647a1.46,1.46,0,0,0-1-.391H2.051a.293.293,0,0,1-.293-.293V9.743a.293.293,0,0,1,.293-.293H7.617a.879.879,0,0,0,0-1.758H2.051A2.053,2.053,0,0,0,0,9.743V23.15A2.053,2.053,0,0,0,2.051,25.2H4.518V50.257a2.053,2.053,0,0,0,2.051,2.051h9.721a.879.879,0,1,0,0-1.758H6.568a.293.293,0,0,1-.293-.293V25.2h9.887l2.575,2.391a1.23,1.23,0,0,0,2.068-.9V25.2h.757a2.053,2.053,0,0,0,2.051-2.051V20.2H53.847v3.323H38.236a6.177,6.177,0,1,0,0,8.838H53.847v17.9a.293.293,0,0,1-.293.293H20.391a.879.879,0,1,0,0,1.758H53.554A2.053,2.053,0,0,0,55.6,50.257v-17.9h2.931A1.466,1.466,0,0,0,60,30.892V24.983a1.466,1.466,0,0,0-1.465-1.465ZM29.507,27.938a4.419,4.419,0,1,1,4.419,4.419,4.424,4.424,0,0,1-4.419-4.419ZM58.242,30.6H39.5a6.169,6.169,0,0,0,0-5.323H58.242Z"/>
        <path id="Trazado_123023" data-name="Trazado 123023" d="M34.454,26.982H33.4a.352.352,0,0,0-.352.352v3.352a.352.352,0,0,0,.352.352h1.055a.352.352,0,0,0,.352-.352V27.334A.352.352,0,0,0,34.454,26.982Z"/>
        <path id="Trazado_123024" data-name="Trazado 123024" d="M34.454,24.581H33.4a.352.352,0,0,0-.352.352v1.055a.352.352,0,0,0,.352.352h1.055a.352.352,0,0,0,.352-.352V24.932A.352.352,0,0,0,34.454,24.581Z"/>
        <path id="Trazado_123025" data-name="Trazado 123025" d="M42.79,28.817H55.352a.879.879,0,0,0,0-1.758H42.79a.879.879,0,0,0,0,1.758Z"/>
        <path id="Trazado_123026" data-name="Trazado 123026" d="M16.08,26.74H12.1a1.232,1.232,0,0,0-1.23,1.23v17.7H9.67a.879.879,0,0,0,0,1.758H50.452a.879.879,0,0,0,0-1.758h-1.2V35.837a1.232,1.232,0,0,0-1.23-1.23H44.042a1.232,1.232,0,0,0-1.23,1.23v9.829H41.268V38a1.232,1.232,0,0,0-1.23-1.23H36.056A1.232,1.232,0,0,0,34.825,38v7.662H33.282V39.714a1.232,1.232,0,0,0-1.23-1.23H28.07a1.232,1.232,0,0,0-1.23,1.23v5.952H25.3V32.075a1.232,1.232,0,0,0-1.23-1.23H20.084a1.232,1.232,0,0,0-1.23,1.23V45.666H17.311v-17.7a1.232,1.232,0,0,0-1.23-1.23ZM12.626,28.5h2.927V45.666H12.626Zm31.943,7.867H47.5v9.3H44.569Zm-7.986,2.166H39.51v7.135H36.583ZM28.6,40.241h2.927v5.425H28.6ZM20.612,32.6h2.927V45.666H20.612Z"/>
        <path id="Trazado_123027" data-name="Trazado 123027" d="M11.135,13.907h6.777a.879.879,0,0,0,0-1.758H11.135a.879.879,0,1,0,0,1.758Z"/>
        <path id="Trazado_123028" data-name="Trazado 123028" d="M5.7,12.149a.879.879,0,0,0,0,1.758H8.327a.879.879,0,0,0,0-1.758Z"/>
        <path id="Trazado_123029" data-name="Trazado 123029" d="M18.791,16.447a.879.879,0,0,0-.879-.879H15.9a.879.879,0,1,0,0,1.758h2.015A.879.879,0,0,0,18.791,16.447Z"/>
        <path id="Trazado_123030" data-name="Trazado 123030" d="M5.7,17.326h7.509a.879.879,0,1,0,0-1.758H5.7a.879.879,0,0,0,0,1.758Z"/>
        <path id="Trazado_123031" data-name="Trazado 123031" d="M5.7,20.745h9.4a.879.879,0,0,0,0-1.758H5.7a.879.879,0,0,0,0,1.758Z"/>
      </g>
    </g>
  </g>
</svg>
