<svg xmlns="http://www.w3.org/2000/svg" xmlns:xlink="http://www.w3.org/1999/xlink" width="190" height="149.074" viewBox="0 0 190 149.074">
  <defs>
    <clipPath id="clip-path">
      <rect id="Rectángulo_35685" data-name="Rectángulo 35685" width="101" height="101" transform="translate(225 434)" fill="#764cf0" stroke="#707070" stroke-width="1"/>
    </clipPath>
  </defs>
  <g id="Grupo_95228" data-name="Grupo 95228" transform="translate(-180 -401.926)">
    <rect id="Rectángulo_33975" data-name="Rectángulo 33975" width="190" height="134" transform="translate(180 417)" fill="none"/>
    <rect id="Rectángulo_35690" data-name="Rectángulo 35690" width="98.789" height="100.95" rx="17" transform="matrix(0.799, 0.602, -0.602, 0.799, 285.753, 401.926)" fill="#fff1b3"/>
    <g id="Enmascarar_grupo_370" data-name="Enmascarar grupo 370" clip-path="url(#clip-path)">
      <g id="motivacion" transform="translate(223.371 432.371)">
        <g id="Grupo_97988" data-name="Grupo 97988">
          <g id="Grupo_97979" data-name="Grupo 97979">
            <path id="Trazado_125230" data-name="Trazado 125230" d="M78.194,89.6l-9.774-9.774L47.242,101H89.6V78.194Z" fill="#ff826e"/>
          </g>
          <g id="Grupo_97980" data-name="Grupo 97980">
            <path id="Trazado_125231" data-name="Trazado 125231" d="M99.371,63.532l-3.258,16.29L92.04,75.75,89.6,78.194,83.081,84.71,78.194,89.6l-1.629-1.629-6.516-6.516-1.629-1.629L63.532,84.71l-6.516,6.516L47.242,101H45.613V92.855L68.419,70.048l9.774,9.774,8.96-8.96L83.081,66.79Z" fill="#fc6e51"/>
          </g>
          <g id="Grupo_97981" data-name="Grupo 97981">
            <path id="Trazado_125232" data-name="Trazado 125232" d="M45.792,53.725A17.184,17.184,0,0,1,34.21,63.532V58.645l-3.258-9.774.554-.277a4.886,4.886,0,0,0,2.7-4.366v-.244A4.894,4.894,0,0,0,29.323,39.1l-.847-4.219a4.885,4.885,0,0,0-4.789-3.926H9.774a6.516,6.516,0,0,1,0-13.032H26.341A20.852,20.852,0,0,1,43.4,26.765c-.114.407-.212.815-.31,1.222L39.1,29.323V39.1l3.991,1.336a26.981,26.981,0,0,0,3.5,8.438L44.7,52.634Z" fill="#b27946"/>
          </g>
          <g id="Grupo_97982" data-name="Grupo 97982">
            <path id="Trazado_125233" data-name="Trazado 125233" d="M43.4,26.765a27.078,27.078,0,0,1,3.193-7.217L44.7,15.785l6.923-6.923,3.763,1.89a26.981,26.981,0,0,1,8.438-3.5l1.336-3.991h9.774l1.336,3.991a26.981,26.981,0,0,1,8.438,3.5l3.763-1.89L95.4,15.785l-1.89,3.763a26.981,26.981,0,0,1,3.5,8.438L101,29.323V39.1l-3.991,1.336a26.981,26.981,0,0,1-3.5,8.438l1.89,3.763-6.923,6.923-3.763-1.89a26.981,26.981,0,0,1-8.438,3.5l-1.336,3.991H65.161L63.825,61.17a26.981,26.981,0,0,1-8.438-3.5l-3.763,1.89-5.832-5.832L44.7,52.634l1.89-3.763a26.981,26.981,0,0,1-3.5-8.438L39.1,39.1V29.323l3.991-1.336c.1-.407.2-.815.31-1.222Z" fill="#fcd770"/>
          </g>
          <g id="Grupo_97983" data-name="Grupo 97983">
            <path id="Trazado_125234" data-name="Trazado 125234" d="M70.048,13.032A21.177,21.177,0,1,1,48.871,34.21,21.177,21.177,0,0,1,70.048,13.032Z" fill="#ffeaa7"/>
          </g>
          <g id="Grupo_97984" data-name="Grupo 97984">
            <path id="Trazado_125235" data-name="Trazado 125235" d="M83.081,31.343a6.916,6.916,0,0,1-2.02,4.887L70.048,47.242,59.036,36.23a6.911,6.911,0,0,1,9.774-9.774l1.238,1.238,1.238-1.238a6.907,6.907,0,0,1,11.794,4.887Z" fill="#ff826e"/>
          </g>
          <g id="Grupo_97985" data-name="Grupo 97985">
            <path id="Trazado_125236" data-name="Trazado 125236" d="M43.235,70.8a7.642,7.642,0,0,0-.88-.749L34.21,63.532,19.548,73.306,17.919,66.79a22.625,22.625,0,0,0-11.4,19.646V101H29.323V91.226h16.29V76.565A8.181,8.181,0,0,0,43.235,70.8Z" fill="#4fc1e9"/>
          </g>
          <g id="Grupo_97986" data-name="Grupo 97986">
            <path id="Trazado_125237" data-name="Trazado 125237" d="M45.613,92.855V101H29.323V91.226h16.29Z" fill="#f0d0b4"/>
          </g>
          <g id="Grupo_97987" data-name="Grupo 97987">
            <path id="Trazado_125238" data-name="Trazado 125238" d="M17.919,58.645H14.042a4.061,4.061,0,0,1-1.906-.456,4.253,4.253,0,0,1-2.362-3.812V50.5L4.887,48.871c0-8.145,4.887-17.919,4.887-17.919H23.686a4.885,4.885,0,0,1,4.789,3.926l.847,4.219a4.894,4.894,0,0,1,4.887,4.887v.244a4.886,4.886,0,0,1-2.7,4.366l-.554.277,3.258,9.774v4.887L19.548,73.306,17.919,66.79Z" fill="#f0d0b4"/>
          </g>
        </g>
        <g id="Grupo_97989" data-name="Grupo 97989">
          <path id="Trazado_125239" data-name="Trazado 125239" d="M76.169,22.806a8.48,8.48,0,0,0-6.039,2.5l-.081.081-.081-.081A8.54,8.54,0,1,0,57.889,37.386L70.048,49.545,82.207,37.386a8.54,8.54,0,0,0-6.039-14.58ZM79.9,35.083l-9.856,9.856-9.856-9.856a5.283,5.283,0,1,1,7.471-7.471L70.048,30l2.385-2.385A5.283,5.283,0,1,1,79.9,35.083Z"/>
          <path id="Trazado_125240" data-name="Trazado 125240" d="M70.048,11.4A22.806,22.806,0,1,0,92.855,34.21,22.831,22.831,0,0,0,70.048,11.4Zm0,42.355A19.548,19.548,0,1,1,89.6,34.21,19.57,19.57,0,0,1,70.048,53.758Z"/>
          <path id="Trazado_125241" data-name="Trazado 125241" d="M102.629,40.271V28.15l-4.245-1.416a29.081,29.081,0,0,0-3.015-7.265l2-4.009L88.8,6.888l-4.009,2a29.081,29.081,0,0,0-7.265-3.015L76.11,1.629H63.988L62.573,5.874A29.081,29.081,0,0,0,55.307,8.89l-4.009-2-8.572,8.572,2,4.009a29.269,29.269,0,0,0-1.935,4.009A22.541,22.541,0,0,0,26.346,16.29H9.774a8.122,8.122,0,0,0-2.362,15.9C5.954,35.541,3.258,42.585,3.258,48.871v1.175l4.887,1.629V54.38A5.861,5.861,0,0,0,11.4,59.652a5.921,5.921,0,0,0,2.636.622H16.29v5.592A24.317,24.317,0,0,0,4.887,86.44v16.189H91.226V78.868l.815-.815,5.073,5.073,4.335-21.671L79.777,65.79l5.073,5.073-6.656,6.656-9.774-9.774L47.242,88.922V76.565a9.756,9.756,0,0,0-3.879-7.777l.008-.011-5.85-4.68a18.614,18.614,0,0,0,8.7-7.639L51.3,61.533l4.009-2a29.082,29.082,0,0,0,7.265,3.015l1.416,4.245H76.108l1.416-4.245a29.081,29.081,0,0,0,7.265-3.015l4.009,2,8.572-8.572-2-4.009a29.081,29.081,0,0,0,3.015-7.265Zm-76.565,20V57.016H14.039a2.649,2.649,0,0,1-1.179-.279A2.622,2.622,0,0,1,11.4,54.38V49.325L6.55,47.708c.342-6,3.17-12.736,4.258-15.127H23.688A3.266,3.266,0,0,1,26.882,35.2l1.1,5.526h1.336a3.261,3.261,0,0,1,3.258,3.258v.238a3.243,3.243,0,0,1-1.8,2.914l-1.821.911,3.621,10.862v3.752L20.568,70.669l-1.02-4.081V60.274Zm1.629,39.1H8.145V86.44A21.053,21.053,0,0,1,16.891,69.4l1.637,6.545,15.593-10.4,1.733,1.386a9.783,9.783,0,0,0-8.161,9.631Zm3.258,0V92.855H43.984v6.516Zm50.5-10.729V99.371H78.194V91.9ZM74.935,99.371H71.677V85.384l3.258,3.258Zm-6.516,0H65.161V85.384l3.258-3.258Zm-6.516,0H58.645V91.9L61.9,88.642Zm-6.516,0H51.174l4.213-4.213Zm32.581,0H84.71V85.384l3.258-3.258ZM68.419,72.352l9.774,9.774L89.457,70.863l-3.072-3.072,10.91-2.181-2.181,10.91L92.04,73.447,78.194,87.293l-9.774-9.774L47.242,98.7V93.529ZM43.984,89.6H30.952V76.565a6.516,6.516,0,0,1,13.032,0ZM35.839,61.283v-2.9l-2.911-8.73a6.479,6.479,0,0,0,2.911-5.43v-.238a6.527,6.527,0,0,0-5.153-6.373l-.611-3.051a6.532,6.532,0,0,0-6.387-5.237H9.774a4.887,4.887,0,1,1,0-9.774H26.346a19.27,19.27,0,0,1,15.033,7.3l-3.911,1.3V40.27l4.245,1.416a29.082,29.082,0,0,0,3.015,7.265l-2,4.009,1.09,1.09a15.419,15.419,0,0,1-7.976,7.233ZM95.429,40.06a25.854,25.854,0,0,1-3.3,7.951l-.485.775,1.764,3.532-5.25,5.25L84.625,55.8l-.775.485a25.814,25.814,0,0,1-7.951,3.3l-.891.2-1.246,3.739H66.334L65.088,59.8l-.891-.2a25.854,25.854,0,0,1-7.951-3.3l-.775-.485L51.938,57.57l-5.25-5.25,1.764-3.532-.485-.775a25.814,25.814,0,0,1-3.3-7.951l-.2-.891-3.737-1.248V30.5l3.737-1.246.2-.891a25.854,25.854,0,0,1,3.3-7.951l.485-.775L46.688,16.1l5.25-5.25,3.532,1.764.775-.485a25.814,25.814,0,0,1,7.951-3.3l.891-.2,1.248-3.737h7.427l1.246,3.737.891.2a25.854,25.854,0,0,1,7.951,3.3l.775.485,3.532-1.764,5.25,5.25-1.764,3.532.485.775a25.814,25.814,0,0,1,3.3,7.951l.2.891L99.371,30.5v7.427L95.634,39.17Z"/>
          <circle id="Elipse_5867" data-name="Elipse 5867" cx="1.629" cy="1.629" r="1.629" transform="translate(13.032 37.468)"/>
        </g>
      </g>
    </g>
  </g>
</svg>
