<svg xmlns="http://www.w3.org/2000/svg" xmlns:xlink="http://www.w3.org/1999/xlink" width="117" height="117" viewBox="0 0 117 117">
  <defs>
    <clipPath id="clip-path">
      <rect id="Rect치ngulo_34294" data-name="Rect치ngulo 34294" width="117" height="117" transform="translate(1267 14195)" fill="#fff"/>
    </clipPath>
  </defs>
  <g id="Enmascarar_grupo_193" data-name="Enmascarar grupo 193" transform="translate(-1267 -14195)" clip-path="url(#clip-path)">
    <g id="Plan-Business-Marketing-Strategy-Document" transform="translate(1263.1 14191.1)">
      <rect id="Rect치ngulo_34531" data-name="Rect치ngulo 34531" width="74.1" height="101.4" rx="3.9" transform="translate(13.65 5.85)" fill="#e6e7e8"/>
      <path id="Trazado_117072" data-name="Trazado 117072" d="M87.75,40.95v62.4a3.912,3.912,0,0,1-3.9,3.9H21.45Z" fill="#e0e0e2"/>
      <circle id="Elipse_5391" data-name="Elipse 5391" cx="3.9" cy="3.9" r="3.9" transform="translate(25.35 27.3)" fill="#ff9811"/>
      <path id="Trazado_117073" data-name="Trazado 117073" d="M107.25,107.25V117a1.95,1.95,0,0,1-1.95,1.95H70.2A1.95,1.95,0,0,1,68.25,117v-9.75Z" fill="#3d9ae2"/>
      <path id="Trazado_117074" data-name="Trazado 117074" d="M101.4,97.5V83.85H74.1V97.5l-5.85,9.75h39Z" fill="#5aaae7"/>
      <path id="Trazado_117075" data-name="Trazado 117075" d="M107.25,79.95a3.929,3.929,0,0,1-3.9,3.9H72.15a3.9,3.9,0,1,1,0-7.8h31.2A3.912,3.912,0,0,1,107.25,79.95Z" fill="#3d9ae2"/>
      <path id="Trazado_117076" data-name="Trazado 117076" d="M74.1,68.25h27.3v7.8H74.1Z" fill="#5aaae7"/>
      <path id="Trazado_117077" data-name="Trazado 117077" d="M109.2,62.4a5.85,5.85,0,0,1-5.85,5.85H72.15a5.85,5.85,0,0,1,0-11.7h31.2a5.85,5.85,0,0,1,5.85,5.85Z" fill="#3d9ae2"/>
      <circle id="Elipse_5392" data-name="Elipse 5392" cx="3.9" cy="3.9" r="3.9" transform="translate(103.35 29.25)" fill="#1e81ce"/>
      <path id="Trazado_117078" data-name="Trazado 117078" d="M95.823,42.9,87.75,37.05,79.892,42.9,68.25,37.05v7.1a19.368,19.368,0,0,0,2.067,8.717L72.15,56.55h31.2l1.833-3.686a19.367,19.367,0,0,0,2.067-8.716v-7.1Z" fill="#5aaae7"/>
      <circle id="Elipse_5393" data-name="Elipse 5393" cx="3.9" cy="3.9" r="3.9" transform="translate(83.85 29.25)" fill="#1e81ce"/>
      <circle id="Elipse_5394" data-name="Elipse 5394" cx="3.9" cy="3.9" r="3.9" transform="translate(64.35 29.25)" fill="#1e81ce"/>
      <path id="Trazado_117079" data-name="Trazado 117079" d="M79.95,5.85v15.6l-3.9-5.85-3.9,5.85V5.85Z" fill="#ff5023"/>
      <circle id="Elipse_5395" data-name="Elipse 5395" cx="3.9" cy="3.9" r="3.9" transform="translate(48.75 74.1)" fill="#ff9811"/>
      <circle id="Elipse_5396" data-name="Elipse 5396" cx="3.9" cy="3.9" r="3.9" transform="translate(25.35 85.8)" fill="#ff9811"/>
      <path id="Trazado_117080" data-name="Trazado 117080" d="M74.1,68.25h27.3v3.9H74.1Z" fill="#4196d9"/>
      <path id="Trazado_117081" data-name="Trazado 117081" d="M74.1,83.85h27.3v3.9H74.1Z" fill="#4196d9"/>
      <path id="Trazado_117082" data-name="Trazado 117082" d="M109.2,44.148v-5.5a5.85,5.85,0,1,0-7.8-5.5,5.735,5.735,0,0,0,1.541,3.919L96,40.618,91.65,37.479a5.809,5.809,0,0,0-1.95-9.828V9.75A5.868,5.868,0,0,0,83.85,3.9H17.55A5.868,5.868,0,0,0,11.7,9.75v93.6a5.868,5.868,0,0,0,5.85,5.85H66.3V117a3.912,3.912,0,0,0,3.9,3.9h35.1a3.912,3.912,0,0,0,3.9-3.9v-9.75a1.95,1.95,0,0,0-.273-.994l-5.577-9.3V85.8a5.85,5.85,0,0,0,0-11.7V70.2a7.788,7.788,0,0,0,2.867-15.035l.721-1.424a21.551,21.551,0,0,0,2.262-9.594Zm-14.508.332a1.95,1.95,0,0,0,2.028.156l8.58-4.387v3.9a17.62,17.62,0,0,1-1.852,7.839L102.141,54.6H73.359l-1.306-2.613A17.62,17.62,0,0,1,70.2,44.148V40.209l8.814,4.426a1.95,1.95,0,0,0,2.048-.175l6.708-4.992ZM68.25,35.1a1.95,1.95,0,1,1,1.95-1.95A1.95,1.95,0,0,1,68.25,35.1Zm19.5-3.9a1.95,1.95,0,1,1-1.95,1.95A1.95,1.95,0,0,1,87.75,31.2ZM74.1,7.8H78v7.215l-.331-.488a2.008,2.008,0,0,0-3.237,0l-.331.488Zm-6.961,97.5H17.55a1.95,1.95,0,0,1-1.95-1.95V9.75A1.95,1.95,0,0,1,17.55,7.8H70.2V21.45a1.95,1.95,0,0,0,3.569,1.073L76.05,19.11l2.281,3.413a1.919,1.919,0,0,0,1.619.877,1.886,1.886,0,0,0,.565-.078A1.966,1.966,0,0,0,81.9,21.45V7.8h1.95A1.95,1.95,0,0,1,85.8,9.75v17.9A5.811,5.811,0,0,0,83.869,37.5L79.7,40.618,72.579,37.05a5.841,5.841,0,1,0-6.279,1.6v5.5a21.551,21.551,0,0,0,2.262,9.594l.721,1.423A7.788,7.788,0,0,0,72.15,70.2v3.9a5.85,5.85,0,0,0,0,11.7V96.954ZM105.3,117H70.2v-7.8h35.1Zm-1.5-11.7H71.7l4.076-6.806a1.95,1.95,0,0,0,.273-.994V85.8h23.4V97.5a1.95,1.95,0,0,0,.273.994Zm1.5-25.35a1.95,1.95,0,0,1-1.95,1.95H72.15a1.95,1.95,0,0,1,0-3.9h31.2A1.95,1.95,0,0,1,105.3,79.95ZM76.05,74.1V70.2h23.4v3.9Zm31.2-11.7a3.912,3.912,0,0,1-3.9,3.9H72.15a3.9,3.9,0,0,1,0-7.8h31.2A3.912,3.912,0,0,1,107.25,62.4ZM105.3,33.15a1.95,1.95,0,1,1,1.95,1.95A1.95,1.95,0,0,1,105.3,33.15Z"/>
      <path id="Trazado_117083" data-name="Trazado 117083" d="M29.25,83.85A5.85,5.85,0,1,0,35.1,89.7,5.85,5.85,0,0,0,29.25,83.85Zm0,7.8A1.95,1.95,0,1,1,31.2,89.7,1.95,1.95,0,0,1,29.25,91.65Z"/>
      <path id="Trazado_117084" data-name="Trazado 117084" d="M52.65,72.15A5.85,5.85,0,1,0,58.5,78,5.85,5.85,0,0,0,52.65,72.15Zm0,7.8A1.95,1.95,0,1,1,54.6,78,1.95,1.95,0,0,1,52.65,79.95Z"/>
      <path id="Trazado_117085" data-name="Trazado 117085" d="M29.25,37.05A5.85,5.85,0,1,0,23.4,31.2,5.85,5.85,0,0,0,29.25,37.05Zm0-7.8A1.95,1.95,0,1,1,27.3,31.2,1.95,1.95,0,0,1,29.25,29.25Z"/>
      <path id="Trazado_117086" data-name="Trazado 117086" d="M42.9,68.25H54.6a1.95,1.95,0,0,0,1.95-1.95V54.6a1.95,1.95,0,0,0-1.95-1.95H27.3v-7.8H48.75A1.95,1.95,0,0,0,50.7,42.9V32.007l2.521,2.521,2.757-2.757-5.85-5.85a1.95,1.95,0,0,0-2.757,0l-5.85,5.85,2.757,2.757L46.8,32.007V40.95H25.35A1.95,1.95,0,0,0,23.4,42.9V54.6a1.95,1.95,0,0,0,1.95,1.95h27.3v7.8H40.95A1.95,1.95,0,0,0,39,66.3V89.7a1.95,1.95,0,0,0,1.95,1.95H50.7v-3.9H42.9Z"/>
      <path id="Trazado_117087" data-name="Trazado 117087" d="M45.993,23.065l2.757-2.757,2.757,2.757,2.757-2.757L51.507,17.55l2.757-2.757-2.757-2.757L48.75,14.793l-2.757-2.757-2.757,2.757,2.757,2.757-2.757,2.757Z"/>
    </g>
  </g>
</svg>
