<svg xmlns="http://www.w3.org/2000/svg" xmlns:xlink="http://www.w3.org/1999/xlink" width="85" height="85" viewBox="0 0 85 85">
  <defs>
    <clipPath id="clip-path">
      <rect id="Rect치ngulo_35701" data-name="Rect치ngulo 35701" width="67" height="67" transform="translate(189 4865)" fill="#ffd41c"/>
    </clipPath>
  </defs>
  <g id="Grupo_99207" data-name="Grupo 99207" transform="translate(-1125 -7610.338)">
    <rect id="Rect치ngulo_34163" data-name="Rect치ngulo 34163" width="85" height="85" transform="translate(1125 7610.338)" fill="#764cf0"/>
    <g id="Enmascarar_grupo_385" data-name="Enmascarar grupo 385" transform="translate(945 2754.338)" clip-path="url(#clip-path)">
      <g id="expectativa" transform="translate(189 4865)">
        <g id="Grupo_98270" data-name="Grupo 98270">
          <path id="Trazado_125613" data-name="Trazado 125613" d="M47.878,58.526l-7.819-2.606a3.252,3.252,0,0,1-2.224-3.085V47.591H27v5.244a3.252,3.252,0,0,1-2.224,3.085l-7.819,2.606a4.336,4.336,0,0,0-2.965,4.113v.127H50.843v-.127a4.336,4.336,0,0,0-2.965-4.113Z" fill="#f4aa73"/>
          <path id="Trazado_125614" data-name="Trazado 125614" d="M37.836,52.834V47.591H27v5.244a3.252,3.252,0,0,1-2.223,3.085L25.8,59a6.494,6.494,0,0,0,4.134-4.166,1.168,1.168,0,0,1,1.222-.807A12.782,12.782,0,0,0,37.84,52.89C37.84,52.871,37.836,52.853,37.836,52.834Z" fill="#e29a6c"/>
          <path id="Trazado_125615" data-name="Trazado 125615" d="M22.66,32.415v8.672a9.756,9.756,0,0,0,19.511,0V32.415Z" fill="#fbbd80"/>
          <path id="Trazado_125616" data-name="Trazado 125616" d="M27,41.087v-1.27a2.167,2.167,0,0,1,.635-1.533L32.416,33.5,22.66,32.415v8.063a10.335,10.335,0,0,0,7.008,9.937,9.235,9.235,0,0,0,4.915.177A9.754,9.754,0,0,1,27,41.087Z" fill="#f4aa73"/>
          <path id="Trazado_125617" data-name="Trazado 125617" d="M36.752,27H27a5.42,5.42,0,0,0-5.42,5.42V36.6a1.084,1.084,0,0,0,1.778.833L28.08,33.5s4.966,3.973,13.947,5.263a1.085,1.085,0,0,0,1.228-1.078V33.5a6.5,6.5,0,0,0-6.5-6.5Z" fill="#845252"/>
          <path id="Trazado_125618" data-name="Trazado 125618" d="M65.32,25.47l-4.34-1.652.04-4.644a1.084,1.084,0,0,0-1.928-.689L56.18,22.1l-4.4-1.473a1.084,1.084,0,0,0-1.251,1.621l2.54,3.887L50.3,29.87a1.084,1.084,0,0,0,1.155,1.691l4.482-1.215,2.7,3.781a1.084,1.084,0,0,0,1.965-.576l.23-4.638,4.429-1.4a1.084,1.084,0,0,0,.059-2.047Z" fill="#ffe077"/>
          <path id="Trazado_125619" data-name="Trazado 125619" d="M23.5,28.306a5.384,5.384,0,0,0-1.924,4.11V36.6a1.084,1.084,0,0,0,1.778.833L28.08,33.5a15.127,15.127,0,0,1-4.58-5.194Z" fill="#7a4646"/>
          <path id="Trazado_125620" data-name="Trazado 125620" d="M47.878,58.526l-7.257-2.419a9.74,9.74,0,0,1-16.41,0l-7.258,2.419a4.336,4.336,0,0,0-2.965,4.113l3.252,3.379h33.6V62.639A4.336,4.336,0,0,0,47.878,58.526Z" fill="#98db7c"/>
          <path id="Trazado_125621" data-name="Trazado 125621" d="M24.491,13.437S29.33,7.053,27.771,3.4a3.959,3.959,0,0,0-7.419.333,3.959,3.959,0,0,0-5.377,5.123C16.534,12.51,24.491,13.437,24.491,13.437Z" fill="#ff7e92"/>
          <path id="Trazado_125622" data-name="Trazado 125622" d="M11.821,32.415H.981V24.828L6.4,20.492l5.42,4.336Z" fill="#fff4d6"/>
          <path id="Trazado_125623" data-name="Trazado 125623" d="M11.821,24.828,6.4,20.492.981,24.828v4.336l4.743-3.794a1.084,1.084,0,0,1,1.354,0l4.743,3.794Z" fill="#ff7e92"/>
          <path id="Trazado_125624" data-name="Trazado 125624" d="M17.241,62.639a1.081,1.081,0,0,1,.742-1.028l8.606-2.957a9.836,9.836,0,0,1-2.378-2.547l-7.257,2.419a4.336,4.336,0,0,0-2.965,4.113v3.379h3.252Z" fill="#77cc7d"/>
          <path id="Trazado_125625" data-name="Trazado 125625" d="M24.491,13.437a24.55,24.55,0,0,0,1.435-2.19l-.185-.039c-.072-.015-7.162-1.53-8.5-4.809a3.468,3.468,0,0,1-.113-2.346l.144-.473c-.065.024-.132.032-.2.059a3.974,3.974,0,0,0-2.1,5.215c1.559,3.656,9.516,4.584,9.516,4.584Z" fill="#ff5f7a"/>
          <path id="Trazado_125626" data-name="Trazado 125626" d="M58.587,28.458A3.264,3.264,0,0,0,56.169,27.1a3.265,3.265,0,0,0-.382-2.746l-2-3.055-2.015-.674a1.084,1.084,0,0,0-1.251,1.621l2.54,3.887L50.3,29.871a1.084,1.084,0,0,0,1.155,1.691l4.482-1.215,2.7,3.781a1.084,1.084,0,0,0,1.965-.576l.105-2.122Z" fill="#ffd05b"/>
        </g>
        <g id="Grupo_98271" data-name="Grupo 98271">
          <path id="Trazado_125627" data-name="Trazado 125627" d="M12.434,24.061l-5.42-4.336a.981.981,0,0,0-1.226,0L.368,24.061A.982.982,0,0,0,0,24.828v7.588a.981.981,0,0,0,.981.981H11.821a.981.981,0,0,0,.981-.981V24.828A.982.982,0,0,0,12.434,24.061Zm-1.595,7.373H1.963V25.3L6.4,21.749,10.84,25.3v6.135Z"/>
          <path id="Trazado_125628" data-name="Trazado 125628" d="M5.42,27V28.08a.981.981,0,0,0,1.963,0V27A.981.981,0,0,0,5.42,27Z"/>
          <path id="Trazado_125629" data-name="Trazado 125629" d="M40.232,15.581l-.328.652a1.006,1.006,0,0,0,.364,1.321.981.981,0,0,0,1.373-.406l.385-.766a4.125,4.125,0,0,0,.966.116,4.352,4.352,0,0,0,3.453-1.754,3.736,3.736,0,0,0-.376-4.974c-.155-.161-.313-.328-.469-.5L47.243,6a2.684,2.684,0,0,1,.353.453.976.976,0,1,0,1.631-1.073A4.886,4.886,0,0,0,48.149,4.2l.289-.576a1.008,1.008,0,0,0-.391-1.34.982.982,0,0,0-1.345.422l-.339.675c-.091-.021-.183-.04-.279-.057A3.549,3.549,0,0,0,42.661,4.72a3.142,3.142,0,0,0-.466,3.23,8.026,8.026,0,0,0,1.06,1.619L41.117,13.82A3.271,3.271,0,0,1,40,12.555a1.009,1.009,0,0,0-1.329-.406.982.982,0,0,0-.387,1.359,5.147,5.147,0,0,0,1.952,2.073Zm3.989-9.67a1.672,1.672,0,0,1,1.209-.67L44.244,7.6a4.31,4.31,0,0,1-.273-.486,1.223,1.223,0,0,1,.25-1.2Zm.441,5.228a1.811,1.811,0,0,1,.2,2.445,2.329,2.329,0,0,1-1.906.951Z"/>
          <path id="Trazado_125630" data-name="Trazado 125630" d="M20.1,13.492a26.165,26.165,0,0,0,4.364.918,1,1,0,0,0,.1.005.981.981,0,0,0,.788-.4,26.144,26.144,0,0,0,2.286-3.829c1.451-3.007,1.79-5.437,1.009-7.221A4.938,4.938,0,0,0,19.8,2.541a4.944,4.944,0,0,0-5.69,6.793c.781,1.784,2.8,3.183,5.99,4.157ZM15.865,6.257a2.974,2.974,0,0,1,1.587-1.652,2.911,2.911,0,0,1,1.172-.247,3.04,3.04,0,0,1,1.3.3.982.982,0,0,0,1.354-.593,2.982,2.982,0,0,1,5.581-.306c1.027,2.346-1.388,6.657-2.743,8.63-2.369-.343-7.174-1.492-8.2-3.838a2.972,2.972,0,0,1-.046-2.29Z"/>
          <path id="Trazado_125631" data-name="Trazado 125631" d="M65.669,24.553l-3.7-1.409L62,19.183a2.065,2.065,0,0,0-3.674-1.313l-.231.287a.981.981,0,0,0,1.529,1.231l.231-.287a.1.1,0,0,1,.182.065L60,23.81a.981.981,0,0,0,.632.926l4.34,1.652a.1.1,0,0,1-.006.194l-4.429,1.4a.981.981,0,0,0-.685.887l-.23,4.638a.1.1,0,0,1-.186.054l-2.7-3.781a.981.981,0,0,0-1.056-.377L51.2,30.614a.1.1,0,0,1-.109-.16l2.762-3.733a.982.982,0,0,0,.033-1.121l-2.54-3.887a.1.1,0,0,1,.118-.153l4.4,1.473a.981.981,0,1,0,.623-1.861l-4.4-1.473A2.065,2.065,0,0,0,49.7,22.787L51.871,26.1l-2.356,3.184a2.065,2.065,0,0,0,2.2,3.222l3.823-1.036,2.3,3.224a2.038,2.038,0,0,0,1.668.869,2.111,2.111,0,0,0,.594-.086,2.041,2.041,0,0,0,1.482-1.88l.2-3.956,3.777-1.191a2.065,2.065,0,0,0,.113-3.9Z"/>
          <path id="Trazado_125632" data-name="Trazado 125632" d="M18.715,23.354A.981.981,0,0,0,20.1,21.966l-5.42-5.42a.981.981,0,0,0-1.388,1.388Z"/>
          <path id="Trazado_125633" data-name="Trazado 125633" d="M32.416,21.473a.981.981,0,0,0,.981-.981V17.24a.981.981,0,1,0-1.963,0v3.252A.981.981,0,0,0,32.416,21.473Z"/>
          <path id="Trazado_125634" data-name="Trazado 125634" d="M43.645,20.882l-1.084,1.084a.981.981,0,1,0,1.388,1.388l1.084-1.084a.981.981,0,0,0-1.388-1.388Z"/>
          <path id="Trazado_125635" data-name="Trazado 125635" d="M13.989,39.9a.978.978,0,0,0,.694-.287l2.168-2.168a.981.981,0,1,0-1.388-1.388l-2.168,2.168a.981.981,0,0,0,.694,1.675Z"/>
          <path id="Trazado_125636" data-name="Trazado 125636" d="M52.471,40.27,49.219,38.1a.981.981,0,0,0-1.089,1.633L51.383,41.9a.981.981,0,0,0,1.089-1.633Z"/>
          <path id="Trazado_125637" data-name="Trazado 125637" d="M48.189,57.595l-7.819-2.606a2.267,2.267,0,0,1-1.552-2.154V49.7a10.728,10.728,0,0,0,4.336-8.615v-1.6a2.059,2.059,0,0,0,1.084-1.821V33.5a7.494,7.494,0,0,0-7.485-7.485H27a6.408,6.408,0,0,0-6.4,6.4V36.6a2.044,2.044,0,0,0,1.084,1.816v2.666A10.727,10.727,0,0,0,26.015,49.7v3.133a2.267,2.267,0,0,1-1.552,2.154l-7.819,2.606a5.31,5.31,0,0,0-3.636,5.044v3.379a.981.981,0,0,0,1.963,0V62.639a3.35,3.35,0,0,1,2.294-3.182l6.554-2.185a10.736,10.736,0,0,0,17.2,0l6.554,2.185a3.35,3.35,0,0,1,2.294,3.182v3.379a.981.981,0,0,0,1.963,0V62.639a5.31,5.31,0,0,0-3.636-5.044ZM23.642,41.087V38.422a2.11,2.11,0,0,0,.341-.231l4.181-3.484a40.232,40.232,0,0,0,7.179,3.321.981.981,0,0,0,.65-1.852,36.654,36.654,0,0,1-7.368-3.495.981.981,0,0,0-1.173.063l-4.726,3.938a.1.1,0,0,1-.168-.079V32.415A4.443,4.443,0,0,1,27,27.977h9.756A5.529,5.529,0,0,1,42.274,33.5v4.167a.111.111,0,0,1-.04.085.068.068,0,0,1-.06.019c-.645-.105-1.3-.233-1.956-.379a.981.981,0,1,0-.429,1.916c.466.1.935.2,1.4.284v1.495a8.774,8.774,0,0,1-17.548,0Zm8.774,18.53a8.783,8.783,0,0,1-6.658-3.06,4.226,4.226,0,0,0,2.219-3.722V50.86a10.7,10.7,0,0,0,8.877,0v1.975a4.226,4.226,0,0,0,2.22,3.722,8.767,8.767,0,0,1-6.658,3.06Z"/>
        </g>
      </g>
    </g>
  </g>
</svg>
