<svg xmlns="http://www.w3.org/2000/svg" xmlns:xlink="http://www.w3.org/1999/xlink" width="154" height="154" viewBox="0 0 154 154">
  <defs>
    <clipPath id="clip-path">
      <rect id="Rectángulo_35311" data-name="Rectángulo 35311" width="154" height="154" transform="translate(-3718 1931)" fill="#ffd41c"/>
    </clipPath>
  </defs>
  <g id="Enmascarar_grupo_409" data-name="Enmascarar grupo 409" transform="translate(3718 -1931)" clip-path="url(#clip-path)">
    <g id="optimizar" transform="translate(-3720.484 1928.516)">
      <g id="Grupo_98996" data-name="Grupo 98996">
        <g id="Grupo_98987" data-name="Grupo 98987">
          <path id="Trazado_126303" data-name="Trazado 126303" d="M121.71,54.645a5,5,0,0,1,4.968,4.968,4.982,4.982,0,0,1-4.968,4.968h-14.9a5,5,0,0,1-4.968-4.968,4.982,4.982,0,0,1,4.968-4.968h14.9Z" fill="#fc6e51"/>
        </g>
        <g id="Grupo_98988" data-name="Grupo 98988">
          <path id="Trazado_126304" data-name="Trazado 126304" d="M121.71,64.581V75.212a40.963,40.963,0,0,0-7.452-.7,38.678,38.678,0,0,0-7.452.72V64.581Z" fill="#ff826e"/>
        </g>
        <g id="Grupo_98989" data-name="Grupo 98989">
          <path id="Trazado_126305" data-name="Trazado 126305" d="M136.613,54.645v14.9l-5.862,1.987a53.1,53.1,0,0,1-1.465,5.936,37.061,37.061,0,0,0-7.576-2.26V64.581a4.982,4.982,0,0,0,4.968-4.968,5,5,0,0,0-4.968-4.968h-.646A42.235,42.235,0,0,0,37.258,62.1a42.668,42.668,0,0,0,1.987,12.792,38.567,38.567,0,0,0-9.563,2.583,53.1,53.1,0,0,1-1.465-5.936l-5.862-1.987v-14.9l5.862-1.987a51.615,51.615,0,0,1,8.346-20.169L33.83,26.975,44.362,16.443l5.514,2.732A51.615,51.615,0,0,1,70.045,10.83l1.987-5.862h14.9l1.987,5.862a51.614,51.614,0,0,1,20.169,8.346l5.514-2.732,10.532,10.532-2.732,5.514a51.615,51.615,0,0,1,8.346,20.169Z" fill="#a0d468"/>
        </g>
        <g id="Grupo_98990" data-name="Grupo 98990">
          <path id="Trazado_126306" data-name="Trazado 126306" d="M121.064,54.645H110.9A32.295,32.295,0,1,0,49.8,74.839a38.4,38.4,0,0,0-5.092-.323,39.589,39.589,0,0,0-5.465.373A42.669,42.669,0,0,1,37.258,62.1a42.235,42.235,0,0,1,83.806-7.452Z" fill="#b4dd7f"/>
        </g>
        <g id="Grupo_98991" data-name="Grupo 98991">
          <path id="Trazado_126307" data-name="Trazado 126307" d="M129.285,77.472a37.06,37.06,0,0,0-7.576-2.26,40.963,40.963,0,0,0-7.452-.7,38.678,38.678,0,0,0-7.452.72A39.731,39.731,0,0,0,79.484,95.008v.025a39.685,39.685,0,0,1,0,38.45v.025a39.743,39.743,0,1,0,49.8-56.036Z" fill="#ccd1d9"/>
        </g>
        <g id="Grupo_98992" data-name="Grupo 98992">
          <path id="Trazado_126308" data-name="Trazado 126308" d="M39.245,74.889a39.589,39.589,0,0,1,5.465-.373,38.4,38.4,0,0,1,5.092.323A39.771,39.771,0,0,1,79.484,95.008v.025a39.685,39.685,0,0,1,0,38.45v.025a39.743,39.743,0,1,1-49.8-56.036,38.567,38.567,0,0,1,9.563-2.583Z" fill="#ffc729"/>
        </g>
        <g id="Grupo_98993" data-name="Grupo 98993">
          <circle id="Elipse_5923" data-name="Elipse 5923" cx="29.806" cy="29.806" r="29.806" transform="translate(14.903 84.452)" fill="#fcd770"/>
        </g>
        <g id="Grupo_98994" data-name="Grupo 98994">
          <path id="Trazado_126309" data-name="Trazado 126309" d="M144.065,114.258a29.767,29.767,0,1,1-8.718-21.088A29.713,29.713,0,0,1,144.065,114.258Z" fill="#69d6f4"/>
        </g>
        <g id="Grupo_98995" data-name="Grupo 98995">
          <path id="Trazado_126310" data-name="Trazado 126310" d="M114.258,109.29a4.968,4.968,0,1,1-4.968,4.968,5,5,0,0,1,4.968-4.968Z" fill="#ff826e"/>
        </g>
      </g>
      <g id="Grupo_98997" data-name="Grupo 98997">
        <path id="Trazado_126311" data-name="Trazado 126311" d="M54.645,106.57a9.7,9.7,0,0,0-7.452-9.411V91.9H42.226v5.258a9.684,9.684,0,0,0-.817,18.614l5.03,1.679a4.732,4.732,0,0,1-1.493,9.223h-.469a4.736,4.736,0,0,1-4.734-4.732v-2.72H34.774v2.72a9.7,9.7,0,0,0,7.452,9.411v5.256h4.968v-5.258a9.684,9.684,0,0,0,.817-18.614l-5.03-1.679a4.732,4.732,0,0,1,1.493-9.223h.469a4.736,4.736,0,0,1,4.734,4.732v.236Z"/>
        <path id="Trazado_126312" data-name="Trazado 126312" d="M44.71,81.968A32.29,32.29,0,1,0,77,114.258,32.328,32.328,0,0,0,44.71,81.968Zm0,59.613a27.323,27.323,0,1,1,27.323-27.323A27.355,27.355,0,0,1,44.71,141.581Z"/>
        <path id="Trazado_126313" data-name="Trazado 126313" d="M106.806,114.258a7.441,7.441,0,0,0,4.968,6.995v5.425h4.968v-5.425a7.434,7.434,0,0,0-2.484-14.446,7.33,7.33,0,0,0-3.192.748l-7.471-7.471-3.512,3.512,7.471,7.471A7.33,7.33,0,0,0,106.806,114.258Zm7.452-2.484a2.484,2.484,0,1,1-2.484,2.484A2.485,2.485,0,0,1,114.258,111.774Z"/>
        <path id="Trazado_126314" data-name="Trazado 126314" d="M132.211,76.1c.238-.894.509-1.8.7-2.675l6.19-2.089V52.859l-6.187-2.086a53.936,53.936,0,0,0-7.633-18.468l2.891-5.835-13.06-13.058L109.273,16.3A53.95,53.95,0,0,0,90.8,8.669L88.719,2.484H70.249L68.162,8.671a53.971,53.971,0,0,0-18.47,7.635L43.86,13.413,30.8,26.476l2.891,5.835a53.867,53.867,0,0,0-7.633,18.468l-6.187,2.084V71.334l6.19,2.086c.186.879.457,1.781.7,2.675a42.194,42.194,0,1,0,52.73,62.06A42.2,42.2,0,1,0,132.211,76.1ZM30.661,71.078,30.4,69.638l-5.561-1.873V56.431L30.4,54.556l.261-1.441A49.073,49.073,0,0,1,38.6,33.91l.83-1.2-2.6-5.241,8.015-8.015,5.241,2.6,1.2-.832A49.138,49.138,0,0,1,70.5,13.274l1.441-.263,1.878-5.559H85.152l1.873,5.556,1.441.263a49.086,49.086,0,0,1,19.205,7.941l1.2.832,5.241-2.6,8.015,8.015-2.6,5.241.83,1.2A49.051,49.051,0,0,1,128.3,53.113l.261,1.441,5.564,1.875V67.762l-5.559,1.875-.261,1.441c-.189,1.033-.43,2.086-.7,3.152-1.118-.373-2.258-.688-3.415-.969V66.607a7.424,7.424,0,0,0-1.123-14.31A44.684,44.684,0,1,0,36.125,72.914a41.231,41.231,0,0,0-4.764,1.316c-.271-1.063-.512-2.119-.7-3.152ZM51.64,72.651a29.789,29.789,0,1,1,55.939-20.489h-.772a7.434,7.434,0,0,0-2.484,14.446v6.637A42.276,42.276,0,0,0,79.486,90.361,42.265,42.265,0,0,0,51.64,72.651Zm-10.559-.435a39.723,39.723,0,1,1,76.873-20.055H112.79a34.761,34.761,0,1,0-66.6,19.945c-.494-.017-.981-.075-1.48-.075-1.225,0-2.429.082-3.629.184ZM121.71,62.1h-14.9a2.484,2.484,0,1,1,0-4.968h14.9a2.484,2.484,0,0,1,0,4.968ZM109.29,67.065h9.935V72.35a42.567,42.567,0,0,0-4.968-.318,41.744,41.744,0,0,0-4.968.313ZM44.71,151.516a37.258,37.258,0,1,1,37.258-37.258A37.3,37.3,0,0,1,44.71,151.516Zm48.565-54.73,3.42,3.42,3.512-3.512-3.42-3.42a27.182,27.182,0,0,1,14.988-6.212V91.9h4.968V87.062a27.207,27.207,0,0,1,14.988,6.212l-3.42,3.42,3.512,3.512,3.42-3.42a27.182,27.182,0,0,1,6.212,14.988h-4.841v4.968h4.841a27.207,27.207,0,0,1-6.212,14.988l-3.42-3.42-3.512,3.512,3.42,3.42a27.182,27.182,0,0,1-14.988,6.212v-4.841h-4.968v4.841a27.207,27.207,0,0,1-14.988-6.212l3.42-3.42-3.512-3.512-3.42,3.42a27.182,27.182,0,0,1-6.212-14.988H91.9v-4.968H87.062A27.189,27.189,0,0,1,93.274,96.787Zm20.984,54.73a37.276,37.276,0,0,1-31.945-18.142,41.911,41.911,0,0,0,2.494-5.946,32.288,32.288,0,1,0,0-26.339,41.789,41.789,0,0,0-2.494-5.946,37.246,37.246,0,1,1,31.948,56.374Z"/>
        <path id="Trazado_126315" data-name="Trazado 126315" d="M54.645,62.1h4.968A19.768,19.768,0,0,1,70.654,44.29l-2.213-4.449A24.716,24.716,0,0,0,54.645,62.1Z"/>
        <path id="Trazado_126316" data-name="Trazado 126316" d="M75.068,42.718a20.074,20.074,0,0,1,4.416-.492V37.258a24.93,24.93,0,0,0-5.519.616Z"/>
      </g>
    </g>
  </g>
</svg>
