<svg xmlns="http://www.w3.org/2000/svg" xmlns:xlink="http://www.w3.org/1999/xlink" width="85" height="85" viewBox="0 0 85 85">
  <defs>
    <clipPath id="clip-path">
      <rect id="Rect치ngulo_35702" data-name="Rect치ngulo 35702" width="67" height="67" transform="translate(189 4865)" fill="#ffd41c"/>
    </clipPath>
  </defs>
  <g id="Grupo_99211" data-name="Grupo 99211" transform="translate(-1125 -7725)">
    <rect id="Rect치ngulo_34163" data-name="Rect치ngulo 34163" width="85" height="85" transform="translate(1125 7725)" fill="#764cf0"/>
    <g id="Enmascarar_grupo_386" data-name="Enmascarar grupo 386" transform="translate(945 2869)" clip-path="url(#clip-path)">
      <g id="contenido_1_" data-name="contenido (1)" transform="translate(189 4865)">
        <path id="Trazado_125638" data-name="Trazado 125638" d="M29.6,64.131H4.7a3.4,3.4,0,0,1-3.395-3.395v-16.2A3.4,3.4,0,0,1,4.7,41.14H29.6A3.4,3.4,0,0,1,33,44.535v16.2a3.4,3.4,0,0,1-3.4,3.395Z" fill="#ff7b7b"/>
        <path id="Trazado_125639" data-name="Trazado 125639" d="M62.1,54.8H62.3a3.4,3.4,0,0,0,3.4-3.4V33.556a3.4,3.4,0,0,0-3.4-3.4H32.33a3.4,3.4,0,0,0-3.394,3.4V41.14H29.6A3.4,3.4,0,0,1,33,44.534V54.8H62.1Z" fill="#a0e4a5"/>
        <path id="Trazado_125640" data-name="Trazado 125640" d="M12.526,2.869a3.4,3.4,0,0,0-3.386,3.4V31.358a3.4,3.4,0,0,0,3.4,3.394h16.4v-1.2a3.4,3.4,0,0,1,3.394-3.4H56.711V6.265a3.4,3.4,0,0,0-3.394-3.4H12.526Z" fill="#f9f5f3"/>
        <path id="Trazado_125641" data-name="Trazado 125641" d="M43.539,37.142v6.573L55.8,45.667V35.19Z" fill="#f9f5f3"/>
        <path id="Trazado_125642" data-name="Trazado 125642" d="M43.539,43.715H40.123a1.529,1.529,0,0,1-1.529-1.529V38.671a1.529,1.529,0,0,1,1.529-1.529h3.416v6.573Z" fill="#ff7b7b"/>
        <path id="Trazado_125643" data-name="Trazado 125643" d="M43.539,43.715v6.052h3.733l1.67-5.191Z" fill="#f9f5f3"/>
        <path id="Trazado_125644" data-name="Trazado 125644" d="M13.789,48.018v9.142L21.772,52.3Z" fill="#f9f5f3"/>
        <path id="Trazado_125645" data-name="Trazado 125645" d="M45.031,30.161H32.33a3.4,3.4,0,0,0-3.394,3.4v1.2h-16.4a3.4,3.4,0,0,1-3.4-3.394V28.189L26.134,14.412Z" fill="#c1afb4"/>
        <path id="Trazado_125646" data-name="Trazado 125646" d="M39.165,25.271l8.524-6.461,9.023,6.431v4.919H45.031Z" fill="#c1afb4"/>
        <circle id="Elipse_5891" data-name="Elipse 5891" cx="3.184" cy="3.184" r="3.184" transform="translate(35.979 8.314)" fill="#ffce69"/>
        <path id="Trazado_125647" data-name="Trazado 125647" d="M62.3,28.852H58.02V6.265a4.709,4.709,0,0,0-4.7-4.7H24.04a1.309,1.309,0,1,0,0,2.617H53.317A2.089,2.089,0,0,1,55.4,6.265V22.7l-6.955-4.957a1.309,1.309,0,0,0-1.55.023L39.2,23.6,26.972,13.407A1.309,1.309,0,0,0,25.31,13.4L10.449,25.444V6.265A2.09,2.09,0,0,1,12.53,4.178a1.309,1.309,0,0,0,0-2.617h0a4.712,4.712,0,0,0-4.691,4.7V31.358a4.709,4.709,0,0,0,4.7,4.7H27.627v3.77H4.7a4.709,4.709,0,0,0-4.7,4.7v16.2a4.709,4.709,0,0,0,4.7,4.7H29.6a4.709,4.709,0,0,0,4.7-4.7V56.1H50.6a1.309,1.309,0,0,0,0-2.617H34.3V44.534a4.754,4.754,0,0,0-4.06-4.659V33.556a2.089,2.089,0,0,1,2.086-2.087H62.3a2.089,2.089,0,0,1,2.087,2.087V51.4A2.089,2.089,0,0,1,62.3,53.488H62.1a1.309,1.309,0,0,0,0,2.617H62.3A4.709,4.709,0,0,0,67,51.4V33.556a4.709,4.709,0,0,0-4.7-4.7ZM31.687,60.736A2.089,2.089,0,0,1,29.6,62.822H4.7a2.089,2.089,0,0,1-2.086-2.086v-16.2A2.089,2.089,0,0,1,4.7,42.448H28.932a3.523,3.523,0,0,1,1.556.2,2.106,2.106,0,0,1,1.2,1.888v16.2Zm.643-31.884a4.754,4.754,0,0,0-4.7,4.591H12.536a2.089,2.089,0,0,1-2.087-2.086V28.813L26.123,16.106,41.417,28.852H32.33Zm13.175,0L41.267,25.32l6.446-4.885,7.69,5.481v2.936Z"/>
        <path id="Trazado_125648" data-name="Trazado 125648" d="M17.913,4.078A1.308,1.308,0,0,0,19.536,2.2a1.319,1.319,0,0,0-2.405.416A1.321,1.321,0,0,0,17.913,4.078Z"/>
        <path id="Trazado_125649" data-name="Trazado 125649" d="M43.539,51.075h3.733a1.308,1.308,0,0,0,1.246-.908l1.327-4.123,5.746.915A1.308,1.308,0,0,0,57.1,45.667V41.432h.251a1.309,1.309,0,0,0,0-2.617H57.1V35.19A1.309,1.309,0,0,0,55.59,33.9L43.435,35.834H40.123a2.841,2.841,0,0,0-2.837,2.837v3.515a2.841,2.841,0,0,0,2.837,2.837H42.23v4.743a1.309,1.309,0,0,0,1.309,1.309Zm2.779-2.617h-1.47V45.249l.258.041,2.123.338Zm8.169-4.324L44.847,42.6V38.259l9.64-1.535ZM39.9,42.186V38.671a.22.22,0,0,1,.22-.22H42.23v3.955H40.123a.22.22,0,0,1-.22-.22Z"/>
        <path id="Trazado_125650" data-name="Trazado 125650" d="M57.04,53.709a1.308,1.308,0,1,0,.5,1.528,1.321,1.321,0,0,0-.5-1.528Z"/>
        <path id="Trazado_125651" data-name="Trazado 125651" d="M22.391,51.148l-7.983-4.283a1.321,1.321,0,0,0-1.927,1.153v9.142a1.321,1.321,0,0,0,1.989,1.118l7.983-4.859a1.309,1.309,0,0,0-.062-2.271ZM15.1,54.832V50.206l4.04,2.168Z"/>
        <path id="Trazado_125652" data-name="Trazado 125652" d="M43.655,11.5a4.492,4.492,0,1,0-4.492,4.492A4.5,4.5,0,0,0,43.655,11.5Zm-6.367,0a1.875,1.875,0,1,1,1.875,1.875A1.877,1.877,0,0,1,37.287,11.5Z"/>
      </g>
    </g>
  </g>
</svg>
