<svg xmlns="http://www.w3.org/2000/svg" xmlns:xlink="http://www.w3.org/1999/xlink" width="154" height="154" viewBox="0 0 154 154">
  <defs>
    <clipPath id="clip-path">
      <rect id="Rectángulo_35317" data-name="Rectángulo 35317" width="154" height="154" transform="translate(-3718 2802)" fill="#ffd41c"/>
    </clipPath>
  </defs>
  <g id="Enmascarar_grupo_412" data-name="Enmascarar grupo 412" transform="translate(3718 -2802)" clip-path="url(#clip-path)">
    <g id="analisis-de-los-datos" transform="translate(-3720.484 2799.516)">
      <g id="Grupo_99043" data-name="Grupo 99043">
        <g id="Grupo_99019" data-name="Grupo 99019">
          <path id="Trazado_126359" data-name="Trazado 126359" d="M55.44,37.954a26.888,26.888,0,0,1-.795-6.458A26.523,26.523,0,0,1,81.173,4.968H87.73A26.544,26.544,0,0,1,114.258,31.5a26.888,26.888,0,0,1-.795,6.458l-1.068,4.3-.025.025a7.276,7.276,0,0,0-5.564-2.534h-2.484V34.8a9.938,9.938,0,0,0-9.96-9.935H93.244l-9.935.025-9.911.025h-.025a9.943,9.943,0,0,0-8.793,9.861v4.968H62.1a7.276,7.276,0,0,0-5.564,2.534l-.025-.025Z" fill="#b27946"/>
        </g>
        <g id="Grupo_99020" data-name="Grupo 99020">
          <path id="Trazado_126360" data-name="Trazado 126360" d="M86.935,94.387l7.526,27.621h.025a21.134,21.134,0,0,0-.1,2.186,30.066,30.066,0,0,0,.522,5.614,7.174,7.174,0,0,0-3.005-.646,7.388,7.388,0,0,0-6.657,4.123l-10.73-5.365-1.49-.745,8.942-32.787Z" fill="#e6e9ed"/>
        </g>
        <g id="Grupo_99021" data-name="Grupo 99021">
          <path id="Trazado_126361" data-name="Trazado 126361" d="M90.289,85.47l-3.353,8.917H81.968L78.615,85.47l5.837-3.5Z" fill="#ccd1d9"/>
        </g>
        <g id="Grupo_99022" data-name="Grupo 99022">
          <path id="Trazado_126362" data-name="Trazado 126362" d="M101.218,78.59a40.493,40.493,0,0,1,21.014,15.872,29.73,29.73,0,0,0-27.745,27.546h-.025L86.935,94.387l3.353-8.917,6.582,3.949Z" fill="#b4dd7f"/>
        </g>
        <g id="Grupo_99023" data-name="Grupo 99023">
          <path id="Trazado_126363" data-name="Trazado 126363" d="M44.71,116.742a7.332,7.332,0,0,0,1.49,4.471l-1.49,1.118-9.091,6.831H35.1a15.212,15.212,0,0,1-15.226-15.226V84.452a5,5,0,0,0,4.968,4.968,4.982,4.982,0,0,0,4.968-4.968v-14.9a4.874,4.874,0,0,0,1.093,3.1l9.315,26.379,5.166,14.63a7.537,7.537,0,0,0-.671,3.08Z" fill="#b4dd7f"/>
        </g>
        <g id="Grupo_99024" data-name="Grupo 99024">
          <path id="Trazado_126364" data-name="Trazado 126364" d="M59.613,116.742a7.449,7.449,0,0,0-14.233-3.08l-5.166-14.63A48.957,48.957,0,0,1,67.661,78.515l4.372,10.9,6.582-3.949,3.353,8.917-8.942,32.787-13.413-6.706-.795-.4A7.471,7.471,0,0,0,59.613,116.742Z" fill="#b4dd7f"/>
        </g>
        <g id="Grupo_99025" data-name="Grupo 99025">
          <path id="Trazado_126365" data-name="Trazado 126365" d="M101.218,78.59l-4.347,10.83L90.289,85.47l-5.837-3.5L94.387,77A40.826,40.826,0,0,1,101.218,78.59Z" fill="#a0d468"/>
        </g>
        <g id="Grupo_99026" data-name="Grupo 99026">
          <path id="Trazado_126366" data-name="Trazado 126366" d="M84.452,81.968l-5.837,3.5-6.582,3.949-4.372-10.9V78.49A51.709,51.709,0,0,1,74.516,77Z" fill="#a0d468"/>
        </g>
        <g id="Grupo_99027" data-name="Grupo 99027">
          <path id="Trazado_126367" data-name="Trazado 126367" d="M98.709,139.643l-39.1-19.175-.795-.4A7.443,7.443,0,0,1,46.2,121.213L18.381,142.077A7.452,7.452,0,0,1,12.419,154H124.194a29.733,29.733,0,0,1-25.485-14.357Z" fill="#ffeaa7"/>
        </g>
        <g id="Grupo_99028" data-name="Grupo 99028">
          <path id="Trazado_126368" data-name="Trazado 126368" d="M154,124.194a29.621,29.621,0,0,1-3.974,14.9H150l-25.807-14.9V94.387A29.8,29.8,0,0,1,154,124.194Z" fill="#ff826e"/>
        </g>
        <g id="Grupo_99029" data-name="Grupo 99029">
          <path id="Trazado_126369" data-name="Trazado 126369" d="M150,139.1h.025a29.819,29.819,0,0,1-51.317.546,5.751,5.751,0,0,0,.323-.919l25.162-14.531Z" fill="#fcd770"/>
        </g>
        <g id="Grupo_99030" data-name="Grupo 99030">
          <path id="Trazado_126370" data-name="Trazado 126370" d="M124.194,124.194,99.032,138.724a6.59,6.59,0,0,0,.323-2.111,7.386,7.386,0,0,0-4.446-6.806,30.066,30.066,0,0,1-.522-5.614,21.132,21.132,0,0,1,.1-2.186,29.73,29.73,0,0,1,27.745-27.546c.646-.05,1.292-.075,1.962-.075Z" fill="#69d6f4"/>
        </g>
        <g id="Grupo_99031" data-name="Grupo 99031">
          <path id="Trazado_126371" data-name="Trazado 126371" d="M94.909,129.807a7.386,7.386,0,0,1,4.446,6.806,6.59,6.59,0,0,1-.323,2.111,5.75,5.75,0,0,1-.323.919,7.4,7.4,0,0,1-6.806,4.421,6.885,6.885,0,0,1-2.484-.447,7.372,7.372,0,0,1-4.968-7,7.471,7.471,0,0,1,.795-3.328,7.388,7.388,0,0,1,6.657-4.123,7.174,7.174,0,0,1,3.005.646Z" fill="#ff826e"/>
        </g>
        <g id="Grupo_99032" data-name="Grupo 99032">
          <path id="Trazado_126372" data-name="Trazado 126372" d="M52.161,109.29A7.452,7.452,0,1,1,46.2,121.213a7.332,7.332,0,0,1-1.49-4.471,7.537,7.537,0,0,1,.671-3.08A7.417,7.417,0,0,1,52.161,109.29Z" fill="#ff826e"/>
        </g>
        <g id="Grupo_99033" data-name="Grupo 99033">
          <path id="Trazado_126373" data-name="Trazado 126373" d="M18.381,142.077a7.452,7.452,0,1,1-5.961-2.981A7.494,7.494,0,0,1,18.381,142.077Z" fill="#ff826e"/>
        </g>
        <g id="Grupo_99034" data-name="Grupo 99034">
          <path id="Trazado_126374" data-name="Trazado 126374" d="M29.806,69.548v14.9a4.982,4.982,0,0,1-4.968,4.968,5,5,0,0,1-4.968-4.968V63.96a20.181,20.181,0,0,0,9.935,0Z" fill="#969faa"/>
        </g>
        <g id="Grupo_99035" data-name="Grupo 99035">
          <path id="Trazado_126375" data-name="Trazado 126375" d="M24.839,24.839A19.877,19.877,0,0,1,29.806,63.96a20.181,20.181,0,0,1-9.935,0,19.877,19.877,0,0,1,4.968-39.121Z" fill="#fcd770"/>
        </g>
        <g id="Grupo_99036" data-name="Grupo 99036">
          <circle id="Elipse_5927" data-name="Elipse 5927" cx="9.935" cy="9.935" r="9.935" transform="translate(14.903 34.774)" fill="#69d6f4"/>
        </g>
        <g id="Grupo_99037" data-name="Grupo 99037">
          <path id="Trazado_126376" data-name="Trazado 126376" d="M19.871,69.548v9.935A5,5,0,0,1,14.9,84.452a4.982,4.982,0,0,1-4.968-4.968V69.548A5,5,0,0,1,14.9,64.581,4.982,4.982,0,0,1,19.871,69.548Z" fill="#f0d0b4"/>
        </g>
        <g id="Grupo_99038" data-name="Grupo 99038">
          <path id="Trazado_126377" data-name="Trazado 126377" d="M39.742,69.548a4.982,4.982,0,0,1-4.968,4.968,4.857,4.857,0,0,1-3.5-1.465c-.124-.124-.248-.248-.373-.4a4.96,4.96,0,1,1,8.843-3.1Z" fill="#f0d0b4"/>
        </g>
        <g id="Grupo_99039" data-name="Grupo 99039">
          <path id="Trazado_126378" data-name="Trazado 126378" d="M106.806,39.742a7.276,7.276,0,0,1,5.564,2.534,7.436,7.436,0,0,1-5.564,12.37h-2.484v-14.9Z" fill="#f0d0b4"/>
        </g>
        <g id="Grupo_99040" data-name="Grupo 99040">
          <path id="Trazado_126379" data-name="Trazado 126379" d="M92.45,69.25,94.387,77l-9.935,4.968L74.516,77l1.937-7.75a15.108,15.108,0,0,0,3.03.3h9.935a15.108,15.108,0,0,0,3.03-.3Z" fill="#f0d0b4"/>
        </g>
        <g id="Grupo_99041" data-name="Grupo 99041">
          <path id="Trazado_126380" data-name="Trazado 126380" d="M104.323,39.742v14.9A14.941,14.941,0,0,1,92.45,69.25a15.108,15.108,0,0,1-3.03.3H79.484a15.108,15.108,0,0,1-3.03-.3A14.941,14.941,0,0,1,64.581,54.645V34.774a9.943,9.943,0,0,1,8.793-9.861H73.4l9.911-.025,9.935-.025h1.118a9.938,9.938,0,0,1,9.96,9.935Z" fill="#f0d0b4"/>
        </g>
        <g id="Grupo_99042" data-name="Grupo 99042">
          <path id="Trazado_126381" data-name="Trazado 126381" d="M64.581,39.742v14.9H62.1a7.424,7.424,0,0,1-5.564-12.37A7.276,7.276,0,0,1,62.1,39.742Z" fill="#f0d0b4"/>
        </g>
      </g>
      <g id="Grupo_99044" data-name="Grupo 99044">
        <circle id="Elipse_5928" data-name="Elipse 5928" cx="2.484" cy="2.484" r="2.484" transform="translate(91.903 37.258)"/>
        <circle id="Elipse_5929" data-name="Elipse 5929" cx="2.484" cy="2.484" r="2.484" transform="translate(72.032 37.258)"/>
        <path id="Trazado_126382" data-name="Trazado 126382" d="M96.871,52.161H91.9a4.973,4.973,0,0,1-4.968,4.968H77V62.1h9.935A9.945,9.945,0,0,0,96.871,52.161Z"/>
        <path id="Trazado_126383" data-name="Trazado 126383" d="M88.041,34.357,90.8,30.224a14.222,14.222,0,0,1-6.344-11.856v-.981H79.484v.981a19.177,19.177,0,0,0,8.557,15.989Z"/>
        <path id="Trazado_126384" data-name="Trazado 126384" d="M97.976,34.357l2.755-4.133a14.222,14.222,0,0,1-6.344-11.856v-.981H89.419v.981a19.177,19.177,0,0,0,8.557,15.989Z"/>
        <path id="Trazado_126385" data-name="Trazado 126385" d="M24.839,57.129A12.419,12.419,0,1,0,12.419,44.71,12.433,12.433,0,0,0,24.839,57.129Zm0-19.871a7.452,7.452,0,1,1-7.452,7.452A7.461,7.461,0,0,1,24.839,37.258Z"/>
        <path id="Trazado_126386" data-name="Trazado 126386" d="M121.71,17.387h34.774v4.968H121.71Z"/>
        <path id="Trazado_126387" data-name="Trazado 126387" d="M121.71,27.323h34.774V32.29H121.71Z"/>
        <path id="Trazado_126388" data-name="Trazado 126388" d="M121.71,37.258h9.935v4.968H121.71Z"/>
        <path id="Trazado_126389" data-name="Trazado 126389" d="M136.613,37.258h19.871v4.968H136.613Z"/>
        <path id="Trazado_126390" data-name="Trazado 126390" d="M126.677,47.194h4.968v4.968h-4.968Z"/>
        <path id="Trazado_126391" data-name="Trazado 126391" d="M136.613,47.194h4.968v4.968h-4.968Z"/>
        <path id="Trazado_126392" data-name="Trazado 126392" d="M146.548,47.194h4.968v4.968h-4.968Z"/>
        <path id="Trazado_126393" data-name="Trazado 126393" d="M124.194,91.9c-.248,0-.492.032-.738.037A43.024,43.024,0,0,0,96.416,74.871l-.986-3.932a17.41,17.41,0,0,0,11.177-13.81h.2a9.922,9.922,0,0,0,8.276-15.415l.792-3.169A29.012,29.012,0,0,0,87.718,2.484H81.183A29.014,29.014,0,0,0,53.031,38.547l.792,3.167A9.919,9.919,0,0,0,62.1,57.129h.2a17.414,17.414,0,0,0,11.177,13.81L72.5,74.824A51.446,51.446,0,0,0,40.969,93.707L35.062,76.973A7.424,7.424,0,0,0,37.906,62.81a22.355,22.355,0,1,0-26.135,0,7.447,7.447,0,0,0-4.319,6.739v9.935A7.461,7.461,0,0,0,14.9,86.935a7.368,7.368,0,0,0,2.484-.457v27.459A17.73,17.73,0,0,0,29.419,130.7l-10.832,8.125a9.825,9.825,0,0,0-6.167-2.208,9.935,9.935,0,0,0,0,19.871H124.194a32.29,32.29,0,1,0,0-64.581ZM21.6,142.768l5.723-4.292v13.04H20.974a9.716,9.716,0,0,0,.626-8.748ZM32.29,134.75l9.935-7.452v24.218H32.29Zm24.839-18.008a4.968,4.968,0,1,1-4.968-4.968A4.973,4.973,0,0,1,57.129,116.742ZM47.194,125.3a9.625,9.625,0,0,0,9.935,0v26.22H47.194Zm14.9-.81,9.935,4.968v22.062H62.1Zm17.2-42.32-6.038,3.621-2.226-5.566c1.033-.238,2.077-.455,3.132-.621ZM94.745,79.6c1.053.171,2.1.36,3.132.618L95.649,85.79l-6.038-3.621ZM84.452,84.864l2.777,1.667L85.214,91.9H83.689l-2.014-5.373Zm-.586,12.007h1.172L92,122.378c-.035.6-.092,1.2-.092,1.816,0,.835.052,1.667.117,2.5-.04,0-.077-.012-.117-.012a9.874,9.874,0,0,0-7.452,3.433l-8.492-4.247ZM77,131.938l5.194,2.6a9.818,9.818,0,0,0,4.742,10.631v6.349H77Zm9.935,4.675a4.968,4.968,0,1,1,4.968,4.968A4.973,4.973,0,0,1,86.935,136.613Zm14.632-2.226a9.938,9.938,0,0,0-4.369-6.153A27.126,27.126,0,0,1,121.71,97V122.76Zm16.123-41.826A32.4,32.4,0,0,0,94.313,112L89.544,94.509l2.017-5.378L98.1,93.053l4.511-11.279a38.081,38.081,0,0,1,15.085,10.787Zm-10.884-40.4V42.226a4.968,4.968,0,1,1,0,9.935ZM57.129,47.194A4.973,4.973,0,0,1,62.1,42.226v9.935A4.973,4.973,0,0,1,57.129,47.194Zm9.935,7.452V34.774a7.435,7.435,0,0,1,4.958-7,19.162,19.162,0,0,0,6.085,6.587l2.755-4.133a14.218,14.218,0,0,1-6.346-11.856v-.981H69.548v.981a19.322,19.322,0,0,0,.616,4.816A12.383,12.383,0,0,0,62.1,34.774v2.484a9.832,9.832,0,0,0-4.051.884l-.2-.8A24.06,24.06,0,0,1,81.185,7.452H87.72a24.06,24.06,0,0,1,23.336,29.893l-.2.8a9.832,9.832,0,0,0-4.051-.884V32.29h-4.968V54.645A12.433,12.433,0,0,1,89.419,67.065H79.484A12.433,12.433,0,0,1,67.064,54.645ZM79.484,72.032h9.935c.387,0,.77-.032,1.15-.057l.924,3.694-7.042,3.522L77.41,75.669l.924-3.694c.38.025.763.057,1.15.057ZM66.23,81.6l4.58,11.453,6.535-3.922,2.017,5.378L71.429,123.6l-9.558-4.779a9.818,9.818,0,0,0-4.742-10.631v-6.349H52.161v4.968a9.851,9.851,0,0,0-5.877,1.967l-3.3-9.354A46.44,46.44,0,0,1,66.23,81.6ZM22.355,66.918a21.123,21.123,0,0,0,4.968,0V84.452a2.484,2.484,0,1,1-4.968,0Zm12.419,5.114a2.484,2.484,0,1,1,2.484-2.484A2.485,2.485,0,0,1,34.774,72.032ZM7.452,44.71A17.387,17.387,0,1,1,24.839,62.1,17.409,17.409,0,0,1,7.452,44.71ZM14.9,81.968a2.485,2.485,0,0,1-2.484-2.484V69.548a2.484,2.484,0,1,1,4.968,0v9.935A2.485,2.485,0,0,1,14.9,81.968Zm7.452,31.97V91.446a7.368,7.368,0,0,0,2.484.457,7.461,7.461,0,0,0,7.452-7.452v-.4L42.752,113.7a9.476,9.476,0,0,0,.229,6.823l-8.167,6.125a12.735,12.735,0,0,1-12.459-12.71Zm-14.9,32.611a4.968,4.968,0,1,1,4.968,4.968A4.973,4.973,0,0,1,7.452,146.548ZM91.9,151.516v-4.968a9.876,9.876,0,0,0,6.729-2.67,32.028,32.028,0,0,0,8.408,7.638Zm32.29,0a27.078,27.078,0,0,1-22.275-11.595l22.275-12.859,22.3,12.871A27.291,27.291,0,0,1,124.194,151.516Zm24.779-15.884-22.3-12.874V97a27.246,27.246,0,0,1,22.3,38.634Z"/>
      </g>
    </g>
  </g>
</svg>
