<svg xmlns="http://www.w3.org/2000/svg" xmlns:xlink="http://www.w3.org/1999/xlink" width="85" height="85" viewBox="0 0 85 85">
  <defs>
    <clipPath id="clip-path">
      <rect id="Rect치ngulo_35266" data-name="Rect치ngulo 35266" width="67" height="67" transform="translate(189 4865)" fill="#26d19e"/>
    </clipPath>
  </defs>
  <g id="Grupo_99213" data-name="Grupo 99213" transform="translate(-1125 -10434.338)">
    <rect id="Rect치ngulo_34163" data-name="Rect치ngulo 34163" width="85" height="85" transform="translate(1125 10434.338)" fill="#764cf0"/>
    <g id="Enmascarar_grupo_399" data-name="Enmascarar grupo 399" transform="translate(945 5578.338)" clip-path="url(#clip-path)">
      <g id="precio-bajo" transform="translate(189 4865)">
        <g id="Grupo_98898" data-name="Grupo 98898">
          <path id="Trazado_126114" data-name="Trazado 126114" d="M54.7,56.309H51.144V29.562a14.659,14.659,0,0,1-7.516.183c0,.034,0,.068,0,.1a18.976,18.976,0,0,1-2.173,8.843V56.309H37.9a.45.45,0,0,0-.326.761l8.4,8.809a.45.45,0,0,0,.652,0l8.4-8.809A.45.45,0,0,0,54.7,56.309Z" fill="#fe646f"/>
        </g>
        <g id="Grupo_98900" data-name="Grupo 98900">
          <g id="Grupo_98899" data-name="Grupo 98899">
            <path id="Trazado_126115" data-name="Trazado 126115" d="M41.936,57.07a.45.45,0,0,1,.326-.761h2.251A1.309,1.309,0,0,0,45.821,55V30.1a14.586,14.586,0,0,1-2.193-.351c0,.034,0,.068,0,.1a18.976,18.976,0,0,1-2.173,8.843V56.309H37.9a.45.45,0,0,0-.326.761l8.4,8.809a.45.45,0,0,0,.652,0l1.856-1.946Z" fill="#fd4755"/>
          </g>
        </g>
        <g id="Grupo_98901" data-name="Grupo 98901">
          <path id="Trazado_126116" data-name="Trazado 126116" d="M32.972,56.309H29.412V48.287a19.178,19.178,0,0,1-9.687,0v8.022H16.166a.45.45,0,0,0-.326.761l8.4,8.809a.45.45,0,0,0,.652,0l8.4-8.809A.45.45,0,0,0,32.972,56.309Z" fill="#fe646f"/>
        </g>
        <g id="Grupo_98903" data-name="Grupo 98903">
          <g id="Grupo_98902" data-name="Grupo 98902">
            <path id="Trazado_126117" data-name="Trazado 126117" d="M20.213,57.07a.45.45,0,0,1,.326-.761H22.79A1.309,1.309,0,0,0,24.1,55V48.9a19.071,19.071,0,0,1-4.373-.614v8.022H16.166a.45.45,0,0,0-.326.761l8.4,8.809a.45.45,0,0,0,.652,0l1.861-1.951Z" fill="#fd4755"/>
          </g>
        </g>
        <g id="Grupo_98905" data-name="Grupo 98905">
          <path id="Trazado_126118" data-name="Trazado 126118" d="M32.459,15.565a14.65,14.65,0,0,1,.3-2.935A19.063,19.063,0,1,0,43.63,29.848c0-.034,0-.068,0-.1a14.588,14.588,0,0,1-11.17-14.181Z" fill="#fff0ad"/>
          <path id="Trazado_126119" data-name="Trazado 126119" d="M32.777,18.606a13.9,13.9,0,1,0,5.461,8.585,14.585,14.585,0,0,1-5.461-8.585Z" fill="#ffe177"/>
          <g id="Grupo_98904" data-name="Grupo 98904">
            <path id="Trazado_126120" data-name="Trazado 126120" d="M16.162,29.848A13.949,13.949,0,0,1,27.328,16.2a13.925,13.925,0,1,0,0,27.3,13.949,13.949,0,0,1-11.166-13.65Z" fill="#ffd15b"/>
          </g>
        </g>
        <g id="Grupo_98910" data-name="Grupo 98910">
          <g id="Grupo_98906" data-name="Grupo 98906">
            <circle id="Elipse_5914" data-name="Elipse 5914" cx="14.583" cy="14.583" r="14.583" transform="translate(32.459 0.981)" fill="#05e39c"/>
          </g>
          <g id="Grupo_98907" data-name="Grupo 98907">
            <path id="Trazado_126121" data-name="Trazado 126121" d="M39.062,15.565A14.589,14.589,0,0,1,50.344,1.357a14.583,14.583,0,1,0,0,28.415A14.588,14.588,0,0,1,39.062,15.565Z" fill="#0ed290"/>
          </g>
          <g id="Grupo_98909" data-name="Grupo 98909">
            <g id="Grupo_98908" data-name="Grupo 98908">
              <circle id="Elipse_5915" data-name="Elipse 5915" cx="2.261" cy="2.261" r="2.261" transform="translate(39.957 8.028)" fill="#fff"/>
              <circle id="Elipse_5916" data-name="Elipse 5916" cx="2.261" cy="2.261" r="2.261" transform="translate(49.604 18.579)" fill="#fff"/>
            </g>
          </g>
        </g>
        <g id="Grupo_98911" data-name="Grupo 98911">
          <path id="Trazado_126122" data-name="Trazado 126122" d="M26.232,28.866H22.906a2.028,2.028,0,0,1,0-4.056h5.86a.981.981,0,0,0,0-1.963H25.55V20.741a.981.981,0,0,0-1.963,0v2.107h-.682a3.991,3.991,0,0,0,0,7.981h3.326a2.028,2.028,0,0,1,0,4.056h-5.86a.981.981,0,1,0,0,1.963h3.216v2.107a.981.981,0,0,0,1.963,0V36.848h.682a3.991,3.991,0,1,0,0-7.981Z"/>
          <path id="Trazado_126123" data-name="Trazado 126123" d="M61.623,16.562a.982.982,0,0,0-1.1.841,13.6,13.6,0,1,1-.093-4.274.982.982,0,0,0,1.932-.349,15.567,15.567,0,0,0-30.277-1.512A20.042,20.042,0,1,0,18.744,49.026v6.3H16.166a1.432,1.432,0,0,0-1.036,2.42l8.4,8.809a1.432,1.432,0,0,0,2.072,0l8.4-8.809a1.432,1.432,0,0,0-1.036-2.42H30.393v-6.3a20.108,20.108,0,0,0,10.082-7v13.3H37.9a1.432,1.432,0,0,0-1.036,2.42l8.4,8.809a1.432,1.432,0,0,0,2.072,0l8.4-8.809a1.432,1.432,0,0,0-1.036-2.42H52.125V45.016a.981.981,0,1,0-1.963,0V56.309a.981.981,0,0,0,.981.981h2.319L46.3,64.8,39.138,57.29h2.319a.981.981,0,0,0,.981-.981V38.915a19.9,19.9,0,0,0,2.142-7.981,15.6,15.6,0,0,0,5.582-.12v9.622a.981.981,0,1,0,1.963,0V30.276a15.57,15.57,0,0,0,10.339-12.61.981.981,0,0,0-.841-1.1ZM29.412,57.29h2.319L24.569,64.8,17.407,57.29h2.319a.981.981,0,0,0,.981-.981V49.515a20.083,20.083,0,0,0,7.724,0v6.794a.981.981,0,0,0,.981.981Zm-4.843-9.363a18.079,18.079,0,1,1,7.085-34.711,15.62,15.62,0,0,0-.177,2.349c0,.37.014.736.039,1.1a14.906,14.906,0,1,0,1.37,25.548.981.981,0,1,0-1.1-1.627A12.945,12.945,0,1,1,31.9,19.191a15.594,15.594,0,0,0,5.431,8.532,12.944,12.944,0,0,1,.177,2.125,12.815,12.815,0,0,1-2.628,7.808.981.981,0,1,0,1.563,1.187,14.761,14.761,0,0,0,3.028-9c0-.233-.007-.465-.018-.7a15.481,15.481,0,0,0,3.178,1.341A18.1,18.1,0,0,1,24.569,47.927Z"/>
          <path id="Trazado_126124" data-name="Trazado 126124" d="M45.461,10.289a3.242,3.242,0,1,0-3.242,3.242A3.246,3.246,0,0,0,45.461,10.289Zm-3.242,1.28a1.28,1.28,0,1,1,1.279-1.28A1.281,1.281,0,0,1,42.218,11.569Z"/>
          <path id="Trazado_126125" data-name="Trazado 126125" d="M51.865,24.083a3.242,3.242,0,1,0-3.242-3.242,3.246,3.246,0,0,0,3.242,3.242Zm0-4.522a1.28,1.28,0,1,1-1.28,1.28,1.281,1.281,0,0,1,1.28-1.28Z"/>
          <path id="Trazado_126126" data-name="Trazado 126126" d="M43,23.986a.981.981,0,0,0,1.31-.46L51.544,8.453a.982.982,0,0,0-1.77-.849L42.539,22.677A.981.981,0,0,0,43,23.986Z"/>
        </g>
      </g>
    </g>
  </g>
</svg>
