<svg xmlns="http://www.w3.org/2000/svg" xmlns:xlink="http://www.w3.org/1999/xlink" width="85" height="85" viewBox="0 0 85 85">
  <defs>
    <clipPath id="clip-path">
      <rect id="Rect치ngulo_35264" data-name="Rect치ngulo 35264" width="67" height="67" transform="translate(189 4865)" fill="#26d19e"/>
    </clipPath>
  </defs>
  <g id="Grupo_99208" data-name="Grupo 99208" transform="translate(-810 -10319.338)">
    <rect id="Rect치ngulo_34163" data-name="Rect치ngulo 34163" width="85" height="85" transform="translate(810 10319.338)" fill="#764cf0"/>
    <g id="Enmascarar_grupo_397" data-name="Enmascarar grupo 397" transform="translate(630 5463.338)" clip-path="url(#clip-path)">
      <g id="testimonios" transform="translate(188.329 4864.329)">
        <path id="Trazado_126055" data-name="Trazado 126055" d="M65.568,52.65a2.742,2.742,0,0,1-2.744,2.744H61.713a9.541,9.541,0,0,1-18.791,0H41.811a2.746,2.746,0,1,1,0-5.491h.964v1.268l3.831-5.4H58.029l3.831,5.4V49.9h.964a2.744,2.744,0,0,1,2.744,2.747Z" fill="#ffb69f"/>
        <path id="Trazado_126056" data-name="Trazado 126056" d="M61.839,28.511a13.2,13.2,0,1,0-21.28-13.955A2.116,2.116,0,0,1,39.5,15.806L33.946,18.6l5.551,2.79a2.117,2.117,0,0,1,1.062,1.249,13.222,13.222,0,0,0,21.28,5.876Z" fill="#f0c020"/>
        <path id="Trazado_126057" data-name="Trazado 126057" d="M28.616,18.29v7.934h-5.47a8.023,8.023,0,0,0,.282-2.121V17.622L10.25,15.853A2.767,2.767,0,0,0,7.128,18.6V24.1a8.222,8.222,0,0,0,.282,2.121H1.935V18.589A13.545,13.545,0,0,1,15.081,4.945,13.335,13.335,0,0,1,28.616,18.29Z" fill="#7c7b7a"/>
        <path id="Trazado_126058" data-name="Trazado 126058" d="M10.25,15.853A2.767,2.767,0,0,0,7.128,18.6V24.1a8.149,8.149,0,0,0,16.018,2.121,8.023,8.023,0,0,0,.282-2.121V17.622Z" fill="#ffb69f"/>
        <path id="Trazado_126059" data-name="Trazado 126059" d="M62.346,37.193l-1.728-1.183A3.275,3.275,0,0,1,57.4,38.675H47.107a4.333,4.333,0,0,0-4.332,4.332v8.164l3.831-5.4H58.029l3.831,5.4v-5.4l1.193-1.209a4.824,4.824,0,0,0-.707-7.366Z" fill="#7c7b7a"/>
        <path id="Trazado_126060" data-name="Trazado 126060" d="M7.166,39.75A13.168,13.168,0,1,0,28.4,53.671a2.111,2.111,0,0,1,1.06-1.246l5.537-2.783-5.537-2.783a2.111,2.111,0,0,1-1.06-1.246A13.169,13.169,0,0,0,7.166,39.75Z" fill="#72c1e8"/>
        <g id="Grupo_98879" data-name="Grupo 98879">
          <path id="Trazado_126061" data-name="Trazado 126061" d="M6.468,63.9c-.983-.325-2-.609-2.569-3.065C3.374,63.1,2.533,63.5,1.33,63.9c1.961.648,2.257,1.721,2.569,3.065C4.437,64.65,5.326,64.279,6.468,63.9Z" fill="#f0c020"/>
          <path id="Trazado_126062" data-name="Trazado 126062" d="M32.881,32.872c-.983-.325-2-.609-2.569-3.065-.525,2.262-1.367,2.667-2.569,3.065,1.961.648,2.257,1.721,2.569,3.065.537-2.316,1.426-2.687,2.569-3.065Z" fill="#f0c020"/>
          <path id="Trazado_126063" data-name="Trazado 126063" d="M40.6,37.894c-.983-.325-2-.609-2.569-3.065-.525,2.262-1.366,2.667-2.569,3.065,1.961.648,2.257,1.721,2.569,3.065C38.567,38.642,39.457,38.272,40.6,37.894Z" fill="#f0c020"/>
          <path id="Trazado_126064" data-name="Trazado 126064" d="M67.011,4.438c-.983-.325-2-.609-2.569-3.065-.525,2.262-1.366,2.667-2.569,3.065,1.961.648,2.257,1.721,2.569,3.065C64.98,5.187,65.869,4.816,67.011,4.438Z" fill="#f0c020"/>
        </g>
        <path id="Trazado_126065" data-name="Trazado 126065" d="M12.7,45.965h1.121a.57.57,0,0,0,.57-.57V43.547a1.361,1.361,0,0,1,1.285-1.381,1.326,1.326,0,0,1,1.367,1.325,2.473,2.473,0,0,0,2.473,2.473h1.262V55.25H12.7A2.547,2.547,0,0,1,10.158,52.7V48.512a2.547,2.547,0,0,1,2.547-2.547Z" fill="#ffb69f"/>
        <path id="Trazado_126066" data-name="Trazado 126066" d="M58.391,19l-5.266,5.266L47.859,19a2.781,2.781,0,1,1,3.932-3.932L53.126,16.4l1.335-1.333A2.78,2.78,0,1,1,58.391,19Z" fill="#fc5d3d"/>
        <path id="Trazado_126067" data-name="Trazado 126067" d="M53.125,29.34a.667.667,0,0,1,0-1.335c.194,0,.391-.006.585-.018a.668.668,0,1,1,.08,1.333c-.22.013-.444.02-.665.02Zm2.606-.981a.667.667,0,0,1,.421-.845,9.207,9.207,0,0,0,3.19-1.834A9.456,9.456,0,0,0,62.55,18.6a9.561,9.561,0,0,0-7.587-9.3A.667.667,0,1,1,55.257,8a10.8,10.8,0,0,1,4.969,18.685,10.54,10.54,0,0,1-3.649,2.1.667.667,0,0,1-.846-.421Z" fill="#f9e5af"/>
        <path id="Trazado_126068" data-name="Trazado 126068" d="M24.226,14.914a9.532,9.532,0,0,0-.45-1.008.667.667,0,1,1,1.185-.614,10.822,10.822,0,0,1,.513,1.148.667.667,0,1,1-1.248.472Zm-1.871-3.051A9.6,9.6,0,0,0,15.265,8.72a.667.667,0,0,1,0-1.335,10.935,10.935,0,0,1,8.077,3.581.667.667,0,1,1-.988.9Z" fill="#afafaf"/>
        <path id="Trazado_126069" data-name="Trazado 126069" d="M5.131,49.643A10.758,10.758,0,0,1,8.78,41.581a.667.667,0,1,1,.883,1A9.391,9.391,0,0,0,19.245,58.4a.667.667,0,1,1,.477,1.247,10.732,10.732,0,0,1-14.59-10Zm16.151,8.5a.667.667,0,0,1,.142-.934c.2-.147.4-.3.582-.466a.667.667,0,1,1,.877,1.007c-.214.187-.439.367-.667.534a.667.667,0,0,1-.934-.14Z" fill="#c5e5ff"/>
        <path id="Trazado_126070" data-name="Trazado 126070" d="M3.257,67.116a.66.66,0,0,0,1.286,0c.473-2.039,1.169-2.269,2.133-2.587a.661.661,0,0,0,0-1.255c-.926-.3-1.649-.5-2.133-2.587a.661.661,0,0,0-1.286,0c-.474,2.039-1.134,2.257-2.133,2.587a.661.661,0,0,0,0,1.255c1.659.548,1.847,1.359,2.133,2.587ZM3.9,62.764a3.367,3.367,0,0,0,.988,1.142,3.268,3.268,0,0,0-.977,1.1A3.43,3.43,0,0,0,2.88,63.916,3.272,3.272,0,0,0,3.9,62.765Z"/>
        <path id="Trazado_126071" data-name="Trazado 126071" d="M33.088,32.245c-.926-.3-1.649-.5-2.133-2.587a.661.661,0,0,0-1.286,0c-.473,2.039-1.134,2.257-2.133,2.587a.661.661,0,0,0,0,1.255c1.66.548,1.848,1.359,2.133,2.587a.66.66,0,0,0,1.286,0c.473-2.039,1.169-2.269,2.133-2.587a.661.661,0,0,0,0-1.255ZM30.325,33.98a3.432,3.432,0,0,0-1.034-1.093,3.274,3.274,0,0,0,1.023-1.151,3.367,3.367,0,0,0,.988,1.142,3.267,3.267,0,0,0-.977,1.1Z"/>
        <path id="Trazado_126072" data-name="Trazado 126072" d="M38.673,34.68a.661.661,0,0,0-1.286,0c-.473,2.039-1.134,2.257-2.133,2.587a.661.661,0,0,0,0,1.255c1.66.548,1.848,1.359,2.133,2.587a.66.66,0,0,0,1.286,0c.473-2.039,1.169-2.269,2.133-2.587a.661.661,0,0,0,0-1.255C39.88,36.962,39.157,36.765,38.673,34.68ZM38.043,39a3.43,3.43,0,0,0-1.034-1.094,3.275,3.275,0,0,0,1.023-1.151A3.367,3.367,0,0,0,39.02,37.9a3.264,3.264,0,0,0-.977,1.1Z"/>
        <path id="Trazado_126073" data-name="Trazado 126073" d="M67.219,3.811c-.926-.3-1.649-.5-2.133-2.587a.661.661,0,0,0-1.286,0c-.473,2.039-1.134,2.257-2.133,2.587a.661.661,0,0,0,0,1.255c1.66.548,1.848,1.359,2.133,2.587a.66.66,0,0,0,1.286,0c.473-2.039,1.169-2.269,2.133-2.587a.661.661,0,0,0,0-1.255ZM64.456,5.547a3.424,3.424,0,0,0-1.034-1.095A3.272,3.272,0,0,0,64.445,3.3a3.37,3.37,0,0,0,.988,1.142,3.268,3.268,0,0,0-.977,1.1Z"/>
        <path id="Trazado_126074" data-name="Trazado 126074" d="M41.165,24.224a.667.667,0,1,0,.9.275.667.667,0,0,0-.9-.275Z"/>
        <path id="Trazado_126075" data-name="Trazado 126075" d="M62.282,8.18a13.869,13.869,0,0,0-22.358,6.175,1.456,1.456,0,0,1-.726.857L33.645,18a.667.667,0,0,0,0,1.191l5.553,2.79a1.449,1.449,0,0,1,.649.665.681.681,0,0,0,.892.31.667.667,0,0,0,.31-.892A2.781,2.781,0,0,0,39.8,20.791L35.431,18.6,39.8,16.4a2.788,2.788,0,0,0,1.4-1.642A12.533,12.533,0,1,1,43.48,26.6a.686.686,0,0,0-.94-.085.667.667,0,0,0-.085.94A13.868,13.868,0,1,0,62.282,8.18Z"/>
        <path id="Trazado_126076" data-name="Trazado 126076" d="M1.268,26.223a.665.665,0,0,0,.667.667H6.914a8.817,8.817,0,0,0,16.727,0h4.974a.665.665,0,0,0,.667-.667V18.289a13.976,13.976,0,0,0-27.612-3.1.667.667,0,0,0,.491.8.674.674,0,0,0,.806-.491,12.641,12.641,0,0,1,24.979,2.787v7.267H23.97a7.905,7.905,0,0,0,.123-1.453V17.622a.674.674,0,0,0-.58-.662c-.2-.027-13.015-1.747-13.211-1.771A3.442,3.442,0,0,0,6.46,18.6V24.1a8.923,8.923,0,0,0,.124,1.453H2.6v-4.9a.667.667,0,1,0-1.335,0ZM7.8,18.6a2.1,2.1,0,0,1,2.367-2.082l12.6,1.692v5.9A7.482,7.482,0,1,1,7.8,24.1Z"/>
        <path id="Trazado_126077" data-name="Trazado 126077" d="M1.949,18.652a.718.718,0,1,0-.029,0A.1.1,0,0,0,1.949,18.652Z"/>
        <path id="Trazado_126078" data-name="Trazado 126078" d="M15.278,29.272a3.657,3.657,0,0,0,3.411-2.362.667.667,0,0,0-1.25-.468,2.309,2.309,0,0,1-4.321,0,.667.667,0,1,0-1.251.465,3.65,3.65,0,0,0,3.411,2.364Z"/>
        <path id="Trazado_126079" data-name="Trazado 126079" d="M10.825,21.744a.667.667,0,0,0,.667-.667v-.563a.667.667,0,0,0-1.335,0v.563a.667.667,0,0,0,.667.667Z"/>
        <path id="Trazado_126080" data-name="Trazado 126080" d="M19.728,21.744a.667.667,0,0,0,.667-.667v-.563a.667.667,0,0,0-1.335,0v.563a.667.667,0,0,0,.667.667Z"/>
        <path id="Trazado_126081" data-name="Trazado 126081" d="M15.277,24.314a.667.667,0,0,0,.667-.667v-2.57a.667.667,0,1,0-1.335,0v2.57a.667.667,0,0,0,.667.667Z"/>
        <path id="Trazado_126082" data-name="Trazado 126082" d="M63.527,45.029a5.492,5.492,0,0,0-.806-8.387L60.995,35.46a.667.667,0,0,0-1.033.427A2.609,2.609,0,0,1,57.4,38.009H47.107a5,5,0,0,0-5,5v6.228h-.3a3.414,3.414,0,1,0,0,6.827h.568a10.194,10.194,0,0,0,9.931,7.88h0a10.187,10.187,0,0,0,9.943-7.88h.567a3.414,3.414,0,1,0,0-6.827h-.3V46.043Zm-21.716,9.7a2.079,2.079,0,1,1,0-4.157h.3v3.162c0,.336.02.707.048,1Zm1.631-8.291h1.873l-1.873,2.64Zm17.749,7.3a8.863,8.863,0,0,1-8.879,8.875h0a8.871,8.871,0,0,1-8.868-8.875V51.382l3.509-4.947h10.73l3.509,4.947Zm0-4.656-1.873-2.64h1.873Zm1.632,1.494a2.079,2.079,0,1,1,0,4.158h-.345c.028-.291.048-.664.048-1V50.569ZM61.581,45.1H43.442V43.007a3.669,3.669,0,0,1,3.665-3.665H57.4a3.946,3.946,0,0,0,3.574-2.279l.994.68a4.157,4.157,0,0,1,.608,6.346Z"/>
        <path id="Trazado_126083" data-name="Trazado 126083" d="M55.333,56.171a.68.68,0,0,0-.86.392,2.3,2.3,0,0,1-4.309,0,.68.68,0,0,0-.857-.392.667.667,0,0,0-.4.857,0,0,0,0,0,0,0,3.636,3.636,0,0,0,6.807,0,.669.669,0,0,0-.39-.86Z"/>
        <path id="Trazado_126084" data-name="Trazado 126084" d="M47.877,49.981a.667.667,0,0,0-.667.667v.561a.667.667,0,0,0,1.335,0v-.561a.667.667,0,0,0-.667-.667Z"/>
        <path id="Trazado_126085" data-name="Trazado 126085" d="M56.757,49.981a.667.667,0,0,0-.667.667v.561a.667.667,0,0,0,1.335,0v-.561a.667.667,0,0,0-.667-.667Z"/>
        <path id="Trazado_126086" data-name="Trazado 126086" d="M52.317,54.442a.667.667,0,0,0,.667-.667V51.211a.667.667,0,1,0-1.335,0v2.563a.667.667,0,0,0,.667.667Z"/>
        <path id="Trazado_126087" data-name="Trazado 126087" d="M29.032,45.41A13.837,13.837,0,0,0,2.208,51.9a.667.667,0,1,0,1.316-.219,12.673,12.673,0,0,1-.166-2.034,12.5,12.5,0,0,1,24.4-3.828,2.8,2.8,0,0,0,1.4,1.639l4.351,2.189L29.155,51.83a2.8,2.8,0,0,0-1.4,1.639,12.507,12.507,0,0,1-22.433,2.91.684.684,0,0,0-.924-.2.664.664,0,0,0-.2.921,13.837,13.837,0,0,0,24.83-3.222,1.425,1.425,0,0,1,.723-.852l5.537-2.784a.667.667,0,0,0,0-1.193l-5.537-2.782a1.43,1.43,0,0,1-.723-.854Z"/>
        <path id="Trazado_126088" data-name="Trazado 126088" d="M4.186,54.121s0,0,0,0a.682.682,0,0,0-.862-.382.667.667,0,1,0,.865.384Z"/>
        <path id="Trazado_126089" data-name="Trazado 126089" d="M12.7,46.632h1.121a1.239,1.239,0,0,0,1.238-1.237V43.547a.694.694,0,0,1,.638-.714.658.658,0,0,1,.679.658,3.148,3.148,0,0,0,3.156,3.141h1.247a.667.667,0,1,0,0-1.335H19.521a1.808,1.808,0,0,1-1.806-1.806A1.992,1.992,0,0,0,15.661,41.5a2.037,2.037,0,0,0-1.933,2.048V45.3H12.7a3.218,3.218,0,0,0-3.214,3.214V52.7A3.218,3.218,0,0,0,12.7,55.917h8.085a.667.667,0,1,0,0-1.335H12.7a1.88,1.88,0,0,1-1.876-1.821h2.751a.667.667,0,1,0,0-1.335H10.825V49.789h2.754a.667.667,0,1,0,0-1.335H10.828A1.88,1.88,0,0,1,12.7,46.632Z"/>
        <path id="Trazado_126090" data-name="Trazado 126090" d="M53.6,24.734l5.266-5.266a3.448,3.448,0,1,0-4.876-4.876l-.862.861-.862-.861a3.448,3.448,0,0,0-4.876,4.876l5.266,5.266a.667.667,0,0,0,.944,0Zm-5.266-9.2a2.116,2.116,0,0,1,2.989,0l1.335,1.335a.667.667,0,0,0,.944,0l1.335-1.335a2.114,2.114,0,1,1,2.989,2.99l-4.8,4.791-4.794-4.794A2.116,2.116,0,0,1,48.331,15.537Z"/>
      </g>
    </g>
  </g>
</svg>
