<svg xmlns="http://www.w3.org/2000/svg" width="308.331" height="308.336" viewBox="0 0 308.331 308.336">
  <g id="Grupo_95474" data-name="Grupo 95474" transform="translate(0)">
    <path id="Trazado_123233" data-name="Trazado 123233" d="M1011.589,288.99l-77.356,37.579-1.148.559-7.854,3.819-.2.1-.792.381-.037.018-1.032.5L898.57,343.9l-5.225,2.542-.319.153-.141.074-.031.012-4.845,2.352-10.033,4.875-57.253,27.816A12.367,12.367,0,0,1,804.192,376l-6.754-13.9-10.967-22.572-24.34-50.105v-.006l-6.5-13.374-13.859-28.534-5.913-12.17-24.389-50.2a12.365,12.365,0,0,1,5.717-16.524L908.05,75.877a12.37,12.37,0,0,1,16.53,5.717l92.726,190.866A12.37,12.37,0,0,1,1011.589,288.99Z" transform="translate(-710.221 -74.631)" fill="#ffd41c"/>
    <path id="Trazado_123285" data-name="Trazado 123285" d="M951.768,295.4a108.806,108.806,0,0,1-13.862,53.311l-10.033,4.877-1.048.51-7.169,3.486-.185.09-.723.348-.034.017-.942.46-22.455,10.908-4.77,2.321-.291.14-.129.067-.028.011-4.423,2.147-9.159,4.451L825.37,403.4a107.917,107.917,0,0,1-15.639-3.649c-.2-.331-.392-.673-.566-1.031L803,386.024l-10.011-20.6-22.219-45.739v-.006l-5.936-12.208L752.182,281.42l-5.4-11.11-6.614-13.615a109.343,109.343,0,0,1,211.6,38.71Z" transform="translate(-695.476 -105.945)" fill="#21155c"/>
    <g id="Grupo_95475" data-name="Grupo 95475" transform="translate(157.871 40.203)">
      <rect id="Rectángulo_35321" data-name="Rectángulo 35321" width="143.175" height="41.465" rx="6.392" fill="#e8e1fc"/>
      <g id="Grupo_95474-2" data-name="Grupo 95474" transform="translate(13.584 10.303)">
        <path id="Trazado_123234" data-name="Trazado 123234" d="M987.413,205.535l1.623,4.994h5.251a1.421,1.421,0,0,1,.835,2.571l-4.248,3.087,1.623,4.993a1.422,1.422,0,0,1-2.187,1.59l-4.248-3.087-4.248,3.087a1.421,1.421,0,0,1-2.187-1.59l1.623-4.993L977,213.1a1.421,1.421,0,0,1,.835-2.571h5.25l1.623-4.994A1.421,1.421,0,0,1,987.413,205.535Z" transform="translate(-976.413 -204.553)" fill="#764cf0"/>
        <path id="Trazado_123235" data-name="Trazado 123235" d="M1022.727,205.535l1.623,4.994h5.25a1.421,1.421,0,0,1,.836,2.571l-4.249,3.087,1.623,4.993a1.421,1.421,0,0,1-2.187,1.59l-4.248-3.087-4.248,3.087a1.422,1.422,0,0,1-2.187-1.59l1.623-4.993-4.248-3.087a1.421,1.421,0,0,1,.835-2.571h5.251l1.623-4.994A1.421,1.421,0,0,1,1022.727,205.535Z" transform="translate(-987.331 -204.553)" fill="#764cf0"/>
        <path id="Trazado_123236" data-name="Trazado 123236" d="M1058.04,205.535l1.623,4.994h5.251a1.421,1.421,0,0,1,.835,2.571l-4.248,3.087,1.623,4.993a1.422,1.422,0,0,1-2.187,1.59l-4.248-3.087-4.248,3.087a1.421,1.421,0,0,1-2.187-1.59l1.623-4.993-4.248-3.087a1.421,1.421,0,0,1,.835-2.571h5.25l1.623-4.994A1.421,1.421,0,0,1,1058.04,205.535Z" transform="translate(-998.249 -204.553)" fill="#764cf0"/>
        <path id="Trazado_123237" data-name="Trazado 123237" d="M1093.354,205.535l1.623,4.994h5.25a1.421,1.421,0,0,1,.836,2.571l-4.249,3.087,1.623,4.993a1.422,1.422,0,0,1-2.187,1.59L1092,219.682l-4.248,3.087a1.422,1.422,0,0,1-2.187-1.59l1.623-4.993-4.248-3.087a1.421,1.421,0,0,1,.835-2.571h5.251l1.623-4.994A1.421,1.421,0,0,1,1093.354,205.535Z" transform="translate(-1009.168 -204.553)" fill="#764cf0"/>
        <path id="Trazado_123238" data-name="Trazado 123238" d="M1128.667,205.535l1.623,4.994h5.251a1.421,1.421,0,0,1,.835,2.571l-4.248,3.087,1.623,4.993a1.422,1.422,0,0,1-2.187,1.59l-4.248-3.087-4.248,3.087a1.421,1.421,0,0,1-2.187-1.59l1.623-4.993-4.248-3.087a1.421,1.421,0,0,1,.835-2.571h5.251l1.622-4.994A1.421,1.421,0,0,1,1128.667,205.535Z" transform="translate(-1020.086 -204.553)" fill="#764cf0"/>
      </g>
      <path id="Trazado_123239" data-name="Trazado 123239" d="M1011.578,245.785V265.2l16.318-19.418Z" transform="translate(-973.701 -206.998)" fill="#e8e1fc"/>
    </g>
    <g id="Grupo_95507" data-name="Grupo 95507" transform="translate(154.165 93.519)">
      <g id="Grupo_90922" data-name="Grupo 90922" transform="translate(5.197 12.924)">
        <path id="Trazado_114424" data-name="Trazado 114424" d="M315.426,119.489l5.376,1.654-5.376,1.654-1.654,5.376-1.654-5.376-5.376-1.654,5.376-1.654,1.654-5.376Z" transform="translate(-306.742 -78.231)" fill="#764cf0"/>
        <path id="Trazado_114425" data-name="Trazado 114425" d="M340.609,116.943l3.967,1.22-3.967,1.221-1.221,3.967-1.22-3.967-3.967-1.221,3.967-1.22,1.22-3.967Z" transform="translate(-277.433 -78.202)" fill="#764cf0"/>
        <path id="Trazado_114426" data-name="Trazado 114426" d="M340.609,81.271l3.967,1.221-3.967,1.221-1.221,3.967-1.22-3.967L334.2,82.491l3.967-1.221,1.22-3.967Z" transform="translate(-307.433 -77.304)" fill="#764cf0"/>
        <path id="Trazado_114427" data-name="Trazado 114427" d="M434.5,129.131l3.967,1.221-3.967,1.22-1.221,3.967-1.22-3.967-3.967-1.22,3.967-1.221,1.22-3.967Z" transform="translate(-353.527 -21.509)" fill="#764cf0"/>
        <path id="Trazado_114428" data-name="Trazado 114428" d="M449.9,140.6l3.967,1.22-3.967,1.221-1.22,3.967-1.221-3.967-3.967-1.221,3.967-1.22,1.221-3.967Z" transform="translate(-376.187 -50.799)" fill="#764cf0"/>
      </g>
      <g id="Grupo_90923" data-name="Grupo 90923">
        <ellipse id="Elipse_4913" data-name="Elipse 4913" cx="2.157" cy="2.157" rx="2.157" ry="2.157" transform="translate(34.831 36.269)" fill="#764cf0"/>
        <ellipse id="Elipse_4914" data-name="Elipse 4914" cx="2.157" cy="2.157" rx="2.157" ry="2.157" transform="translate(0 1.438)" fill="#764cf0"/>
        <ellipse id="Elipse_4915" data-name="Elipse 4915" cx="2.157" cy="2.157" rx="2.157" ry="2.157" transform="translate(28.599)" fill="#764cf0"/>
        <ellipse id="Elipse_4916" data-name="Elipse 4916" cx="2.157" cy="2.157" rx="2.157" ry="2.157" transform="translate(0.679 70.42)" fill="#764cf0"/>
        <ellipse id="Elipse_4917" data-name="Elipse 4917" cx="2.157" cy="2.157" rx="2.157" ry="2.157" transform="translate(90.136 102.28)" fill="#764cf0"/>
      </g>
    </g>
    <g id="Grupo_95501" data-name="Grupo 95501" transform="translate(16.406 37.412)">
      <g id="Grupo_95476" data-name="Grupo 95476" transform="translate(0 51.156)">
        <path id="Trazado_123240" data-name="Trazado 123240" d="M934.546,331.971v.2c0,.477-.021.946-.048,1.423-.014.214-.035.435-.055.656a19.9,19.9,0,0,1-.732,3.71c-.021.062-.041.124-.062.193-.048.166-.1.332-.159.5q-.145.425-.311.85c-.083.221-.173.442-.263.656-.111.242-.221.49-.339.739q-.1.228-.228.456c-.145.3-.311.6-.484.9-.083.159-.173.318-.269.47-.269.456-.553.9-.864,1.354-.256.373-.518.739-.808,1.112-.145.187-.29.38-.442.566a30.794,30.794,0,0,1-2.155,2.4c-.193.2-.394.394-.6.594-.124.124-.256.242-.387.366q-1.389,1.3-3.047,2.584l-.028.028-.007.007a59.622,59.622,0,0,1-6.335,4.221,116.985,116.985,0,0,1-20.144,8.987c-.511.18-1.029.359-1.547.532s-1.05.359-1.582.539-1.078.352-1.623.525-1.1.359-1.658.539q-4.632,1.461-9.139,2.722l-.967.269c-.392.108-.774.2-1.165.311q-2.033.559-4.044,1.078-3.181.808-6.286,1.534h-.007c-1.071.256-2.135.49-3.192.718q-2.984.653-5.906,1.216c-1.492.283-2.97.56-4.435.815q-3.3.58-6.5,1.036-5.347.777-10.452,1.257c-.242.021-.49.048-.739.069a180.078,180.078,0,0,1-23.564.642,144.518,144.518,0,0,1-15.9-1.52c-1.278-.193-2.542-.408-3.779-.636-2-.366-3.938-.781-5.824-1.223q-1.886-.446-3.7-.946c-.553-.152-1.091-.3-1.63-.463s-1.6-.477-1.6-.477v-.007l-7.316-15.046-15.592-32.1-6.653-13.692c13.775-10.915,35.308-17.581,35.259-46.734h.014l6.867-.408,4.919-.3,5.616-.332,49.138-2.929h.007l16.821-1.009,4.546-.269,7.951-.477c.007.007.007.007.014,0l.38-.021,3.468-.207,4.988-.3c.048.414.1.829.18,1.25a26.647,26.647,0,0,0,1.05,4.062c2.031,5.906,6.134,12.027,11,18.258.166.214.332.428.511.649.3.387.6.767.9,1.14.587.739,1.181,1.471,1.789,2.211.028.035.055.069.076.09,1.527,1.879,3.109,3.758,4.691,5.644a1.192,1.192,0,0,1,.083.1c.781.926,1.561,1.858,2.335,2.784.193.228.387.456.573.684.608.732,1.223,1.471,1.824,2.2.359.428.7.85,1.05,1.271.435.539.877,1.078,1.313,1.623.47.58.933,1.161,1.382,1.734.187.235.366.47.553.7,1.478,1.886,2.888,3.779,4.2,5.658.269.387.532.767.794,1.154.166.242.325.484.49.725,1.243,1.879,2.383,3.751,3.385,5.616.1.193.207.38.3.573a43.37,43.37,0,0,1,2.19,4.856c.062.159.124.318.18.47.076.214.145.421.214.629.062.173.117.345.173.518a29.975,29.975,0,0,1,.85,3.219c.041.187.076.373.111.566.041.256.083.5.124.753.028.187.055.38.076.566s.048.373.062.566c.014.124.028.242.034.366q.031.28.041.56c.014.173.021.352.028.525C934.539,331.578,934.539,331.778,934.546,331.971Z" transform="translate(-751.97 -259.65)" fill="#26d19e"/>
        <path id="Trazado_123241" data-name="Trazado 123241" d="M913.034,365.924c-.021.028-.035.062-.055.09-2.618,4.207-7.212,8.076-13.222,11.516-.511.18-1.029.359-1.547.539s-1.05.359-1.582.539-1.078.352-1.623.525-1.1.359-1.658.532q-4.632,1.461-9.133,2.722h-.007l-.967.269h-.007q-2.622.736-5.2,1.4-3.181.808-6.286,1.534h-.007c-1.085.249-2.155.49-3.226.718-1.983.435-3.938.836-5.872,1.216-1.492.283-2.97.56-4.435.815q-3.3.57-6.5,1.036-5.347.777-10.452,1.257l-.739.062v.007a180.078,180.078,0,0,1-23.564.642,144.518,144.518,0,0,1-15.9-1.52c-1.278-.193-2.542-.408-3.779-.636-2-.366-3.938-.781-5.824-1.223q-1.886-.446-3.7-.946c-.553-.152-1.091-.3-1.63-.463s-1.6-.484-1.6-.484l-7.316-15.046-15.592-32.1c6.107-7.716,16.407-15.136,28.51-25.028l10.266-2.169,6.894-1.451h.007l4.173-.884,1.008-.214,3.565-.746,14.763-3.116,4.559-.967,2.238-.47h.007l9.72-2.052,2.521-.532,3.572-.753.746-.159,14.424,2.128,4.518.663,6.128.9,1.257.187,7,1.029,9.112,1.347S930.7,337.187,913.034,365.924Z" transform="translate(-754.947 -272.243)" fill="#26d19e" opacity="0.7"/>
      </g>
      <path id="Trazado_123242" data-name="Trazado 123242" d="M942.251,436.36" transform="translate(-810.802 -263.13)" fill="#fff"/>
      <path id="Trazado_123243" data-name="Trazado 123243" d="M829.48,436.36" transform="translate(-775.935 -263.13)" fill="#fff"/>
      <g id="Grupo_95478" data-name="Grupo 95478" transform="translate(22.244 142.226)">
        <path id="Trazado_123244" data-name="Trazado 123244" d="M973.93,461.556a7.6,7.6,0,0,1-1.271.532l-27.674,13.443-6.238,3.033-.159.083-5.485,2.66-11.288,5.485L857.4,518.086a13.914,13.914,0,0,1-18.6-6.438l-7.6-15.64L818.87,470.613l-34.7-71.423c7.088-4.283,16.317-7.095,28.828-7.62q2.114-.093,4.359-.09H898.39q2.238,0,4.352.083a72.75,72.75,0,0,1,17.215,2.618,51.1,51.1,0,0,1,6.922,2.535,43.149,43.149,0,0,1,12.967,8.974,54.244,54.244,0,0,1,7.9,10.272c1.147,1.886,2.211,3.827,3.212,5.81v.007c1.161,2.28,2.238,4.6,3.3,6.936.636,1.416,1.257,2.832,1.879,4.242,1.174,2.673,2.342,5.333,3.572,7.944s2.5,5.153,3.9,7.6a.151.151,0,0,0,.021.035,58.879,58.879,0,0,0,4.566,6.887,43.3,43.3,0,0,0,5.174,5.637c.166.145.332.3.5.442A.483.483,0,0,0,973.93,461.556Z" transform="translate(-784.17 -391.48)" fill="#764cf0"/>
        <g id="Grupo_95477" data-name="Grupo 95477" transform="translate(30.891 30.73)">
          <path id="Trazado_123245" data-name="Trazado 123245" d="M868.233,457.573a47.21,47.21,0,0,1-39.347-21.062l.821-.548a46.326,46.326,0,0,0,77.082,0l.822.549A47.285,47.285,0,0,1,868.233,457.573Z" transform="translate(-828.886 -435.963)" fill="#21155c"/>
        </g>
      </g>
      <g id="Grupo_95479" data-name="Grupo 95479" transform="translate(51.071 110.781)">
        <path id="Trazado_123246" data-name="Trazado 123246" d="M908.738,377.487a41.42,41.42,0,0,1-82.84-.083h4.888a18.284,18.284,0,0,0,18.269-18.255V345.961h36.5v13.188A18.258,18.258,0,0,0,903.808,377.4h.58Q906.625,377.4,908.738,377.487Z" transform="translate(-825.898 -345.961)" fill="#f9b2b2"/>
        <path id="Trazado_123247" data-name="Trazado 123247" d="M894.359,347.352v8.382c-4.308,7.374-14.761,16.64-39.976,14.209a18.068,18.068,0,0,0,3.48-10.7v-12.98Z" transform="translate(-834.705 -346.054)" fill="#e86060" opacity="0.2"/>
        <path id="Trazado_123248" data-name="Trazado 123248" d="M904.9,424.759a41.413,41.413,0,0,1-68.907,0Z" transform="translate(-829.019 -370.324)" fill="#fff"/>
      </g>
      <g id="Grupo_95487" data-name="Grupo 95487" transform="translate(31.647)">
        <g id="Grupo_95484" data-name="Grupo 95484">
          <path id="Trazado_123249" data-name="Trazado 123249" d="M907.875,243.518a60.29,60.29,0,0,1-.7,6.739,60.57,60.57,0,0,1-24.235,39.038,50.858,50.858,0,0,1-24.7,9.528A45.21,45.21,0,0,1,843,297.677a13.34,13.34,0,0,1-1.381-.332c-1.188-.318-2.361-.718-3.493-1.132-15.149-5.551-27.369-18.863-32.493-36.042a60.985,60.985,0,0,1-2.431-12.98c-.111-1.408-.166-2.8-.179-4.184-.041-1.754.013-3.494.138-5.22,1.188-17.855,9.957-33.6,22.951-42.974a47.141,47.141,0,0,1,23.1-8.866c14.016-1.436,25.962,1.616,35.351,7.871h.015a48.328,48.328,0,0,1,13.656,13.851c.277.4.484.773.732,1.16.759,1.229,1.491,2.5,2.14,3.811l.028.014c.084.18.18.359.249.553a6.291,6.291,0,0,1,.441.856c.345.676.635,1.353.94,2.071-.015.028.013.055.013.055.511,1.16.967,2.334,1.381,3.521a66.826,66.826,0,0,1,3.577,17.04A58.412,58.412,0,0,1,907.875,243.518Z" transform="translate(-799.398 -185.598)" fill="#26d19e"/>
          <path id="Trazado_123250" data-name="Trazado 123250" d="M944.245,240.431a66.82,66.82,0,0,0-3.577-17.04c-.414-1.188-.87-2.361-1.381-3.521,0,0-.028-.028-.013-.055-.3-.718-.594-1.395-.94-2.071a6.3,6.3,0,0,0-.441-.856c-.07-.193-.166-.373-.249-.553l-.028-.014c-.649-1.312-1.381-2.582-2.14-3.811-.249-.387-.455-.76-.732-1.16A48.328,48.328,0,0,0,921.088,197.5c15.728,11.489,14.554,27.038,18.172,43.236a60.792,60.792,0,0,0,4.419,13.2,49.632,49.632,0,0,0,8.713,12.732c22.771,24.387,40.876,46.689,23.186,65.814C1012.366,304.05,947.449,269.21,944.245,240.431Z" transform="translate(-835.906 -189.278)" fill="#fff" opacity="0.07"/>
          <g id="Grupo_95480" data-name="Grupo 95480" transform="translate(0 71.469)">
            <path id="Trazado_123251" data-name="Trazado 123251" d="M815.769,293.479c-9.944-7.758-18.458-5.371-17.967,7.609s15.3,18.8,23.477,12.045S815.769,293.479,815.769,293.479Z" transform="translate(-797.782 -289.054)" fill="#e59a9a"/>
          </g>
          <g id="Grupo_95481" data-name="Grupo 95481" transform="translate(92.3 59.49)">
            <path id="Trazado_123252" data-name="Trazado 123252" d="M933.906,280.586c5.945-11.124,14.694-12.395,19.509-.33s-6.362,23.387-16.576,20.531S933.906,280.586,933.906,280.586Z" transform="translate(-931.391 -271.714)" fill="#e59a9a"/>
          </g>
          <path id="Trazado_123253" data-name="Trazado 123253" d="M894.911,301.821l0,.012c-.258.685-.535,1.351-.824,2.019l-.005.027c-4.059,9.2-11.273,16.329-23.4,18.716-16.247,3.219-27.342-2.173-34.894-11.452a45.637,45.637,0,0,1-3.6-5.11c-14.641-23.923-12.328-63.923-12.328-63.923l71.873-7.041S904.856,275.639,894.911,301.821Z" transform="translate(-804.567 -200.893)" fill="#f9b2b2"/>
          <path id="Trazado_123254" data-name="Trazado 123254" d="M846.132,326.794c.671,2.491-2.493,5.509-7.066,6.74s-8.825.211-9.5-2.28,2.493-5.509,7.067-6.74S845.461,324.3,846.132,326.794Z" transform="translate(-807.582 -228.387)" fill="#c33e5d" opacity="0.5"/>
          <path id="Trazado_123255" data-name="Trazado 123255" d="M931.364,319.532c-.24,2.568-4.258,4.293-8.974,3.851s-8.344-2.882-8.1-5.451,4.258-4.293,8.974-3.851S931.605,316.964,931.364,319.532Z" transform="translate(-833.8 -225.302)" fill="#c33e5d" opacity="0.5"/>
          <path id="Trazado_123256" data-name="Trazado 123256" d="M821.466,285.2c-12.364-8.866-7.782-32.837-7.782-32.837l4.054-8.765,1.607-3.675s4.964,16.647,4.994,29.242C824.366,280.288,821.466,285.2,821.466,285.2Z" transform="translate(-802.442 -202.396)" fill="#26d19e"/>
          <path id="Trazado_123257" data-name="Trazado 123257" d="M930.059,275.358c10.031-11.439,3.412-36.009,3.412-36.009l-8.154-5.118-5.414-2.437s1.346,16.621,4.508,29.823C926.6,270.746,930.059,275.358,930.059,275.358Z" transform="translate(-835.54 -199.882)" fill="#26d19e"/>
          <path id="Trazado_123258" data-name="Trazado 123258" d="M818.659,229.408s3.118,19.624,43.6,17.477l-5.627-9.014s13.842,17.485,49.5,6.846L887.75,211.824l-56.027,5.489Z" transform="translate(-804.237 -193.707)" fill="#26d19e"/>
          <g id="Grupo_95482" data-name="Grupo 95482" transform="translate(3.664 79.903)">
            <path id="Trazado_123259" data-name="Trazado 123259" d="M808.913,310.515a3.208,3.208,0,0,1,.211-3.266c1.143-1.513,3.869-1.845,5.747-1.882-2.967-1.673-7.812-3.92-9.839-2.838a2.1,2.1,0,0,0-.959,2.009l-.988-.02a3.032,3.032,0,0,1,1.482-2.86c3.424-1.829,11.542,3.259,12.457,3.845l1.722,1.1-2.036-.2c-1.482-.145-5.59-.165-6.8,1.433a2.268,2.268,0,0,0-.079,2.311Z" transform="translate(-803.085 -301.264)" fill="#f48484"/>
          </g>
          <g id="Grupo_95483" data-name="Grupo 95483" transform="translate(96.429 68.856)">
            <path id="Trazado_123260" data-name="Trazado 123260" d="M947.085,294c-1.774-4.14-8.083-2.521-8.145-2.5l-1.571.417,1.073-1.221c.214-.242,5.27-5.914,9.177-5.382a3.994,3.994,0,0,1,3.058,2.509l-.89.426a3.032,3.032,0,0,0-2.3-1.956c-2.444-.343-5.654,2.41-7.272,3.991,2.231-.251,6.281-.17,7.781,3.332Z" transform="translate(-937.369 -285.271)" fill="#f48484"/>
          </g>
        </g>
        <path id="Trazado_123261" data-name="Trazado 123261" d="M897.914,277.175a16.175,16.175,0,0,0-3.627-8.283l-.007-.007a16.239,16.239,0,0,0-7-4.932h-.014a16.183,16.183,0,0,0-7.661-.836c-.449.062-.891.138-1.326.235a16.357,16.357,0,0,0-12.808,14.569,7.389,7.389,0,0,0-4.663-1.05c-.021.007-.048.007-.069.014a8.708,8.708,0,0,0-4.781,2.48,16.311,16.311,0,0,0-28.137-4.856v.007a16.212,16.212,0,0,0-3.571,11.2c.014.38.055.76.1,1.14a16.139,16.139,0,0,0,1.181,4.3v.007a16.231,16.231,0,0,0,5.278,6.666c.38.283.774.553,1.181.8a16.32,16.32,0,0,0,24.78-15.412c.58-.843,2.218-2.936,4.373-3.219a.088.088,0,0,1,.041-.007c1.416-.173,2.915.511,4.463,2.017A16.313,16.313,0,0,0,898,280.581v-.007A15.608,15.608,0,0,0,897.914,277.175ZM842.255,297.8a13.189,13.189,0,0,1-14.873-14.058.153.153,0,0,1,.007-.055v-.035a10.084,10.084,0,0,1,.152-1.216v-.021A13.186,13.186,0,1,1,842.255,297.8Zm45.677-6.86a13.193,13.193,0,0,1-19.281-9.913,13.19,13.19,0,1,1,19.281,9.913Z" transform="translate(-805.954 -209.523)" fill="#fff"/>
        <g id="Grupo_95486" data-name="Grupo 95486" transform="translate(46.193 94.812)">
          <g id="Grupo_95485" data-name="Grupo 95485">
            <path id="Trazado_123262" data-name="Trazado 123262" d="M890.427,326.111a11.733,11.733,0,0,1-1.1,2.2c-1.559,2.52-4.441,5.135-9.883,6l-.006.025-.4.048-.019-.03c-5.13.616-8.552-.868-10.752-2.727a11.554,11.554,0,0,1-2.032-2.163,11.986,11.986,0,0,1-1.583-2.957l26.5-3.661A10.928,10.928,0,0,1,890.427,326.111Z" transform="translate(-864.649 -322.845)" fill="#c33e5d"/>
          </g>
          <path id="Trazado_123263" data-name="Trazado 123263" d="M890.427,326.111a11.733,11.733,0,0,1-1.1,2.2,25.17,25.17,0,0,0-21.061,3.316,11.554,11.554,0,0,1-2.032-2.163,11.986,11.986,0,0,1-1.583-2.957l26.5-3.661A10.928,10.928,0,0,1,890.427,326.111Z" transform="translate(-864.649 -322.845)" fill="#49365b"/>
        </g>
        <ellipse id="Elipse_5640" data-name="Elipse 5640" cx="4.365" cy="4.365" rx="4.365" ry="4.365" transform="translate(33.922 67.103)" fill="#49365b"/>
        <path id="Trazado_123264" data-name="Trazado 123264" d="M909.831,280.78a4.365,4.365,0,1,1-4.365-4.365A4.365,4.365,0,0,1,909.831,280.78Z" transform="translate(-829.726 -213.677)" fill="#49365b"/>
        <path id="Trazado_123265" data-name="Trazado 123265" d="M870.209,308.525a6.838,6.838,0,1,1,13.536-1.952Z" transform="translate(-820.153 -221.188)" fill="#e86060" opacity="0.2"/>
      </g>
      <g id="Grupo_95496" data-name="Grupo 95496" transform="translate(170.236 93.218)">
        <g id="Grupo_95493" data-name="Grupo 95493">
          <path id="Trazado_123266" data-name="Trazado 123266" d="M1048.52,457.083l-28.535,2.375-2.066-13.717-2.936-19.464,23.042-3.4Z" transform="translate(-1003.526 -352.18)" fill="#f9b2b2"/>
          <g id="Grupo_95492" data-name="Grupo 95492">
            <path id="Trazado_123267" data-name="Trazado 123267" d="M1034.211,392.359a105.117,105.117,0,0,0,.656-23.727c-1.085-13.65-6.226-15.284-6.226-15.284s-9.836-20.37-13.1-27.969-10.579-6.427-7.658,4.74,5.487,21,5.487,21-8.532-1.35-11.186-.068-3.482,9.22-3.336,12.436c.222,4.911.42,13.556,7.577,14.1a24.39,24.39,0,0,0,2.346,14.994C1015.324,404.711,1031.7,401.6,1034.211,392.359Z" transform="translate(-998.533 -320.537)" fill="#f9b2b2"/>
            <g id="Grupo_95488" data-name="Grupo 95488" transform="translate(14.801 30.091)">
              <path id="Trazado_123268" data-name="Trazado 123268" d="M1035.025,367.3a126.1,126.1,0,0,0-15.2-2.218l.076-.984a127.216,127.216,0,0,1,15.338,2.238Z" transform="translate(-1019.823 -364.096)" fill="#f48484"/>
            </g>
            <g id="Grupo_95489" data-name="Grupo 95489" transform="translate(0 35.369)">
              <path id="Trazado_123269" data-name="Trazado 123269" d="M999.373,375.386l-.975-.155c.022-.143.6-3.494,5.773-3.494h.01c4.8,0,14.895,1.555,15.322,1.621l-.151.975c-.1-.015-10.449-1.6-15.172-1.609h-.009C999.881,372.724,999.392,375.276,999.373,375.386Z" transform="translate(-998.398 -371.736)" fill="#f48484"/>
            </g>
            <g id="Grupo_95490" data-name="Grupo 95490" transform="translate(0.037 41.85)">
              <path id="Trazado_123270" data-name="Trazado 123270" d="M999.353,384.558l-.9-.4c.042-.093,1.052-2.282,4.889-2.9,3.654-.589,14.572.963,15.035,1.029l-.14.978c-.113-.017-11.238-1.6-14.737-1.031C1000.227,382.755,999.387,384.484,999.353,384.558Z" transform="translate(-998.452 -381.118)" fill="#f48484"/>
            </g>
            <g id="Grupo_95491" data-name="Grupo 95491" transform="translate(7.403 50.557)">
              <path id="Trazado_123271" data-name="Trazado 123271" d="M1010.095,400.279l-.981-.12a23.529,23.529,0,0,1,.912-4.041,7.909,7.909,0,0,0,.486-2.349l.986-.047a8.47,8.47,0,0,1-.525,2.679A22.622,22.622,0,0,0,1010.095,400.279Z" transform="translate(-1009.114 -393.722)" fill="#f48484"/>
            </g>
          </g>
          <path id="Trazado_123272" data-name="Trazado 123272" d="M1049.834,467.315,1021.3,469.69l-2.066-13.717Z" transform="translate(-1004.84 -362.412)" fill="#e86060" opacity="0.2"/>
        </g>
        <path id="Trazado_123273" data-name="Trazado 123273" d="M1055.791,481.555l-8.836,4.3-.228.111a7.067,7.067,0,0,1-.732.435.575.575,0,0,1-.09.048,7.6,7.6,0,0,1-1.271.532l-27.674,13.443,1.686-11.958.069-.5.069-.5,1.741-12.324.069-.484v-.014l15-1.216,4.566-.373,7.848-.636,5.319-.435Z" transform="translate(-1004.137 -367.361)" fill="#764cf0"/>
        <g id="Grupo_95494" data-name="Grupo 95494" transform="translate(5.932 106.785)">
          <path id="Trazado_123274" data-name="Trazado 123274" d="M1007.965,504.54l-.98-.034a.823.823,0,0,1,.012-.154c1.105-11.445,4.1-14.692,5.011-15.43l-.359-13.437,5.83-.369.062.987-4.878.308.348,13.048-.266.145c-.028.017-3.55,2.224-4.767,14.866Z" transform="translate(-1006.985 -475.116)" fill="#f48484"/>
        </g>
        <g id="Grupo_95495" data-name="Grupo 95495" transform="translate(11.421 117.973)">
          <path id="Trazado_123275" data-name="Trazado 123275" d="M1046.328,491.828l-.228.111a7.068,7.068,0,0,1-.732.435l-.138.007-.062.007-27.149,2.052-2.881.221-.131.007-.076-.988.518-.041,2.708-.2,26.064-1.969,2.066-.159Z" transform="translate(-1014.93 -491.31)" fill="#21155c"/>
        </g>
      </g>
      <path id="Trazado_123284" data-name="Trazado 123284" d="M3.654,0H39.476A3.654,3.654,0,0,1,43.13,3.654V65.273a3.654,3.654,0,0,1-3.654,3.654H3.654A3.654,3.654,0,0,1,0,65.273V3.654A3.654,3.654,0,0,1,3.654,0Z" transform="translate(82.593 160.392) rotate(-17.871)" fill="#f34919"/>
      <path id="Trazado_123276" data-name="Trazado 123276" d="M873.4,513.829l-1.858.926-.007.007-24.8,12.331L834.4,501.7l18.175-6.128L863.1,492.02Z" transform="translate(-777.456 -280.339)" fill="#f9b2b2"/>
      <g id="Grupo_95500" data-name="Grupo 95500" transform="translate(74.755 173.55)">
        <path id="Trazado_123277" data-name="Trazado 123277" d="M894.951,472.154a47.847,47.847,0,0,1,11.416-8.788c6.427-3.365,1.055-8.221-4.713-5.218a26.907,26.907,0,0,1,7.006-4.255c4.369-1.853,2.294-6.587-1.074-6.54a3.63,3.63,0,0,0,1.7-4.432c-1.085-2.937-5.227-2.52-6.616-2.176,0,0,.049-7.322-11.579-1.959s-24.108,15.176-29.811,36.306c-3.923,14.537,3.416,22.179,9.624,23.452C882.185,500.858,895.258,488.558,894.951,472.154Z" transform="translate(-860.182 -436.824)" fill="#f9b2b2"/>
        <g id="Grupo_95497" data-name="Grupo 95497" transform="translate(28.637 20.89)">
          <path id="Trazado_123278" data-name="Trazado 123278" d="M902.427,476.751l-.79-.593c.12-.16,3.047-3.981,12.6-9.1l.466.87C905.38,472.925,902.455,476.713,902.427,476.751Z" transform="translate(-901.637 -467.063)" fill="#f48484"/>
        </g>
        <g id="Grupo_95498" data-name="Grupo 95498" transform="translate(25.996 10.073)">
          <path id="Trazado_123279" data-name="Trazado 123279" d="M898.6,465.123l-.786-.6c.2-.265,5.131-6.586,21.222-13.119l.371.915C903.609,458.734,898.648,465.06,898.6,465.123Z" transform="translate(-897.813 -451.405)" fill="#f48484"/>
        </g>
        <g id="Grupo_95499" data-name="Grupo 95499" transform="translate(21.632 3.447)">
          <path id="Trazado_123280" data-name="Trazado 123280" d="M892.2,455.312l-.7-.693c.095-.1,9.571-9.631,20.725-12.8l.27.95C901.592,445.866,892.293,455.217,892.2,455.312Z" transform="translate(-891.496 -441.814)" fill="#f48484"/>
        </g>
      </g>
    </g>
    <g id="Grupo_95504" data-name="Grupo 95504" transform="translate(162.314 198.584)">
      <path id="Trazado_123281" data-name="Trazado 123281" d="M1033.161,457.744a15.1,15.1,0,0,0-4.7-.739h-1.755V451.52H973.44v23.094a26.666,26.666,0,0,0,18.182,25.256l5.485-2.66.159-.083,6.238-3.033,27.674-13.443a8.628,8.628,0,0,1-2.715.435h-2.583c.083-.339.166-.684.235-1.029a25.724,25.724,0,0,0,.594-5.444V463.6h1.755a8.53,8.53,0,0,1,1.119.076,8.635,8.635,0,0,1,3.689,1.368,8.457,8.457,0,0,1,1.23.988.209.209,0,0,1,.055.055,8.733,8.733,0,0,1-1.085,13.409,2.067,2.067,0,0,1-.2.138l9.063-4.407,1.292-.629a14.376,14.376,0,0,0,.173-2.259A15.352,15.352,0,0,0,1033.161,457.744Zm-11.039,9.319-14.984,1.25,15-1.216a58.9,58.9,0,0,0,4.566,6.887v-7.3Z" transform="translate(-966.352 -428.989)" fill="#fedf5c"/>
      <path id="Trazado_123282" data-name="Trazado 123282" d="M994.094,517.54l-.159.083-5.485,2.66-11.288,5.485H966.876a3.7,3.7,0,0,1-3.7-3.7V517.54Z" transform="translate(-963.18 -449.401)" fill="#fedf5c"/>
      <path id="Trazado_123283" data-name="Trazado 123283" d="M1034.011,441.437h-6.99l11.41-20.932a3.069,3.069,0,0,1,2.694-1.6h0a3.069,3.069,0,0,1,2.695,4.537Z" transform="translate(-982.919 -418.905)" fill="#fff"/>
      <g id="Grupo_95502" data-name="Grupo 95502" transform="translate(22.939 22.533)">
        <rect id="Rectángulo_35323" data-name="Rectángulo 35323" width="1.535" height="17.353" fill="#fff"/>
      </g>
      <g id="Grupo_95503" data-name="Grupo 95503" transform="translate(16.95 33.129)">
        <rect id="Rectángulo_35324" data-name="Rectángulo 35324" width="13.512" height="13.512" fill="#fff"/>
      </g>
    </g>
  </g>
</svg>
