<svg xmlns="http://www.w3.org/2000/svg" xmlns:xlink="http://www.w3.org/1999/xlink" width="85" height="85" viewBox="0 0 85 85">
  <defs>
    <clipPath id="clip-path">
      <rect id="Rect치ngulo_35439" data-name="Rect치ngulo 35439" width="67" height="67" transform="translate(189 4865)" fill="#ffd41c"/>
    </clipPath>
  </defs>
  <g id="Grupo_99200" data-name="Grupo 99200" transform="translate(-390 -6142.271)">
    <rect id="Rect치ngulo_34163" data-name="Rect치ngulo 34163" width="85" height="85" transform="translate(390 6142.271)" fill="#26d19e"/>
    <g id="Enmascarar_grupo_340" data-name="Enmascarar grupo 340" transform="translate(210 1286.271)" clip-path="url(#clip-path)">
      <g id="poster" transform="translate(189 4865)">
        <g id="Grupo_97013" data-name="Grupo 97013">
          <path id="Trazado_124393" data-name="Trazado 124393" d="M52.786,66.019H14.214a2.35,2.35,0,0,1-2.35-2.35V3.332a2.35,2.35,0,0,1,2.35-2.35H52.786a2.35,2.35,0,0,1,2.35,2.35V63.668A2.35,2.35,0,0,1,52.786,66.019Z" fill="#b2e5fb"/>
        </g>
        <g id="Grupo_97014" data-name="Grupo 97014">
          <path id="Trazado_124394" data-name="Trazado 124394" d="M52.785.981H48.86a2.35,2.35,0,0,1,2.35,2.35V63.668a2.35,2.35,0,0,1-2.35,2.35h3.926a2.35,2.35,0,0,0,2.35-2.35V3.332a2.35,2.35,0,0,0-2.35-2.35Z" fill="#91dafa"/>
        </g>
        <g id="Grupo_97015" data-name="Grupo 97015">
          <path id="Trazado_124395" data-name="Trazado 124395" d="M11.864,50.437V63.668a2.35,2.35,0,0,0,2.35,2.35H52.785a2.35,2.35,0,0,0,2.35-2.35V38.611Z" fill="#f8e883"/>
        </g>
        <g id="Grupo_97016" data-name="Grupo 97016">
          <path id="Trazado_124396" data-name="Trazado 124396" d="M40.885,49.768a2.5,2.5,0,1,1-2.5-2.5A2.5,2.5,0,0,1,40.885,49.768Z" fill="#fcf5f5"/>
        </g>
        <g id="Grupo_97017" data-name="Grupo 97017">
          <circle id="Elipse_5767" data-name="Elipse 5767" cx="2.495" cy="2.495" r="2.495" transform="translate(44.063 59.111) rotate(-45)" fill="#fcf5f5"/>
        </g>
        <g id="Grupo_97018" data-name="Grupo 97018">
          <path id="Trazado_124397" data-name="Trazado 124397" d="M19.484,5.624c2.338,6.018,8.223,6.891,11.222,8.489a.892.892,0,0,0,1.258-.489C33.02,10.637,36.355,6.419,34.9.981H18.422a14.615,14.615,0,0,0,1.062,4.642Z" fill="#b7e546"/>
        </g>
        <g id="Grupo_97019" data-name="Grupo 97019">
          <path id="Trazado_124398" data-name="Trazado 124398" d="M55.136,45.876V33.035c-.171-.006-.346-.009-.524-.009-5.15,0-7.5,4.123-9.554,5.891a.711.711,0,0,0,0,1.076c2.054,1.768,4.4,5.891,9.554,5.891.178,0,.353,0,.524-.009Z" fill="#b7e546"/>
        </g>
        <g id="Grupo_97020" data-name="Grupo 97020">
          <path id="Trazado_124399" data-name="Trazado 124399" d="M51.21,39.684V63.668a2.35,2.35,0,0,1-2.35,2.35h3.926a2.35,2.35,0,0,0,2.35-2.35V38.611Z" fill="#ffd549"/>
        </g>
        <g id="Grupo_97021" data-name="Grupo 97021">
          <path id="Trazado_124400" data-name="Trazado 124400" d="M54.611,33.026a8.526,8.526,0,0,0-3.4.683V45.2a8.525,8.525,0,0,0,3.4.683c.178,0,.353,0,.524-.009V33.035c-.171-.006-.346-.009-.524-.009Z" fill="#9ec63d"/>
        </g>
        <g id="Grupo_97022" data-name="Grupo 97022">
          <path id="Trazado_124401" data-name="Trazado 124401" d="M11.864,58.545A11.916,11.916,0,0,0,18.65,55.81c5.168-3.871,4.426-9.773,5.159-13.091A.891.891,0,0,0,23,41.639c-2.764-.188-6.9-1.8-11.136-.29v17.2Z" fill="#b7e546"/>
        </g>
        <g id="Grupo_97023" data-name="Grupo 97023">
          <path id="Trazado_124402" data-name="Trazado 124402" d="M28.839,29.219l.407-1.068h2.821l.4,1.065a.981.981,0,1,0,1.836-.693L31.729,21.7l-.011-.027a1.134,1.134,0,0,0-1.053-.7h0a1.134,1.134,0,0,0-1.052.707L29.6,21.7,27,28.52a.981.981,0,0,0,1.834.7Zm2.487-3.031H29.993l.67-1.758Z"/>
          <path id="Trazado_124403" data-name="Trazado 124403" d="M36.947,20.966a.981.981,0,0,0-.981.981v6.916a.982.982,0,0,0,.816.967,6.159,6.159,0,0,0,.892.02c.372,0,.912,0,1.7-.006a.981.981,0,0,0-.005-1.963h-.006l-1.437.005v-5.94a.981.981,0,0,0-.981-.982Z"/>
          <path id="Trazado_124404" data-name="Trazado 124404" d="M45.664,22.961a.981.981,0,0,0,0-1.963h-2.89a.981.981,0,0,0-.981.981v6.859a.981.981,0,0,0,.981.981h2.89a.981.981,0,0,0,0-1.963H43.755V26.39h1.7a.981.981,0,0,0,0-1.963h-1.7V22.961Z"/>
          <path id="Trazado_124405" data-name="Trazado 124405" d="M22.963,27.888a2.292,2.292,0,0,1-1.685-.7A.981.981,0,0,0,19.824,28.5a4.225,4.225,0,0,0,3.139,1.349,2.97,2.97,0,0,0,3.027-2.309c.181-1.011-.273-2.331-2.086-3-.831-.306-1.6-.64-1.863-.752a.362.362,0,0,1-.116-.334.584.584,0,0,1,.469-.46,2.19,2.19,0,0,1,1.8.419.982.982,0,0,0,1.257-1.507,4.158,4.158,0,0,0-3.622-.791,2.55,2.55,0,0,0-1.846,2.061,2.315,2.315,0,0,0,1.033,2.292.977.977,0,0,0,.136.074c.04.018,1,.444,2.074.841.215.079.912.373.833.813a1.067,1.067,0,0,1-1.1.691Z"/>
          <path id="Trazado_124406" data-name="Trazado 124406" d="M48.094,48.158,36.648,59.6a.981.981,0,0,0,1.388,1.388L49.482,49.546a.981.981,0,1,0-1.388-1.388Z"/>
          <path id="Trazado_124407" data-name="Trazado 124407" d="M38.389,46.29a3.477,3.477,0,1,0,3.477,3.477A3.481,3.481,0,0,0,38.389,46.29Zm0,4.991A1.514,1.514,0,1,1,39.9,49.767,1.516,1.516,0,0,1,38.389,51.282Z"/>
          <path id="Trazado_124408" data-name="Trazado 124408" d="M44.126,59.113A3.477,3.477,0,1,0,47.6,55.636a3.481,3.481,0,0,0-3.477,3.477Zm4.991,0A1.514,1.514,0,1,1,47.6,57.6,1.516,1.516,0,0,1,49.118,59.113Z"/>
          <path id="Trazado_124409" data-name="Trazado 124409" d="M52.785,0H14.214a3.335,3.335,0,0,0-3.332,3.332V19.173a.981.981,0,0,0,1.963,0V3.332a1.37,1.37,0,0,1,1.369-1.369h3.306a16.68,16.68,0,0,0,1.048,4.016c1.975,5.084,6.282,6.785,9.426,8.027a23.309,23.309,0,0,1,2.249.973,1.873,1.873,0,0,0,2.645-1.027,23.33,23.33,0,0,1,1-2.236c1.2-2.466,2.825-5.8,2.218-9.753H52.786a1.37,1.37,0,0,1,1.369,1.369V16.275H36.578a.981.981,0,0,0,0,1.963H54.154V32.055c-4.156.181-6.588,2.807-8.38,4.743a18.462,18.462,0,0,1-1.357,1.375,1.688,1.688,0,0,0-.584,1.217.038.038,0,0,0,0,0h0c0,.02,0,.04,0,.061a1.688,1.688,0,0,0,.42,1.113L24.367,46q.036-.329.068-.644a23.276,23.276,0,0,1,.333-2.428,1.873,1.873,0,0,0-1.7-2.271,23.269,23.269,0,0,1-2.423-.364,18.953,18.953,0,0,0-7.8-.252V34.661H30.422a.981.981,0,0,0,0-1.963H12.846V23.1a.981.981,0,0,0-1.963,0v40.57A3.336,3.336,0,0,0,14.215,67H28.2a.981.981,0,0,0,0-1.963H14.215a1.37,1.37,0,0,1-1.369-1.369V59.451A13.75,13.75,0,0,0,19.239,56.6a12.606,12.606,0,0,0,4.843-8.48l21.748-5.944c1.787,1.93,4.21,4.5,8.325,4.684V63.668a1.37,1.37,0,0,1-1.369,1.369H32.125a.981.981,0,0,0,0,1.963h20.66a3.336,3.336,0,0,0,3.332-3.332V3.332A3.336,3.336,0,0,0,52.785,0ZM20.4,5.268a15.057,15.057,0,0,1-.9-3.305h6.132l3.944,10.56c-.279-.114-.566-.227-.859-.343-2.964-1.171-6.653-2.628-8.317-6.912Zm11.727,5.588c-.212.435-.418.858-.6,1.268l-3.8-10.161h6.391C34.765,5.435,33.3,8.437,32.126,10.856ZM20.29,42.227c.432.079.853.156,1.261.222L12.846,49.16V42.069A16.307,16.307,0,0,1,20.29,42.227Zm-2.228,12.8a12.121,12.121,0,0,1-5.216,2.444v-5.83l9.75-7.517c-.04.335-.076.681-.113,1.033-.331,3.17-.742,7.114-4.421,9.87Zm36.092-21v4.453H46.9l.318-.343c1.711-1.849,3.642-3.932,6.939-4.11Zm-6.939,6.758-.318-.343h7.257v4.453c-3.3-.178-5.228-2.261-6.939-4.11Z"/>
        </g>
      </g>
    </g>
  </g>
</svg>
