<svg xmlns="http://www.w3.org/2000/svg" xmlns:xlink="http://www.w3.org/1999/xlink" width="85" height="85" viewBox="0 0 85 85">
  <defs>
    <clipPath id="clip-path">
      <rect id="Rect치ngulo_35438" data-name="Rect치ngulo 35438" width="67" height="67" transform="translate(609 4865)" fill="#ffd41c"/>
    </clipPath>
  </defs>
  <g id="Grupo_99199" data-name="Grupo 99199" transform="translate(-810 -6142.271)">
    <rect id="Rect치ngulo_34160" data-name="Rect치ngulo 34160" width="85" height="85" transform="translate(810 6142.271)" fill="#26d19e"/>
    <g id="Enmascarar_grupo_341" data-name="Enmascarar grupo 341" transform="translate(210 1286.271)" clip-path="url(#clip-path)">
      <g id="venta-de-verano" transform="translate(609 4865)">
        <g id="Grupo_97024" data-name="Grupo 97024">
          <path id="Trazado_124410" data-name="Trazado 124410" d="M63.4,52.7H3.6A2.617,2.617,0,0,1,.981,50.079V8.135A2.617,2.617,0,0,1,3.6,5.518H63.4a2.617,2.617,0,0,1,2.617,2.617V50.079A2.617,2.617,0,0,1,63.4,52.7Z" fill="#fcf5f5"/>
        </g>
        <g id="Grupo_97025" data-name="Grupo 97025">
          <path id="Trazado_124411" data-name="Trazado 124411" d="M63.4,5.518H59.476a2.617,2.617,0,0,1,2.617,2.617V50.079A2.617,2.617,0,0,1,59.476,52.7H63.4a2.617,2.617,0,0,0,2.617-2.617V8.135A2.617,2.617,0,0,0,63.4,5.518Z" fill="#ebe1dc"/>
        </g>
        <g id="Grupo_97026" data-name="Grupo 97026">
          <path id="Trazado_124412" data-name="Trazado 124412" d="M.981,12.614H66.019V36.748H.981Z" fill="#ffd549"/>
        </g>
        <g id="Grupo_97027" data-name="Grupo 97027">
          <path id="Trazado_124413" data-name="Trazado 124413" d="M.981,44.169v5.911A2.617,2.617,0,0,0,3.6,52.7H63.4a2.617,2.617,0,0,0,2.617-2.617V44.169Z" fill="#d2d2d7"/>
        </g>
        <g id="Grupo_97028" data-name="Grupo 97028">
          <path id="Trazado_124414" data-name="Trazado 124414" d="M62.093,12.614h3.926V36.748H62.093Z" fill="#ffc400"/>
        </g>
        <g id="Grupo_97029" data-name="Grupo 97029">
          <path id="Trazado_124415" data-name="Trazado 124415" d="M62.093,44.169v5.911A2.617,2.617,0,0,1,59.476,52.7H63.4a2.617,2.617,0,0,0,2.617-2.617V44.169Z" fill="#b9b9be"/>
        </g>
        <g id="Grupo_97030" data-name="Grupo 97030">
          <path id="Trazado_124416" data-name="Trazado 124416" d="M41.029,61.482H25.971l1.3-8.785H39.73Z" fill="#848487"/>
        </g>
        <g id="Grupo_97031" data-name="Grupo 97031">
          <path id="Trazado_124417" data-name="Trazado 124417" d="M39.73,52.7H35.8l1.3,8.785h3.926Z" fill="#646466"/>
        </g>
        <g id="Grupo_97032" data-name="Grupo 97032">
          <path id="Trazado_124418" data-name="Trazado 124418" d="M4.466,16.129c1.77,4.557,6.226,5.218,8.5,6.428a.675.675,0,0,0,.952-.37c.8-2.262,3.325-5.456,2.225-9.573H3.662A11.068,11.068,0,0,0,4.466,16.129Z" fill="#b7e546"/>
        </g>
        <g id="Grupo_97033" data-name="Grupo 97033">
          <path id="Trazado_124419" data-name="Trazado 124419" d="M61.492,33.233c-1.77-4.557-6.226-5.218-8.5-6.428a.675.675,0,0,0-.952.37c-.8,2.262-3.325,5.456-2.225,9.573H62.3a11.064,11.064,0,0,0-.8-3.515Z" fill="#b7e546"/>
        </g>
        <g id="Grupo_97034" data-name="Grupo 97034">
          <circle id="Elipse_5768" data-name="Elipse 5768" cx="0.981" cy="0.981" r="0.981" transform="translate(6.033 26.726)"/>
          <circle id="Elipse_5769" data-name="Elipse 5769" cx="0.981" cy="0.981" r="0.981" transform="translate(14.098 30.756)"/>
          <circle id="Elipse_5770" data-name="Elipse 5770" cx="0.981" cy="0.981" r="0.981" transform="translate(30.864 31.543)"/>
          <circle id="Elipse_5771" data-name="Elipse 5771" cx="0.981" cy="0.981" r="0.981" transform="translate(29.883 15.659)"/>
          <circle id="Elipse_5772" data-name="Elipse 5772" cx="0.981" cy="0.981" r="0.981" transform="translate(52.489 18.901)"/>
          <circle id="Elipse_5773" data-name="Elipse 5773" cx="0.981" cy="0.981" r="0.981" transform="translate(59.401 15.659)"/>
          <path id="Trazado_124420" data-name="Trazado 124420" d="M27.579,29.219a.981.981,0,0,0,1.266-.568l.455-1.194h3.132l.45,1.191a.981.981,0,1,0,1.836-.693l-2.767-7.333-.01-.027a1.146,1.146,0,0,0-1.064-.713h0a1.146,1.146,0,0,0-1.063.715l-.009.022-2.793,7.333a.981.981,0,0,0,.568,1.266Zm3.295-5.893.818,2.168H30.048Z"/>
          <path id="Trazado_124421" data-name="Trazado 124421" d="M38.975,29.282h.007l1.255-.005a.981.981,0,0,0-.005-1.963h-.006l-1.249.005h0a.367.367,0,0,1-.367-.367V20.864a.981.981,0,0,0-1.963,0v6.088a2.33,2.33,0,0,0,2.33,2.33Z"/>
          <path id="Trazado_124422" data-name="Trazado 124422" d="M45.234,29.249h1.757a.981.981,0,0,0,0-1.963H45.234a.367.367,0,0,1-.367-.367V25.564h1.895a.981.981,0,0,0,0-1.963H44.867V22.246a.367.367,0,0,1,.367-.367h1.757a.981.981,0,0,0,0-1.963H45.234a2.333,2.333,0,0,0-2.33,2.33v4.672A2.333,2.333,0,0,0,45.234,29.249Z"/>
          <path id="Trazado_124423" data-name="Trazado 124423" d="M22.6,29.283a3.119,3.119,0,0,0,3.181-2.421c.189-1.058-.289-2.438-2.2-3.141-.861-.317-1.661-.66-1.965-.792a.365.365,0,0,1-.063-.033.47.47,0,0,1-.138-.461.708.708,0,0,1,.548-.514,2.426,2.426,0,0,1,2,.464.981.981,0,0,0,1.258-1.507,4.389,4.389,0,0,0-3.823-.836,2.673,2.673,0,0,0-1.9,1.973,2.44,2.44,0,0,0,.756,2.352,2.161,2.161,0,0,0,.58.362c.32.139,1.161.5,2.069.834.245.09,1.037.426.942.955a1.2,1.2,0,0,1-1.248.8,2.537,2.537,0,0,1-1.864-.78.981.981,0,1,0-1.455,1.318A4.468,4.468,0,0,0,22.6,29.283Z"/>
          <circle id="Elipse_5774" data-name="Elipse 5774" cx="0.981" cy="0.981" r="0.981" transform="translate(32.519 47.659)"/>
          <path id="Trazado_124424" data-name="Trazado 124424" d="M63.4,4.537H12.921a.981.981,0,0,0,0,1.963H63.4a1.638,1.638,0,0,1,1.636,1.636v3.5H1.963v-3.5A1.638,1.638,0,0,1,3.6,6.5H9A.981.981,0,0,0,9,4.537H3.6A3.6,3.6,0,0,0,0,8.135V50.079a3.6,3.6,0,0,0,3.6,3.6H26.133L25.124,60.5h-4.5a.981.981,0,1,0,0,1.963H46.38a.981.981,0,0,0,0-1.963h-4.5l-1.009-6.822h7.7a.981.981,0,1,0,0-1.963H3.6a1.638,1.638,0,0,1-1.636-1.636V45.15H65.037v4.929A1.638,1.638,0,0,1,63.4,51.715H52.489a.981.981,0,0,0,0,1.963H63.4a3.6,3.6,0,0,0,3.6-3.6V8.135a3.6,3.6,0,0,0-3.6-3.6ZM28.117,53.678H38.883L39.892,60.5H27.108ZM13.824,19.986c-.074.152-.147.3-.218.451L11.051,13.6h4.3C15.739,16.058,14.727,18.135,13.824,19.986ZM8.955,13.6l2.74,7.336-.151-.06c-2.316-.915-4.94-1.951-6.163-5.1A11.515,11.515,0,0,1,4.756,13.6h4.2ZM65.037,43.188H1.963V37.729H65.037ZM57,35.766l-2.74-7.336.151.06c2.316.915,4.94,1.951,6.163,5.1h0a11.518,11.518,0,0,1,.625,2.178H57Zm-4.869-6.391.218-.451,2.555,6.841h-4.3C50.22,33.3,51.232,31.227,52.134,29.376Zm12.9,6.391H63.188a13.1,13.1,0,0,0-.781-2.889c-1.533-3.946-4.85-5.256-7.272-6.213a17.494,17.494,0,0,1-1.678-.725,1.656,1.656,0,0,0-2.339.909,17.5,17.5,0,0,1-.748,1.668c-.9,1.853-2.1,4.309-1.739,7.251H1.963V13.6H2.77a13.1,13.1,0,0,0,.781,2.889c1.533,3.946,4.85,5.256,7.271,6.213a17.463,17.463,0,0,1,1.678.726,1.656,1.656,0,0,0,2.339-.909,17.472,17.472,0,0,1,.748-1.668c.9-1.853,2.1-4.309,1.739-7.251H65.037Z"/>
        </g>
      </g>
    </g>
  </g>
</svg>
