<svg xmlns="http://www.w3.org/2000/svg" xmlns:xlink="http://www.w3.org/1999/xlink" width="85" height="85" viewBox="0 0 85 85">
  <defs>
    <clipPath id="clip-path">
      <rect id="Rect치ngulo_35447" data-name="Rect치ngulo 35447" width="67" height="66.731" transform="translate(9 9.135)" fill="#ffd41c"/>
    </clipPath>
  </defs>
  <g id="Grupo_99200" data-name="Grupo 99200" transform="translate(-809.998 -10022.034)">
    <rect id="Rect치ngulo_34162" data-name="Rect치ngulo 34162" width="85" height="85" transform="translate(809.998 10022.034)" fill="#26d19e"/>
    <g id="Enmascarar_grupo_345" data-name="Enmascarar grupo 345" transform="translate(809.998 10022.034)" clip-path="url(#clip-path)">
      <g id="medios-de-comunicacion-social" transform="translate(8.058 8.059)">
        <g id="Grupo_97057" data-name="Grupo 97057">
          <g id="Grupo_97045" data-name="Grupo 97045">
            <path id="Trazado_124509" data-name="Trazado 124509" d="M25.832,60.274v4.994a1.467,1.467,0,0,1-2.594.936l-4.94-5.93H6.458a2.159,2.159,0,0,1-2.153-2.153V36.595a2.159,2.159,0,0,1,2.153-2.153H17.576l1.356,1.625a1.467,1.467,0,0,0,2.594-.936v-.689h8.611v2.153a2.159,2.159,0,0,0,2.153,2.153H40.9V58.121a2.159,2.159,0,0,1-2.153,2.153Z" fill="#e6e9ed"/>
          </g>
          <g id="Grupo_97046" data-name="Grupo 97046">
            <path id="Trazado_124510" data-name="Trazado 124510" d="M32.289,30.137a2.159,2.159,0,0,0,2.153-2.153V10.763H64.579a2.159,2.159,0,0,1,2.153,2.153V36.595a2.159,2.159,0,0,1-2.153,2.153H52.739l-4.94,5.93a1.467,1.467,0,0,1-2.594-.936V38.747H32.289a2.159,2.159,0,0,1-2.153-2.153V30.137Z" fill="#ffeaa7"/>
          </g>
          <g id="Grupo_97047" data-name="Grupo 97047">
            <path id="Trazado_124511" data-name="Trazado 124511" d="M34.442,10.763V27.984a2.159,2.159,0,0,1-2.153,2.153H21.526v4.994a1.467,1.467,0,0,1-2.594.936l-1.356-1.625-3.584-4.305H4.305a2.159,2.159,0,0,1-2.153-2.153V4.305A2.159,2.159,0,0,1,4.305,2.153H32.289a2.159,2.159,0,0,1,2.153,2.153Z" fill="#f0d0b4"/>
          </g>
          <g id="Grupo_97048" data-name="Grupo 97048">
            <path id="Trazado_124512" data-name="Trazado 124512" d="M17.253,50.619a5.957,5.957,0,0,0-.624,2.088l-.484,4.338H8.611V54.892a5.384,5.384,0,0,1,5.382-5.382,5.3,5.3,0,0,1,3.261,1.109Z" fill="#b4dd7f"/>
          </g>
          <g id="Grupo_97049" data-name="Grupo 97049">
            <path id="Trazado_124513" data-name="Trazado 124513" d="M36.595,54.892v2.153H29.06l-.484-4.338a5.957,5.957,0,0,0-.624-2.088,5.3,5.3,0,0,1,3.261-1.109,5.365,5.365,0,0,1,5.382,5.382Z" fill="#b4dd7f"/>
          </g>
          <g id="Grupo_97050" data-name="Grupo 97050">
            <path id="Trazado_124514" data-name="Trazado 124514" d="M28.576,52.707l.484,4.338H16.145l.484-4.338A5.993,5.993,0,0,1,22.6,47.358a6.054,6.054,0,0,1,4.015,1.528,6.375,6.375,0,0,1,1.335,1.733A5.957,5.957,0,0,1,28.576,52.707Z" fill="#fcd770"/>
          </g>
          <g id="Grupo_97051" data-name="Grupo 97051">
            <circle id="Elipse_5780" data-name="Elipse 5780" cx="3.229" cy="3.229" r="3.229" transform="translate(27.984 43.053)" fill="#f0d0b4"/>
          </g>
          <g id="Grupo_97052" data-name="Grupo 97052">
            <circle id="Elipse_5781" data-name="Elipse 5781" cx="3.229" cy="3.229" r="3.229" transform="translate(19.374 40.9)" fill="#f0d0b4"/>
          </g>
          <g id="Grupo_97053" data-name="Grupo 97053">
            <circle id="Elipse_5782" data-name="Elipse 5782" cx="3.229" cy="3.229" r="3.229" transform="translate(10.763 43.053)" fill="#f0d0b4"/>
          </g>
          <g id="Grupo_97054" data-name="Grupo 97054">
            <path id="Trazado_124515" data-name="Trazado 124515" d="M27.984,14.25v.172a6.266,6.266,0,0,1-2.088,4.66l-7.6,6.748-7.6-6.748a6.266,6.266,0,0,1-2.088-4.66V14.25a5.835,5.835,0,0,1,1.711-4.122,5.2,5.2,0,0,1,7.34,0l.635.635.635-.635a5.2,5.2,0,0,1,7.34,0A5.835,5.835,0,0,1,27.984,14.25Z" fill="#ff826e"/>
          </g>
          <g id="Grupo_97055" data-name="Grupo 97055">
            <path id="Trazado_124516" data-name="Trazado 124516" d="M45.205,32.289v1.076a1.079,1.079,0,0,1-1.076,1.076H39.824a1.079,1.079,0,0,1-1.076-1.076V22.6a1.079,1.079,0,0,1,1.076-1.076h4.305A1.079,1.079,0,0,1,45.205,22.6Z" fill="#b4dd7f"/>
          </g>
          <g id="Grupo_97056" data-name="Grupo 97056">
            <path id="Trazado_124517" data-name="Trazado 124517" d="M60.274,24.755v6.458a3.225,3.225,0,0,1-3.229,3.229H52.32a12.855,12.855,0,0,1-7.114-2.153V22.6l1.281-1.281A9.994,9.994,0,0,0,49.1,16.694a2.143,2.143,0,0,1,2.088-1.625,3.131,3.131,0,0,1,3.089,3.649l-.463,2.809h3.229a3.225,3.225,0,0,1,3.229,3.229Z" fill="#f0d0b4"/>
          </g>
        </g>
        <g id="Grupo_97058" data-name="Grupo 97058">
          <path id="Trazado_124518" data-name="Trazado 124518" d="M29.06,14.422v-.169a6.857,6.857,0,0,0-2.022-4.881A6.273,6.273,0,0,0,18.3,9.244a6.273,6.273,0,0,0-8.741.127,6.857,6.857,0,0,0-2.022,4.881v.169a7.314,7.314,0,0,0,2.453,5.462l8.31,7.388,8.309-7.387a7.312,7.312,0,0,0,2.454-5.463ZM18.3,24.391l-6.88-6.116a5.159,5.159,0,0,1-1.731-3.854v-.169a4.719,4.719,0,0,1,1.392-3.359,4.121,4.121,0,0,1,5.827,0L18.3,12.285l1.392-1.392a4.222,4.222,0,0,1,5.827,0,4.719,4.719,0,0,1,1.392,3.359v.169a5.161,5.161,0,0,1-1.731,3.854Z"/>
          <path id="Trazado_124519" data-name="Trazado 124519" d="M64.579,9.687H35.518V4.305a3.233,3.233,0,0,0-3.229-3.229H4.305A3.233,3.233,0,0,0,1.076,4.305V27.984a3.233,3.233,0,0,0,3.229,3.229h9.183l1.794,2.153H6.458a3.233,3.233,0,0,0-3.229,3.229V58.121A3.233,3.233,0,0,0,6.458,61.35H17.794l4.62,5.543a2.542,2.542,0,0,0,4.495-1.627V61.35H38.747a3.233,3.233,0,0,0,3.229-3.229v-18.3h2.153v3.916a2.542,2.542,0,0,0,4.495,1.627l4.62-5.543H64.579a3.233,3.233,0,0,0,3.229-3.229V12.916a3.233,3.233,0,0,0-3.229-3.229ZM14.5,29.06H4.305a1.077,1.077,0,0,1-1.076-1.076V4.305A1.077,1.077,0,0,1,4.305,3.229H32.289a1.077,1.077,0,0,1,1.076,1.076V27.984a1.077,1.077,0,0,1-1.076,1.076H20.45v6.068a.4.4,0,0,1-.689.249ZM29.06,31.213v2.153H22.6V31.213ZM39.824,58.121A1.077,1.077,0,0,1,38.747,59.2H24.755v6.068a.4.4,0,0,1-.689.249L18.8,59.2H6.458a1.077,1.077,0,0,1-1.076-1.076V36.595a1.077,1.077,0,0,1,1.076-1.076H17.076l1.032,1.238a2.534,2.534,0,0,0,4.455-1.238h6.5v1.076a3.233,3.233,0,0,0,3.229,3.229h7.534ZM65.655,36.595a1.077,1.077,0,0,1-1.076,1.076H52.236L46.97,43.988a.4.4,0,0,1-.689-.249V37.671H32.289a1.077,1.077,0,0,1-1.076-1.076V31.213h1.076a3.233,3.233,0,0,0,3.229-3.229V11.839h29.06a1.077,1.077,0,0,1,1.076,1.076Z"/>
          <path id="Trazado_124520" data-name="Trazado 124520" d="M26.908,46.281a4.263,4.263,0,0,0,.4,1.783,7.1,7.1,0,0,0-1.539-1.041,4.305,4.305,0,1,0-6.329,0A7.1,7.1,0,0,0,17.9,48.065a4.263,4.263,0,0,0,.4-1.783,4.305,4.305,0,1,0-7.419,2.957,6.461,6.461,0,0,0-3.344,5.654v2.153H9.687V54.892a4.3,4.3,0,0,1,6.225-3.848,7.16,7.16,0,0,0-.355,1.543l-.482,4.338,2.139.238.482-4.338a4.937,4.937,0,0,1,9.814,0l.482,4.338,2.139-.238-.482-4.338a7.1,7.1,0,0,0-.355-1.543,4.3,4.3,0,0,1,6.225,3.848v2.153h2.153V54.892a6.461,6.461,0,0,0-3.344-5.654,4.3,4.3,0,1,0-7.419-2.957ZM13.992,48.434a2.153,2.153,0,1,1,2.153-2.153A2.155,2.155,0,0,1,13.992,48.434ZM22.6,46.281a2.153,2.153,0,1,1,2.153-2.153A2.155,2.155,0,0,1,22.6,46.281Zm10.763,0a2.153,2.153,0,1,1-2.153-2.153A2.155,2.155,0,0,1,33.366,46.281Z"/>
          <path id="Trazado_124521" data-name="Trazado 124521" d="M57.045,20.45H55.086l.259-1.554a4.212,4.212,0,0,0-4.153-4.9,3.226,3.226,0,0,0-3.133,2.445,8.879,8.879,0,0,1-2.335,4.124l-.318.318a2.137,2.137,0,0,0-1.278-.429H39.824A2.155,2.155,0,0,0,37.671,22.6V33.366a2.155,2.155,0,0,0,2.153,2.153h4.305a2.148,2.148,0,0,0,2.025-1.449,13.836,13.836,0,0,0,6.161,1.449h4.73a4.31,4.31,0,0,0,4.305-4.305V24.755a4.31,4.31,0,0,0-4.305-4.305ZM39.824,33.366V22.6h4.305V33.366ZM59.2,31.213a2.155,2.155,0,0,1-2.153,2.153h-4.73a11.7,11.7,0,0,1-6.033-1.677V23.048l.964-.964a11.033,11.033,0,0,0,2.9-5.124,1.075,1.075,0,0,1,1.044-.815,2.059,2.059,0,0,1,2.03,2.4l-.676,4.06h4.5A2.155,2.155,0,0,1,59.2,24.755Z"/>
        </g>
      </g>
    </g>
  </g>
</svg>
