<svg xmlns="http://www.w3.org/2000/svg" xmlns:xlink="http://www.w3.org/1999/xlink" width="85" height="85" viewBox="0 0 85 85">
  <defs>
    <clipPath id="clip-path">
      <rect id="Rect치ngulo_35446" data-name="Rect치ngulo 35446" width="67" height="66.731" transform="translate(9 9.134)" fill="#ffd41c"/>
    </clipPath>
  </defs>
  <g id="Grupo_99199" data-name="Grupo 99199" transform="translate(-809.998 -9903.652)">
    <rect id="Rect치ngulo_34160" data-name="Rect치ngulo 34160" width="85" height="85" transform="translate(809.998 9903.652)" fill="#26d19e"/>
    <g id="Enmascarar_grupo_344" data-name="Enmascarar grupo 344" transform="translate(809.998 9903.652)" clip-path="url(#clip-path)">
      <g id="metas" transform="translate(9.134 9.134)">
        <path id="Trazado_124493" data-name="Trazado 124493" d="M58.163,32.1A27.328,27.328,0,1,1,30.836,4.773,27.328,27.328,0,0,1,58.163,32.1Z" fill="#ffd35d"/>
        <path id="Trazado_124494" data-name="Trazado 124494" d="M58.163,32.1A27.328,27.328,0,0,1,30.835,59.428c-.424,0-.846-.011-1.265-.03a27.327,27.327,0,0,0,0-54.595c.419-.019.841-.03,1.265-.03A27.328,27.328,0,0,1,58.163,32.1Z" fill="#ffa644"/>
        <path id="Trazado_124495" data-name="Trazado 124495" d="M53.1,32.1A22.267,22.267,0,1,1,30.836,9.834,22.267,22.267,0,0,1,53.1,32.1Z" fill="#f9e7c7"/>
        <path id="Trazado_124496" data-name="Trazado 124496" d="M45.511,32.1A14.676,14.676,0,1,1,30.835,17.425,14.676,14.676,0,0,1,45.511,32.1Z" fill="#ffb750"/>
        <path id="Trazado_124497" data-name="Trazado 124497" d="M37.92,32.1a7.085,7.085,0,1,1-7.085-7.085A7.085,7.085,0,0,1,37.92,32.1Z" fill="#fff7d4"/>
        <path id="Trazado_124498" data-name="Trazado 124498" d="M37.92,32.1a7.086,7.086,0,0,1-9.109,6.79,7.085,7.085,0,0,0,0-13.58A7.086,7.086,0,0,1,37.92,32.1Z" fill="#f9e7c7"/>
        <path id="Trazado_124499" data-name="Trazado 124499" d="M65.754,22.485V41.463a1.265,1.265,0,0,1-1.265,1.265h-16.7a1.265,1.265,0,0,1-1.265-1.265v-4.9l-4.6-4.12a.632.632,0,0,1,0-.942l4.6-4.12v-4.9a1.265,1.265,0,0,1,1.265-1.265h16.7A1.265,1.265,0,0,1,65.754,22.485Z" fill="#a9f2c2"/>
        <path id="Trazado_124500" data-name="Trazado 124500" d="M65.754,22.485V41.463a1.265,1.265,0,0,1-1.265,1.265H62.212a1.265,1.265,0,0,0,1.265-1.265V22.485a1.265,1.265,0,0,0-1.265-1.265h2.277A1.265,1.265,0,0,1,65.754,22.485Z" fill="#90eeba"/>
        <path id="Trazado_124501" data-name="Trazado 124501" d="M61.867,31.808A5.911,5.911,0,1,1,55.957,25.9,5.911,5.911,0,0,1,61.867,31.808Z" fill="#43cc99"/>
        <path id="Trazado_124502" data-name="Trazado 124502" d="M21.22,65.754H2.243A1.265,1.265,0,0,1,.978,64.489v-16.7a1.265,1.265,0,0,1,1.265-1.265h4.9l4.12-4.6a.632.632,0,0,1,.942,0l4.12,4.6h4.9a1.265,1.265,0,0,1,1.265,1.265v16.7A1.265,1.265,0,0,1,21.22,65.754Z" fill="#ff7459"/>
        <path id="Trazado_124503" data-name="Trazado 124503" d="M22.485,47.789v16.7a1.265,1.265,0,0,1-1.265,1.265H18.69a1.265,1.265,0,0,0,1.265-1.265v-16.7a1.265,1.265,0,0,0-1.265-1.265h2.53A1.265,1.265,0,0,1,22.485,47.789ZM11.26,41.926l-.794.886,2.948,3.29a1.265,1.265,0,0,0,.942.421h1.965l-4.12-4.6A.632.632,0,0,0,11.26,41.926Z" fill="#fc5b52"/>
        <path id="Trazado_124504" data-name="Trazado 124504" d="M12.045,60.62a.584.584,0,0,1-.626,0c-1.484-.942-7.61-5.134-4.433-8.267h0a2.626,2.626,0,0,1,3.714,0l.825.825a.292.292,0,0,0,.413,0l.825-.825a2.626,2.626,0,0,1,3.714,0h0C19.654,55.486,13.529,59.678,12.045,60.62Z" fill="#fff7d4"/>
        <path id="Trazado_124505" data-name="Trazado 124505" d="M35.137,2.243v16.7a1.265,1.265,0,0,1-1.265,1.265h-4.9l-4.12,4.6a.632.632,0,0,1-.942,0l-4.12-4.6h-4.9a1.265,1.265,0,0,1-1.265-1.265V2.243A1.265,1.265,0,0,1,14.894.978H33.872A1.265,1.265,0,0,1,35.137,2.243Z" fill="#fff47a"/>
        <path id="Trazado_124506" data-name="Trazado 124506" d="M35.137,2.243v16.7a1.265,1.265,0,0,1-1.265,1.265h-2.53a1.265,1.265,0,0,0,1.265-1.265V2.243A1.265,1.265,0,0,0,31.341.978h2.53A1.265,1.265,0,0,1,35.137,2.243ZM26.066,20.629l-2.948,3.29.794.886a.632.632,0,0,0,.942,0l4.12-4.6H27.009A1.265,1.265,0,0,0,26.066,20.629Z" fill="#ffe766"/>
        <path id="Trazado_124507" data-name="Trazado 124507" d="M24.861,4.641l1.456,2.951a1.067,1.067,0,0,0,.8.583l3.256.473a.533.533,0,0,1,.3.909l-2.356,2.3a1.067,1.067,0,0,0-.307.944l.556,3.243a.533.533,0,0,1-.774.562l-2.913-1.531a1.067,1.067,0,0,0-.993,0L20.974,16.6a.533.533,0,0,1-.774-.562l.556-3.243a1.067,1.067,0,0,0-.307-.944l-2.356-2.3a.533.533,0,0,1,.3-.909l3.256-.473a1.066,1.066,0,0,0,.8-.583l1.456-2.951A.533.533,0,0,1,24.861,4.641Z" fill="#ffb750"/>
        <path id="Trazado_124508" data-name="Trazado 124508" d="M19.768,12.554a.089.089,0,0,1,.026.079l-.556,3.243a1.509,1.509,0,0,0,2.192,1.592l2.913-1.531a.088.088,0,0,1,.083,0l2.913,1.531a1.511,1.511,0,0,0,2.192-1.593l-.556-3.243A.089.089,0,0,1,29,12.554l2.356-2.3a1.511,1.511,0,0,0-.837-2.577l-3.257-.473a.089.089,0,0,1-.067-.049L25.738,4.208a1.511,1.511,0,0,0-2.709,0h0L21.572,7.159a.089.089,0,0,1-.067.049l-3.256.473a1.511,1.511,0,0,0-.837,2.577Zm2.018-3.412a2.043,2.043,0,0,0,1.539-1.118l1.058-2.143,1.058,2.143A2.043,2.043,0,0,0,26.98,9.142l2.365.344-1.712,1.668a2.044,2.044,0,0,0-.588,1.809l.4,2.356-2.116-1.112a2.044,2.044,0,0,0-1.9,0l-2.116,1.112.4-2.356a2.044,2.044,0,0,0-.588-1.809L19.421,9.486ZM14.62,50.607a3.579,3.579,0,0,0-2.548,1.056l-.341.34-.34-.34a3.6,3.6,0,0,0-5.092,0,3.676,3.676,0,0,0-1.171,3.075c.316,2.955,4.138,5.679,5.766,6.713a1.567,1.567,0,0,0,1.674,0c1.629-1.034,5.451-3.758,5.767-6.713a3.676,3.676,0,0,0-1.169-3.073A3.58,3.58,0,0,0,14.62,50.607Zm1.771,3.918c-.178,1.668-2.574,3.773-4.659,5.134C9.646,58.3,7.25,56.193,7.072,54.525a1.727,1.727,0,0,1,.6-1.48,1.649,1.649,0,0,1,2.332,0l.825.825a1.269,1.269,0,0,0,1.8,0l.826-.825a1.649,1.649,0,0,1,2.332,0l0,0A1.723,1.723,0,0,1,16.391,54.525Zm48.1-34.282H56.54A28.32,28.32,0,0,0,36.114,4.29V2.243A2.245,2.245,0,0,0,33.872,0H14.894a2.245,2.245,0,0,0-2.243,2.243v8.181a.97.97,0,0,0-.122.087A28.318,28.318,0,0,0,5.923,45.546H2.243A2.245,2.245,0,0,0,0,47.789v16.7a2.245,2.245,0,0,0,2.243,2.243H21.22a2.245,2.245,0,0,0,2.243-2.243V59.435a28.346,28.346,0,0,0,33.2-15.73h7.83a2.245,2.245,0,0,0,2.243-2.243V22.485A2.245,2.245,0,0,0,64.489,20.243Zm-10.118,0H50.83A23.31,23.31,0,0,0,38.714,10.226a.978.978,0,1,0-.663,1.839,21.349,21.349,0,0,1,10.468,8.178h-.731a2.245,2.245,0,0,0-2.243,2.243v4.461l-4.272,3.828a1.606,1.606,0,0,0-.29.348H38.84A8.068,8.068,0,0,0,32.4,24.192q-.294-.058-.59-.094V21.186h2.059a2.245,2.245,0,0,0,2.186-1.75,13.716,13.716,0,0,1,6.576,5.7.977.977,0,1,0,1.682-1,15.667,15.667,0,0,0-8.2-6.78V6.281A26.226,26.226,0,0,1,54.371,20.243Zm-23.5,17.967-.031,0h-.022a6.165,6.165,0,0,1-1.165-.118,6.112,6.112,0,0,1-4-9.221.978.978,0,0,0-1.659-1.034,8.037,8.037,0,0,0-1.064,2.7c-.039.2-.068.393-.092.59H17.172a13.557,13.557,0,0,1,3.619-8.336l2.394,2.671a1.61,1.61,0,0,0,2.4,0l3.828-4.272h.447V24.1a8.025,8.025,0,0,0-2.181.585.978.978,0,0,0,.767,1.8,6.108,6.108,0,1,1,2.422,11.73Zm-21.3-7.086A21,21,0,0,1,13.113,20.3a2.238,2.238,0,0,0,1.782.886h4.461l.126.14a15.5,15.5,0,0,0-4.269,9.8Zm5.038-28.88a.288.288,0,0,1,.288-.288H33.872a.288.288,0,0,1,.288.288v16.7a.288.288,0,0,1-.288.288h-4.9a.977.977,0,0,0-.728.325l-3.863,4.311L20.52,19.556a.977.977,0,0,0-.728-.325h-4.9a.288.288,0,0,1-.288-.288V2.243ZM12.652,13.031v4.6a1.007,1.007,0,0,0-.066.076,22.978,22.978,0,0,0-4.974,13.42H4.506A26.308,26.308,0,0,1,12.652,13.031Zm8.856,51.457a.288.288,0,0,1-.288.288H2.243a.288.288,0,0,1-.288-.288v-16.7a.288.288,0,0,1,.288-.288h4.9a.977.977,0,0,0,.728-.325l3.863-4.311,3.863,4.311a.977.977,0,0,0,.728.325h4.9a.288.288,0,0,1,.288.288v16.7ZM21.22,45.546H16.759l-3.828-4.272a1.61,1.61,0,0,0-2.4,0L7.6,44.543A26.319,26.319,0,0,1,4.5,33.078H7.612a23.174,23.174,0,0,0,1.127,6.256.977.977,0,1,0,1.858-.608,21.225,21.225,0,0,1-1.028-5.648h5.644a15.551,15.551,0,0,0,6.037,11.4.978.978,0,0,0,1.2-1.545,13.609,13.609,0,0,1-5.275-9.854h5.658a8.068,8.068,0,0,0,6.437,6.931c.2.039.393.068.59.092v5.663a13.562,13.562,0,0,1-4.423-1.071.978.978,0,0,0-.772,1.8,15.505,15.505,0,0,0,5.194,1.233v5.644a21.385,21.385,0,0,1-3.331-.413.978.978,0,1,0-.393,1.915,23.331,23.331,0,0,0,3.725.454v3.11a26.321,26.321,0,0,1-6.4-1.028V47.789A2.245,2.245,0,0,0,21.22,45.546ZM31.813,58.433v-3.11a22.954,22.954,0,0,0,9.476-2.456,23.459,23.459,0,0,0,8-6.629.978.978,0,1,0-1.551-1.19,21.141,21.141,0,0,1-15.924,8.318V47.722a15.673,15.673,0,0,0,12.725-8.048.978.978,0,0,0-1.71-.947,13.718,13.718,0,0,1-11.015,7.037V40.107a8.072,8.072,0,0,0,6.931-6.439c.039-.2.068-.393.092-.59h2.342c.031.033.062.065.1.1L45.546,37v4.461a2.245,2.245,0,0,0,2.243,2.243H54.5A26.335,26.335,0,0,1,31.813,58.433Zm32.963-16.97a.288.288,0,0,1-.288.288h-16.7a.288.288,0,0,1-.288-.288v-4.9a.977.977,0,0,0-.325-.728l-4.311-3.863,4.311-3.863a.977.977,0,0,0,.325-.728v-4.9a.288.288,0,0,1,.288-.288h16.7a.288.288,0,0,1,.288.288Zm-2-15.945-1.356,2.1a6.874,6.874,0,1,1-3.478-2.406.978.978,0,0,1-.563,1.872,4.935,4.935,0,1,0,2.885,2.324l-3.285,5.085-.017.026a1.227,1.227,0,0,1-1,.54h-.007a1.224,1.224,0,0,1-.973-.508L52.443,31.4a.977.977,0,1,1,1.522-1.227l1.931,2.4,5.241-8.111a.978.978,0,0,1,1.642,1.061Z"/>
      </g>
    </g>
  </g>
</svg>
