<svg xmlns="http://www.w3.org/2000/svg" width="505" height="316.376" viewBox="0 0 505 316.376">
  <g id="Grupo_99197" data-name="Grupo 99197" transform="translate(-285 -9790.657)">
    <rect id="Rectángulo_35156" data-name="Rectángulo 35156" width="505" height="237" transform="translate(285 9870)" fill="#fff8d9"/>
    <g id="Grupo_95146" data-name="Grupo 95146" transform="translate(362.689 9772.327)">
      <g id="BACKGROUND" transform="translate(12.051 27.093)">
        <path id="Trazado_122777" data-name="Trazado 122777" d="M147.776,44.061c-9.724,8.262-16.36,19.486-24.475,29.332a120.8,120.8,0,0,1-35.084,29.03C74.015,110.2,58.23,115.126,45,124.458c-22.105,15.589-34.907,43.46-32.331,70.385S33.1,246.706,57.759,257.819c8.394,3.783,17.438,6.053,25.629,10.258,26.867,13.792,42.182,46.955,71.561,53.946,16.014,3.81,33.243-1.472,46.518-11.206s23.053-23.512,31.064-37.893c7.726-13.868,14.921-29.462,28.954-36.885,9.77-5.168,21.389-5.471,31.684-9.492,21.91-8.557,34.466-33.942,32.027-57.337S307.531,125.08,288.2,111.677c-11.619-8.056-25.027-14.087-34.09-24.94-5.948-7.123-9.588-15.839-14.29-23.839C221.591,31.882,176.373,19.762,147.776,44.061Z" transform="translate(-12.15 -31.157)" fill="none" stroke="#26d19e" stroke-miterlimit="10" stroke-width="0.97" stroke-dasharray="4" opacity="0.3"/>
        <path id="Trazado_122778" data-name="Trazado 122778" d="M165.419,44.063c-10.7,6.947-18.723,17.228-28.034,25.951A120.779,120.779,0,0,1,98.868,94.3C83.786,100.2,67.5,103.059,53.179,110.617c-23.921,12.625-40.192,38.624-41.089,65.658S25.7,230.329,48.734,244.513c7.839,4.828,16.518,8.239,24.1,13.459,24.875,17.124,35.811,51.977,64.052,62.677,15.393,5.833,33.157,2.8,47.57-5.148s25.878-20.362,35.667-33.6c9.441-12.763,18.576-27.306,33.445-32.868,10.352-3.872,21.914-2.683,32.64-5.351,22.827-5.677,38.534-29.242,39.115-52.757s-11.861-46.03-29.312-61.8c-10.49-9.48-23.014-17.181-30.61-29.106-4.986-7.827-7.478-16.938-11.116-25.475C240.186,41.45,196.9,23.631,165.419,44.063Z" transform="translate(-12.051 -32.608)" fill="#fff1b3"/>
      </g>
      <g id="OBJECTS" transform="translate(23.662 19.339)">
        <g id="Grupo_95119" data-name="Grupo 95119" transform="translate(82.105 223.449)">
          <path id="Trazado_122779" data-name="Trazado 122779" d="M163.51,359.9l-.691,2.4a7.886,7.886,0,0,0-1.794.731l-2.215-1.216-1.979,1.955,1.232,2.187a7.654,7.654,0,0,0-.741,1.771l-2.435.682v2.77l2.435.682a7.656,7.656,0,0,0,.741,1.772l-1.232,2.187,1.979,1.955,2.215-1.216a7.886,7.886,0,0,0,1.794.731l.691,2.4h2.806l.691-2.4a7.874,7.874,0,0,0,1.794-.731l2.215,1.216L173,375.828l-1.232-2.187a7.655,7.655,0,0,0,.741-1.772l2.435-.682v-2.77l-2.435-.682a7.654,7.654,0,0,0-.741-1.771L173,363.778l-1.979-1.955L168.8,363.04a7.875,7.875,0,0,0-1.794-.731l-.691-2.4Zm6.643,9.9a5.24,5.24,0,1,1-5.24-5.173A5.217,5.217,0,0,1,170.153,369.8Z" transform="translate(-154.886 -359.904)" fill="#ffe268"/>
        </g>
        <g id="Grupo_95120" data-name="Grupo 95120" transform="translate(96.59 198.834)">
          <path id="Trazado_122780" data-name="Trazado 122780" d="M189.115,322.388l-.973,3.388a11.11,11.11,0,0,0-2.529,1.03l-3.12-1.714-2.789,2.754,1.735,3.081a10.808,10.808,0,0,0-1.043,2.5l-3.431.961v3.9l3.431.961a10.821,10.821,0,0,0,1.043,2.5l-1.735,3.08,2.789,2.753,3.12-1.713a11.138,11.138,0,0,0,2.529,1.03l.973,3.387h3.953l.974-3.387a11.145,11.145,0,0,0,2.528-1.03l3.12,1.713,2.79-2.753-1.736-3.08a10.822,10.822,0,0,0,1.044-2.5l3.431-.961v-3.9l-3.431-.961a10.808,10.808,0,0,0-1.044-2.5l1.736-3.081-2.79-2.754-3.12,1.714a11.117,11.117,0,0,0-2.528-1.03l-.974-3.388Zm9.359,13.946a7.383,7.383,0,1,1-7.383-7.288A7.351,7.351,0,0,1,198.474,336.334Z" transform="translate(-176.964 -322.388)" fill="none" stroke="#ffea8e" stroke-miterlimit="10" stroke-width="0.777"/>
        </g>
        <g id="Grupo_95121" data-name="Grupo 95121" transform="translate(20.295 15.99)" opacity="0.4">
          <path id="Trazado_122781" data-name="Trazado 122781" d="M89.593,40.479l6.571,6.571,16.49-16.49" transform="translate(-70.232 -30.559)" fill="none" stroke="#a488f5" stroke-miterlimit="10" stroke-width="4.345"/>
          <path id="Trazado_122782" data-name="Trazado 122782" d="M60.085,40.479l6.571,6.571,16.49-16.49" transform="translate(-60.085 -30.559)" fill="none" stroke="#a488f5" stroke-miterlimit="10" stroke-width="4.345"/>
        </g>
        <g id="Grupo_95122" data-name="Grupo 95122" transform="translate(198.065 286.382)" opacity="0.4">
          <path id="Trazado_122783" data-name="Trazado 122783" d="M361.132,465.741l6.571,6.571,16.49-16.49" transform="translate(-341.772 -455.822)" fill="none" stroke="#baa6f7" stroke-miterlimit="10" stroke-width="4.345"/>
          <path id="Trazado_122784" data-name="Trazado 122784" d="M331.625,465.741l6.571,6.571,16.49-16.49" transform="translate(-331.625 -455.822)" fill="none" stroke="#baa6f7" stroke-miterlimit="10" stroke-width="4.345"/>
        </g>
        <g id="Grupo_95125" data-name="Grupo 95125" transform="translate(-45.352 46.352)">
          <g id="Grupo_95124" data-name="Grupo 95124">
            <g id="Grupo_95123" data-name="Grupo 95123">
              <rect id="Rectángulo_35155" data-name="Rectángulo 35155" width="84.636" height="61.417" rx="11.537" fill="#d1c3fa"/>
              <path id="Trazado_122785" data-name="Trazado 122785" d="M98.032,180.506l-7.957,18.239-7.957-18.239Z" transform="translate(-47.758 -121.115)" fill="#d1c3fa"/>
            </g>
            <path id="Trazado_122786" data-name="Trazado 122786" d="M81.431,149.091l-1.11-.737c-.933-.619-22.847-15.319-22.756-28.437.064-9.331,6.728-14.167,13.278-14.122A14.089,14.089,0,0,1,81.691,111.2a14.088,14.088,0,0,1,10.926-5.255c6.549.045,13.146,4.973,13.081,14.3-.091,13.118-22.205,27.513-23.146,28.12Z" transform="translate(-39.314 -95.423)" fill="#ff675d"/>
          </g>
        </g>
        <g id="Grupo_95127" data-name="Grupo 95127" transform="translate(62.716 24.236)">
          <g id="Grupo_95126" data-name="Grupo 95126">
            <path id="Trazado_122787" data-name="Trazado 122787" d="M166.556,27.038,164.04,35.8a28.737,28.737,0,0,0-6.537,2.663l-8.066-4.429-7.211,7.118,4.487,7.963a27.966,27.966,0,0,0-2.7,6.453l-8.871,2.483V68.134l8.871,2.484a27.962,27.962,0,0,0,2.7,6.452l-4.487,7.964,7.211,7.118,8.066-4.429a28.739,28.739,0,0,0,6.537,2.663l2.516,8.756h10.22l2.516-8.756a28.733,28.733,0,0,0,6.536-2.663l8.067,4.429,7.211-7.118-4.487-7.964a27.958,27.958,0,0,0,2.7-6.452l8.871-2.484V58.046l-8.871-2.483a27.963,27.963,0,0,0-2.7-6.453l4.487-7.963-7.211-7.118-8.067,4.429a28.731,28.731,0,0,0-6.536-2.663l-2.516-8.757Zm5.11,17.212a18.842,18.842,0,1,1-19.084,18.84A19,19,0,0,1,171.666,44.25Z" transform="translate(-135.145 -27.038)" fill="#ffea8e"/>
          </g>
          <ellipse id="Elipse_5384" data-name="Elipse 5384" cx="24.027" cy="23.719" rx="24.027" ry="23.719" transform="translate(12.494 12.334)" fill="none" stroke="#fff" stroke-miterlimit="10" stroke-width="1" stroke-dasharray="4"/>
        </g>
        <g id="Grupo_95135" data-name="Grupo 95135" transform="translate(253.458 169.375)">
          <g id="Grupo_95132" data-name="Grupo 95132">
            <g id="Grupo_95131" data-name="Grupo 95131">
              <g id="Grupo_95130" data-name="Grupo 95130">
                <path id="Trazado_122789" data-name="Trazado 122789" d="M428.293,282.531a5.043,5.043,0,0,0-5.043-5.043H340.818a5.043,5.043,0,0,0-5.043,5.043v2.909h92.518Z" transform="translate(-335.775 -277.488)" fill="#764cf0"/>
                <path id="Trazado_122790" data-name="Trazado 122790" d="M335.775,289.607v62.94a5.043,5.043,0,0,0,5.043,5.043h82.433a5.043,5.043,0,0,0,5.043-5.043v-62.94Z" transform="translate(-335.775 -281.656)" fill="#baa6f7"/>
              </g>
              <path id="Trazado_122791" data-name="Trazado 122791" d="M443.872,282.563a1.879,1.879,0,1,1-1.879-1.88A1.879,1.879,0,0,1,443.872,282.563Z" transform="translate(-371.655 -278.587)" fill="#55a3f3"/>
              <path id="Trazado_122792" data-name="Trazado 122792" d="M455.3,282.563a1.879,1.879,0,1,1-1.879-1.88A1.879,1.879,0,0,1,455.3,282.563Z" transform="translate(-375.586 -278.587)" fill="#fff"/>
              <path id="Trazado_122793" data-name="Trazado 122793" d="M466.732,282.563a1.879,1.879,0,1,1-1.879-1.88A1.879,1.879,0,0,1,466.732,282.563Z" transform="translate(-379.517 -278.587)" fill="#ff4648"/>
            </g>
          </g>
          <g id="Grupo_95134" data-name="Grupo 95134" transform="translate(22.14 15.82)">
            <path id="Trazado_122794" data-name="Trazado 122794" d="M418.547,321.435H403.925a1.691,1.691,0,0,1-.86-3.146c6.371-3.764,9.68-8.155,10.117-13.424a3.634,3.634,0,0,1,3.63-3.265,7.146,7.146,0,0,1,7.033,7.142h0v.568c0,4.612-1.366,7.553-3.887,11.366A1.69,1.69,0,0,1,418.547,321.435Z" transform="translate(-380.77 -301.6)" fill="#ffbeb4"/>
            <path id="Trazado_122795" data-name="Trazado 122795" d="M432.789,331.976a5.3,5.3,0,0,0-5.3-5.3H400.247a1.689,1.689,0,0,0-.86.236c-1.913,1.13-3.844,2.061-5.4,2.81-.541.261-1.052.507-1.517.74a1.69,1.69,0,0,0-.935,1.512v21.639a1.692,1.692,0,0,0,.935,1.512c6.831,3.414,12.509,3.828,19.13,3.828,1.026,0,2.074-.01,3.153-.02,1.193-.011,2.426-.023,3.718-.023h5.345a5.295,5.295,0,0,0,4.561-7.988,5.293,5.293,0,0,0,1.8-7.213,5.291,5.291,0,0,0,1.153-8.09A5.263,5.263,0,0,0,432.789,331.976Z" transform="translate(-377.092 -310.224)" fill="#ffbeb4"/>
            <path id="SVGCleanerId_0" data-name="SVGCleanerId 0" d="M383.893,361.382v8.9h-3.381v-8.9a1.69,1.69,0,1,1,3.381,0Z" transform="translate(-373.299 -321.576)" fill="#73c3ff"/>
            <g id="Grupo_95133" data-name="Grupo 95133" transform="translate(7.213 38.115)">
              <path id="SVGCleanerId_0-2" data-name="SVGCleanerId 0" d="M383.893,361.382v8.9h-3.381v-8.9a1.69,1.69,0,1,1,3.381,0Z" transform="translate(-380.512 -359.691)" fill="#73c3ff"/>
            </g>
            <path id="Trazado_122796" data-name="Trazado 122796" d="M385.635,326.679H371.21a1.691,1.691,0,0,0-1.691,1.691v28.851a1.723,1.723,0,0,0,1.691,1.712h10.819a5.358,5.358,0,0,0,4.739-2.955,5.249,5.249,0,0,0,.558-2.363V328.37A1.691,1.691,0,0,0,385.635,326.679Z" transform="translate(-369.519 -310.224)" fill="#2c54ac"/>
            <path id="Trazado_122797" data-name="Trazado 122797" d="M383.893,361.21v9.016h-3.381V361.21a1.69,1.69,0,0,1,3.381,0Z" transform="translate(-373.299 -321.518)" fill="#0a2a6b"/>
          </g>
        </g>
        <g id="Grupo_95140" data-name="Grupo 95140" transform="translate(66.752)">
          <path id="Trazado_122798" data-name="Trazado 122798" d="M303.4,345.639l-14.942,8.345a6.669,6.669,0,0,1-8.7-1.97l-51.019-72.1,32.225-18,38.438,68.819a6.671,6.671,0,0,0,3.282,2.914h0A6.669,6.669,0,0,1,303.4,345.639Z" transform="translate(-164.933 -102.759)" fill="#21155c"/>
          <path id="Trazado_122799" data-name="Trazado 122799" d="M299.9,347.6l-14.942,8.345a6.668,6.668,0,0,1-8.7-1.97l-51.019-72.1,32.225-18L295.9,332.7a6.668,6.668,0,0,0,3.282,2.914h0A6.669,6.669,0,0,1,299.9,347.6Z" transform="translate(-163.727 -103.433)" fill="#21155c"/>
          <ellipse id="Elipse_5386" data-name="Elipse 5386" cx="14.122" cy="38.636" rx="14.122" ry="38.636" transform="translate(0 129.888) rotate(-29.185)" fill="#8d6af2"/>
          <g id="Grupo_95136" data-name="Grupo 95136" transform="translate(12.329 22.453)">
            <path id="Trazado_122800" data-name="Trazado 122800" d="M270.621,55.671a215.474,215.474,0,0,1-78.632,82.817c-2.933,7.3.714,22.99,9.659,39s20.393,27.35,28.145,28.679a215.469,215.469,0,0,1,111.752-23.52l2.389.145L271.75,53.561Z" transform="translate(-164.279 -53.561)" fill="#baa6f7"/>
            <path id="Trazado_122801" data-name="Trazado 122801" d="M187.646,222c-8.945-16.014-12.592-31.707-9.659-39q-3.111,1.878-6.288,3.657l-21.421,11.964,37.68,67.462,21.421-11.964q3.179-1.775,6.412-3.436C208.038,249.354,196.59,238.019,187.646,222Z" transform="translate(-150.278 -98.074)" fill="#8d6af2"/>
          </g>
          <g id="Grupo_95137" data-name="Grupo 95137" transform="translate(83.234 177.566)" opacity="0.3">
            <path id="Trazado_122802" data-name="Trazado 122802" d="M272.937,293.165,260.882,299.9a1.7,1.7,0,0,1-2.319-.657h0a1.7,1.7,0,0,1,.657-2.319l12.054-6.733a1.705,1.705,0,0,1,2.319.657h0A1.7,1.7,0,0,1,272.937,293.165Z" transform="translate(-258.346 -289.972)" fill="#55a3f3"/>
            <path id="Trazado_122803" data-name="Trazado 122803" d="M277.958,302.156,265.9,308.889a1.7,1.7,0,0,1-2.319-.657h0a1.7,1.7,0,0,1,.657-2.319l12.055-6.733a1.7,1.7,0,0,1,2.319.657h0A1.7,1.7,0,0,1,277.958,302.156Z" transform="translate(-260.073 -293.064)" fill="#55a3f3"/>
            <path id="Trazado_122804" data-name="Trazado 122804" d="M282.98,311.146l-12.054,6.733a1.7,1.7,0,0,1-2.319-.657h0a1.7,1.7,0,0,1,.657-2.319l12.054-6.732a1.7,1.7,0,0,1,2.319.657h0A1.7,1.7,0,0,1,282.98,311.146Z" transform="translate(-261.8 -296.156)" fill="#55a3f3"/>
            <path id="Trazado_122805" data-name="Trazado 122805" d="M288,320.137l-12.054,6.733a1.706,1.706,0,0,1-2.32-.657h0a1.705,1.705,0,0,1,.657-2.319l12.054-6.732a1.7,1.7,0,0,1,2.319.657h0A1.7,1.7,0,0,1,288,320.137Z" transform="translate(-263.527 -299.248)" fill="#55a3f3"/>
            <path id="Trazado_122806" data-name="Trazado 122806" d="M293.024,329.128l-12.055,6.732a1.7,1.7,0,0,1-2.319-.657h0a1.7,1.7,0,0,1,.657-2.319l12.054-6.733a1.705,1.705,0,0,1,2.319.657h0A1.7,1.7,0,0,1,293.024,329.128Z" transform="translate(-265.254 -302.339)" fill="#55a3f3"/>
            <path id="Trazado_122807" data-name="Trazado 122807" d="M298.045,338.119l-12.054,6.732a1.7,1.7,0,0,1-2.319-.657h0a1.7,1.7,0,0,1,.657-2.319l12.055-6.733a1.705,1.705,0,0,1,2.319.657h0A1.705,1.705,0,0,1,298.045,338.119Z" transform="translate(-266.981 -305.431)" fill="#55a3f3"/>
            <path id="Trazado_122808" data-name="Trazado 122808" d="M303.067,347.11l-12.054,6.733a1.7,1.7,0,0,1-2.319-.657h0a1.7,1.7,0,0,1,.657-2.319l12.054-6.733a1.705,1.705,0,0,1,2.319.657h0A1.7,1.7,0,0,1,303.067,347.11Z" transform="translate(-268.708 -308.523)" fill="#55a3f3"/>
            <path id="Trazado_122809" data-name="Trazado 122809" d="M308.089,356.1l-12.055,6.733a1.7,1.7,0,0,1-2.319-.657h0a1.7,1.7,0,0,1,.657-2.319l12.054-6.733a1.7,1.7,0,0,1,2.319.657h0A1.7,1.7,0,0,1,308.089,356.1Z" transform="translate(-270.434 -311.615)" fill="#55a3f3"/>
            <path id="Trazado_122810" data-name="Trazado 122810" d="M313.11,365.092l-12.054,6.733a1.7,1.7,0,0,1-2.319-.657h0a1.7,1.7,0,0,1,.657-2.319l12.055-6.732a1.7,1.7,0,0,1,2.319.657h0A1.7,1.7,0,0,1,313.11,365.092Z" transform="translate(-272.161 -314.707)" fill="#55a3f3"/>
          </g>
          <g id="Grupo_95138" data-name="Grupo 95138" transform="translate(28.101 122.049)" opacity="0.3" style="mix-blend-mode: multiply;isolation: isolate">
            <path id="Trazado_122811" data-name="Trazado 122811" d="M266.91,214.5c-33.37,9.565-64.52,25.908-92.889,45.972,8.4,10.445,17.146,16.064,22.1,13.3l14.341-8.01,48.182,68.087a6.668,6.668,0,0,0,8.7,1.97l14.942-8.345h0l2.3-1.285a6.669,6.669,0,0,0-.712-11.988,6.671,6.671,0,0,1-3.282-2.914l-34.964-62.6a215.442,215.442,0,0,1,90.081-13.837L338.1,235l-.035-.064a14.251,14.251,0,0,0,10.06-1.123c6.627-3.7,9.03-13.6,7.625-26.883C326.137,203.2,295.664,206.262,266.91,214.5Z" transform="translate(-174.021 -205.358)" fill="#21155c"/>
          </g>
          <ellipse id="Elipse_5387" data-name="Elipse 5387" cx="29.707" cy="77.897" rx="29.707" ry="77.897" transform="translate(100.102 28.972) rotate(-29.185)" fill="#764cf0"/>
          <ellipse id="Elipse_5388" data-name="Elipse 5388" cx="26.561" cy="72.117" rx="26.561" ry="72.117" transform="matrix(0.873, -0.488, 0.488, 0.873, 105.667, 32.484)" fill="#21155c"/>
          <g id="Grupo_95139" data-name="Grupo 95139" transform="translate(132.365 49.555)">
            <path id="Trazado_122812" data-name="Trazado 122812" d="M416.433,95.744l-12.088,5.746c2.817,4.2,5.563,8.669,8.186,13.364q1,1.789,1.947,3.575l10.739-6.959a9.026,9.026,0,0,0,2.972-11.976h0A9.027,9.027,0,0,0,416.433,95.744Z" transform="translate(-357.684 -94.868)" fill="#ffe268"/>
            <path id="Trazado_122813" data-name="Trazado 122813" d="M379.889,104.961l-46.661,22.183c2.426,5.595,5.253,11.328,8.468,17.085q1.865,3.338,3.807,6.519L390.022,121.9q-.95-1.785-1.947-3.575C385.452,113.63,382.706,109.163,379.889,104.961Z" transform="translate(-333.228 -98.339)" fill="#ffe268"/>
          </g>
        </g>
        <g id="Grupo_95144" data-name="Grupo 95144" transform="translate(11.04 146.84)">
          <path id="Trazado_122814" data-name="Trazado 122814" d="M128.352,380.4l45.767,14.9,28.864-37.512,10.055,7.768L179.78,419.651l-55.426-12.318Z" transform="translate(-73.322 -282.568)" fill="#764cf0"/>
          <path id="Trazado_122815" data-name="Trazado 122815" d="M78.863,322.222c.041,5.782.262,11.391.592,17.164,3.195,4.471,7.573,8.287,12.841,9.85a28.719,28.719,0,0,0,11.509.588,19.721,19.721,0,0,0,9.426-3.279c-1.576-2.463-3.183-5-3.731-7.877-.358-1.872-.666-21.021-.666-21.021s8.713-2.41,11.992-4.331a6,6,0,0,0,2.544-2.275,5.776,5.776,0,0,0,.261-3.306,43.006,43.006,0,0,0-1.216-6.049,18.162,18.162,0,0,1-9.983-4.229,43.1,43.1,0,0,0,8.111-1.009,23.435,23.435,0,0,1-1.2-3.069c2.018-2.31,4.073-4.681,5.917-7.132-3.777-1.93-7.6-4.2-11.177-6.477a47.157,47.157,0,0,0-5.954-10.62,7.875,7.875,0,0,0-4.549-2.447A17.644,17.644,0,0,0,93,267.659a24.64,24.64,0,0,0-8.73,6.21,30.95,30.95,0,0,0-7.946,17.077,54.922,54.922,0,0,0,.419,13.433C77.472,310.38,78.819,316.176,78.863,322.222Z" transform="translate(-56.714 -251.1)" fill="#ffbeb4"/>
          <path id="Trazado_122816" data-name="Trazado 122816" d="M97.991,261.707s-11.85,6.444-18.64,6.351a61.359,61.359,0,0,0,2.508,6.662c1.737,4.124,3.21,8.1,4.947,12.223a28.988,28.988,0,0,1-4.754,1.775c-1.212-2.8-2.516-5.75-3.728-8.555a5.67,5.67,0,0,0-6.279,3.518,7.761,7.761,0,0,0,1.283,7.4,7.51,7.51,0,0,0,3.458,2.595,12.986,12.986,0,0,0,4.874.233A30.475,30.475,0,0,1,78.221,319.5a17.827,17.827,0,0,0-.723-7.266,25.05,25.05,0,0,1-8.335,11.916c-.248-4.878-2.453-9.47-5.257-13.468s-6.222-7.522-9.312-11.3-5.9-7.927-7.206-12.634-1.235-10.475,1.651-14.415c-2.323-2.351-2.523-6.263-1.074-9.233a14.639,14.639,0,0,1,7.248-6.475,73.806,73.806,0,0,1,9.4-3.12,70.722,70.722,0,0,0,13.281-5.637c3.557-1.96,7.108-4.282,11.151-4.66a19.442,19.442,0,0,1,8.808,1.657c3.874,1.522,7.831,3.906,9.222,7.829,1.132,3.2,0,6.591-1.638,9.559a11.908,11.908,0,0,0-1.491-6.619c.436,3.578-.288,7.688-2.968,10.1A28.494,28.494,0,0,0,97.991,261.707Z" transform="translate(-46.574 -243.143)" fill="#26d19e"/>
          <path id="Trazado_122817" data-name="Trazado 122817" d="M140.8,460.51s-.918-35.372-4.224-49.882a76.89,76.89,0,0,0-11.32-25.462L115.1,387.523l10.048,72.987Z" transform="translate(-70.138 -291.983)" fill="#ffe268"/>
          <path id="Trazado_122818" data-name="Trazado 122818" d="M46.574,454.126,69.163,366.6s18.5,3.113,26.029,12.48a66.511,66.511,0,0,1,10.7,19.636L142.211,414.9l43.593-34,10.138,14.222L146.251,434.55,107.532,426.1l3.456,28.025Z" transform="translate(-46.574 -285.599)" fill="#764cf0"/>
          <path id="Trazado_122819" data-name="Trazado 122819" d="M196.1,395.141l-37.917,29.57L93.028,397.068" transform="translate(-62.549 -295.413)" fill="none" stroke="#9ddcf9" stroke-miterlimit="10" stroke-width="1"/>
          <line id="Línea_202" data-name="Línea 202" x1="26.505" y1="6.421" transform="translate(34.454 134.082)" fill="none" stroke="#9ddcf9" stroke-miterlimit="10" stroke-width="1"/>
          <path id="Trazado_122820" data-name="Trazado 122820" d="M122.257,344.569,115.1,346.5l7.221,1.5Z" transform="translate(-70.138 -278.022)" fill="#0a2a6b"/>
          <path id="Trazado_122821" data-name="Trazado 122821" d="M125.994,292.555a1.952,1.952,0,1,1-1.952-1.952A1.952,1.952,0,0,1,125.994,292.555Z" transform="translate(-72.543 -259.464)" fill="#0a2a6b"/>
          <path id="Trazado_122822" data-name="Trazado 122822" d="M113.723,288.935a10.429,10.429,0,0,1,9.626-9.883" transform="translate(-69.666 -255.491)" fill="none" stroke="#26d19e" stroke-miterlimit="10" stroke-width="3"/>
          <g id="Grupo_95141" data-name="Grupo 95141" transform="translate(26.596 39.703)">
            <path id="Trazado_122823" data-name="Trazado 122823" d="M94.374,312.79a5.072,5.072,0,0,1-2.857-1.434,1.4,1.4,0,0,1-.351-1.05,1.572,1.572,0,0,1,1.36-1.106,3.8,3.8,0,0,1,1.637.037,14.768,14.768,0,0,0-1.735-3.666,4.3,4.3,0,0,0-1.793-1.723,2.495,2.495,0,0,0-3.435,1.915s-.728,2.558,1.962,5.482S94.374,312.79,94.374,312.79Z" transform="translate(-87.109 -303.656)" fill="#ffbeb4"/>
            <path id="Trazado_122824" data-name="Trazado 122824" d="M87.246,305.762a2.495,2.495,0,0,1,3.435-1.915,4.3,4.3,0,0,1,1.793,1.723,14.768,14.768,0,0,1,1.735,3.666,3.8,3.8,0,0,0-1.637-.037,1.572,1.572,0,0,0-1.36,1.106,1.4,1.4,0,0,0,.351,1.05,5.072,5.072,0,0,0,2.857,1.434" transform="translate(-87.156 -303.656)" fill="none" stroke="#0a2a6b" stroke-miterlimit="10" stroke-width="1"/>
          </g>
          <path id="Trazado_122825" data-name="Trazado 122825" d="M126.078,305.834c.27,1.158-1.163,2.481-3.2,2.955s-3.907-.081-4.177-1.239,1.163-2.481,3.2-2.955S125.809,304.676,126.078,305.834Z" transform="translate(-71.366 -264.217)" fill="#ff675d" opacity="0.6" style="mix-blend-mode: multiply;isolation: isolate"/>
          <g id="Grupo_95142" data-name="Grupo 95142" transform="translate(1.831 5.188)" opacity="0.2">
            <path id="Trazado_122826" data-name="Trazado 122826" d="M106.957,258.523a9.932,9.932,0,0,0-3.613-4.668c-2.06-1.629-4.554-2.97-7.174-2.79-2.535.175-4.733,1.725-6.862,3.112a45.7,45.7,0,0,1-14.663,6.585c-2.892.655-5.86.919-8.756,1.554a17.331,17.331,0,0,0-7.993,3.668,8.734,8.734,0,0,0-3.023,7.942" transform="translate(-51.213 -251.049)" fill="none" stroke="#9ddcf9" stroke-miterlimit="10" stroke-width="1"/>
            <path id="Trazado_122827" data-name="Trazado 122827" d="M104.162,268.764c2.117-2.306,1.784-6.162-.134-8.634a5.643,5.643,0,0,0-3.72-2.315,6.717,6.717,0,0,0-4.209,1.339c-3.774,2.449-6.635,6.322-10.821,7.972-3.331,1.314-7.042,1.034-10.622.934s-7.4.073-10.35,2.1a18.856,18.856,0,0,0-4.545,5.124" transform="translate(-52.941 -253.368)" fill="none" stroke="#9ddcf9" stroke-miterlimit="10" stroke-width="1"/>
            <path id="Trazado_122828" data-name="Trazado 122828" d="M87.927,281.1a127.553,127.553,0,0,0-21.557,2.114" transform="translate(-55.213 -261.384)" fill="none" stroke="#9ddcf9" stroke-miterlimit="10" stroke-width="1"/>
            <path id="Trazado_122829" data-name="Trazado 122829" d="M70.3,288.062c3.2,2.233,4.7,6.257,5.093,10.143a25.193,25.193,0,0,1-9.666,22.154" transform="translate(-54.991 -263.777)" fill="none" stroke="#9ddcf9" stroke-miterlimit="10" stroke-width="1"/>
            <path id="Trazado_122830" data-name="Trazado 122830" d="M60.577,290.845a17.7,17.7,0,0,1-5.854,22.041" transform="translate(-51.208 -264.734)" fill="none" stroke="#9ddcf9" stroke-miterlimit="10" stroke-width="1"/>
            <path id="Trazado_122831" data-name="Trazado 122831" d="M49.365,305.764A13.939,13.939,0,0,0,53.638,290.7" transform="translate(-49.365 -264.685)" fill="none" stroke="#9ddcf9" stroke-miterlimit="10" stroke-width="1"/>
          </g>
          <g id="Grupo_95143" data-name="Grupo 95143" transform="translate(139.23 73.878)">
            <path id="Trazado_122832" data-name="Trazado 122832" d="M258.779,380.923l14.038-14.253,8.721,12.91a33.152,33.152,0,0,1-8.927,5.974,42.939,42.939,0,0,1-8.524,2.814Z" transform="translate(-258.779 -359.501)" fill="#ffbeb4"/>
            <path id="Trazado_122833" data-name="Trazado 122833" d="M280.005,363.067c4.135-3.251,8.617-6.429,13.81-7.264a2.2,2.2,0,0,1,1.16.036.826.826,0,0,1,.547.921.85.85,0,0,1-.258.381,6.176,6.176,0,0,1-1.333.888,84.205,84.205,0,0,0-12.513,8.013c5.184-2.381,10.3-4.757,15.981-5.28a5.018,5.018,0,0,1,2.591.264.737.737,0,0,1,.462.468c.059.312-.234.569-.5.741-2.361,1.522-5.154,2.183-7.818,3.075a44.759,44.759,0,0,0-8.9,4.111c6.129-2.037,11.96-3.906,18.4-4.441.1-.009.207-.016.312-.023a1.069,1.069,0,0,1,.755,1.878,6.7,6.7,0,0,1-1.846,1.09,22.843,22.843,0,0,1-3.3.991c-.73.159-1.47.284-2.188.494a18.983,18.983,0,0,0-2.226.861l-7.5,3.269a50.96,50.96,0,0,1,15.327-3.058c.344-.012.539.379.576.722a1.052,1.052,0,0,1-.43.892,2.7,2.7,0,0,1-.892.421,17.261,17.261,0,0,1-4.841.823c-1.877.036-3.64,1.251-5.294,2.138a5.284,5.284,0,0,1-2.651.915,3.758,3.758,0,0,1-2.218-.266,9.94,9.94,0,0,1-5.254-11.953" transform="translate(-265.908 -355.743)" fill="#ffbeb4"/>
          </g>
          <path id="Trazado_122834" data-name="Trazado 122834" d="M244.2,352.071,254.9,341.163l9,12.685-9.652,5.991Z" transform="translate(-114.533 -276.851)" fill="#ffbeb4"/>
          <path id="Trazado_122835" data-name="Trazado 122835" d="M244.195,350.646s3.351-7.883,6.061-9.929,9.41-4.095,10.467-3.632.1,3.612-2.149,4.933-4.525,2.932-4.525,2.932Z" transform="translate(-114.533 -275.425)" fill="#ffbeb4"/>
          <path id="Trazado_122836" data-name="Trazado 122836" d="M261.648,345.971l-3.872,1.859a13.536,13.536,0,0,1-.478,4.164" transform="translate(-119.04 -278.504)" fill="none" stroke="#0a2a6b" stroke-miterlimit="10" stroke-width="1"/>
        </g>
        <g id="Grupo_95145" data-name="Grupo 95145" transform="translate(200.766 1.321)">
          <line id="Línea_203" data-name="Línea 203" x1="30.577" y2="45.738" transform="translate(0 1.312)" fill="none" stroke="#ffd41c" stroke-miterlimit="10" stroke-width="6"/>
          <line id="Línea_204" data-name="Línea 204" x1="77.889" y2="63.179" transform="translate(2.422)" fill="none" stroke="#ffd41c" stroke-miterlimit="10" stroke-width="6"/>
          <line id="Línea_205" data-name="Línea 205" x1="55.686" y2="9.095" transform="translate(30.475 108.84)" fill="none" stroke="#ffd41c" stroke-miterlimit="10" stroke-width="6"/>
          <line id="Línea_206" data-name="Línea 206" x1="80.097" y2="34.137" transform="translate(18.854 72.445)" fill="none" stroke="#ffd41c" stroke-miterlimit="10" stroke-width="6"/>
        </g>
      </g>
    </g>
  </g>
</svg>
