<svg xmlns="http://www.w3.org/2000/svg" xmlns:xlink="http://www.w3.org/1999/xlink" width="32" height="32" viewBox="0 0 32 32">
  <defs>
    <clipPath id="clip-path">
      <rect id="Rectángulo_35306" data-name="Rectángulo 35306" width="32" height="32" transform="translate(-4571 1423)" fill="#26d19e"/>
    </clipPath>
  </defs>
  <g id="Enmascarar_grupo_406" data-name="Enmascarar grupo 406" transform="translate(4571 -1423)" clip-path="url(#clip-path)">
    <g id="apreton-de-manos" transform="translate(-4571 1425.907)">
      <path id="Trazado_126277" data-name="Trazado 126277" d="M18.684,6.075C17.18,6.075,16,7.751,16,7.751a3.8,3.8,0,0,0-2.684-1.677,2.92,2.92,0,0,0-2.858,2.787,3.35,3.35,0,0,0,.624,2.113c.783,1.187,4.924,4.03,4.924,4.03s4.126-2.832,4.913-4.03a3.35,3.35,0,0,0,.624-2.113A2.921,2.921,0,0,0,18.684,6.075Zm0,0" fill="#f3777a"/>
      <path id="Trazado_126278" data-name="Trazado 126278" d="M18.407,13.88a.629.629,0,0,1-.239-.048.61.61,0,0,1-.108-.057.614.614,0,0,1-.173-.173.636.636,0,0,1-.057-.108.623.623,0,0,1-.036-.117.6.6,0,0,1-.012-.122.616.616,0,0,1,.012-.123.655.655,0,0,1,.036-.117.641.641,0,0,1,.057-.108.616.616,0,0,1,.281-.23.622.622,0,0,1,.68.135.637.637,0,0,1,.078.095.625.625,0,0,1,.058.108.655.655,0,0,1,.036.117.634.634,0,0,1,.012.123.619.619,0,0,1-.048.239.6.6,0,0,1-.058.108.624.624,0,0,1-.078.095.6.6,0,0,1-.095.078.63.63,0,0,1-.107.057.651.651,0,0,1-.117.036A.63.63,0,0,1,18.407,13.88Zm0,0"/>
      <path id="Trazado_126279" data-name="Trazado 126279" d="M16,15.629a.622.622,0,0,1-.353-.11c-.434-.3-4.266-2.948-5.092-4.2a4.006,4.006,0,0,1-.726-2.49,3.6,3.6,0,0,1,1.072-2.378,3.421,3.421,0,0,1,2.41-1,3.874,3.874,0,0,1,2.693,1.332A3.957,3.957,0,0,1,18.684,5.45a3.42,3.42,0,0,1,2.41,1,3.6,3.6,0,0,1,1.072,2.378,4.011,4.011,0,0,1-.725,2.489.625.625,0,1,1-1.044-.687A2.714,2.714,0,0,0,20.918,8.9a2.305,2.305,0,0,0-2.234-2.2c-1.147,0-2.163,1.4-2.173,1.411A.625.625,0,0,1,15.479,8.1c-.009-.012-.953-1.4-2.164-1.4a2.305,2.305,0,0,0-2.234,2.2,2.709,2.709,0,0,0,.521,1.736,28.253,28.253,0,0,0,4.756,3.858A.625.625,0,0,1,16,15.629Zm0,0"/>
      <path id="Trazado_126280" data-name="Trazado 126280" d="M28.333,23.465V19.014H26.324l-.461-1.545A2.409,2.409,0,0,0,23.5,15.551h-2.35a.949.949,0,0,0-.742,1.539l.1.123H18.263a1,1,0,0,0-.89,1.026,1.016,1.016,0,0,0,.966.974h-.478a1.006,1.006,0,0,0,0,2.005,1,1,0,0,0,0,1.992l.545.007a1,1,0,0,0-.923,1.024,1.013,1.013,0,0,0,.966.97h4.888c2.49,0,2.986-1.747,2.986-1.747" fill="#fbcbc5"/>
      <path id="Trazado_126281" data-name="Trazado 126281" d="M28.333,18.366h3.042v5.707H28.333Zm0,0" fill="#ffe787"/>
      <path id="Trazado_126282" data-name="Trazado 126282" d="M31.375,17.74H28.333a.625.625,0,0,0-.625.625v.023H26.79l-.321-1.074A3.048,3.048,0,0,0,23.5,14.927H21.191a1.607,1.607,0,0,0-1.445.872,1.574,1.574,0,0,0-.165.79H18.263l-.059,0a1.633,1.633,0,0,0-1.456,1.666,1.6,1.6,0,0,0,.176.686,1.629,1.629,0,0,0-.267,2.275,1.62,1.62,0,0,0,.132,2.146,1.646,1.646,0,0,0,.213.179,1.625,1.625,0,0,0,1.416,2.293l4.92,0a3.774,3.774,0,0,0,3.356-1.724.625.625,0,0,0-1.054-.674,2.612,2.612,0,0,1-2.3,1.147H18.47a.386.386,0,0,1-.362-.362.373.373,0,0,1,.344-.384h.608a.625.625,0,0,0,0-1.25l-1.168,0a.374.374,0,0,1-.006-.742h1.177a.625.625,0,0,0,0-1.25h-1.17a.381.381,0,0,1,0-.756h1.17a.625.625,0,0,0,0-1.25h-.7A.393.393,0,0,1,18,18.222a.378.378,0,0,1,.307-.384h4.736a.625.625,0,0,0,.624-.667.639.639,0,0,0-.645-.583H20.841a.324.324,0,0,1,.022-.229.314.314,0,0,1,.291-.183H23.5a1.792,1.792,0,0,1,1.746,1.416c0,.019.009.037.014.055l.461,1.545a.625.625,0,0,0,.6.446h1.384v4.434a.625.625,0,0,0,.625.625h3.042A.625.625,0,0,0,32,24.072V18.365a.625.625,0,0,0-.625-.625Zm-.625,5.707H28.958V18.99H30.75Zm0,0"/>
      <path id="Trazado_126283" data-name="Trazado 126283" d="M3.667,23.814V19.363H5.676l.461-1.545A2.409,2.409,0,0,1,8.5,15.9h2.35a.949.949,0,0,1,.742,1.539l-.1.123h2.246a1,1,0,0,1,.89,1.026,1.016,1.016,0,0,1-.966.974h.478a1.006,1.006,0,0,1,0,2.005,1,1,0,0,1,0,1.992l-.545.007a1,1,0,0,1,.923,1.024,1.013,1.013,0,0,1-.966.97H8.662c-2.489,0-2.986-1.747-2.986-1.747" fill="#e1be9c"/>
      <path id="Trazado_126284" data-name="Trazado 126284" d="M.625,18.715H3.667v5.707H.625Zm0,0" fill="#b1e9f9"/>
      <path id="Trazado_126285" data-name="Trazado 126285" d="M15.687,20.565a1.636,1.636,0,0,0-.612-1.274,1.593,1.593,0,0,0,.176-.685A1.633,1.633,0,0,0,13.8,16.94l-.059,0H12.419a1.574,1.574,0,0,0-.165-.789,1.607,1.607,0,0,0-1.445-.873H8.5a3.048,3.048,0,0,0-2.965,2.388L5.21,18.738H4.291v-.023a.625.625,0,0,0-.625-.625H.625A.625.625,0,0,0,0,18.714v5.707a.625.625,0,0,0,.625.625H3.666a.625.625,0,0,0,.625-.625V19.988H5.676a.625.625,0,0,0,.6-.447L6.736,18c0-.016.009-.033.013-.049a1.742,1.742,0,0,1,1.686-1.422h2.412a.315.315,0,0,1,.292.183.326.326,0,0,1,.022.229h-2.2a.625.625,0,0,0-.624.667.639.639,0,0,0,.645.583H13.7a.378.378,0,0,1,.307.384.393.393,0,0,1-.361.366h-.7a.625.625,0,0,0,0,1.25h1.17a.381.381,0,0,1,0,.756h-1.17a.625.625,0,1,0,0,1.25h1.177a.374.374,0,0,1-.006.742l-1.168,0a.625.625,0,0,0,0,1.25h.607a.372.372,0,0,1,.345.384.387.387,0,0,1-.364.362H8.662a2.633,2.633,0,0,1-2.319-1.181.568.568,0,0,0-.631-.237l-.12.034a.567.567,0,0,0-.331.84,3.77,3.77,0,0,0,3.4,1.795c4.9,0,4.9,0,4.921,0a1.643,1.643,0,0,0,1.559-1.576A1.627,1.627,0,0,0,15,23.892a1.62,1.62,0,0,0,.344-2.325,1.628,1.628,0,0,0,.345-1ZM1.25,19.34H3.042V23.8H1.25Zm0,0"/>
      <path id="Trazado_126286" data-name="Trazado 126286" d="M16,1.977a.625.625,0,0,1-.625-.625V.625a.625.625,0,0,1,1.25,0v.727A.625.625,0,0,1,16,1.977Zm0,0"/>
      <path id="Trazado_126287" data-name="Trazado 126287" d="M9.32,4.485A.623.623,0,0,1,8.878,4.3l-.331-.331a.625.625,0,0,1,.884-.884l.331.331A.625.625,0,0,1,9.32,4.485Zm0,0"/>
      <path id="Trazado_126288" data-name="Trazado 126288" d="M22.68,4.485a.625.625,0,0,1-.442-1.067l.331-.331a.625.625,0,0,1,.884.884l-.331.331a.622.622,0,0,1-.442.183Zm0,0"/>
      <path id="Trazado_126289" data-name="Trazado 126289" d="M25.915,11.165h-.727a.625.625,0,1,1,0-1.25h.727a.625.625,0,0,1,0,1.25Zm0,0"/>
      <path id="Trazado_126290" data-name="Trazado 126290" d="M6.812,11.165H6.085a.625.625,0,1,1,0-1.25h.727a.625.625,0,1,1,0,1.25Zm0,0"/>
    </g>
  </g>
</svg>
