<svg xmlns="http://www.w3.org/2000/svg" xmlns:xlink="http://www.w3.org/1999/xlink" width="32" height="32" viewBox="0 0 32 32">
  <defs>
    <clipPath id="clip-path">
      <rect id="Rectángulo_35307" data-name="Rectángulo 35307" width="32" height="32" transform="translate(-4571 1466)" fill="#26d19e"/>
    </clipPath>
  </defs>
  <g id="Enmascarar_grupo_407" data-name="Enmascarar grupo 407" transform="translate(4571 -1466)" clip-path="url(#clip-path)">
    <g id="XMLID_919_" transform="translate(-4571 1466)">
      <path id="XMLID_2025_" d="M24.448,24.661V21.572H23.1a7.043,7.043,0,0,0-.934-2.252l.952-.952-2.184-2.184-.952.952a7.044,7.044,0,0,0-2.252-.933V14.856H14.644V16.2a7.041,7.041,0,0,0-2.252.933l-.952-.952L9.256,18.368l.952.952a7.043,7.043,0,0,0-.934,2.252H7.928v3.089H9.274a7.043,7.043,0,0,0,.933,2.253l-.951.951,2.184,2.184.951-.951a7.042,7.042,0,0,0,2.253.934v1.345h3.089V30.031a7.042,7.042,0,0,0,2.253-.934l.951.951,2.184-2.184-.951-.951a7.043,7.043,0,0,0,.933-2.253Zm-8.26,2.357a3.9,3.9,0,1,1,3.9-3.9A3.9,3.9,0,0,1,16.188,27.017Z" fill="#91def5"/>
      <g id="XMLID_1357_">
        <g id="XMLID_1700_">
          <g id="XMLID_1702_">
            <path id="XMLID_85_" d="M25.143,14.647,19.036,8.54,16.7,4.927a8.725,8.725,0,0,0-4.649-1.342l-7.2,8.084L16.482,23.308a1.531,1.531,0,0,0,2.165-2.165,1.531,1.531,0,0,0,2.165-2.165,1.531,1.531,0,0,0,2.165-2.165,1.531,1.531,0,0,0,2.165-2.165Z" fill="#ffcbbe"/>
            <g id="XMLID_1705_">
              <path id="XMLID_2018_" d="M6.867,13.946l1.209-1.209A1.531,1.531,0,1,1,10.241,14.9L9.033,16.111a1.531,1.531,0,0,1-2.165-2.165Z" fill="#fff"/>
              <path id="XMLID_2017_" d="M9.032,16.111,10.241,14.9a1.531,1.531,0,1,1,2.165,2.165L11.2,18.276a1.531,1.531,0,0,1-2.165-2.165Z" fill="#fff"/>
              <path id="XMLID_2016_" d="M11.2,18.276l1.209-1.209a1.531,1.531,0,1,1,2.165,2.165l-1.209,1.209A1.531,1.531,0,0,1,11.2,18.276Z" fill="#fff"/>
              <path id="XMLID_2015_" d="M13.363,20.442l1.209-1.209A1.531,1.531,0,0,1,16.737,21.4l-1.209,1.209a1.531,1.531,0,0,1-2.165-2.165Z" fill="#fff"/>
              <path id="XMLID_2014_" d="M6.867,13.946l1.209-1.209A1.531,1.531,0,1,1,10.241,14.9L9.033,16.111a1.531,1.531,0,0,1-2.165-2.165Z" fill="#fff"/>
              <path id="XMLID_1884_" d="M9.032,16.111,10.241,14.9a1.531,1.531,0,1,1,2.165,2.165L11.2,18.276a1.531,1.531,0,0,1-2.165-2.165Z" fill="#fff"/>
              <path id="XMLID_1707_" d="M11.2,18.276l1.209-1.209a1.531,1.531,0,1,1,2.165,2.165l-1.209,1.209A1.531,1.531,0,0,1,11.2,18.276Z" fill="#fff"/>
              <path id="XMLID_1706_" d="M13.363,20.442l1.209-1.209A1.531,1.531,0,0,1,16.737,21.4l-1.209,1.209a1.531,1.531,0,0,1-2.165-2.165Z" fill="#fff"/>
            </g>
            <path id="XMLID_1703_" d="M25.143,14.647l2.5-2.5-7.458-7.5H18.867A8.725,8.725,0,0,0,12.7,7.208a1.708,1.708,0,0,0,2.415,2.415l1.077-1.077h2.847Z" fill="#f2bb88"/>
          </g>
        </g>
        <g id="XMLID_1571_">
          <g id="XMLID_1388_">
            <path id="XMLID_1406_" d="M6.867,13.946l1.209-1.209A1.531,1.531,0,1,1,10.241,14.9L9.033,16.111a1.531,1.531,0,0,1-2.165-2.165Z" fill="#f2bb88"/>
            <path id="XMLID_1402_" d="M9.032,16.111,10.241,14.9a1.531,1.531,0,1,1,2.165,2.165L11.2,18.276a1.531,1.531,0,0,1-2.165-2.165Z" fill="#f2bb88"/>
            <path id="XMLID_1386_" d="M11.2,18.276l1.209-1.209a1.531,1.531,0,1,1,2.165,2.165l-1.209,1.209A1.531,1.531,0,0,1,11.2,18.276Z" fill="#f2bb88"/>
            <path id="XMLID_1385_" d="M13.363,20.442l1.209-1.209A1.531,1.531,0,0,1,16.737,21.4l-1.209,1.209a1.531,1.531,0,0,1-2.165-2.165Z" fill="#f2bb88"/>
          </g>
          <path id="XMLID_2843_" d="M27.358,11.871l-7.5-7.5a1.222,1.222,0,0,1,0-1.729L21.52.981a1.222,1.222,0,0,1,1.729,0l7.5,7.5a1.222,1.222,0,0,1,0,1.729l-1.662,1.662a1.222,1.222,0,0,1-1.729,0Z" fill="#f6838d"/>
          <path id="XMLID_1830_" d="M4.642,11.871l7.5-7.5a1.222,1.222,0,0,0,0-1.729L10.48.981a1.222,1.222,0,0,0-1.729,0l-7.5,7.5a1.222,1.222,0,0,0,0,1.729l1.662,1.662a1.222,1.222,0,0,0,1.729,0Z" fill="#ffcb7c"/>
        </g>
      </g>
      <g id="XMLID_82_">
        <path id="XMLID_109_" d="M31.19,8.04,23.69.54a1.849,1.849,0,0,0-2.611,0L19.417,2.2a1.848,1.848,0,0,0-.465,1.827h-.085a9.427,9.427,0,0,0-2.072.229,9.375,9.375,0,0,0-3.739-1.24,1.835,1.835,0,0,0-.474-.815L10.921.54A1.849,1.849,0,0,0,8.31.54L6.545,2.3a.624.624,0,0,0,.882.882L9.192,1.422a.6.6,0,0,1,.846,0L11.7,3.084a.6.6,0,0,1,0,.846l-7.5,7.5a.6.6,0,0,1-.846,0L1.692,9.768a.6.6,0,0,1,0-.846L3.457,7.158a.624.624,0,0,0-.882-.882L.81,8.04a1.849,1.849,0,0,0,0,2.611l1.662,1.662a1.849,1.849,0,0,0,2.193.313L6.05,14.011a2.155,2.155,0,0,0,1.9,3.172h.011a2.15,2.15,0,0,0,1.552,2.079,7.643,7.643,0,0,0-.723,1.685H7.928a.624.624,0,0,0-.624.624v3.089a.624.624,0,0,0,.624.624H8.79a7.634,7.634,0,0,0,.634,1.529l-.609.609a.624.624,0,0,0,0,.883L11,30.49a.624.624,0,0,0,.882,0l.609-.609a7.64,7.64,0,0,0,1.53.634v.861a.624.624,0,0,0,.624.624h3.089a.624.624,0,0,0,.624-.624v-.861a7.633,7.633,0,0,0,1.53-.634l.609.609a.624.624,0,0,0,.883,0l2.184-2.184a.624.624,0,0,0,0-.882l-.609-.609a7.638,7.638,0,0,0,.634-1.529h.862a.624.624,0,0,0,.624-.624V21.571a.624.624,0,0,0-.624-.624h-.862a7.647,7.647,0,0,0-.494-1.26,2.177,2.177,0,0,0,.327-.269,2.148,2.148,0,0,0,.63-1.534h.011a2.157,2.157,0,0,0,1.9-3.173l1.9-1.9a1.862,1.862,0,0,0,.366.037,1.841,1.841,0,0,0,1.306-.54l1.662-1.662a1.849,1.849,0,0,0,0-2.611ZM19.881,5.276l6.875,6.875-1.613,1.613L19.478,8.1a.624.624,0,0,0-.441-.183h0l-2.847.006a.624.624,0,0,0-.44.183L14.671,9.182a1.084,1.084,0,1,1-1.533-1.533,8.049,8.049,0,0,1,5.729-2.373h1.014ZM7.308,15.67a.908.908,0,0,1,0-1.283h0l1.208-1.208A.907.907,0,0,1,9.8,14.461L8.591,15.67a.908.908,0,0,1-1.283,0Zm2.165.882,1.209-1.209a.907.907,0,0,1,1.283,1.283l-1.209,1.209a.907.907,0,0,1-1.283-1.283Zm3.44,6.487.008.009a2.156,2.156,0,0,0,2.7.282l.419.419a2.154,2.154,0,0,0,3.421-.5,3.276,3.276,0,0,1-6.549-.131c0-.026,0-.052,0-.078Zm5.292-.173a.908.908,0,0,1-1.283,0l-.386-.386.641-.641a2.147,2.147,0,0,0,.5-.783l.527.527a.908.908,0,0,1,0,1.283ZM16.3,19.674a.907.907,0,0,1,0,1.283l-1.209,1.209A.907.907,0,0,1,13.8,20.883l1.209-1.209a.908.908,0,0,1,1.283,0Zm-2.165-.883L12.922,20a.907.907,0,0,1-1.283-1.283l1.209-1.209a.907.907,0,0,1,1.283,1.283Zm9.694,3.4v1.841H23.1a.624.624,0,0,0-.609.489,6.4,6.4,0,0,1-.851,2.053.624.624,0,0,0,.085.776l.51.51-1.3,1.3-.51-.51a.624.624,0,0,0-.776-.085,6.4,6.4,0,0,1-2.053.851.624.624,0,0,0-.489.609v.721H15.268v-.721a.624.624,0,0,0-.489-.609,6.4,6.4,0,0,1-2.053-.851.624.624,0,0,0-.776.085l-.51.51-1.3-1.3.51-.51a.624.624,0,0,0,.085-.776,6.4,6.4,0,0,1-.851-2.053.624.624,0,0,0-.609-.489H8.552V22.2h.722a.624.624,0,0,0,.609-.488,6.4,6.4,0,0,1,.475-1.373,2.155,2.155,0,0,0,1.608,1.156,4.524,4.524,0,1,0,8.616.549,2.15,2.15,0,0,0,1.3-1.97,6.4,6.4,0,0,1,.61,1.639.624.624,0,0,0,.609.488h.722Zm.877-5.825a.907.907,0,0,1-1.283,0l-5.356-5.356a.624.624,0,1,0-.883.883l5.356,5.356a.907.907,0,0,1-1.283,1.283h0L15.9,13.181a.624.624,0,0,0-.883.883l5.356,5.356A.907.907,0,1,1,19.088,20.7l-1.91-1.91-.008-.007a2.148,2.148,0,0,0-1.528-.623A2.153,2.153,0,0,0,13.489,16h-.011a2.151,2.151,0,0,0-2.165-2.164A2.154,2.154,0,0,0,7.634,12.3l-.767.767L5.6,11.8l6.983-6.983a1.838,1.838,0,0,0,.379-.551,8.125,8.125,0,0,1,2.146.55,9.344,9.344,0,0,0-2.853,1.955,2.332,2.332,0,1,0,3.3,3.3l.895-.895,2.33,0L24.7,15.088a.907.907,0,0,1,0,1.283Zm5.606-6.6L28.646,11.43a.6.6,0,0,1-.846,0l-7.5-7.5a.6.6,0,0,1,0-.846l1.662-1.662a.6.6,0,0,1,.846,0l7.5,7.5a.6.6,0,0,1,0,.846Z"/>
        <path id="XMLID_124_" d="M5,5.355a.623.623,0,1,0-.441-.183A.631.631,0,0,0,5,5.355Z"/>
      </g>
    </g>
  </g>
</svg>
